<?xml version="1.0" encoding="utf-8"?>
<!-- Generator: Adobe Illustrator 22.0.1, SVG Export Plug-In . SVG Version: 6.00 Build 0)  -->
<svg version="1.1" id="图层_1" xmlns="http://www.w3.org/2000/svg" xmlns:xlink="http://www.w3.org/1999/xlink" x="0px" y="0px"
	 viewBox="0 0 600 600" style="enable-background:new 0 0 600 600;" xml:space="preserve">
<style type="text/css">
	.st0{fill:url(#SVGID_1_);}
	.st1{fill:#0A0B06;}
	.st2{fill:#809E00;}
	.st3{fill:#143E00;}
	.st4{fill:#FFFFFF;}
	.st5{fill:#71AD38;}
	.st6{fill:#3A590A;}
	.st7{fill:#2F4C07;}
	.st8{fill:#729F00;}
	.st9{fill:#303E22;}
	.st10{fill:#528706;}
	.st11{fill:#55660E;}
	.st12{fill:#326B15;}
	.st13{fill:#4F8100;}
	.st14{fill:#4C930D;}
	.st15{opacity:0.2;fill:#FFFFFF;}
	.st16{opacity:0.2;fill:#FAFAFA;}
	.st17{opacity:0.1;fill:#FAFAFA;}
	.st18{opacity:0.1;fill:#FDFDFD;}
	.st19{opacity:0.4;fill:#A5AF3F;}
</style>
<linearGradient id="SVGID_1_" gradientUnits="userSpaceOnUse" x1="221.7249" y1="462.1086" x2="388.0762" y2="462.1086">
	<stop  offset="0" style="stop-color:#92948F"/>
	<stop  offset="1" style="stop-color:#FFF2F5"/>
</linearGradient>
<path class="st0" d="M221.7,386l27.2,142.8c0.6,3.1,4.1,6.3,7.3,6.7c17.2,2.4,69.9,5.5,97.5-2.4c2.5-0.7,4.4-2.8,4.9-5.3L388.1,386
	C388.1,386,318,396,221.7,386z"/>
<path class="st1" d="M221.7,386c0,0-9.1-7.8,75-7.8s91.4,3.7,91.4,7.8C388.1,390.1,265,393.3,221.7,386z"/>
<path class="st2" d="M406.2,301.8c0,0,28.7,1.5,31.8,13.5c3,12,6.1,21.6-19.2,43.2c0,0,0-4.6,0-8.7s-12.6-21.6-12.6-33.5
	s-7.6-10-7.6-10s-9.1-17.4,2.6-22.2C401.2,283.9,409.3,293.3,406.2,301.8z"/>
<path class="st3" d="M354.6,264.6c-7.9-7.9-9.6-15.4-9.6-15.4c23.3,6.7,29.4,32.2,29.4,32.2s5.8-29.4,3.1-40.7
	c-2.6-11.3-23.1-32.7-27.2-34.7c-4.1-1.9-23.1-6.7-27.7-2.2c-4.6,4.6-3.9,23.9-3.9,23.9c-3.9,6.4,11.6,45.6,11.6,39.6
	c0-6,3.6-6.5,3.6-6.5c6.8,6.8-3.6,18.3-3.6,18.3s10.8,10.3,22.1,14.4c11.3,4.1,13.2,11.1,13.2,11.1c1.4-5.5,8.9-15.9,8.9-15.9
	C382.5,283.6,362.6,272.5,354.6,264.6z M346.4,234c0,0,19.9,3.2,17.3,5.8c-2.5,2.5-20.7,3.4-26.5-2.4
	C331.5,231.6,346.4,234,346.4,234z M348.2,283.9c-5-5-3.7-22.9-3.7-22.9C350.8,267.3,353.2,288.9,348.2,283.9z"/>
<path class="st4" d="M336,170.3c0,0-19,8.4-23,25c0,0-0.5,6,0,3.4C313.8,194.9,330.2,172.5,336,170.3z"/>
<path class="st5" d="M371.3,214.9c0,0,7.9,1,6,2.9c-1.9,1.9-12.4,5.3-9.5,13.7c2.9,8.4-1.2,14.7-2.7,16.2c0,0,5.7,3.9,8.2-9.5
	c2.5-13.4,3.2-9.8,3.2-7.9s-3.3,16.1-0.4,19.1c3,3,2.8,4.3,7,5.8c4.3,1.5,12.5,15.8,14.4,17.8c1.9,1.9,19.4-1.5,23.7,2.9l2.6,4.7
	c0,0,4.3-9-6.2-19.5c-10.5-10.5-31.5-26.8-31.5-31.5s-4.7-21.4-7.9-24.7c-3.3-3.3-19.8-6.5-15.7,5.6
	C366.6,222.5,371.3,214.9,371.3,214.9z"/>
<polygon class="st6" points="286.6,389.3 288.7,373.2 290.2,304.8 280.2,323.4 279.3,368.4 276.8,370.3 279.5,389.3 "/>
<path class="st6" d="M287.4,324.1c0,0,33.6,27.9,43.7,51.3c0,0-0.4,1.9-1.4,0.8s-13-21.3-17.5-25.9c-4.6-4.6-24.8-23.6-24.8-23.6
	S283.4,323,287.4,324.1z"/>
<polygon class="st7" points="270,389.3 272.3,384.3 265,374.4 263.2,347.5 263.2,335.6 261.7,321.1 256.3,309.3 264.2,116.7 
	269.6,116.7 269.2,233.5 269,289.6 280,231.8 299.2,184.8 303.3,186.3 284.1,233.5 279.8,279.5 277.7,298.1 275,321.1 271.9,329.2 
	303.3,251.5 328,197.1 331.2,199.3 295.1,298.9 280,337.5 275.4,353.3 274.8,363.2 280.9,379.7 279.5,389.3 "/>
<path class="st8" d="M312.3,330.8c0,0,6.7-3.5,5.4-7.7s-8.1-11.5-16-11.5s-10.1,2.2-10.1,2.2s6.6-0.3,8.2,2.8
	C301.4,319.5,303.2,327.9,312.3,330.8z"/>
<path class="st9" d="M306.9,388.5h14l10.2-19.5l14-18.8c0,0,39.6-38.8,53.4-44.1l-1.3-3c0,0-25.9,18.7-29,21.8
	c-3.1,3.1-38.5,33.1-42.5,42s-7.6,11.4-7.6,11.4s0.6-18.8,2.6-24c1.9-5.1,7.2-27.1,7.2-27.1l43.3-112.3l-3.1,2.3L328,316.1
	l-8.8,25.7l-5.1,19.9l-1.6-63.5l-4.1-44.7l-3.6,1.3l5.5,60.5l-1.2,57.5L306.9,388.5z"/>
<path class="st10" d="M269.3,96.3l0.7-0.6c1.4-1.3,0.3-8.3,0-10.1c-1.4-8.5-11.4-16.2-19.2-17.3l-3.1-0.4c-1.5-0.2-7.1-2.5-8.3-3.4
	l-10.1-8.8c-1.3-0.9-2.9-1.2-4.5-0.8l-6.1,2.6c-0.4,0.1-8,1.8-7.6,2l17,8.7c0.5,0.2,1,0.6,1.5,0.9l17.5,13.5c0.5,0.4,0,1.2-0.6,0.9
	c-10.3-5.4-31.9-16.6-31.9-16.6c-4.7-2.3-10.4-2-14.8,1l-1,0.7c-4.7,3.2-12.8,15.2-16.1,20.5c0,0,25.4-3,39.4-1.6
	c4.6,0.5,12.8,1.2,15.3,5.1c0.6,0.9,2.6,4.1,2.1,4l-26.6-1.7L185,93.3c-1.7-0.1-3.4,0.6-4.5,2l-0.1,0.1c-5.4,6.7-8.4,15.1-8.4,23.7
	v0l0,0l24.3-11.1c7-2.6,17.6-3.4,25.1-2.4c0,0,15.4,1.6,11.2,6.9l-1.5,1.3l-18.3,1.6c-13.8,1.2-27.3,5.4-39.2,12.6
	c-0.5,0.3-0.9,0.6-1.4,0.9c-5.2,3.3-4.4,11.5-2.3,17.3l1.4,3.7l14.8-13.5c0.4-0.3,0.7-0.5,1.1-0.8c8.6-6.1,18.2-10.5,28.4-13
	l2.9-0.7c10.5-2.1,1.9,1.5,0.7,2.1l-6.8,2.3c-7.5,2.5-15.6,2.5-21.4,7.8l-3.1,2.3c-4,2.9-6.6,7.4-6.8,12.3c-0.1,2.5,0.4,4.6,1.3,6.4
	l2.3,4.7l9.9-14.9c2.5-3.7,15.2-7.6,11.2-5.5c-9.9,5.3-12.8,12.1-12.8,12.1c-2.3,4.9-4,11.4-1.5,14.1l1.6,1.6c0.8,0.9,1.4,2,1.5,3.2
	l0.9,6.3l1.1-1.4c4.3-10.5,28.3,6,28.8-33l0.3-4.9l1.9,4.1c0.2,0.5,0.3,1.5,0.4,2.7c0.2,4.5-0.5,9-2,13.3l-1.4,4
	c-1.4,3.9-4,7.4-7.4,9.7c-0.6,0.4-1.1,0.7-1.4,0.9l-2.1,1.1l10.9,0.2c3.6,0.1,8.8-1.1,12.1-6.4c5.9-9.5,8.4-21.1,7.1-32.2
	c-0.2-1.9-0.9-3.8-2.1-5.4l-1.4-1.9c-1-1.4,0.9-3,2.1-1.8l4.4,4.4c6.1,14.2-1.4,26.8-2.4,28.4l-8,13.8l22.3-5.2
	c2.7-0.6,4.9-2.7,5.7-5.4v0c1.6-5.4,1.6-11.2-0.2-16.6l-4.2-12.9l-3.8-11.9c-0.6-1.8,1.3-3.4,3-2.5l1.8,1c2.7,1.5,4.6,4,5.3,6.9
	l3.8,15.4c0.7,2.6,0.8,5.4,0.5,8.1l-1.3,12.2c-0.1,0.9-0.4,1.7-0.8,2.5l-3.9,6.4l4.8-1.2c7.8-2,17.3-6.2,20.5-15.3
	c3.1-8.6-1.5-18.3-6.8-25.8l-12.1-16.9c-0.8-1.8-1.5-4.9,0.2-3.9l8.9,5.3c3.5,2.2,6.2,5.3,8,9c0.5,1,0.8,2,1,3l4.8,22.2l11.6-12.6
	c6.3-6.9,7-17.4,1.1-24.7c-1.3-1.6-2.8-3-4.5-4.1c-0.3-0.2-0.5-0.3-0.8-0.5c-6.8-4.7-14.8-7.6-23.1-8.1L269.3,96.3z"/>
<polygon class="st11" points="303.3,186.3 340.1,123 349.2,109 348.2,107.3 332.1,132.8 299.2,184.8 "/>
<path class="st12" d="M313.5,231.1c0,0,5.3-8,1-12.3c-4.3-4.3-24.1-9.4-28.2-8.2c-4.1,1.2-31.1,27.2-31.1,32.1
	c0,4.8-2.7,18.3-2.7,18.3s11.3-1.7,20.5-1.7c9.2,0,28.7,0,32.8-1.7c4.1-1.7,13.3-10.8,15.9-10.8s10.6-8.2,3.1-12.3
	c-7.5-4.1-11.8,0.2-11.8,0.2S311.6,233,313.5,231.1z"/>
<path class="st13" d="M413.2,192.1c-1.6-11.4-12.7-29.6-12.7-29.6c0.9-4.7-1.4-22.7-5.8-27.1c-4.4-4.4-19.7-15.1-22.9-18.3
	c-3.2-3.2-2-4.6-2-4.6c10.2,1.6,13.7,11.5,13.7,11.5c3.2-3.2,1.7-12.2,0-17.2c-1.7-5-11.4-6.9-14.9-10.4
	c-3.5-3.5-12.1-11.9-10.2-9.9c2,2-4,14.4-4,14.4c-19.8-14.6-4.2,9.9-4.2,9.9s-3.8,8.4-3.8,12.2s12.3,12.5,13.5,15.8
	c1.2,3.3,4.6,20.8,4.6,20.8c2.2-2.2,0.6-16,0.6-16c0-15.6,2.9-1.7,2.9-1.7c0,24.8,13.7,27.9,13.7,27.9c-7.1-6.9-2.9-18.7-2.9-18.7
	c13.4,13.4,10,21,10,25.6s14.1,15.2,17,18c2.9,2.9,4,15.8,4,15.8S414.8,203.5,413.2,192.1z M372.8,128.7c12,4.5,20.4,19.7,20.4,19.7
	L372.8,128.7z M385.2,146.8c10.5,4.6,12.4,11.5,12.4,11.5L385.2,146.8z"/>
<path class="st14" d="M383.1,167.1c0,0,1.5-7.8-1.9-11.2c-3.4-3.4-14-3.1-14-3.1s-8-9.4-11.7-8c-3.7,1.4-5.4,14.1-8.6,14.1
	c0,0-2.3-3.7-2.3-5.5s4.1-10.4-10.6-13.8c0,0-14.3,4.4-21,4.4c-6.7,0-18.4,8.5-18.4,12s0,13.4,0,13.4s14.7-20.5,38.5-14.9
	c0,0-1.2,1.7-14.5,1.7s-24.7,17.1-24.7,18s1.1,14.1,7.1,18.7c0,0,12.1-25.3,19.9-28c7.8-2.7,14.3-2.2,14.3-2.2s-9.6,1.4-13.3,3.5
	c-3.6,2.1-19.4,21.8-18.9,24.6c0.5,2.8,3.4,16.4,9.9,19.2c0,0,17.7-31.5,24.2-32.6c0,0,3-2-0.9,6c-3.8,8-19.9,32.7-6.5,39.6
	c0,0,5.9-11.2,7.5-14.3c1.6-3.1,2.3-17.3,6.8-18.2c4.5-0.9,3.5,11.8,1.7,13.6c-1.8,1.8-16.2,11.9,3.2,24.1c0,0,15,2.6,17.6-9.4
	c2.6-12.1,0-17.5,0-17.5s9.1,8.4,9.1,11.7s4.7-1.9,3.3-9.6c-1.4-7.7-11.4-23.1-20.1-28.1c0,0,2.9-4.9,9.8,2
	c6.9,6.9,14.8,18.1,14.8,23.5c0,5.4,1.9,12.2,1.9,12.2s11.2-8,12.6-13.4C399.5,194.2,401.3,179.7,383.1,167.1z M361.8,158.3
	c0,0,12.9,1.1,16.4,4.7C381.7,166.5,367.1,159.8,361.8,158.3z M368,166.8c6.4,0,16.8,9,20.5,12.3c0.3,0.3,0.6,0.5,0.8,0.7
	c0.9,0.9,0.4,0.4-0.8-0.7C383.7,175.2,368,166.8,368,166.8z"/>
<path class="st4" d="M389.4,179.9c-0.2-0.2-0.5-0.5-0.8-0.7C389.8,180.3,390.3,180.7,389.4,179.9z"/>
<path class="st4" d="M388.1,239.5c0,0,6.3,21.4,3.3,24.5S387.4,245,388.1,239.5z"/>
<path class="st15" d="M399.1,305.4c0,0,28.4,2.2,24,21.6C423.1,327,432,306.7,399.1,305.4z"/>
<path class="st15" d="M269.3,96.3c0,0-23,10-42.9,31.9c-8,8.8-16.4,21.7-16.4,21.7s8.1-15.8,15.9-23.5c4.8-4.8,31.9-28.1,44-31.1
	C270.6,95.1,269.3,96.3,269.3,96.3z"/>
<path class="st16" d="M346.9,158.8c0,0,5.9,35.3,6.5,41.5c0.6,6.3-1-12.2-2.4-20.9c-1.4-8.7-3.3-20.9-3.3-20.9L346.9,158.8z"/>
<path class="st17" d="M351.7,106.5l28.6,39c0,0-25.1-38.1-27.7-40.6C351.2,103.3,351.7,106.5,351.7,106.5z"/>
<polygon class="st18" points="313,234.7 290.2,234.7 312.5,233.2 "/>
<polygon class="st19" points="312.4,298.2 313,363.5 314,361.6 "/>
<polygon class="st19" points="286.6,389.3 285.1,384.3 286.6,373.3 288,317.1 290.1,311.5 288.7,373.2 "/>
<polygon class="st19" points="285.6,333.5 285.1,358.6 286.5,338.8 "/>
<polygon class="st19" points="265.6,259.6 265.6,294.8 268,319.9 272.5,327.6 269,289.6 269,259.4 "/>
<polygon class="st19" points="280.5,259.2 276.8,284.6 276.1,288.8 273.3,294.7 273.1,304.8 272.5,312.5 272.5,327.6 275,321.1 
	281.7,259.4 "/>
<polygon class="st19" points="280.2,330.2 285.1,318.2 284.5,326 280,337.5 275.4,353.3 274.8,363.2 276.8,370.3 280.9,379.7 
	279.5,389.3 275.2,378.2 269,366 273,342.4 "/>
</svg>
