<?xml version="1.0" encoding="utf-8"?>
<!-- Generator: Adobe Illustrator 22.0.1, SVG Export Plug-In . SVG Version: 6.00 Build 0)  -->
<svg version="1.1" id="图层_1" xmlns="http://www.w3.org/2000/svg" xmlns:xlink="http://www.w3.org/1999/xlink" x="0px" y="0px"
	 viewBox="0 0 600 600" style="enable-background:new 0 0 600 600;" xml:space="preserve">
<style type="text/css">
	.st0{fill:#B5A58E;}
	.st1{clip-path:url(#SVGID_2_);fill:#EDE5D5;}
	.st2{clip-path:url(#SVGID_4_);fill:#EDE5D5;}
	.st3{clip-path:url(#SVGID_6_);fill:#ECE4D4;}
	.st4{clip-path:url(#SVGID_8_);fill:#EBE3D3;}
	.st5{clip-path:url(#SVGID_10_);fill:#EBE2D2;}
	.st6{clip-path:url(#SVGID_12_);fill:#EAE2D1;}
	.st7{clip-path:url(#SVGID_14_);fill:#E9E1D0;}
	.st8{clip-path:url(#SVGID_16_);fill:#E8E0CF;}
	.st9{clip-path:url(#SVGID_18_);fill:#E7DFCE;}
	.st10{clip-path:url(#SVGID_20_);fill:#E7DECD;}
	.st11{clip-path:url(#SVGID_22_);fill:#E6DDCC;}
	.st12{clip-path:url(#SVGID_24_);fill:#E5DCCB;}
	.st13{clip-path:url(#SVGID_26_);fill:#E4DCCA;}
	.st14{clip-path:url(#SVGID_28_);fill:#E3DBC9;}
	.st15{clip-path:url(#SVGID_30_);fill:#E2DAC8;}
	.st16{clip-path:url(#SVGID_32_);fill:#E2D9C7;}
	.st17{clip-path:url(#SVGID_34_);fill:#E1D8C6;}
	.st18{clip-path:url(#SVGID_36_);fill:#E0D7C5;}
	.st19{clip-path:url(#SVGID_38_);fill:#DFD7C4;}
	.st20{clip-path:url(#SVGID_40_);fill:#DED6C3;}
	.st21{clip-path:url(#SVGID_42_);fill:#DED5C2;}
	.st22{clip-path:url(#SVGID_44_);fill:#DDD4C1;}
	.st23{clip-path:url(#SVGID_46_);fill:#DCD3C0;}
	.st24{clip-path:url(#SVGID_48_);fill:#DBD2BF;}
	.st25{clip-path:url(#SVGID_50_);fill:#DAD1BE;}
	.st26{clip-path:url(#SVGID_52_);fill:#DAD1BD;}
	.st27{clip-path:url(#SVGID_54_);fill:#D9D0BC;}
	.st28{clip-path:url(#SVGID_56_);fill:#D8CFBB;}
	.st29{clip-path:url(#SVGID_58_);fill:#D7CEBA;}
	.st30{clip-path:url(#SVGID_60_);fill:#D6CDB9;}
	.st31{clip-path:url(#SVGID_62_);fill:#D5CCB8;}
	.st32{clip-path:url(#SVGID_64_);fill:#D5CBB7;}
	.st33{clip-path:url(#SVGID_66_);fill:#D4CBB6;}
	.st34{clip-path:url(#SVGID_68_);fill:#D3CAB5;}
	.st35{clip-path:url(#SVGID_70_);fill:#D2C9B4;}
	.st36{clip-path:url(#SVGID_72_);fill:#D1C8B3;}
	.st37{clip-path:url(#SVGID_74_);fill:#D1C7B2;}
	.st38{clip-path:url(#SVGID_76_);fill:#D0C6B1;}
	.st39{clip-path:url(#SVGID_78_);fill:#CFC6B0;}
	.st40{clip-path:url(#SVGID_80_);fill:#CEC5AE;}
	.st41{clip-path:url(#SVGID_82_);fill:#CDC4AD;}
	.st42{clip-path:url(#SVGID_84_);fill:#CDC3AC;}
	.st43{clip-path:url(#SVGID_86_);fill:#CCC2AB;}
	.st44{clip-path:url(#SVGID_88_);fill:#CBC1AA;}
	.st45{clip-path:url(#SVGID_90_);fill:#CAC0A9;}
	.st46{clip-path:url(#SVGID_92_);fill:#C9C0A8;}
	.st47{clip-path:url(#SVGID_94_);fill:#C9BFA7;}
	.st48{clip-path:url(#SVGID_96_);fill:#C8BEA6;}
	.st49{clip-path:url(#SVGID_98_);fill:#C7BDA5;}
	.st50{clip-path:url(#SVGID_100_);fill:#C6BCA4;}
	.st51{clip-path:url(#SVGID_102_);fill:#C5BBA3;}
	.st52{clip-path:url(#SVGID_104_);fill:#C4BAA2;}
	.st53{clip-path:url(#SVGID_106_);fill:#C4BAA1;}
	.st54{clip-path:url(#SVGID_108_);fill:#C3B9A0;}
	.st55{clip-path:url(#SVGID_110_);fill:#C2B89F;}
	.st56{clip-path:url(#SVGID_112_);fill:#C1B79E;}
	.st57{clip-path:url(#SVGID_114_);fill:#C0B69D;}
	.st58{clip-path:url(#SVGID_116_);fill:#C0B59C;}
	.st59{clip-path:url(#SVGID_118_);fill:#BFB49B;}
	.st60{clip-path:url(#SVGID_120_);fill:#BEB49A;}
	.st61{clip-path:url(#SVGID_122_);fill:#BDB399;}
	.st62{clip-path:url(#SVGID_124_);fill:#BCB298;}
	.st63{clip-path:url(#SVGID_126_);fill:#BCB197;}
	.st64{clip-path:url(#SVGID_128_);fill:#BBB096;}
	.st65{clip-path:url(#SVGID_130_);fill:#BAAF95;}
	.st66{clip-path:url(#SVGID_132_);fill:#B9AF94;}
	.st67{clip-path:url(#SVGID_134_);fill:#B8AE93;}
	.st68{clip-path:url(#SVGID_136_);fill:#B7AD92;}
	.st69{clip-path:url(#SVGID_138_);fill:#B7AC91;}
	.st70{clip-path:url(#SVGID_140_);fill:#B6AB90;}
	.st71{clip-path:url(#SVGID_142_);fill:#B5AA8F;}
	.st72{clip-path:url(#SVGID_144_);fill:#B4A98E;}
	.st73{clip-path:url(#SVGID_146_);fill:#B3A98D;}
	.st74{clip-path:url(#SVGID_148_);fill:#B3A88C;}
	.st75{clip-path:url(#SVGID_150_);fill:#B2A78B;}
	.st76{clip-path:url(#SVGID_152_);fill:#B1A68A;}
	.st77{clip-path:url(#SVGID_154_);fill:#B1A68A;}
	.st78{fill:#EECCBC;}
	.st79{fill:#9E8078;}
	.st80{fill:#1C4709;}
	.st81{fill:#146D0A;}
	.st82{fill:#1C2904;}
	.st83{fill:#3A7735;}
	.st84{fill:#487C27;}
	.st85{fill:#265610;}
	.st86{fill:#366D22;}
	.st87{fill:#254C11;}
	.st88{fill:#285B12;}
	.st89{fill:#6A7F3B;}
	.st90{fill:#3A7A15;}
	.st91{opacity:0.2;}
	.st92{fill:#FFFFFF;}
	.st93{opacity:0.4;}
	.st94{fill:#93826C;}
	.st95{fill:#4E7F16;}
</style>
<g>
	<g>
		<path class="st0" d="M202,124.3c-1.5-7.6,10.7-3.1,14.4-1.9c4.5,1.5,9,3,13.6,4.5c8.8,3,17.6,6.1,26.3,9.4
			c0.4,0.1,1.8-0.1,1.5-0.2c-12.3-4.6-24.7-8.9-37.2-13c-4.3-1.4-9.1-3.6-13.7-4c-3.2-0.2-7.4,1.2-6.6,5.2
			C200.3,124.7,202,124.5,202,124.3L202,124.3z"/>
	</g>
</g>
<g>
	<g>
		<path class="st0" d="M258.4,144c9.6-6.6,20.9-10.9,31.8-14.9c11.8-4.3,23.9-7.7,36.3-9c0.5-0.1-0.8-1-1.2-0.9
			c-12.1,1.2-23.9,4.4-35.3,8.6c-11.3,4.1-23,8.5-33,15.3C256.6,143.3,258,144.2,258.4,144L258.4,144z"/>
	</g>
</g>
<g>
	<g>
		<path class="st0" d="M261,73.1c-0.8,2.8-0.9,5.9-1.1,8.8c-0.4,5.4-0.6,10.9-0.8,16.3c-0.4,12-0.6,24.1-0.8,36.1
			c-0.1,3.5-0.1,6.9-0.2,10.4c0,0.5,1.6,1.1,1.6,0.5c0.3-11.6,0.4-23.2,0.6-34.7c0.2-7.6,0.4-15.2,0.8-22.8
			c0.2-4.5,0.1-9.5,1.4-13.9C262.7,73.3,261.1,72.7,261,73.1L261,73.1z"/>
	</g>
</g>
<g>
	<g>
		<path class="st0" d="M239.9,89.9c4.4,9.4,9.5,18.7,12.8,28.5c3.5,10.3,3.8,21.2,4.1,31.9c0,0.6,1.8,0.6,1.7,0
			c-0.3-10.4-0.6-21-3.8-31c-3.2-10.2-8.6-20-13.2-29.7C241.3,89.3,239.6,89.4,239.9,89.9L239.9,89.9z"/>
	</g>
</g>
<g>
	<g>
		<path class="st0" d="M257.2,145c1.1,18,1.7,36.1,3.3,54.1c0.4,4.1,1.1,8.1,1.3,12.1c0.3,4.4-0.2,8.7-0.7,13
			c-1,9-0.2,17.9,0.7,26.9c0.2,2.2,3.7,2.2,3.5,0c-0.9-9-1.8-17.9-0.7-26.9c0.5-4.1,1-8.2,0.8-12.4c-0.2-4.3-1-8.5-1.4-12.8
			c-1.6-18-2.3-36.1-3.3-54.1C260.6,142.8,257.1,142.7,257.2,145L257.2,145z"/>
	</g>
</g>
<g>
	<g>
		<path class="st0" d="M260.6,177.4c-4.7,1.4-8.8,4.6-12.6,7.6c-4.8,3.7-9.1,7.8-13.4,12.2c-0.3,0.3,1.2,1,1.5,0.7
			c4-4.2,8.1-8.1,12.6-11.6c4-3.1,8.2-6.7,13.1-8.1C262.4,178,261,177.2,260.6,177.4L260.6,177.4z"/>
	</g>
</g>
<g>
	<g>
		<path class="st0" d="M260.7,186.4c-5.4,1.5-10,5.4-14,9.3c-2.8,2.7-6.3,5.9-7.9,9.6c-0.4,0.9,1.3,0.8,1.6,0.1
			c1.6-3.4,4.9-6.4,7.5-8.9c3.8-3.7,8.1-7.4,13.2-8.8C262.2,187.2,261.7,186.1,260.7,186.4L260.7,186.4z"/>
	</g>
</g>
<g>
	<g>
		<path class="st0" d="M205.4,230.3c-4.4,4.7-8.2,9.9-12.2,15c-3.7,4.7-8.3,9.3-10.1,15.1c-0.3,0.9,1.4,0.8,1.6,0.1
			c1.8-5.7,6.3-10.2,9.9-14.8c3.9-4.9,7.6-10.1,11.9-14.7C207.3,230.2,205.9,229.7,205.4,230.3L205.4,230.3z"/>
	</g>
</g>
<g>
	<g>
		<path class="st0" d="M261.5,190.1c6.2,4.8,9.4,11.9,11.3,19.4c2,7.8,3.3,15.9,4.9,23.8c0,0.2,1.7-0.1,1.7-0.5
			c-1.6-8.4-2.9-16.9-5.2-25.1c-1.9-7-5.2-13.7-11.1-18.2C262.8,189.3,261.4,190,261.5,190.1L261.5,190.1z"/>
	</g>
</g>
<g>
	<g>
		<path class="st0" d="M263.6,204c5.9-0.2,11.5,1.7,17,3.7c4.6,1.6,8.9,3.4,12.7,6.5c6.8,5.8,12.5,13.5,18.1,20.4
			c5.7,7.1,11.2,14.5,16.4,22.1c5.1,7.5,8.1,16.3,13.5,23.5c0.3,0.4,1.9,0.1,1.7-0.2c-2.9-3.9-4.9-8.2-7-12.5
			c-2.3-4.6-5.1-8.9-8-13.2c-6-8.6-12.4-16.9-19.1-25c-5.9-7.1-11.9-15.5-20.4-19.5c-7.5-3.6-16.5-6.8-24.9-6.4
			C262.6,203.5,262.6,204.1,263.6,204L263.6,204z"/>
	</g>
</g>
<g>
	<g>
		<path class="st0" d="M316.4,305.2c-3.1,3.4-4,7.7-4.4,12.2c-0.7,6.6-0.4,13.3-0.3,19.9c0.1,12-0.8,24.6-8.7,34.2
			c-0.6,0.7,0.7,1.8,1.4,1.1c6.4-7.9,8.4-18.1,8.8-28.1c0.2-6.4-0.1-12.9,0-19.3c0.1-6.1-0.1-13.9,4.3-18.7
			C318.1,305.8,317,304.5,316.4,305.2L316.4,305.2z"/>
	</g>
</g>
<g>
	<g>
		<path class="st0" d="M251.3,249.1c-3.7,11.1-6.4,22.5-8.1,34.1c-0.1,0.9,1.5,0.6,1.6-0.1c1.7-11.6,4.4-23,8.1-34.1
			C253.2,248.1,251.5,248.4,251.3,249.1L251.3,249.1z"/>
	</g>
</g>
<g>
	<g>
		<path class="st0" d="M198.7,84.2c4.4,6.6,11,11.5,16.4,17.3c6.1,6.5,11.5,13.5,16.7,20.7c9.9,13.9,18.5,28.5,28,42.6
			c0.6,0.8,1.9,0.4,1.3-0.6c-9.5-14.1-18.2-28.8-28-42.6c-4.6-6.5-9.6-12.9-14.9-18.9c-5.8-6.5-13.2-11.9-18.1-19.1
			C199.4,82.8,198,83.2,198.7,84.2L198.7,84.2z"/>
	</g>
</g>
<g>
	<g>
		<path class="st0" d="M258.4,129.5c6.2,9,9.8,19.3,15.7,28.5c0.3,0.4,1.9,0.4,1.7,0.1c-5.9-9.1-9.5-19.5-15.7-28.5
			C259.7,129.2,258.1,129.2,258.4,129.5L258.4,129.5z"/>
	</g>
</g>
<g>
	<g>
		<path class="st0" d="M263.4,184.2c7.8-2.7,15.9-4,24.2-3.6c1.1,0,1.1-1.7,0-1.7c-8.4-0.3-16.7,0.9-24.7,3.7
			C261.9,182.9,262.3,184.6,263.4,184.2L263.4,184.2z"/>
	</g>
</g>
<g>
	<g>
		<g>
			<defs>
				<path id="SVGID_1_" d="M271,423.9l3.3,23.9c0.1,0.7,0.5,1.4,1,1.8l2,1.6l9.8,69.5c0.3,1.8,1,3.5,2.3,4.8c1,1.1,2.4,2.2,4.1,2.6
					c11.8,2.7,42.9,1.9,49.7,0c1.1-0.3,2.1-0.8,2.9-1.5c1.9-1.6,3.2-3.9,3.5-6.3l9.7-69.2l2-1.6c0.6-0.4,0.9-1.1,1-1.8l3.3-23.9
					c0.3-2.5-1.3-4.8-3.7-5.4c-18.2-4-69.1-4-87.2,0C272.3,419,270.7,421.4,271,423.9z"/>
			</defs>
			<clipPath id="SVGID_2_">
				<use xlink:href="#SVGID_1_"  style="overflow:visible;"/>
			</clipPath>
			<rect x="270.7" y="414.5" class="st1" width="0.3" height="116.3"/>
		</g>
		<g>
			<defs>
				<path id="SVGID_3_" d="M271,423.9l3.3,23.9c0.1,0.7,0.5,1.4,1,1.8l2,1.6l9.8,69.5c0.3,1.8,1,3.5,2.3,4.8c1,1.1,2.4,2.2,4.1,2.6
					c11.8,2.7,42.9,1.9,49.7,0c1.1-0.3,2.1-0.8,2.9-1.5c1.9-1.6,3.2-3.9,3.5-6.3l9.7-69.2l2-1.6c0.6-0.4,0.9-1.1,1-1.8l3.3-23.9
					c0.3-2.5-1.3-4.8-3.7-5.4c-18.2-4-69.1-4-87.2,0C272.3,419,270.7,421.4,271,423.9z"/>
			</defs>
			<clipPath id="SVGID_4_">
				<use xlink:href="#SVGID_3_"  style="overflow:visible;"/>
			</clipPath>
			<rect x="271" y="414.5" class="st2" width="1.3" height="116.3"/>
		</g>
		<g>
			<defs>
				<path id="SVGID_5_" d="M271,423.9l3.3,23.9c0.1,0.7,0.5,1.4,1,1.8l2,1.6l9.8,69.5c0.3,1.8,1,3.5,2.3,4.8c1,1.1,2.4,2.2,4.1,2.6
					c11.8,2.7,42.9,1.9,49.7,0c1.1-0.3,2.1-0.8,2.9-1.5c1.9-1.6,3.2-3.9,3.5-6.3l9.7-69.2l2-1.6c0.6-0.4,0.9-1.1,1-1.8l3.3-23.9
					c0.3-2.5-1.3-4.8-3.7-5.4c-18.2-4-69.1-4-87.2,0C272.3,419,270.7,421.4,271,423.9z"/>
			</defs>
			<clipPath id="SVGID_6_">
				<use xlink:href="#SVGID_5_"  style="overflow:visible;"/>
			</clipPath>
			<rect x="272.2" y="414.5" class="st3" width="1.3" height="116.3"/>
		</g>
		<g>
			<defs>
				<path id="SVGID_7_" d="M271,423.9l3.3,23.9c0.1,0.7,0.5,1.4,1,1.8l2,1.6l9.8,69.5c0.3,1.8,1,3.5,2.3,4.8c1,1.1,2.4,2.2,4.1,2.6
					c11.8,2.7,42.9,1.9,49.7,0c1.1-0.3,2.1-0.8,2.9-1.5c1.9-1.6,3.2-3.9,3.5-6.3l9.7-69.2l2-1.6c0.6-0.4,0.9-1.1,1-1.8l3.3-23.9
					c0.3-2.5-1.3-4.8-3.7-5.4c-18.2-4-69.1-4-87.2,0C272.3,419,270.7,421.4,271,423.9z"/>
			</defs>
			<clipPath id="SVGID_8_">
				<use xlink:href="#SVGID_7_"  style="overflow:visible;"/>
			</clipPath>
			<rect x="273.5" y="414.5" class="st4" width="1.3" height="116.3"/>
		</g>
		<g>
			<defs>
				<path id="SVGID_9_" d="M271,423.9l3.3,23.9c0.1,0.7,0.5,1.4,1,1.8l2,1.6l9.8,69.5c0.3,1.8,1,3.5,2.3,4.8c1,1.1,2.4,2.2,4.1,2.6
					c11.8,2.7,42.9,1.9,49.7,0c1.1-0.3,2.1-0.8,2.9-1.5c1.9-1.6,3.2-3.9,3.5-6.3l9.7-69.2l2-1.6c0.6-0.4,0.9-1.1,1-1.8l3.3-23.9
					c0.3-2.5-1.3-4.8-3.7-5.4c-18.2-4-69.1-4-87.2,0C272.3,419,270.7,421.4,271,423.9z"/>
			</defs>
			<clipPath id="SVGID_10_">
				<use xlink:href="#SVGID_9_"  style="overflow:visible;"/>
			</clipPath>
			<rect x="274.8" y="414.5" class="st5" width="1.3" height="116.3"/>
		</g>
		<g>
			<defs>
				<path id="SVGID_11_" d="M271,423.9l3.3,23.9c0.1,0.7,0.5,1.4,1,1.8l2,1.6l9.8,69.5c0.3,1.8,1,3.5,2.3,4.8c1,1.1,2.4,2.2,4.1,2.6
					c11.8,2.7,42.9,1.9,49.7,0c1.1-0.3,2.1-0.8,2.9-1.5c1.9-1.6,3.2-3.9,3.5-6.3l9.7-69.2l2-1.6c0.6-0.4,0.9-1.1,1-1.8l3.3-23.9
					c0.3-2.5-1.3-4.8-3.7-5.4c-18.2-4-69.1-4-87.2,0C272.3,419,270.7,421.4,271,423.9z"/>
			</defs>
			<clipPath id="SVGID_12_">
				<use xlink:href="#SVGID_11_"  style="overflow:visible;"/>
			</clipPath>
			<rect x="276" y="414.5" class="st6" width="1.3" height="116.3"/>
		</g>
		<g>
			<defs>
				<path id="SVGID_13_" d="M271,423.9l3.3,23.9c0.1,0.7,0.5,1.4,1,1.8l2,1.6l9.8,69.5c0.3,1.8,1,3.5,2.3,4.8c1,1.1,2.4,2.2,4.1,2.6
					c11.8,2.7,42.9,1.9,49.7,0c1.1-0.3,2.1-0.8,2.9-1.5c1.9-1.6,3.2-3.9,3.5-6.3l9.7-69.2l2-1.6c0.6-0.4,0.9-1.1,1-1.8l3.3-23.9
					c0.3-2.5-1.3-4.8-3.7-5.4c-18.2-4-69.1-4-87.2,0C272.3,419,270.7,421.4,271,423.9z"/>
			</defs>
			<clipPath id="SVGID_14_">
				<use xlink:href="#SVGID_13_"  style="overflow:visible;"/>
			</clipPath>
			<rect x="277.3" y="414.5" class="st7" width="1.3" height="116.3"/>
		</g>
		<g>
			<defs>
				<path id="SVGID_15_" d="M271,423.9l3.3,23.9c0.1,0.7,0.5,1.4,1,1.8l2,1.6l9.8,69.5c0.3,1.8,1,3.5,2.3,4.8c1,1.1,2.4,2.2,4.1,2.6
					c11.8,2.7,42.9,1.9,49.7,0c1.1-0.3,2.1-0.8,2.9-1.5c1.9-1.6,3.2-3.9,3.5-6.3l9.7-69.2l2-1.6c0.6-0.4,0.9-1.1,1-1.8l3.3-23.9
					c0.3-2.5-1.3-4.8-3.7-5.4c-18.2-4-69.1-4-87.2,0C272.3,419,270.7,421.4,271,423.9z"/>
			</defs>
			<clipPath id="SVGID_16_">
				<use xlink:href="#SVGID_15_"  style="overflow:visible;"/>
			</clipPath>
			<rect x="278.6" y="414.5" class="st8" width="1.3" height="116.3"/>
		</g>
		<g>
			<defs>
				<path id="SVGID_17_" d="M271,423.9l3.3,23.9c0.1,0.7,0.5,1.4,1,1.8l2,1.6l9.8,69.5c0.3,1.8,1,3.5,2.3,4.8c1,1.1,2.4,2.2,4.1,2.6
					c11.8,2.7,42.9,1.9,49.7,0c1.1-0.3,2.1-0.8,2.9-1.5c1.9-1.6,3.2-3.9,3.5-6.3l9.7-69.2l2-1.6c0.6-0.4,0.9-1.1,1-1.8l3.3-23.9
					c0.3-2.5-1.3-4.8-3.7-5.4c-18.2-4-69.1-4-87.2,0C272.3,419,270.7,421.4,271,423.9z"/>
			</defs>
			<clipPath id="SVGID_18_">
				<use xlink:href="#SVGID_17_"  style="overflow:visible;"/>
			</clipPath>
			<rect x="279.8" y="414.5" class="st9" width="1.3" height="116.3"/>
		</g>
		<g>
			<defs>
				<path id="SVGID_19_" d="M271,423.9l3.3,23.9c0.1,0.7,0.5,1.4,1,1.8l2,1.6l9.8,69.5c0.3,1.8,1,3.5,2.3,4.8c1,1.1,2.4,2.2,4.1,2.6
					c11.8,2.7,42.9,1.9,49.7,0c1.1-0.3,2.1-0.8,2.9-1.5c1.9-1.6,3.2-3.9,3.5-6.3l9.7-69.2l2-1.6c0.6-0.4,0.9-1.1,1-1.8l3.3-23.9
					c0.3-2.5-1.3-4.8-3.7-5.4c-18.2-4-69.1-4-87.2,0C272.3,419,270.7,421.4,271,423.9z"/>
			</defs>
			<clipPath id="SVGID_20_">
				<use xlink:href="#SVGID_19_"  style="overflow:visible;"/>
			</clipPath>
			<rect x="281.1" y="414.5" class="st10" width="1.3" height="116.3"/>
		</g>
		<g>
			<defs>
				<path id="SVGID_21_" d="M271,423.9l3.3,23.9c0.1,0.7,0.5,1.4,1,1.8l2,1.6l9.8,69.5c0.3,1.8,1,3.5,2.3,4.8c1,1.1,2.4,2.2,4.1,2.6
					c11.8,2.7,42.9,1.9,49.7,0c1.1-0.3,2.1-0.8,2.9-1.5c1.9-1.6,3.2-3.9,3.5-6.3l9.7-69.2l2-1.6c0.6-0.4,0.9-1.1,1-1.8l3.3-23.9
					c0.3-2.5-1.3-4.8-3.7-5.4c-18.2-4-69.1-4-87.2,0C272.3,419,270.7,421.4,271,423.9z"/>
			</defs>
			<clipPath id="SVGID_22_">
				<use xlink:href="#SVGID_21_"  style="overflow:visible;"/>
			</clipPath>
			<rect x="282.4" y="414.5" class="st11" width="1.3" height="116.3"/>
		</g>
		<g>
			<defs>
				<path id="SVGID_23_" d="M271,423.9l3.3,23.9c0.1,0.7,0.5,1.4,1,1.8l2,1.6l9.8,69.5c0.3,1.8,1,3.5,2.3,4.8c1,1.1,2.4,2.2,4.1,2.6
					c11.8,2.7,42.9,1.9,49.7,0c1.1-0.3,2.1-0.8,2.9-1.5c1.9-1.6,3.2-3.9,3.5-6.3l9.7-69.2l2-1.6c0.6-0.4,0.9-1.1,1-1.8l3.3-23.9
					c0.3-2.5-1.3-4.8-3.7-5.4c-18.2-4-69.1-4-87.2,0C272.3,419,270.7,421.4,271,423.9z"/>
			</defs>
			<clipPath id="SVGID_24_">
				<use xlink:href="#SVGID_23_"  style="overflow:visible;"/>
			</clipPath>
			<rect x="283.6" y="414.5" class="st12" width="1.3" height="116.3"/>
		</g>
		<g>
			<defs>
				<path id="SVGID_25_" d="M271,423.9l3.3,23.9c0.1,0.7,0.5,1.4,1,1.8l2,1.6l9.8,69.5c0.3,1.8,1,3.5,2.3,4.8c1,1.1,2.4,2.2,4.1,2.6
					c11.8,2.7,42.9,1.9,49.7,0c1.1-0.3,2.1-0.8,2.9-1.5c1.9-1.6,3.2-3.9,3.5-6.3l9.7-69.2l2-1.6c0.6-0.4,0.9-1.1,1-1.8l3.3-23.9
					c0.3-2.5-1.3-4.8-3.7-5.4c-18.2-4-69.1-4-87.2,0C272.3,419,270.7,421.4,271,423.9z"/>
			</defs>
			<clipPath id="SVGID_26_">
				<use xlink:href="#SVGID_25_"  style="overflow:visible;"/>
			</clipPath>
			<rect x="284.9" y="414.5" class="st13" width="1.3" height="116.3"/>
		</g>
		<g>
			<defs>
				<path id="SVGID_27_" d="M271,423.9l3.3,23.9c0.1,0.7,0.5,1.4,1,1.8l2,1.6l9.8,69.5c0.3,1.8,1,3.5,2.3,4.8c1,1.1,2.4,2.2,4.1,2.6
					c11.8,2.7,42.9,1.9,49.7,0c1.1-0.3,2.1-0.8,2.9-1.5c1.9-1.6,3.2-3.9,3.5-6.3l9.7-69.2l2-1.6c0.6-0.4,0.9-1.1,1-1.8l3.3-23.9
					c0.3-2.5-1.3-4.8-3.7-5.4c-18.2-4-69.1-4-87.2,0C272.3,419,270.7,421.4,271,423.9z"/>
			</defs>
			<clipPath id="SVGID_28_">
				<use xlink:href="#SVGID_27_"  style="overflow:visible;"/>
			</clipPath>
			<rect x="286.1" y="414.5" class="st14" width="1.3" height="116.3"/>
		</g>
		<g>
			<defs>
				<path id="SVGID_29_" d="M271,423.9l3.3,23.9c0.1,0.7,0.5,1.4,1,1.8l2,1.6l9.8,69.5c0.3,1.8,1,3.5,2.3,4.8c1,1.1,2.4,2.2,4.1,2.6
					c11.8,2.7,42.9,1.9,49.7,0c1.1-0.3,2.1-0.8,2.9-1.5c1.9-1.6,3.2-3.9,3.5-6.3l9.7-69.2l2-1.6c0.6-0.4,0.9-1.1,1-1.8l3.3-23.9
					c0.3-2.5-1.3-4.8-3.7-5.4c-18.2-4-69.1-4-87.2,0C272.3,419,270.7,421.4,271,423.9z"/>
			</defs>
			<clipPath id="SVGID_30_">
				<use xlink:href="#SVGID_29_"  style="overflow:visible;"/>
			</clipPath>
			<rect x="287.4" y="414.5" class="st15" width="1.3" height="116.3"/>
		</g>
		<g>
			<defs>
				<path id="SVGID_31_" d="M271,423.9l3.3,23.9c0.1,0.7,0.5,1.4,1,1.8l2,1.6l9.8,69.5c0.3,1.8,1,3.5,2.3,4.8c1,1.1,2.4,2.2,4.1,2.6
					c11.8,2.7,42.9,1.9,49.7,0c1.1-0.3,2.1-0.8,2.9-1.5c1.9-1.6,3.2-3.9,3.5-6.3l9.7-69.2l2-1.6c0.6-0.4,0.9-1.1,1-1.8l3.3-23.9
					c0.3-2.5-1.3-4.8-3.7-5.4c-18.2-4-69.1-4-87.2,0C272.3,419,270.7,421.4,271,423.9z"/>
			</defs>
			<clipPath id="SVGID_32_">
				<use xlink:href="#SVGID_31_"  style="overflow:visible;"/>
			</clipPath>
			<rect x="288.7" y="414.5" class="st16" width="1.3" height="116.3"/>
		</g>
		<g>
			<defs>
				<path id="SVGID_33_" d="M271,423.9l3.3,23.9c0.1,0.7,0.5,1.4,1,1.8l2,1.6l9.8,69.5c0.3,1.8,1,3.5,2.3,4.8c1,1.1,2.4,2.2,4.1,2.6
					c11.8,2.7,42.9,1.9,49.7,0c1.1-0.3,2.1-0.8,2.9-1.5c1.9-1.6,3.2-3.9,3.5-6.3l9.7-69.2l2-1.6c0.6-0.4,0.9-1.1,1-1.8l3.3-23.9
					c0.3-2.5-1.3-4.8-3.7-5.4c-18.2-4-69.1-4-87.2,0C272.3,419,270.7,421.4,271,423.9z"/>
			</defs>
			<clipPath id="SVGID_34_">
				<use xlink:href="#SVGID_33_"  style="overflow:visible;"/>
			</clipPath>
			<rect x="289.9" y="414.5" class="st17" width="1.3" height="116.3"/>
		</g>
		<g>
			<defs>
				<path id="SVGID_35_" d="M271,423.9l3.3,23.9c0.1,0.7,0.5,1.4,1,1.8l2,1.6l9.8,69.5c0.3,1.8,1,3.5,2.3,4.8c1,1.1,2.4,2.2,4.1,2.6
					c11.8,2.7,42.9,1.9,49.7,0c1.1-0.3,2.1-0.8,2.9-1.5c1.9-1.6,3.2-3.9,3.5-6.3l9.7-69.2l2-1.6c0.6-0.4,0.9-1.1,1-1.8l3.3-23.9
					c0.3-2.5-1.3-4.8-3.7-5.4c-18.2-4-69.1-4-87.2,0C272.3,419,270.7,421.4,271,423.9z"/>
			</defs>
			<clipPath id="SVGID_36_">
				<use xlink:href="#SVGID_35_"  style="overflow:visible;"/>
			</clipPath>
			<rect x="291.2" y="414.5" class="st18" width="1.3" height="116.3"/>
		</g>
		<g>
			<defs>
				<path id="SVGID_37_" d="M271,423.9l3.3,23.9c0.1,0.7,0.5,1.4,1,1.8l2,1.6l9.8,69.5c0.3,1.8,1,3.5,2.3,4.8c1,1.1,2.4,2.2,4.1,2.6
					c11.8,2.7,42.9,1.9,49.7,0c1.1-0.3,2.1-0.8,2.9-1.5c1.9-1.6,3.2-3.9,3.5-6.3l9.7-69.2l2-1.6c0.6-0.4,0.9-1.1,1-1.8l3.3-23.9
					c0.3-2.5-1.3-4.8-3.7-5.4c-18.2-4-69.1-4-87.2,0C272.3,419,270.7,421.4,271,423.9z"/>
			</defs>
			<clipPath id="SVGID_38_">
				<use xlink:href="#SVGID_37_"  style="overflow:visible;"/>
			</clipPath>
			<rect x="292.5" y="414.5" class="st19" width="1.3" height="116.3"/>
		</g>
		<g>
			<defs>
				<path id="SVGID_39_" d="M271,423.9l3.3,23.9c0.1,0.7,0.5,1.4,1,1.8l2,1.6l9.8,69.5c0.3,1.8,1,3.5,2.3,4.8c1,1.1,2.4,2.2,4.1,2.6
					c11.8,2.7,42.9,1.9,49.7,0c1.1-0.3,2.1-0.8,2.9-1.5c1.9-1.6,3.2-3.9,3.5-6.3l9.7-69.2l2-1.6c0.6-0.4,0.9-1.1,1-1.8l3.3-23.9
					c0.3-2.5-1.3-4.8-3.7-5.4c-18.2-4-69.1-4-87.2,0C272.3,419,270.7,421.4,271,423.9z"/>
			</defs>
			<clipPath id="SVGID_40_">
				<use xlink:href="#SVGID_39_"  style="overflow:visible;"/>
			</clipPath>
			<rect x="293.7" y="414.5" class="st20" width="1.3" height="116.3"/>
		</g>
		<g>
			<defs>
				<path id="SVGID_41_" d="M271,423.9l3.3,23.9c0.1,0.7,0.5,1.4,1,1.8l2,1.6l9.8,69.5c0.3,1.8,1,3.5,2.3,4.8c1,1.1,2.4,2.2,4.1,2.6
					c11.8,2.7,42.9,1.9,49.7,0c1.1-0.3,2.1-0.8,2.9-1.5c1.9-1.6,3.2-3.9,3.5-6.3l9.7-69.2l2-1.6c0.6-0.4,0.9-1.1,1-1.8l3.3-23.9
					c0.3-2.5-1.3-4.8-3.7-5.4c-18.2-4-69.1-4-87.2,0C272.3,419,270.7,421.4,271,423.9z"/>
			</defs>
			<clipPath id="SVGID_42_">
				<use xlink:href="#SVGID_41_"  style="overflow:visible;"/>
			</clipPath>
			<rect x="295" y="414.5" class="st21" width="1.3" height="116.3"/>
		</g>
		<g>
			<defs>
				<path id="SVGID_43_" d="M271,423.9l3.3,23.9c0.1,0.7,0.5,1.4,1,1.8l2,1.6l9.8,69.5c0.3,1.8,1,3.5,2.3,4.8c1,1.1,2.4,2.2,4.1,2.6
					c11.8,2.7,42.9,1.9,49.7,0c1.1-0.3,2.1-0.8,2.9-1.5c1.9-1.6,3.2-3.9,3.5-6.3l9.7-69.2l2-1.6c0.6-0.4,0.9-1.1,1-1.8l3.3-23.9
					c0.3-2.5-1.3-4.8-3.7-5.4c-18.2-4-69.1-4-87.2,0C272.3,419,270.7,421.4,271,423.9z"/>
			</defs>
			<clipPath id="SVGID_44_">
				<use xlink:href="#SVGID_43_"  style="overflow:visible;"/>
			</clipPath>
			<rect x="296.3" y="414.5" class="st22" width="1.3" height="116.3"/>
		</g>
		<g>
			<defs>
				<path id="SVGID_45_" d="M271,423.9l3.3,23.9c0.1,0.7,0.5,1.4,1,1.8l2,1.6l9.8,69.5c0.3,1.8,1,3.5,2.3,4.8c1,1.1,2.4,2.2,4.1,2.6
					c11.8,2.7,42.9,1.9,49.7,0c1.1-0.3,2.1-0.8,2.9-1.5c1.9-1.6,3.2-3.9,3.5-6.3l9.7-69.2l2-1.6c0.6-0.4,0.9-1.1,1-1.8l3.3-23.9
					c0.3-2.5-1.3-4.8-3.7-5.4c-18.2-4-69.1-4-87.2,0C272.3,419,270.7,421.4,271,423.9z"/>
			</defs>
			<clipPath id="SVGID_46_">
				<use xlink:href="#SVGID_45_"  style="overflow:visible;"/>
			</clipPath>
			<rect x="297.5" y="414.5" class="st23" width="1.3" height="116.3"/>
		</g>
		<g>
			<defs>
				<path id="SVGID_47_" d="M271,423.9l3.3,23.9c0.1,0.7,0.5,1.4,1,1.8l2,1.6l9.8,69.5c0.3,1.8,1,3.5,2.3,4.8c1,1.1,2.4,2.2,4.1,2.6
					c11.8,2.7,42.9,1.9,49.7,0c1.1-0.3,2.1-0.8,2.9-1.5c1.9-1.6,3.2-3.9,3.5-6.3l9.7-69.2l2-1.6c0.6-0.4,0.9-1.1,1-1.8l3.3-23.9
					c0.3-2.5-1.3-4.8-3.7-5.4c-18.2-4-69.1-4-87.2,0C272.3,419,270.7,421.4,271,423.9z"/>
			</defs>
			<clipPath id="SVGID_48_">
				<use xlink:href="#SVGID_47_"  style="overflow:visible;"/>
			</clipPath>
			<rect x="298.8" y="414.5" class="st24" width="1.3" height="116.3"/>
		</g>
		<g>
			<defs>
				<path id="SVGID_49_" d="M271,423.9l3.3,23.9c0.1,0.7,0.5,1.4,1,1.8l2,1.6l9.8,69.5c0.3,1.8,1,3.5,2.3,4.8c1,1.1,2.4,2.2,4.1,2.6
					c11.8,2.7,42.9,1.9,49.7,0c1.1-0.3,2.1-0.8,2.9-1.5c1.9-1.6,3.2-3.9,3.5-6.3l9.7-69.2l2-1.6c0.6-0.4,0.9-1.1,1-1.8l3.3-23.9
					c0.3-2.5-1.3-4.8-3.7-5.4c-18.2-4-69.1-4-87.2,0C272.3,419,270.7,421.4,271,423.9z"/>
			</defs>
			<clipPath id="SVGID_50_">
				<use xlink:href="#SVGID_49_"  style="overflow:visible;"/>
			</clipPath>
			<rect x="300" y="414.5" class="st25" width="1.3" height="116.3"/>
		</g>
		<g>
			<defs>
				<path id="SVGID_51_" d="M271,423.9l3.3,23.9c0.1,0.7,0.5,1.4,1,1.8l2,1.6l9.8,69.5c0.3,1.8,1,3.5,2.3,4.8c1,1.1,2.4,2.2,4.1,2.6
					c11.8,2.7,42.9,1.9,49.7,0c1.1-0.3,2.1-0.8,2.9-1.5c1.9-1.6,3.2-3.9,3.5-6.3l9.7-69.2l2-1.6c0.6-0.4,0.9-1.1,1-1.8l3.3-23.9
					c0.3-2.5-1.3-4.8-3.7-5.4c-18.2-4-69.1-4-87.2,0C272.3,419,270.7,421.4,271,423.9z"/>
			</defs>
			<clipPath id="SVGID_52_">
				<use xlink:href="#SVGID_51_"  style="overflow:visible;"/>
			</clipPath>
			<rect x="301.3" y="414.5" class="st26" width="1.3" height="116.3"/>
		</g>
		<g>
			<defs>
				<path id="SVGID_53_" d="M271,423.9l3.3,23.9c0.1,0.7,0.5,1.4,1,1.8l2,1.6l9.8,69.5c0.3,1.8,1,3.5,2.3,4.8c1,1.1,2.4,2.2,4.1,2.6
					c11.8,2.7,42.9,1.9,49.7,0c1.1-0.3,2.1-0.8,2.9-1.5c1.9-1.6,3.2-3.9,3.5-6.3l9.7-69.2l2-1.6c0.6-0.4,0.9-1.1,1-1.8l3.3-23.9
					c0.3-2.5-1.3-4.8-3.7-5.4c-18.2-4-69.1-4-87.2,0C272.3,419,270.7,421.4,271,423.9z"/>
			</defs>
			<clipPath id="SVGID_54_">
				<use xlink:href="#SVGID_53_"  style="overflow:visible;"/>
			</clipPath>
			<rect x="302.6" y="414.5" class="st27" width="1.3" height="116.3"/>
		</g>
		<g>
			<defs>
				<path id="SVGID_55_" d="M271,423.9l3.3,23.9c0.1,0.7,0.5,1.4,1,1.8l2,1.6l9.8,69.5c0.3,1.8,1,3.5,2.3,4.8c1,1.1,2.4,2.2,4.1,2.6
					c11.8,2.7,42.9,1.9,49.7,0c1.1-0.3,2.1-0.8,2.9-1.5c1.9-1.6,3.2-3.9,3.5-6.3l9.7-69.2l2-1.6c0.6-0.4,0.9-1.1,1-1.8l3.3-23.9
					c0.3-2.5-1.3-4.8-3.7-5.4c-18.2-4-69.1-4-87.2,0C272.3,419,270.7,421.4,271,423.9z"/>
			</defs>
			<clipPath id="SVGID_56_">
				<use xlink:href="#SVGID_55_"  style="overflow:visible;"/>
			</clipPath>
			<rect x="303.8" y="414.5" class="st28" width="1.3" height="116.3"/>
		</g>
		<g>
			<defs>
				<path id="SVGID_57_" d="M271,423.9l3.3,23.9c0.1,0.7,0.5,1.4,1,1.8l2,1.6l9.8,69.5c0.3,1.8,1,3.5,2.3,4.8c1,1.1,2.4,2.2,4.1,2.6
					c11.8,2.7,42.9,1.9,49.7,0c1.1-0.3,2.1-0.8,2.9-1.5c1.9-1.6,3.2-3.9,3.5-6.3l9.7-69.2l2-1.6c0.6-0.4,0.9-1.1,1-1.8l3.3-23.9
					c0.3-2.5-1.3-4.8-3.7-5.4c-18.2-4-69.1-4-87.2,0C272.3,419,270.7,421.4,271,423.9z"/>
			</defs>
			<clipPath id="SVGID_58_">
				<use xlink:href="#SVGID_57_"  style="overflow:visible;"/>
			</clipPath>
			<rect x="305.1" y="414.5" class="st29" width="1.3" height="116.3"/>
		</g>
		<g>
			<defs>
				<path id="SVGID_59_" d="M271,423.9l3.3,23.9c0.1,0.7,0.5,1.4,1,1.8l2,1.6l9.8,69.5c0.3,1.8,1,3.5,2.3,4.8c1,1.1,2.4,2.2,4.1,2.6
					c11.8,2.7,42.9,1.9,49.7,0c1.1-0.3,2.1-0.8,2.9-1.5c1.9-1.6,3.2-3.9,3.5-6.3l9.7-69.2l2-1.6c0.6-0.4,0.9-1.1,1-1.8l3.3-23.9
					c0.3-2.5-1.3-4.8-3.7-5.4c-18.2-4-69.1-4-87.2,0C272.3,419,270.7,421.4,271,423.9z"/>
			</defs>
			<clipPath id="SVGID_60_">
				<use xlink:href="#SVGID_59_"  style="overflow:visible;"/>
			</clipPath>
			<rect x="306.4" y="414.5" class="st30" width="1.3" height="116.3"/>
		</g>
		<g>
			<defs>
				<path id="SVGID_61_" d="M271,423.9l3.3,23.9c0.1,0.7,0.5,1.4,1,1.8l2,1.6l9.8,69.5c0.3,1.8,1,3.5,2.3,4.8c1,1.1,2.4,2.2,4.1,2.6
					c11.8,2.7,42.9,1.9,49.7,0c1.1-0.3,2.1-0.8,2.9-1.5c1.9-1.6,3.2-3.9,3.5-6.3l9.7-69.2l2-1.6c0.6-0.4,0.9-1.1,1-1.8l3.3-23.9
					c0.3-2.5-1.3-4.8-3.7-5.4c-18.2-4-69.1-4-87.2,0C272.3,419,270.7,421.4,271,423.9z"/>
			</defs>
			<clipPath id="SVGID_62_">
				<use xlink:href="#SVGID_61_"  style="overflow:visible;"/>
			</clipPath>
			<rect x="307.6" y="414.5" class="st31" width="1.3" height="116.3"/>
		</g>
		<g>
			<defs>
				<path id="SVGID_63_" d="M271,423.9l3.3,23.9c0.1,0.7,0.5,1.4,1,1.8l2,1.6l9.8,69.5c0.3,1.8,1,3.5,2.3,4.8c1,1.1,2.4,2.2,4.1,2.6
					c11.8,2.7,42.9,1.9,49.7,0c1.1-0.3,2.1-0.8,2.9-1.5c1.9-1.6,3.2-3.9,3.5-6.3l9.7-69.2l2-1.6c0.6-0.4,0.9-1.1,1-1.8l3.3-23.9
					c0.3-2.5-1.3-4.8-3.7-5.4c-18.2-4-69.1-4-87.2,0C272.3,419,270.7,421.4,271,423.9z"/>
			</defs>
			<clipPath id="SVGID_64_">
				<use xlink:href="#SVGID_63_"  style="overflow:visible;"/>
			</clipPath>
			<rect x="308.9" y="414.5" class="st32" width="1.3" height="116.3"/>
		</g>
		<g>
			<defs>
				<path id="SVGID_65_" d="M271,423.9l3.3,23.9c0.1,0.7,0.5,1.4,1,1.8l2,1.6l9.8,69.5c0.3,1.8,1,3.5,2.3,4.8c1,1.1,2.4,2.2,4.1,2.6
					c11.8,2.7,42.9,1.9,49.7,0c1.1-0.3,2.1-0.8,2.9-1.5c1.9-1.6,3.2-3.9,3.5-6.3l9.7-69.2l2-1.6c0.6-0.4,0.9-1.1,1-1.8l3.3-23.9
					c0.3-2.5-1.3-4.8-3.7-5.4c-18.2-4-69.1-4-87.2,0C272.3,419,270.7,421.4,271,423.9z"/>
			</defs>
			<clipPath id="SVGID_66_">
				<use xlink:href="#SVGID_65_"  style="overflow:visible;"/>
			</clipPath>
			<rect x="310.2" y="414.5" class="st33" width="1.3" height="116.3"/>
		</g>
		<g>
			<defs>
				<path id="SVGID_67_" d="M271,423.9l3.3,23.9c0.1,0.7,0.5,1.4,1,1.8l2,1.6l9.8,69.5c0.3,1.8,1,3.5,2.3,4.8c1,1.1,2.4,2.2,4.1,2.6
					c11.8,2.7,42.9,1.9,49.7,0c1.1-0.3,2.1-0.8,2.9-1.5c1.9-1.6,3.2-3.9,3.5-6.3l9.7-69.2l2-1.6c0.6-0.4,0.9-1.1,1-1.8l3.3-23.9
					c0.3-2.5-1.3-4.8-3.7-5.4c-18.2-4-69.1-4-87.2,0C272.3,419,270.7,421.4,271,423.9z"/>
			</defs>
			<clipPath id="SVGID_68_">
				<use xlink:href="#SVGID_67_"  style="overflow:visible;"/>
			</clipPath>
			<rect x="311.4" y="414.5" class="st34" width="1.3" height="116.3"/>
		</g>
		<g>
			<defs>
				<path id="SVGID_69_" d="M271,423.9l3.3,23.9c0.1,0.7,0.5,1.4,1,1.8l2,1.6l9.8,69.5c0.3,1.8,1,3.5,2.3,4.8c1,1.1,2.4,2.2,4.1,2.6
					c11.8,2.7,42.9,1.9,49.7,0c1.1-0.3,2.1-0.8,2.9-1.5c1.9-1.6,3.2-3.9,3.5-6.3l9.7-69.2l2-1.6c0.6-0.4,0.9-1.1,1-1.8l3.3-23.9
					c0.3-2.5-1.3-4.8-3.7-5.4c-18.2-4-69.1-4-87.2,0C272.3,419,270.7,421.4,271,423.9z"/>
			</defs>
			<clipPath id="SVGID_70_">
				<use xlink:href="#SVGID_69_"  style="overflow:visible;"/>
			</clipPath>
			<rect x="312.7" y="414.5" class="st35" width="1.3" height="116.3"/>
		</g>
		<g>
			<defs>
				<path id="SVGID_71_" d="M271,423.9l3.3,23.9c0.1,0.7,0.5,1.4,1,1.8l2,1.6l9.8,69.5c0.3,1.8,1,3.5,2.3,4.8c1,1.1,2.4,2.2,4.1,2.6
					c11.8,2.7,42.9,1.9,49.7,0c1.1-0.3,2.1-0.8,2.9-1.5c1.9-1.6,3.2-3.9,3.5-6.3l9.7-69.2l2-1.6c0.6-0.4,0.9-1.1,1-1.8l3.3-23.9
					c0.3-2.5-1.3-4.8-3.7-5.4c-18.2-4-69.1-4-87.2,0C272.3,419,270.7,421.4,271,423.9z"/>
			</defs>
			<clipPath id="SVGID_72_">
				<use xlink:href="#SVGID_71_"  style="overflow:visible;"/>
			</clipPath>
			<rect x="314" y="414.5" class="st36" width="1.3" height="116.3"/>
		</g>
		<g>
			<defs>
				<path id="SVGID_73_" d="M271,423.9l3.3,23.9c0.1,0.7,0.5,1.4,1,1.8l2,1.6l9.8,69.5c0.3,1.8,1,3.5,2.3,4.8c1,1.1,2.4,2.2,4.1,2.6
					c11.8,2.7,42.9,1.9,49.7,0c1.1-0.3,2.1-0.8,2.9-1.5c1.9-1.6,3.2-3.9,3.5-6.3l9.7-69.2l2-1.6c0.6-0.4,0.9-1.1,1-1.8l3.3-23.9
					c0.3-2.5-1.3-4.8-3.7-5.4c-18.2-4-69.1-4-87.2,0C272.3,419,270.7,421.4,271,423.9z"/>
			</defs>
			<clipPath id="SVGID_74_">
				<use xlink:href="#SVGID_73_"  style="overflow:visible;"/>
			</clipPath>
			<rect x="315.2" y="414.5" class="st37" width="1.3" height="116.3"/>
		</g>
		<g>
			<defs>
				<path id="SVGID_75_" d="M271,423.9l3.3,23.9c0.1,0.7,0.5,1.4,1,1.8l2,1.6l9.8,69.5c0.3,1.8,1,3.5,2.3,4.8c1,1.1,2.4,2.2,4.1,2.6
					c11.8,2.7,42.9,1.9,49.7,0c1.1-0.3,2.1-0.8,2.9-1.5c1.9-1.6,3.2-3.9,3.5-6.3l9.7-69.2l2-1.6c0.6-0.4,0.9-1.1,1-1.8l3.3-23.9
					c0.3-2.5-1.3-4.8-3.7-5.4c-18.2-4-69.1-4-87.2,0C272.3,419,270.7,421.4,271,423.9z"/>
			</defs>
			<clipPath id="SVGID_76_">
				<use xlink:href="#SVGID_75_"  style="overflow:visible;"/>
			</clipPath>
			<rect x="316.5" y="414.5" class="st38" width="1.3" height="116.3"/>
		</g>
		<g>
			<defs>
				<path id="SVGID_77_" d="M271,423.9l3.3,23.9c0.1,0.7,0.5,1.4,1,1.8l2,1.6l9.8,69.5c0.3,1.8,1,3.5,2.3,4.8c1,1.1,2.4,2.2,4.1,2.6
					c11.8,2.7,42.9,1.9,49.7,0c1.1-0.3,2.1-0.8,2.9-1.5c1.9-1.6,3.2-3.9,3.5-6.3l9.7-69.2l2-1.6c0.6-0.4,0.9-1.1,1-1.8l3.3-23.9
					c0.3-2.5-1.3-4.8-3.7-5.4c-18.2-4-69.1-4-87.2,0C272.3,419,270.7,421.4,271,423.9z"/>
			</defs>
			<clipPath id="SVGID_78_">
				<use xlink:href="#SVGID_77_"  style="overflow:visible;"/>
			</clipPath>
			<rect x="317.7" y="414.5" class="st39" width="1.3" height="116.3"/>
		</g>
		<g>
			<defs>
				<path id="SVGID_79_" d="M271,423.9l3.3,23.9c0.1,0.7,0.5,1.4,1,1.8l2,1.6l9.8,69.5c0.3,1.8,1,3.5,2.3,4.8c1,1.1,2.4,2.2,4.1,2.6
					c11.8,2.7,42.9,1.9,49.7,0c1.1-0.3,2.1-0.8,2.9-1.5c1.9-1.6,3.2-3.9,3.5-6.3l9.7-69.2l2-1.6c0.6-0.4,0.9-1.1,1-1.8l3.3-23.9
					c0.3-2.5-1.3-4.8-3.7-5.4c-18.2-4-69.1-4-87.2,0C272.3,419,270.7,421.4,271,423.9z"/>
			</defs>
			<clipPath id="SVGID_80_">
				<use xlink:href="#SVGID_79_"  style="overflow:visible;"/>
			</clipPath>
			<rect x="319" y="414.5" class="st40" width="1.3" height="116.3"/>
		</g>
		<g>
			<defs>
				<path id="SVGID_81_" d="M271,423.9l3.3,23.9c0.1,0.7,0.5,1.4,1,1.8l2,1.6l9.8,69.5c0.3,1.8,1,3.5,2.3,4.8c1,1.1,2.4,2.2,4.1,2.6
					c11.8,2.7,42.9,1.9,49.7,0c1.1-0.3,2.1-0.8,2.9-1.5c1.9-1.6,3.2-3.9,3.5-6.3l9.7-69.2l2-1.6c0.6-0.4,0.9-1.1,1-1.8l3.3-23.9
					c0.3-2.5-1.3-4.8-3.7-5.4c-18.2-4-69.1-4-87.2,0C272.3,419,270.7,421.4,271,423.9z"/>
			</defs>
			<clipPath id="SVGID_82_">
				<use xlink:href="#SVGID_81_"  style="overflow:visible;"/>
			</clipPath>
			<rect x="320.3" y="414.5" class="st41" width="1.3" height="116.3"/>
		</g>
		<g>
			<defs>
				<path id="SVGID_83_" d="M271,423.9l3.3,23.9c0.1,0.7,0.5,1.4,1,1.8l2,1.6l9.8,69.5c0.3,1.8,1,3.5,2.3,4.8c1,1.1,2.4,2.2,4.1,2.6
					c11.8,2.7,42.9,1.9,49.7,0c1.1-0.3,2.1-0.8,2.9-1.5c1.9-1.6,3.2-3.9,3.5-6.3l9.7-69.2l2-1.6c0.6-0.4,0.9-1.1,1-1.8l3.3-23.9
					c0.3-2.5-1.3-4.8-3.7-5.4c-18.2-4-69.1-4-87.2,0C272.3,419,270.7,421.4,271,423.9z"/>
			</defs>
			<clipPath id="SVGID_84_">
				<use xlink:href="#SVGID_83_"  style="overflow:visible;"/>
			</clipPath>
			<rect x="321.5" y="414.5" class="st42" width="1.3" height="116.3"/>
		</g>
		<g>
			<defs>
				<path id="SVGID_85_" d="M271,423.9l3.3,23.9c0.1,0.7,0.5,1.4,1,1.8l2,1.6l9.8,69.5c0.3,1.8,1,3.5,2.3,4.8c1,1.1,2.4,2.2,4.1,2.6
					c11.8,2.7,42.9,1.9,49.7,0c1.1-0.3,2.1-0.8,2.9-1.5c1.9-1.6,3.2-3.9,3.5-6.3l9.7-69.2l2-1.6c0.6-0.4,0.9-1.1,1-1.8l3.3-23.9
					c0.3-2.5-1.3-4.8-3.7-5.4c-18.2-4-69.1-4-87.2,0C272.3,419,270.7,421.4,271,423.9z"/>
			</defs>
			<clipPath id="SVGID_86_">
				<use xlink:href="#SVGID_85_"  style="overflow:visible;"/>
			</clipPath>
			<rect x="322.8" y="414.5" class="st43" width="1.3" height="116.3"/>
		</g>
		<g>
			<defs>
				<path id="SVGID_87_" d="M271,423.9l3.3,23.9c0.1,0.7,0.5,1.4,1,1.8l2,1.6l9.8,69.5c0.3,1.8,1,3.5,2.3,4.8c1,1.1,2.4,2.2,4.1,2.6
					c11.8,2.7,42.9,1.9,49.7,0c1.1-0.3,2.1-0.8,2.9-1.5c1.9-1.6,3.2-3.9,3.5-6.3l9.7-69.2l2-1.6c0.6-0.4,0.9-1.1,1-1.8l3.3-23.9
					c0.3-2.5-1.3-4.8-3.7-5.4c-18.2-4-69.1-4-87.2,0C272.3,419,270.7,421.4,271,423.9z"/>
			</defs>
			<clipPath id="SVGID_88_">
				<use xlink:href="#SVGID_87_"  style="overflow:visible;"/>
			</clipPath>
			<rect x="324.1" y="414.5" class="st44" width="1.3" height="116.3"/>
		</g>
		<g>
			<defs>
				<path id="SVGID_89_" d="M271,423.9l3.3,23.9c0.1,0.7,0.5,1.4,1,1.8l2,1.6l9.8,69.5c0.3,1.8,1,3.5,2.3,4.8c1,1.1,2.4,2.2,4.1,2.6
					c11.8,2.7,42.9,1.9,49.7,0c1.1-0.3,2.1-0.8,2.9-1.5c1.9-1.6,3.2-3.9,3.5-6.3l9.7-69.2l2-1.6c0.6-0.4,0.9-1.1,1-1.8l3.3-23.9
					c0.3-2.5-1.3-4.8-3.7-5.4c-18.2-4-69.1-4-87.2,0C272.3,419,270.7,421.4,271,423.9z"/>
			</defs>
			<clipPath id="SVGID_90_">
				<use xlink:href="#SVGID_89_"  style="overflow:visible;"/>
			</clipPath>
			<rect x="325.3" y="414.5" class="st45" width="1.3" height="116.3"/>
		</g>
		<g>
			<defs>
				<path id="SVGID_91_" d="M271,423.9l3.3,23.9c0.1,0.7,0.5,1.4,1,1.8l2,1.6l9.8,69.5c0.3,1.8,1,3.5,2.3,4.8c1,1.1,2.4,2.2,4.1,2.6
					c11.8,2.7,42.9,1.9,49.7,0c1.1-0.3,2.1-0.8,2.9-1.5c1.9-1.6,3.2-3.9,3.5-6.3l9.7-69.2l2-1.6c0.6-0.4,0.9-1.1,1-1.8l3.3-23.9
					c0.3-2.5-1.3-4.8-3.7-5.4c-18.2-4-69.1-4-87.2,0C272.3,419,270.7,421.4,271,423.9z"/>
			</defs>
			<clipPath id="SVGID_92_">
				<use xlink:href="#SVGID_91_"  style="overflow:visible;"/>
			</clipPath>
			<rect x="326.6" y="414.5" class="st46" width="1.3" height="116.3"/>
		</g>
		<g>
			<defs>
				<path id="SVGID_93_" d="M271,423.9l3.3,23.9c0.1,0.7,0.5,1.4,1,1.8l2,1.6l9.8,69.5c0.3,1.8,1,3.5,2.3,4.8c1,1.1,2.4,2.2,4.1,2.6
					c11.8,2.7,42.9,1.9,49.7,0c1.1-0.3,2.1-0.8,2.9-1.5c1.9-1.6,3.2-3.9,3.5-6.3l9.7-69.2l2-1.6c0.6-0.4,0.9-1.1,1-1.8l3.3-23.9
					c0.3-2.5-1.3-4.8-3.7-5.4c-18.2-4-69.1-4-87.2,0C272.3,419,270.7,421.4,271,423.9z"/>
			</defs>
			<clipPath id="SVGID_94_">
				<use xlink:href="#SVGID_93_"  style="overflow:visible;"/>
			</clipPath>
			<rect x="327.9" y="414.5" class="st47" width="1.3" height="116.3"/>
		</g>
		<g>
			<defs>
				<path id="SVGID_95_" d="M271,423.9l3.3,23.9c0.1,0.7,0.5,1.4,1,1.8l2,1.6l9.8,69.5c0.3,1.8,1,3.5,2.3,4.8c1,1.1,2.4,2.2,4.1,2.6
					c11.8,2.7,42.9,1.9,49.7,0c1.1-0.3,2.1-0.8,2.9-1.5c1.9-1.6,3.2-3.9,3.5-6.3l9.7-69.2l2-1.6c0.6-0.4,0.9-1.1,1-1.8l3.3-23.9
					c0.3-2.5-1.3-4.8-3.7-5.4c-18.2-4-69.1-4-87.2,0C272.3,419,270.7,421.4,271,423.9z"/>
			</defs>
			<clipPath id="SVGID_96_">
				<use xlink:href="#SVGID_95_"  style="overflow:visible;"/>
			</clipPath>
			<rect x="329.1" y="414.5" class="st48" width="1.3" height="116.3"/>
		</g>
		<g>
			<defs>
				<path id="SVGID_97_" d="M271,423.9l3.3,23.9c0.1,0.7,0.5,1.4,1,1.8l2,1.6l9.8,69.5c0.3,1.8,1,3.5,2.3,4.8c1,1.1,2.4,2.2,4.1,2.6
					c11.8,2.7,42.9,1.9,49.7,0c1.1-0.3,2.1-0.8,2.9-1.5c1.9-1.6,3.2-3.9,3.5-6.3l9.7-69.2l2-1.6c0.6-0.4,0.9-1.1,1-1.8l3.3-23.9
					c0.3-2.5-1.3-4.8-3.7-5.4c-18.2-4-69.1-4-87.2,0C272.3,419,270.7,421.4,271,423.9z"/>
			</defs>
			<clipPath id="SVGID_98_">
				<use xlink:href="#SVGID_97_"  style="overflow:visible;"/>
			</clipPath>
			<rect x="330.4" y="414.5" class="st49" width="1.3" height="116.3"/>
		</g>
		<g>
			<defs>
				<path id="SVGID_99_" d="M271,423.9l3.3,23.9c0.1,0.7,0.5,1.4,1,1.8l2,1.6l9.8,69.5c0.3,1.8,1,3.5,2.3,4.8c1,1.1,2.4,2.2,4.1,2.6
					c11.8,2.7,42.9,1.9,49.7,0c1.1-0.3,2.1-0.8,2.9-1.5c1.9-1.6,3.2-3.9,3.5-6.3l9.7-69.2l2-1.6c0.6-0.4,0.9-1.1,1-1.8l3.3-23.9
					c0.3-2.5-1.3-4.8-3.7-5.4c-18.2-4-69.1-4-87.2,0C272.3,419,270.7,421.4,271,423.9z"/>
			</defs>
			<clipPath id="SVGID_100_">
				<use xlink:href="#SVGID_99_"  style="overflow:visible;"/>
			</clipPath>
			<rect x="331.6" y="414.5" class="st50" width="1.3" height="116.3"/>
		</g>
		<g>
			<defs>
				<path id="SVGID_101_" d="M271,423.9l3.3,23.9c0.1,0.7,0.5,1.4,1,1.8l2,1.6l9.8,69.5c0.3,1.8,1,3.5,2.3,4.8
					c1,1.1,2.4,2.2,4.1,2.6c11.8,2.7,42.9,1.9,49.7,0c1.1-0.3,2.1-0.8,2.9-1.5c1.9-1.6,3.2-3.9,3.5-6.3l9.7-69.2l2-1.6
					c0.6-0.4,0.9-1.1,1-1.8l3.3-23.9c0.3-2.5-1.3-4.8-3.7-5.4c-18.2-4-69.1-4-87.2,0C272.3,419,270.7,421.4,271,423.9z"/>
			</defs>
			<clipPath id="SVGID_102_">
				<use xlink:href="#SVGID_101_"  style="overflow:visible;"/>
			</clipPath>
			<rect x="332.9" y="414.5" class="st51" width="1.3" height="116.3"/>
		</g>
		<g>
			<defs>
				<path id="SVGID_103_" d="M271,423.9l3.3,23.9c0.1,0.7,0.5,1.4,1,1.8l2,1.6l9.8,69.5c0.3,1.8,1,3.5,2.3,4.8
					c1,1.1,2.4,2.2,4.1,2.6c11.8,2.7,42.9,1.9,49.7,0c1.1-0.3,2.1-0.8,2.9-1.5c1.9-1.6,3.2-3.9,3.5-6.3l9.7-69.2l2-1.6
					c0.6-0.4,0.9-1.1,1-1.8l3.3-23.9c0.3-2.5-1.3-4.8-3.7-5.4c-18.2-4-69.1-4-87.2,0C272.3,419,270.7,421.4,271,423.9z"/>
			</defs>
			<clipPath id="SVGID_104_">
				<use xlink:href="#SVGID_103_"  style="overflow:visible;"/>
			</clipPath>
			<rect x="334.2" y="414.5" class="st52" width="1.3" height="116.3"/>
		</g>
		<g>
			<defs>
				<path id="SVGID_105_" d="M271,423.9l3.3,23.9c0.1,0.7,0.5,1.4,1,1.8l2,1.6l9.8,69.5c0.3,1.8,1,3.5,2.3,4.8
					c1,1.1,2.4,2.2,4.1,2.6c11.8,2.7,42.9,1.9,49.7,0c1.1-0.3,2.1-0.8,2.9-1.5c1.9-1.6,3.2-3.9,3.5-6.3l9.7-69.2l2-1.6
					c0.6-0.4,0.9-1.1,1-1.8l3.3-23.9c0.3-2.5-1.3-4.8-3.7-5.4c-18.2-4-69.1-4-87.2,0C272.3,419,270.7,421.4,271,423.9z"/>
			</defs>
			<clipPath id="SVGID_106_">
				<use xlink:href="#SVGID_105_"  style="overflow:visible;"/>
			</clipPath>
			<rect x="335.4" y="414.5" class="st53" width="1.3" height="116.3"/>
		</g>
		<g>
			<defs>
				<path id="SVGID_107_" d="M271,423.9l3.3,23.9c0.1,0.7,0.5,1.4,1,1.8l2,1.6l9.8,69.5c0.3,1.8,1,3.5,2.3,4.8
					c1,1.1,2.4,2.2,4.1,2.6c11.8,2.7,42.9,1.9,49.7,0c1.1-0.3,2.1-0.8,2.9-1.5c1.9-1.6,3.2-3.9,3.5-6.3l9.7-69.2l2-1.6
					c0.6-0.4,0.9-1.1,1-1.8l3.3-23.9c0.3-2.5-1.3-4.8-3.7-5.4c-18.2-4-69.1-4-87.2,0C272.3,419,270.7,421.4,271,423.9z"/>
			</defs>
			<clipPath id="SVGID_108_">
				<use xlink:href="#SVGID_107_"  style="overflow:visible;"/>
			</clipPath>
			<rect x="336.7" y="414.5" class="st54" width="1.3" height="116.3"/>
		</g>
		<g>
			<defs>
				<path id="SVGID_109_" d="M271,423.9l3.3,23.9c0.1,0.7,0.5,1.4,1,1.8l2,1.6l9.8,69.5c0.3,1.8,1,3.5,2.3,4.8
					c1,1.1,2.4,2.2,4.1,2.6c11.8,2.7,42.9,1.9,49.7,0c1.1-0.3,2.1-0.8,2.9-1.5c1.9-1.6,3.2-3.9,3.5-6.3l9.7-69.2l2-1.6
					c0.6-0.4,0.9-1.1,1-1.8l3.3-23.9c0.3-2.5-1.3-4.8-3.7-5.4c-18.2-4-69.1-4-87.2,0C272.3,419,270.7,421.4,271,423.9z"/>
			</defs>
			<clipPath id="SVGID_110_">
				<use xlink:href="#SVGID_109_"  style="overflow:visible;"/>
			</clipPath>
			<rect x="338" y="414.5" class="st55" width="1.3" height="116.3"/>
		</g>
		<g>
			<defs>
				<path id="SVGID_111_" d="M271,423.9l3.3,23.9c0.1,0.7,0.5,1.4,1,1.8l2,1.6l9.8,69.5c0.3,1.8,1,3.5,2.3,4.8
					c1,1.1,2.4,2.2,4.1,2.6c11.8,2.7,42.9,1.9,49.7,0c1.1-0.3,2.1-0.8,2.9-1.5c1.9-1.6,3.2-3.9,3.5-6.3l9.7-69.2l2-1.6
					c0.6-0.4,0.9-1.1,1-1.8l3.3-23.9c0.3-2.5-1.3-4.8-3.7-5.4c-18.2-4-69.1-4-87.2,0C272.3,419,270.7,421.4,271,423.9z"/>
			</defs>
			<clipPath id="SVGID_112_">
				<use xlink:href="#SVGID_111_"  style="overflow:visible;"/>
			</clipPath>
			<rect x="339.2" y="414.5" class="st56" width="1.3" height="116.3"/>
		</g>
		<g>
			<defs>
				<path id="SVGID_113_" d="M271,423.9l3.3,23.9c0.1,0.7,0.5,1.4,1,1.8l2,1.6l9.8,69.5c0.3,1.8,1,3.5,2.3,4.8
					c1,1.1,2.4,2.2,4.1,2.6c11.8,2.7,42.9,1.9,49.7,0c1.1-0.3,2.1-0.8,2.9-1.5c1.9-1.6,3.2-3.9,3.5-6.3l9.7-69.2l2-1.6
					c0.6-0.4,0.9-1.1,1-1.8l3.3-23.9c0.3-2.5-1.3-4.8-3.7-5.4c-18.2-4-69.1-4-87.2,0C272.3,419,270.7,421.4,271,423.9z"/>
			</defs>
			<clipPath id="SVGID_114_">
				<use xlink:href="#SVGID_113_"  style="overflow:visible;"/>
			</clipPath>
			<rect x="340.5" y="414.5" class="st57" width="1.3" height="116.3"/>
		</g>
		<g>
			<defs>
				<path id="SVGID_115_" d="M271,423.9l3.3,23.9c0.1,0.7,0.5,1.4,1,1.8l2,1.6l9.8,69.5c0.3,1.8,1,3.5,2.3,4.8
					c1,1.1,2.4,2.2,4.1,2.6c11.8,2.7,42.9,1.9,49.7,0c1.1-0.3,2.1-0.8,2.9-1.5c1.9-1.6,3.2-3.9,3.5-6.3l9.7-69.2l2-1.6
					c0.6-0.4,0.9-1.1,1-1.8l3.3-23.9c0.3-2.5-1.3-4.8-3.7-5.4c-18.2-4-69.1-4-87.2,0C272.3,419,270.7,421.4,271,423.9z"/>
			</defs>
			<clipPath id="SVGID_116_">
				<use xlink:href="#SVGID_115_"  style="overflow:visible;"/>
			</clipPath>
			<rect x="341.8" y="414.5" class="st58" width="1.3" height="116.3"/>
		</g>
		<g>
			<defs>
				<path id="SVGID_117_" d="M271,423.9l3.3,23.9c0.1,0.7,0.5,1.4,1,1.8l2,1.6l9.8,69.5c0.3,1.8,1,3.5,2.3,4.8
					c1,1.1,2.4,2.2,4.1,2.6c11.8,2.7,42.9,1.9,49.7,0c1.1-0.3,2.1-0.8,2.9-1.5c1.9-1.6,3.2-3.9,3.5-6.3l9.7-69.2l2-1.6
					c0.6-0.4,0.9-1.1,1-1.8l3.3-23.9c0.3-2.5-1.3-4.8-3.7-5.4c-18.2-4-69.1-4-87.2,0C272.3,419,270.7,421.4,271,423.9z"/>
			</defs>
			<clipPath id="SVGID_118_">
				<use xlink:href="#SVGID_117_"  style="overflow:visible;"/>
			</clipPath>
			<rect x="343" y="414.5" class="st59" width="1.3" height="116.3"/>
		</g>
		<g>
			<defs>
				<path id="SVGID_119_" d="M271,423.9l3.3,23.9c0.1,0.7,0.5,1.4,1,1.8l2,1.6l9.8,69.5c0.3,1.8,1,3.5,2.3,4.8
					c1,1.1,2.4,2.2,4.1,2.6c11.8,2.7,42.9,1.9,49.7,0c1.1-0.3,2.1-0.8,2.9-1.5c1.9-1.6,3.2-3.9,3.5-6.3l9.7-69.2l2-1.6
					c0.6-0.4,0.9-1.1,1-1.8l3.3-23.9c0.3-2.5-1.3-4.8-3.7-5.4c-18.2-4-69.1-4-87.2,0C272.3,419,270.7,421.4,271,423.9z"/>
			</defs>
			<clipPath id="SVGID_120_">
				<use xlink:href="#SVGID_119_"  style="overflow:visible;"/>
			</clipPath>
			<rect x="344.3" y="414.5" class="st60" width="1.3" height="116.3"/>
		</g>
		<g>
			<defs>
				<path id="SVGID_121_" d="M271,423.9l3.3,23.9c0.1,0.7,0.5,1.4,1,1.8l2,1.6l9.8,69.5c0.3,1.8,1,3.5,2.3,4.8
					c1,1.1,2.4,2.2,4.1,2.6c11.8,2.7,42.9,1.9,49.7,0c1.1-0.3,2.1-0.8,2.9-1.5c1.9-1.6,3.2-3.9,3.5-6.3l9.7-69.2l2-1.6
					c0.6-0.4,0.9-1.1,1-1.8l3.3-23.9c0.3-2.5-1.3-4.8-3.7-5.4c-18.2-4-69.1-4-87.2,0C272.3,419,270.7,421.4,271,423.9z"/>
			</defs>
			<clipPath id="SVGID_122_">
				<use xlink:href="#SVGID_121_"  style="overflow:visible;"/>
			</clipPath>
			<rect x="345.5" y="414.5" class="st61" width="1.3" height="116.3"/>
		</g>
		<g>
			<defs>
				<path id="SVGID_123_" d="M271,423.9l3.3,23.9c0.1,0.7,0.5,1.4,1,1.8l2,1.6l9.8,69.5c0.3,1.8,1,3.5,2.3,4.8
					c1,1.1,2.4,2.2,4.1,2.6c11.8,2.7,42.9,1.9,49.7,0c1.1-0.3,2.1-0.8,2.9-1.5c1.9-1.6,3.2-3.9,3.5-6.3l9.7-69.2l2-1.6
					c0.6-0.4,0.9-1.1,1-1.8l3.3-23.9c0.3-2.5-1.3-4.8-3.7-5.4c-18.2-4-69.1-4-87.2,0C272.3,419,270.7,421.4,271,423.9z"/>
			</defs>
			<clipPath id="SVGID_124_">
				<use xlink:href="#SVGID_123_"  style="overflow:visible;"/>
			</clipPath>
			<rect x="346.8" y="414.5" class="st62" width="1.3" height="116.3"/>
		</g>
		<g>
			<defs>
				<path id="SVGID_125_" d="M271,423.9l3.3,23.9c0.1,0.7,0.5,1.4,1,1.8l2,1.6l9.8,69.5c0.3,1.8,1,3.5,2.3,4.8
					c1,1.1,2.4,2.2,4.1,2.6c11.8,2.7,42.9,1.9,49.7,0c1.1-0.3,2.1-0.8,2.9-1.5c1.9-1.6,3.2-3.9,3.5-6.3l9.7-69.2l2-1.6
					c0.6-0.4,0.9-1.1,1-1.8l3.3-23.9c0.3-2.5-1.3-4.8-3.7-5.4c-18.2-4-69.1-4-87.2,0C272.3,419,270.7,421.4,271,423.9z"/>
			</defs>
			<clipPath id="SVGID_126_">
				<use xlink:href="#SVGID_125_"  style="overflow:visible;"/>
			</clipPath>
			<rect x="348.1" y="414.5" class="st63" width="1.3" height="116.3"/>
		</g>
		<g>
			<defs>
				<path id="SVGID_127_" d="M271,423.9l3.3,23.9c0.1,0.7,0.5,1.4,1,1.8l2,1.6l9.8,69.5c0.3,1.8,1,3.5,2.3,4.8
					c1,1.1,2.4,2.2,4.1,2.6c11.8,2.7,42.9,1.9,49.7,0c1.1-0.3,2.1-0.8,2.9-1.5c1.9-1.6,3.2-3.9,3.5-6.3l9.7-69.2l2-1.6
					c0.6-0.4,0.9-1.1,1-1.8l3.3-23.9c0.3-2.5-1.3-4.8-3.7-5.4c-18.2-4-69.1-4-87.2,0C272.3,419,270.7,421.4,271,423.9z"/>
			</defs>
			<clipPath id="SVGID_128_">
				<use xlink:href="#SVGID_127_"  style="overflow:visible;"/>
			</clipPath>
			<rect x="349.3" y="414.5" class="st64" width="1.3" height="116.3"/>
		</g>
		<g>
			<defs>
				<path id="SVGID_129_" d="M271,423.9l3.3,23.9c0.1,0.7,0.5,1.4,1,1.8l2,1.6l9.8,69.5c0.3,1.8,1,3.5,2.3,4.8
					c1,1.1,2.4,2.2,4.1,2.6c11.8,2.7,42.9,1.9,49.7,0c1.1-0.3,2.1-0.8,2.9-1.5c1.9-1.6,3.2-3.9,3.5-6.3l9.7-69.2l2-1.6
					c0.6-0.4,0.9-1.1,1-1.8l3.3-23.9c0.3-2.5-1.3-4.8-3.7-5.4c-18.2-4-69.1-4-87.2,0C272.3,419,270.7,421.4,271,423.9z"/>
			</defs>
			<clipPath id="SVGID_130_">
				<use xlink:href="#SVGID_129_"  style="overflow:visible;"/>
			</clipPath>
			<rect x="350.6" y="414.5" class="st65" width="1.3" height="116.3"/>
		</g>
		<g>
			<defs>
				<path id="SVGID_131_" d="M271,423.9l3.3,23.9c0.1,0.7,0.5,1.4,1,1.8l2,1.6l9.8,69.5c0.3,1.8,1,3.5,2.3,4.8
					c1,1.1,2.4,2.2,4.1,2.6c11.8,2.7,42.9,1.9,49.7,0c1.1-0.3,2.1-0.8,2.9-1.5c1.9-1.6,3.2-3.9,3.5-6.3l9.7-69.2l2-1.6
					c0.6-0.4,0.9-1.1,1-1.8l3.3-23.9c0.3-2.5-1.3-4.8-3.7-5.4c-18.2-4-69.1-4-87.2,0C272.3,419,270.7,421.4,271,423.9z"/>
			</defs>
			<clipPath id="SVGID_132_">
				<use xlink:href="#SVGID_131_"  style="overflow:visible;"/>
			</clipPath>
			<rect x="351.9" y="414.5" class="st66" width="1.3" height="116.3"/>
		</g>
		<g>
			<defs>
				<path id="SVGID_133_" d="M271,423.9l3.3,23.9c0.1,0.7,0.5,1.4,1,1.8l2,1.6l9.8,69.5c0.3,1.8,1,3.5,2.3,4.8
					c1,1.1,2.4,2.2,4.1,2.6c11.8,2.7,42.9,1.9,49.7,0c1.1-0.3,2.1-0.8,2.9-1.5c1.9-1.6,3.2-3.9,3.5-6.3l9.7-69.2l2-1.6
					c0.6-0.4,0.9-1.1,1-1.8l3.3-23.9c0.3-2.5-1.3-4.8-3.7-5.4c-18.2-4-69.1-4-87.2,0C272.3,419,270.7,421.4,271,423.9z"/>
			</defs>
			<clipPath id="SVGID_134_">
				<use xlink:href="#SVGID_133_"  style="overflow:visible;"/>
			</clipPath>
			<rect x="353.1" y="414.5" class="st67" width="1.3" height="116.3"/>
		</g>
		<g>
			<defs>
				<path id="SVGID_135_" d="M271,423.9l3.3,23.9c0.1,0.7,0.5,1.4,1,1.8l2,1.6l9.8,69.5c0.3,1.8,1,3.5,2.3,4.8
					c1,1.1,2.4,2.2,4.1,2.6c11.8,2.7,42.9,1.9,49.7,0c1.1-0.3,2.1-0.8,2.9-1.5c1.9-1.6,3.2-3.9,3.5-6.3l9.7-69.2l2-1.6
					c0.6-0.4,0.9-1.1,1-1.8l3.3-23.9c0.3-2.5-1.3-4.8-3.7-5.4c-18.2-4-69.1-4-87.2,0C272.3,419,270.7,421.4,271,423.9z"/>
			</defs>
			<clipPath id="SVGID_136_">
				<use xlink:href="#SVGID_135_"  style="overflow:visible;"/>
			</clipPath>
			<rect x="354.4" y="414.5" class="st68" width="1.3" height="116.3"/>
		</g>
		<g>
			<defs>
				<path id="SVGID_137_" d="M271,423.9l3.3,23.9c0.1,0.7,0.5,1.4,1,1.8l2,1.6l9.8,69.5c0.3,1.8,1,3.5,2.3,4.8
					c1,1.1,2.4,2.2,4.1,2.6c11.8,2.7,42.9,1.9,49.7,0c1.1-0.3,2.1-0.8,2.9-1.5c1.9-1.6,3.2-3.9,3.5-6.3l9.7-69.2l2-1.6
					c0.6-0.4,0.9-1.1,1-1.8l3.3-23.9c0.3-2.5-1.3-4.8-3.7-5.4c-18.2-4-69.1-4-87.2,0C272.3,419,270.7,421.4,271,423.9z"/>
			</defs>
			<clipPath id="SVGID_138_">
				<use xlink:href="#SVGID_137_"  style="overflow:visible;"/>
			</clipPath>
			<rect x="355.7" y="414.5" class="st69" width="1.3" height="116.3"/>
		</g>
		<g>
			<defs>
				<path id="SVGID_139_" d="M271,423.9l3.3,23.9c0.1,0.7,0.5,1.4,1,1.8l2,1.6l9.8,69.5c0.3,1.8,1,3.5,2.3,4.8
					c1,1.1,2.4,2.2,4.1,2.6c11.8,2.7,42.9,1.9,49.7,0c1.1-0.3,2.1-0.8,2.9-1.5c1.9-1.6,3.2-3.9,3.5-6.3l9.7-69.2l2-1.6
					c0.6-0.4,0.9-1.1,1-1.8l3.3-23.9c0.3-2.5-1.3-4.8-3.7-5.4c-18.2-4-69.1-4-87.2,0C272.3,419,270.7,421.4,271,423.9z"/>
			</defs>
			<clipPath id="SVGID_140_">
				<use xlink:href="#SVGID_139_"  style="overflow:visible;"/>
			</clipPath>
			<rect x="356.9" y="414.5" class="st70" width="1.3" height="116.3"/>
		</g>
		<g>
			<defs>
				<path id="SVGID_141_" d="M271,423.9l3.3,23.9c0.1,0.7,0.5,1.4,1,1.8l2,1.6l9.8,69.5c0.3,1.8,1,3.5,2.3,4.8
					c1,1.1,2.4,2.2,4.1,2.6c11.8,2.7,42.9,1.9,49.7,0c1.1-0.3,2.1-0.8,2.9-1.5c1.9-1.6,3.2-3.9,3.5-6.3l9.7-69.2l2-1.6
					c0.6-0.4,0.9-1.1,1-1.8l3.3-23.9c0.3-2.5-1.3-4.8-3.7-5.4c-18.2-4-69.1-4-87.2,0C272.3,419,270.7,421.4,271,423.9z"/>
			</defs>
			<clipPath id="SVGID_142_">
				<use xlink:href="#SVGID_141_"  style="overflow:visible;"/>
			</clipPath>
			<rect x="358.2" y="414.5" class="st71" width="1.3" height="116.3"/>
		</g>
		<g>
			<defs>
				<path id="SVGID_143_" d="M271,423.9l3.3,23.9c0.1,0.7,0.5,1.4,1,1.8l2,1.6l9.8,69.5c0.3,1.8,1,3.5,2.3,4.8
					c1,1.1,2.4,2.2,4.1,2.6c11.8,2.7,42.9,1.9,49.7,0c1.1-0.3,2.1-0.8,2.9-1.5c1.9-1.6,3.2-3.9,3.5-6.3l9.7-69.2l2-1.6
					c0.6-0.4,0.9-1.1,1-1.8l3.3-23.9c0.3-2.5-1.3-4.8-3.7-5.4c-18.2-4-69.1-4-87.2,0C272.3,419,270.7,421.4,271,423.9z"/>
			</defs>
			<clipPath id="SVGID_144_">
				<use xlink:href="#SVGID_143_"  style="overflow:visible;"/>
			</clipPath>
			<rect x="359.4" y="414.5" class="st72" width="1.3" height="116.3"/>
		</g>
		<g>
			<defs>
				<path id="SVGID_145_" d="M271,423.9l3.3,23.9c0.1,0.7,0.5,1.4,1,1.8l2,1.6l9.8,69.5c0.3,1.8,1,3.5,2.3,4.8
					c1,1.1,2.4,2.2,4.1,2.6c11.8,2.7,42.9,1.9,49.7,0c1.1-0.3,2.1-0.8,2.9-1.5c1.9-1.6,3.2-3.9,3.5-6.3l9.7-69.2l2-1.6
					c0.6-0.4,0.9-1.1,1-1.8l3.3-23.9c0.3-2.5-1.3-4.8-3.7-5.4c-18.2-4-69.1-4-87.2,0C272.3,419,270.7,421.4,271,423.9z"/>
			</defs>
			<clipPath id="SVGID_146_">
				<use xlink:href="#SVGID_145_"  style="overflow:visible;"/>
			</clipPath>
			<rect x="360.7" y="414.5" class="st73" width="1.3" height="116.3"/>
		</g>
		<g>
			<defs>
				<path id="SVGID_147_" d="M271,423.9l3.3,23.9c0.1,0.7,0.5,1.4,1,1.8l2,1.6l9.8,69.5c0.3,1.8,1,3.5,2.3,4.8
					c1,1.1,2.4,2.2,4.1,2.6c11.8,2.7,42.9,1.9,49.7,0c1.1-0.3,2.1-0.8,2.9-1.5c1.9-1.6,3.2-3.9,3.5-6.3l9.7-69.2l2-1.6
					c0.6-0.4,0.9-1.1,1-1.8l3.3-23.9c0.3-2.5-1.3-4.8-3.7-5.4c-18.2-4-69.1-4-87.2,0C272.3,419,270.7,421.4,271,423.9z"/>
			</defs>
			<clipPath id="SVGID_148_">
				<use xlink:href="#SVGID_147_"  style="overflow:visible;"/>
			</clipPath>
			<rect x="362" y="414.5" class="st74" width="1.3" height="116.3"/>
		</g>
		<g>
			<defs>
				<path id="SVGID_149_" d="M271,423.9l3.3,23.9c0.1,0.7,0.5,1.4,1,1.8l2,1.6l9.8,69.5c0.3,1.8,1,3.5,2.3,4.8
					c1,1.1,2.4,2.2,4.1,2.6c11.8,2.7,42.9,1.9,49.7,0c1.1-0.3,2.1-0.8,2.9-1.5c1.9-1.6,3.2-3.9,3.5-6.3l9.7-69.2l2-1.6
					c0.6-0.4,0.9-1.1,1-1.8l3.3-23.9c0.3-2.5-1.3-4.8-3.7-5.4c-18.2-4-69.1-4-87.2,0C272.3,419,270.7,421.4,271,423.9z"/>
			</defs>
			<clipPath id="SVGID_150_">
				<use xlink:href="#SVGID_149_"  style="overflow:visible;"/>
			</clipPath>
			<rect x="363.2" y="414.5" class="st75" width="1.3" height="116.3"/>
		</g>
		<g>
			<defs>
				<path id="SVGID_151_" d="M271,423.9l3.3,23.9c0.1,0.7,0.5,1.4,1,1.8l2,1.6l9.8,69.5c0.3,1.8,1,3.5,2.3,4.8
					c1,1.1,2.4,2.2,4.1,2.6c11.8,2.7,42.9,1.9,49.7,0c1.1-0.3,2.1-0.8,2.9-1.5c1.9-1.6,3.2-3.9,3.5-6.3l9.7-69.2l2-1.6
					c0.6-0.4,0.9-1.1,1-1.8l3.3-23.9c0.3-2.5-1.3-4.8-3.7-5.4c-18.2-4-69.1-4-87.2,0C272.3,419,270.7,421.4,271,423.9z"/>
			</defs>
			<clipPath id="SVGID_152_">
				<use xlink:href="#SVGID_151_"  style="overflow:visible;"/>
			</clipPath>
			<rect x="364.5" y="414.5" class="st76" width="1.3" height="116.3"/>
		</g>
		<g>
			<defs>
				<path id="SVGID_153_" d="M271,423.9l3.3,23.9c0.1,0.7,0.5,1.4,1,1.8l2,1.6l9.8,69.5c0.3,1.8,1,3.5,2.3,4.8
					c1,1.1,2.4,2.2,4.1,2.6c11.8,2.7,42.9,1.9,49.7,0c1.1-0.3,2.1-0.8,2.9-1.5c1.9-1.6,3.2-3.9,3.5-6.3l9.7-69.2l2-1.6
					c0.6-0.4,0.9-1.1,1-1.8l3.3-23.9c0.3-2.5-1.3-4.8-3.7-5.4c-18.2-4-69.1-4-87.2,0C272.3,419,270.7,421.4,271,423.9z"/>
			</defs>
			<clipPath id="SVGID_154_">
				<use xlink:href="#SVGID_153_"  style="overflow:visible;"/>
			</clipPath>
			<rect x="365.8" y="414.5" class="st77" width="0.3" height="116.3"/>
		</g>
	</g>
	<path class="st78" d="M317.9,530.3c-9.4,0-19-0.5-24.4-1.8c-1.4-0.3-2.9-1.2-4.2-2.7c-1.3-1.4-2.1-3.1-2.4-5l-9.8-69.4l-1.9-1.5
		c-0.6-0.5-1-1.2-1.2-2l-3.3-23.9c-0.4-2.7,1.4-5.2,4-5.8c18.4-4,69-4,87.4,0c2.6,0.6,4.4,3.1,4,5.8l-3.3,23.9
		c-0.1,0.8-0.5,1.5-1.2,2l-1.9,1.5l-9.7,69c-0.4,2.7-1.7,5-3.6,6.5c-0.9,0.7-1.9,1.2-3,1.5C339.6,529.5,328.8,530.3,317.9,530.3z
		 M271.4,423.8l3.3,23.9c0.1,0.6,0.4,1.2,0.9,1.6l2.1,1.7v0.1l9.8,69.5c0.3,1.8,1,3.4,2.2,4.6c1.3,1.3,2.6,2.2,3.9,2.5
		c11.8,2.7,42.6,2,49.5,0c1-0.3,2-0.8,2.8-1.4c1.8-1.5,3-3.6,3.4-6.1L359,451l2.1-1.7c0.5-0.4,0.8-1,0.9-1.6l3.3-23.9
		c0.3-2.3-1.2-4.5-3.5-5c-18.3-4-68.8-4-87.1,0C272.6,419.3,271.1,421.5,271.4,423.8z"/>
</g>
<g>
	<path class="st78" d="M316.7,454.6c-17,0-31.8-1.3-39.4-3.1l0.2-0.7c13.7,3.2,50.7,5,81.9,0l0.1,0.7
		C345.5,453.8,330.4,454.6,316.7,454.6z"/>
</g>
<g>
	<path class="st79" d="M274.9,420.2c0,0,26,7.3,84.5,0.9c0,0,4.7-1.1-13.6-3C316.9,415.2,276.2,419,274.9,420.2z"/>
</g>
<g>
	<path class="st80" d="M316.5,109c0,0,7.1,11.2,11,11.2c0,0,2.9,9.8,4.4,9.8c0.5,0,0.3,0.6-0.2,1.3c-1.8,2.8-2,6.3-1,9.4l1.6,4.7
		c0.8,2.2,2.1,4.1,3.8,5.7l0.9,0.8l8.5-1l2.3-1.3c1-0.6,1.6-1.7,1.6-2.8v-3.3l3.1-2.5l4.3,5.9c0.6,0.8,0.8,1.7,0.7,2.6l-1,7.7
		c-0.1,1,0.3,2,1.1,2.7l4.7,3.8l0,0c1.7,0,3.1,1.4,3.1,3.1v1l5.4,7.5l2.3-11l-1.2-7.3l0.4-3.7l-3.3-13.9l1.5-1.9
		c1.1-1.4,2.9-2.1,4.7-1.9l6.2,0.9c0.6,0.1,0.8-0.7,0.3-1l-14.2-7.3l-10.6-8.9l-5.5-8.4c-0.7-1.1-1.7-1.9-2.8-2.4l-4.6-1.9l-5.8-5.6
		l1.9,5.8l5,4.8l0.4,2.7l-1.8-1.2c-1.5-1-3.3-1.6-5.1-1.7l-5.5-0.3l0,0c-1.2-1.2-2.8-1.9-4.5-1.9h-12.1V109z"/>
</g>
<g>
	<path class="st81" d="M346.4,282c-0.5,0.4-1.3,0.2-1.6-0.4c-1.3-2.1-5.6-8.4-10.9-9.6c-5.8-1.3-11.2-1.7-12.2-1.7
		c-0.1,0-0.3,0-0.4,0c-0.8,0.2-3.6,1.4-2.5,5.9c1.3,5.3,1.6,16.3,0.7,17.2c-0.5,0.5-7.3,0.2-12.5-0.2c-1.3-0.1-1.8,1.7-0.6,2.2
		l7.4,3.5c0.6,0.3,0.9,1.1,0.5,1.7l-4.4,7.1c-0.2,0.3-0.2,0.6-0.1,1l0.8,2.4c0.1,0.3,0.3,0.6,0.6,0.7l7.8,3.9h16.3
		c0.2,0,0.4,0,0.5,0.1l6.5,3.4c0.3,0.1,0.5,0.4,0.6,0.7c0.8,2.8,5.6,17.6,13.9,23.1c0.4,0.3,1,0.2,1.3-0.1c2.2-1.8,9.4-8,9.4-13.4
		c0-6.3-5-11.3,0-13c4.4-1.4,12.9-6.2,15.8-9.9c0.5-0.7,0.2-1.6-0.6-1.8l-3.2-0.9c-0.4-0.1-0.8-0.5-0.8-0.9
		c-0.3-1.4-0.9-4.4-0.9-5.1c0-0.9-5.8-7.4-7.2-7.4c-1.4,0-4.9-1.4-4.9-2.9c0-1.4,0-6.3-2.3-8.6c-2.3-2.3-7-7.6-8.8-7.6
		s-3.6,2.9-3.1,3.4s-4.3-2.2-5.2,0.4C345.3,277.5,347.8,280.9,346.4,282z"/>
</g>
<g>
	<path class="st82" d="M180.3,293.4c0,0,4.2,4.9,10.4-5.3s-12.7-3.6-12.7-3.6L180.3,293.4z"/>
</g>
<g>
	<path class="st83" d="M187.8,252.6l-4.3,3.3l-25.7,41.2c0,0,2.5,12.7,4.3,14.5s1.9,9,0.3,10.7c0,0,15.5-16.3,15.5-19.3
		s1-15,10.9-12.5s26.9-1,26.9-1s-9.8-16.5-10.2-19.2c-0.2-1.8,5.6-12.8,5.6-15.4s-6.9-4.8-12.7-2.3
		C198.5,252.6,192.1,249.3,187.8,252.6z"/>
</g>
<g>
	<path class="st84" d="M240.2,277.8l-6.4,23.9v3.3c0,0,10.2,7.9,11.3,10.8l11.2-10.8l1.1-6l8.6-4.4c0,0,1.8-10.8-0.8-13.3
		s-5.5-3.5-5.5-5.2s-0.6-10.6-11.8-4.8C247.9,271.3,242.5,273.2,240.2,277.8z"/>
</g>
<g>
	<path class="st85" d="M229.3,199.2l-1.3-4.3c-0.6-2.2-3.2-3.3-5.2-2.2l-2.3,1.3l-2.5-1.5c-1.4-0.8-3.2-0.8-4.5,0.1l-2.6,1.8
		c-1.2,0.8-2,2.2-2,3.7v2.5l-2.1,1.5c-3.5,2.5-7.5,4.2-11.8,4.8l-3.3,0.5c-1.1,0.2-1.1,1.7,0,1.8l10.4,1.6c0,0,8.4,4,4.7,7.7
		l-0.1,0.1c-4.1,4-5.7,9.9-4.2,15.5l1.1,4.1l9.4-1.9l7.4-2.8c1.6-0.6,2.9-1.8,3.6-3.3l0.9-2c0.9-1.9,2.5-3.4,4.6-4.1l0.3-0.1
		c2.5-0.9,5.1-0.9,7.6-0.1c3,0.9,6.7,2.1,7.4,2.1c1.1,0,8.8,0.7,8.8,0.7s1.1-5.9,0-7.7s-5.9-3.6-5.9-4.9s4-8.6,5.2-9.7
		c1.1-1.1,2.9-4.8-5.5-6.1c0,0-4.6,1.3-5.9,0.1c-1.2-1.2-2.4-5.4-3.4-5.4S231.5,194.8,229.3,199.2z"/>
</g>
<g>
	<path class="st86" d="M195.5,125.2l-4.3-3.2l-8.3,0.7l-10.5,5.7l4.3,7.8c0,0-13.2,24.2-16,25.4c0,0,7.7-2.5,10-6.2s3.5-6.3,6-6.3
		s4.7,1.5,4.7,1.5s-7.2,5.7-6,8.9s12.5,16.7,11.5,21.2c0,0,8-8,13-8.7s5-7,5-8s0-11.4,0-11.4h8c0,0,5.3,8.5,11.4,8.5
		s12.7-0.8,12.7-0.8s-0.2-8.2-3.3-11.4s-7.5-7.3-13.6-7.3c0,0-4.7-6.7,2.4-6.7c0,0-3.4-4.6-5-6.2s-6.3-4.5-6.3-4.5l-4.3,1.5l-3.3-3
		C203.4,122.7,196.5,122.4,195.5,125.2z"/>
</g>
<g>
	<path class="st87" d="M226.2,73.8h-6l-4.5-4.5L212,70l-2.6-3.1c-1.3-1.6-3.7-1.8-5.3-0.4l0,0c-2.2,2-5.2,2.7-8,1.9l-1.5-0.4
		c-0.8-0.2-1.7-0.2-2.5,0.1l-4.6,1.7l-1.8,2l-6.3-0.2l-25.2,9.2l-11.9,6.7h-5.8c0,0,0.3,4.7,1.7,4.7c1.3,0-5.4,3-10.5,2.3
		c0,0,13.2,3.5,16,2.7l3.2,1.7c2.1,1.1,4.4,1.5,6.7,1.2l6.3-0.9c0,0,2.7-1.4,4.4-4.6c1.3-2.4,3.4-4.3,5.9-5.1l9-3
		c2.7-0.9,5.7-0.9,8.4-0.1l1.3,0.4l5.3,4.5c1.2,1,2.7,1.6,4.3,1.7l2.9,0.2l4.8,2.5l-2.3-4.3l1.3-4.7l-3.3-2.3l0,0
		c0.7-1,2.2-1.3,3.2-0.6l0.1,0.1l4.2-0.9c1.1-0.2,1.9-1.1,2.1-2.2l0,0l4.2,0.5C215.7,81,225.4,78.5,226.2,73.8z"/>
</g>
<g>
	<path class="st88" d="M235.6,70.7l-1.5,1.4c-0.3,0.3-0.7,0.3-1.1,0.2l-0.3-0.1c-1.1-0.5-2.4-0.3-3.3,0.5l-5.1,4.1
		c-0.2,0.2-0.4,0.5-0.4,0.8v2.7c0,0.3,0.2,0.6,0.4,0.8l0.7,0.5c0.6,0.4,0.6,1.2,0.1,1.6l-11.6,9.6c-0.1,0-0.1,0.1-0.2,0.2l-1.7,2.2
		c-0.7,0.9,0.5,2.1,1.4,1.4l9-6.7c0.7-0.5,1.7,0.1,1.6,1l-0.1,0.6c-0.1,0.4,0.1,0.7,0.4,0.9l3.5,2.9c0.2,0.2,0.3,0.4,0.4,0.7
		l0.2,3.2c0,0.7,0.8,1.1,1.4,0.8l7.3-3.6c0,0,0.1,0,0.1-0.1l9.6-6.3c0,0,0,0,0.1,0l3.9-2.9c1.4-1,3.1-1.6,4.8-1.6h3
		c0.3,0,0.6,0.1,0.8,0.4l3.1,4c0.1,0.2,0.4,0.3,0.6,0.4L267,91c0.5,0.1,0.8,0.5,0.8,1l0,0c0,1.1,1.6,1.4,1.9,0.3l2-6.5
		c0.1-0.2,0.1-0.5,0-0.7l-6-14.7c0-0.1-0.1-0.2-0.2-0.3l-5.7-5.7c-0.3-0.3-0.8-0.4-1.1-0.2l-2.9,1.4c-0.1,0.1-0.2,0.1-0.4,0.1
		l-6.9,0.5c-0.3,0-0.5-0.1-0.8-0.3c-1-1-4.2-3.9-5.7-3.9s-4.2,2.8-4.9,3.7c-0.1,0.1-0.3,0.3-0.5,0.3c-0.6,0.1-1.8,0.7-0.8,3.5
		C236,70,235.9,70.5,235.6,70.7z"/>
</g>
<g>
	<path class="st89" d="M306.9,79.5c0,0-12,5.7-14.2,3.5c-1.5-1.5-4.5-2.7-6-3.2c-0.7-0.2-1.4-0.2-2.1,0c-1.5,0.5-4.1,1.4-4.1,2.5
		v2.6c0,1.7,1,3.2,2.5,3.9l3.1,1.5c0,0,0.8,3.2-0.7,8.3c-1.5,5.2-3.8,9.2-3.8,9.2l-9.7-7.2c0,0-8.2-1.8-6-11.5s-4.7-12.5-4.7-12.5
		l0.7-4.5l3.8-1.8l0.8-3.7l6.7-4.5l2.5-3.8l4.6,1.1c2.2,0.5,3.8,2.5,3.8,4.8v3.3l10.9,4.2l4.3,3.7L306.9,79.5z"/>
</g>
<g>
	<path class="st80" d="M299.8,141.8l-7.6-8.2l-5.6,2.1L284,136l-6,3.3l-5.3-1.5l-2.3,4.8H267l-5.9,1.6l-4.7,0.8l-4.5,6.2h-3.5
		l-7.5,6.3h-5.5l12.7,10.1l10.7-7.6l6.8,1.6l3.6,5.9l-1.6,5.4v8.2l5.9,3.8l4.9,2.6l7.6,1.3l4.3-8.5L286,174l-0.2-19.3l4.6-4.3
		C290.4,150.4,296,140,299.8,141.8z"/>
</g>
<g>
	<path class="st90" d="M320.3,171l-5.6-5.9l-2-2.3c-0.7-0.9-1.9-1.4-3-1.4h-7.6l0,0c-3.4-2.9-8.3-3.2-12.1-0.8l-2.4,1.5l-11.2,7.3
		l10.2,11.3l-5.8,9.4c-0.4,0.7-1.1,1.2-1.9,1.5l-1.6,0.5c-1.3,0.4-2.4,1.5-2.8,2.8l-1.3,3.7l-5.6,9.1l12.5,0.7l8.5,2.5l8.7-2.3
		l7-0.8c0.8-0.1,1.7,0.1,2.4,0.5l6.3,3.8c1.7,1,2.6,2.9,2.5,4.8l0,0c-0.2,2.3,0.8,4.5,2.6,5.8l3.7,2.9l-1.5,5.8l1.5,2.8l2.3,6.4
		l3,1.2l2.8,4.2l4,1.9l0,0c0-2.6,1.2-5.1,3.2-6.7l2.4-2l2.1-7.5c0.7-2.6,0.3-5.3-1.3-7.5l-1.7-2.3l-1.6-4.3l-4.5-5.1l5.6,0.5l5.9,4
		l0,0c-0.4,1.5,0.7,2.9,2.3,2.9l11.3-0.4l-1.2-2.2c-1.3-2.4-3.4-4.3-5.9-5.4l0,0v-9c0-0.7-0.3-1.4-0.8-1.8l-4.2-4.2l-1.5-5.3
		c-0.1-0.4-0.4-0.8-0.8-1l0,0c-1.3-0.7-2.4-1.9-2.9-3.2l-1.7-4l1.8-2.4l-0.3-3.4l-2.3-0.3l-7.3-10.4l-2.7-3.9
		c-1-1.4-2.5-2.4-4.2-2.8l-0.3-0.1l0,0c-1.6,1-2.5,2.7-2.6,4.5L320.3,171z"/>
</g>
<g>
	<path class="st0" d="M287.9,376.7l7.7,13l2,4.2l9.4,15.8l0.7,4.2l-1.9,8.8h5.7l3.5-2.3l1.6,2.3l29.4-1l-1.8-7.9l-4.2-6.1
		c0,0-8-4.5-10.2-4.5s-5,0.6-5,0.6l-20-30.7l-4.2-8.7c-0.7-1.4-2-2.2-3.6-2.2l0,0h-5.5c-2.4,0-4.7-1.3-5.9-3.4
		c-2.8-5-7.6-15.3-10.3-30.8c-3.9-22.5-11.4-72.8-9.5-80.2l-4.5,0.8c0,0,3.4,44.9,5.1,59.8s6.1,41.8,8.4,48.2
		C277.3,363,282.7,379.3,287.9,376.7z"/>
</g>
<g>
	<g>
		<path class="st0" d="M302,392.4L302,392.4L302,392.4c0.4-0.1,0.3,0,0.4,0.2c0.1-0.1,0.2-0.2,0.3-0.2c0,0.4,0.1,0.1,0.4,0.1
			c0,0-0.1-0.1,0-0.2l0.3,0.2c0.2-0.2,0.3-0.4,0.5-0.5c0.4-0.3,0.9-0.6,1.3-0.9c0-0.1,0-0.2,0.1-0.2c0.2-0.1,0.3-0.1,0.3-0.1
			l0.1-0.1l-0.1,0.1l0.1,0.1c0-0.1,0.1-0.1,0.1-0.2l-0.1-0.2l0.1-0.1h-0.1l-0.1,0.1c-0.1,0.1-0.1,0.1-0.2,0.1s0-0.1,0-0.2l-0.2,0.1
			c-0.3,0.2,0,0.4-0.4,0.4v-0.1c-0.1,0-0.2-0.1-0.4,0c0.3-0.3-0.4,0,0-0.4c0-0.4-0.6-0.4-0.3-1.1c-0.4,0.2-1,0.7-1.4,0.9
			c0-0.1,0.1-0.1,0.1-0.2l-0.2,0.1c0,0,0.1,0.1,0,0.2c-0.2,0-0.2,0.3-0.4,0.4h-0.3l-0.1,0.1C301.9,391.5,301.9,392,302,392.4
			L302,392.4z"/>
	</g>
	<g>
		<path class="st0" d="M303.8,382.8l-0.4,0.3c-2.9-1.7-3.9-6.2-6.5-9.1l1.5-1c-1.5-0.1-2.7-0.7-4.3-0.7v0.5c-1,0.3-2,0-2.2-0.5
			l0.4-0.2c0.7,0.4,0.1-0.1,1.3-0.7h0.3l0.1-0.2h-0.3c0.2-0.2,0.5-0.4,0.6-0.3l-0.1-0.2c0.8-1.1,1.6-1.7,2.8-2.5
			c-0.2,0-1.2,1-1.1,0.3l0.4-0.2l-0.9,0.1l0.4-0.5c-0.3,0.1-0.6,0.2-0.6-0.1l-0.8,0.5c-0.2-0.8-1.6-0.9-1.5-1.9
			c-0.8,0.4-0.1-0.6-1-0.5l-0.7,0.7c-0.8,1.2,0.4,1.6,0.5,2.5l-0.4,0.3c-0.2,0-0.6,0.2-0.5-0.2l-0.8,0.5c-2.4,2.2,1.4,0.6,1.1,1.1
			c-0.4,1-1.8,0.9-1.5,1.1c-1.4,0.3-1.5,1.8-2.2,2.7c-1.3,1.9,0.6,2.5,1.2,3.3c2.8-0.1,2.3,3,3.3,4.2c0.2,0.7,3.7-0.6,1.7,1.6
			l0.4,1.4l-0.4,0.3c0.7,1.1,2.6,1.5,3.7,2.2c0.4,0.3,1.6-0.4,0.6,0.7c-0.1,1.4,2.3,1.1,3.1,1.8c0.4-0.3,0.8-0.5,0.9-0.8
			c-0.8,0-0.3-1.3,0.7-2.1v0.2l0.6-0.9l-0.5,0.1c0.2-0.2,0.4-0.4,0.5-0.6c0.1-0.6,0.8-1.6,1.1-2.4
			C303.8,383.8,303.6,383.6,303.8,382.8z"/>
	</g>
</g>
<g class="st91">
	<path class="st92" d="M176,269.3c0,0-8.6,33.4-8.6,38.6S176,274.1,176,269.3z"/>
</g>
<g class="st91">
	<path class="st92" d="M180.3,264.5l16.2,18.6C196.5,283.1,187.7,269.5,180.3,264.5z"/>
</g>
<g class="st91">
	<path class="st92" d="M228,203.7L207.8,232C207.8,232,223.7,206.2,228,203.7z"/>
</g>
<g class="st91">
	<path class="st92" d="M230.8,204.5c0,0,12.2,12.1,13.5,17.4C244.3,221.9,232.9,206.2,230.8,204.5z"/>
</g>
<g class="st91">
	<path class="st92" d="M201.5,206.9c0,0,17.1-4,24.3-3.3C225.8,203.7,207,206,201.5,206.9z"/>
</g>
<g class="st91">
	<path class="st92" d="M194.8,129.6c0,0-0.9,25.3-5.8,40C189,169.5,196.4,152.3,194.8,129.6z"/>
</g>
<g class="st91">
	<path class="st92" d="M341.2,291.7c0,0-13.6,12.7-21.2,15C312.4,309.1,334.7,304.2,341.2,291.7z"/>
</g>
<g class="st91">
	<path class="st92" d="M346,288.5c0,0,12.3,20.2,10.5,40.3C356.5,328.8,360.9,311.4,346,288.5z"/>
</g>
<g class="st91">
	<path class="st92" d="M349.9,286.8c0,0,15.9,2.1,22.1,11.6C371.9,298.4,361.3,289.2,349.9,286.8z"/>
</g>
<g class="st91">
	<path class="st92" d="M284,170.7c0,0,22-1.6,31.1,5.7C315.1,176.4,304.6,167.3,284,170.7z"/>
</g>
<g class="st91">
	<path class="st92" d="M315.1,181.5c0,0-23.4,15.2-35.4,20.7C279.7,202.1,302.3,192.7,315.1,181.5z"/>
</g>
<g class="st91">
	<path class="st92" d="M319.6,177.8c0,0,10.4,17.8,10.4,52.9C330,230.7,334,199.1,319.6,177.8z"/>
</g>
<g class="st91">
	<path class="st92" d="M322.5,175.1c0,0,12.9,8.7,15.5,11.8C338,186.9,327.2,176.1,322.5,175.1z"/>
</g>
<g class="st91">
	<path class="st92" d="M268.9,145l7.5,22.2C276.4,167.2,272.6,150.2,268.9,145z"/>
</g>
<g class="st91">
	<path class="st92" d="M267,149.1c0,0-14.6,8.1-18.7,12.3C248.3,161.4,259.2,150.7,267,149.1z"/>
</g>
<g class="st91">
	<path class="st92" d="M274.2,145.7c0,0,10-1.5,14.1,0C288.3,145.7,281.5,142.4,274.2,145.7z"/>
</g>
<g class="st91">
	<path class="st92" d="M242.5,71.8l-10,22.9C232.5,94.7,237.3,77.6,242.5,71.8z"/>
</g>
<g class="st91">
	<path class="st92" d="M245.9,71.8c0,0,5.1-1.9,14.5,9.3C260.4,81.1,254,74.4,245.9,71.8z"/>
</g>
<g class="st91">
	<path class="st92" d="M186,75.5c0,0-22.7,5-31.5,15.8C154.5,91.3,170.6,79.6,186,75.5z"/>
</g>
<g class="st91">
	<path class="st92" d="M189,74.8c0,0,5.3,2.9,6,8.4C195,83.2,195,76.4,189,74.8z"/>
</g>
<g class="st91">
	<path class="st92" d="M192,72.9c0,0,6.4-3.9,20.5,0.6C212.5,73.5,201.1,70.7,192,72.9z"/>
</g>
<g class="st91">
	<path class="st92" d="M237.5,74.4c0,0-5.8,0.1-11.3,3.3C226.2,77.7,231.4,73.7,237.5,74.4z"/>
</g>
<g class="st91">
	<path class="st92" d="M265.7,72.9c0,0,9.3,8.2,12.9,25.4C278.6,98.3,276.6,77.7,265.7,72.9z"/>
</g>
<g class="st91">
	<path class="st92" d="M269.5,71.3c0,0,22.9,4.4,24.4,5.8L269.5,71.3z"/>
</g>
<g class="st91">
	<path class="st92" d="M341.2,119.2c0,0,2.2,16.4-0.7,23.4C340.5,142.6,345.5,133.1,341.2,119.2z"/>
</g>
<g class="st91">
	<path class="st92" d="M343,118.6c0,0,10.6,3.7,24.8,39.4C367.8,158,360.4,129.9,343,118.6z"/>
</g>
<g class="st91">
	<path class="st92" d="M348.7,118.6c0,0,13.4,8,16.4,10.9C365.1,129.6,351.1,121.1,348.7,118.6z"/>
</g>
<g class="st91">
	<path class="st92" d="M239.9,284.4l4.7,25C244.6,309.3,243.3,292.6,239.9,284.4z"/>
</g>
<g class="st91">
	<path class="st92" d="M243.9,280.8l15.7,8C259.6,288.9,249.7,286.6,243.9,280.8z"/>
</g>
<g class="st93">
	<path class="st94" d="M330,405c0,0,5.4,3.1,6.8,4.6s6.2,4.3-3,1.3c-1.8-0.6-1.3,1.8-2,2.5s-6.2,6.9-3.8,7.4c2.4,0.5,13.2,1,18,1
		l-1.8-7.9l-4.2-6.1C340,407.7,332,405,330,405z"/>
</g>
<g class="st93">
	<path class="st94" d="M284.3,361.4c0,0,2,4.7,7.5,4.7s21.3,35.6,21.3,35.6l3.2,12.7c0,0,1-8.7,2.8-10.5s5.7-0.1,5.7-0.1l-20-30.7
		l-4.2-8.7C300.6,364.3,294.1,368.1,284.3,361.4z"/>
</g>
<g class="st93">
	<path class="st94" d="M303.1,381.2c0,0,0.5,7.3,1.8,9.2c1.3,1.9,4.2,9,4.2,9l-4.5-11.6l-0.2-4.4L303.1,381.2z"/>
</g>
<g>
	<path class="st95" d="M281.2,224.9l-3.4,2.7c-0.4,0.3-1,0.4-1.5,0.2l-3.8-1.4c-0.2-0.1-0.3-0.1-0.5-0.1h-15.7
		c-0.8,0-1.5,0.7-1.5,1.5v0.6c0,0.5-0.2,0.9-0.6,1.2l-7.6,6c-0.2,0.2-0.4,0.4-0.5,0.7l-4.6,13.1c-0.3,0.9,0.3,1.8,1.2,2l14.1,2.1
		c0.3,0.1,0.7,0,1-0.2l8.6-5.2c0.4-0.2,0.8-0.3,1.3-0.1l2.1,0.7c0.2,0.1,0.4,0.1,0.6,0.1l4.6-0.5c0.6-0.1,1.1,0.2,1.4,0.6l2.4,3.5
		c0.1,0.2,0.2,0.4,0.2,0.6l1.2,6.2c0.1,0.4,0.3,0.7,0.6,1l10,6.8c0.1,0.1,0.2,0.1,0.4,0.2c0.9,0.3,5,1.6,7.6,3.3
		c0.8,0.5,1.8,0.2,2.2-0.7c0.8-1.9,2-4.8,2.5-6.2c0.6-1.7,3.1-9-0.2-14.5c-0.8-1.3,0.7-2.8,2.1-2c0.5,0.3,1,0.6,1.4,1.1
		c0,0,1.9,2.2,4.6,3.9c1.6,1,3.2-1.4,1.6-2.5c-0.7-0.5-1.4-1-1.7-1.3c-1.5-1.5,0.6-6.6-7.8-10.5c-0.4-0.2-0.7-0.5-0.8-0.9l-2.2-7.5
		c-0.1-0.2-0.2-0.4-0.3-0.6l-6.4-7c-0.2-0.2-0.5-0.4-0.8-0.5c-2.1-0.5-10.4-2-11.4,3.1C281.6,224.3,281.4,224.6,281.2,224.9z"/>
</g>
<g class="st91">
	<path class="st92" d="M278.3,232c0,0,15.1,19.4,18.6,31.6C296.9,263.6,290.9,244.5,278.3,232z"/>
</g>
<g class="st91">
	<path class="st92" d="M250.1,245.4c0,0,10.1-15.9,23.4-13.4C273.6,232,262.3,231.2,250.1,245.4z"/>
</g>
<g class="st91">
	<path class="st92" d="M282.9,229.1c0,0,9.7-2.5,17.6,6.6C300.5,235.7,295.9,225.8,282.9,229.1z"/>
</g>
</svg>
