<?xml version="1.0" encoding="utf-8"?>
<!-- Generator: Adobe Illustrator 22.0.1, SVG Export Plug-In . SVG Version: 6.00 Build 0)  -->
<svg version="1.1" id="图层_1" xmlns="http://www.w3.org/2000/svg" xmlns:xlink="http://www.w3.org/1999/xlink" x="0px" y="0px"
	 viewBox="0 0 600 600" style="enable-background:new 0 0 600 600;" xml:space="preserve">
<style type="text/css">
	.st0{fill:#6E6865;}
	.st1{fill:#534546;}
	.st2{fill:#516645;}
	.st3{fill:#716364;}
	.st4{fill:#2C3B28;}
	.st5{fill:#2D3B29;}
	.st6{fill:#647762;}
	.st7{fill:#131516;}
	.st8{fill:#746867;}
	.st9{fill:#506558;}
	.st10{fill:#445743;}
	.st11{fill:#475E4C;}
	.st12{fill:#586B51;}
	.st13{fill:#354431;}
	.st14{fill:#44503B;}
	.st15{fill:#786265;}
	.st16{fill:#726B64;}
	.st17{fill:#778768;}
	.st18{fill:#526554;}
	.st19{fill:#667858;}
	.st20{fill:#66785A;}
	.st21{fill:#736466;}
	.st22{fill:#716862;}
	.st23{fill:#657859;}
	.st24{fill:#384F3B;}
	.st25{fill:#657857;}
	.st26{fill:#8F9C87;}
	.st27{fill:#677759;}
	.st28{fill:#9CA893;}
	.st29{fill:#9EA698;}
	.st30{fill:#6C8C62;}
	.st31{fill:#667758;}
	.st32{fill:#6F5F62;}
	.st33{fill:#536945;}
	.st34{fill:#4D5B47;}
	.st35{fill:#6E5A58;}
	.st36{fill:#755B5F;}
	.st37{fill:#785B60;}
	.st38{fill:#736364;}
	.st39{fill:#524645;}
	.st40{fill:#55694A;}
	.st41{clip-path:url(#SVGID_2_);fill:#AAEAFF;}
	.st42{clip-path:url(#SVGID_2_);fill:#A9E9FE;}
	.st43{clip-path:url(#SVGID_2_);fill:#A8E8FD;}
	.st44{clip-path:url(#SVGID_2_);fill:#A7E7FC;}
	.st45{clip-path:url(#SVGID_2_);fill:#A7E6FC;}
	.st46{clip-path:url(#SVGID_2_);fill:#A6E5FB;}
	.st47{clip-path:url(#SVGID_2_);fill:#A5E4FA;}
	.st48{clip-path:url(#SVGID_2_);fill:#A4E3F9;}
	.st49{clip-path:url(#SVGID_2_);fill:#A3E2F8;}
	.st50{clip-path:url(#SVGID_2_);fill:#A2E1F7;}
	.st51{clip-path:url(#SVGID_2_);fill:#A1E0F6;}
	.st52{clip-path:url(#SVGID_2_);fill:#A1DFF6;}
	.st53{clip-path:url(#SVGID_2_);fill:#A0DEF5;}
	.st54{clip-path:url(#SVGID_2_);fill:#9FDDF4;}
	.st55{clip-path:url(#SVGID_2_);fill:#9EDCF3;}
	.st56{clip-path:url(#SVGID_2_);fill:#9DDBF2;}
	.st57{clip-path:url(#SVGID_2_);fill:#9CDAF1;}
	.st58{clip-path:url(#SVGID_2_);fill:#9BD9F0;}
	.st59{clip-path:url(#SVGID_2_);fill:#9BD8F0;}
	.st60{clip-path:url(#SVGID_2_);fill:#9AD7EF;}
	.st61{clip-path:url(#SVGID_2_);fill:#99D6EE;}
	.st62{clip-path:url(#SVGID_2_);fill:#98D5ED;}
	.st63{clip-path:url(#SVGID_2_);fill:#97D4EC;}
	.st64{clip-path:url(#SVGID_2_);fill:#96D3EB;}
	.st65{clip-path:url(#SVGID_2_);fill:#95D2EA;}
	.st66{clip-path:url(#SVGID_2_);fill:#95D1EA;}
	.st67{clip-path:url(#SVGID_2_);fill:#94D0E9;}
	.st68{clip-path:url(#SVGID_2_);fill:#93CFE8;}
	.st69{clip-path:url(#SVGID_2_);fill:#92CEE7;}
	.st70{clip-path:url(#SVGID_2_);fill:#91CDE6;}
	.st71{clip-path:url(#SVGID_2_);fill:#90CCE5;}
	.st72{clip-path:url(#SVGID_2_);fill:#8FCBE4;}
	.st73{clip-path:url(#SVGID_2_);fill:#8FCAE4;}
	.st74{clip-path:url(#SVGID_2_);fill:#8EC9E3;}
	.st75{clip-path:url(#SVGID_2_);fill:#8DC8E2;}
	.st76{clip-path:url(#SVGID_2_);fill:#8CC7E1;}
	.st77{clip-path:url(#SVGID_2_);fill:#8BC6E0;}
	.st78{clip-path:url(#SVGID_2_);fill:#8AC5DF;}
	.st79{clip-path:url(#SVGID_2_);fill:#89C4DE;}
	.st80{clip-path:url(#SVGID_2_);fill:#89C3DE;}
	.st81{clip-path:url(#SVGID_2_);fill:#88C2DD;}
	.st82{clip-path:url(#SVGID_2_);fill:#87C1DC;}
	.st83{clip-path:url(#SVGID_2_);fill:#86C0DB;}
	.st84{clip-path:url(#SVGID_2_);fill:#85BFDA;}
	.st85{clip-path:url(#SVGID_2_);fill:#84BED9;}
	.st86{clip-path:url(#SVGID_2_);fill:#83BDD8;}
	.st87{clip-path:url(#SVGID_2_);fill:#83BCD8;}
	.st88{clip-path:url(#SVGID_2_);fill:#82BBD7;}
	.st89{clip-path:url(#SVGID_2_);fill:#81BAD6;}
	.st90{clip-path:url(#SVGID_2_);fill:#80B9D5;}
	.st91{clip-path:url(#SVGID_2_);fill:#7FB8D4;}
	.st92{clip-path:url(#SVGID_2_);fill:#7EB7D3;}
	.st93{clip-path:url(#SVGID_2_);fill:#7DB6D2;}
	.st94{clip-path:url(#SVGID_2_);fill:#7DB5D2;}
	.st95{clip-path:url(#SVGID_2_);fill:#7CB4D1;}
	.st96{clip-path:url(#SVGID_2_);fill:#7BB3D0;}
	.st97{clip-path:url(#SVGID_2_);fill:#7AB2CF;}
	.st98{clip-path:url(#SVGID_2_);fill:#79B0CE;}
	.st99{clip-path:url(#SVGID_2_);fill:#78AFCD;}
	.st100{clip-path:url(#SVGID_2_);fill:#77AECC;}
	.st101{clip-path:url(#SVGID_2_);fill:#77ADCC;}
	.st102{clip-path:url(#SVGID_2_);fill:#76ACCB;}
	.st103{clip-path:url(#SVGID_2_);fill:#75ABCA;}
	.st104{clip-path:url(#SVGID_2_);fill:#74AAC9;}
	.st105{clip-path:url(#SVGID_2_);fill:#73A9C8;}
	.st106{clip-path:url(#SVGID_2_);fill:#72A8C7;}
	.st107{clip-path:url(#SVGID_2_);fill:#71A7C6;}
	.st108{clip-path:url(#SVGID_2_);fill:#71A6C6;}
	.st109{clip-path:url(#SVGID_2_);fill:#70A5C5;}
	.st110{clip-path:url(#SVGID_2_);fill:#6FA4C4;}
	.st111{clip-path:url(#SVGID_2_);fill:#6EA3C3;}
	.st112{clip-path:url(#SVGID_2_);fill:#6DA2C2;}
	.st113{clip-path:url(#SVGID_2_);fill:#6CA1C1;}
	.st114{clip-path:url(#SVGID_2_);fill:#6BA0C0;}
	.st115{clip-path:url(#SVGID_2_);fill:#6B9FC0;}
	.st116{clip-path:url(#SVGID_2_);fill:#6A9EBF;}
	.st117{clip-path:url(#SVGID_2_);fill:#699DBE;}
	.st118{clip-path:url(#SVGID_2_);fill:#689CBD;}
	.st119{clip-path:url(#SVGID_2_);fill:#679BBC;}
	.st120{clip-path:url(#SVGID_2_);fill:#669ABB;}
	.st121{clip-path:url(#SVGID_2_);fill:#6599BA;}
	.st122{clip-path:url(#SVGID_2_);fill:#6598BA;}
	.st123{clip-path:url(#SVGID_2_);fill:#6497B9;}
	.st124{clip-path:url(#SVGID_2_);fill:#6396B8;}
	.st125{clip-path:url(#SVGID_2_);fill:#6295B7;}
	.st126{clip-path:url(#SVGID_2_);fill:#6194B6;}
	.st127{clip-path:url(#SVGID_2_);fill:#6093B5;}
	.st128{clip-path:url(#SVGID_2_);fill:#5F92B4;}
	.st129{clip-path:url(#SVGID_2_);fill:#5F91B4;}
	.st130{clip-path:url(#SVGID_2_);fill:#5E90B3;}
	.st131{clip-path:url(#SVGID_2_);fill:#5D8FB2;}
	.st132{clip-path:url(#SVGID_2_);fill:#5C8EB1;}
	.st133{clip-path:url(#SVGID_2_);fill:#5B8DB0;}
	.st134{clip-path:url(#SVGID_2_);fill:#5A8CAF;}
	.st135{clip-path:url(#SVGID_2_);fill:#598BAE;}
	.st136{clip-path:url(#SVGID_2_);fill:#598AAE;}
	.st137{clip-path:url(#SVGID_2_);fill:#5889AD;}
	.st138{clip-path:url(#SVGID_2_);fill:#5788AC;}
	.st139{clip-path:url(#SVGID_2_);fill:#5687AB;}
	.st140{clip-path:url(#SVGID_2_);fill:#5586AA;}
	.st141{clip-path:url(#SVGID_2_);fill:#5485A9;}
	.st142{clip-path:url(#SVGID_2_);fill:#5384A8;}
	.st143{clip-path:url(#SVGID_2_);fill:#5383A8;}
	.st144{clip-path:url(#SVGID_2_);fill:#5282A7;}
	.st145{clip-path:url(#SVGID_2_);fill:#5181A6;}
	.st146{clip-path:url(#SVGID_2_);fill:#5080A5;}
	.st147{clip-path:url(#SVGID_2_);fill:#4F7FA4;}
	.st148{clip-path:url(#SVGID_2_);fill:#4E7EA3;}
	.st149{clip-path:url(#SVGID_2_);fill:#4D7DA2;}
	.st150{clip-path:url(#SVGID_2_);fill:#4D7CA2;}
	.st151{clip-path:url(#SVGID_2_);fill:#4C7BA1;}
	.st152{clip-path:url(#SVGID_2_);fill:#4B7AA0;}
	.st153{clip-path:url(#SVGID_2_);fill:#4A799F;}
	.st154{fill:#EECCBC;}
	.st155{fill:#6F7765;}
	.st156{fill:#9CAB86;}
	.st157{fill:#657858;}
	.st158{fill:#3C472F;}
	.st159{fill:#45553C;}
</style>
<g>
	<path class="st0" d="M181.3,235.3c-0.9-1.5-2.5-18.4-4.1-19.1c0,0.3,1.5,7.6,1.5,7.9c0,2.4,1,6.5,1.3,11.3c0,0,0,0,0.1,0
		c0,0,0,0,0,0c0,0,0,0,0,0c-1.8,0.7-9.4-1-11.3-0.1c1.2,0.2,7.9,1.4,9.1,1.6c0.1-0.1,0.2-0.2,0.4-0.2c-0.1,0.1-0.3,0.1-0.4,0.2
		c0.9,0.2,1.9,0.4,2.8,0.6c0.7,0.2,8.4,7.9,8.9,6.8C190,243.1,182.1,235.8,181.3,235.3z"/>
</g>
<g>
	<path class="st1" d="M267,98.2L267,98.2c0-2.2,1.4-6.5,0.8-5.9c-0.6,0.6-1.2,4.8-1.2,4.8v0l-5.8-20.2l8.6,34.2l1.3-0.1L267,98.2z"
		/>
</g>
<g>
	<path class="st2" d="M511.3,190.9c3.5-3.1,1.1-10.8-1.1-14.8c-1.9-3.4-5.9-6.1-14.3-3.9c-3.3,0.8-6,2.4-6.8,6
		c-0.3,0.9-0.6,1.7-0.9,2.6v0c-1.6,3-1.2,7.5,0.1,10.9c0.9,2.4,3,4.2,5.6,4.7C502.7,198,507,194.7,511.3,190.9z"/>
</g>
<g>
	<path class="st3" d="M431.8,214.1c-2.4,1.4-8.7,3.9-10.5,4.4c0.3-0.3,16.3-13.2,16.6-14c-0.3-0.4-15.3,13.5-13.7,7.5
		c-0.5,0.4,1.5-2.3,4.3-5.2c1.5-2,8.1-6.8,8.8-8.3c-0.6-0.8-12.7,9.8-13,11.2c-1.5,2-2.6,5.2-4.1,7.2c0,0-0.4,0.6-0.8,1.5
		c-1.5,2.7-3.9,4.8-6.7,5.9c-1,0.4-1.9,0.8-2,0.9c-4.1,1.7-6.7,5.3-11,6.7c-3.4,1.4-12.9,5.3-16.2,7.2c0.5,1.9-0.5,0.6,0,2.5
		c1.7,0,10-4.5,11.7-5.4c9.1-2.2,27.6-14.4,27.3-16.4c0,0,0,0,0-0.1c1.7-0.5,12.6-6.9,14.6-8.5C436.9,210.7,432.2,214.7,431.8,214.1
		z"/>
</g>
<g>
	<path class="st4" d="M402.2,223.3c2.2-2,0.7-6.9-0.7-9.6c-1.2-2.2-3.8-3.9-9.2-2.5c-2.1,0.5-3.8,1.5-4.4,3.8
		c-0.2,0.6-0.4,1.1-0.6,1.7v0c-1.1,1.9-0.8,4.8,0,7c0.6,1.6,2,2.7,3.6,3C396.6,227.9,399.4,225.8,402.2,223.3z"/>
</g>
<g>
	<path class="st5" d="M496.1,217.9c2.7-2.4,0.8-8.5-0.9-11.7c-1.5-2.7-4.6-4.8-11.3-3.1c-2.6,0.6-4.7,1.9-5.4,4.7
		c-0.2,0.7-0.5,1.4-0.7,2v0c-1.3,2.3-1,5.9,0,8.6c0.7,1.9,2.4,3.3,4.4,3.7C489.3,223.6,492.6,221,496.1,217.9z"/>
</g>
<g>
	<path class="st6" d="M336,239.2c3.6,3.1,13.2,1.9,18.4,0.5c4.4-1.2,7.9-4.1,5.7-11.1c-0.8-2.7-2.5-5-7-6c-1-0.3-2.1-0.7-3.1-1l0,0
		c-3.6-1.6-9.1-1.7-13.4-1c-3,0.5-5.4,2-6.2,4C327.7,231.7,331.5,235.4,336,239.2z"/>
</g>
<g>
	<path class="st6" d="M483.4,177.9c-4.2-0.3-10.9,5.6-14.2,9.3c-2.7,3.1-3.9,7.1,1.3,10.9c2,1.5,4.4,2.2,8.3,0.6
		c1-0.3,1.9-0.6,2.9-0.9l0,0c3.5-0.7,7.8-3.6,10.6-6.3c2-2,3.1-4.3,2.6-6.1C493.5,178.9,488.7,178.3,483.4,177.9z"/>
</g>
<g>
	<path class="st7" d="M461.7,194.5c-3.6-1.8-7.4-2.7-11.2-3.4c-3.7-0.7-12.9,1.5-17.6,10.7c-4.6,7.2,14.7,18,20.3,17.6
		c7.5-0.5,14.5-3.8,16.7-10c0,0,0.6-2.9,0.3-4.3C469.6,199.9,466.1,196.7,461.7,194.5z"/>
</g>
<g>
	<path class="st8" d="M399.4,199.3c-2,1.3-12.1,6.1-12.2,6.1c-0.3,0.1-7.5,2-7.8,2.1c1.9-1.6,4.3-3.5,5.8-5.7
		c1.2-1.7,4.3-4.7,7.7-8.6c-0.5-0.9-3.8,2.8-4.3,2c-2.2,4.7-6.4,7.5-9.9,11c-2.5,2.8-5,5.7-7.6,8.5l0,0c-2,1.8-3.9,3.6-5.9,5.4
		c0.7,1.1,1,2.4,2.6,2.4c0.3,0,0.5,0,0.8,0c1.5-1.2,2.7-2.7,3.9-4.2c0.1-0.3,0.2-0.6,0.2-0.9c0,0,0.1,0,0.1,0
		c0.4-0.6,0.8-1.2,1.2-1.8c0-0.2,2.2-2.3,3.2-4.2c2.3-2.3,3.6-1.8,6-2.6c0,0,0,0,0,0l0,0c1.1-0.6,14.9-7.9,16.2-8.8
		C399.5,199.9,399.5,199.6,399.4,199.3z"/>
</g>
<g>
	<path class="st8" d="M441.8,155.5c-2,1.3-12.1,6.1-12.2,6.1c-0.3,0.1-7.5,2-7.8,2.1c1.9-1.6,4.3-3.5,5.8-5.7
		c1.2-1.7,4.3-4.7,7.7-8.6c-0.5-0.9-3.8,2.8-4.3,2c-2.2,4.7-6.4,7.5-9.9,11c-2.5,2.8-5,5.7-7.6,8.5l0,0c-2,1.8-3.9,3.6-5.9,5.4
		c0.7,1.1,1,2.4,2.6,2.4c0.3,0,0.5,0,0.8,0c1.5-1.2,2.7-2.7,3.9-4.2c0.1-0.3,0.2-0.6,0.2-0.9c0,0,0.1,0,0.1,0
		c0.4-0.6,0.8-1.2,1.2-1.8c0-0.2,2.2-2.3,3.2-4.2c2.3-2.3,3.6-1.8,6-2.6c0,0,0,0,0,0l0,0c1.1-0.6,14.9-7.9,16.2-8.8
		C442,156,441.9,155.8,441.8,155.5z"/>
</g>
<g>
	<g>
		<path class="st9" d="M413.2,167c-2.6-1.9-5.4-3.7-8.4-4.9c-4.6-1.7-9.1-2.4-13.4,0.7c-1.3,1.4-2,1.4-4,3.8
			c-0.3,0.2-0.5,0.5-0.8,0.8c-0.1,0.1-0.2,0.2-0.3,0.3c-8.1,8.3-6.9,21.9,2.5,28.8c11.1,8.2,29.4,1.4,33-8
			C427.2,174.1,413.9,167.5,413.2,167z"/>
	</g>
</g>
<g>
	<path class="st10" d="M284.7,217.1c3.3,1.7,6.8,2.6,10.2,3.3c3.4,0.7,11.7-1.1,15.9-9.3c4-6.4-13.7-16.6-18.9-16.4
		c-6.9,0.3-13.2,3.2-15,8.8c0,0-0.4,2.6-0.2,3.9C277.3,212,280.6,215,284.7,217.1z"/>
</g>
<g>
	<path class="st10" d="M163.3,215.8c3.3,1.7,6.8,2.6,10.2,3.3c0.7,0.1,1.6,0.2,2.7,0.1c12-1.2,14.7-17.4,4-23
		c-3.6-1.9-7.5-2.8-9.7-2.7c-6.9,0.3-13.2,3.2-15,8.8c0,0-0.4,2.6-0.2,3.9C155.9,210.7,159.2,213.7,163.3,215.8z"/>
</g>
<g>
	<path class="st7" d="M275.6,102.4c-2.5-0.6-9.1-1.3-15.7,11.1c-3.4,5.3-1.1,12.7,5.7,17.9c2.9,2.1,9.8,6.4,22.7-1.9
		C293.5,124.3,298.2,108.3,275.6,102.4z"/>
</g>
<g>
	<path class="st11" d="M132.2,194.5c-2-0.5-7.3-1-12.5,8.8c-2.7,4.2-0.9,10.1,4.6,14.2c2.3,1.7,7.8,5.1,18-1.5
		C146.5,211.9,150.2,199.2,132.2,194.5z"/>
</g>
<g>
	<path class="st12" d="M402.2,132.3c-2.8-0.7-10.5-1.3-18.1,11.5c-3.9,5.5-1.3,13.2,6.6,18.6c3.4,2.2,11.3,6.6,26.1-2
		C422.9,154.9,428.3,138.4,402.2,132.3z"/>
</g>
<g>
	<path class="st10" d="M276.2,149.9c3.4,4.6,13.2,2.3,18.4,0c4.4-2,8.1-6.7,6.2-17.3c-0.7-4.2-2.3-7.6-6.7-8.9
		c-1-0.5-2.1-0.9-3.1-1.4l0,0c-3.5-2.3-9.1-2.2-13.4-1c-3.1,0.9-5.5,3.4-6.4,6.4C268.2,138.6,271.8,144.2,276.2,149.9z"/>
</g>
<g>
	<path class="st13" d="M437.2,186.7c-4-1.5-11.2,3.1-14.8,6.2c-3,2.6-4.6,6.6-0.2,12.1c1.7,2.2,4,3.6,7.9,2.9c1-0.1,1.9-0.2,2.9-0.2
		l0,0c3.5,0.2,7.9-1.8,11-4c2.2-1.6,3.5-3.8,3.3-5.9C446.7,190.5,442.3,188.5,437.2,186.7z"/>
</g>
<g>
	<path class="st14" d="M368.4,147.2c3.6,2,13.2,1.5,18.3,0.8c4.3-0.6,7.7-2.4,5.4-6.8c-0.9-1.7-2.7-3.2-7.1-3.9
		c-1-0.2-2.1-0.5-3.1-0.7l0,0c-3.6-1.1-9.2-1.3-13.4-1c-3,0.2-5.3,1.1-6,2.3C360,142.2,363.9,144.7,368.4,147.2z"/>
</g>
<g>
	<path class="st14" d="M433.9,213.8c-3.3,0.9-2,5.2-0.4,7.6c1.3,2,4.6,4,12.2,4.4c3,0.1,5.5-0.2,6.5-1.8c0.4-0.4,0.7-0.8,1.1-1.1v0
		c1.7-1.2,1.8-3.5,1-5.4c-0.6-1.4-2.3-2.6-4.5-3.3C442.2,211.6,438.1,212.6,433.9,213.8z"/>
</g>
<g>
	<path class="st14" d="M122.7,188.4c-3.7-2-11.6-2.7-16.7-1.9c-2.9,0.4-5.1,2.2-5.7,5.8c-0.8,4.4,1.2,8.7,4.8,11.4
		c8.1,6,18.5,6.1,21.4-1.2C128.4,197.9,127.3,190.9,122.7,188.4z"/>
</g>
<g>
	<path class="st1" d="M273.9,188.3c0.6-1.7,1.3-5.5,1.9-7.2c0.4-0.6,1.9-4.7,1.8-5.3c-0.2,0-0.4,0.5-0.6,0.5
		c-1.2,0.7-3.5,9.7-3.9,9.9c-1.4,3-1.1-4-1.1-4.1c0-0.1-0.2-5.4-0.2-5.4c-0.4-2.3,1.6-0.6,1-1.3c-0.5-0.3-1.1-0.5-1.6-0.8
		c0,0.2,0,0.5,0,0.7c0,0,0,0,0,0c0.2,4.8-0.6,9.6,0.3,14.3c0,0.4,0.1,0.9,0.3,1.3c0,0.8,0,1.6,0.1,2.5c1.4,6.2,2.4,12.4,2.2,18.7
		c0.8,0,1.5,0,2.3,0.1C275.5,204,273.5,196.7,273.9,188.3z"/>
</g>
<g>
	<path class="st15" d="M338,193c-1.4,0-5.8,7-6.9,9c-0.3,0.4-0.6,0.8-0.9,1.2c-6,9.8-12,19.6-18,29.3c0-0.2-0.1-0.4-0.3-0.5
		c0,0,0,0,0,0c0,0,0,0,0,0c-0.1-1.4-0.2-2.8-0.4-4.2c-0.4-3.2,0.5-6.9,0.6-7.8c0,0,0.4-2.4,0.7-3c0.1-0.7,1.7-2.9,1.5-3.4
		c-0.3-0.7-1.7,2.9-2.2,3c-0.2,0.9-0.5,1.8-0.7,2.6c-0.1,0.8-0.9,4-0.9,6.4c-0.6,3.3,0.4,6.7,0,10c-3.9,7.9-12.9,28-12.9,28
		c-0.6,1.7-4.3,13-5.8,13.8c-1.5-4.1-3-8.2-4.4-12.3c-1.2-2.1-3.6-18.5-2.8-20.6c-1.7-0.9-2.6,0.3-3.5,1.5c0.4,3.9,2.9,20,3.6,21.9
		c1.4,6.1,2.7,12.2,4.1,18.2c0,1.2,0,2.4,0,3.6c-0.8,2.6-0.8,16.9-0.7,20c1.5,0.6,5.1,2.2,5.2,0c0.2-2.7,0.7-25.4,2.5-30.6
		c0,0,0,0,0,0c0.1,0.1,13.6-37.1,14.8-37.7c1.7-4.1,6.1-13.2,12-21.8c1.6-5,5.7-9.3,8-13.9c1-2,6.4-3.5,7.2-5.5
		C329.2,206.3,332.3,198.6,338,193z"/>
</g>
<g>
	<path class="st16" d="M240,281.5c-0.3-1-8.2-8.1-12.3-10.5c-1,1.6,0,2.4,0.9,3.9c2.1,1.4,8,7,9.8,7.7
		C240,281.5,240.6,282.7,240,281.5z"/>
</g>
<g>
	<path class="st17" d="M159.7,190.9c1,1.4,1.5,4.8,1.6,7.6c0.1,2.6-0.6,5.2-2.2,7.3c-0.7,0.9-1.6,1.7-2.8,2.3
		c-4.3,2.1-8.7,3.4-13.6,2.3c-3-0.6-15.6-5.7-13.1-18c1.2-5.7,6.2-10.1,12-9.9c0,0,0.1,0,0.1,0C145.4,182.4,153.9,181.3,159.7,190.9
		z"/>
</g>
<g>
	<path class="st18" d="M229.7,261.6c2.2,4.3,2.1,9.3-0.5,13.4c-2.9,4.5-7.6,7.3-9.8,7.6c-10.1,1.7-18.1-1.5-20-5.3
		c-0.2-0.5-0.5-1.1-0.8-1.8c-3.7-8.4-1-18.4,6.8-23.3C211.8,248.3,221.6,245.7,229.7,261.6z"/>
</g>
<g>
	<path class="st19" d="M446.8,149.3c4.4-0.2,7.4,1.3,9.5,3.3c2.5,2.3,3.9,5.6,3.7,9c-0.1,1.6-0.6,3-2.1,4.2c-1.7,1.3-6,1.8-8,1.3
		c-4.9-1.3-8.2-4.8-10.8-8.6C436,154,440.6,149.3,446.8,149.3z"/>
</g>
<g>
	<path class="st20" d="M261.8,86.5c-4.4-0.2-8.1-3.7-8-7.7c0.1-5.5,3-8.3,8.2-8c3.2,0.2,7.5,3.8,7.4,6.3
		C269.4,83.6,266.8,86.7,261.8,86.5z"/>
</g>
<g>
	<path class="st21" d="M366.7,249.1c-0.9,0.6-1.8,1.2-2,1.3c-2.4,2.2-2.8,2-5.5,3.9c-1.5-0.2-6.9,3.5-8.2,4.1
		c-1.5,0.8-5.5,2.5-6.8,3.5c-3.2,2.6-5,2.3-7.3,6c0.2,1.4-0.5,2.9,0.7,4.2c1.5-1.2,2.6-2.7,3.6-4.2c4.8-3.2,9.7-6.3,14.5-9.5
		c3.4-2.3,20.5-12.2,23.9-14.5c-0.9,0-11.5,5-12.2,4.9C367.2,248.8,367,249,366.7,249.1z"/>
</g>
<g>
	<path class="st22" d="M275.9,312.6c-4.3-6.1-10.5-14.3-17.4-17.6c0.2-0.5,1.4,1.9,0.7,2c-1.2-0.7-2.4,0-3.6,0.1
		c0.3,0.5,2.1,2.2,2.7,2.6v0c5.1,4.6,10.7,8.6,14.6,14.4c1.1,0.3,2.1,0.6,3.2,0.9C276.6,314.2,276.4,313.3,275.9,312.6z"/>
</g>
<g>
	<path class="st23" d="M291.8,219.7c-18.8-21-30.4-7.8-35.8-3.9c-8.3,6-5.4,18.8-5.6,21.3c2.1,1.1,4.2,0.2,6.2,0.1
		c5-0.4,6.9,0.7,8.9,5.3c1.1,2.5,0.8,5.3,2.1,7.7C272.5,250.7,305,246.3,291.8,219.7z"/>
</g>
<g>
	<path class="st24" d="M392.8,217.6c-18-17.1-29-6.4-34.2-3.2c-7.9,4.9-7.7,12.8-5.3,17.3C364.7,247.1,405.4,239.2,392.8,217.6z"/>
</g>
<g>
	<path class="st25" d="M394.4,238.4c-15.8-17.7-25.6-6.6-30.1-3.3c-6.9,5.1-6.8,13.3-4.7,17.9C369.7,269,405.5,260.8,394.4,238.4z"
		/>
</g>
<g>
	<path class="st26" d="M362.4,197.7c-0.9-2.5-1.9-4.9-4.5-6.2c-0.5-0.4-0.9-0.7-1.4-1.1c-1.7-1.6-3.6-3.1-6-3.8
		c-1.5-0.4-3-0.4-4.6-0.1c-2.8,0-5.9-0.2-7.8,2.1c-1.2,1.5-2.1,3.3-3.1,5c-0.9,1.8-1.1,4-0.3,5.8c0.2,0.4,0.4,0.8,0.7,1.1
		c3.8,5.1,8.5,8.9,15,10c1.1-0.3,2.2-0.1,3.2,0c2-0.1,3.8-1,5.5-1.9C363,206.6,364.4,201.8,362.4,197.7z"/>
</g>
<g>
	<path class="st27" d="M480.4,218.4c-0.7-2.4-1.6-4.6-3.8-5.9c-0.4-0.3-0.8-0.7-1.2-1c-1.5-1.5-3-3-5-3.5c-1.3-0.4-2.5-0.3-3.8-0.1
		c-2.3,0-4.9-0.2-6.5,2c-1,1.4-1.8,3.1-2.5,4.7c-0.8,1.7-0.9,3.7-0.3,5.5c0.1,0.4,0.3,0.7,0.5,1.1c3.2,4.8,7.1,8.4,12.5,9.3
		c0.9-0.3,1.8-0.1,2.7,0c1.7-0.1,3.1-0.9,4.5-1.8C480.9,226.7,482.1,222.2,480.4,218.4z"/>
</g>
<g>
	<path class="st26" d="M149.4,221.8c-0.9-2.5-7.9-20.6-24.2-9c-1.6,1.1-7.2,4.9-3.9,14c3,8.3,13.3,14.1,24.9,6.1
		C149.8,230.3,151.4,225.9,149.4,221.8z"/>
</g>
<g>
	<path class="st28" d="M281.3,142.8c1.6,4.4,0.7,8.9,0.7,13.4c0,1-0.9,1.3-1.9,1.3c-3,0-5.9,0.1-8.9,0c-2.2,0-2.3-2-2.5-3.4
		c-0.2-1.6,0.1-3.5,2.4-3.7c0.9-0.1,2-0.1,2.1-0.9C273.8,144.8,277.9,144.3,281.3,142.8z"/>
</g>
<g>
	<g>
		<path class="st29" d="M296.9,146.1c-2.6-1.9-5.4-3.7-8.4-4.9c-4.6-1.7-9.1-2.4-13.4,0.7c-1.3,1.4-2,1.4-4,3.8
			c-0.3,0.2-0.5,0.5-0.8,0.8c-0.1,0.1-0.2,0.2-0.3,0.3c-8.1,8.3-6.9,21.9,2.5,28.8c11.1,8.2,29.4,1.4,33-8
			C311,153.2,297.7,146.6,296.9,146.1z"/>
	</g>
</g>
<g>
	<path class="st15" d="M285.5,258.5c-2-1.3-0.2-3.1-0.6-4.6C285.7,255.3,285.6,256.9,285.5,258.5z"/>
</g>
<g>
	<path class="st26" d="M208.4,239.7c-5-3.3-14.3-7-25.1,1.7c-3.2,2.6-4.1,5.5-4.9,8.9c-2.8,12.6,2.2,19.3,10.6,22.7
		C199.8,277.9,235.2,263,208.4,239.7z"/>
</g>
<g>
	<path class="st30" d="M267.6,142.8c3.5-3.1,1.1-10.8-1.1-14.8c-1.9-3.4-5.9-6.1-14.3-3.9c-3.3,0.8-6,2.4-6.8,6
		c-0.3,0.9-0.6,1.7-0.9,2.6v0c-1.6,3-1.2,7.5,0.1,10.9c0.9,2.4,3,4.2,5.6,4.7C259,149.9,263.2,146.6,267.6,142.8z"/>
</g>
<g>
	<path class="st31" d="M460.3,200.6c2.8-2.4,0.9-8.6-0.9-11.8c-1.5-2.8-4.7-4.9-11.5-3.1c-2.7,0.6-4.8,1.9-5.5,4.8
		c-0.3,0.7-0.5,1.4-0.8,2.1v0c-1.3,2.4-1,6,0,8.7c0.7,1.9,2.5,3.4,4.5,3.8C453.3,206.3,456.7,203.7,460.3,200.6z"/>
</g>
<g>
	<path class="st30" d="M370.7,248c4.4-3.1,1.3-10.8-1.4-14.8c-2.3-3.4-7.4-6.1-18-3.9c-4.2,0.8-7.5,2.4-8.5,6
		c-0.4,0.9-0.8,1.7-1.2,2.6v0c-2.1,3-1.5,7.5,0.1,10.9c1.2,2.4,3.8,4.2,7,4.7C359.9,255.1,365.2,251.8,370.7,248z"/>
</g>
<g>
	<path class="st32" d="M271.9,286.7c0.3,0-1.2-3.7-0.9-3.6c1.9,8.3,7,19.8,9.8,27.8c0.4,1.3,1.4,2.5,1.1,4c-0.8-0.3-1.5-0.5-2.3-0.8
		c-2.3-6.4-3-10.6-5.3-17c-0.6-1.5-2.6-5.1-2.5-6.7C271.4,289.2,271.3,287.9,271.9,286.7z"/>
</g>
<g>
	<path class="st33" d="M249.6,110.4c-1.1-2-2.9-3-5.1-3.5c0.9-1.2,2.2-0.7,3.4-0.8l0,0c1.3,1,4.6,0,3.4,3.4v0
		C250.8,109.8,250.2,110.1,249.6,110.4z"/>
</g>
<g>
	<path class="st34" d="M250.5,94.2c1.7-0.4,3.4-0.3,5.1,0.1C253.9,95.4,252.2,95.4,250.5,94.2z"/>
</g>
<g>
	<path class="st35" d="M324.9,236.4c-4.4,5.2-14.6,9.2-15.5,10.2c-0.4,0.3-2,1.3-2.4,1.6c-0.1-0.6,1-1.9,0.9-2.5
		C309,245,317.3,241,324.9,236.4z"/>
</g>
<g>
	<path class="st36" d="M321.5,279.9c-0.8-0.4-1.1,1.2-1.9,1.6c-3.3,2.5-5.4,3.2-8.5,5.9c-0.9,0.4-1.9,1.4-2.2,1.7
		c0.3-0.5,0.4-1.1,0.6-1.5c1.8-3.3,3.5-6.7,5.3-10c-0.5-0.7-1.4-0.6-2-1.3c-3.8,6.7-15.5,29.1-17,37.8c1.5,1.5,2.4,0,3.5-0.6
		c3.1-6.9,6.6-13.6,10.8-19.9c3.2-4.6,7-8.6,12.2-11C322.4,281.6,322.6,280.5,321.5,279.9z"/>
</g>
<g>
	<path class="st37" d="M289,289.8c-0.2,2.7,0.8,5.5-0.6,8.1C288.3,295.1,288,292.4,289,289.8z"/>
</g>
<g>
	<path class="st38" d="M271.9,286.7c0,1.2-0.1,2.4-0.1,3.7c-0.3-0.9-0.6-1.8-0.9-2.7C271.3,287.4,270.6,286.1,271.9,286.7z"/>
</g>
<g>
	<path class="st37" d="M291.5,308.2c-0.2,0-0.5,0-0.7,0c-0.2-3.9,0.4-7.8-0.5-11.6c-0.4-1.8,0.3-2.5,1.2-2.7
		C291.5,298.6,291.5,303.4,291.5,308.2z"/>
</g>
<g>
	<path class="st39" d="M374.6,215.7c0,0-0.3,0-0.3,0S374.7,215.1,374.6,215.7z"/>
</g>
<g>
	<path class="st40" d="M266.4,102.2c-1-4.5-8.6-15.6-20.9-6.1c-2.1,2.1-4.2,3.6-4.4,6.6c-0.5,2.5-1.4,5.2,2.8,5.2
		c1.3-0.2,2.7-0.6,3.8-1.4c0.4,0.1,0.5,0,0.5-0.2c0.1,0.1,0.1,0.2,0.2,0.3c1.1,0.7,2.6,0.9,2.9,2.4c0,0.2,0.1,0.4,0.1,0.5l0,0
		c0,0,0,0,0,0l0,0c0,0,0,0.1,0,0.1c-0.1-0.1-0.2-0.2-0.4-0.2c-1,0-1.6,0.6-2,1.5c-0.7,3.4,0,6.2,3.3,7.9c2.6,0.7,5.1,0.7,7.7,0.2
		C271,114.8,266.6,103.3,266.4,102.2z M253.6,106.4c0,0-0.1-0.1-0.1-0.1c0,0,0,0,0.1-0.1C253.6,106.3,253.6,106.4,253.6,106.4z"/>
</g>
<g>
	<g>
		<defs>
			<path id="SVGID_1_" d="M337.3,339l-22.2-20.3H314c2.3,0,4.2-1.9,4.2-4.2V314c0-2.3-1.9-4.2-4.2-4.2h-52.7c-2.3,0-4.2,1.9-4.2,4.2
				v0.5c0,2.3,1.9,4.2,4.2,4.2h-1.1L237.9,339c-31.1,28.3-41.7,84.8-26.9,124.2l17.3,49.8c36.6,27.5,113.5,14,118.7,0l17.3-49.8
				C379.1,423.8,368.4,367.4,337.3,339z"/>
		</defs>
		<clipPath id="SVGID_2_">
			<use xlink:href="#SVGID_1_"  style="overflow:visible;"/>
		</clipPath>
		<rect x="196.2" y="309.8" class="st41" width="8.2" height="230.6"/>
		<rect x="204.4" y="309.8" class="st41" width="1.5" height="230.6"/>
		<rect x="205.9" y="309.8" class="st42" width="1.5" height="230.6"/>
		<rect x="207.3" y="309.8" class="st43" width="1.5" height="230.6"/>
		<rect x="208.8" y="309.8" class="st44" width="1.5" height="230.6"/>
		<rect x="210.3" y="309.8" class="st45" width="1.5" height="230.6"/>
		<rect x="211.8" y="309.8" class="st46" width="1.5" height="230.6"/>
		<rect x="213.2" y="309.8" class="st47" width="1.5" height="230.6"/>
		<rect x="214.7" y="309.8" class="st48" width="1.5" height="230.6"/>
		<rect x="216.2" y="309.8" class="st49" width="1.5" height="230.6"/>
		<rect x="217.7" y="309.8" class="st50" width="1.5" height="230.6"/>
		<rect x="219.1" y="309.8" class="st51" width="1.5" height="230.6"/>
		<rect x="220.6" y="309.8" class="st52" width="1.5" height="230.6"/>
		<rect x="222.1" y="309.8" class="st53" width="1.5" height="230.6"/>
		<rect x="223.5" y="309.8" class="st54" width="1.5" height="230.6"/>
		<rect x="225" y="309.8" class="st55" width="1.5" height="230.6"/>
		<rect x="226.5" y="309.8" class="st56" width="1.5" height="230.6"/>
		<rect x="228" y="309.8" class="st57" width="1.5" height="230.6"/>
		<rect x="229.4" y="309.8" class="st58" width="1.5" height="230.6"/>
		<rect x="230.9" y="309.8" class="st59" width="1.5" height="230.6"/>
		<rect x="232.4" y="309.8" class="st60" width="1.5" height="230.6"/>
		<rect x="233.9" y="309.8" class="st61" width="1.5" height="230.6"/>
		<rect x="235.3" y="309.8" class="st62" width="1.5" height="230.6"/>
		<rect x="236.8" y="309.8" class="st63" width="1.5" height="230.6"/>
		<rect x="238.3" y="309.8" class="st64" width="1.5" height="230.6"/>
		<rect x="239.8" y="309.8" class="st65" width="1.5" height="230.6"/>
		<rect x="241.2" y="309.8" class="st66" width="1.5" height="230.6"/>
		<rect x="242.7" y="309.8" class="st67" width="1.5" height="230.6"/>
		<rect x="244.2" y="309.8" class="st68" width="1.5" height="230.6"/>
		<rect x="245.6" y="309.8" class="st69" width="1.5" height="230.6"/>
		<rect x="247.1" y="309.8" class="st70" width="1.5" height="230.6"/>
		<rect x="248.6" y="309.8" class="st71" width="1.5" height="230.6"/>
		<rect x="250.1" y="309.8" class="st72" width="1.5" height="230.6"/>
		<rect x="251.5" y="309.8" class="st73" width="1.5" height="230.6"/>
		<rect x="253" y="309.8" class="st74" width="1.5" height="230.6"/>
		<rect x="254.5" y="309.8" class="st75" width="1.5" height="230.6"/>
		<rect x="256" y="309.8" class="st76" width="1.5" height="230.6"/>
		<rect x="257.4" y="309.8" class="st77" width="1.5" height="230.6"/>
		<rect x="258.9" y="309.8" class="st78" width="1.5" height="230.6"/>
		<rect x="260.4" y="309.8" class="st79" width="1.5" height="230.6"/>
		<rect x="261.8" y="309.8" class="st80" width="1.5" height="230.6"/>
		<rect x="263.3" y="309.8" class="st81" width="1.5" height="230.6"/>
		<rect x="264.8" y="309.8" class="st82" width="1.5" height="230.6"/>
		<rect x="266.3" y="309.8" class="st83" width="1.5" height="230.6"/>
		<rect x="267.7" y="309.8" class="st84" width="1.5" height="230.6"/>
		<rect x="269.2" y="309.8" class="st85" width="1.5" height="230.6"/>
		<rect x="270.7" y="309.8" class="st86" width="1.5" height="230.6"/>
		<rect x="272.2" y="309.8" class="st87" width="1.5" height="230.6"/>
		<rect x="273.6" y="309.8" class="st88" width="1.5" height="230.6"/>
		<rect x="275.1" y="309.8" class="st89" width="1.5" height="230.6"/>
		<rect x="276.6" y="309.8" class="st90" width="1.5" height="230.6"/>
		<rect x="278.1" y="309.8" class="st91" width="1.5" height="230.6"/>
		<rect x="279.5" y="309.8" class="st92" width="1.5" height="230.6"/>
		<rect x="281" y="309.8" class="st93" width="1.5" height="230.6"/>
		<rect x="282.5" y="309.8" class="st94" width="1.5" height="230.6"/>
		<rect x="283.9" y="309.8" class="st95" width="1.5" height="230.6"/>
		<rect x="285.4" y="309.8" class="st96" width="1.5" height="230.6"/>
		<rect x="286.9" y="309.8" class="st97" width="1.5" height="230.6"/>
		<rect x="288.4" y="309.8" class="st98" width="1.5" height="230.6"/>
		<rect x="289.8" y="309.8" class="st99" width="1.5" height="230.6"/>
		<rect x="291.3" y="309.8" class="st100" width="1.5" height="230.6"/>
		<rect x="292.8" y="309.8" class="st101" width="1.5" height="230.6"/>
		<rect x="294.3" y="309.8" class="st102" width="1.5" height="230.6"/>
		<rect x="295.7" y="309.8" class="st103" width="1.5" height="230.6"/>
		<rect x="297.2" y="309.8" class="st104" width="1.5" height="230.6"/>
		<rect x="298.7" y="309.8" class="st105" width="1.5" height="230.6"/>
		<rect x="300.1" y="309.8" class="st106" width="1.5" height="230.6"/>
		<rect x="301.6" y="309.8" class="st107" width="1.5" height="230.6"/>
		<rect x="303.1" y="309.8" class="st108" width="1.5" height="230.6"/>
		<rect x="304.6" y="309.8" class="st109" width="1.5" height="230.6"/>
		<rect x="306" y="309.8" class="st110" width="1.5" height="230.6"/>
		<rect x="307.5" y="309.8" class="st111" width="1.5" height="230.6"/>
		<rect x="309" y="309.8" class="st112" width="1.5" height="230.6"/>
		<rect x="310.5" y="309.8" class="st113" width="1.5" height="230.6"/>
		<rect x="311.9" y="309.8" class="st114" width="1.5" height="230.6"/>
		<rect x="313.4" y="309.8" class="st115" width="1.5" height="230.6"/>
		<rect x="314.9" y="309.8" class="st116" width="1.5" height="230.6"/>
		<rect x="316.4" y="309.8" class="st117" width="1.5" height="230.6"/>
		<rect x="317.8" y="309.8" class="st118" width="1.5" height="230.6"/>
		<rect x="319.3" y="309.8" class="st119" width="1.5" height="230.6"/>
		<rect x="320.8" y="309.8" class="st120" width="1.5" height="230.6"/>
		<rect x="322.2" y="309.8" class="st121" width="1.5" height="230.6"/>
		<rect x="323.7" y="309.8" class="st122" width="1.5" height="230.6"/>
		<rect x="325.2" y="309.8" class="st123" width="1.5" height="230.6"/>
		<rect x="326.7" y="309.8" class="st124" width="1.5" height="230.6"/>
		<rect x="328.1" y="309.8" class="st125" width="1.5" height="230.6"/>
		<rect x="329.6" y="309.8" class="st126" width="1.5" height="230.6"/>
		<rect x="331.1" y="309.8" class="st127" width="1.5" height="230.6"/>
		<rect x="332.6" y="309.8" class="st128" width="1.5" height="230.6"/>
		<rect x="334" y="309.8" class="st129" width="1.5" height="230.6"/>
		<rect x="335.5" y="309.8" class="st130" width="1.5" height="230.6"/>
		<rect x="337" y="309.8" class="st131" width="1.5" height="230.6"/>
		<rect x="338.4" y="309.8" class="st132" width="1.5" height="230.6"/>
		<rect x="339.9" y="309.8" class="st133" width="1.5" height="230.6"/>
		<rect x="341.4" y="309.8" class="st134" width="1.5" height="230.6"/>
		<rect x="342.9" y="309.8" class="st135" width="1.5" height="230.6"/>
		<rect x="344.3" y="309.8" class="st136" width="1.5" height="230.6"/>
		<rect x="345.8" y="309.8" class="st137" width="1.5" height="230.6"/>
		<rect x="347.3" y="309.8" class="st138" width="1.5" height="230.6"/>
		<rect x="348.8" y="309.8" class="st139" width="1.5" height="230.6"/>
		<rect x="350.2" y="309.8" class="st140" width="1.5" height="230.6"/>
		<rect x="351.7" y="309.8" class="st141" width="1.5" height="230.6"/>
		<rect x="353.2" y="309.8" class="st142" width="1.5" height="230.6"/>
		<rect x="354.7" y="309.8" class="st143" width="1.5" height="230.6"/>
		<rect x="356.1" y="309.8" class="st144" width="1.5" height="230.6"/>
		<rect x="357.6" y="309.8" class="st145" width="1.5" height="230.6"/>
		<rect x="359.1" y="309.8" class="st146" width="1.5" height="230.6"/>
		<rect x="360.5" y="309.8" class="st147" width="1.5" height="230.6"/>
		<rect x="362" y="309.8" class="st148" width="1.5" height="230.6"/>
		<rect x="363.5" y="309.8" class="st149" width="1.5" height="230.6"/>
		<rect x="365" y="309.8" class="st150" width="1.5" height="230.6"/>
		<rect x="366.4" y="309.8" class="st151" width="1.5" height="230.6"/>
		<rect x="367.9" y="309.8" class="st152" width="1.5" height="230.6"/>
		<rect x="369.4" y="309.8" class="st153" width="1.5" height="230.6"/>
		<rect x="370.9" y="309.8" class="st153" width="8.2" height="230.6"/>
	</g>
	<path class="st154" d="M288,529.2c-3.2,0-6.4-0.1-9.6-0.3c-14.6-0.9-35.2-4.4-50.4-15.7l-0.1-0.1l0-0.1l-17.3-49.8
		c-7.2-19.1-8.6-43.3-3.8-66.4c5-23.9,15.9-44.5,30.8-58.1l22-20.1c-1.7-0.6-3-2.3-3-4.2V314c0-2.5,2-4.5,4.5-4.5H314
		c2.5,0,4.5,2,4.5,4.5v0.5c0,1.9-1.2,3.6-3,4.2l22,20.1c14.9,13.6,25.8,34.2,30.8,58.1c4.8,23.1,3.4,47.3-3.8,66.4l-17.3,49.8
		c-1.5,3.9-8.1,7.8-18.7,10.8C316.9,527.3,302.3,529.2,288,529.2z M228.5,512.8c15,11.2,35.5,14.6,50,15.5c17,1.1,35.7-0.8,50-5
		c10.2-3,16.9-6.8,18.3-10.5l17.3-49.8c7.2-19,8.5-43.1,3.7-66.1c-5-23.8-15.8-44.3-30.6-57.8L315,319h-1v-0.6
		c2.2,0,3.9-1.8,3.9-3.9V314c0-2.2-1.8-3.9-3.9-3.9h-52.7c-2.2,0-3.9,1.8-3.9,3.9v0.5c0,2.2,1.8,3.9,3.9,3.9v0.6h-1l-22.2,20.2
		c-14.8,13.5-25.6,34-30.6,57.8c-4.8,23-3.4,47,3.7,66.1L228.5,512.8z"/>
</g>
<g>
	<path class="st155" d="M336,255.8c-7.4-7.4-14.5-9.6-24-8.7c-11.8,1.9-9.3,11.7-8.2,16.9c0,0,3.1,15.3,13.1,19.4
		C327.1,289.3,359.3,282,336,255.8z"/>
</g>
<g>
	<path class="st10" d="M271.2,185.6c-1-3.3-2.8-6.2-4.8-9c-1.9-2.8-9.6-7.5-19.7-5.4c-8.5,1.1-4,19.4-0.1,22.8
		c5.3,4.6,12.5,7.2,18.6,5.2c0,0,2.5-1.2,3.5-2.2C272.3,193.7,272.5,189.7,271.2,185.6z"/>
</g>
<g>
	<path class="st10" d="M369.7,153.3c-3.6-1.8-7.4-2.7-11.2-3.4c-3.7-0.7-12.9,1.5-17.6,10.7c-4.6,7.2,14.7,18,20.3,17.6
		c7.5-0.5,14.5-3.8,16.7-10c0,0,0.6-2.9,0.3-4.3C377.7,158.8,374.2,155.5,369.7,153.3z"/>
</g>
<g>
	<path class="st156" d="M242.5,100.8c-2-0.5-7.3-1-12.5,8.8c-2.7,4.2-0.9,10.1,4.6,14.3c2.3,1.7,7.8,5.1,18-1.5
		C256.8,118.2,260.5,105.5,242.5,100.8z"/>
</g>
<g>
	<path class="st157" d="M416,133c1-1.8,2.7-6.8-5.7-14.2c-3.5-3.6-9.7-3.2-14.9,1.1c-2.2,1.9-6.8,6.4-2.8,17.9
		C395.8,142.8,407.2,149.4,416,133z"/>
</g>
<g>
	<path class="st158" d="M265.1,260.2c-7.3,0.1-14.7-0.4-21.6,2.8c-1.1,0-1.1-1.1-1.6-1.7c-2.9-5.2-3.6-10.5-1.1-16.2
		c1.9-4.4,4.7-7.4,9.6-8.1c2.9-0.5,5.8-1.3,8.7-1.3c5,0,9,6.1,8.8,12.7C267.9,249,268.2,257.4,265.1,260.2z"/>
</g>
<g>
	<path class="st26" d="M272.8,266.4c-1.9-3.5-6.5-6.5-8.5-7.1c-6.9-0.6-13.8-0.4-20.3,2.3c-1,0.6-1.6,1.6-2.2,2.7
		c-1.1,1-9.6,19.1,0.1,25.8c8.4,6.3,10.2,7.4,17.3,7.3c6.4-0.8,15.2-10.7,15.6-18.6c0.2-3.6-1.1-9.1-1.5-11.1
		C273.2,267.3,273.1,266.8,272.8,266.4z"/>
</g>
<g>
	<path class="st159" d="M484,196.9c-1.6-2.9-5.4-5.3-7-5.8c-5.7-0.5-11.4-0.4-16.8,1.9c-0.9,0.5-1.4,1.3-1.8,2.2
		c-0.9,0.8-7.9,15.6,0.1,21c6.9,5.1,8.5,6,14.3,6c5.3-0.7,12.6-8.7,12.9-15.2c0.1-3-0.9-7.4-1.3-9
		C484.3,197.6,484.2,197.2,484,196.9z"/>
</g>
<g>
	<path class="st30" d="M175.7,213.8c-1.9-3.5-6.5-6.5-8.5-7.1c-6.9-0.6-13.8-0.4-20.3,2.3c-1,0.6-1.6,1.6-2.2,2.7
		c-1.1,1-9.6,19.1,0.1,25.8c8.4,6.3,10.2,7.4,17.3,7.3c6.4-0.8,15.2-10.7,15.6-18.6c0.2-3.6-1.1-9.1-1.5-11.1
		C176.1,214.6,175.9,214.2,175.7,213.8z"/>
</g>
</svg>
