<?xml version="1.0" encoding="utf-8"?>
<!-- Generator: Adobe Illustrator 22.0.1, SVG Export Plug-In . SVG Version: 6.00 Build 0)  -->
<svg version="1.1" id="图层_1" xmlns="http://www.w3.org/2000/svg" xmlns:xlink="http://www.w3.org/1999/xlink" x="0px" y="0px"
	 viewBox="0 0 600 600" style="enable-background:new 0 0 600 600;" xml:space="preserve">
<style type="text/css">
	.st0{fill:#8FC31F;}
	.st1{fill:url(#SVGID_1_);}
	.st2{fill:url(#SVGID_2_);}
	.st3{opacity:0.8;}
	.st4{fill:url(#SVGID_3_);}
	.st5{fill:url(#SVGID_4_);}
	.st6{opacity:0.51;}
	.st7{fill:#1D304F;}
	.st8{fill:url(#SVGID_5_);}
	.st9{fill:url(#SVGID_6_);}
	.st10{fill:url(#SVGID_7_);}
	.st11{fill:url(#SVGID_8_);}
	.st12{fill:#00A716;}
	.st13{fill:url(#SVGID_9_);}
	.st14{fill:url(#SVGID_10_);}
	.st15{fill:url(#SVGID_11_);}
	.st16{fill:url(#SVGID_12_);}
	.st17{fill:url(#SVGID_13_);}
	.st18{fill:url(#SVGID_14_);}
	.st19{opacity:0.3;fill:#FFFFFF;}
</style>
<g>
	<g>
		<path class="st0" d="M389.9,254.7c-3.5-3.9-9-6.7-14.1-4.1c-4.9,2.5-6.3,8-4.2,12.8c0.3,0.7,1.4,0.1,1.1-0.6
			c-2.2-5,0.4-10.8,6-11.8c4.1-0.7,7.8,1.7,10.4,4.6C389.6,256.2,390.5,255.3,389.9,254.7L389.9,254.7z"/>
	</g>
</g>
<linearGradient id="SVGID_1_" gradientUnits="userSpaceOnUse" x1="276.9197" y1="125.8708" x2="295.9501" y2="125.8708" gradientTransform="matrix(1 -9.574116e-03 9.574116e-03 1 26.0518 35.5412)">
	<stop  offset="0" style="stop-color:#00A716"/>
	<stop  offset="1" style="stop-color:#CFFFAA"/>
</linearGradient>
<path class="st1" d="M322.1,141.3c-2.9-10.3-11.5-14.4-18.2-7.6c0,0,11.7,21.5,1.8,53.4C309.9,184.2,327.4,160.3,322.1,141.3z"/>
<linearGradient id="SVGID_2_" gradientUnits="userSpaceOnUse" x1="279.9064" y1="115.4725" x2="242.5932" y2="156.8096" gradientTransform="matrix(1 -9.574116e-03 9.574116e-03 1 26.0518 35.5412)">
	<stop  offset="0" style="stop-color:#00A716"/>
	<stop  offset="1" style="stop-color:#CFFFAA"/>
</linearGradient>
<path class="st2" d="M303.9,133.7c0,0-19.5-8.2-19.3,7.3c0.1,15.5,13.7,20.5,19.7,34.1c1.9,4.4,0.2,12.7,1.4,12
	C315.7,155.2,303.9,133.7,303.9,133.7z"/>
<g class="st3">
	
		<linearGradient id="SVGID_3_" gradientUnits="userSpaceOnUse" x1="0.1192" y1="600.1695" x2="0.9955" y2="600.1695" gradientTransform="matrix(148.4451 0 0 -148.4451 176.803 89591.1641)">
		<stop  offset="0" style="stop-color:#B2B7BF"/>
		<stop  offset="1" style="stop-color:#B2C2D2"/>
		<stop  offset="1" style="stop-color:#B2C2D2"/>
	</linearGradient>
	<path class="st4" d="M260.5,481.2c-20,0-41.5,2.6-59.6,9.3c-5.8,2.2-9.5,8.4-2.9,11.7l0.1,0.1c19.4,9.7,40.2,14.5,61.1,14.5
		s41.8-4.8,61.1-14.5l0.1-0.1c6.7-3.4,4.6-8.6-2.2-11.9C307.9,485.2,285.4,481.2,260.5,481.2"/>
</g>
<g>
	<linearGradient id="SVGID_4_" gradientUnits="userSpaceOnUse" x1="247.4298" y1="298.9736" x2="446.98" y2="298.9736">
		<stop  offset="0" style="stop-color:#00A716"/>
		<stop  offset="1" style="stop-color:#CFFFAA"/>
	</linearGradient>
	<path class="st5" d="M293.6,470.2c-10.9-4.8-22.2-9.8-30.7-18.5c-9.1-9.4-12.4-22.1-12.8-34.9c-0.8-26.7,8.4-52.5,13.3-78.4
		c1.2-6.3,2.2-12.6,2.7-19c0.6-6.5,1-12.6-1.8-18.6c-2.8-6.1-4.5-11.5-3.3-18.3c1.2-7.1,4.5-13.7,7.7-20.1
		c11.5-23,22.3-47,25.5-72.8c1.5-12,2.9-26.2-6.3-35.5c-7.6-7.6-19-11.1-24.7-20.6c-0.4,0.4-0.7,0.8-1.1,1.3
		c14.1-3.2,28.4-5.3,42.8-6.1c13.9-0.8,28.9-1.4,42.7,1.4c13.6,2.8,21.9,12.8,30,23.4c7.3,9.6,15.4,20.8,16,33.3
		c0.7,13.2-8.4,22.4-14.8,32.9c-6.2,10.3-10.4,22.2-10.6,34.3c-0.2,10.5,2.8,21.1,8.8,29.8c3,4.3,6.8,7.1,10.5,10.7
		c5.4,5.2,2.7,13.4,1.6,20c-0.6,3.9-1.3,7.8-2.1,11.7c-0.6,2.8-2,6.2-0.1,8.8c1.4,2,4.2,3,6.3,4c3.1,1.5,6.2,3,9.3,4.4
		c13.9,6.4,28.3,11.7,43.1,15.9c1.6,0.5,5-1.1,2.3-1.9c-13.4-3.9-26.6-8.6-39.3-14.2c-3.2-1.4-6.3-2.9-9.5-4.4
		c-1.7-0.8-3.3-1.6-4.9-2.4c-2.8-1.4-4.1-2.7-3.7-6c0.7-6.9,2.8-13.8,3.7-20.7c0.8-5.4,2.1-10.9-2-15.3c-4.1-4.4-8.8-7.5-12.1-12.7
		c-6.7-10.3-8.7-22.9-7-34.9c1.9-13.3,8.3-24.4,15.8-35.3c6.8-9.8,10.9-19.7,7.7-31.7c-3.1-12-11.4-22.3-18.9-31.9
		c-7.2-9.1-15.3-16.7-26.8-19.5c-14-3.5-29.5-2.9-43.8-2.2c-15.9,0.7-31.7,2.9-47.2,6.5c-0.4,0.1-1.5,0.6-1.1,1.3
		c4.9,8.1,13.4,12.1,20.7,17.5c4.6,3.4,8.5,7.5,10,13.1c1.8,6.5,1.2,13.6,0.7,20.2c-2.4,27.3-13.7,52.7-25.8,76.8
		c-5.3,10.6-11.4,23.1-6.7,35c1.2,2.9,2.9,5.6,3.7,8.7c1,3.7,0.5,7.8,0.3,11.6c-0.5,6.7-1.4,13.3-2.6,19.8
		c-4.9,26.7-14.6,53.2-13.6,80.7c0.5,13,4,25.8,13.3,35.3c8.8,9.1,20.8,14.4,32.2,19.4C292.8,472.8,296.2,471.3,293.6,470.2
		L293.6,470.2z"/>
</g>
<g class="st6">
	<path class="st7" d="M297.4,265.1h-76.3c-3.3,0-6,2.9-6,6.4v31.2c0,8.3-2.4,16.5-6.9,23.3l-12.9,19.7c-3,4.6-4.6,10.1-4.6,15.7
		v128.4c0,5.3,2.9,10.2,7.4,12.4c19.4,9.7,40.2,14.5,61.1,14.5s41.8-4.8,61.1-14.5c4.5-2.3,7.4-7.1,7.4-12.4V361.4
		c0-5.6-1.6-11.1-4.6-15.7L310.3,326c-4.5-6.8-6.9-15-6.9-23.3v-31.2C303.4,267.9,300.7,265.1,297.4,265.1"/>
</g>
<linearGradient id="SVGID_5_" gradientUnits="userSpaceOnUse" x1="2827.0728" y1="-953.4402" x2="2845.1812" y2="-953.4402" gradientTransform="matrix(0.7874 -0.6165 0.6165 0.7874 -1236.2395 2764.8774)">
	<stop  offset="0" style="stop-color:#00A716"/>
	<stop  offset="1" style="stop-color:#CFFFAA"/>
</linearGradient>
<path class="st8" d="M408.3,250.2c-6.6-8.4-17.9-4.5-19,5.1c0,0,16.8,2.6,28.3,33.9C419.2,284.3,414.2,257.6,408.3,250.2z"/>
<linearGradient id="SVGID_6_" gradientUnits="userSpaceOnUse" x1="2828.7434" y1="-962.2906" x2="2797.4138" y2="-927.5823" gradientTransform="matrix(0.7874 -0.6165 0.6165 0.7874 -1236.2395 2764.8774)">
	<stop  offset="0" style="stop-color:#00A716"/>
	<stop  offset="1" style="stop-color:#CFFFAA"/>
</linearGradient>
<path class="st9" d="M389.3,255.2c0,0-20.5,5.3-10.9,17.6c9.6,12.2,28.8,2.3,36.4,15c1.4,2.4,2.3,2.6,2.7,1.4
	C406.1,257.8,389.3,255.2,389.3,255.2z"/>
<linearGradient id="SVGID_7_" gradientUnits="userSpaceOnUse" x1="-618.8226" y1="1800.5988" x2="-598.2599" y2="1800.5988" gradientTransform="matrix(0.8909 0.4542 -0.4542 0.8909 1664.0441 -1127.4026)">
	<stop  offset="0" style="stop-color:#00A716"/>
	<stop  offset="1" style="stop-color:#CFFFAA"/>
</linearGradient>
<path class="st10" d="M318.9,194c4.8-9.5-5.3-19.6-14.4-16.7c0,0-6.6,9.8-17.1,41.5C292.5,218.3,314.6,202.4,318.9,194z"/>
<linearGradient id="SVGID_8_" gradientUnits="userSpaceOnUse" x1="-615.7291" y1="1792.1158" x2="-645.7609" y2="1825.3864" gradientTransform="matrix(0.8909 0.4542 -0.4542 0.8909 1664.0441 -1127.4026)">
	<stop  offset="0" style="stop-color:#00A716"/>
	<stop  offset="1" style="stop-color:#CFFFAA"/>
</linearGradient>
<path class="st11" d="M304.5,177.3c0,0-16.1-15.1-21.7-0.6c-8.1,21,4.6,42,4.6,42C297.8,190.4,304.5,177.3,304.5,177.3z"/>
<g>
	<g>
		<path class="st12" d="M305.1,177.7c1.3-3.1,0.8-7.3-1-10c-3-4.6-8.5-4-13-2.2c-0.7,0.3-0.4,1.5,0.3,1.2c4.1-1.7,9.2-2.5,11.8,1.9
			c1.3,2.3,1.9,5.9,0.8,8.4C303.7,177.8,304.7,178.4,305.1,177.7L305.1,177.7z"/>
	</g>
</g>
<linearGradient id="SVGID_9_" gradientUnits="userSpaceOnUse" x1="385.4699" y1="337.0326" x2="404.5003" y2="337.0326" gradientTransform="matrix(1 -9.574116e-03 9.574116e-03 1 26.0518 35.5412)">
	<stop  offset="0" style="stop-color:#00A716"/>
	<stop  offset="1" style="stop-color:#CFFFAA"/>
</linearGradient>
<path class="st13" d="M432.7,351.4c-2.9-10.3-11.5-14.4-18.2-7.6c0,0,11.7,21.5,1.8,53.4C420.5,394.3,438,370.4,432.7,351.4z"/>
<linearGradient id="SVGID_10_" gradientUnits="userSpaceOnUse" x1="388.4565" y1="326.6343" x2="351.1434" y2="367.9714" gradientTransform="matrix(1 -9.574116e-03 9.574116e-03 1 26.0518 35.5412)">
	<stop  offset="0" style="stop-color:#00A716"/>
	<stop  offset="1" style="stop-color:#CFFFAA"/>
</linearGradient>
<path class="st14" d="M414.5,343.8c0,0-19.5-8.2-19.3,7.3c0.1,15.5,13.7,20.5,19.7,34.1c1.9,4.4,0.2,12.7,1.4,12
	C426.2,365.3,414.5,343.8,414.5,343.8z"/>
<g>
	<g>
		<path class="st12" d="M414.4,343.8c-0.4-5.2-2.9-10.7-8.4-11.9c-5.4-1.2-10.2,2.4-11.4,7.5c-0.2,0.8,1,1.1,1.2,0.3
			c1.3-5.2,6.8-8.5,12-5.8c3.7,1.9,5.1,6.1,5.4,10C413.2,344.5,414.5,344.6,414.4,343.8L414.4,343.8z"/>
	</g>
</g>
<linearGradient id="SVGID_11_" gradientUnits="userSpaceOnUse" x1="267.0085" y1="243.2307" x2="286.0388" y2="243.2307" gradientTransform="matrix(1 -9.574116e-03 9.574116e-03 1 26.0518 35.5412)">
	<stop  offset="0" style="stop-color:#00A716"/>
	<stop  offset="1" style="stop-color:#CFFFAA"/>
</linearGradient>
<path class="st15" d="M313.3,258.8c-2.9-10.3-11.5-14.4-18.2-7.6c0,0,11.7,21.5,1.8,53.4C301.2,301.7,318.6,277.7,313.3,258.8z"/>
<linearGradient id="SVGID_12_" gradientUnits="userSpaceOnUse" x1="269.9951" y1="232.8324" x2="232.6819" y2="274.1695" gradientTransform="matrix(1 -9.574116e-03 9.574116e-03 1 26.0518 35.5412)">
	<stop  offset="0" style="stop-color:#00A716"/>
	<stop  offset="1" style="stop-color:#CFFFAA"/>
</linearGradient>
<path class="st16" d="M295.1,251.2c0,0-19.5-8.2-19.3,7.3c0.1,15.5,13.7,20.5,19.7,34.1c1.9,4.4,0.2,12.7,1.4,12
	C306.9,272.7,295.1,251.2,295.1,251.2z"/>
<g>
	<g>
		<path class="st12" d="M295,251.1c-0.4-5.2-2.9-10.7-8.4-11.9c-5.4-1.2-10.2,2.4-11.4,7.5c-0.2,0.8,1,1.1,1.2,0.3
			c1.3-5.2,6.8-8.5,12-5.8c3.7,1.9,5.1,6.1,5.4,10C293.9,251.9,295.1,251.9,295,251.1L295,251.1z"/>
	</g>
</g>
<g>
	<g>
		<path class="st12" d="M303.8,133.6c-0.4-5-4.6-8.7-9.5-9.4c-3.4-0.5-9.1,1.4-10.3,5c-0.3,0.8,1,1.1,1.2,0.3c1-3.2,6.7-4.6,9.6-3.9
			c4,0.9,7.4,3.8,7.8,8C302.6,134.4,303.9,134.4,303.8,133.6L303.8,133.6z"/>
	</g>
</g>
<linearGradient id="SVGID_13_" gradientUnits="userSpaceOnUse" x1="7076.5884" y1="1701.4484" x2="7095.6187" y2="1701.4484" gradientTransform="matrix(-0.9056 -0.4242 -0.4242 0.9056 7388.1396 1637.6025)">
	<stop  offset="0" style="stop-color:#00A716"/>
	<stop  offset="1" style="stop-color:#CFFFAA"/>
</linearGradient>
<path class="st17" d="M249,152.9c6.9-8.1,16.4-8.4,19.7,0.7c0,0-19.6,14.7-23.8,47.8C242.3,197,236.3,168,249,152.9z"/>
<linearGradient id="SVGID_14_" gradientUnits="userSpaceOnUse" x1="7083.5415" y1="1693.7721" x2="7045.4058" y2="1736.0205" gradientTransform="matrix(-0.9056 -0.4242 -0.4242 0.9056 7388.1396 1637.6025)">
	<stop  offset="0" style="stop-color:#00A716"/>
	<stop  offset="1" style="stop-color:#CFFFAA"/>
</linearGradient>
<path class="st18" d="M268.7,153.6c0,0,6.6-6.6,0,7.4c-6.6,14.1-10.4,17.7-17.6,30.1c-2.4,4.2-5.5,11.5-6.2,10.3
	C249.1,168.2,268.7,153.6,268.7,153.6z"/>
<g>
	<g>
		<path class="st12" d="M269.9,154.1c1.7-2.7,6.1-3.5,8.9-4.1c1.5-0.3,3.4-0.6,4.9-0.4c3.6,0.5,4.2,4.7,3.7,7.8
			c-0.1,0.8,1.1,1.1,1.2,0.3c0.5-2.7,0.3-6.6-2-8.5c-1.3-1.1-3.3-0.9-4.8-0.8c-4,0.2-10.6,1.3-13,5.1
			C268.4,154.2,269.5,154.8,269.9,154.1L269.9,154.1z"/>
	</g>
</g>
<path class="st19" d="M269.4,400.9h-74.1c-1,0-1.8-0.8-1.8-1.8l0,0c0-1,0.8-1.8,1.8-1.8h74.1c1,0,1.8,0.8,1.8,1.8l0,0
	C271.2,400.1,270.4,400.9,269.4,400.9z"/>
<path class="st19" d="M270.9,415.8h-35.5c-0.7,0-1.3-0.6-1.3-1.3v-0.7c0-0.7,0.6-1.3,1.3-1.3h35.5c0.7,0,1.3,0.6,1.3,1.3v0.7
	C272.1,415.3,271.6,415.8,270.9,415.8z"/>
<path class="st19" d="M312.5,409h-60.1c-0.9,0-1.7-0.7-1.7-1.7v0c0-0.9,0.7-1.7,1.7-1.7h60.1c0.9,0,1.7,0.7,1.7,1.7v0
	C314.1,408.3,313.4,409,312.5,409z"/>
<path class="st19" d="M316.9,399h-23c-0.9,0-1.6-0.7-1.6-1.6v-0.5c0-0.9,0.7-1.6,1.6-1.6h23c0.9,0,1.6,0.7,1.6,1.6v0.5
	C318.5,398.3,317.8,399,316.9,399z"/>
</svg>
