<?xml version="1.0" encoding="UTF-8"?>
<svg width="256px" height="321px" viewBox="0 0 256 321" version="1.1" xmlns="http://www.w3.org/2000/svg" xmlns:xlink="http://www.w3.org/1999/xlink">
    <!-- Generator: Sketch 50.2 (55047) - http://www.bohemiancoding.com/sketch -->
    <title>植物-芭蕉叶</title>
    <desc>Created with Sketch.</desc>
    <defs>
        <linearGradient x1="90.3719071%" y1="31.5161467%" x2="39.7894566%" y2="31.5161473%" id="linearGradient-1">
            <stop stop-color="#9BCBB3" offset="0%"></stop>
            <stop stop-color="#DCEAD3" offset="100%"></stop>
        </linearGradient>
        <linearGradient x1="71.6963636%" y1="33.6573336%" x2="50%" y2="100%" id="linearGradient-2">
            <stop stop-color="#D7F1CA" offset="0%"></stop>
            <stop stop-color="#B0D5C3" offset="45.9333696%"></stop>
            <stop stop-color="#C0EBCA" offset="100%"></stop>
        </linearGradient>
        <linearGradient x1="22.3817244%" y1="33.8582176%" x2="76.2434454%" y2="85.9867349%" id="linearGradient-3">
            <stop stop-color="#D7F0CA" offset="0%"></stop>
            <stop stop-color="#B0D5C3" offset="100%"></stop>
        </linearGradient>
        <polygon id="path-4" points="0.66796875 0 103 0 92.6984432 64.8085937 15.2647808 64.8085937"></polygon>
        <linearGradient x1="9.10942294%" y1="50%" x2="100%" y2="50%" id="linearGradient-6">
            <stop stop-color="#F7D08F" offset="0%"></stop>
            <stop stop-color="#EFB26B" offset="100%"></stop>
        </linearGradient>
        <linearGradient x1="0%" y1="50%" x2="84.0477917%" y2="50%" id="linearGradient-7">
            <stop stop-color="#F5D39A" offset="0%"></stop>
            <stop stop-color="#E9B371" offset="100%"></stop>
        </linearGradient>
    </defs>
    <g id="植物" stroke="none" stroke-width="1" fill="none" fill-rule="evenodd">
        <g id="Artboard" transform="translate(-859.000000, -62.000000)">
            <g id="植物-芭蕉叶" transform="translate(847.000000, 54.000000)">
                <path d="M59.8542939,227.567761 C81.4049504,225.672212 90.5551178,207.038962 106.368867,207.887203 C130.78689,209.196971 143.562635,198.935294 145.534832,195.064598 C150.503025,185.313862 146.333187,175.338333 125.656111,171.482456 C114.828621,169.463337 100.791856,169.388725 87.1974655,169.388725 C75.5538153,169.388725 63.7828567,177.259642 45.8989513,188.081845 C31.7445266,196.647203 8.84491537,173.556553 5.19958026,199.674432 C3.50768095,211.796451 21.3948,230.950575 59.8542939,227.567761 Z" id="Oval-5" fill="url(#linearGradient-1)" transform="translate(76.261358, 198.675417) rotate(33.000000) translate(-76.261358, -198.675417) "></path>
                <path d="M208.617916,243.23002 C220.222335,243.192161 216.899669,229.084334 223.25815,216.112543 C226.823891,208.838157 233.903623,206.060653 235.643198,196.315368 C237.303295,187.015324 230.163345,176.646522 231.307678,166.198778 C232.315294,156.999252 236.964576,147.247657 236.964576,137.958476 C236.964576,115.706854 220.357431,116.951183 219.700537,100.912902 C218.863479,80.4758391 242.819601,34.4594482 206.199402,51.9813973 C184.097869,62.5564883 194.767686,77.2454791 193.38747,86.9075984 C191.208036,102.164595 179.441807,113.370722 179.441807,133.084551 C179.441807,149.321706 192.145692,161.762294 191.65863,170.87346 C191.118497,180.977402 188.8038,202.501493 190.145551,213.122001 C192.095067,228.553212 197.013498,243.26788 208.617916,243.23002 Z" id="Oval-6" fill="url(#linearGradient-2)" transform="translate(208.203191, 145.655715) rotate(28.000000) translate(-208.203191, -145.655715) "></path>
                <path d="M120.857932,235.271971 C137.624121,232.452064 134.590374,216.015063 136.477851,201.887335 C137.895808,191.27396 147.07535,188.687995 149.107305,172.726078 C151.139259,156.764161 144.47683,145.423478 144.47683,129.448522 C144.47683,113.203598 153.079766,101.429707 152.897624,87.3516413 C152.717073,73.3964752 142.948148,62.9524052 146.008857,53.5325129 C151.463731,36.7441364 148.779354,6.3447343 120.548915,5.22302739 C92.3184766,4.10132047 89.3843456,29.0749383 94.1598816,36.6857596 C102.408157,49.8311217 100.049958,57.088912 99.500948,70.0020095 C98.8752689,84.7184222 82.1412325,104.052226 82.8876633,121.132442 C83.3803702,132.406817 85.2973427,149.581995 96.7244755,166.553177 C101.820113,174.121041 95.7313193,197.29233 98.7324019,211.050745 C101.358571,223.090375 109.470398,237.187242 120.857932,235.271971 Z" id="Oval-4" fill="url(#linearGradient-3)" transform="translate(117.881949, 120.317144) rotate(-18.000000) translate(-117.881949, -120.317144) "></path>
                <path d="M88.5,30.5 C92.3085039,36.0197031 94.7856653,40.0838151 95.9314843,42.692336 C105.816753,65.1967035 112.666415,82.6950915 116.480469,95.1875 C119.5046,105.092625 130.371014,127.356713 142.394531,172.945312 C145.372348,184.23606 152.202977,202.709988 154.671875,229.074219 C155.154759,234.230716 156.154759,243.018476 157.671875,255.4375" id="Line-2" stroke="#AFD5C9" stroke-width="3" stroke-linecap="square"></path>
                <path d="M87.5,27.5 C91.3085039,33.0197031 93.7856653,37.0838151 94.9314843,39.692336 C104.816753,62.1967035 111.666415,79.6950915 115.480469,92.1875 C118.5046,102.092625 129.371014,124.356713 141.394531,169.945312 C144.372348,181.23606 151.202977,199.709988 153.671875,226.074219 C154.154759,231.230716 155.154759,240.018476 156.671875,252.4375" id="Line-2" stroke="#FFFFFF" stroke-width="2" opacity="0.95" stroke-linecap="square"></path>
                <path d="M154.5,254.5 C134.02933,229.162334 118.839244,213.622674 108.929742,207.881019 C88.2897929,195.922044 64.4915976,201.750767 51.5351563,193.367188 C29.247887,178.946013 21.0695016,171.823617 27,172" id="Line-3" stroke="#A4CBBD" stroke-width="3" stroke-linecap="square"></path>
                <path d="M154.5,254.5 C134.02933,229.162334 118.839244,213.622674 108.929742,207.881019 C88.2897929,195.922044 64.4915976,201.750767 51.5351563,193.367188 C29.247887,178.946013 21.0695016,171.823617 27,172" id="Line-3" stroke="#FFFFFF" stroke-width="2" opacity="0.95" stroke-linecap="square"></path>
                <path d="M248.5,73.5 C236.940505,82.4325684 222.824439,104.518799 206.151802,139.75869 C196.598376,159.951159 182.522791,181.678199 173.925046,204.93981 C169.653688,216.496175 166.512006,234.682905 164.5,259.5" id="Line-4" stroke="#A9CCBC" stroke-width="3" stroke-linecap="square"></path>
                <path d="M248.5,73.5 C236.940505,82.4325684 222.824439,104.518799 206.151802,139.75869 C196.598376,159.951159 182.522791,181.678199 173.925046,204.93981 C169.653688,216.496175 166.512006,234.682905 164.5,259.5" id="Line-4" stroke="#FFFFFF" stroke-width="2" opacity="0.95" stroke-linecap="square"></path>
                <g id="Group" transform="translate(105.000000, 264.000000)">
                    <mask id="mask-5" fill="white">
                        <use xlink:href="#path-4"></use>
                    </mask>
                    <use id="Rectangle-2" fill="#EFF4F9" xlink:href="#path-4"></use>
                    <polygon id="Rectangle-2" fill="url(#linearGradient-6)" mask="url(#mask-5)" points="95.4616613 43.4012909 92.6984432 64.8085937 15.2647808 64.8085937 11.1089209 42.0862804"></polygon>
                    <path d="M7.5,29 L6,29 L6,26 L7.5,26 L16.5,26 L18,26 L18,29 L16.5,29 L7.5,29 Z M23.5,29 L22,29 L22,26 L23.5,26 L32.5,26 L34,26 L34,29 L32.5,29 L23.5,29 Z M39.5,29 L38,29 L38,26 L39.5,26 L48.5,26 L50,26 L50,29 L48.5,29 L39.5,29 Z M55.5,29 L54,29 L54,26 L55.5,26 L64.5,26 L66,26 L66,29 L64.5,29 L55.5,29 Z M71.5,29 L70,29 L70,26 L71.5,26 L80.5,26 L82,26 L82,29 L80.5,29 L71.5,29 Z M87.5,29 L86,29 L86,26 L87.5,26 L96.5,26 L98,26 L98,29 L96.5,29 L87.5,29 Z" id="Combined-Shape" stroke="#F1BB75" stroke-width="2" stroke-linecap="square" mask="url(#mask-5)"></path>
                </g>
                <path d="M110.50816,249 L203.450502,249 C205.659641,249 207.450502,250.790861 207.450502,253 C207.450502,253.171217 207.439509,253.342257 207.41759,253.512065 L205.776388,266.226847 C205.518482,268.224903 203.814857,269.71934 201.800229,269.714772 L112.899333,269.513175 C110.984169,269.508832 109.340805,268.147595 108.98002,266.266717 L106.579777,253.753531 C106.163614,251.583945 107.585043,249.487781 109.754629,249.071617 C110.002978,249.02398 110.255284,249 110.50816,249 Z" id="Rectangle-2" fill="url(#linearGradient-7)" transform="translate(156.833984, 259.361382) scale(1, -1) translate(-156.833984, -259.361382) "></path>
            </g>
        </g>
    </g>
</svg>