<?xml version="1.0" encoding="UTF-8"?>
<svg width="146px" height="196px" viewBox="0 0 146 196" version="1.1" xmlns="http://www.w3.org/2000/svg" xmlns:xlink="http://www.w3.org/1999/xlink">
    <!-- Generator: Sketch 50.2 (55047) - http://www.bohemiancoding.com/sketch -->
    <title>植物-盆栽1</title>
    <desc>Created with Sketch.</desc>
    <defs></defs>
    <g id="植物" stroke="none" stroke-width="1" fill="none" fill-rule="evenodd">
        <g id="Artboard" transform="translate(-121.000000, -500.000000)">
            <g id="植物-盆栽1" transform="translate(121.000000, 500.000000)">
                <path d="M70.5039062,2.625 C44.6028646,32.6744792 31.6523438,55.1067708 31.6523438,69.921875 C31.6523438,84.7369792 36.0989583,84.7369792 44.9921875,69.921875 C52.1336298,61.6351246 57.7712995,52.0393852 61.9051966,41.134657 C66.0390938,30.2299287 68.9053303,17.3933764 70.5039062,2.625 Z" id="Path-7" fill="#43AF71" transform="translate(51.078125, 41.829102) rotate(-9.000000) translate(-51.078125, -41.829102) "></path>
                <path d="M0.5546875,49.9023438 C10.328125,85.3424479 22.6289062,106.191406 37.4570312,112.449219 C52.2851562,118.707031 62.2643229,124.985677 67.3945312,131.285156 L74.2226562,131.285156 L52.6796875,113.449219 C50.8453119,97.5038114 47.9579422,87.1196968 44.0175781,82.296875 C40.0772141,77.4740532 25.5895839,66.6758761 0.5546875,49.9023438 Z" id="Path-5" fill="#41B974"></path>
                <path d="M63.2423824,125.862782 C61.7085283,99.0763237 67.454622,85.6830945 80.4806637,85.6830945 C100.019726,85.6830945 92.0947854,77.3961318 112.191601,85.6830945 C125.589478,91.2077363 136.797812,100.188205 145.816601,112.624501 C127.449517,104.513707 114.786169,100.337592 107.826558,100.096155 C100.607378,99.8457134 94.4517156,99.7379744 89.3595699,103.772938 C76.9038408,113.64273 72.0783199,121.006011 74.8830074,125.862782 L63.2423824,125.862782 Z" id="Path-6" fill="#41B974"></path>
                <polygon id="Rectangle-6" fill="#854544" points="35.1484375 137 101 137 85.8046875 195.09375 45.6289062 195.09375"></polygon>
                <polygon id="Rectangle-6" fill="#6B3736" points="35.1484375 137 101 137 96.3309856 154.850278 37.9819666 152.70639"></polygon>
                <rect id="Rectangle-7" fill="#854544" x="26" y="124" width="83" height="21" rx="4"></rect>
            </g>
        </g>
    </g>
</svg>