<?xml version="1.0" encoding="UTF-8"?>
<svg width="155px" height="303px" viewBox="0 0 155 303" version="1.1" xmlns="http://www.w3.org/2000/svg" xmlns:xlink="http://www.w3.org/1999/xlink">
    <!-- Generator: Sketch 50.2 (55047) - http://www.bohemiancoding.com/sketch -->
    <title>植物-水草</title>
    <desc>Created with Sketch.</desc>
    <defs>
        <linearGradient x1="0%" y1="28.7573156%" x2="100%" y2="84.0059331%" id="linearGradient-1">
            <stop stop-color="#D99473" offset="0%"></stop>
            <stop stop-color="#B4725B" offset="100%"></stop>
        </linearGradient>
        <linearGradient x1="0%" y1="29.1852521%" x2="100%" y2="77.3212065%" id="linearGradient-2">
            <stop stop-color="#DD9673" offset="0%"></stop>
            <stop stop-color="#C98669" offset="100%"></stop>
        </linearGradient>
        <linearGradient x1="13.8793814%" y1="26.5540493%" x2="100%" y2="100%" id="linearGradient-3">
            <stop stop-color="#D1EBCB" offset="0%"></stop>
            <stop stop-color="#A7D1C2" offset="100%"></stop>
        </linearGradient>
        <linearGradient x1="100%" y1="0%" x2="14.1510858%" y2="93.8797517%" id="linearGradient-4">
            <stop stop-color="#DDF7DB" offset="0%"></stop>
            <stop stop-color="#B5D9CD" offset="100%"></stop>
        </linearGradient>
        <linearGradient x1="57.649823%" y1="10.0086559%" x2="0%" y2="87.7201184%" id="linearGradient-5">
            <stop stop-color="#DCF3E3" offset="0%"></stop>
            <stop stop-color="#A5D0C3" offset="100%"></stop>
        </linearGradient>
        <polygon id="path-6" points="0.66796875 0 103 0 92.6984432 64.8085937 15.2647808 64.8085937"></polygon>
        <linearGradient x1="9.10942294%" y1="50%" x2="100%" y2="50%" id="linearGradient-8">
            <stop stop-color="#F7D08F" offset="0%"></stop>
            <stop stop-color="#EFB26B" offset="100%"></stop>
        </linearGradient>
        <linearGradient x1="0%" y1="50%" x2="84.0477917%" y2="50%" id="linearGradient-9">
            <stop stop-color="#F5D39A" offset="0%"></stop>
            <stop stop-color="#E9B371" offset="100%"></stop>
        </linearGradient>
    </defs>
    <g id="植物" stroke="none" stroke-width="1" fill="none" fill-rule="evenodd">
        <g id="Artboard" transform="translate(-1172.000000, -74.000000)">
            <g id="植物-水草" transform="translate(1172.000000, 74.000000)">
                <path d="M55.5,0.5 C49.2002431,44.4591294 45.5773695,81.1015451 44.6313791,110.427247 C43.6853887,139.752949 44.3082624,182.443867 46.5,238.5" id="Line-6" stroke="#A7D1C2" stroke-linecap="square"></path>
                <path d="M115.5,112.5 C105.1899,140.772479 96.4874608,163.925 89.3926821,181.957563 C82.2979035,199.990125 75.0003427,217.504271 67.5,234.5" id="Line-7" stroke="#A7D1C2" stroke-linecap="square"></path>
                <rect id="Rectangle-3" fill="url(#linearGradient-1)" transform="translate(46.985761, 60.575989) rotate(5.000000) translate(-46.985761, -60.575989) " x="40.4857609" y="31.5759891" width="13" height="58" rx="6.5"></rect>
                <rect id="Rectangle-3-Copy" fill="url(#linearGradient-2)" transform="translate(100.241684, 152.668232) rotate(20.000000) translate(-100.241684, -152.668232) " x="93.7416843" y="123.668232" width="13" height="58" rx="6.5"></rect>
                <path d="M0.3203125,102.386719 C0.859375,166.959635 9.86848958,208.296875 27.3476562,226.398438 C44.8268229,244.5 52.9765625,244.5 51.796875,226.398438 C40.6660042,202.038236 32.5162646,183.632312 27.3476562,171.180664 C22.1790479,158.729017 13.1699333,135.797701 0.3203125,102.386719 Z" id="Path-2" fill="url(#linearGradient-3)"></path>
                <path d="M86.5429687,69.8632812 C56.0377604,140.472656 43.4765625,191.708333 48.859375,223.570313 C54.2421875,255.432292 60.3209456,259.852865 67.0956494,236.832031 L79.4540458,156.483696 L86.5429687,69.8632812 Z" id="Path-3" fill="url(#linearGradient-4)"></path>
                <path d="M76.5585938,245.421875 C81.8111979,215.015625 89.1471354,195.791667 98.5664062,187.75 C112.695312,175.6875 141.296875,195 150.78125,195 C160.265625,195 114.121094,191.63842 106.34375,203.121094 C101.158854,210.776209 95.1835938,224.87647 88.4179688,245.421875 L76.5585938,245.421875 Z" id="Path-4" fill="url(#linearGradient-5)" transform="translate(114.309113, 214.603767) rotate(10.000000) translate(-114.309113, -214.603767) "></path>
                <g id="Group" transform="translate(5.000000, 238.000000)">
                    <mask id="mask-7" fill="white">
                        <use xlink:href="#path-6"></use>
                    </mask>
                    <use id="Rectangle-2" fill="#EFF4F9" xlink:href="#path-6"></use>
                    <polygon id="Rectangle-2" fill="url(#linearGradient-8)" mask="url(#mask-7)" points="95.4616613 43.4012909 92.6984432 64.8085937 15.2647808 64.8085937 11.1089209 42.0862804"></polygon>
                    <path d="M7.5,29 L6,29 L6,26 L7.5,26 L16.5,26 L18,26 L18,29 L16.5,29 L7.5,29 Z M23.5,29 L22,29 L22,26 L23.5,26 L32.5,26 L34,26 L34,29 L32.5,29 L23.5,29 Z M39.5,29 L38,29 L38,26 L39.5,26 L48.5,26 L50,26 L50,29 L48.5,29 L39.5,29 Z M55.5,29 L54,29 L54,26 L55.5,26 L64.5,26 L66,26 L66,29 L64.5,29 L55.5,29 Z M71.5,29 L70,29 L70,26 L71.5,26 L80.5,26 L82,26 L82,29 L80.5,29 L71.5,29 Z M87.5,29 L86,29 L86,26 L87.5,26 L96.5,26 L98,26 L98,29 L96.5,29 L87.5,29 Z" id="Combined-Shape" stroke="#F1BB75" stroke-width="2" stroke-linecap="square" mask="url(#mask-7)"></path>
                </g>
                <path d="M10.8401913,223 L103.782533,223 C105.991672,223 107.782533,224.790861 107.782533,227 C107.782533,227.171217 107.77154,227.342257 107.749622,227.512065 L106.108419,240.226847 C105.850514,242.224903 104.146888,243.71934 102.13226,243.714772 L13.2313638,243.513175 C11.3162003,243.508832 9.67283641,242.147595 9.31205168,240.266717 L6.91180859,227.753531 C6.49564489,225.583945 7.91707442,223.487781 10.0866603,223.071617 C10.3350089,223.02398 10.5873152,223 10.8401913,223 Z" id="Rectangle-2" fill="url(#linearGradient-9)" transform="translate(57.166016, 233.361382) scale(1, -1) translate(-57.166016, -233.361382) "></path>
            </g>
        </g>
    </g>
</svg>