<?xml version="1.0" encoding="UTF-8"?>
<svg width="132px" height="175px" viewBox="0 0 132 175" version="1.1" xmlns="http://www.w3.org/2000/svg" xmlns:xlink="http://www.w3.org/1999/xlink">
    <!-- Generator: Sketch 50.2 (55047) - http://www.bohemiancoding.com/sketch -->
    <title>植物-仙人球</title>
    <desc>Created with Sketch.</desc>
    <defs></defs>
    <g id="植物" stroke="none" stroke-width="1" fill="none" fill-rule="evenodd">
        <g id="Artboard" transform="translate(-636.000000, -127.000000)">
            <g id="植物-仙人球" transform="translate(626.000000, 117.000000)">
                <path d="M111.159263,96.8978468 C126.82593,73.2462489 134.659263,57.0942195 134.659263,48.4417584 C134.659263,35.4630668 124.137955,24.9417584 111.159263,24.9417584 C98.1805715,24.9417584 87.6592631,35.4630668 87.6592631,48.4417584 C87.6592631,57.0942195 95.4925965,73.2462489 111.159263,96.8978468 Z" id="Oval-3-Copy" fill="#1FA85C" transform="translate(111.159263, 60.919803) rotate(36.000000) translate(-111.159263, -60.919803) "></path>
                <path d="M112.159263,91.8978468 C127.82593,68.2462489 135.659263,52.0942195 135.659263,43.4417584 C135.659263,30.4630668 125.137955,19.9417584 112.159263,19.9417584 C99.1805715,19.9417584 88.6592631,30.4630668 88.6592631,43.4417584 C88.6592631,52.0942195 96.4925965,68.2462489 112.159263,91.8978468 Z" id="Oval-3-Copy" stroke="#393B3D" stroke-width="2" transform="translate(112.159263, 55.919803) rotate(25.000000) translate(-112.159263, -55.919803) "></path>
                <path d="M54.9473162,89.9687646 C72.603816,63.3131625 81.432066,45.1096536 81.432066,35.358238 C81.432066,20.7311147 69.5744396,8.87348829 54.9473162,8.87348829 C40.3201928,8.87348829 28.4625664,20.7311147 28.4625664,35.358238 C28.4625664,45.1096536 37.2908164,63.3131625 54.9473162,89.9687646 Z" id="Oval-3-Copy-2" fill="#28B968" transform="translate(54.947316, 49.421126) rotate(-40.000000) translate(-54.947316, -49.421126) "></path>
                <path d="M47.9473162,87.9687646 C65.603816,61.3131625 74.432066,43.1096536 74.432066,33.358238 C74.432066,18.7311147 62.5744396,6.87348829 47.9473162,6.87348829 C33.3201928,6.87348829 21.4625664,18.7311147 21.4625664,33.358238 C21.4625664,43.1096536 30.2908164,61.3131625 47.9473162,87.9687646 Z" id="Oval-3-Copy-2" stroke="#393B3D" stroke-width="2" transform="translate(47.947316, 47.421126) rotate(-46.000000) translate(-47.947316, -47.421126) "></path>
                <path d="M89.7861165,155.513739 C112.976861,120.503218 124.572233,96.5940109 124.572233,83.7861165 C124.572233,64.5742748 108.997958,49 89.7861165,49 C70.5742748,49 55,64.5742748 55,83.7861165 C55,96.5940109 66.5953722,120.503218 89.7861165,155.513739 Z" id="Oval-3" fill="#14CF67"></path>
                <path d="M92.7861165,150.513739 C115.976861,115.503218 127.572233,91.5940109 127.572233,78.7861165 C127.572233,59.5742748 111.997958,44 92.7861165,44 C73.5742748,44 58,59.5742748 58,78.7861165 C58,91.5940109 69.5953722,115.503218 92.7861165,150.513739 Z" id="Oval-3" stroke="#393B3D" stroke-width="2"></path>
                <polygon id="Rectangle" fill="#7D868D" points="38.2851562 110.804688 130.535156 109 111.855469 185 59.8789063 185"></polygon>
                <polygon id="Rectangle" fill="#4E5761" points="38.2851562 110.804687 60.1392103 110.377156 59.8789063 185"></polygon>
            </g>
        </g>
    </g>
</svg>