<?xml version="1.0" encoding="UTF-8"?>
<svg width="231px" height="317px" viewBox="0 0 231 317" version="1.1" xmlns="http://www.w3.org/2000/svg" xmlns:xlink="http://www.w3.org/1999/xlink">
    <!-- Generator: Sketch 50.2 (55047) - http://www.bohemiancoding.com/sketch -->
    <title>植物-小花盆叶</title>
    <desc>Created with Sketch.</desc>
    <defs>
        <linearGradient x1="79.9286833%" y1="15.560327%" x2="28.6196611%" y2="76.3167425%" id="linearGradient-1">
            <stop stop-color="#C7DB89" offset="0%"></stop>
            <stop stop-color="#C4D987" offset="33.9326366%"></stop>
            <stop stop-color="#95B451" offset="100%"></stop>
        </linearGradient>
        <path d="M117.002817,0.201869159 L0,0 L9.30704225,83.8766355 C9.30704225,83.8766355 10.3042254,104.46729 24.2647887,106.082243 L93.9014085,106.485981 C93.9014085,106.485981 107.030986,108 108.526761,81.4542056 L117.002817,0.201869159 Z" id="path-2"></path>
    </defs>
    <g id="植物" stroke="none" stroke-width="1" fill="none" fill-rule="evenodd">
        <g id="Artboard" transform="translate(-546.000000, -840.000000)">
            <g id="植物-小花盆叶" transform="translate(510.000000, 840.000000)">
                <path d="M116.042078,238.994825 C130.5051,238.994825 135.222516,217.307802 140.350671,189.686232 C141.978432,180.91869 150.542078,173.541362 150.542078,163.494825 C150.542078,157.007201 151.245318,145.764353 150.542078,139.756544 C146.725425,107.150743 132.131358,87.9948253 116.042078,87.9948253 C103.514348,87.9948253 87.1209546,94.6097688 81.0772338,116.471388 C77.928867,127.859802 87.4756713,149.213084 87.4756713,163.494825 C87.4756713,181.20833 88.1833066,189.374785 92.8506713,202.252638 C99.1702591,219.689185 105.082504,238.994825 116.042078,238.994825 Z" id="Oval-17" fill="url(#linearGradient-1)" transform="translate(115.647462, 163.494825) rotate(-33.000000) translate(-115.647462, -163.494825) "></path>
                <path d="M197.271662,254.386016 C211.734684,254.386016 216.4521,232.698993 221.580256,205.077422 C223.208017,196.30988 225.268144,189.540658 225.268144,179.494121 C225.268144,173.006497 241.773111,156.620504 241.06987,150.612695 C237.253218,118.006895 227.947671,114.319477 211.85839,114.319477 C199.33066,114.319477 178.249753,111.797605 172.206032,133.659224 C169.057665,145.047638 174.176421,168.957069 174.176421,183.23881 C174.176421,200.952315 177.847811,211.252882 182.515175,224.130735 C188.834763,241.567282 186.312088,254.386016 197.271662,254.386016 Z" id="Oval-17-Copy" fill="url(#linearGradient-1)" transform="translate(206.137045, 184.308435) rotate(26.000000) translate(-206.137045, -184.308435) "></path>
                <g id="Group-8" transform="translate(166.000000, 96.000000)">
                    <path d="M66.5,43.5 C59.4980798,50.016973 52.9811001,57.099947 46.9490608,64.7489221 C37.9010019,76.2223848 42.0401123,68.172582 29.9660496,89.8271646 C21.9166745,104.263553 14.4279913,119.487831 7.5,135.5" id="Line-26" stroke="#4B672D" stroke-width="3" stroke-linecap="square"></path>
                    <path d="M73.1346576,48.9696931 C78.1819266,48.9696931 81.4031761,38.4483847 84.0142873,25.4696931 C86.6253984,12.4910015 84.9050569,1.96969308 73.1346576,1.96969308 C61.3642583,1.96969308 66.0119001,19.4913632 66.0119001,32.4700548 C66.0119001,45.4487464 68.0873887,48.9696931 73.1346576,48.9696931 Z" id="Oval-15" fill="#E2565D" transform="translate(75.089556, 25.469693) rotate(19.000000) translate(-75.089556, -25.469693) "></path>
                    <path d="M43.5,69 C45.9852814,69 48,65.2031016 48,46.7015625 C48,34.3672031 46.5,19.4666823 43.5,2 C40.5,19.4666823 39,34.3672031 39,46.7015625 C39,65.2031016 41.0147186,69 43.5,69 Z" id="Oval-16" fill="#648334"></path>
                    <path d="M13,107 C15.209139,107 17,104.846535 17,94.353125 C17,87.3575182 15.6666667,78.9064765 13,69 C10.3333333,78.9064765 9,87.3575182 9,94.353125 C9,104.846535 10.790861,107 13,107 Z" id="Oval-16-Copy-2" fill="#648334" transform="translate(13.000000, 88.000000) rotate(-30.000000) translate(-13.000000, -88.000000) "></path>
                    <path d="M43.9641016,114.454483 C46.1732406,114.454483 47.9641016,112.301018 47.9641016,101.807608 C47.9641016,94.8120008 46.6307683,86.3609592 43.9641016,76.4544827 C41.2974349,86.3609592 39.9641016,94.8120008 39.9641016,101.807608 C39.9641016,112.301018 41.7549626,114.454483 43.9641016,114.454483 Z" id="Oval-16-Copy-2" fill="#648334" transform="translate(43.964102, 95.454483) rotate(83.000000) translate(-43.964102, -95.454483) "></path>
                    <path d="M68.2350366,102.874171 C70.7203179,102.874171 72.7350366,99.0772722 72.7350366,80.5757331 C72.7350366,68.2413737 71.2350366,53.3408528 68.2350366,35.8741706 C65.2350366,53.3408528 63.7350366,68.2413737 63.7350366,80.5757331 C63.7350366,99.0772722 65.7497552,102.874171 68.2350366,102.874171 Z" id="Oval-16-Copy" fill="#648334" transform="translate(68.235037, 69.374171) rotate(74.000000) translate(-68.235037, -69.374171) "></path>
                </g>
                <g id="Group-6" transform="translate(109.000000, 0.000000)">
                    <path d="M74,44.9513174 C73.212343,36.6739414 69.5676692,54.7306795 63.0659787,99.1215318 C60.2059752,118.648453 59.438793,138.862764 56.7644323,159.764466 C54.9815251,173.698934 51.0600477,201.427884 45,242.951317" id="Line-24" stroke="#4B672D" stroke-width="4" stroke-linecap="square"></path>
                    <g id="Group-7" transform="translate(23.000000, 56.000000)">
                        <ellipse id="Oval-14" fill="#94B239" transform="translate(22.391334, 38.624217) rotate(-20.000000) translate(-22.391334, -38.624217) " cx="22.3913342" cy="38.6242171" rx="9.5" ry="37.5"></ellipse>
                        <path d="M12.5,10.5 L32.5,64.5" id="Line-25" stroke="#BFD05E" stroke-width="2" stroke-linecap="square"></path>
                    </g>
                    <g id="Group-7-Copy" transform="translate(86.779847, 94.417502) rotate(66.000000) translate(-86.779847, -94.417502) translate(64.279847, 55.417502)">
                        <ellipse id="Oval-14" fill="#94B239" transform="translate(22.391334, 38.624217) rotate(-20.000000) translate(-22.391334, -38.624217) " cx="22.3913342" cy="38.6242171" rx="9.5" ry="37.5"></ellipse>
                        <path d="M12.5,10.5 L32.5,64.5" id="Line-25" stroke="#BFD05E" stroke-width="2" stroke-linecap="square"></path>
                    </g>
                    <g id="Group-7-Copy-2" transform="translate(75.017881, 157.372749) rotate(59.000000) translate(-75.017881, -157.372749) translate(52.517881, 118.372749)">
                        <ellipse id="Oval-14" fill="#94B239" transform="translate(22.391334, 38.624217) rotate(-20.000000) translate(-22.391334, -38.624217) " cx="22.3913342" cy="38.6242171" rx="9.5" ry="37.5"></ellipse>
                        <path d="M12.5,10.5 L32.5,64.5" id="Line-25" stroke="#BFD05E" stroke-width="2" stroke-linecap="square"></path>
                    </g>
                    <g id="Group-7-Copy-3" transform="translate(32.378245, 167.691047) rotate(-16.000000) translate(-32.378245, -167.691047) translate(9.878245, 128.691047)">
                        <ellipse id="Oval-14" fill="#94B239" transform="translate(22.391334, 38.624217) rotate(-20.000000) translate(-22.391334, -38.624217) " cx="22.3913342" cy="38.6242171" rx="9.5" ry="37.5"></ellipse>
                        <path d="M12.5,10.5 L32.5,64.5" id="Line-25" stroke="#BFD05E" stroke-width="2" stroke-linecap="square"></path>
                    </g>
                    <path d="M77.5064283,45.0282775 C94.6272556,45.0282775 108.506428,34.1491047 108.506428,17.0282775 C108.506428,6.69149267 106.650977,13.5395585 98.8736158,7.90718374 C97.516999,6.92472004 92.3963106,9.40204663 89.178566,7.22536199 C86.0589983,5.11509047 79.8482066,0.330016778 78.0652266,0.588903402 C74.4431537,1.11482416 69.739362,4.90718374 66.5064283,4.90718374 C59.7223859,4.90718374 62.6817765,-2.5299108 57.6900221,0.907183736 C49.571699,6.49709086 51.571699,6.90718374 48.5064283,14.0282775 C41.4774264,30.3577265 60.3856011,45.0282775 77.5064283,45.0282775 Z" id="Oval-13" fill="#F89B7D"></path>
                    <path d="M77,56.4723581 C94.1208272,56.4723581 108,42.5931854 108,25.4723581 C108,15.1355733 104.144548,23.9836391 96.3671875,18.3512644 C93.6953457,16.4163131 88.1808712,10.5070633 82.5587982,11.032984 C77.4404563,11.5117829 71.2329337,16.3512644 68,16.3512644 C61.2159576,16.3512644 60.1753482,8.91416984 55.1835938,12.3512644 C47.0652707,17.9411715 46,14.8704066 46,25.4723581 C46,42.5931854 59.8791728,56.4723581 77,56.4723581 Z" id="Oval-13-Copy" fill="#E33310"></path>
                </g>
                <g id="Group-6-Copy" transform="translate(107.820037, 151.366595) rotate(-40.000000) translate(-107.820037, -151.366595) translate(51.820037, 50.366595)">
                    <path d="M63,37.6199878 C62.3481459,30.748093 59.3318642,45.7388346 53.9511548,82.5922125 C51.5842553,98.8035028 50.9493459,115.585466 48.7360819,132.938103 C47.2605725,144.506527 44.0152119,167.527159 39,202" id="Line-24" stroke="#56712C" stroke-width="4" stroke-linecap="square"></path>
                    <g id="Group-7" transform="translate(20.000000, 47.000000)">
                        <ellipse id="Oval-14" fill="#94B239" transform="translate(18.908238, 32.186848) rotate(-20.000000) translate(-18.908238, -32.186848) " cx="18.9082378" cy="32.1868476" rx="8.02222222" ry="31.25"></ellipse>
                        <path d="M10.5555556,8.75 L27.4444444,53.75" id="Line-25" stroke="#BFD05E" stroke-width="2" stroke-linecap="square"></path>
                    </g>
                    <g id="Group-7-Copy" transform="translate(74.000000, 78.500000) rotate(66.000000) translate(-74.000000, -78.500000) translate(55.000000, 46.000000)">
                        <ellipse id="Oval-14" fill="#94B239" transform="translate(18.908238, 32.186848) rotate(-20.000000) translate(-18.908238, -32.186848) " cx="18.9082378" cy="32.1868476" rx="8.02222222" ry="31.25"></ellipse>
                        <path d="M10.5555556,8.75 L27.4444444,53.75" id="Line-25" stroke="#BFD05E" stroke-width="2" stroke-linecap="square"></path>
                    </g>
                    <g id="Group-7-Copy-2" transform="translate(64.000000, 130.500000) rotate(59.000000) translate(-64.000000, -130.500000) translate(45.000000, 98.000000)">
                        <ellipse id="Oval-14" fill="#94B239" transform="translate(18.908238, 32.186848) rotate(-20.000000) translate(-18.908238, -32.186848) " cx="18.9082378" cy="32.1868476" rx="8.02222222" ry="31.25"></ellipse>
                        <path d="M10.5555556,8.75 L27.4444444,53.75" id="Line-25" stroke="#BFD05E" stroke-width="2" stroke-linecap="square"></path>
                    </g>
                    <g id="Group-7-Copy-3" transform="translate(28.000000, 139.500000) rotate(-16.000000) translate(-28.000000, -139.500000) translate(9.000000, 107.000000)">
                        <ellipse id="Oval-14" fill="#94B239" transform="translate(18.908238, 32.186848) rotate(-20.000000) translate(-18.908238, -32.186848) " cx="18.9082378" cy="32.1868476" rx="8.02222222" ry="31.25"></ellipse>
                        <path d="M10.5555556,8.75 L27.4444444,53.75" id="Line-25" stroke="#BFD05E" stroke-width="2" stroke-linecap="square"></path>
                    </g>
                    <path d="M65.2953697,37 C79.491645,37 91,28.0605199 91,13.9922356 C91,5.49843881 89.4614935,11.1255347 83.0126489,6.4973793 C81.8877671,5.69008311 77.6417865,7.72571692 74.9736918,5.93712237 C72.3870036,4.20309987 67.2371292,0.271176724 65.7587149,0.483905383 C62.7553587,0.916057562 58.855061,4.03226169 56.1743719,4.03226169 C50.5491686,4.03226169 53.0030409,-2.07884256 48.8639698,0.745438203 C42.1324056,5.33869771 43.7907688,5.67567343 41.2491027,11.527118 C35.4207835,24.9451221 51.0990944,37 65.2953697,37 Z" id="Oval-13" fill="#F89B7D"></path>
                    <path d="M65,47 C79.3594035,47 91,35.4015568 91,21.094152 C91,12.455985 87.7663953,19.8500704 81.2434476,15.1432496 C79.002548,13.526264 74.3775048,8.58806634 69.6622179,9.02756386 C65.369415,9.42768294 60.1631057,13.4719046 57.4516129,13.4719046 C51.7617709,13.4719046 50.8890017,7.25692906 46.702369,10.1292145 C39.8934528,14.8005463 39,12.2343924 39,21.094152 C39,35.4015568 50.6405965,47 65,47 Z" id="Oval-13-Copy" fill="#E33310"></path>
                </g>
                <g id="Group-9" transform="translate(101.000000, 210.000000)">
                    <mask id="mask-3" fill="white">
                        <use xlink:href="#path-2"></use>
                    </mask>
                    <use id="Shape" fill="#854544" xlink:href="#path-2"></use>
                    <path d="M99.0286085,0.170857612 C97.2621986,24.0002954 95.6040579,41.8723737 94.0541863,53.7870926 C92.5322896,65.4867531 89.5827778,83.036244 85.205651,106.435565 C87.1380416,106.446769 90.0366274,106.463574 93.9014085,106.485981 C93.9014085,106.485981 107.030986,108 108.526761,81.4542056 L117.002817,0.201869159 L99.0286085,0.170857612 Z" id="Shape" fill="#6B3736" mask="url(#mask-3)"></path>
                </g>
            </g>
        </g>
    </g>
</svg>