<?xml version="1.0" encoding="UTF-8"?>
<svg width="158px" height="251px" viewBox="0 0 158 251" version="1.1" xmlns="http://www.w3.org/2000/svg" xmlns:xlink="http://www.w3.org/1999/xlink">
    <!-- Generator: Sketch 50.2 (55047) - http://www.bohemiancoding.com/sketch -->
    <title>植物-圆红花盆栽</title>
    <desc>Created with Sketch.</desc>
    <defs></defs>
    <g id="植物" stroke="none" stroke-width="1" fill="none" fill-rule="evenodd">
        <g id="Artboard" transform="translate(-377.000000, -53.000000)">
            <g id="植物-圆红花盆栽" transform="translate(377.000000, 54.000000)">
                <path d="M62.1155063,34 C47.24862,44.7918192 38.2551304,62.5847879 35.1350376,87.3789062 C32.0149447,112.173025 35.3274447,139.524587 45.0725376,169.433594" id="Line" stroke="#13161A" stroke-width="6" stroke-linecap="square"></path>
                <path d="M116.066406,96.2265625 C84.6158854,103.71875 65.4427083,115.895994 58.546875,132.758295 C51.6510417,149.620596 48.5963542,162.138665 49.3828125,170.3125" id="Line-Copy" stroke="#13161A" stroke-width="6" stroke-linecap="square"></path>
                <path d="M38.3433871,202.660798 C36.3663535,202.547909 34.7974341,201.934011 33.7497322,200.770421 C32.9814839,199.917194 32.5364721,198.816147 32.3909465,197.509621 C26.8050053,192.129829 20.9637916,185.020231 15.5980346,176.75769 C1.46063049,154.987997 -4.02265998,133.458443 3.35076261,128.670087 C10.7241852,123.88173 28.1621557,137.647823 42.2995599,159.417517 C44.4706493,162.760701 46.4376407,166.098222 48.1853132,169.370316 C50.3484284,167.076204 52.6961996,164.778691 55.2051622,162.519611 C72.254027,147.168744 90.2897749,139.405543 95.4891329,145.180014 C100.688491,150.954486 91.0825676,168.079957 74.0337029,183.430824 C68.5095876,188.40476 62.8818627,192.582091 57.6207606,195.760414 C58.2874218,201.478442 57.3388355,205.691972 54.5468319,207.50512 C50.9887269,209.81578 45.0869677,207.805808 38.3433871,202.660798 Z" id="Combined-Shape" fill="#14CF67"></path>
                <polygon id="Rectangle" fill="#7D868D" points="9 174 88 174 73.8554688 250 21.8789062 250"></polygon>
                <polygon id="Rectangle" fill="#4E5761" points="66.4765625 174 88 174 73.8554688 250 64.1679688 250"></polygon>
                <circle id="Oval-2" fill="#FF3B30" cx="72" cy="22" r="20"></circle>
                <circle id="Oval-2-Copy" fill="#FF3B30" cx="133" cy="94" r="20"></circle>
                <circle id="Oval-2-Copy-2" stroke="#13161A" stroke-width="2" cx="77" cy="20" r="20"></circle>
                <circle id="Oval-2-Copy-3" stroke="#13161A" stroke-width="2" cx="137" cy="97" r="20"></circle>
            </g>
        </g>
    </g>
</svg>