<?xml version="1.0" encoding="UTF-8"?>
<svg width="118px" height="372px" viewBox="0 0 118 372" version="1.1" xmlns="http://www.w3.org/2000/svg" xmlns:xlink="http://www.w3.org/1999/xlink">
    <!-- Generator: Sketch 50.2 (55047) - http://www.bohemiancoding.com/sketch -->
    <title>植物-棕盆绿叶</title>
    <desc>Created with Sketch.</desc>
    <defs>
        <path d="M23.3,0 C23.3,0 -12.1,41.4 4.8,153.3 L25.8,188.6 C25.8,188.6 72.7,90.7 23.3,0 Z" id="path-1"></path>
        <path d="M54.2,0.1 C54.2,0.1 -8.2,14.6 1.3,103.6 C1.3,103.6 53.4,107.9 54.2,0.1 Z" id="path-3"></path>
        <path d="M4.6,0.4 C4.6,0.4 -14.1,52.7 25.6,107.6 L51.6,127.3 C51.6,127.3 67.3,49.7 4.6,0.4 Z" id="path-5"></path>
        <path d="M70.5,1 L0.1,0.8 L5.7,83.9 C5.7,83.9 6.3,104.3 14.7,105.9 L56.6,106.3 C56.6,106.3 64.5,107.8 65.4,81.5 L70.5,1 Z" id="path-7"></path>
        <path d="M1,1.9 C1,1.9 -5.5,77 64.7,83.9 C64.7,83.9 117.7,61.1 117.2,0.4 C117.6,0.1 67.9,6.6 59.3,45.1 C59.3,45 50.8,18.6 1,1.9 Z" id="path-9"></path>
        <path d="M1,1.9 C1,1.9 -5.5,77 64.7,83.9 C64.7,83.9 117.7,61.1 117.2,0.4 C117.6,0.1 67.9,6.6 59.3,45.1 C59.3,45 50.8,18.6 1,1.9 Z" id="path-11"></path>
        <path d="M0.4,0.3 C0.4,0.3 3.1,57.3 60.3,75.4 C60.3,75.4 84.2,20.2 0.4,0.3 Z" id="path-13"></path>
        <path d="M46.2,0.6 C46.2,0.6 -16.3,22.1 5.3,64.7 C5.3,64.7 48.6,68.3 46.2,0.6 Z" id="path-15"></path>
        <path d="M1,0.9 C1,0.9 -3.7,27.2 22.5,29.9 C22.5,29.8 44.5,7.9 1,0.9 Z" id="path-17"></path>
        <path d="M31.8,0.2 C31.8,0.2 7.3,-1.9 0.7,29.2 C0.7,29.1 28.9,39.2 31.8,0.2 Z" id="path-19"></path>
    </defs>
    <g id="植物" stroke="none" stroke-width="1" fill="none" fill-rule="evenodd">
        <g id="Artboard" transform="translate(-1292.000000, -462.000000)">
            <g id="植物-棕盆绿叶" transform="translate(1292.000000, 462.000000)">
                <path d="M64.3,0 C64.3,0 28.9,41.4 45.8,153.3 L66.8,188.6 C66.8,188.6 113.7,90.7 64.3,0 Z" id="Shape" fill="#A7D574"></path>
                <g id="Clipped" transform="translate(41.000000, 0.000000)">
                    <mask id="mask-2" fill="white">
                        <use xlink:href="#path-1"></use>
                    </mask>
                    <g id="SVGID_1_"></g>
                    <path d="M22.3,211.6 C22.3,211.6 16.8,71.1 23.1,19.5 C23.1,19.5 21.9,170.6 22.3,211.6 Z" id="Shape" fill="#FFFFFF" mask="url(#mask-2)"></path>
                </g>
                <path d="M117.2,85.1 C117.2,85.1 54.8,99.6 64.3,188.6 C64.3,188.6 116.4,192.9 117.2,85.1 Z" id="Shape" fill="#95C85D"></path>
                <g id="Clipped" transform="translate(63.000000, 85.000000)">
                    <mask id="mask-4" fill="white">
                        <use xlink:href="#path-3"></use>
                    </mask>
                    <g id="SVGID_3_"></g>
                    <path d="M54.2,1.4 C54.2,1.4 14.9,65.2 3.8,110.1 C3.8,110.1 18.5,63.7 54.2,1.4 Z" id="Shape" fill="#FFFFFF" mask="url(#mask-4)"></path>
                </g>
                <path d="M15.6,81.4 C15.6,81.4 -3.1,133.7 36.6,188.6 L62.6,208.3 C62.6,208.3 78.3,130.7 15.6,81.4 Z" id="Shape" fill="#41B974"></path>
                <g id="Clipped" transform="translate(11.000000, 81.000000)">
                    <mask id="mask-6" fill="white">
                        <use xlink:href="#path-5"></use>
                    </mask>
                    <g id="SVGID_5_"></g>
                    <path d="M7.8,4.1 C7.8,4.1 14.8,104.6 79.9,148.6 C79.9,148.6 24.5,115.6 7.8,4.1 Z" id="Shape" fill="#FFFFFF" mask="url(#mask-6)"></path>
                </g>
                <path d="M98.5,266 L28.1,265.8 L33.7,348.9 C33.7,348.9 34.3,369.3 42.7,370.9 L84.6,371.3 C84.6,371.3 92.5,372.8 93.4,346.5 L98.5,266 Z" id="Shape" fill="#854544"></path>
                <g id="Clipped" transform="translate(28.000000, 265.000000)">
                    <mask id="mask-8" fill="white">
                        <use xlink:href="#path-7"></use>
                    </mask>
                    <g id="SVGID_7_"></g>
                    <path d="M64.8,-41.1 C62.5,4.6 62.1,48.8 55.8,93.3 C53.2,111.5 47,116.9 38.6,126.3 C37.9,127.1 36.1,129 36.8,131 C39.4,138.3 60.2,134 64,134 C98.6,134 111.8,107 109.4,41.6 C108.8,24.1 104.7,-12.2 93.3,-20.1 C92.9,-20.4 92.5,-20.5 92.1,-20.7 C90.8,-21.4 91,-21.2 89.9,-21.3 C80.1,-22.2 70.8,-29.3 61.1,-30.1 C60.6,-30.1 55.3,-30.1 55.3,-30.8" id="Shape" fill="#6B3736" mask="url(#mask-8)"></path>
                </g>
                <path d="M1,154.9 C1,154.9 -5.5,230 64.7,236.9 C64.7,236.9 117.7,214.1 117.2,153.4 C117.6,153.1 67.9,159.6 59.3,198.1 C59.3,198 50.8,171.6 1,154.9 Z" id="Shape" fill="#AFE178"></path>
                <g id="Group" transform="translate(0.000000, 153.000000)">
                    <g id="Clipped">
                        <mask id="mask-10" fill="white">
                            <use xlink:href="#path-9"></use>
                        </mask>
                        <g id="SVGID_9_"></g>
                        <path d="M110.4,10.1 C110.4,10.1 72.9,45.2 62.5,71 C62.6,70.9 68.7,54.5 110.4,10.1 Z" id="Shape" fill="#FFFFFF" mask="url(#mask-10)"></path>
                    </g>
                    <g id="Clipped">
                        <mask id="mask-12" fill="white">
                            <use xlink:href="#path-11"></use>
                        </mask>
                        <g id="SVGID_9_"></g>
                        <path d="M0.8,0.3 C0.8,0.3 28.6,67.2 62.6,70.9 C62.6,70.9 38.3,73.9 0.8,0.3 Z" id="Shape" fill="#FFFFFF" mask="url(#mask-12)"></path>
                    </g>
                </g>
                <path d="M3.4,185.3 C3.4,185.3 6.1,242.3 63.3,260.4 C63.3,260.4 87.2,205.2 3.4,185.3 Z" id="Shape" fill="#A7D574"></path>
                <g id="Clipped" transform="translate(3.000000, 185.000000)">
                    <mask id="mask-14" fill="white">
                        <use xlink:href="#path-13"></use>
                    </mask>
                    <g id="SVGID_11_"></g>
                    <path d="M7.9,7.7 C7.9,7.7 42.3,60.6 73.8,62.6 C73.8,62.6 48.9,62.5 7.9,7.7 Z" id="Shape" fill="#FFFFFF" mask="url(#mask-14)"></path>
                </g>
                <path d="M104.2,191.6 C104.2,191.6 41.7,213.1 63.3,255.7 C63.3,255.7 106.6,259.3 104.2,191.6 Z" id="Shape" fill="#41B974"></path>
                <g id="Clipped" transform="translate(58.000000, 191.000000)">
                    <mask id="mask-16" fill="white">
                        <use xlink:href="#path-15"></use>
                    </mask>
                    <g id="SVGID_13_"></g>
                    <path d="M45.7,1.7 C45.7,1.7 25.5,48 -2.9,68.3 C-2.9,68.3 21,50 45.7,1.7 Z" id="Shape" fill="#FFFFFF" mask="url(#mask-16)"></path>
                </g>
                <path d="M37,236.9 C37,236.9 32.3,263.2 58.5,265.9 C58.5,265.8 80.5,243.9 37,236.9 Z" id="Shape" fill="#43AF71"></path>
                <g id="Clipped" transform="translate(36.000000, 236.000000)">
                    <mask id="mask-18" fill="white">
                        <use xlink:href="#path-17"></use>
                    </mask>
                    <g id="SVGID_15_"></g>
                    <path d="M30.4,30.3 C30.4,30.3 3.4,23 -1.1,-7.2 C-1.1,-7.2 0.3,15.2 30.4,30.3 Z" id="Shape" fill="#FFFFFF" mask="url(#mask-18)"></path>
                </g>
                <path d="M88.8,236.2 C88.8,236.2 64.3,234.1 57.7,265.2 C57.7,265.1 85.9,275.2 88.8,236.2 Z" id="Shape" fill="#95C85D"></path>
                <g id="Clipped" transform="translate(57.000000, 236.000000)">
                    <mask id="mask-20" fill="white">
                        <use xlink:href="#path-19"></use>
                    </mask>
                    <g id="SVGID_17_"></g>
                    <path d="M-4,30.3 C-4,30.3 19.6,30.1 29.7,0.9 C29.7,0.9 20.4,25.4 -4,30.3 Z" id="Shape" fill="#FFFFFF" mask="url(#mask-20)"></path>
                </g>
            </g>
        </g>
    </g>
</svg>