<?xml version="1.0" encoding="UTF-8"?>
<svg width="325px" height="226px" viewBox="0 0 325 226" version="1.1" xmlns="http://www.w3.org/2000/svg" xmlns:xlink="http://www.w3.org/1999/xlink">
    <!-- Generator: Sketch 61.2 (89653) - https://sketch.com -->
    <title>包菜+西红柿+丝瓜</title>
    <desc>Created with Sketch.</desc>
    <defs>
        <radialGradient cx="22.5137875%" cy="43.3638341%" fx="22.5137875%" fy="43.3638341%" r="30.308354%" gradientTransform="translate(0.225138,0.433638),scale(0.880000,1.000000),rotate(63.562483),translate(-0.225138,-0.433638)" id="radialGradient-1">
            <stop stop-color="#FFC081" offset="0%"></stop>
            <stop stop-color="#FF684A" offset="100%"></stop>
        </radialGradient>
        <linearGradient x1="50%" y1="0%" x2="50%" y2="100%" id="linearGradient-2">
            <stop stop-color="#3B8234" offset="0%"></stop>
            <stop stop-color="#2B6726" offset="100%"></stop>
        </linearGradient>
        <linearGradient x1="50%" y1="0%" x2="50%" y2="100%" id="linearGradient-3">
            <stop stop-color="#6DB864" offset="0%"></stop>
            <stop stop-color="#3B8234" offset="100%"></stop>
        </linearGradient>
        <linearGradient x1="50%" y1="0%" x2="50%" y2="100%" id="linearGradient-4">
            <stop stop-color="#86C958" offset="0%"></stop>
            <stop stop-color="#FFFFFF" offset="100%"></stop>
        </linearGradient>
    </defs>
    <g id="蔬菜水果" stroke="none" stroke-width="1" fill="none" fill-rule="evenodd">
        <g id="包菜/西红柿/丝瓜" transform="translate(-1.000000, -2.000000)">
            <ellipse id="椭圆形" fill-opacity="0.1" fill="#000000" cx="167" cy="200" rx="107" ry="28"></ellipse>
            <g id="编组" stroke-width="1" transform="translate(72.661895, 119.896631) rotate(-28.000000) translate(-72.661895, -119.896631) translate(1.911895, 54.146631)">
                <path d="M70.5375,131.175 C109.35,131.175 140.85,102.20625 140.85,66.4875 C140.85,24.58125 116.38125,7.425 70.5375,7.425 C48.31875,7.425 31.1625,11.64375 19.35,20.3625 C17.6625,21.4875 16.25625,22.89375 14.85,24.01875 C13.44375,25.425 12.0375,26.83125 10.9125,28.2375 C3.88125,37.8 0.225,50.175 0.225,66.4875 C0.225,102.20625 31.725,131.175 70.5375,131.175 Z" id="路径" fill="url(#radialGradient-1)" fill-rule="nonzero"></path>
                <path d="M27.759375,117.56427 C22.8712824,113.713967 13.2207142,106.984698 6.01398362,91.8307168 C17.2470466,109.786144 41.9530615,118.25952 51.1080025,118.070168 C92.5892376,118.070168 122.034909,88.831403 122.034909,50.431403 C122.034909,36.1992351 119.341323,24.9209135 114.492867,16.059375 C130.654387,24.3838505 141.159375,39.9586757 141.159375,66.8118226 C141.159375,102.526508 109.913769,131.259375 71.1261208,131.259375 C54.695242,131.259375 39.6111565,126.157277 27.759375,117.56427 Z" id="路径" fill="#ED5234" fill-rule="nonzero"></path>
                <path d="M89.6625,38.3625 C98.94375,45.1125 90.50625,60.8625 87.975,57.20625 C85.787672,54.2898126 78.3395764,35.5982226 64.6389071,56.1364554 C63.8152193,57.3712193 60.979437,55.8094621 62.0721483,53.6419972 C61.1757206,28.3872471 33.4125,57.4875 38.19375,45.95625 C41.56875,38.3625 48.0375,33.58125 57.88125,31.6125 C46.9125,27.675 47.5503735,13.810268 50.3628735,17.466518 C53.1753735,21.404018 61.81875,24.8625 67.725,25.425 C63.7875,15.58125 78.4125,6.58125 77.56875,13.05 C76.44375,19.8 78.4125,27.675 85.725,27.675 C101.475,23.175 109.63125,39.76875 106.5375,36.95625 C103.44375,33.8625 96.975,32.45625 89.6625,38.3625 Z" id="路径" fill="#5AA351" fill-rule="nonzero"></path>
                <path d="M74.520626,25.256067 L74.4364851,25.6967215 C74.444658,25.8198203 74.4379976,25.9690125 74.4146794,26.1457876 C73.9779106,28.7371248 74.7422561,31.7603516 77.5812536,31.7603516 C83.6960174,30.0327934 86.8625916,36.4031641 85.6614772,35.3234402 C83.6616972,34.5065702 81.2776799,34.2487341 79.1099445,35.8633022 C82.7132875,38.4546394 79.2268858,44.0691192 78.4547913,43.0974519 C77.6055853,41.9778263 74.7139443,34.8020911 69.3948105,42.6867558 C69.0750228,43.1607839 67.9740616,42.5612225 68.3982947,41.7291288 C68.0502665,32.0337845 57.2715022,43.2054243 59.1277698,38.7785565 C60.4380764,35.8633022 62.9494972,34.0277716 66.7712246,33.2719649 C62.5127284,31.7603516 62.7603757,26.4376558 63.8522979,27.8412968 C64.9323172,29.3364325 68.2270254,30.6516597 70.5175901,30.8891155 C74.8219428,13.8188907 73.2677055,5.24654569 66.0088122,4.84215467 C65.6262,4.82083945 64.706744,6.18498284 64.2936515,6.2071526 C63.5491385,6.24710897 62.8215589,5.08376419 62.9183744,3.6249221 C63.0151899,2.16608002 64.468481,0.108901329 65.212994,0.0689449623 C74.9034005,-0.451117735 77.5593139,9.13320741 74.520626,25.256067 Z" id="形状结合" fill="url(#linearGradient-2)" fill-rule="nonzero"></path>
                <path d="M50.3380494,72.8950087 C53.250019,73.6755682 56.2185311,73.3610665 58.125154,72.0699969 C60.0317769,70.7789273 60.5867807,68.7074804 59.5810593,66.636105 C58.575338,64.5647296 56.1617207,62.8081913 53.249574,62.0282925 C50.3376044,61.247733 47.3690923,61.5622347 45.4624694,62.8533043 C43.5558465,64.1443739 43.0008427,66.2158208 44.0065641,68.2871962 C45.0122854,70.3585716 47.4259028,72.1151099 50.3380494,72.8950087 L50.3380494,72.8950087 Z" id="路径" fill-opacity="0.5" fill="#FFFFFF" fill-rule="nonzero"></path>
            </g>
            <g id="编组" stroke-width="1" transform="translate(64.000000, 2.500000)">
                <path d="M191.206373,53.4627344 C191.206373,53.4627344 206.302295,89.9478264 199.514046,126.101382 C194.245532,154.160981 174.315638,183.384628 133.353248,186.493984 C39.6126225,193.609609 18.5751225,160.197109 4.9626225,128.640859 L191.206373,53.4627344 Z" id="路径" fill="#548124" fill-rule="nonzero"></path>
                <path d="M83.5438725,7.67523437 C83.5438725,7.67523437 81.9969975,-1.11793792 124.381372,0.559609375 C165.940848,5.14302975 197.084497,44.4908594 195.228248,70.7877344 C193.371998,97.0846094 189.968872,100.487734 195.228248,109.459609 C200.487622,118.431484 189.968872,125.237734 180.996997,128.640859 C172.025123,132.043984 177.593872,153.081484 166.765747,153.081484 C156.246997,153.081484 152.534497,151.225234 143.871997,153.081484 C134.900122,154.937734 120.978247,132.043984 120.978247,132.043984 L89.1126225,67.0752344 L83.5438725,9.53148437" id="路径" fill="url(#linearGradient-3)" fill-rule="nonzero"></path>
                <path d="M9.2938725,141.015859 C9.2938725,141.015859 -19.1686275,76.0471094 23.5251225,30.5689844 C26.9282475,25.3096094 37.3117313,8.88921909 51.6124278,14.7148886 C65.9131242,20.5405581 68.594472,3.3076581 82.7541065,2.29335375 C96.913741,1.27904939 98.9999949,14.305166 108.293873,16.3377344 C117.587745,18.3703027 133.284131,11.3877344 140.090381,20.0502344 C147.206006,28.7127344 140.410647,37.6133705 150.929397,44.7289955 C161.448147,51.8446205 165.814585,49.9275373 168.312623,58.4127344 C170.81066,66.8979314 159.340748,81.3064844 163.053248,86.5658594 C166.765748,91.8252344 179.450123,102.343984 167.075123,114.718984 C154.700123,127.093984 147.584498,127.093984 147.584498,135.756484 C147.584498,144.418984 152.843873,153.390859 140.468873,158.650234 C128.093873,163.909609 115.718873,163.909609 113.862623,171.025234 C112.006373,178.140859 106.746998,181.543984 99.6313725,183.400234 C92.5157475,185.256484 78.2844975,172.881484 71.1688725,174.737734 C64.0532475,175.975234 35.9001225,186.493984 9.2938725,141.015859 Z" id="路径" fill="#86C958" fill-rule="nonzero"></path>
                <path d="M94.3719975,33.16 C94.3719975,33.16 70.9846354,51.2852057 74.5098594,76.4525775 C89.5301228,69.0834223 107.74829,64.3335147 129.640748,64.71625 C129.640748,64.71625 90.453477,64.71625 55.7321084,103.66048 C63.0321918,110.214999 88.3850578,128.913163 129.640748,117.31 C129.640748,117.31 93.1239552,139.828689 50.8743405,109.415159 C44.9431702,116.811097 39.2086553,125.437846 33.8975112,135.493158 C38.0772134,141.142455 52.1857126,156.330147 83.8532475,157.838125 C83.8532475,157.838125 46.1028097,157.838125 30.5445895,142.165045 C28.3687776,146.692423 26.2798826,151.492311 24.2935658,156.573243 L23.2199975,159.371 C23.0035205,158.984365 14.4986519,152.369467 12.6969975,145.463125 C12.6969975,145.463125 16.3481267,134.906599 25.1002137,121.426468 C20.4762281,113.006525 9.94371165,87.8040469 28.7844975,57.91 C28.7844975,57.91 15.6790736,101.49978 28.837712,115.955149 C37.5466012,103.804659 50.1790361,90.2340108 67.6556214,80.1095313 C67.5042215,72.18179 68.9335241,45.2236059 94.3719975,33.16 Z" id="形状结合" fill="url(#linearGradient-4)" fill-rule="nonzero"></path>
            </g>
            <g id="编组" stroke-width="1" transform="translate(225.648798, 131.351945) rotate(-4.000000) translate(-225.648798, -131.351945) translate(126.398798, 60.101945)">
                <path d="M14.0669922,118.087305 C14.0669922,118.087305 5.20058594,113.219922 2.98398437,116.533398 C0.767382812,119.846875 4.76640625,123.388867 4.76640625,123.388867 C4.76640625,123.388867 -0.763671875,125.102734 0.333203125,128.461914 C1.43007812,131.821094 7.12011719,131.158398 7.12011719,131.158398 C7.12011719,131.158398 4.97207031,136.916992 9.63378906,137.579688 C14.2955078,138.242383 18.203125,129.535938 18.203125,129.535938 C18.203125,129.535938 16.7863281,119.366992 14.0669922,118.087305 Z" id="路径" fill="#F7E300" fill-rule="nonzero"></path>
                <polygon id="路径" fill="#3B8234" fill-rule="nonzero" points="166.284906 0.217802734 170.500105 2.65149414 160.571102 19.848666 156.355902 17.4149746"></polygon>
                <path d="M164.293164,24.6929687 C156.203711,12.2388672 136.73418,7.30292969 116.510547,44.6423828 C100.90293,73.4810547 55.2912109,90.4826172 32.4167969,94.2074219 C9.54238281,97.9322266 2.57265625,140.756055 43.9796875,137.739648 C85.3867187,134.723242 116.510547,112.008789 134.814648,93.0419922 C153.11875,74.0751953 172.382617,37.1470703 164.293164,24.6929687 Z" id="路径" fill="#95D13C" fill-rule="nonzero"></path>
                <g id="编组-12" transform="translate(159.520051, 84.658635) scale(-1, 1) rotate(-89.000000) translate(-159.520051, -84.658635) translate(119.520051, 46.408635)" fill-rule="nonzero">
                    <polyline id="路径" fill="#679933" points="34.9633724 76.0736056 17.4214757 71.0389743 26.192424 62.1150306 7.41451287 53.5489991 14.5929042 43.7183446 0.0221959444 20.3108881 23.00731 18.4736056 32.6814997 19.8575327 55.4526881 26.3476735 59.4221959 60.9935725"></polyline>
                    <path d="M66.1785838,25.4743067 C66.1785838,25.4743067 62.9673579,5.35173334 57.9721177,0.291110014 C50.7409129,4.48830946 45.3650829,14.1778442 45.3650829,14.1778442 C45.3650829,14.1778442 38.0149438,3.86472554 27.3346445,0.0992380391 C22.2680437,6.11922124 24.4564347,18.6868356 24.4564347,18.6868356 C24.4564347,18.6868356 23.6476815,18.3270756 22.22047,17.9433317 C27.0254153,24.7308028 33.0910642,27.8966903 33.0910642,27.8966903 C33.0910642,27.8966903 25.9787936,30.271106 22.7913546,36.9146731 C31.1881155,44.4456481 44.4611823,44.3017442 44.4611823,44.3017442 C44.4611823,44.3017442 41.6781199,50.1298554 30.7837389,54.4469748 C45.8170332,61.9299818 56.3070377,58.9079982 56.4973325,58.8360462 C56.4973325,58.8360462 56.5211194,58.8360462 56.5211194,58.8120622 L78.9997003,38.6415209 C80.21283,32.1178738 80.5934198,19.4303395 76.4545065,14.6095561 C72.0301508,21.7328032 66.1785838,25.4743067 66.1785838,25.4743067 Z" id="路径" fill="#95D13C"></path>
                    <path d="M66.1785838,25.4743067 C66.1785838,25.4743067 62.9673579,5.35173334 57.9721177,0.291110014 C50.7409129,4.48830946 45.3650829,14.1778442 45.3650829,14.1778442 C45.3650829,14.1778442 38.0149438,3.86472554 27.3346445,0.0992380391 C37.678326,25.694476 68.2059478,50.8942161 68.3962427,50.8227232 C68.3962427,50.8227232 71.9307285,46.7623224 78.9997003,38.6415209 C80.21283,32.1178738 80.5934198,19.4303395 76.4545065,14.6095561 C72.0301508,21.7328032 66.1785838,25.4743067 66.1785838,25.4743067 Z" id="路径" fill="#6EC765"></path>
                </g>
                <path d="M164.293164,24.6929688 C162.122266,21.3337891 159.128711,18.5458984 155.518164,16.9462891 C153.872852,16.2378906 149.942383,20.4882813 148.914063,21.5623047 C146.674609,23.9160156 144.709375,26.5667969 142.812695,29.2175781 C138.996484,34.5648438 135.660156,40.2548828 132.34668,45.9449219 C117.58457,71.2873047 96.1269531,92.8363281 67.6996094,101.771289 C57.7820313,104.879102 47.6587891,107.278516 37.3755859,108.878125 C32.6681641,109.609375 27.9150391,110.020703 23.2076172,110.820508 C21.0138672,111.186133 14.546875,111.574609 14.18125,114.705273 C12.7873047,126.816602 20.8310547,139.407813 43.9339844,137.739648 C82.3246094,134.951758 118.224414,114.06543 142.195703,84.3583984 C150.148047,74.4865234 156.843555,63.175 161.573828,51.4064453 C164.590234,44.0939453 169.183398,32.2111328 164.293164,24.6929688 Z" id="路径" fill="#6EC765" fill-rule="nonzero"></path>
                <path d="M164.293164,24.6929688 C154.489844,40.9861328 152.958789,51.840625 131.226953,78.4398438 C99.0748047,117.744531 70.2361328,123.343164 47.2931641,126.49668 C31.1142578,128.713281 23.7560547,127.387891 16.8091797,127.570703 C20.8082031,134.174805 29.3775391,138.813672 43.9796875,137.7625 C85.3867188,134.746094 116.510547,112.031641 134.814648,93.0648438 C153.11875,74.0980469 172.382617,37.1470703 164.293164,24.6929688 L164.293164,24.6929688 Z" id="路径" fill="#46C373" fill-rule="nonzero"></path>
                <path d="M164.293164,24.6929688 C162.762109,35.8673828 158.785938,56.6623047 137.03125,83.2615234 C104.901953,122.566211 74.2808594,129.71875 51.3378906,132.872266 C35.1589844,135.088867 31.365625,133.900586 23.321875,133.969141 C28.0978516,136.848438 34.8619141,138.402344 44.0025391,137.739648 C85.4095703,134.723242 116.533398,112.008789 134.8375,93.0419922 C153.141602,74.0751953 172.382617,37.1470703 164.293164,24.6929688 Z" id="路径" fill="#3D9950" fill-rule="nonzero"></path>
                <path d="M148.868359,11.4390625 C151.577308,11.4390625 154.210715,11.9708807 156.683971,12.9839723 L156.877999,13.0653876 L156.877999,13.0653876 L157.163477,13.1757813 C158.643398,13.8308282 160.057494,14.6547291 161.388548,15.6333043 C161.469035,15.6935256 161.549902,15.7537114 161.630476,15.8144915 C161.687902,15.8569233 161.744352,15.8999485 161.800645,15.9432549 C161.854827,15.9857217 161.909464,16.0281017 161.963963,16.0707577 C162.03215,16.1234327 162.099446,16.1767286 162.166511,16.2304302 C162.20126,16.2588902 162.236154,16.2869803 162.27099,16.3151848 C162.367123,16.3924356 162.462362,16.4707924 162.557118,16.5499736 C162.586966,16.5754717 162.616997,16.6006872 162.646982,16.6259889 C162.716782,16.6843403 162.78605,16.743463 162.855051,16.8030293 C162.926764,16.865497 162.998124,16.927834 163.069212,16.9906668 C163.113078,17.0288482 163.156637,17.0676174 163.200085,17.1065656 C163.233899,17.1374986 163.26796,17.168212 163.301958,17.1990402 C163.546024,17.4196511 163.786024,17.646047 164.022389,17.8779887 C164.080914,17.9364384 164.139255,17.9942841 164.197385,18.0524839 C164.242114,18.0961403 164.286804,18.1411896 164.33136,18.1864397 C164.391472,18.2487145 164.451933,18.3107844 164.512157,18.3732422 C164.566061,18.4277917 164.619312,18.483481 164.672364,18.5394614 C164.722566,18.5939052 164.773246,18.6478794 164.823751,18.7021324 C164.893855,18.7758414 164.962948,18.8508958 165.031686,18.9264511 C165.042914,18.9405056 165.054989,18.9538128 165.067053,18.9671362 C166.033723,20.0323636 166.929075,21.1975588 167.74375,22.4535156 L167.475737,22.0488245 C167.565948,22.1825922 167.65529,22.3174919 167.74375,22.4535156 L167.617225,22.2620625 L167.74375,22.4535156 C173.272641,30.9516259 169.424756,42.8077596 166.411432,50.4579636 C165.410011,53.1446641 164.296378,55.7496232 163.173438,58.1705078 C163.050666,58.4357652 162.92656,58.7013827 162.801146,58.967318 L162.743666,59.0904507 C158.852423,67.4625639 154.002587,75.5995569 148.441127,83.0473288 C144.974604,87.8128816 141.345386,92.2079585 137.7625,95.9212891 C135.057591,98.7216649 131.737811,101.948573 127.836908,105.364809 C126.837462,106.25232 125.827224,107.126327 124.805664,107.986914 C117.241797,114.3625 109.038086,120.006836 100.491602,124.737109 C100.381512,124.798068 100.271368,124.858873 100.161171,124.919523 L100.03457,124.988477 C96.7158203,126.830664 93.3538011,128.525736 89.9538381,130.073693 L88.9812246,130.510063 L88.9053553,130.569398 C87.7741052,131.394808 84.9784306,132.26009 83.8533464,132.67776 L83.7922246,132.700063 L83.5357422,132.803711 C79.9469149,134.393185 75.508334,135.831001 70.8448808,137.071376 C70.693909,137.161794 70.5280927,137.233466 70.3503906,137.282617 C61.8267578,139.704883 53.1203125,141.235938 44.2996094,141.875781 C42.8142578,141.990039 41.3517578,142.035742 39.9578125,142.035742 C34.6765625,142.035742 29.9979618,141.280523 25.966086,139.792124 L25.8755881,139.758967 C24.9936242,139.433229 24.1420829,139.072384 23.321875,138.676563 C18.9572266,136.574219 15.5523438,133.557813 13.2214844,129.695898 C13.1459448,129.571936 13.0776288,129.44469 13.0165504,129.314773 C10.4717668,124.941712 9.43323796,119.726391 10.0679688,114.225391 C10.1064673,113.857516 10.1793973,113.464818 10.3012982,113.059589 C10.9832952,108.761939 12.6720833,104.541014 15.2095703,100.90293 C19.3,95.0529297 25.1728516,91.2367188 31.7541016,90.1626953 C51.5892578,86.9177734 97.5208984,71.0816406 112.9,42.7 C126.885156,16.8548828 140.184766,11.4390625 148.868359,11.4390625 Z M164.293164,24.6929688 C154.512695,40.9861328 152.981641,51.840625 131.18125,78.4398437 C99.0291016,117.744531 70.1904297,123.343164 47.2474609,126.49668 C39.6607422,127.547852 33.9935547,127.799219 29.4232422,127.799219 C24.8757813,127.799219 21.3794922,127.547852 18.1117188,127.547852 C17.6546875,127.547852 17.1976563,127.570703 16.7634766,127.570703 L16.8269085,127.569893 C19.0082078,131.189522 22.5630769,134.218485 27.724943,136.046742 C27.7724217,136.063364 27.819212,136.079659 27.866133,136.095855 L27.724943,136.046742 C27.9017314,136.109358 28.0804049,136.170566 28.2609727,136.23034 L27.866133,136.095855 C29.3520732,136.608784 30.9691821,137.023182 32.7228663,137.324817 C32.7797905,137.335026 32.8376135,137.344817 32.8955845,137.354486 L32.7228663,137.324817 C32.8776344,137.351437 33.0334662,137.377179 33.1903654,137.402033 L32.8955845,137.354486 C33.0858602,137.386223 33.2777296,137.416642 33.4711994,137.445725 L33.1903654,137.402033 C33.3508956,137.427462 33.5125432,137.451962 33.6753121,137.475521 L33.4711994,137.445725 C33.6563555,137.473558 33.8429774,137.500167 34.0310712,137.525537 L33.6753121,137.475521 C33.8367368,137.498886 33.9992645,137.521326 34.162899,137.542831 L34.0310712,137.525537 C34.1757118,137.545046 34.3212228,137.563823 34.4676069,137.581859 L34.162899,137.542831 C34.3392958,137.566013 34.5169788,137.58811 34.695953,137.609107 L34.4676069,137.581859 C34.6286099,137.601696 34.7906691,137.620638 34.9537881,137.638675 L34.695953,137.609107 C34.8937234,137.632309 35.0930703,137.654169 35.2940003,137.674669 L34.9537881,137.638675 C35.0953275,137.654326 35.2376648,137.669296 35.3808023,137.683579 L35.2940003,137.674669 C35.4496501,137.69055 35.6062499,137.705614 35.7638027,137.719856 L35.3808023,137.683579 C35.5798801,137.703443 35.7805058,137.721977 35.982686,137.739165 L35.7638027,137.719856 C35.9679405,137.738307 36.1736783,137.755376 36.3810226,137.771045 L35.982686,137.739165 C36.1404003,137.752573 36.2990605,137.765161 36.4586696,137.776923 L36.3810226,137.771045 C36.5523098,137.783988 36.7246933,137.795976 36.8981769,137.806998 L36.4586696,137.776923 C36.6520184,137.79117 36.8467597,137.804203 37.0428988,137.816008 L36.8981769,137.806998 C37.0730545,137.818109 37.24905,137.828239 37.4261671,137.837377 L37.0428988,137.816008 C37.2291885,137.827221 37.4167392,137.837325 37.6055555,137.84631 L37.4261671,137.837377 C37.6141774,137.847078 37.8034517,137.855662 37.9939944,137.863116 L37.6055555,137.84631 C37.7925455,137.855207 37.9807766,137.863007 38.1702534,137.869696 L37.9939944,137.863116 C38.1811863,137.87044 38.3696024,137.876673 38.5592472,137.881806 L38.1702534,137.869696 C38.3544419,137.876198 38.5398076,137.881651 38.7263544,137.886045 L38.5592472,137.881806 C38.7145708,137.88601 38.8707186,137.889475 39.0276929,137.892196 L38.7263544,137.886045 C39.1090071,137.895057 39.4966297,137.899609 39.8892578,137.899609 L39.8892578,137.899609 L40.6762656,137.891748 C41.7329219,137.871273 42.8188281,137.812773 43.9339844,137.739648 C44.0696722,137.729517 44.2053256,137.719168 44.3409444,137.708601 C52.4398458,137.007138 72.0534244,132.047543 84.1148884,128.089422 C87.9395732,126.507968 91.6958367,124.754157 95.37096,122.839876 C107.317152,116.561316 117.582249,109.017485 126.009382,101.521234 C131.871225,96.2382675 137.30935,90.4981413 142.241406,84.38125 C142.908355,83.5533137 143.566463,82.7152511 144.215313,81.8676418 C158.932875,62.0841295 170.987833,34.9997338 164.293164,24.6929688 Z M155.106836,16.8548828 C153.301563,16.8548828 149.873828,20.5568359 148.936914,21.5623047 C146.697461,23.9160156 144.732227,26.5896484 142.835547,29.2175781 C138.996484,34.5876953 135.683008,40.2548828 132.369531,45.9449219 C117.58457,71.2873047 96.1498047,92.8363281 67.6996094,101.794141 C57.7820313,104.901953 47.6359375,107.278516 37.3755859,108.900977 C32.6681641,109.632227 27.8921875,110.043555 23.2076172,110.843359 C21.1325008,111.20704 15.3523072,111.57072 14.3228792,114.165542 L14.3063252,114.275501 C13.873659,117.498595 14.1045722,120.769967 15.1060242,123.81009 C15.6194531,123.588393 16.1750559,123.468093 16.740625,123.457422 C17.1748047,123.43457 17.6089844,123.43457 18.0888672,123.43457 C19.665625,123.43457 21.2652344,123.480273 22.95625,123.548828 C24.9443359,123.617383 27.0238281,123.685938 29.4003906,123.685938 C34.9076172,123.685938 40.3919922,123.297461 46.6761719,122.429102 C71.3101563,119.024219 97.8865234,112.648633 128.004883,75.8347656 C142.744141,57.8277344 147.977148,47.2703125 153.027344,37.0556641 C155.289648,32.5082031 157.620508,27.7779297 160.72832,22.6134766 C161.00362,22.1638197 161.359994,21.7731251 161.772282,21.4576714 C159.95384,19.5150073 157.792056,17.9209338 155.353653,16.8808157 C155.279186,16.8620804 155.19661,16.8548828 155.106836,16.8548828 Z M148.868359,15.5523438 C139.727734,15.5523438 128.233398,23.0019531 116.533398,44.6652344 C100.925781,73.5039063 55.3140625,90.5054688 32.4396484,94.2302734 C24.7520722,95.4797035 18.8604024,101.157928 16.0029561,108.028721 C17.9496308,107.400436 20.0687875,107.113276 21.49375,106.912891 C21.8822266,106.867188 22.2478516,106.821484 22.4763672,106.775781 C25.1042969,106.31875 27.7550781,105.998828 30.3144531,105.678906 C32.4167969,105.404688 34.5876953,105.130469 36.6900391,104.810547 C46.7447266,103.233789 56.7308594,100.880078 66.4199219,97.8408203 C97.6808594,88.0146484 117.561719,63.0607422 128.758984,43.8654297 C132.049609,38.2210938 135.431641,32.3939453 139.430664,26.8181641 C141.373047,24.1216797 143.475391,21.2652344 145.897656,18.7287109 L145.897656,18.7287109 L146.034766,18.5916016 C147.127964,17.4385019 148.16228,16.4129813 149.16183,15.5552353 Z" id="形状结合" fill="#3B8234" fill-rule="nonzero"></path>
            </g>
            <g id="编组-3" stroke-width="1" transform="translate(157.295076, 66.500000) rotate(-2.000000) translate(-157.295076, -66.500000) translate(103.795076, 43.000000)">
                <path d="M41.5644331,35.1467746 C41.5644331,33.8584047 42.6610848,32.8139746 44.0138731,32.8139746 C45.3666615,32.8139746 46.4633131,33.8584047 46.4633131,35.1467746 C46.4633131,39.0118842 49.7532681,42.1451746 53.8116331,42.1451746 C57.8699982,42.1451746 61.1599531,39.0118842 61.1599531,35.1467746 C61.1599531,33.8584047 62.2566048,32.8139746 63.6093931,32.8139746 C64.9621815,32.8139746 66.0588331,33.8584047 66.0588331,35.1467746 C66.0516009,41.5857687 60.572577,46.8038868 53.8116331,46.8107746 C47.0506893,46.8038868 41.5716653,41.5857687 41.5644331,35.1467746 Z" id="路径" fill="#000000" fill-rule="nonzero"></path>
                <ellipse id="椭圆形备份-13" fill="#FF9FB5" cx="14.9304803" cy="29.3777728" rx="14.85" ry="7.425"></ellipse>
                <ellipse id="椭圆形备份-14" fill="#FF9FB5" cx="91.6836958" cy="32.0580542" rx="14.85" ry="7.425"></ellipse>
                <ellipse id="椭圆形备份-15" fill="#FFFFFF" transform="translate(9.367375, 29.167539) rotate(43.000000) translate(-9.367375, -29.167539) " cx="9.36737507" cy="29.1675389" rx="1.49948582" ry="4.50268255"></ellipse>
                <ellipse id="椭圆形备份-17" fill="#FFFFFF" transform="translate(86.120591, 31.847820) rotate(43.000000) translate(-86.120591, -31.847820) " cx="86.1205906" cy="31.8478202" rx="1.49948582" ry="4.50268255"></ellipse>
                <ellipse id="椭圆形备份-16" fill="#FFFFFF" transform="translate(18.277375, 29.167539) rotate(43.000000) translate(-18.277375, -29.167539) " cx="18.2773751" cy="29.1675389" rx="1.49948582" ry="4.50268255"></ellipse>
                <ellipse id="椭圆形备份-18" fill="#FFFFFF" transform="translate(95.030591, 31.847820) rotate(43.000000) translate(-95.030591, -31.847820) " cx="95.0305906" cy="31.8478202" rx="1.49948582" ry="4.50268255"></ellipse>
                <path d="M27.00949,7.75839802 C27.1321293,11.6206049 30.3632301,14.631274 34.2263555,14.4829156 C38.0894808,14.3345573 41.1217439,11.0833518 40.9991045,7.22114487 C40.8764651,3.35893798 37.6453644,0.3482689 33.782239,0.49662726 C29.9191136,0.64498562 26.8868506,3.89619113 27.00949,7.75839802 Z" id="路径" fill="#000000" fill-rule="nonzero" transform="translate(34.004297, 7.489771) rotate(2.000000) translate(-34.004297, -7.489771) "></path>
                <path d="M70.1839265,9.24170731 C70.2711846,11.7404561 71.68488,14.0028436 73.8924874,15.1766501 C76.1000948,16.3504567 78.7662261,16.2573533 80.8865753,14.932411 C83.0069245,13.6074688 84.2593602,11.2519779 84.172102,8.75322908 C84.0372125,4.89049822 80.7965033,1.86848574 76.9337753,2.00337527 C73.0710473,2.13826481 70.0490371,5.37897645 70.1839265,9.24170731 L70.1839265,9.24170731 Z" id="路径" fill="#000000" fill-rule="nonzero" transform="translate(77.177981, 8.997430) rotate(2.000000) translate(-77.177981, -8.997430) "></path>
            </g>
        </g>
    </g>
</svg>