<?xml version="1.0" encoding="UTF-8"?>
<svg width="284px" height="241px" viewBox="0 0 284 241" version="1.1" xmlns="http://www.w3.org/2000/svg" xmlns:xlink="http://www.w3.org/1999/xlink">
    <!-- Generator: Sketch 61.2 (89653) - https://sketch.com -->
    <title>菠萝+芒果+香蕉</title>
    <desc>Created with Sketch.</desc>
    <defs>
        <linearGradient x1="68.356074%" y1="27.0870274%" x2="40.1227137%" y2="63.8156448%" id="linearGradient-1">
            <stop stop-color="#FECF4C" offset="0%"></stop>
            <stop stop-color="#FFC525" offset="100%"></stop>
        </linearGradient>
        <path d="M123.943814,83.6162353 C157.538579,54.322946 152.827113,29.5545225 139.698047,15.1441045 C126.568981,0.755194635 86.6221829,-11.33235 53.0462108,18.00468 C37.0115317,32.0279525 30.9559031,44.9337431 20.8992767,49.0184815 C-5.35611078,59.6827327 -1.67841223,77.3016153 5.18744358,84.8294456 C11.1708541,91.4109201 28.1312588,96.0568138 43.8830301,99.1165179 C64.0489658,103.033652 101.849667,102.881446 123.943814,83.6162353 Z" id="path-2"></path>
        <linearGradient x1="93.7328694%" y1="50%" x2="45.6753792%" y2="42.9647196%" id="linearGradient-4">
            <stop stop-color="#F7A10C" offset="0%"></stop>
            <stop stop-color="#F3BA2F" offset="100%"></stop>
        </linearGradient>
    </defs>
    <g id="蔬菜水果" stroke="none" stroke-width="1" fill="none" fill-rule="evenodd">
        <g id="菠萝" transform="translate(0.000000, 1.000000)">
            <ellipse id="椭圆形" fill-opacity="0.1" fill="#000000" cx="139" cy="212" rx="107" ry="28"></ellipse>
            <g id="编组" stroke-width="1" transform="translate(122.000000, 106.000000)">
                <g id="路径">
                    <mask id="mask-3" fill="white">
                        <use xlink:href="#path-2"></use>
                    </mask>
                    <use id="蒙版" fill="url(#linearGradient-1)" fill-rule="nonzero" xlink:href="#path-2"></use>
                    <path d="M80.7647984,3 C79.3048815,6.74049331 78.8182426,10.308726 79.3048815,13.704698 C80.03484,18.7986561 84.5672898,40.7632947 82.9239402,51.674827 C81.3329174,62.2389198 83.867686,76.2330841 97.7631939,75.3058071 C103.014075,73.8137681 107.753507,71.5643235 111.471515,68.6499888 C120.672458,61.1715161 138.000103,45.4535403 132.378857,19.6259571 C141.689698,13.6013925 146.548839,42.5585369 150.9062,39.5233475 C149.951781,48.3887608 145.821793,62.5262262 133.344209,75.8362149 L122.203337,91.9165054 L102.068536,96.5006571 C91.4108961,100.595489 79.3910705,103.293205 68.2039033,104.209827 L65.3751514,104.853629 L62.7328055,104.51669 C62.1361745,104.534126 61.5431575,104.545985 60.9541192,104.552205 C55.563537,104.609128 49.0554637,103.574397 42.5048487,101.929058 L36.3219332,101.138325 L36.4730453,100.249554 C24.8642019,96.707215 14.1825805,91.6782195 10.6233971,87.9349714 C16.3054848,91.4407895 26.8240434,53.4698355 43.5758979,53.4233038 C44.5525874,57.0388982 46.1152957,60.2113802 48.1349811,62.9638176 L68.8601778,10.0798245 L73.5382152,5.5 L80.7647984,3 Z" id="形状结合" fill="url(#linearGradient-4)" fill-rule="nonzero" mask="url(#mask-3)"></path>
                </g>
                <path d="M96.9727793,14.3509827 C90.137762,18.9318652 84.7214789,22.8032513 83.4732545,21.0158448 C82.2250301,19.2284383 86.7589433,14.086489 93.5939608,9.50560666 C100.428978,4.92472415 108.922785,5.46801352 110.171009,7.25542001 C111.41922,9.02130054 103.807797,9.77010022 96.9727793,14.3509827 L96.9727793,14.3509827 Z" id="路径" fill="#FFFFFF" fill-rule="nonzero" opacity="0.5" transform="translate(96.786516, 13.704698) rotate(24.000000) translate(-96.786516, -13.704698) "></path>
                <path d="M133.968651,21.789428 C135.524336,22.9721373 137.247049,23.3535327 137.81644,22.6412985 C138.385831,21.9290644 137.586283,20.3929092 136.030598,19.2102 C135.024247,18.4451211 133.897838,17.9839582 133.075678,18.0004268 C132.253518,18.0168953 131.860513,18.5084934 132.044704,19.2900408 C132.228896,20.0715882 132.9623,21.0243492 133.968651,21.789428 L133.968651,21.789428 Z" id="路径" fill="#F67512" fill-rule="nonzero"></path>
                <path d="M139.754346,3 C139.754346,3 141.1667,11.5815423 134.458019,17.802609 C132.775656,19.3689059 136.098842,23.1412548 138.425072,21.6631999 C140.751301,20.1851451 146.649956,14.7141361 148,6.92677258 L139.754346,3 Z" id="路径" fill="#B05C3A" fill-rule="nonzero"></path>
                <path d="M146.04685,6 C144.681745,10.9639385 141.489499,19.2812933 135,21.0683113 C135.924071,21.9066653 137.226171,22.3479043 138.318255,21.6639838 C140.670436,20.1858333 146.634895,14.7144699 148,6.92660194 L146.04685,6 Z" id="路径" fill="#91482F" fill-rule="nonzero"></path>
                <path d="M142.725791,7.29562004 C144.309426,7.9170569 145.920396,8.14903037 146.95181,7.9041503 C147.983224,7.65927023 148.278368,6.97474379 147.726054,6.10844901 C147.17374,5.24215424 145.857887,4.32571627 144.274209,3.70437996 C142.690574,3.0829431 141.079604,2.85096963 140.04819,3.0958497 C139.016776,3.34072977 138.721632,4.02525621 139.273946,4.89155099 C139.82626,5.75784576 141.142113,6.67428373 142.725791,7.29562004 L142.725791,7.29562004 Z" id="路径" fill="#CE7557" fill-rule="nonzero"></path>
                <path d="M152.874555,48.3831772 C156.065176,49.5156053 155.278156,53 155.278156,53 C155.278156,53 175.655589,31.178979 145.451044,12.167251 C145.451044,12.167251 144.366233,11.9059213 144.04717,12.0365862 C143.536671,12.2108058 142.664568,13.6045637 142.664568,13.6045638 C142.664568,13.6045638 132.156789,41.0659486 152.874555,48.3831772 Z" id="路径" fill="#679933" fill-rule="nonzero"></path>
                <path d="M152.421532,18 C172.159318,35.2541233 155.274675,53 155.274675,53 C155.274675,53 156.062483,49.579108 152.868667,48.4673182 C136.942168,42.9297496 139.475929,25.7397678 141.49868,18.0855223 C142.818791,19.3683566 144.415699,20.8222358 146.353281,22.4685399 C147.781315,23.6783178 148.910988,24.3893191 149.798691,24.7209192 C153.029361,32.588878 154.972475,40.5814658 155.63151,48.7003092 C154.866825,38.6082128 153.56392,30.6210625 151.722792,24.7388582 C153.208322,23.8657027 152.879161,20.4289427 152.421532,18 Z" id="形状结合" fill="#95D13C" fill-rule="nonzero"></path>
            </g>
            <g id="编组" stroke-width="1" transform="translate(85.500000, 150.000000) rotate(3.000000) translate(-85.500000, -150.000000) translate(0.000000, 89.000000)">
                <path d="M169.266797,45.3234374 C169.266797,45.3234374 170.504297,45.3234374 170.504297,46.5609375 C170.504297,47.7984376 169.266797,47.1796874 169.885547,49.3453125 C170.504297,51.5109376 169.885547,53.6765624 168.957422,53.9859375 C168.029297,54.2953126 166.791797,52.1296875 166.791797,49.6546876 C167.101172,47.1796876 169.266797,45.3234374 169.266797,45.3234374 L169.266797,45.3234374 Z M142.969922,90.4921876 C143.898047,90.1828125 146.373047,91.1109375 146.682422,92.3484376 C146.991797,93.5859376 145.444922,94.2046876 145.444922,95.1328126 C145.444922,96.0609376 146.063672,98.8453126 143.898047,98.8453126 C141.732422,98.5359375 142.660547,96.6796875 142.969922,94.8234375 C143.279297,92.6578124 142.041797,91.1109375 142.969922,90.4921876 L142.969922,90.4921876 Z" id="形状" fill="#45341A" fill-rule="nonzero"></path>
                <path d="M48.6105469,5.41406244 C48.6105469,5.41406244 47.991797,14.6953124 54.7980469,16.5515624 C58.8199219,17.7890625 78.9292969,31.4015624 80.7855469,32.0203126 C107.082422,41.9203125 110.794922,43.1578126 134.307422,41.6109374 C157.819922,40.0640623 169.266797,46.2515624 169.266797,46.2515624 C169.266797,46.2515624 170.194922,50.8921874 169.266797,52.7484374 C167.719922,55.2234374 164.007422,57.6984375 164.007422,57.6984375 C164.007422,57.6984375 166.482422,58.6265625 166.482422,59.2453124 C166.482422,59.8640624 163.388672,67.5984374 161.223047,69.4546874 C154.107422,76.2609375 148.229297,80.9015625 128.119922,81.5203124 C128.119922,81.5203124 140.804297,88.3265625 141.732422,90.8015624 C142.660547,93.2765624 144.516797,105.032813 124.407422,106.270313 C104.298047,107.507813 91.3042969,104.104688 91.3042969,104.104688 C91.3042969,104.104688 86.973047,117.098438 66.2449219,116.789062 C45.5167969,116.479687 1.89492188,102.248438 1.89492188,51.2015625 C1.27617193,27.9984375 19.2199218,20.8828126 22.6230469,19.0265626 C26.0261721,17.1703126 27.2636719,12.8390626 27.2636719,8.5078125 C27.2636719,8.5078125 28.1917969,6.96093756 30.3574218,3.55781244 C32.5230467,0.15468732 46.4449219,-1.7015625 48.6105469,5.41406244 Z" id="路径" fill="#F7A10C" fill-rule="nonzero"></path>
                <path d="M165.554297,58.3171874 C165.554297,58.3171874 167.719922,58.6265625 167.410547,59.2453124 C167.101172,60.1734374 167.410547,61.1015624 168.029297,62.0296874 C168.648047,62.9578124 167.719922,63.2671875 167.410547,63.8859374 C167.101172,64.5046874 168.338672,66.6703124 165.863672,65.4328126 C163.388672,64.1953127 163.698047,61.4109375 164.007422,60.7921876 C164.316797,60.1734376 164.007422,58.6265625 165.554297,58.3171874 L165.554297,58.3171874 Z" id="路径" fill="#45341A" fill-rule="nonzero"></path>
                <path d="M47.6824219,10.3640625 C47.6824219,10.3640625 49.2292969,27.3796876 65.9355469,34.8046876 C89.4480469,45.6328125 114.198047,65.1234375 169.576172,50.2734375 C170.194922,49.3453125 169.576172,46.5609375 169.576172,46.5609375 C169.576172,46.5609375 165.244922,39.4453126 135.235547,40.3734376 C104.607422,41.6109376 107.391797,36.3515625 78.9292969,27.9984375 C76.1449219,27.0703125 65.3167969,19.6453125 55.4167968,15.9328125 C50.1574219,13.7671874 49.8480468,8.19843744 49.8480468,8.19843744 C49.8480468,8.19843744 48.3011719,6.34218744 47.6824219,10.3640625 Z" id="路径" fill="#FDCB37" fill-rule="nonzero"></path>
                <path d="M128.738672,56.1515626 C99.9667968,56.7703125 82.0230468,45.0140626 78.6199218,42.2296876 C75.2167969,39.4453126 58.8199218,27.9984375 54.4886718,25.5234376 C50.1574219,23.0484376 49.2292969,19.0265626 47.9917968,16.8609375 C46.7542968,14.3859376 47.9917968,11.6015626 47.9917968,10.6734376 C47.9917968,9.74531256 46.7542968,9.4359375 46.7542969,9.4359375 C46.7542971,9.4359375 44.8980469,9.12656244 44.2792968,10.0546874 C44.2792968,14.6953124 44.8980468,23.6671874 52.0136719,30.1640626 C61.6042969,39.1359375 70.8855469,47.4890625 76.7636718,51.5109376 C82.6417969,55.5328126 95.3261718,65.4328126 133.379297,63.5765626 C148.538672,62.6484376 159.057422,62.0296876 166.482422,61.7203126 C166.791797,61.4109375 166.791797,58.9359376 166.791797,58.9359376 C159.676172,55.8421875 157.510547,55.5328126 128.738672,56.1515626 L128.738672,56.1515626 Z" id="路径" fill="#FFEEA1" fill-rule="nonzero"></path>
                <path d="M76.7636718,51.2015625 C70.8855468,47.1796874 61.6042968,38.8265624 52.0136719,29.8546875 C45.2074218,23.3578125 44.2792968,14.3859376 44.2792968,9.74531256 C42.4230468,10.3640625 40.5667968,12.2203125 40.8761719,19.3359374 C41.4949218,32.0203124 45.2074218,40.0640625 62.2230469,60.1734374 C79.2386719,80.2828124 101.823047,81.8296875 129.666797,82.4484374 C157.510547,83.0671874 165.863672,66.6703124 165.863672,66.6703124 C166.791797,64.5046874 166.482422,62.6484374 166.173047,61.1015624 C158.748047,61.4109375 148.229297,62.3390625 133.069922,62.9578124 C95.6355469,65.4328124 82.6417969,55.2234374 76.7636718,51.2015625 Z" id="路径" fill="#F5B60B" fill-rule="nonzero"></path>
                <path d="M143.898047,90.8015624 L143.279297,90.1828125 C142.660547,90.8015624 142.041797,91.1109375 142.041797,91.1109375 C141.423047,91.1109375 135.544922,86.4703125 102.132422,81.8296875 C78.3105469,78.4265626 65.3167969,66.0515625 58.2011718,56.4609374 C51.3949218,47.4890625 46.4449219,40.3734374 41.1855469,26.4515626 C39.0199219,20.2640626 39.3292969,14.0765625 39.9480469,11.2921875 C38.4011719,11.6015626 36.5449219,12.2203125 34.6886719,14.3859376 C34.6886719,14.3859376 35.926172,23.0484376 31.9042969,29.2359376 C27.8824219,35.4234375 22.932422,50.2734375 37.7824218,72.8578126 C52.6324218,95.7515625 86.6636718,105.651563 103.988672,106.889063 C121.313672,108.126563 134.616797,108.435937 142.969922,98.5359375 C142.969922,98.5359375 145.444922,98.2265624 145.135547,94.8234375 C145.135547,95.1328126 148.229297,92.0390625 143.898047,90.8015624 L143.898047,90.8015624 Z" id="路径" fill="#FDCB37" fill-rule="nonzero"></path>
                <path d="M90.0667969,100.082812 C90.0667969,100.082812 90.9949219,100.082812 87.9011718,99.1546874 C89.4480468,100.082812 90.0667969,100.701562 89.4480469,101.010937 C87.2824219,102.557812 86.3542969,106.579687 54.7980469,96.6796875 C23.2417969,86.4703125 16.7449219,55.2234376 19.8386719,44.7046875 C23.2417969,32.9484376 23.2417969,29.8546875 23.8605468,26.7609374 C24.4792968,23.6671874 29.4292968,15.3140624 29.4292968,15.3140626 C30.6667969,12.8390626 34.6886718,10.9828126 35.9261718,12.2203125 C38.0917969,5.10468756 26.9542969,3.8671875 26.6449218,8.81718756 C26.3355468,14.3859376 21.0761718,18.4078126 17.3636718,21.5015625 C13.6511718,24.2859375 0.038671875,27.3796876 0.038671875,52.7484374 C0.038671875,85.5421875 21.6949219,110.292187 49.8480468,117.717187 C77.6917968,125.142187 91.3042968,108.435937 91.3042969,108.435937 C92.2324219,103.176562 90.0667969,100.082812 90.0667969,100.082812 L90.0667969,100.082812 Z" id="路径" fill="#FDCB37" fill-rule="nonzero"></path>
                <path d="M29.7386719,15.0046875 C29.7386719,15.0046875 24.7886718,23.3578125 24.1699219,26.4515626 C23.5511719,29.5453126 23.5511719,32.6390625 20.1480468,44.3953124 C17.0542968,54.9140625 23.5511718,86.1609374 55.1074219,96.3703124 C86.6636719,106.270312 87.901172,102.557812 90.3761719,101.010937 C90.9949219,100.701562 91.3042969,99.7734374 88.2105469,99.1546874 C85.1167968,98.2265624 78.0011719,96.3703124 62.2230469,92.6578124 C29.7386719,85.2328124 26.6449218,53.6765624 26.6449218,50.2734375 C26.9542969,46.8703126 27.5730468,36.6609376 27.5730468,27.9984375 C27.5730468,19.3359374 34.9980468,14.3859376 34.9980468,14.3859376 C35.6167968,13.4578126 36.2355469,12.5296876 36.2355469,11.6015626 C34.9980468,10.6734376 30.9761719,12.5296876 29.7386719,15.0046875 Z" id="路径" fill="#FAF3AA" fill-rule="nonzero"></path>
                <path d="M89.4480469,100.082812 C90.0667969,98.5359375 92.5417968,102.248437 92.5417968,105.032812 C92.5417968,107.817188 92.2324218,108.435937 91.3042969,108.435937 C90.685547,108.435937 91.613672,107.817187 90.9949219,106.579687 C90.0667969,105.651562 88.5199219,101.939062 89.4480469,100.082812 L89.4480469,100.082812 Z" id="路径" fill="#45341A" fill-rule="nonzero"></path>
                <path d="M27.8824219,5.7234375 C27.8824219,5.7234375 25.4074219,6.6515625 26.6449218,8.5078125 C27.8824219,10.3640625 29.4292968,8.5078125 29.4292968,8.5078125 C29.4292968,8.5078125 28.1917968,9.74531256 28.5011718,11.2921875 C28.8105469,12.5296876 29.7386719,14.6953124 28.8105469,15.3140626 C28.1917969,15.9328125 30.6667969,16.5515626 31.2855468,14.3859376 C31.9042968,12.2203125 34.3792969,14.0765625 34.0699218,15.0046875 C33.7605468,15.9328125 36.2355469,16.2421876 38.0917969,13.1484375 C38.0917969,13.1484375 39.0199219,15.3140626 41.1855469,12.2203125 C43.351172,9.12656244 43.351172,11.6015626 45.5167969,10.6734376 C47.6824219,10.0546876 49.8480468,10.0546876 49.2292969,6.96093756 C48.6105469,4.17656256 45.8261719,1.0828125 43.6605469,0.77343744 C41.4949218,0.46406238 34.0699218,0.1546875 34.0699218,0.1546875 C34.0699218,0.1546875 32.2136718,-0.15468756 30.6667969,2.0109375 C29.1199219,3.8671875 27.8824219,5.7234375 27.8824219,5.7234375 L27.8824219,5.7234375 Z" id="路径" fill="#5F3F45" fill-rule="nonzero"></path>
                <path d="M39.3292969,0.46406256 C39.3292969,0.46406256 49.848047,0.46406256 47.0636718,10.3640625 C47.0636718,10.3640625 48.9199218,11.6015626 50.1574219,8.5078125 C50.1574219,8.5078125 50.1574219,2.9390625 46.7542969,1.39218756 C43.6605469,0.1546875 39.3292969,0.46406256 39.3292969,0.46406256 L39.3292969,0.46406256 Z" id="路径" fill="#92773B" fill-rule="nonzero"></path>
                <path d="M41.1855469,26.7609374 C46.4449219,40.9921875 51.3949219,47.7984374 58.2011718,56.7703125 C65.3167968,66.3609376 78.0011719,78.7359374 102.132422,82.1390626 C135.544922,86.7796876 141.423047,91.4203126 142.041797,91.4203126 C142.351172,91.4203126 143.279297,91.4203126 143.898047,90.8015624 C141.732422,88.9453124 135.235547,81.2109374 118.529297,80.2828126 C102.132422,79.6640626 77.3824218,73.4765625 65.0074219,58.6265625 C52.632422,43.7765625 51.3949219,36.6609376 46.4449219,30.7828125 C41.4949218,24.9046874 42.1136719,12.5296876 44.2792968,10.3640625 C44.2792968,10.3640625 43.3511718,9.12656244 39.9480469,10.9828124 C39.6386718,14.3859374 39.0199219,20.5734375 41.1855469,26.7609374 L41.1855469,26.7609374 Z" id="路径" fill="#FAF3AA" fill-rule="nonzero"></path>
                <path d="M78.5334713,27.0912581 C79.8530523,29.7597331 79.8530523,32.3866987 78.5334713,34.9721547 C77.2138903,37.5576107 76.2785076,38.8503387 75.7273234,38.8503387 L80.5218568,43.0674643 L79.0723667,52.7987527 L68.8231899,61.8146261 C71.5581498,64.8339269 75.4577055,67.986599 80.5218568,71.2726422 C80.0689432,74.039285 79.807685,75.6670889 79.7380824,76.1560537 L59.9739244,92.0538969 C72.8626332,95.7096574 79.711944,97.7271363 80.5218568,98.1063335 C81.3317697,98.4855307 80.8486063,100.291832 79.0723667,103.525236 C62.3811857,110.868414 43.9144035,110.74438 23.6720203,103.153136 C32.9054475,110.334374 39.1481188,116.321591 62.6983763,119.616039 C67.3792776,119.99909 81.3195404,118.17642 89.7238811,109.84683 C90.418865,109.436265 90.765889,108.195304 91.1377908,106.513134 C95.145001,107.707197 100.207915,108.681487 106.326534,109.436006 L94.2807575,71.2726422 L82.5919984,29.1301594 L78.5334713,27.0912581 Z" id="路径-7" fill-opacity="0.5" fill="#F7A10C" transform="translate(64.999277, 73.377340) rotate(-3.000000) translate(-64.999277, -73.377340) "></path>
            </g>
            <g id="编组-2" stroke-width="1" transform="translate(46.000000, -24.000000)">
                <path d="M47.0284996,27 C62.4347757,28.2311255 76.8966313,34.9175176 87.8142139,45.857143 C97.0392604,55.0597744 103.051144,66.5356551 105.578856,78.7084714 C117.657665,81.2340271 129.04806,87.192871 138.207071,96.3214287 L138.314214,96.3214287 C149.251387,107.226229 155.938103,121.676121 157.171357,137.071429 C155.195329,134.566938 153.072557,132.181801 150.814214,129.928571 C138.346071,117.427472 122.138989,109.731696 104.99597,107.757063 C103.949593,111.934019 102.477317,116.049167 100.568247,120.040975 C88.6460765,144.96988 62.2862989,159.657327 34.8142139,156.678571 C41.9654587,153.033644 48.4979006,148.284968 54.1713567,142.607143 C63.4108124,133.365525 69.8210384,122.366339 73.4020348,110.685962 C53.6815759,116.772534 37.0496822,130.576887 27.4927852,149.214286 C24.6239876,121.809607 39.3172637,95.566495 64.1800745,83.6884877 C68.124655,81.8039962 72.1896799,80.3458393 76.3155802,79.3038515 C74.4342507,62.5049728 67.0521633,46.2052504 54.1713567,33.3214287 C51.9173292,31.0750774 49.5321985,28.9642367 47.0284996,27 Z" id="形状结合" fill="#679933" fill-rule="nonzero" transform="translate(92.154269, 92.029918) rotate(-45.000000) translate(-92.154269, -92.029918) "></path>
                <path d="M54.0553368,50.083452 C54.0832231,59.8614217 57.2853483,69.3659631 63.1800403,77.167378 C69.5475295,69.1877985 73.0352795,59.2925858 73.0785705,49.0839261 C73.0506841,39.3059563 69.8485589,29.801415 63.9538669,22 C57.5908497,29.9820579 54.1036653,39.8756657 54.0553368,50.083452 L54.0553368,50.083452 Z M93.9718849,90 C84.1939152,89.9721137 74.6893739,86.7699884 66.8879589,80.8752964 C82.9163094,67.9761182 105.671493,67.6569338 122.055337,80.10147 C114.073279,86.4644871 104.179671,89.9516714 93.9718849,90 L93.9718849,90 Z" id="形状" fill="#79B53A" fill-rule="nonzero" transform="translate(88.055337, 56.000000) rotate(-45.000000) translate(-88.055337, -56.000000) "></path>
                <path d="M61.1738687,76.4421856 C45.7154362,76.4594417 30.7669008,81.9733925 19,91.9985348 C22.1603214,91.6283565 25.3388041,91.4344438 28.5206876,91.4176971 C53.210914,91.4167546 76.4141434,103.217952 90.9552316,123.172 C105.49632,143.126048 109.623229,168.828708 102.059793,192.331936 C123.439999,174.971016 131.592162,146.040403 122.421764,120.070833 C113.251366,94.1012625 88.7401358,76.7047771 61.1991223,76.6189623 L61.1738687,76.4421856 Z" id="路径" fill="#95D13C" fill-rule="nonzero"></path>
                <path d="M145.236574,104.10866 C156.183878,115.035374 162.870887,129.511228 164.093717,144.930088 C162.127283,142.417571 160.004002,140.031862 157.736574,137.787231 C140.29242,120.312476 115.540222,112.239047 91.1474815,116.067852 C66.7547407,119.896658 45.666452,135.165437 34.4151452,157.144374 C31.5285817,129.733071 46.2155118,103.474237 71.08282,91.5860593 C95.9501282,79.6978816 125.608878,84.7566195 145.129431,104.215803 L145.236574,104.10866 Z" id="路径" fill="#95D13C" fill-rule="nonzero" transform="translate(99.074527, 121.180671) rotate(-45.000000) translate(-99.074527, -121.180671) "></path>
                <path d="M73.1639776,66.2142857 C58.840116,80.7983759 50.0066046,99.8913796 48.1639776,120.25 C69.4998039,118.953515 89.6509391,110.000273 104.913978,95.0357143 C119.232924,80.4482264 128.065579,61.3570734 129.913978,41 C108.578151,42.2964852 88.4270161,51.2497271 73.1639776,66.2142857 L73.1639776,66.2142857 Z" id="路径" fill="#95D13C" fill-rule="nonzero" transform="translate(89.038978, 80.625000) rotate(-45.000000) translate(-89.038978, -80.625000) "></path>
                <path d="M151.390643,141.597025 L151.390643,175.134089 C151.415897,176.725079 151.314882,178.341323 151.163359,179.957568 C150.946285,182.606248 150.558251,185.23813 150.001684,187.836757 C148.342327,195.58643 145.119941,202.916285 140.531503,209.37826 C137.555181,213.649937 134.031718,217.51301 130.051171,220.868746 C124.207061,225.725993 117.498275,229.43596 110.277435,231.803647 C105.832481,233.255185 101.227953,234.162523 96.5646141,234.505805 C94.9988776,234.60682 93.4331413,234.707835 91.7663894,234.758343 C90.0996375,234.808851 88.6096627,234.682582 86.9934188,234.480551 C60.8661804,232.336313 39.1973789,213.392761 33.581603,187.78625 C33.0229336,185.197466 32.6432279,182.573278 32.4451813,179.932314 C32.344166,178.366577 32.2684046,176.725079 32.217897,175.108835 L32.2431508,141.597025 C32.2431508,139.98078 32.3189122,138.339283 32.4451813,136.748292 C32.6574249,134.108905 33.0369952,131.485652 33.5816028,128.894357 C38.0915655,108.232424 53.2059288,91.5038121 73.3058517,84.927467 C77.7758138,83.467802 82.4053752,82.5520646 87.0944339,82.200055 C88.6601704,82.0485321 90.2259067,81.9980245 91.8926585,81.9475169 C93.5594103,81.8970094 95.0493852,82.0232783 96.6908831,82.200055 C101.312647,82.5615886 105.874209,83.4772924 110.277435,84.927467 C117.494855,87.3029942 124.202238,91.0121854 130.051171,95.8623681 C131.381205,96.9903718 132.669149,98.177301 133.915004,99.423156 C136.337565,101.877445 138.550767,104.529909 140.531504,107.352853 C145.105217,113.823167 148.326229,121.149896 150.001684,128.894356 C150.558251,131.492984 150.946285,134.124866 151.163359,136.773546 C151.314882,138.38979 151.36539,140.056542 151.390643,141.597025 Z" id="路径" fill="#FFC400" fill-rule="nonzero"></path>
                <path d="M96.6403755,82.200055 C96.8126458,82.3471719 96.9730811,82.5076072 97.120198,82.6798775 L102.29723,87.8569093 C103.728191,89.2471422 104.539795,91.1545353 104.549296,93.1496063 C104.558796,95.1446772 103.765394,97.0597132 102.347801,98.4635744 L97.0697537,103.741622 C96.1885224,104.622853 95.1089906,105.259708 93.9363645,105.608936 L104.847389,116.519294 L115.757506,105.609498 C114.611245,105.269118 113.530953,104.646471 112.626039,103.741558 L107.347993,98.4635111 C105.932655,97.0751332 105.131035,95.1785915 105.121549,93.1959961 C105.112063,91.2134006 105.895562,89.3093397 107.297485,87.907417 L110.277435,84.927467 C117.516469,87.3124853 124.241705,91.0392087 130.101679,95.9128759 C129.715435,96.8684812 129.139894,97.7360886 128.409683,98.4635209 L123.131636,103.741568 C122.226732,104.646472 121.146453,105.269113 120.000206,105.609493 L131.54199,117.151324 C131.882369,116.005065 132.505015,114.924773 133.409928,114.01986 L138.687975,108.741813 C139.228608,108.179447 139.871407,107.725202 140.582011,107.403361 C145.155725,113.873675 148.376737,121.200404 150.052191,128.944864 L149.193562,129.803494 C146.292524,132.704531 141.589013,132.704531 138.687975,129.803494 L133.409928,124.525447 C132.505024,123.620543 131.882382,122.540265 131.542001,121.394019 L120.631389,132.303294 L131.541705,143.214219 C131.882022,142.067603 132.504762,140.986962 133.409928,140.081796 L138.687975,134.803749 C141.589013,131.902711 146.292524,131.902711 149.193562,134.803749 L151.213867,136.824054 C151.314882,138.38979 151.36539,140.056542 151.390643,141.597025 L151.390643,153.668348 L149.193562,155.865429 C146.292524,158.766467 141.589013,158.766467 138.687975,155.86543 L133.409928,150.587382 C132.505024,149.682479 131.882382,148.602201 131.542001,147.455955 L120.631389,158.365294 L131.514547,169.249532 C131.85962,168.13161 132.474578,167.079082 133.359421,166.194239 L138.637468,160.916192 C141.538505,158.015155 146.242016,158.015155 149.143054,160.916192 L151.390643,163.062766 L151.390643,175.134089 C151.415897,176.725079 151.314882,178.341323 151.163359,179.957568 L149.143054,181.977873 C146.242016,184.87891 141.538505,184.87891 138.637467,181.977873 L133.35942,176.699826 C132.454255,175.79466 131.831514,174.714018 131.491198,173.567402 L120.631389,184.427294 L131.488269,195.284971 C131.837533,194.195743 132.444414,193.171181 133.308913,192.306682 L138.58696,187.028635 C141.487997,184.127598 146.191509,184.127598 149.092546,187.028635 L150.052191,187.78625 C148.392835,195.535922 145.170448,202.865777 140.582011,209.327753 C139.853409,209.054451 139.184531,208.642834 138.612214,208.11557 L133.308913,202.812269 C132.404009,201.907365 131.781367,200.827087 131.440986,199.680841 L120.073574,211.046297 C121.246362,211.395513 122.326039,212.032446 123.207387,212.913794 L128.510688,218.217095 C129.210346,218.96848 129.751442,219.85313 130.101678,220.818238 C124.257569,225.675486 117.548783,229.385453 110.327942,231.753139 L107.347992,228.773189 C104.446955,225.872152 104.446955,221.16864 107.347992,218.267603 L112.626039,212.989556 C113.491252,212.099018 114.556842,211.448292 115.719314,211.081564 L104.847389,200.211294 L93.9372668,211.121333 C95.0838827,211.461649 96.1645246,212.08439 97.0696902,212.989556 L102.347737,218.267603 C105.248775,221.16864 105.248775,225.872152 102.347737,228.773189 L96.5898679,234.531059 C95.0241314,234.632074 93.4583951,234.733089 91.7916432,234.783597 C90.1248913,234.834105 88.6349165,234.707836 87.0186725,234.505805 C86.82634,234.36326 86.6561408,234.193061 86.5135963,234.000729 L81.2860568,228.773189 C78.3850193,225.872152 78.3850193,221.16864 81.2860568,218.267603 L86.5641038,212.989556 C87.4692695,212.08439 88.5499114,211.461649 89.6965273,211.121333 L78.7853893,200.211294 L67.8763047,211.121606 C69.0225634,211.462001 70.1028511,212.084652 71.0077547,212.989556 L76.2858017,218.267603 C79.1868392,221.16864 79.1868392,225.872152 76.2858017,228.773189 L73.3058517,231.753139 C66.0843417,229.39251 59.3810561,225.672272 53.5573694,220.792984 C53.9310449,219.844315 54.498751,218.984154 55.2240243,218.267506 L60.5020714,212.989459 C61.406975,212.084555 62.4872627,211.461922 63.6335214,211.121554 L52.0917931,199.579826 C51.751412,200.726072 51.1287697,201.80635 50.2238661,202.711254 L44.9458191,207.989301 C44.4051867,208.551667 43.7623871,209.005912 43.051783,209.327753 C38.4983423,202.845992 35.279198,195.523512 33.581603,187.78625 L34.4402327,186.92762 C37.3412702,184.026583 42.0447814,184.026583 44.9458189,186.92762 L50.223866,192.205667 C51.1290316,193.110833 51.7517725,194.191475 52.0920887,195.338091 L63.0013893,184.427294 L52.0910413,173.515965 C51.7418492,174.688664 51.1050098,175.768174 50.223866,176.649318 L44.9458189,181.927365 C42.0447814,184.828403 37.3412701,184.828403 34.4402325,181.927365 L32.4451813,179.932314 C32.344166,178.366577 32.2684046,176.725079 32.217897,175.108835 L32.1926432,163.012259 L34.3897249,160.815177 C37.2907625,157.914139 41.9942737,157.914139 44.8953113,160.815177 L50.1733584,166.093224 C51.0800907,166.982684 51.7349353,168.08071 52.0909797,169.276311 L63.0013893,158.365294 L52.1318898,147.495242 C51.7650625,148.657063 51.114461,149.722298 50.223866,150.587382 L44.9458189,155.865429 C43.5396114,157.271929 41.6281265,158.055803 39.6392928,158.041564 C37.6504592,158.027324 35.7503946,157.216159 34.364471,155.789668 L32.1673893,153.592586 L32.1926432,141.546517 C32.1926432,139.930273 32.2684046,138.288775 32.3946737,136.697785 L34.3897249,134.702734 C35.7910597,133.273888 37.7096439,132.470917 39.7109726,132.475671 C41.7123013,132.480424 43.6270493,133.292501 45.0215804,134.727987 L50.223866,139.930273 C51.1440794,140.824128 51.8080711,141.931666 52.1675452,143.138646 L63.0013893,132.303294 L52.1904857,121.491939 C51.8529566,122.671274 51.2253404,123.760033 50.3501351,124.651716 L45.1731032,129.828748 C42.2720657,132.729785 37.5685545,132.729785 34.6675169,129.828748 L33.8088873,128.970118 C35.4250848,121.262315 38.5491011,113.950057 43.0012754,107.453869 C43.7118795,107.775709 44.3546791,108.229954 44.8953113,108.792321 L50.1733584,114.070368 C51.0698927,114.924725 51.7297841,115.980718 52.1082068,117.136079 L63.5688022,105.676198 C62.4937213,105.325076 61.4828959,104.722286 60.6284374,103.867827 L55.2241212,98.463511 C54.5042772,97.7424388 53.9373746,96.8834955 53.5573694,95.9381297 C59.3810561,91.0588416 66.0843417,87.3386039 73.3058517,84.9779746 L76.2858017,87.9579246 C77.7346975,89.3387778 78.5650739,91.2458782 78.5888432,93.2472501 C78.6126124,95.2486221 77.8277631,97.1749056 76.4120709,98.5897803 L71.1340238,103.867827 C70.2288582,104.772993 69.1482163,105.395734 68.0016004,105.73605 L78.7853893,116.519294 L89.6965412,105.609024 C88.4894021,105.249573 87.3819898,104.585602 86.4883423,103.665797 L81.2860568,98.4635111 C78.3850192,95.5624735 78.3850192,90.8589622 81.2860568,87.9579246 L86.5641038,82.6798775 C86.696582,82.4946487 86.8586976,82.3325332 87.0439263,82.200055 C88.6096628,82.0485321 90.1753991,81.9980245 91.8421509,81.9475169 C93.5089027,81.8970094 94.9988776,82.0232783 96.6403755,82.200055 Z M78.7853893,174.149294 L68.5073893,184.427294 L78.7853893,194.705294 L89.0633893,184.427294 L78.7853893,174.149294 Z M104.847389,174.149294 L94.5693893,184.427294 L104.847389,194.705294 L115.125389,184.427294 L104.847389,174.149294 Z M78.7853893,148.087294 L68.5073893,158.365294 L78.7853893,168.643294 L89.0633893,158.365294 L78.7853893,148.087294 Z M104.847389,148.087294 L94.5693893,158.365294 L104.847389,168.643294 L115.125389,158.365294 L104.847389,148.087294 Z M78.7853893,122.025294 L68.5073893,132.303294 L78.7853893,142.581294 L89.0633893,132.303294 L78.7853893,122.025294 Z M104.847389,122.025294 L94.5693893,132.303294 L104.847389,142.581294 L115.125389,132.303294 L104.847389,122.025294 Z" id="形状结合" fill="#FFD740" fill-rule="nonzero"></path>
                <g id="编组-3" transform="translate(91.555337, 140.000000) rotate(-2.000000) translate(-91.555337, -140.000000) translate(47.055337, 120.000000)">
                    <path d="M34.6370276,29.2889788 C34.6370276,28.2153373 35.550904,27.3449788 36.6782276,27.3449788 C37.8055512,27.3449788 38.7194276,28.2153373 38.7194276,29.2889788 C38.7194276,32.5099035 41.4610567,35.1209788 44.8430276,35.1209788 C48.2249985,35.1209788 50.9666276,32.5099035 50.9666276,29.2889788 C50.9666276,28.2153373 51.880504,27.3449788 53.0078276,27.3449788 C54.1351512,27.3449788 55.0490276,28.2153373 55.0490276,29.2889788 C55.0430008,34.6548073 50.4771475,39.003239 44.8430276,39.0089788 C39.2089077,39.003239 34.6430545,34.6548073 34.6370276,29.2889788 Z" id="路径" fill="#000000" fill-rule="nonzero"></path>
                    <ellipse id="椭圆形备份-13" fill="#FF9FB5" cx="12.4420669" cy="24.4814774" rx="12.375" ry="6.1875"></ellipse>
                    <ellipse id="椭圆形备份-14" fill="#FF9FB5" cx="76.4030798" cy="26.7150451" rx="12.375" ry="6.1875"></ellipse>
                    <ellipse id="椭圆形备份-15" fill="#FFFFFF" transform="translate(7.806146, 24.306282) rotate(43.000000) translate(-7.806146, -24.306282) " cx="7.8061459" cy="24.3062824" rx="1.24957151" ry="3.75223546"></ellipse>
                    <ellipse id="椭圆形备份-17" fill="#FFFFFF" transform="translate(71.767159, 26.539850) rotate(43.000000) translate(-71.767159, -26.539850) " cx="71.7671588" cy="26.5398502" rx="1.24957151" ry="3.75223546"></ellipse>
                    <ellipse id="椭圆形备份-16" fill="#FFFFFF" transform="translate(15.231146, 24.306282) rotate(43.000000) translate(-15.231146, -24.306282) " cx="15.2311459" cy="24.3062824" rx="1.24957151" ry="3.75223546"></ellipse>
                    <ellipse id="椭圆形备份-18" fill="#FFFFFF" transform="translate(79.192159, 26.539850) rotate(43.000000) translate(-79.192159, -26.539850) " cx="79.1921588" cy="26.5398502" rx="1.24957151" ry="3.75223546"></ellipse>
                    <path d="M22.5079083,6.46533168 C22.6101078,9.68383742 25.3026917,12.1927283 28.5219629,12.0690964 C31.741234,11.9454644 34.2681199,9.23612646 34.1659204,6.01762073 C34.0637209,2.79911499 31.371137,0.290224083 28.1518658,0.41385605 C24.9325947,0.537488017 22.4057088,3.24682594 22.5079083,6.46533168 Z" id="路径" fill="#000000" fill-rule="nonzero" transform="translate(28.336914, 6.241476) rotate(2.000000) translate(-28.336914, -6.241476) "></path>
                    <path d="M58.4866054,7.70142276 C58.5593205,9.78371343 59.7374,11.6690363 61.5770728,12.6472085 C63.4167457,13.6253806 65.6385217,13.5477944 67.4054794,12.4436759 C69.1724371,11.3395573 70.2161335,9.37664824 70.1434183,7.29435757 C70.0310104,4.07541519 67.3304194,1.55707145 64.1114794,1.66947939 C60.8925394,1.78188734 58.3741976,4.48248037 58.4866054,7.70142276 L58.4866054,7.70142276 Z" id="路径" fill="#000000" fill-rule="nonzero" transform="translate(64.314984, 7.497858) rotate(2.000000) translate(-64.314984, -7.497858) "></path>
                </g>
            </g>
        </g>
    </g>
</svg>