<?xml version="1.0" encoding="UTF-8"?>
<svg width="298px" height="233px" viewBox="0 0 298 233" version="1.1" xmlns="http://www.w3.org/2000/svg" xmlns:xlink="http://www.w3.org/1999/xlink">
    <!-- Generator: Sketch 61.2 (89653) - https://sketch.com -->
    <title>草莓+柠檬</title>
    <desc>Created with Sketch.</desc>
    <defs>
        <linearGradient x1="5.1262939%" y1="50%" x2="63.4676762%" y2="64.8678441%" id="linearGradient-1">
            <stop stop-color="#FFE600" offset="0%"></stop>
            <stop stop-color="#FFB900" offset="100%"></stop>
        </linearGradient>
        <path d="M133.568398,14.9647478 C109.231146,-1.44751109 77.8541931,0.253759646 77.8541931,0.253759646 C77.8541931,0.253759646 45.0692999,-3.14878184 23.9501969,14.9647478 C0.0152135216,35.4800714 -7.12505463,57.1962921 7.75888462,100.528659 C34.4091812,178.486888 78.8598647,175.484646 78.8598647,175.484646 C78.8598647,175.484646 127.031533,175.584721 153.68183,97.6264908 C168.264067,54.2941243 157.000546,30.876633 133.568398,14.9647478 Z" id="path-2"></path>
    </defs>
    <g id="蔬菜水果" stroke="none" stroke-width="1" fill="none" fill-rule="evenodd">
        <g id="草莓" transform="translate(0.000000, 1.000000)">
            <ellipse id="椭圆形" fill-opacity="0.1" fill="#000000" cx="150" cy="198" rx="96" ry="34"></ellipse>
            <g id="编组" stroke-width="1" transform="translate(-25.000000, 33.000000)">
                <g id="编组-8" transform="translate(265.750000, 81.650000) scale(-1, 1) translate(-265.750000, -81.650000) translate(208.500000, 0.400000)" fill-rule="nonzero">
                    <g id="编组-9" transform="translate(71.702181, 42.946766) rotate(-292.000000) translate(-71.702181, -42.946766) translate(34.202181, 21.196766)">
                        <path d="M38.6183776,10.2553628 C38.6183776,10.2553628 24.5865061,9.3554241 13.7942599,19.5547288 C6.18309174,26.6942421 0.308831175,30.2140021 0.308831175,30.2140021 C0.308831175,30.2140021 33.7003921,33.9737458 51.0304365,24.334403 C68.360481,14.6950601 64.8086025,0.336038969 64.8086025,0.336038969 L38.6183776,10.2553628 L38.6183776,10.2553628 Z" id="路径" fill="#679933"></path>
                        <path d="M38.3738374,14.425048 C38.3738374,14.425048 15.3901216,25.9044579 8.92656182,26.784546 C2.46300199,27.6646341 23.6501996,26.2488402 42.5917496,13.5258275 C61.5332995,0.802814821 38.3738374,14.425048 38.3738374,14.425048 L38.3738374,14.425048 Z" id="路径" fill="#2F551B" opacity="0.45"></path>
                        <path d="M53.410951,6.62485902 C53.410951,6.62485902 34.3887018,15.9671388 29.8875523,32.8498331 C28.9677522,37.9420611 26.2279221,43.4455844 26.2279221,43.4455844 C26.2279221,43.4455844 38.4201661,37.3349108 49.9861633,35.6505585 C61.5521605,33.9662062 70.3587574,27.6988487 74.23366,21.5881751 C78.0889924,15.4775015 61.9239946,5.64558441 61.9239946,5.64558441 L53.410951,6.62485902 L53.410951,6.62485902 Z" id="路径" fill="#95D13C"></path>
                        <path d="M60.8879421,15.7214115 C59.156824,15.5059918 46.3582207,22.0077511 40.6591466,31.0162127 C40.6591466,31.0162127 64.6419397,11.9417744 69.3490248,17.6797728 C74.0366592,23.4373547 60.8879421,15.7214115 60.8879421,15.7214115 Z" id="路径" fill="#59B629" opacity="0.45"></path>
                    </g>
                    <polygon id="路径" fill="#FFB900" points="64.8 58.9 65.7 58 65.7 58.9"></polygon>
                    <path d="M86.4658181,156.756342 C74.0773355,162.893656 59.2910821,163.954781 45.8749834,160.283864 C32.4874295,156.612946 16.3595662,147.148863 8.33845188,132.407836 C7.31083581,130.48634 4.37071205,123.488655 3.6,121.452443 C9.36606795,93.7771685 14.7610523,82.6783799 22.1541791,65.4709555 C46.1033425,48.865791 77.9594407,48.3782474 98.8543008,71.3501588 C108.217025,81.6459344 113.783279,95.4405529 114.268542,109.378567 C114.78235,124.349026 108.987737,138.774583 97.9408643,148.926964 C94.4869325,152.081658 90.6048273,154.691451 86.4658181,156.756342 L86.4658181,156.756342 Z" id="路径" fill="#FFC000"></path>
                    <path d="M0,103 C0,120.684646 10.3781109,137.025934 27.2249997,145.868257 C44.0718885,154.710581 64.8281115,154.710581 81.6750003,145.868257 C98.5218891,137.025934 108.9,120.684646 108.9,103 C108.9,85.3153533 98.521889,68.9740659 81.6750002,60.1317425 C64.8281115,51.2894192 44.0718885,51.2894192 27.2249998,60.1317425 C10.378111,68.9740659 0,85.3153533 0,103 L0,103 Z" id="路径" fill="#FFE96C"></path>
                    <path d="M11.9869189,131.389154 C11.2436327,131.389154 10.5861103,131.389154 9.9,131.360548 C19.7342478,144.118594 36.0293676,152.5 54.4685822,152.5 C84.5144961,152.5 108.9,130.330751 108.9,102.983909 C108.9,94.8885578 106.755905,87.2508939 102.982299,80.5 C102.896535,80.6716329 82.4847531,132.61919 11.9869189,131.389154 L11.9869189,131.389154 Z" id="路径" fill="#FFFFFF" opacity="0.07"></path>
                    <path d="M3.6,102.55 C3.6,128.148398 26.1648486,148.9 54,148.9 C81.8351514,148.9 104.4,128.148398 104.4,102.55 C104.4,76.9516018 81.8351514,56.2 54,56.2 C26.1648486,56.2 3.6,76.9516018 3.6,102.55 L3.6,102.55 Z" id="路径" fill="#FFEF9B"></path>
                    <path d="M49.9147614,63.8195688 C49.9147614,63.8195688 50.595055,95.3647795 54.3650156,96.564869 C57.8515205,97.6506643 76.3611766,67.448411 76.3611766,67.448411 L76.2761398,67.448411 C76.3895221,67.3055432 76.4462133,67.1341018 76.4745588,66.991234 C76.9564335,64.7624963 70.5219895,60.2478738 63.2088329,59.2477992 C55.9240219,58.2477245 50.3966361,59.5049612 49.9147614,61.7336989 C49.8864158,61.9051403 49.8864158,62.8766413 49.9147614,63.0480827 L49.9147614,63.8195688 L49.9147614,63.8195688 Z M54.2516333,103.508244 C49.0360488,102.336728 32.5389281,136.710721 32.5389281,136.710721 L32.6239648,136.739295 C32.5389281,136.910736 32.4822369,137.110751 32.4255458,137.310766 C31.9720167,140.082401 37.6127848,143.711244 44.9259414,144.911333 C52.239098,146.111423 58.475123,144.397009 58.9003065,141.625374 C58.9286521,141.425359 58.9286521,141.225344 58.9003065,141.025329 L58.9853432,141.053902 C59.0136888,141.053902 58.1349762,104.394025 54.2516333,103.508244 L54.2516333,103.508244 Z" id="形状" fill="#FFD800"></path>
                    <path d="M59.3138207,141.631861 C59.3425472,141.432934 59.3425472,141.234006 59.3138207,141.035079 L59.4,141.063497 C59.4,141.063497 59.198915,132.566467 58.5382073,123.7 C51.9024037,126.513398 44.3473545,128.786851 35.8730598,130.236177 C33.8622102,134.072629 32.5407947,136.772355 32.5407947,136.772355 L32.626974,136.800773 C32.5407947,136.971282 32.4833419,137.170209 32.425889,137.369136 C31.9662663,140.125698 37.6828244,143.734805 45.0942415,144.928368 C52.534385,146.093512 58.854198,144.388423 59.3138207,141.631861 Z" id="路径" fill="#FFC700"></path>
                    <path d="M98.7699516,98.400154 C98.5697441,98.3432642 98.3695365,98.3432642 98.169329,98.3432642 L98.1979301,98.2579296 C98.1979301,98.2579296 61.5599554,96.0107852 60.3587103,99.8223973 C58.7284491,104.942473 91.5910822,124.398762 91.5910822,124.398762 L91.6196833,124.313427 C91.7912897,124.427206 91.9914972,124.512541 92.1631037,124.540986 C94.8802056,125.223663 98.9987601,119.904473 100.829229,112.679477 C102.631096,105.454481 101.487054,99.0828308 98.7699516,98.400154 L98.7699516,98.400154 Z" id="路径" fill="#FFD800"></path>
                    <path d="M92.3466147,124.396157 L92.3755881,124.309717 C92.5494284,124.42497 92.752242,124.511409 92.9260823,124.540222 C95.6785536,125.231736 99.8507206,119.843691 101.705017,112.525171 C103.559313,105.235464 102.371405,98.7525229 99.6189335,98.0610091 C99.4161198,98.003383 99.2133062,98.003383 99.0104925,98.003383 L99.0394659,97.9169438 C99.0394659,97.9169438 96.547755,97.7728784 92.8101888,97.6 C88.580075,102.75754 82.9302656,108.433715 75.6,113.648881 C83.799467,119.325056 92.3466147,124.396157 92.3466147,124.396157 L92.3466147,124.396157 Z" id="路径" fill="#FFC700"></path>
                    <path d="M49.0177709,101.290631 C46.5432056,98.4418713 11.2166531,102.643072 11.2166531,102.643072 C11.2166531,102.643072 10.8753338,102.844499 10.7046741,102.959601 C8.34388196,104.455919 8.11633573,116.599114 12.0699515,122.958466 C16.0235673,129.317817 22.7646244,135.360639 25.0969733,133.864322 C25.267633,133.74922 25.9787149,133.461467 26.0924881,133.288815 L26.8888999,132.51188 C26.9173431,132.51188 51.0941303,103.678984 49.0177709,101.290631 Z M86.847332,126.555384 L85.9940336,125.836 C85.9940336,125.836 59.2857946,100.42737 57.0103323,102.556746 C54.3935506,105.00265 64.6900176,139.935919 64.6900176,139.935919 L64.7753475,139.878369 C64.832234,140.079796 64.9460072,140.252448 65.0597803,140.4251 C66.7379337,142.669577 76.038886,142.09407 81.955088,137.547566 C87.87129,133.001061 89.2081241,129.778222 87.5299707,127.562521 C87.3877543,127.389869 87.0179917,126.699261 86.847332,126.555384 L86.847332,126.555384 Z" id="形状" fill="#FFD800"></path>
                    <path d="M87.7572295,126.827793 L86.8919806,126.122688 C86.8919806,126.122688 80.6910307,120.425446 73.9709315,114.7 C69.9331036,117.4076 65.3761265,119.945975 60.3,122.230513 C62.6073302,131.199439 65.2607599,139.970936 65.2607599,139.970936 L65.3472848,139.914527 C65.4049681,140.111956 65.5203346,140.281181 65.6357011,140.450406 C67.3373571,142.650332 76.7685694,142.086248 82.7676279,137.629989 C88.7666864,133.173731 90.1222429,130.014864 88.4205869,127.843143 C88.3052204,127.645714 87.9302792,126.968814 87.7572295,126.827793 L87.7572295,126.827793 Z" id="路径" fill="#FFC700"></path>
                    <path d="M10.9373691,99.4283141 C11.1363356,99.4570608 11.3353021,99.4858076 11.5342685,99.4858076 L11.5058448,99.5720478 C11.5058448,99.5720478 47.8882871,101.699307 49.1105098,98.6808986 C50.787513,94.5988603 18.3559765,78.7594016 18.3559765,78.7594016 L18.3275527,78.8456419 C18.15701,78.7594016 17.9580435,78.7019081 17.7875008,78.6444146 C15.0872414,78.0694797 10.9373691,82.2952517 9.06139941,88.0446015 C7.15700594,93.7652046 8.2371097,98.8533791 10.9373691,99.4283141 Z M58.9735625,96.6973729 C60.7358371,99.0546064 95.9529044,93.1902696 95.9529044,93.1902696 L95.8960568,93.1327761 C96.0950233,93.1040293 96.265566,93.0465358 96.4361087,92.9602956 C98.7384351,91.8391724 98.9658254,84.4800047 95.1001909,79.3918301 C91.2345564,74.3324023 81.9684031,69.445455 79.6660766,70.5665782 C79.4955339,70.6528184 78.8133631,70.8540457 78.6712442,70.9977794 L77.9038021,71.6014612 C77.9038021,71.5727144 57.3818307,94.5988603 58.9735625,96.6973729 L58.9735625,96.6973729 Z M21.4825926,75.1948048 L22.3068823,75.7697397 C22.3068823,75.7697397 49.6221379,96.9273469 51.0149033,94.4263798 C52.3792449,91.9829061 45.1311802,63.4661312 45.1311802,63.4661312 L45.0459088,63.5236247 C44.9890613,63.3511442 44.8753661,63.2361572 44.761671,63.0924235 C43.1130916,61.3101251 35.5523653,60.5627096 29.5833708,64.0985597 C23.6143764,67.6344098 19.1802662,72.6363441 20.8288456,74.4186425 C20.9709645,74.5336295 21.3120499,75.1085645 21.4825926,75.1948048 L21.4825926,75.1948048 Z" id="形状" fill="#FFD800"></path>
                    <path d="M15.7531097,89.6032182 C17.0957177,92.7185726 21.0029418,93.98872 24.4801388,92.4401718 C27.9573359,90.8916235 29.6877622,87.1107835 28.3451542,83.9954291 C27.4766391,81.980148 25.474083,80.6523709 23.0918293,80.5122584 C20.7095756,80.3721458 18.3095454,81.4409845 16.7958069,83.316153 C15.2820684,85.1913215 14.8845945,87.5879373 15.7531097,89.6032182 L15.7531097,89.6032182 Z" id="路径" fill="#FFFFFF" opacity="0.4"></path>
                    <path d="M29.7,92.2 C29.7,94.1882251 31.110303,95.8 32.85,95.8 C34.589697,95.8 36,94.1882251 36,92.2 C36,90.2117749 34.589697,88.6 32.85,88.6 C31.110303,88.6 29.7,90.2117749 29.7,92.2 L29.7,92.2 Z" id="路径" fill="#FFFFFF" opacity="0.5"></path>
                </g>
                <path d="M113.144104,60.0331773 C113.144104,60.0331773 130.511292,53.0634507 141.068714,42.5060289 C141.068714,42.5060289 143.422425,44.014232 142.531214,45.0882554 C141.640003,46.1622789 121.736292,61.198607 112.435706,62.135521 C103.13512,63.0724351 113.144104,60.0331773 113.144104,60.0331773 L113.144104,60.0331773 Z" id="路径" fill="#7FDB56" fill-rule="nonzero" transform="translate(125.605412, 52.410441) rotate(-27.000000) translate(-125.605412, -52.410441) "></path>
                <path d="M114.234922,68.3255625 C114.869681,70.2826903 116.061204,71.8949923 117.360602,72.555056 C118.659999,73.2151196 119.869833,72.8226509 120.534315,71.5255071 C121.198797,70.2283632 121.216962,68.2236399 120.581966,66.2665889 C119.947207,64.3094611 118.755684,62.6971591 117.456286,62.0370954 C116.156888,61.3770318 114.947054,61.7695005 114.282573,63.0666443 C113.618091,64.3637882 113.599926,66.3685115 114.234922,68.3255625 L114.234922,68.3255625 Z" id="路径" fill="#6BC840" fill-rule="nonzero" transform="translate(117.408444, 67.296076) rotate(-27.000000) translate(-117.408444, -67.296076) "></path>
                <path d="M90.1777351,156.562293 C63.8755866,162.709363 38.1904304,152.12909 27.7015632,132.339637 C27.7015632,132.339637 17.2583991,131.311317 16.1386726,124.592957 C14.9503913,117.394715 22.7884772,113.784168 22.7884772,113.784168 C22.1486335,90.5212775 40.7955085,68.3781134 68.034571,62.0025275 C98.5185554,54.87284 128.202735,70.2519416 134.326954,96.3712775 C140.451173,122.490613 120.661719,149.409754 90.1777351,156.562293 L90.1777351,156.562293 Z" id="路径" fill="url(#linearGradient-1)" fill-rule="nonzero" transform="translate(75.727506, 109.282581) rotate(-27.000000) translate(-75.727506, -109.282581) "></path>
                <path d="M74.7747724,74.9909659 C71.347038,75.2423331 67.8507489,75.7450675 64.3773114,76.5677237 C37.1382489,82.9204581 18.4913739,105.086474 19.1312177,128.349364 C19.1312177,128.349364 11.2702802,131.93706 12.481413,139.158153 C12.7327802,140.689208 13.4868817,141.900341 14.4694989,142.90581 C14.9265302,135.181982 23.0616864,132.051317 23.0616864,132.051317 C26.0780927,100.539013 64.9714521,79.7440909 74.7747724,74.9909659 Z" id="路径" fill="#FFFFFF" fill-rule="nonzero" opacity="0.2" transform="translate(43.564672, 108.948388) rotate(-27.000000) translate(-43.564672, -108.948388) "></path>
                <path d="M33.0835132,99.3603231 C33.980479,101.102338 36.5944437,101.792859 39.940752,101.171772 C43.2870602,100.550685 46.8573283,98.7123493 49.3066707,96.3492476 C51.7560131,93.9861459 52.7123165,91.4572898 51.8153505,89.7152748 C50.4287615,87.0223529 45.1114443,86.998426 39.9387903,89.6618326 C34.7661362,92.3252391 31.6969241,96.6674013 33.0835132,99.3603231 L33.0835132,99.3603231 Z" id="路径" fill="#FFFFFF" fill-rule="nonzero" opacity="0.4" transform="translate(42.448339, 94.537878) rotate(-27.000000) translate(-42.448339, -94.537878) "></path>
                <path d="M47.1612978,103.659533 C47.77431,105.154136 49.9561573,105.674688 52.0345903,104.822219 C54.1130233,103.969749 55.3009817,102.06707 54.6879695,100.572466 C54.0749574,99.0778627 51.89311,98.5573106 49.8146771,99.4097805 C47.7362441,100.26225 46.5482857,102.164929 47.1612978,103.659533 L47.1612978,103.659533 Z" id="路径" fill="#FFFFFF" fill-rule="nonzero" opacity="0.5" transform="translate(50.924634, 102.116000) rotate(-27.000000) translate(-50.924634, -102.116000) "></path>
                <polygon id="路径" fill="#FFBB00" fill-rule="nonzero" transform="translate(67.403428, 59.203568) rotate(-27.000000) translate(-67.403428, -59.203568) " points="67.5176858 59.0664582 67.2891701 59.3406769 67.2891701 59.0664582"></polygon>
                <path d="M138.043331,118.247491 C138.043331,118.247491 89.8831409,156.667387 48.1696515,135.580458 C47.130702,135.05525 43.3730352,131.86508 42.1386683,127.425144 C41.7284122,127.185965 35.0440095,128.905025 30.2440825,124.045774 C31.1798631,130.419025 42.3245127,132.113202 41.6228969,131.640751 C53.8074664,154.29182 81.7511588,161.165976 104.031432,155.95582 C113.743346,153.693516 122.9613,149.485577 129.999581,143.864093 L138.043331,118.247491 Z" id="路径" fill-opacity="0.2" fill="#FA6400" fill-rule="nonzero" transform="translate(84.143707, 137.926402) rotate(-27.000000) translate(-84.143707, -137.926402) "></path>
                <g id="编组-13" transform="translate(86.125262, 48.971873) rotate(-8.000000) translate(-86.125262, -48.971873) translate(48.375262, 31.971873)" fill-rule="nonzero">
                    <path d="M0.52963516,1.30932736 C0.52963516,1.30932736 42.1410446,48.1196834 70.8770726,29.0999476 C72.0164869,28.881887 74.4092569,26.4832197 75.2296352,27.2585465 C65.6129787,18.3907461 55.3582502,10.7828518 43.2348823,5.93705925 C35.8286895,2.98112579 27.9895192,0.800519147 20.0591959,0.38862678 C16.2763405,0.194795078 12.6985796,0.703603296 8.9840891,1.11549566 C7.79909825,1.23664048 1.4183783,2.30271484 0.52963516,1.30932736 Z" id="路径" fill="#95D13C"></path>
                    <path d="M67.3131395,25.6218968 C67.3131395,25.6218968 35.5543136,22.6947334 9.71313948,5.82189685 C9.71313948,5.84569492 39.3470943,19.4105988 67.3131395,25.6218968 Z" id="路径" fill="#679933"></path>
                    <path d="M12.4283723,4.67906764 C16.310731,4.26372087 20.0552544,3.72621329 23.9835581,3.92167059 C32.2536712,4.36144952 40.4089216,6.6092085 48.1276938,9.71209318 C56.6505048,13.132596 64.3003594,17.8724356 71.4448182,23.4185365 C62.9679523,16.0888877 53.8708279,9.85868616 43.3953513,5.65635415 C35.929277,2.67563029 28.0267245,0.476735634 20.0322819,0.0613888662 C16.2188408,-0.134068436 12.6121526,0.379006983 8.86762921,0.794353751 C7.67305732,0.916514565 1.24074714,2.01596189 0.344818224,0.989811054 C0.344818224,0.989811054 1.81506055,2.65119813 4.38798462,5.19214306 C6.36362275,5.63192199 11.3716357,4.80122845 12.4283723,4.67906764 L12.4283723,4.67906764 Z" id="路径" fill="#FFFFFF" opacity="0.2"></path>
                </g>
            </g>
            <g id="编组" stroke-width="1" transform="translate(145.750000, 101.000000) scale(-1, 1) translate(-145.750000, -101.000000) translate(65.500000, -0.500000)">
                <g id="路径" transform="translate(0.000000, 27.200000)">
                    <mask id="mask-3" fill="white">
                        <use xlink:href="#path-2"></use>
                    </mask>
                    <use id="蒙版" fill="#F94E5B" fill-rule="nonzero" xlink:href="#path-2"></use>
                    <path d="M80.1002955,175.5 C80.1002955,175.5 43.628568,187.637642 8.84215088,108.9 C-7.27863304,66.1781657 0.374905917,34.4657672 17.9290541,19.5875143 C25.9232774,8.68638355 44.663661,21.7792065 49.0819469,28.8 C49.0819469,28.8 -3.01575988,55.5688735 34.2782299,134.1 C53.3240658,170.853777 76.7640545,175.568488 80.1002955,175.5 Z" fill="#D83252" fill-rule="nonzero" mask="url(#mask-3)"></path>
                </g>
                <path d="M73.3533951,4.26168986 C72.5493367,2.8382173 73.1173472,1.76644035 75.0574266,1.04635903 C76.997506,0.32627771 78.9152181,0.147180232 80.8105628,0.509066599 C82.2701876,1.03119791 83,4.37204519 83,10.5316084 C83,16.6911717 81.6613974,22.6231376 78.9841922,28.3275061 L75.8650718,27.5233156 C77.4929269,19.9900092 78.1025956,14.324683 77.6940779,10.5273372 C77.2855602,6.72999133 75.8386659,4.64144222 73.3533951,4.26168986 Z" id="路径" fill="#679933" fill-rule="nonzero" transform="translate(78.000000, 14.327506) scale(-1, 1) translate(-78.000000, -14.327506) "></path>
                <path d="M78.9272432,174.379976 C79.1277096,173.877149 79.9295752,173.877149 80.1300416,174.379976 C82.6358715,179.609384 85.2419346,190.772158 78.7267768,190.068199 C72.4120854,189.263675 77.0228125,178.000335 78.9272432,174.379976 Z M96.7687522,149.439725 C97.0694518,148.936897 97.7710842,148.936897 97.9715506,149.439725 C100.377147,154.468001 102.882977,165.329079 96.5682858,164.62512 C90.4540608,163.921161 94.9645547,152.959518 96.7687522,149.439725 Z M61.8875998,148.836332 C62.1882994,148.333504 62.8899317,148.333504 63.0903981,148.836332 C65.4959949,153.965174 68.102058,164.725685 61.6871334,164.021727 C55.5729084,163.317768 60.0834022,152.356125 61.8875998,148.836332 Z M111.001866,122.99099 C111.302566,122.488163 112.004198,122.488163 112.204665,122.99099 C114.610261,128.019267 117.216324,138.880344 110.8014,138.176385 C104.687175,137.472427 109.197669,126.510784 111.001866,122.99099 Z M48.8572842,122.890425 C49.1579838,122.387597 49.8596162,122.387597 50.0600826,122.890425 C52.3654461,128.019267 54.9715092,138.779778 48.6568178,138.07582 C42.5425928,137.371861 47.0530867,126.410218 48.8572842,122.890425 Z M79.4284092,122.387597 C79.7291088,121.884769 80.4307412,121.884769 80.6312076,122.387597 C83.0368043,127.516439 85.5426342,138.276951 79.2279428,137.572992 C73.1137178,136.869033 77.6242117,125.907391 79.4284092,122.387597 Z M125.736146,96.6428212 C125.936612,96.1399935 126.738478,96.1399935 126.938944,96.6428212 C129.344541,101.972794 132.050837,113.035003 125.53568,112.331044 C119.220988,111.627085 123.831715,100.26318 125.736146,96.6428212 Z M61.0857342,96.6428212 C61.2862006,96.1399935 62.0880662,96.1399935 62.2885326,96.6428212 C64.7943625,101.972794 67.4004256,113.035003 60.8852678,112.331044 C54.5705764,111.627085 59.1813035,100.26318 61.0857342,96.6428212 Z M96.8689854,96.8439523 C97.0694518,96.3411246 97.8713174,96.3411246 98.0717838,96.8439523 C100.477381,102.07336 103.083444,112.934437 96.668519,112.230478 C90.3538276,111.52652 94.9645547,100.464311 96.8689854,96.8439523 Z M30.414376,95.5366004 C30.6148424,95.0337727 31.416708,95.0337727 31.6171744,95.5366004 C34.0227711,100.766008 36.7290674,111.928782 30.2139096,111.224823 C23.8992182,110.520864 28.5099453,99.1569595 30.414376,95.5366004 Z M112.405131,69.3895624 C112.705831,68.8867348 113.407463,68.8867348 113.607929,69.3895624 C116.013526,74.61897 118.920289,85.7817439 112.505364,85.0777852 C106.09044,84.3738265 109.799068,73.8144458 112.405131,69.3895624 Z M48.757051,67.1771207 C48.9575174,66.6742931 49.759383,66.6742931 49.9598494,67.1771207 C52.3654461,72.4065283 55.0717424,83.5693022 48.5565846,82.8653435 C42.2418932,82.1613848 46.8526203,70.7974798 48.757051,67.1771207 Z" id="形状结合" fill="#D83252" fill-rule="nonzero"></path>
                <path d="M112.881342,50.8711636 C119.287224,51.8802877 126.093474,51.8802877 133.2,49.9629518 C133.2,49.9629518 110.67932,23.7257231 79.9511029,34.2206146 C79.6508272,34.2206146 79.3505515,34.2206146 79.1503676,34.1197022 L78.5498162,34.1197022 C78.2495404,34.1197022 77.9492647,34.1197022 77.5488971,34.2206146 C46.9207721,23.6248107 24.3,49.8620394 24.3,49.8620394 C31.4065257,51.7793753 38.3128676,51.7793753 44.71875,50.7702511 C37.0116728,61.9715295 36.811489,74.5855818 36.811489,74.5855818 C50.5240809,72.9709831 55.7288603,68.7326615 62.0346507,62.1733544 C59.7325368,71.8609465 68.540625,86.9978092 78.5498162,98.3 C78.5498162,98.3 97.9676471,82.4567504 96.0659007,62.9806537 C102.371691,69.2372236 107.376287,73.0718955 120.588419,74.5855818 C120.688511,74.5855818 120.588419,61.9715295 112.881342,50.8711636 Z" id="路径" fill="#D83252" fill-rule="nonzero"></path>
                <path d="M78.3,26.9227751 C116.087577,13.498992 144,45.084364 144,45.084364 C109.134663,54.362567 78.3,26.9227751 78.3,26.9227751 Z M78.3,26.9227751 C78.3,26.9227751 47.4653374,54.362567 12.6,45.084364 C12.6,45.084364 40.5124233,13.498992 78.3,26.9227751 Z" id="形状结合" fill="#679933" fill-rule="nonzero"></path>
                <path d="M78.3,26.3 C78.4515739,26.3048042 78.6026999,26.3100125 78.7533795,26.3156224 L79.2,26.3 L79.2,26.3 C79.2,26.3 79.1988382,26.3112379 79.1963548,26.3333739 C129.100077,28.4666755 129.6,74.9 129.6,74.9 C89.925404,70.2132267 80.657394,38.6084898 78.7493617,29.0397689 C76.842606,38.6084898 67.574596,70.2132267 27.9,74.9 C27.9,74.9 28.3999204,28.4669267 78.2995094,26.3335012 L78.3036452,26.3333739 Z" id="形状结合" fill="#79B53A" fill-rule="nonzero"></path>
                <path d="M78.6609023,26.3 C78.6609023,26.3 43.5579806,55.2141791 78.4603142,93.8 C78.5606083,93.8 114.365588,61.561194 78.6609023,26.3 Z" id="路径" fill="#95D13C" fill-rule="nonzero"></path>
            </g>
            <g id="编组-3" stroke-width="1" transform="translate(147.296793, 120.616272) rotate(-2.000000) translate(-147.296793, -120.616272) translate(64.796793, 94.116272)">
                <path d="M66.5599873,39.5401214 C66.5599873,38.0907053 67.7937204,36.9157214 69.3156073,36.9157214 C70.8374942,36.9157214 72.0712273,38.0907053 72.0712273,39.5401214 C72.0712273,43.8883697 75.7724266,47.4133214 80.3380873,47.4133214 C84.903748,47.4133214 88.6049473,43.8883697 88.6049473,39.5401214 C88.6049473,38.0907053 89.8386804,36.9157214 91.3605673,36.9157214 C92.8824542,36.9157214 94.1161873,38.0907053 94.1161873,39.5401214 C94.1080511,46.7839898 87.9441491,52.6543726 80.3380873,52.6621214 C72.7320255,52.6543726 66.5681235,46.7839898 66.5599873,39.5401214 Z" id="路径" fill="#000000" fill-rule="nonzero"></path>
                <ellipse id="椭圆形备份-13" fill="#FF9FB5" cx="16.9185112" cy="27.4266081" rx="16.70625" ry="8.353125"></ellipse>
                <ellipse id="椭圆形备份-14" fill="#FF9FB5" cx="148.238466" cy="32.0124019" rx="16.70625" ry="8.353125"></ellipse>
                <ellipse id="椭圆形备份-15" fill="#FFFFFF" transform="translate(10.660018, 27.190095) rotate(43.000000) translate(-10.660018, -27.190095) " cx="10.6600179" cy="27.1900949" rx="1.68692154" ry="5.06551787"></ellipse>
                <ellipse id="椭圆形备份-17" fill="#FFFFFF" transform="translate(141.979973, 31.775889) rotate(43.000000) translate(-141.979973, -31.775889) " cx="141.979973" cy="31.7758887" rx="1.68692154" ry="5.06551787"></ellipse>
                <ellipse id="椭圆形备份-16" fill="#FFFFFF" transform="translate(20.683768, 27.190095) rotate(43.000000) translate(-20.683768, -27.190095) " cx="20.6837679" cy="27.1900949" rx="1.68692154" ry="5.06551787"></ellipse>
                <ellipse id="椭圆形备份-18" fill="#FFFFFF" transform="translate(152.003723, 31.775889) rotate(43.000000) translate(-152.003723, -31.775889) " cx="152.003723" cy="31.7758887" rx="1.68692154" ry="5.06551787"></ellipse>
                <path d="M43.8270071,8.50614815 C43.9649764,12.8511309 47.5999648,16.2381336 51.9459808,16.0712305 C56.2919969,15.9043273 59.7032928,12.2467211 59.5653235,7.90173836 C59.4273542,3.55675562 55.7923658,0.169752896 51.4463498,0.336656051 C47.1003337,0.503559206 43.6890378,4.16116541 43.8270071,8.50614815 Z" id="路径" fill="#000000" fill-rule="nonzero" transform="translate(51.696165, 8.203943) rotate(2.000000) translate(-51.696165, -8.203943) "></path>
                <path d="M104.990573,10.6146048 C105.088738,13.4256972 106.679145,15.970883 109.162704,17.2914155 C111.646262,18.6119479 114.64566,18.5072065 117.031053,17.0166464 C119.416445,15.5260864 120.825436,12.8761592 120.72727,10.0650668 C120.575519,5.71949454 116.929722,2.31973049 112.584153,2.47148122 C108.238584,2.62323195 104.838822,6.26903254 104.990573,10.6146048 L104.990573,10.6146048 Z" id="路径" fill="#000000" fill-rule="nonzero" transform="translate(112.858884, 10.339792) rotate(2.000000) translate(-112.858884, -10.339792) "></path>
            </g>
        </g>
    </g>
</svg>