<?xml version="1.0" encoding="UTF-8"?>
<svg width="312px" height="242px" viewBox="0 0 312 242" version="1.1" xmlns="http://www.w3.org/2000/svg" xmlns:xlink="http://www.w3.org/1999/xlink">
    <!-- Generator: Sketch 61.2 (89653) - https://sketch.com -->
    <title>橙子+猕猴桃</title>
    <desc>Created with Sketch.</desc>
    <defs>
        <radialGradient cx="41.377999%" cy="30.2815417%" fx="41.377999%" fy="30.2815417%" r="46.4440723%" gradientTransform="translate(0.413780,0.302815),scale(1.000000,0.918367),rotate(65.617725),translate(-0.413780,-0.302815)" id="radialGradient-1">
            <stop stop-color="#B77F25" offset="0%"></stop>
            <stop stop-color="#8E5D28" offset="100%"></stop>
        </radialGradient>
        <linearGradient x1="50%" y1="71.6085201%" x2="50%" y2="100%" id="linearGradient-2">
            <stop stop-color="#B27B25" offset="0%"></stop>
            <stop stop-color="#8E5D28" offset="100%"></stop>
        </linearGradient>
        <radialGradient cx="50%" cy="27.9056968%" fx="50%" fy="27.9056968%" r="65.4847494%" id="radialGradient-3">
            <stop stop-color="#FDCA38" offset="0%"></stop>
            <stop stop-color="#FF8657" offset="100%"></stop>
        </radialGradient>
        <linearGradient x1="68.240386%" y1="23.5444773%" x2="13.5991292%" y2="100%" id="linearGradient-4">
            <stop stop-color="#754107" offset="0%"></stop>
            <stop stop-color="#633609" offset="100%"></stop>
        </linearGradient>
    </defs>
    <g id="蔬菜水果" stroke="none" stroke-width="1" fill="none" fill-rule="evenodd">
        <g id="橙子" transform="translate(-2.000000, 0.000000)">
            <ellipse id="椭圆形" fill-opacity="0.1" fill="#000000" cx="161" cy="213" rx="107" ry="29"></ellipse>
            <g id="编组" stroke-width="1" transform="translate(-18.000000, 52.000000)">
                <g id="编组-4" transform="translate(92.000000, 88.000000) scale(-1, 1) rotate(108.000000) translate(-92.000000, -88.000000) translate(24.000000, 14.000000)" fill-rule="nonzero">
                    <path d="M32.7618303,138.552004 L36.8269677,140.480575 L36.0973277,142.409147 C36.0973277,142.409147 34.0126418,143.132361 32.4491274,141.324325 C30.885613,139.51629 32.7618303,138.552004 32.7618303,138.552004 L32.7618303,138.552004 Z" id="路径" fill="#3A3937"></path>
                    <path d="M26.3265015,132.735309 C26.3265015,132.735309 31.5941071,141.967557 43.3265015,141.730833 L26.3265015,132.735309 Z" id="路径" fill="#2B1600"></path>
                    <path d="M96.4656246,5.8163192 L100.532606,8.00914982 L101.411953,6.44284224 C101.411953,6.44284224 100.642525,4.35443212 98.3342377,4.0411706 C95.9160325,3.72790909 96.4656246,5.8163192 96.4656246,5.8163192 Z" id="路径" fill="#3A3937"></path>
                    <path d="M89.6034027,3.97863814 C89.6034027,3.97863814 99.9664164,2.25251944 106.603403,12.8747883 L89.6034027,3.97863814 Z" id="路径" fill="#2B1600"></path>
                    <path d="M3.1977278,105.203883 C7.09028333,115.479071 14.7574381,124.336991 23.7221115,130.832799 C42.3591955,144.296838 68.1916094,154.335814 89.4237305,141.462303 C98.50636,136.029445 105.583734,127.762053 111.717458,119.140344 C121.625781,104.849567 128.821111,88.7872046 132.949579,72.0162091 C135.190747,62.6858666 136.606222,52.8831016 133.893228,43.6708647 C130.826367,33.2775717 123.159212,25.0101795 114.666363,18.2781602 C98.7422725,5.52275521 77.7460639,-3.45327054 58.2832863,2.09769275 C46.8415322,5.40464961 37.1691215,13.1996193 29.2660542,22.1756451 C17.7063439,35.1672613 9.0955392,50.6390952 4.0234214,67.2919851 C0.838603244,77.8033836 -0.930740177,89.1415214 1.54634061,99.8891312 C1.9002093,101.660715 2.48999044,103.550405 3.1977278,105.203883 L3.1977278,105.203883 Z" id="路径" fill="url(#radialGradient-1)"></path>
                </g>
                <g id="编组-2" transform="translate(261.500000, 87.500000) scale(-1, 1) translate(-261.500000, -87.500000) translate(191.000000, 20.000000)" fill-rule="nonzero">
                    <path d="M9.80004165,101.690249 C9.40004165,102.790249 10.5000417,103.690249 12.3000417,105.390249 C22.1000417,115.090249 33.5000417,123.390249 46.3000417,128.690249 C60.5000417,134.590249 76.6000417,136.790249 91.6000417,133.390249 C104.800042,130.390249 117.000042,123.290249 126.500042,113.590249 C132.400042,107.590249 137.300042,100.490249 139.300042,92.3902487 C140.700042,86.7902487 140.600042,80.9902487 140.300042,75.1902487 C139.700042,64.6902487 138.300042,54.2902487 136.000042,44.0902487 C134.100042,35.6902487 131.700042,27.2902487 126.900042,20.1902487 C127.600042,21.1902487 71.6000417,60.0902487 66.4000417,63.6902487 C56.1000417,70.7902487 45.6000417,77.6902487 35.1000417,84.5902487 C29.8000417,87.9902487 24.6000417,91.3902487 19.3000417,94.7902487 C16.8000417,96.3902487 14.1000417,97.8902487 11.7000417,99.5902487 C10.7000417,100.490249 10.0000417,101.090249 9.80004165,101.690249 L9.80004165,101.690249 Z" id="路径" fill="url(#linearGradient-2)"></path>
                    <path d="M10.0046453,43.6045625 C2.3046453,55.3045625 -1.19995835,74.5902487 1.90004165,88.1902487 C5.10004165,102.390249 18.1000417,112.590249 32.1000417,114.990249 C44.8000417,117.190249 57.9000417,114.190249 70.0000417,109.790249 C83.1000417,104.990249 95.7000417,98.4902487 106.300042,89.4902487 C116.900042,80.3902487 125.400042,68.6902487 129.400042,55.3902487 C132.100042,46.2902487 132.700042,36.3902487 130.100042,27.1902487 C127.500042,17.9902487 121.600042,9.69024866 113.300042,4.89024866 C104.800042,-0.00975134192 95.656719,0.790248658 84.7000417,0.790248658 C73.7433643,0.790248658 62.6812917,2.54900106 53.0784505,6.69394904 C27.0048288,17.2338933 11.2046453,41.9045625 10.0046453,43.6045625 Z" id="路径" fill="#95AD00"></path>
                    <path d="M51.3000417,71.5902487 C51.3000417,71.5902487 51.3000417,71.6902487 51.3000417,71.5902487 C53.9000417,70.3902487 56.7000417,69.0902487 59.5000417,69.4902487 C60.7000417,69.6902487 61.9000417,70.1902487 63.1000417,70.5902487 C69.1000417,72.4902487 76.3000417,71.1902487 80.6000417,66.5902487 C84.9000417,61.9902487 85.5000417,54.0902487 81.3000417,49.3902487 C78.4000417,46.0902487 73.8000417,44.7902487 69.4000417,44.6902487 C65.4000417,44.5902487 61.4000417,45.3902487 57.9000417,47.2902487 C54.4000417,49.1902487 51.6000417,52.3902487 50.3000417,56.1902487 C49.5000417,58.6902487 49.5000417,61.5902487 50.9000417,63.7902487 C50.9000417,63.6902487 48.8000417,65.6902487 48.6000417,65.8902487 C49.4000417,66.1902487 50.2000417,66.2902487 51.1000417,66.3902487 C51.3000417,68.1902487 51.3000417,69.8902487 51.3000417,71.5902487 L51.3000417,71.5902487 Z" id="路径" fill="#FFFE7F"></path>
                    <path d="M49.5000417,25.3902487 C49.9000417,25.6902487 50.3000417,26.0902487 50.6000417,26.5902487 C51.2000417,27.6902487 60.4000417,45.8902487 59.1000417,46.5902487 C59.0000417,46.5902487 58.9000417,46.5902487 58.7000417,46.4902487 C56.4000417,44.9902487 47.5000417,29.5902487 46.9000417,28.5902487 C46.3000417,27.4902487 46.2000417,26.0902487 47.5000417,25.2902487 C48.2000417,24.8902487 48.9000417,25.0902487 49.5000417,25.3902487 L49.5000417,25.3902487 Z M35.3000417,37.3902487 C36.4000417,38.0902487 53.9000417,50.2902487 52.9000417,51.2902487 C51.9000417,52.3902487 33.7000417,40.9902487 32.6000417,40.2902487 C31.5000417,39.5902487 30.7000417,38.3902487 31.7000417,37.3902487 C32.7000417,36.2902487 34.2000417,36.6902487 35.3000417,37.3902487 Z M67.3000417,18.7902487 C67.9000417,19.1902487 68.1000417,20.0902487 68.2000417,20.9902487 C68.2000417,22.2902487 67.8000417,43.7902487 66.4000417,44.0902487 L66.3000417,44.0902487 C64.9000417,43.1902487 64.3000417,23.0902487 64.3000417,21.7902487 C64.3000417,20.4902487 64.8000417,18.9902487 66.3000417,18.6902487 C66.6000417,18.4902487 67.0000417,18.5902487 67.3000417,18.7902487 Z M48.6000417,57.0902487 C48.8000417,57.1902487 48.8000417,57.2902487 48.8000417,57.3902487 C48.3000417,58.5902487 24.8000417,55.2902487 23.4000417,55.0902487 C22.8000417,54.9902487 22.2000417,54.7902487 21.7000417,54.4902487 C21.1000417,54.0902487 20.9000417,53.5902487 21.2000417,52.8902487 C21.7000417,51.6902487 23.5000417,51.3902487 24.9000417,51.6902487 C26.2000417,51.8902487 46.3000417,55.5902487 48.6000417,57.0902487 Z M85.4000417,18.3902487 C86.1000417,18.8902487 86.0000417,20.0902487 85.5000417,21.1902487 C84.9000417,22.4902487 74.9000417,43.9902487 73.6000417,43.7902487 C72.5000417,43.0902487 81.3000417,21.8902487 81.9000417,20.5902487 C82.5000417,19.2902487 83.6000417,17.8902487 84.9000417,18.1902487 C85.1000417,18.2902487 85.2000417,18.2902487 85.4000417,18.3902487 L85.4000417,18.3902487 Z M47.3000417,63.7902487 C47.4000417,63.7902487 47.4000417,63.7902487 47.3000417,63.7902487 C47.4000417,65.0902487 22.3000417,70.3902487 20.7000417,70.6902487 C19.7000417,70.8902487 18.6000417,70.8902487 18.0000417,70.4902487 C17.7000417,70.2902487 17.5000417,69.9902487 17.5000417,69.5902487 C17.5000417,68.3902487 19.1000417,67.5902487 20.7000417,67.2902487 C22.2000417,66.9902487 46.0000417,62.8902487 47.3000417,63.7902487 L47.3000417,63.7902487 Z M48.8000417,69.6902487 C49.4000417,70.7902487 26.4000417,83.7902487 25.0000417,84.4902487 C23.8000417,85.1902487 22.4000417,85.5902487 21.6000417,85.0902487 C21.5000417,84.9902487 21.3000417,84.8902487 21.3000417,84.6902487 C20.7000417,83.6902487 22.0000417,82.4902487 23.5000417,81.6902487 C24.9000417,80.9902487 47.8000417,68.9902487 48.8000417,69.6902487 L48.8000417,69.6902487 Z" id="形状" fill="#BED60F"></path>
                    <path d="M53.0000417,74.1902487 C54.0000417,74.8902487 36.7000417,93.5902487 35.7000417,94.7902487 C34.6000417,95.8902487 33.1000417,96.8902487 32.1000417,96.1902487 C31.1000417,95.4902487 31.8000417,94.0902487 32.9000417,92.8902487 C34.0000417,91.7902487 52.0000417,73.5902487 53.0000417,74.1902487 L53.0000417,74.1902487 Z" id="路径" fill="#BED60F"></path>
                    <path d="M59.2000417,76.5902487 C60.3000417,77.2902487 51.5000417,98.4902487 50.9000417,99.7902487 C50.3000417,101.090249 49.2000417,102.490249 47.9000417,102.190249 C47.7000417,102.190249 47.5000417,102.090249 47.4000417,101.990249 C46.6000417,101.490249 46.8000417,100.290249 47.3000417,99.1902487 C47.9000417,97.8902487 57.9000417,76.2902487 59.2000417,76.5902487 Z" id="路径" fill="#BED60F"></path>
                    <path d="M66.6000417,76.3902487 C68.0000417,77.2902487 68.6000417,97.3902487 68.6000417,98.6902487 C68.6000417,99.9902487 68.1000417,101.490249 66.6000417,101.790249 C66.1000417,101.890249 65.8000417,101.790249 65.5000417,101.590249 C64.9000417,101.190249 64.7000417,100.290249 64.6000417,99.3902487 C64.6000417,98.0902487 65.0000417,76.5902487 66.4000417,76.2902487 C66.5000417,76.3902487 66.6000417,76.3902487 66.6000417,76.3902487 L66.6000417,76.3902487 Z" id="路径" fill="#BED60F"></path>
                    <path d="M74.1000417,73.8902487 C76.4000417,75.3902487 85.3000417,90.7902487 85.9000417,91.7902487 C86.5000417,92.8902487 86.6000417,94.2902487 85.3000417,95.0902487 C84.6000417,95.4902487 83.9000417,95.3902487 83.3000417,94.9902487 C82.9000417,94.6902487 82.5000417,94.2902487 82.2000417,93.7902487 C81.6000417,92.6902487 72.4000417,74.4902487 73.7000417,73.7902487 C73.8000417,73.6902487 74.0000417,73.7902487 74.1000417,73.8902487 Z" id="路径" fill="#BED60F"></path>
                    <path d="M100.200042,80.0902487 C101.300042,80.7902487 102.100042,81.9902487 101.100042,82.9902487 C100.100042,84.0902487 98.5000417,83.6902487 97.4000417,82.9902487 C96.3000417,82.2902487 78.8000417,70.1902487 79.8000417,69.0902487 C80.9000417,67.9902487 99.1000417,79.3902487 100.200042,80.0902487 Z" id="路径" fill="#BED60F"></path>
                    <path d="M100.700042,24.1902487 C101.700042,24.8902487 101.000042,26.2902487 99.9000417,27.4902487 C98.8000417,28.5902487 80.8000417,46.8902487 79.7000417,46.1902487 C78.7000417,45.4902487 96.0000417,26.7902487 97.1000417,25.5902487 C98.2000417,24.4902487 99.7000417,23.4902487 100.700042,24.1902487 Z M111.100042,35.2902487 C111.200042,35.3902487 111.400042,35.4902487 111.500042,35.6902487 C112.100042,36.6902487 110.800042,37.8902487 109.300042,38.6902487 C107.900042,39.4902487 85.1000417,51.3902487 84.0000417,50.6902487 C83.4000417,49.5902487 106.400042,36.5902487 107.800042,35.8902487 C108.900042,35.1902487 110.300042,34.7902487 111.100042,35.2902487 Z M114.800042,49.9902487 C115.100042,50.1902487 115.300042,50.4902487 115.300042,50.8902487 C115.300042,52.0902487 113.700042,52.8902487 112.100042,53.1902487 C110.600042,53.4902487 86.9000417,57.5902487 85.5000417,56.6902487 L85.4000417,56.5902487 C85.4000417,55.3902487 110.500042,50.0902487 112.000042,49.7902487 C113.100042,49.5902487 114.200042,49.5902487 114.800042,49.9902487 Z M111.100042,65.8902487 C111.700042,66.2902487 111.900042,66.7902487 111.600042,67.4902487 C111.100042,68.6902487 109.300042,68.9902487 107.900042,68.6902487 C106.600042,68.4902487 86.4000417,64.7902487 84.2000417,63.2902487 C84.0000417,63.1902487 84.0000417,63.0902487 84.0000417,62.9902487 C84.5000417,61.7902487 108.000042,65.0902487 109.400042,65.2902487 C110.000042,65.3902487 110.600042,65.5902487 111.100042,65.8902487 L111.100042,65.8902487 Z" id="形状" fill="#BED60F"></path>
                    <path d="M82.9000417,31.2902487 C83.8000417,31.9902487 83.4000417,33.7902487 82.7000417,34.9902487 C81.9000417,36.3902487 80.3000417,37.4902487 78.6000417,37.7902487 C77.7000417,36.7902487 77.5000417,35.2902487 78.3000417,33.7902487 C79.1000417,32.2902487 80.9000417,30.5902487 82.4000417,30.9902487 C82.6000417,31.0902487 82.8000417,31.1902487 82.9000417,31.2902487 Z M92.5000417,36.0902487 C93.6000417,36.9902487 92.2000417,38.8902487 90.9000417,40.0902487 C89.5000417,41.2902487 87.7000417,41.7902487 86.1000417,41.5902487 C85.8000417,40.2902487 86.4000417,38.6902487 87.7000417,37.5902487 C89.1000417,36.3902487 91.4000417,35.1902487 92.5000417,36.0902487 Z M44.0000417,67.4902487 C43.6000417,68.8902487 42.5000417,70.2902487 40.8000417,70.9902487 C39.3000417,71.5902487 37.2000417,71.9902487 36.4000417,71.2902487 C36.3000417,71.1902487 36.2000417,71.0902487 36.1000417,70.8902487 C35.6000417,69.6902487 37.6000417,68.0902487 39.3000417,67.3902487 C40.9000417,66.6902487 42.7000417,66.7902487 44.0000417,67.4902487 L44.0000417,67.4902487 Z M48.7000417,73.6902487 C49.0000417,74.9902487 48.4000417,76.5902487 47.1000417,77.6902487 C45.7000417,78.8902487 43.4000417,79.9902487 42.3000417,79.1902487 C41.2000417,78.2902487 42.6000417,76.2902487 43.9000417,75.1902487 C45.2000417,74.0902487 47.1000417,73.4902487 48.7000417,73.6902487 Z M88.0000417,71.1902487 C89.2000417,72.0902487 90.2000417,73.8902487 88.9000417,74.9902487 C87.6000417,76.0902487 85.5000417,75.2902487 84.3000417,74.3902487 C83.1000417,73.4902487 82.9000417,71.9902487 83.4000417,70.5902487 C85.0000417,70.0902487 86.8000417,70.2902487 88.0000417,71.1902487 Z M50.5000417,40.8902487 C51.7000417,41.7902487 51.9000417,43.2902487 51.4000417,44.6902487 C49.8000417,45.1902487 48.0000417,44.9902487 46.8000417,44.0902487 C45.6000417,43.1902487 44.6000417,41.3902487 45.9000417,40.2902487 C47.2000417,39.0902487 49.3000417,39.8902487 50.5000417,40.8902487 Z M99.9000417,53.6902487 C100.200042,53.8902487 100.400042,54.2902487 100.300042,54.6902487 C100.200042,56.0902487 97.7000417,56.8902487 95.9000417,57.0902487 C94.6000417,57.1902487 93.4000417,56.8902487 92.6000417,56.1902487 C92.3000417,55.9902487 92.1000417,55.6902487 91.9000417,55.3902487 C92.9000417,54.0902487 94.5000417,53.1902487 96.3000417,52.9902487 C97.6000417,52.8902487 99.1000417,53.0902487 99.9000417,53.6902487 L99.9000417,53.6902487 Z M42.1000417,58.9902487 C42.4000417,59.1902487 42.6000417,59.4902487 42.8000417,59.7902487 C41.8000417,61.0902487 40.2000417,61.9902487 38.4000417,62.1902487 C37.1000417,62.2902487 35.6000417,62.0902487 34.8000417,61.4902487 C34.5000417,61.1902487 34.3000417,60.8902487 34.4000417,60.4902487 C34.5000417,59.0902487 37.0000417,58.2902487 38.8000417,58.0902487 C40.2000417,58.0902487 41.3000417,58.3902487 42.1000417,58.9902487 Z M66.4000417,78.6902487 C67.2000417,79.3902487 67.7000417,80.2902487 67.5000417,81.3902487 C67.4000417,82.8902487 66.4000417,84.9902487 64.8000417,85.0902487 C64.3000417,85.0902487 63.9000417,84.9902487 63.6000417,84.7902487 C62.9000417,84.1902487 62.6000417,82.8902487 62.7000417,81.8902487 C62.8000417,80.3902487 63.9000417,78.9902487 65.4000417,78.1902487 C65.8000417,78.2902487 66.1000417,78.4902487 66.4000417,78.6902487 Z M71.2000417,30.3902487 C71.9000417,30.9902487 72.2000417,32.2902487 72.1000417,33.2902487 C72.0000417,34.7902487 70.9000417,36.1902487 69.3000417,36.9902487 C69.0000417,36.8902487 68.6000417,36.6902487 68.4000417,36.3902487 C67.6000417,35.6902487 67.1000417,34.7902487 67.2000417,33.6902487 C67.3000417,32.1902487 68.3000417,30.0902487 70.0000417,29.9902487 C70.5000417,29.9902487 70.9000417,30.1902487 71.2000417,30.3902487 Z M56.2000417,77.3902487 C57.1000417,78.3902487 57.3000417,79.8902487 56.4000417,81.3902487 C55.6000417,82.7902487 53.8000417,84.5902487 52.3000417,84.1902487 C52.1000417,84.0902487 51.9000417,84.0902487 51.8000417,83.9902487 C50.9000417,83.2902487 51.3000417,81.4902487 52.1000417,80.2902487 C52.9000417,78.7902487 54.5000417,77.7902487 56.2000417,77.3902487 L56.2000417,77.3902487 Z M96.2000417,63.4902487 C96.9000417,63.9902487 97.2000417,64.6902487 96.8000417,65.4902487 C96.0000417,66.7902487 93.6000417,66.8902487 92.0000417,66.4902487 C91.4000417,66.2902487 90.9000417,66.0902487 90.5000417,65.7902487 C89.8000417,65.1902487 89.4000417,64.4902487 89.3000417,63.5902487 C90.7000417,62.5902487 92.5000417,62.1902487 94.1000417,62.5902487 C94.9000417,62.6902487 95.7000417,63.0902487 96.2000417,63.4902487 L96.2000417,63.4902487 Z M44.3000417,49.5902487 C45.0000417,50.1902487 45.4000417,50.8902487 45.5000417,51.7902487 C44.1000417,52.7902487 42.3000417,53.1902487 40.6000417,52.7902487 C39.9000417,52.5902487 39.1000417,52.2902487 38.6000417,51.7902487 C37.9000417,51.2902487 37.6000417,50.5902487 38.0000417,49.7902487 C38.8000417,48.4902487 41.2000417,48.3902487 42.8000417,48.7902487 C43.4000417,48.9902487 43.9000417,49.2902487 44.3000417,49.5902487 Z M98.5000417,43.9902487 C98.6000417,44.0902487 98.7000417,44.1902487 98.8000417,44.3902487 C99.3000417,45.5902487 97.3000417,47.1902487 95.6000417,47.8902487 C93.9000417,48.5902487 92.1000417,48.4902487 90.9000417,47.7902487 C91.2000417,46.3902487 92.4000417,44.9902487 94.1000417,44.2902487 C95.5000417,43.6902487 97.6000417,43.2902487 98.5000417,43.9902487 Z M77.7000417,76.6902487 C78.1000417,76.9902487 78.4000417,77.3902487 78.6000417,77.8902487 C79.2000417,79.1902487 79.2000417,81.2902487 77.6000417,81.9902487 C76.7000417,82.3902487 75.9000417,82.0902487 75.2000417,81.5902487 C74.7000417,81.1902487 74.2000417,80.4902487 74.0000417,79.8902487 C73.4000417,78.5902487 73.9000417,76.9902487 75.0000417,75.7902487 C76.0000417,75.7902487 77.0000417,76.0902487 77.7000417,76.6902487 L77.7000417,76.6902487 Z M59.5000417,33.7902487 C60.0000417,34.1902487 60.5000417,34.8902487 60.7000417,35.4902487 C61.3000417,36.7902487 60.8000417,38.3902487 59.7000417,39.5902487 C58.7000417,39.5902487 57.7000417,39.2902487 57.0000417,38.6902487 C56.6000417,38.3902487 56.3000417,37.9902487 56.1000417,37.4902487 C55.5000417,36.1902487 55.5000417,34.0902487 57.1000417,33.3902487 C58.1000417,32.8902487 58.9000417,33.1902487 59.5000417,33.7902487 L59.5000417,33.7902487 Z" id="形状" fill="#2B1600"></path>
                </g>
            </g>
            <g id="编组" stroke-width="1" transform="translate(166.202621, 112.720011) rotate(-39.000000) translate(-166.202621, -112.720011) translate(64.202621, 13.220011)">
                <path d="M45.6909417,186.514417 C73.8718265,202.784481 108.592554,202.784481 136.773439,186.514417 C164.954324,170.244354 182.312191,140.1762 182.312191,107.636965 C182.312191,75.0977301 164.954324,45.029576 136.773439,28.7595125 C108.592554,12.489449 73.8718265,12.489449 45.6909417,28.7595125 C17.510057,45.029576 0.152190504,75.0977301 0.152190504,107.636965 C0.152190504,140.1762 17.510057,170.244354 45.6909417,186.514417 Z" id="路径" fill="url(#radialGradient-3)" fill-rule="nonzero"></path>
                <path d="M25.8374196,64.3311345 C20.916394,69.2639473 16.8153819,74.9410514 13.6874993,81.1504856 C8.41123908,91.2901516 6.47499679,98.5465001 7.58833624,98.4503894 C8.7016757,98.3542787 12.7677843,90.1368245 18.2376687,82.5921442 C21.9106521,77.2545756 25.9372453,72.165497 30.2907768,67.3586178 C36.1963157,61.4478172 29.9035284,60.8230986 25.8374196,64.3311345 L25.8374196,64.3311345 Z M40.2624245,53.6628605 C41.6177941,55.0084087 40.7948911,56.7383989 39.1974912,58.1800577 C37.6000914,59.6217165 35.7606613,60.2464352 34.3568856,58.8047764 C33.2646268,57.2870039 33.5393151,55.189328 34.9861642,53.9992476 C36.4535449,52.6860191 38.6378929,52.5467564 40.2624245,53.6628605 L40.2624245,53.6628605 Z" id="形状" fill-opacity="0.5" fill="#FFFFFF" fill-rule="nonzero" transform="translate(24.115237, 75.681333) rotate(-15.000000) translate(-24.115237, -75.681333) "></path>
                <path d="M136.069412,37.5672504 C146.520804,26.8968236 161.147133,21.4780731 175.966272,22.7862941 C200.866102,25.0898197 203.389412,44.1418965 203.389412,44.1418965 C195.187681,50.0036253 185.238237,52.8496818 175.204518,52.2042363 C157.922226,50.428602 136.069412,37.5672504 136.069412,37.5672504 L136.069412,37.5672504 Z" id="路径" fill="#679933" fill-rule="nonzero"></path>
                <path d="M203.389412,44.1418965 C195.187681,50.0036253 185.238237,52.8496818 175.204518,52.2042363 C157.922226,50.428602 136.069412,37.5672504 136.069412,37.5672504 C176.79297,28.7213362 203.389412,44.1418965 203.389412,44.1418965 Z" id="路径" fill="#98D35B" fill-rule="nonzero"></path>
                <path d="M145.069504,121.589943 C146.658584,121.679167 148.174544,120.913769 149.046296,119.582086 C149.918048,118.250404 150.01314,116.554769 149.29575,115.133957 C148.57836,113.713144 147.157485,112.783028 145.568394,112.693999 C143.979314,112.604774 142.463354,113.370173 141.591602,114.701855 C140.71985,116.033538 140.624758,117.729173 141.342148,119.149985 C142.059538,120.570798 143.480412,121.500914 145.069504,121.589943 L145.069504,121.589943 Z" id="路径" fill="#E2642D" fill-rule="nonzero"></path>
                <path d="M145.317742,140.1609 C146.906823,140.250125 148.422783,139.484726 149.294535,138.153044 C150.166287,136.821361 150.261379,135.125726 149.543989,133.704914 C148.826599,132.284102 147.405724,131.353986 145.816633,131.264956 C144.227553,131.175732 142.711593,131.94113 141.839841,133.272813 C140.968089,134.604495 140.872996,136.30013 141.590386,137.720943 C142.307777,139.141755 143.728651,140.071871 145.317742,140.1609 Z" id="路径" fill="#E2642D" fill-rule="nonzero"></path>
                <path d="M127.362907,143.455778 C128.95189,143.54526 130.46787,142.779937 131.339646,141.448173 C132.211423,140.116409 132.306511,138.420591 131.589084,136.99968 C130.871657,135.578769 129.450742,134.648701 127.861719,134.559912 C126.272736,134.470431 124.756756,135.235753 123.88498,136.567518 C123.013204,137.899282 122.918115,139.5951 123.635542,141.01601 C124.352969,142.436921 125.773884,143.366989 127.362907,143.455778 Z" id="路径" fill="#E2642D" fill-rule="nonzero"></path>
                <path d="M133.919268,158.956221 C135.508348,159.045445 137.024308,158.280047 137.89606,156.948364 C138.767812,155.616682 138.862904,153.921047 138.145514,152.500235 C137.428124,151.079422 136.00725,150.149306 134.418158,150.060277 C132.829078,149.971053 131.313118,150.736451 130.441366,152.068134 C129.569614,153.399816 129.474522,155.095451 130.191912,156.516263 C130.909302,157.937076 132.330177,158.867192 133.919268,158.956221 Z" id="路径" fill="#E2642D" fill-rule="nonzero"></path>
                <path d="M114.241696,165.951625 C115.830683,166.041098 117.346663,165.275772 118.218438,163.944011 C119.090213,162.61225 119.185302,160.916439 118.467876,159.495531 C117.750451,158.074624 116.329537,157.144554 114.740512,157.055757 C113.151525,156.966284 111.635546,157.73161 110.76377,159.063371 C109.891995,160.395132 109.796906,162.090943 110.514332,163.511851 C111.231758,164.932758 112.652671,165.862828 114.241696,165.951625 Z" id="路径" fill="#E2642D" fill-rule="nonzero"></path>
                <path d="M125.06156,49.7942334 C128.252125,52.1624092 132.71341,51.6362287 135.277387,48.589341 C136.267677,46.5580945 136.04639,44.1378063 134.704537,42.3239008 C137.855213,39.1429849 143.822401,33.0703275 149.932803,26.4675172 C157.52087,18.4730268 157.948978,17.455229 163.689352,8.0205191 C163.975778,5.70712578 150.179638,-3.88381737 150.752488,3.20094949 C151.373075,11.6351961 136.661775,29.1664761 129.405674,37.9380925 C126.424442,36.5646683 122.897785,37.4899974 120.956135,40.1550946 C119.563901,43.9592305 121.369042,48.1975262 125.06156,49.7942334 Z" id="路径" fill="url(#linearGradient-4)" fill-rule="nonzero"></path>
            </g>
            <g id="编组-3" stroke-width="1" transform="translate(139.000000, 97.500000) rotate(-2.000000) translate(-139.000000, -97.500000) translate(81.000000, 72.000000)">
                <path d="M45.0281359,38.0756725 C45.0281359,36.6799384 46.2161752,35.5484725 47.6816959,35.5484725 C49.1472166,35.5484725 50.3352559,36.6799384 50.3352559,38.0756725 C50.3352559,42.2628745 53.8993737,45.6572725 58.2959359,45.6572725 C62.6924981,45.6572725 66.2566159,42.2628745 66.2566159,38.0756725 C66.2566159,36.6799384 67.4446552,35.5484725 68.9101759,35.5484725 C70.3756966,35.5484725 71.5637359,36.6799384 71.5637359,38.0756725 C71.555901,45.0512494 65.6202917,50.7042107 58.2959359,50.7116725 C50.9715801,50.7042107 45.0359708,45.0512494 45.0281359,38.0756725 Z" id="路径" fill="#000000" fill-rule="nonzero"></path>
                <ellipse id="椭圆形备份-13" fill="#FF9FB5" cx="16.174687" cy="31.8259206" rx="16.0875" ry="8.04375"></ellipse>
                <ellipse id="椭圆形备份-14" fill="#FF9FB5" cx="99.3240038" cy="34.7295587" rx="16.0875" ry="8.04375"></ellipse>
                <ellipse id="椭圆形备份-15" fill="#FFFFFF" transform="translate(10.147990, 31.598167) rotate(43.000000) translate(-10.147990, -31.598167) " cx="10.1479897" cy="31.5981671" rx="1.62444297" ry="4.87790609"></ellipse>
                <ellipse id="椭圆形备份-17" fill="#FFFFFF" transform="translate(93.297306, 34.501805) rotate(43.000000) translate(-93.297306, -34.501805) " cx="93.2973065" cy="34.5018052" rx="1.62444297" ry="4.87790609"></ellipse>
                <ellipse id="椭圆形备份-16" fill="#FFFFFF" transform="translate(19.800490, 31.598167) rotate(43.000000) translate(-19.800490, -31.598167) " cx="19.8004897" cy="31.5981671" rx="1.62444297" ry="4.87790609"></ellipse>
                <ellipse id="椭圆形备份-18" fill="#FFFFFF" transform="translate(102.949806, 34.501805) rotate(43.000000) translate(-102.949806, -34.501805) " cx="102.949806" cy="34.5018052" rx="1.62444297" ry="4.87790609"></ellipse>
                <path d="M29.2602808,8.40493119 C29.3931401,12.5889886 32.8934992,15.8505468 37.0785517,15.6898253 C41.2636042,15.5291037 44.5485558,12.0069644 44.4156965,7.82290694 C44.2828372,3.63884948 40.7824781,0.377291309 36.5974256,0.538012865 C32.4123731,0.698734422 29.1274215,4.22087373 29.2602808,8.40493119 Z" id="路径" fill="#000000" fill-rule="nonzero" transform="translate(36.837989, 8.113919) rotate(2.000000) translate(-36.837989, -8.113919) "></path>
                <path d="M76.0325871,10.0118496 C76.1271166,12.7188275 77.65862,15.1697472 80.0501947,16.441371 C82.4417694,17.7129948 85.3300782,17.6121327 87.6271233,16.1767786 C89.9241683,14.7414245 91.2809736,12.1896427 91.1864438,9.48266484 C91.0403136,5.29803974 87.5295453,2.02419288 83.3449233,2.17032321 C79.1603013,2.31645354 75.8864568,5.82722448 76.0325871,10.0118496 L76.0325871,10.0118496 Z" id="路径" fill="#000000" fill-rule="nonzero" transform="translate(83.609479, 9.747216) rotate(2.000000) translate(-83.609479, -9.747216) "></path>
            </g>
        </g>
    </g>
</svg>