<?xml version="1.0" encoding="UTF-8"?>
<svg width="271px" height="246px" viewBox="0 0 271 246" version="1.1" xmlns="http://www.w3.org/2000/svg" xmlns:xlink="http://www.w3.org/1999/xlink">
    <!-- Generator: Sketch 61.2 (89653) - https://sketch.com -->
    <title> 胡萝卜+南瓜+香菇</title>
    <desc>Created with Sketch.</desc>
    <defs>
        <radialGradient cx="43.5725705%" cy="42.2795572%" fx="43.5725705%" fy="42.2795572%" r="85.1169184%" gradientTransform="translate(0.435726,0.422796),scale(0.849466,1.000000),rotate(18.349170),scale(1.000000,0.839227),translate(-0.435726,-0.422796)" id="radialGradient-1">
            <stop stop-color="#6E2A08" offset="0%"></stop>
            <stop stop-color="#CA7F3D" offset="100%"></stop>
        </radialGradient>
        <radialGradient cx="43.5725705%" cy="42.2795572%" fx="43.5725705%" fy="42.2795572%" r="61.1943442%" gradientTransform="translate(0.435726,0.422796),scale(0.797158,1.000000),rotate(15.854220),scale(1.000000,0.839227),translate(-0.435726,-0.422796)" id="radialGradient-2">
            <stop stop-color="#6E2A08" offset="0%"></stop>
            <stop stop-color="#CA7F3D" offset="100%"></stop>
        </radialGradient>
        <linearGradient x1="42.8542667%" y1="7.186071%" x2="71.8385082%" y2="96.3687404%" id="linearGradient-3">
            <stop stop-color="#E57E6C" offset="0%"></stop>
            <stop stop-color="#D65C47" offset="100%"></stop>
        </linearGradient>
        <path d="M92.595057,2.25560689 C73.1462361,-1.31713413 59.6616566,1.12802985 52.1413184,9.59109884 C36.4567634,10.2693094 10.5998824,23.588033 11.0279968,40.3382704 C2.65211264,45.1451423 -5.48206104,66.1863124 5.80663983,84.7164391 C17.0953407,103.246566 26.828392,124.002986 46.4319844,127.499874 C59.501046,129.831133 67.3158687,128.202873 69.8764524,122.615094 C78.9431191,125.738468 87.4764524,125.738468 95.4764524,122.615094 C103.476452,119.491719 109.809786,115.336466 114.476452,110.149334 L92.595057,2.25560689 Z" id="path-4"></path>
        <linearGradient x1="50%" y1="0%" x2="50%" y2="100%" id="linearGradient-6">
            <stop stop-color="#CBC429" offset="0%"></stop>
            <stop stop-color="#9B9212" offset="100%"></stop>
        </linearGradient>
        <linearGradient x1="50%" y1="0%" x2="50%" y2="100%" id="linearGradient-7">
            <stop stop-color="#FCA963" offset="0%"></stop>
            <stop stop-color="#FF5B49" offset="100%"></stop>
        </linearGradient>
    </defs>
    <g id="蔬菜水果" stroke="none" stroke-width="1" fill="none" fill-rule="evenodd">
        <g id="胡萝卜">
            <ellipse id="椭圆形" fill-opacity="0.1" fill="#000000" fill-rule="evenodd" cx="141" cy="218" rx="107" ry="28"></ellipse>
            <g id="编组-3" stroke-width="1" fill-rule="evenodd" transform="translate(198.000000, 110.000000) rotate(22.000000) translate(-198.000000, -110.000000) translate(144.000000, 62.000000)">
                <ellipse id="椭圆形" fill="url(#radialGradient-1)" transform="translate(54.000000, 48.000000) rotate(7.000000) translate(-54.000000, -48.000000) " cx="54" cy="48" rx="48.8637011" ry="41.5080434"></ellipse>
                <path d="M64.3332884,20.0710527 L57.4625669,30.3099619 C55.6484995,32.5497402 53.8606206,35.0053859 52.0989301,37.6768991 C56.2759426,38.4529014 59.4543807,39.2502604 61.6348525,40.0694139 C66.7138603,41.9774812 73.730305,47.4015319 82.6841866,56.3415661 C71.5684806,49.2649239 60.3779109,44.6363399 49.1124774,42.4558141 C44.5410181,50.1560784 40.1520455,59.3615123 35.9455471,70.0710527 C37.7516786,59.1308962 40.7358786,49.6923284 44.8981471,41.7553492 C41.2791548,41.2510568 37.651664,40.9991412 34.0164694,40.9991412 C17.6375021,40.9991412 16.3499434,38.8994153 30.1537933,34.6999633 C37.0049544,35.4198469 42.8518468,36.1616626 47.6944704,36.9254103 C52.1589863,29.929063 57.7053985,24.3108218 64.3332884,20.0710527 Z" id="形状结合" fill-opacity="0.6" fill="#FFFFFF"></path>
            </g>
            <g id="编组-3备份" stroke-width="1" fill-rule="evenodd" transform="translate(207.174781, 151.830513) rotate(17.000000) translate(-207.174781, -151.830513) translate(136.174781, 91.830513)">
                <path d="M72.5696662,110.932114 C105.573109,106.079113 135.582913,87.6801165 135.584289,59.4984984 C135.585664,31.3168803 108.44687,8.47248924 74.9680949,8.47412282 C41.4893199,8.4757564 6.23158218,36.746175 6.23020653,64.9277931 C6.22883088,93.1094112 39.5662234,115.785116 72.5696662,110.932114 Z" id="椭圆形" fill="url(#radialGradient-2)" transform="translate(70.907248, 60.031913) rotate(7.000000) translate(-70.907248, -60.031913) "></path>
                <path d="M88.9133861,25 L80.2695752,37.6962475 C77.987433,40.4734853 75.7382356,43.518382 73.5219828,46.8309374 C78.7764737,47.7934301 82.7753191,48.7821856 85.5185796,49.7979679 C91.9082991,52.1639714 100.735439,58.8897943 112,69.9754366 C98.0157889,61.2004406 83.9373953,55.4610089 69.7648191,52.7571413 C64.0130987,62.3061233 58.4916622,73.7205722 53.199776,87 C55.4720049,73.434213 59.2263183,61.730394 64.4627163,51.888543 C59.909708,51.2631989 55.3461358,50.9508298 50.7728719,50.9508298 C30.1670743,50.9508298 28.5472424,48.3471696 45.9133762,43.1398491 C54.5334899,44.0325992 61.8899017,44.9525507 67.9826115,45.8997038 C73.597767,37.223495 80.575335,30.2571485 88.9133861,25 Z" id="形状结合" fill="#FFFFFF"></path>
            </g>
            <g id="编组-5" stroke-width="1" fill-rule="evenodd" transform="translate(0.000000, 62.000000)">
                <g id="路径-14" transform="translate(0.000000, 14.000000)">
                    <mask id="mask-5" fill="white">
                        <use xlink:href="#path-4"></use>
                    </mask>
                    <use id="蒙版" fill="url(#linearGradient-3)" xlink:href="#path-4"></use>
                    <path d="M104.616577,93.6803331 C102.256494,103.279282 95.8764524,110.177547 85.4764524,114.375127 C69.8764524,120.671497 59.6831655,116.151403 55.6524755,111.507794 C51.6217854,106.864184 33.1984625,83.5820448 33.1984625,58.8240844 C33.1984625,34.066124 45.2070596,26.5870553 59.0630308,24.3849764 C68.3003449,22.9169238 78.7092581,22.1828975 90.2897704,22.1828975 L90.2897704,18.1203975 L68.6074524,18.1203975 C74.9378763,10.4023528 82.1653157,6.5433304 90.2897704,6.5433304 C98.4142251,6.5433304 99.2303047,4.58381838 92.7380092,0.664794337 L84.4073373,-2.03125 L68.6074524,14.0578975 L55.6524755,11.9789813 L50.3042826,6.5433304 L25.3875527,11.9789813 L19.3378711,18.1203975 C36.0460453,14.6211529 48.1509134,14.6211529 55.6524755,18.1203975 C48.8897768,22.0117067 44.5463607,24.3849764 39.9770871,24.3849764 C35.4078135,24.3849764 12.6121184,28.5771646 -0.1748983,48.6970213 C-2.24578106,51.6101799 -3.52081496,54.9858676 -4,58.8240844 C2.01611378,42.7619633 15.3233752,33.4534405 35.9217844,30.8985159 C31.0557106,38.7069382 28.0269019,49.2118114 28.0269019,65.8547725 C28.0269019,82.4977335 33.1984625,98.4415767 33.1984625,109.469781 C33.1984625,116.821918 30.5948259,121.810588 25.3875527,124.43579 C21.8838638,140.973142 22.7636469,149.241817 28.0269019,149.241817 C35.9217844,149.241817 75.3933013,145.80551 78.2947031,145.80551 C81.196105,145.80551 108.476452,124.43579 111.476452,124.43579 C113.476452,124.43579 119.115821,119.447121 128.394559,109.469781 L104.616577,93.6803331 Z" fill="#B9533F" mask="url(#mask-5)"></path>
                </g>
                <path d="M42,38.3235355 L53.6360588,40 L66.7263237,35.4234135 L76,25.2515681 L62.4279439,25.2515681 C55.3868342,19.3604703 52.4562058,14.8013143 53.6360588,11.5741003 C55.4058382,6.7332792 59.7997733,2.47238219 55.4965755,0.398105857 C51.1933777,-1.67617047 46.2477918,4.69797014 46.2477918,11.5741003 C46.2477918,16.158187 48.3267205,21.95964 52.484578,28.9784593 L42,38.3235355 Z" id="路径-13" fill="url(#linearGradient-6)"></path>
            </g>
            <g id="编组" stroke-width="1" fill-rule="evenodd" transform="translate(82.000000, 0.000000)">
                <path d="M37.1861846,65.4 C25.5953949,42.8923208 19.8,30.1267114 19.8,27.103172 C19.8,24.0796326 24.5633943,20.8094312 34.0901829,17.2925677 C51.7502232,14.7691441 63.3208464,14.7691441 68.8020525,17.2925677 C77.0238616,21.0777032 81.4,24.5118314 81.4,27.103172 C81.4,29.6945126 78.9352986,46.8447789 66.8494057,65.4 C62.548965,62.4091842 57.9626855,61.2171388 53.0905672,61.8238639 L37.1861846,65.4 Z" id="路径-5" fill="#679933"></path>
                <path d="M46.2887339,61.6 C41.6303137,54.3957792 37.9340691,35.1923818 35.2,3.9898077 C35.2508191,-2.0922897 65.9218572,-0.508999519 65.9218572,3.9898077 C65.9218572,8.48861491 67.3405579,27.7471166 58.0880885,61.6" id="路径-6" fill="#98D35B"></path>
                <path d="M51.0653484,59.9464534 C25.6763214,56.8638515 9.36861468,66.8232135 2.14222804,89.8245393 C-8.6973519,124.326528 23.7227877,224.4 51.683887,224.4 C79.6449863,224.4 111.346793,141.918451 101.599135,89.8245393 C95.5490269,68.5408882 78.7044314,58.5815263 51.0653484,59.9464534 Z" id="路径-7" fill="url(#linearGradient-7)"></path>
                <circle id="椭圆形" fill="#512718" cx="28.6" cy="99" r="4.4"></circle>
                <circle id="椭圆形备份-10" fill="#512718" cx="77" cy="99" r="4.4"></circle>
                <path d="M44,113.505447 C44.2185853,125.968482 47.393501,132.2 53.5247471,132.2 C59.6559933,132.2 63.0810776,125.6 63.8,112.4" id="路径-9" stroke="#562923" stroke-width="3.3" fill="#FFFFFF"></path>
                <line x1="53.9" y1="114.4" x2="53.9" y2="132" id="路径-10" stroke="#562923" stroke-width="3.3"></line>
                <path d="M39.6,112.243147 C41.2966982,113.652284 45.5047834,114.356853 52.2242558,114.356853 C58.9437281,114.356853 63.5356428,113.652284 66,112.243147" id="路径-8" stroke="#562923" stroke-width="3.3" stroke-linecap="round"></path>
                <ellipse id="椭圆形" fill="#FF9FB5" cx="22" cy="119.9" rx="11" ry="5.5"></ellipse>
                <ellipse id="椭圆形备份-13" fill="#FF9FB5" cx="85.8" cy="119.9" rx="11" ry="5.5"></ellipse>
                <ellipse id="椭圆形" fill="#FFFFFF" transform="translate(18.124098, 119.744271) rotate(43.000000) translate(-18.124098, -119.744271) " cx="18.1240977" cy="119.744271" rx="1.11073023" ry="3.33532041"></ellipse>
                <ellipse id="椭圆形备份-15" fill="#FFFFFF" transform="translate(81.679181, 119.744271) rotate(43.000000) translate(-81.679181, -119.744271) " cx="81.6791813" cy="119.744271" rx="1.11073023" ry="3.33532041"></ellipse>
                <ellipse id="椭圆形备份-14" fill="#FFFFFF" transform="translate(24.724098, 119.744271) rotate(43.000000) translate(-24.724098, -119.744271) " cx="24.7240977" cy="119.744271" rx="1.11073023" ry="3.33532041"></ellipse>
                <ellipse id="椭圆形备份-16" fill="#FFFFFF" transform="translate(88.279181, 119.744271) rotate(43.000000) translate(-88.279181, -119.744271) " cx="88.2791813" cy="119.744271" rx="1.11073023" ry="3.33532041"></ellipse>
            </g>
            <path d="M50,120 C44.1627461,122.768031 41.5198859,129.434697 42.0714195,140" id="路径-12" stroke-opacity="0.2" stroke="#FFFFFF" stroke-width="6" stroke-linecap="round"></path>
            <line x1="44.9671744" y1="150.17968" x2="46.4990142" y2="153.976981" id="路径-15" stroke-opacity="0.2" stroke="#FFFFFF" stroke-width="6" stroke-linecap="round"></line>
            <path d="M16,122 C8.98136583,128.880244 6.58097156,137.54691 8.79881719,148" id="路径-16" stroke-opacity="0.2" stroke="#FFFFFF" stroke-width="6" stroke-linecap="round"></path>
        </g>
    </g>
</svg>