<?xml version="1.0" encoding="UTF-8"?>
<svg width="320px" height="232px" viewBox="0 0 320 232" version="1.1" xmlns="http://www.w3.org/2000/svg" xmlns:xlink="http://www.w3.org/1999/xlink">
    <!-- Generator: Sketch 61.2 (89653) - https://sketch.com -->
    <title>花菜+豆角+土豆</title>
    <desc>Created with Sketch.</desc>
    <defs>
        <radialGradient cx="37.4304761%" cy="15.6225692%" fx="37.4304761%" fy="15.6225692%" r="52.645718%" gradientTransform="translate(0.374305,0.156226),scale(0.983051,1.000000),rotate(96.144365),translate(-0.374305,-0.156226)" id="radialGradient-1">
            <stop stop-color="#E0C16F" offset="0%"></stop>
            <stop stop-color="#D68F34" offset="100%"></stop>
        </radialGradient>
        <linearGradient x1="50%" y1="0%" x2="50%" y2="100%" id="linearGradient-2">
            <stop stop-color="#78D399" offset="0%"></stop>
            <stop stop-color="#43A860" offset="100%"></stop>
        </linearGradient>
        <linearGradient x1="50%" y1="0%" x2="50%" y2="100%" id="linearGradient-3">
            <stop stop-color="#98D35B" offset="0%"></stop>
            <stop stop-color="#49BC6E" offset="100%"></stop>
        </linearGradient>
    </defs>
    <g id="蔬菜水果" stroke="none" stroke-width="1" fill="none" fill-rule="evenodd">
        <g id="花菜">
            <ellipse id="椭圆形" fill-opacity="0.1" fill="#000000" cx="161" cy="204" rx="107" ry="28"></ellipse>
            <g id="编组" stroke-width="1" transform="translate(67.000000, 150.749239) rotate(-29.000000) translate(-67.000000, -150.749239) translate(5.000000, 91.749239)">
                <path d="M118.706119,52.5384666 C65.5813044,-34.8749353 13.7989939,13.3664565 13.7989939,13.3664565 C-14.3935973,39.8027392 9.57969455,68.1686775 27.4158237,83.0270262 C45.2519529,111.58593 72.2938261,121.041243 91.0888869,115.638207 C99.143913,113.515586 134.816171,100.586893 118.706119,52.5384666 Z" id="路径" fill="#8C641E" fill-rule="nonzero"></path>
                <path d="M13.454135,14.1017464 C13.454135,14.1017464 62.6166058,-33.1984073 116.196017,46.9811215 C116.196017,46.9811215 141.161335,93.31989 97.5680499,113.50898 C67.6096693,127.545204 43.6045565,83.3214835 41.4921066,76.9763409 C8.07698971,68.7084279 -4.4056689,37.1749921 13.454135,14.1017464 Z" id="路径" fill="url(#radialGradient-1)" fill-rule="nonzero"></path>
                <path d="M65.0718485,33.3724889 C68.9378418,33.3724889 72.0718485,36.5064957 72.0718485,40.3724889 C72.0718485,44.2384822 68.9378418,47.3724889 65.0718485,47.3724889 C61.2058553,47.3724889 58.0718485,44.2384822 58.0718485,40.3724889 C58.0718485,36.5064957 61.2058553,33.3724889 65.0718485,33.3724889 Z M40.6000232,10.8715802 C44.3128361,8.5493539 48.8872103,8.5493539 52.6000232,10.8715802 C56.3128361,13.1938066 58.6000232,17.4854578 58.6000232,22.1299105 C58.6000232,26.7743632 56.3128361,31.0660144 52.6000232,33.3882407 C48.8872103,35.7104671 44.3128361,35.7104671 40.6000232,33.3882407 C36.8872103,31.0660144 34.6000232,26.7743632 34.6000232,22.1299105 C34.6000232,17.4854578 36.8872103,13.1938066 40.6000232,10.8715802 Z" id="形状结合" fill-opacity="0.5" fill="#FFFFFF" fill-rule="nonzero"></path>
                <path d="M93.6551975,56.7228225 C95.1619002,58.5530918 97.2270176,59.6491947 99.0726399,59.5982398 C100.918262,59.5472849 102.263995,58.3570135 102.602915,56.4757893 C102.941835,54.5945651 102.22245,52.3081909 100.715748,50.4779217 C98.3865869,47.6485706 94.9178712,46.7528971 92.9681542,48.4773789 C91.0184371,50.2018606 91.3260369,53.8934715 93.6551975,56.7228225 L93.6551975,56.7228225 Z" id="路径" fill="#A88C1C" fill-rule="nonzero"></path>
            </g>
            <g id="编组" stroke-width="1" transform="translate(42.000000, 0.000000)">
                <path d="M57.79375,91.8875 C78.176509,91.8875 94.7,108.410991 94.7,128.79375 C94.7,149.176509 78.176509,165.7 57.79375,165.7 C37.410991,165.7 20.8875,149.176509 20.8875,128.79375 C20.8875,108.410991 37.410991,91.8875 57.79375,91.8875 Z M198.45,57.98125 C212.912957,57.98125 224.6375,69.7057931 224.6375,84.16875 C224.6375,98.6317069 212.912957,110.35625 198.45,110.35625 C183.987043,110.35625 172.2625,98.6317069 172.2625,84.16875 C172.2625,69.7057931 183.987043,57.98125 198.45,57.98125 Z" id="形状结合" fill="url(#linearGradient-2)" fill-rule="nonzero"></path>
                <path d="M84.45,182.6375 L145.95,182.6375 C145.95,182.6375 149.48125,142.95 189.16875,119.79375 L179.41875,103.16875 C179.41875,103.16875 148.54375,114.7 133.10625,143.85625 C133.575,122.73125 147.825,83.10625 147.825,83.10625 L122.48125,71.35625 C122.48125,71.35625 102.8875,123.91875 102.41875,129.7625 C85.98125,100.8875 66.35625,87.54375 66.35625,87.54375 L53.2625,106.5125 C53.2625,106.5125 79.04375,129.2 84.45,182.6375 Z" id="路径" fill="#A5DC69" fill-rule="nonzero"></path>
                <path d="M118.075,182.7 L145.98125,182.6375 C145.98125,182.6375 147.41875,166.29375 158.98125,148.45 C160.325,146.60625 167.95,134.29375 181.5125,124.79375 C180.79375,122.29375 176.35625,119.85625 175.10625,118.575 C161.79375,126.35625 139.0125,157.60625 139.0125,157.60625 C139.0125,157.60625 130.85625,156.8875 133.1375,143.8875 C133.325,136.0125 137.98125,115.54375 137.98125,115.54375 L145.075,91.3875 L138.8875,89.2936963 C138.85625,89.23125 113.0125,143.7625 118.075,182.7 L118.075,182.7 Z" id="路径" fill="#7CA843" fill-rule="nonzero"></path>
                <path d="M197.91875,95.5125 C202.73125,88.45 205.575,79.91875 205.575,70.73125 C205.575,46.45 185.8875,26.7625 161.60625,26.7625 C160.48125,26.7625 159.35625,26.79375 158.2625,26.8875 C149.5125,11.075 132.66875,0.3875 113.325,0.3875 C94.0125,0.3875 77.23125,11.04375 68.45,26.79375 C48.23125,27.29375 31.1375,40.54375 24.98125,58.79375 C10.73125,63.98125 0.54375,77.66875 0.54375,93.73125 C0.54375,114.2625 17.2,130.91875 37.73125,130.91875 C47.7,130.91875 56.7625,126.98125 63.41875,120.60625 C65.45,120.8875 67.54375,121.0125 69.6375,121.0125 C84.825,121.0125 98.325,113.825 106.95,102.66875 C109.04375,102.91875 111.16875,103.075 113.35625,103.075 C118.95,103.075 124.29375,102.16875 129.325,100.54375 C137.35625,109.2625 148.85625,114.7 161.6375,114.7 C162.825,114.7 164.0125,114.6375 165.2,114.54375 C162.91875,119.1375 161.6375,124.29375 161.6375,129.7625 C161.6375,148.7 177.0125,164.075 195.95,164.075 C214.8875,164.075 230.2625,148.7 230.2625,129.7625 C230.23125,111.48125 215.95,96.54375 197.91875,95.5125 L197.91875,95.5125 Z" id="路径" fill="url(#linearGradient-3)" fill-rule="nonzero"></path>
                <path d="M106.91875,102.66875 C98.29375,113.825 84.79375,121.0125 69.60625,121.0125 C67.48125,121.0125 65.41875,120.85625 63.3875,120.60625 C56.7,126.98125 47.66875,130.91875 37.7,130.91875 C17.16875,130.91875 0.5125,114.2625 0.5125,93.73125 C0.5125,93.73125 20.98125,125.73125 43.23125,118.1375 C65.48125,110.54375 63.23125,111.66875 63.23125,111.66875 C62.98125,111.95 81.79375,119.0125 96.16875,108.41875 C104.54375,102.2625 106.91875,102.66875 106.91875,102.66875 L106.91875,102.66875 Z M178.075,149.98125 C182.98125,151.2 188.23125,151.85625 192.23125,151.73125 C201.79375,151.45 215.73125,142.91875 212.79375,123.7625 C209.54375,102.5125 189.2,98.1375 189.2,98.1375 C189.2,98.1375 198.73125,86.41875 192.2625,63.7625 C183.075,31.825 150.45,27.8875 150.45,27.8875 C148.7625,8.73125 125.73125,1.54375 131.35625,3.66875 C142.85625,7.98125 152.3875,16.29375 158.2625,26.91875 C159.35625,26.825 160.48125,26.79375 161.60625,26.79375 C185.8875,26.79375 205.575,46.48125 205.575,70.7625 C205.575,79.95 202.7625,88.48125 197.91875,95.54375 C215.95,96.575 230.23125,111.5125 230.23125,129.79375 C230.23125,148.73125 214.85625,164.10625 195.91875,164.10625 C181.575,164.10625 169.29375,155.325 164.16875,142.825 C169.8875,145.66875 171.1375,148.2625 178.075,149.98125 Z" id="形状" fill="#269642" fill-rule="nonzero"></path>
            </g>
            <g id="编组-3" stroke-width="1" transform="translate(149.530381, 68.000000) rotate(-2.000000) translate(-149.530381, -68.000000) translate(105.030381, 48.000000)">
                <path d="M34.6370276,29.2889788 C34.6370276,28.2153373 35.550904,27.3449788 36.6782276,27.3449788 C37.8055512,27.3449788 38.7194276,28.2153373 38.7194276,29.2889788 C38.7194276,32.5099035 41.4610567,35.1209788 44.8430276,35.1209788 C48.2249985,35.1209788 50.9666276,32.5099035 50.9666276,29.2889788 C50.9666276,28.2153373 51.880504,27.3449788 53.0078276,27.3449788 C54.1351512,27.3449788 55.0490276,28.2153373 55.0490276,29.2889788 C55.0430008,34.6548073 50.4771475,39.003239 44.8430276,39.0089788 C39.2089077,39.003239 34.6430545,34.6548073 34.6370276,29.2889788 Z" id="路径" fill="#000000" fill-rule="nonzero"></path>
                <ellipse id="椭圆形备份-13" fill="#FF9FB5" cx="12.4420669" cy="24.4814774" rx="12.375" ry="6.1875"></ellipse>
                <ellipse id="椭圆形备份-14" fill="#FF9FB5" cx="76.4030798" cy="26.7150451" rx="12.375" ry="6.1875"></ellipse>
                <ellipse id="椭圆形备份-15" fill="#FFFFFF" transform="translate(7.806146, 24.306282) rotate(43.000000) translate(-7.806146, -24.306282) " cx="7.8061459" cy="24.3062824" rx="1.24957151" ry="3.75223546"></ellipse>
                <ellipse id="椭圆形备份-17" fill="#FFFFFF" transform="translate(71.767159, 26.539850) rotate(43.000000) translate(-71.767159, -26.539850) " cx="71.7671588" cy="26.5398502" rx="1.24957151" ry="3.75223546"></ellipse>
                <ellipse id="椭圆形备份-16" fill="#FFFFFF" transform="translate(15.231146, 24.306282) rotate(43.000000) translate(-15.231146, -24.306282) " cx="15.2311459" cy="24.3062824" rx="1.24957151" ry="3.75223546"></ellipse>
                <ellipse id="椭圆形备份-18" fill="#FFFFFF" transform="translate(79.192159, 26.539850) rotate(43.000000) translate(-79.192159, -26.539850) " cx="79.1921588" cy="26.5398502" rx="1.24957151" ry="3.75223546"></ellipse>
                <path d="M22.5079083,6.46533168 C22.6101078,9.68383742 25.3026917,12.1927283 28.5219629,12.0690964 C31.741234,11.9454644 34.2681199,9.23612646 34.1659204,6.01762073 C34.0637209,2.79911499 31.371137,0.290224083 28.1518658,0.41385605 C24.9325947,0.537488017 22.4057088,3.24682594 22.5079083,6.46533168 Z" id="路径" fill="#000000" fill-rule="nonzero" transform="translate(28.336914, 6.241476) rotate(2.000000) translate(-28.336914, -6.241476) "></path>
                <path d="M58.4866054,7.70142276 C58.5593205,9.78371343 59.7374,11.6690363 61.5770728,12.6472085 C63.4167457,13.6253806 65.6385217,13.5477944 67.4054794,12.4436759 C69.1724371,11.3395573 70.2161335,9.37664824 70.1434183,7.29435757 C70.0310104,4.07541519 67.3304194,1.55707145 64.1114794,1.66947939 C60.8925394,1.78188734 58.3741976,4.48248037 58.4866054,7.70142276 L58.4866054,7.70142276 Z" id="路径" fill="#000000" fill-rule="nonzero" transform="translate(64.314984, 7.497858) rotate(2.000000) translate(-64.314984, -7.497858) "></path>
            </g>
            <g id="编组" stroke-width="1" transform="translate(212.530381, 160.500000) rotate(12.000000) translate(-212.530381, -160.500000) translate(116.030381, 90.000000)">
                <path d="M1.889375,100.685625 C7.889375,104.845625 16.109375,103.005625 22.639375,99.815625 C29.169375,96.625625 35.359375,92.165625 42.609375,91.325625 C44.519375,91.105625 46.509375,91.125625 48.279375,90.325625 C49.6922942,89.5805984 51.0031265,88.6562936 52.179375,87.575625 C63.879375,78.355625 80.969375,81.455625 94.919375,76.235625 C101.839375,73.645625 107.799375,69.055625 113.639375,64.525625 L132.879375,49.625625 C141.519375,42.935625 150.239375,36.165625 157.189375,27.725625 C159.869375,24.465625 162.489375,20.805625 166.429375,19.295625 C168.069375,18.665625 169.869375,18.445625 171.429375,17.635625 C172.817478,16.8129629 174.086,15.8035284 175.199375,14.635625 C177.745522,12.2524456 180.569144,10.1842512 183.609375,8.475625 C186.289375,6.965625 190.229375,5.995625 192.009375,8.475625 C193.389375,10.415625 192.369375,13.195625 190.789375,14.975625 C189.209375,16.755625 187.099375,18.075625 185.839375,20.105625 C183.019375,24.655625 185.469375,30.995625 182.949375,35.715625 C181.679375,38.095625 179.349375,39.715625 177.359375,41.485625 C169.589375,48.545625 166.589375,59.485625 159.589375,67.345625 C153.389375,74.265625 144.609375,78.175625 137.909375,84.525625 C133.739375,88.525625 130.449375,93.345625 126.059375,97.075625 C119.979375,102.235625 112.219375,104.895625 104.659375,107.445625 C95.719375,110.445625 86.719375,113.445625 77.399375,114.955625 C67.199375,116.565625 56.809375,116.295625 46.489375,116.015625 L33.549375,115.665625 C29.6238163,115.66723 25.704496,115.352882 21.829375,114.725625 C13.2619494,113.066258 5.55956383,108.424986 0.089375,101.625625" id="路径" fill="#679933" fill-rule="nonzero"></path>
                <path d="M2.11672623,101.194698 C2.93567303,101.762501 5.42333618,107.423693 9.789375,108.655625 C13.5693034,109.722179 18.4088848,107.759258 24.3483209,108.468378 C43.2266437,110.722295 71.7724477,112.290288 102.456712,99.3760299 C105.501151,98.0946997 121.649172,61.1222573 135.184204,47.9646503 C138.698561,44.5482911 143.551006,41.6766975 149.25524,36.2121789 C150.125594,36.8521452 135.584411,55.7812952 134.016774,66.2123792 C132.449138,76.6434632 118.493102,91.3419727 120.15472,90.3348652 C126.178777,86.683681 131.590516,81.779823 137.616131,76.6798116 C141.957172,73.0056048 149.389546,69.7889344 153.732269,65.4072017 C158.454707,60.6423437 158.255503,55.8203217 162.445061,50.0718877 C165.518856,45.8543766 170.40198,42.3822207 174.091926,37.5983339 C176.667113,34.259694 178.147144,24.2899249 179.694344,20.4019097 C183.740914,10.2331407 188.645049,14.5865557 192.009375,8.475625 C193.389375,10.415625 192.369375,13.195625 190.789375,14.975625 C189.209375,16.755625 187.099375,18.075625 185.839375,20.105625 C183.019375,24.655625 185.469375,30.995625 182.949375,35.715625 C181.679375,38.095625 179.349375,39.715625 177.359375,41.485625 C169.589375,48.545625 166.589375,59.485625 159.589375,67.345625 C153.389375,74.265625 144.609375,78.175625 137.909375,84.525625 C133.739375,88.525625 130.449375,93.345625 126.059375,97.075625 C119.979375,102.235625 112.219375,104.895625 104.659375,107.445625 C95.719375,110.445625 86.719375,113.445625 77.399375,114.955625 C67.199375,116.565625 56.809375,116.295625 46.489375,116.015625 L33.549375,115.665625 C29.6238163,115.66723 25.704496,115.352882 21.829375,114.725625 C13.2619494,113.066258 5.55956383,108.424986 0.089375,101.625625 L2.11672623,101.194698 Z" id="路径" fill="#328735" fill-rule="nonzero"></path>
                <path d="M188.369375,11.055625 C175.369375,15.295625 178.699375,33.315625 169.739375,41.435625 C164.829375,45.885625 161.189375,48.835625 158.999375,55.255625 C156.059375,63.875625 150.389375,66.875625 143.059375,71.305625 C136.599375,75.215625 132.059375,81.255625 125.969375,85.655625 C119.879375,90.055625 111.969375,95.655625 104.539375,97.165625 C100.149375,98.055625 95.539375,97.805625 91.049375,98.345625 C87.379375,98.795625 83.749375,99.455625 80.139375,100.235625 C72.139375,101.975625 64.269375,104.345625 56.329375,106.395625 C51.6419859,107.673487 46.892486,108.711501 42.099375,109.505625 C37.369375,110.215625 33.829375,109.315625 29.359375,108.065625 C22.359375,106.065625 16.789375,107.575625 9.789375,108.655625 C8.789375,108.805625 9.239375,110.245625 10.189375,110.105625 C13.849375,109.545625 17.479375,108.465625 21.189375,108.305625 C24.729375,108.155625 28.079375,109.305625 31.439375,110.225625 C37.789375,111.965625 43.249375,110.985625 49.639375,109.565625 C66.289375,105.875625 82.109375,100.305625 99.249375,99.215625 C106.479375,98.755625 111.659375,96.215625 117.819375,92.585625 C124.256957,88.9686506 130.188306,84.5167763 135.459375,79.345625 C140.679375,74.095625 147.049375,71.435625 152.859375,67.055625 C157.799375,63.335625 159.029375,58.785625 161.259375,53.275625 C164.379375,45.545625 173.029375,42.655625 176.259375,34.915625 C179.489375,27.175625 179.259375,15.615625 188.749375,12.505625 C189.659375,12.205625 189.269375,10.755625 188.349375,11.055625 L188.369375,11.055625 Z" id="路径" fill-opacity="0.529092002" fill="#000000" fill-rule="nonzero"></path>
                <path d="M12.159375,137.855625 C25.2651071,133.826151 36.5293677,125.302707 43.969375,113.785625 C46.159375,110.365625 48.119375,106.585625 51.499375,104.335625 C53.969375,102.705625 56.949375,102.065625 59.609375,100.755625 C68.609375,96.275625 71.949375,85.325625 77.919375,77.195625 C84.429375,68.335625 94.779375,62.195625 98.869375,51.975625 C100.239375,48.545625 101.019375,44.525625 104.019375,42.365625 C105.422862,41.5500507 106.871901,40.815515 108.359375,40.165625 C115.209375,36.335625 115.659375,26.565625 120.699375,20.545625 C122.849375,17.985625 125.759375,16.195625 128.389375,14.145625 C131.032922,12.0938142 133.431985,9.74508108 135.539375,7.145625 C137.169375,5.145625 138.669375,2.915625 140.829375,1.475625 C142.989375,0.035625 146.089375,-0.404375 148.089375,1.235625 C151.289375,3.865625 149.489375,8.895625 148.539375,12.935625 C146.379375,22.015625 149.789375,32.935625 143.699375,40.005625 C141.389375,42.685625 138.019375,44.295625 135.789375,47.005625 C132.579375,50.935625 132.239375,56.415625 130.249375,61.075625 C127.609375,67.265625 122.109375,71.865625 118.659375,77.675625 C114.299375,85.035625 113.299375,94.225625 107.899375,100.865625 C102.499375,107.505625 93.609375,110.495625 88.539375,117.365625 C86.539375,120.065625 85.279375,123.255625 83.169375,125.865625 C79.479375,130.425625 73.709375,132.715625 68.099375,134.435625 C46.699375,140.965625 33.919375,143.015625 12.099375,138.045625" id="路径" fill="#98D35B" fill-rule="nonzero"></path>
                <path d="M47.9013503,99.0614109 C51.2150588,99.0614109 53.9013503,101.747702 53.9013503,105.061411 C53.9013503,108.375119 51.2150588,111.061411 47.9013503,111.061411 C44.5876418,111.061411 41.9013503,108.375119 41.9013503,105.061411 C41.9013503,101.747702 44.5876418,99.0614109 47.9013503,99.0614109 Z M83.4013503,76.0614109 C87.5434859,76.0614109 90.9013503,79.4192752 90.9013503,83.5614109 C90.9013503,87.7035465 87.5434859,91.0614109 83.4013503,91.0614109 C79.2592147,91.0614109 75.9013503,87.7035465 75.9013503,83.5614109 C75.9013503,79.4192752 79.2592147,76.0614109 83.4013503,76.0614109 Z M114.40135,52.0614109 C118.543486,52.0614109 121.90135,55.4192752 121.90135,59.5614109 C121.90135,63.7035465 118.543486,67.0614109 114.40135,67.0614109 C110.259215,67.0614109 106.90135,63.7035465 106.90135,59.5614109 C106.90135,55.4192752 110.259215,52.0614109 114.40135,52.0614109 Z M134.90135,30.0614109 C138.215059,30.0614109 140.90135,32.7477024 140.90135,36.0614109 C140.90135,39.3751194 138.215059,42.0614109 134.90135,42.0614109 C131.587642,42.0614109 128.90135,39.3751194 128.90135,36.0614109 C128.90135,32.7477024 131.587642,30.0614109 134.90135,30.0614109 Z" id="形状结合" fill-opacity="0.252431163" fill="#CBFF93" transform="translate(91.401350, 70.561411) rotate(-12.000000) translate(-91.401350, -70.561411) "></path>
                <path d="M12.159375,137.855625 C14.923083,137.876623 21.8937648,138.691323 30.2354817,137.117071 C38.1339645,135.626467 46.714158,131.139012 57.752937,126.124858 C62.4086587,124.010086 70.0945595,124.786994 75.694238,121.150816 C80.8144235,117.825998 83.8809848,110.13447 87.6429582,107.067103 C93.2159104,102.523135 98.3500282,97.3652135 103.098038,91.7345701 C107.706557,86.2693471 109.417795,78.4620133 113.347019,72.2352267 C116.129726,67.8253664 119.547695,66.3052295 122.190878,61.7437399 C125.462397,56.0978978 126.179325,49.3247875 129.06984,43.1152286 C131.808047,37.2328683 139.559147,31.339298 142.432371,25.455245 C146.427225,17.274215 143.522359,9.24109775 148.089375,1.235625 C151.289375,3.865625 149.489375,8.895625 148.539375,12.935625 C146.379375,22.015625 149.789375,32.935625 143.699375,40.005625 C141.389375,42.685625 138.019375,44.295625 135.789375,47.005625 C132.579375,50.935625 132.239375,56.415625 130.249375,61.075625 C127.609375,67.265625 122.109375,71.865625 118.659375,77.675625 C114.299375,85.035625 113.299375,94.225625 107.899375,100.865625 C102.499375,107.505625 93.609375,110.495625 88.539375,117.365625 C86.539375,120.065625 85.279375,123.255625 83.169375,125.865625 C79.479375,130.425625 73.709375,132.715625 68.099375,134.435625 C46.699375,140.965625 33.919375,143.015625 12.099375,138.045625" id="路径" fill="#43A860" fill-rule="nonzero"></path>
                <path d="M147.209375,3.725625 C143.759375,7.515625 143.859375,12.195625 143.579375,17.035625 C143.089375,25.315625 138.759375,29.735625 133.469375,35.605625 C129.751799,39.8502659 127.001605,44.8524789 125.409375,50.265625 C124.229375,53.915625 123.199375,57.725625 121.279375,61.075625 C119.359375,64.425625 116.599375,66.815625 114.389375,69.815625 C111.689375,73.465625 110.099375,78.015625 108.279375,82.145625 C105.569375,88.295625 101.859375,92.685625 96.939375,97.215625 C92.299375,101.475625 87.179375,104.855625 83.879375,110.355625 C81.639375,114.085625 79.629375,118.135625 75.739375,120.435625 C72.199375,122.525625 67.929375,122.885625 63.979375,123.625625 C56.039375,125.105625 50.099375,129.745625 42.849375,132.885625 C36.6423304,135.656456 30.0384677,137.434809 23.279375,138.155625 C22.279375,138.235625 22.279375,139.735625 23.279375,139.655625 C28.7048703,139.041073 34.0365991,137.775291 39.159375,135.885625 C45.389375,133.765625 50.659375,129.975625 56.649375,127.355625 C63.189375,124.495625 71.099375,125.275625 77.149375,121.355625 C83.049375,117.485625 84.799375,110.015625 89.849375,105.295625 C94.679375,100.785625 100.189375,97.035625 104.429375,91.895625 C107.919375,87.655625 109.749375,82.465625 112.009375,77.525625 C114.539375,72.005625 118.519375,68.195625 121.789375,63.205625 C125.689375,57.205625 126.469375,49.885625 129.619375,43.565625 C132.859375,37.065625 139.329375,33.065625 142.769375,26.735625 C146.459375,19.945625 142.969375,10.615625 148.269375,4.785625 C148.919375,4.075625 147.859375,3.005625 147.209375,3.725625 L147.209375,3.725625 Z" id="路径" fill-opacity="0.529092002" fill="#000000" fill-rule="nonzero"></path>
            </g>
        </g>
    </g>
</svg>