<?xml version="1.0" encoding="UTF-8"?>
<svg width="334px" height="236px" viewBox="0 0 334 236" version="1.1" xmlns="http://www.w3.org/2000/svg" xmlns:xlink="http://www.w3.org/1999/xlink">
    <!-- Generator: Sketch 61.2 (89653) - https://sketch.com -->
    <title>荔枝+火龙果</title>
    <desc>Created with Sketch.</desc>
    <defs>
        <linearGradient x1="64.8172548%" y1="34.4424312%" x2="54.7334388%" y2="52.6401703%" id="linearGradient-1">
            <stop stop-color="#E93C9B" offset="0%"></stop>
            <stop stop-color="#CE1C62" offset="100%"></stop>
        </linearGradient>
        <linearGradient x1="50%" y1="0%" x2="50%" y2="100%" id="linearGradient-2">
            <stop stop-color="#C21862" offset="0%"></stop>
            <stop stop-color="#9B157D" offset="100%"></stop>
        </linearGradient>
        <linearGradient x1="50%" y1="0%" x2="50%" y2="100%" id="linearGradient-3">
            <stop stop-color="#ED3D49" offset="0%"></stop>
            <stop stop-color="#C7212C" offset="100%"></stop>
        </linearGradient>
        <linearGradient x1="50%" y1="0%" x2="50%" y2="100%" id="linearGradient-4">
            <stop stop-color="#DA2F3B" offset="0%"></stop>
            <stop stop-color="#ED3D49" offset="100%"></stop>
        </linearGradient>
        <linearGradient x1="0%" y1="32.6389208%" x2="100%" y2="32.6389208%" id="linearGradient-5">
            <stop stop-color="#C64C25" offset="0%"></stop>
            <stop stop-color="#963516" offset="100%"></stop>
        </linearGradient>
        <path d="M50.6271563,72.2710313 C31.9666875,72.2710313 18.1273125,66.0603281 8.40004688,53.27025 C6.30145313,50.5193906 4.62825,47.3998594 3.43715625,43.9967344 C1.36692188,38.1263438 0.99825,36.254625 0.969890625,35.574 C0.743015625,34.1560313 1.19676563,33.2485313 1.62215625,32.7380625 C2.18934375,32.0574375 3.06848438,31.6604063 4.03270313,31.6604063 C5.36559375,31.6604063 6.58504688,32.4261094 7.06715625,33.5888438 C7.20895313,33.9575156 7.37910938,34.3829063 7.54926563,34.8650156 C8.3716875,37.1337656 9.6195,40.5368906 12.3987188,41.3876719 C15.2346563,42.2668125 22.6080938,44.1668906 26.0962969,44.1668906 C26.6634844,44.1668906 26.9470781,44.1101719 27.088875,44.0818125 C27.9680156,41.5011094 29.2158281,38.069625 34.4906719,38.069625 C37.6385625,38.069625 40.6446563,39.2890781 42.8283281,40.1682188 C43.9627031,40.6219688 45.0403594,41.0473594 45.5224688,41.0473594 C46.0329375,41.0473594 46.8553594,41.0757188 47.8195781,41.1040781 C49.2091875,41.1324375 50.9391094,41.1891563 52.4137969,41.1891563 C53.8034063,41.1891563 54.7392656,41.1607969 55.1930156,41.0757188 C55.7034844,40.9906406 56.6960625,40.2532969 57.490125,39.65775 C58.7662969,38.7218906 59.9573906,37.84275 61.0350469,37.84275 C61.5455156,37.84275 61.9709063,38.0129063 62.3112188,38.3532188 C62.6231719,38.6368125 64.4665313,39.204 66.9337969,39.204 C69.06075,39.204 70.2802031,38.7786094 70.7339531,38.4099375 C72.2937188,36.3113438 77.22825,32.5679063 80.9433281,32.5679063 C81.2836406,32.5679063 81.6239531,32.5962656 81.9359063,32.6529844 C82.6448906,32.4544688 83.0986406,31.9156406 83.8359844,30.9797813 C85.0270781,29.5050938 86.6152031,27.4915781 90.6989531,26.725875 C96.8812969,25.5347813 98.0723906,24.5422031 98.2425469,24.3153281 L98.2425469,24.0317344 C98.1858281,22.5003281 98.10075,19.2673594 99.91575,18.1897031 C100.766531,17.6792344 102.751688,16.3179844 103.035281,14.7015 C103.177078,13.8507188 104.311453,6.36384375 101.645672,1.62782813 C101.390438,1.17407813 101.532234,0.606890625 101.957625,0.323296875 C102.127781,0.209859375 102.326297,0.153140625 102.524813,0.153140625 C102.808406,0.153140625 103.092,0.266578125 103.290516,0.493453125 C105.786141,3.4711875 108.026531,10.2207188 109.104188,18.1329844 C110.295281,26.7825938 109.869891,35.0635313 107.941453,40.8488438 C103.659188,53.724 87.0405938,68.3290781 63.5590313,71.3635313 C59.0215313,71.9590781 54.6541875,72.2710313 50.6271563,72.2710313 L50.6271563,72.2710313 Z" id="path-6"></path>
        <linearGradient x1="41.1361746%" y1="52.3106137%" x2="61.087247%" y2="75.5921602%" id="linearGradient-8">
            <stop stop-color="#ED3D49" offset="0%"></stop>
            <stop stop-color="#CA242F" offset="100%"></stop>
        </linearGradient>
    </defs>
    <g id="蔬菜水果" stroke="none" stroke-width="1" fill="none" fill-rule="evenodd">
        <g id="荔枝/火龙果" transform="translate(1.000000, 0.000000)">
            <ellipse id="椭圆形" fill-opacity="0.1" fill="#000000" cx="182" cy="202" rx="96" ry="34"></ellipse>
            <g id="编组" stroke-width="1" transform="translate(112.721767, 135.483420) scale(1, -1) rotate(-157.000000) translate(-112.721767, -135.483420) translate(-7.278233, 59.483420)">
                <path d="M200.526562,70.8778125 C200.526562,69.5578125 192.166562,62.0778126 191.726563,60.7578126 C191.286562,59.4378126 195.686563,56.3578125 200.966563,55.0378125 C206.246563,53.7178125 215.046562,41.3978124 211.966563,39.6378126 C208.886563,37.8778125 176.326563,43.5978126 176.326563,43.5978126 C175.886563,42.7178127 173.686563,40.0778127 173.686563,40.0778124 C179.846563,39.6378123 179.406563,31.7178123 180.286563,32.5978125 C181.166563,33.4778124 166.206563,15.8778126 161.366563,14.5578126 C156.526562,13.2378126 146.846563,14.5578126 146.846563,14.5578126 C145.086562,14.1178125 129.246562,10.5978126 122.646562,10.1578125 C116.046562,9.71781241 109.006562,7.95781259 109.006563,7.95781259 C117.366563,4.8778125 122.206563,4.43781267 122.206563,4.43781241 C113.846563,-3.48218759 97.5665627,9.27781233 97.5665624,9.27781259 C72.0465623,16.7578125 59.2865624,25.9978125 55.3265624,29.0778126 C54.8865623,29.5178127 54.0065624,29.9578125 53.5665626,29.9578125 C49.6065626,32.1578124 45.6465626,33.0378126 45.6465626,33.0378126 C44.7665627,33.0378126 43.4465627,30.3978126 45.2065625,30.3978126 C46.5265625,30.3978126 50.0465624,26.8778127 52.6865624,24.6778125 C52.6865624,23.7978126 52.2465623,23.3578125 52.2465626,22.0378125 C40.8065627,22.0378125 36.8465627,39.1978125 36.4065626,40.5178125 C35.9665625,42.7178124 28.9265627,56.3578125 26.2865624,56.3578125 C23.6465624,56.7978126 26.2865624,50.1978126 26.2865624,50.1978126 C17.0465624,49.7578125 13.9665623,64.7178126 17.0465624,71.7578124 C20.1265625,78.7978122 19.2465623,80.1178125 17.0465624,83.6378124 C14.8465625,87.1578123 5.16656241,88.9178124 4.2865625,94.1978124 C3.40656259,99.4778124 2.08656259,101.677812 0.326562501,106.517813 C-1.43343759,111.797813 10.0065626,126.757813 10.0065626,126.757813 C13.5265625,122.357813 13.5265625,123.677813 17.9265626,122.357813 C22.3265627,121.037813 24.5265626,124.117813 31.1265626,127.637813 C37.7265626,131.597813 36.4065626,133.357813 43.8865625,143.037812 C51.3665624,152.717812 54.8865626,151.837812 54.8865626,151.837813 C54.8865626,151.837813 56.6465627,149.197813 54.0065624,146.997812 C51.3665624,144.797813 51.8065625,140.837813 51.8065625,140.837813 C58.4065625,139.517813 65.4465626,142.157813 71.6065625,142.157813 C77.3265626,142.597813 97.1265626,150.077813 100.646563,150.517813 C103.726563,150.957813 106.366563,147.877813 106.366563,147.877813 C103.726563,147.877813 100.206563,146.117813 100.206562,146.117813 C100.206562,143.917813 105.926563,144.357812 117.806563,143.917813 C129.246562,143.477813 131.446563,136.877813 141.126562,135.117812 C151.246562,133.357812 162.246562,125.437812 162.246562,125.437813 C160.926562,124.997813 160.486562,124.117813 160.486563,124.117813 C160.486563,124.117813 165.766563,123.237813 171.486562,122.797813 C177.206563,122.357813 183.366562,106.517813 184.246563,105.637813 C184.686563,104.757813 185.566563,101.677813 186.446563,99.0378126 C186.886563,97.7178126 187.766563,96.8378127 188.206563,96.3978126 C189.966563,95.0778126 200.966563,72.1978125 200.526562,70.8778125 L200.526562,70.8778125 Z" id="路径" fill="url(#linearGradient-1)" fill-rule="nonzero"></path>
                <path d="M143.326563,79.2378126 C146.406563,69.9978126 143.326563,56.3578125 130.566562,60.7578126 C117.806562,65.1578127 103.726562,58.9978125 101.086563,50.1978126 C98.4465626,41.3978127 69.8465627,45.3578127 56.2065626,53.7178125 C42.5665625,62.5178124 44.3265626,56.3578125 44.3265626,56.3578125 L53.1265625,34.7978124 L53.1265625,30.3978126 C49.1665625,32.5978125 45.2065625,33.4778126 45.2065625,33.4778126 C44.3265626,33.4778126 43.0065626,30.8378124 44.7665624,30.8378124 C46.0865624,30.8378124 49.6065623,27.3178125 52.2465626,25.1178126 C52.2465626,24.2378127 51.8065625,23.7978126 51.8065625,22.4778126 C40.3665626,22.4778126 36.4065626,39.6378126 35.9665625,40.9578126 C35.9665625,42.7178127 28.9265624,56.3578125 26.2865624,56.3578125 C23.6465624,56.7978126 26.2865624,50.1978126 26.2865624,50.1978126 C17.0465624,49.7578125 13.9665623,64.7178126 17.0465624,71.7578124 C20.1265625,78.3578124 19.2465623,80.1178125 17.0465624,83.6378124 C14.8465625,87.1578123 5.16656241,88.9178124 4.2865625,94.1978124 C3.40656259,99.4778126 2.08656259,101.677812 0.326562501,106.517813 C-1.43343759,111.357813 10.0065626,126.757813 10.0065626,126.757813 C13.5265625,122.357813 13.5265625,123.677813 17.9265626,122.357813 C22.3265627,121.037813 24.5265626,124.117813 31.1265626,127.637813 C37.7265626,131.597813 36.4065626,133.357813 43.8865625,143.037812 C50.9265626,152.717813 54.8865626,151.837812 54.8865626,151.837813 C54.8865626,151.837813 56.6465627,149.197813 54.0065624,146.997812 C51.3665624,144.797813 51.8065625,140.837813 51.8065625,140.837813 C58.4065625,139.517813 65.4465626,142.157813 71.6065625,142.157813 C77.3265626,142.597813 97.1265626,150.077813 100.646563,150.517813 C103.726563,150.957813 106.366563,147.877813 106.366563,147.877813 C103.726563,147.877813 100.206563,146.117813 100.206562,146.117813 C100.206562,143.917813 105.926563,144.357812 117.806563,143.917813 C129.686563,143.477813 131.446563,136.877813 141.126562,135.117812 C151.246562,133.357812 162.246562,125.437812 162.246562,125.437813 C160.926562,124.997813 160.486562,124.117813 160.486563,124.117813 C160.486563,124.117813 165.766563,123.237813 171.486562,122.797813 C177.206563,122.357813 183.366562,106.517813 184.246563,105.637813 C184.686563,104.757813 185.566563,101.677813 186.446563,99.0378126 C183.366562,95.0778126 181.606563,89.7978126 180.286563,84.0778125 C176.766563,69.1178124 143.326563,79.2378126 143.326563,79.2378126 L143.326563,79.2378126 Z" id="路径" fill="url(#linearGradient-2)" fill-rule="nonzero"></path>
                <path d="M157.846563,63.3978126 C158.286563,61.1978127 156.086563,56.7978126 154.326562,53.7178125 C150.366562,51.0778125 147.286562,48.4378125 144.646563,44.0378124 C138.486563,35.2378125 115.606563,36.9978123 115.606563,36.9978126 C115.606563,36.9978128 137.166563,39.1978125 139.366563,44.9178126 C142.006563,51.0778125 149.046563,66.4778127 143.326563,78.7978125 C137.166563,91.9978125 133.206563,91.1178126 128.806563,110.917813 C128.806563,110.917813 130.566563,97.2778125 148.166563,89.7978126 C152.566563,88.0378125 154.326562,84.0778125 156.966562,83.1978126 C159.606563,81.8778126 161.806562,80.9978127 165.326563,82.3178124 C168.406563,83.1978123 170.166562,85.8378123 171.926563,86.7178125 C177.646563,89.7978126 182.046562,86.7178125 182.486563,84.9578124 C183.366562,80.1178125 156.966562,66.4778124 157.846563,63.3978126 Z" id="路径" fill="#9B157D" fill-rule="nonzero"></path>
                <path d="M153.006562,83.1978126 C156.526562,77.9178126 166.646563,78.3578127 171.046563,83.6378124 C175.446563,88.9178124 180.726563,86.7178125 182.486563,84.9578124 C182.486563,84.9578124 179.846563,69.9978123 169.726563,62.9578125 C164.446563,58.9978125 159.166563,56.3578125 154.766563,53.2778124 C156.966562,56.7978123 158.726563,60.7578123 158.286562,62.9578125 C157.406563,66.9178125 160.046563,75.7178124 154.326562,78.3578124 C148.166563,81.4378125 139.806562,90.2378124 135.406563,97.2778124 C141.566563,91.9978125 150.806563,86.2778124 153.006562,83.1978126 L153.006562,83.1978126 Z" id="路径" fill="#95D13C" fill-rule="nonzero"></path>
                <path d="M78.6465626,29.0778126 C78.6465626,29.0778126 86.1265625,24.2378127 94.0465625,27.7578126 C101.526562,31.2778125 101.526562,36.9978126 101.526562,44.4778125 C101.526562,48.8778126 90.0865625,74.8378125 83.0465624,80.5578126 C83.0465624,80.5578126 97.5665624,56.7978126 91.8465626,51.5178126 C87.4465625,47.5578126 84.8065625,50.6378127 81.7265624,48.8778126 C73.3665623,44.4778125 88.7665625,39.1978125 87.4465625,35.6778126 C84.8065625,32.1578127 85.6865624,29.9578125 78.6465626,29.0778126 Z" id="路径" fill="#AB1672" fill-rule="nonzero"></path>
                <path d="M78.6465626,40.9578126 C78.6465626,40.9578126 74.2465625,41.8378125 74.2465625,43.5978126 C74.2465625,45.3578127 73.8065624,49.3178127 79.5265625,49.3178124 C86.5665626,49.3178124 92.2865624,46.2378123 95.3665625,43.5978126 C97.5665624,41.3978127 100.646563,41.3978127 101.086563,43.5978126 C101.526563,45.3578127 98.8865627,52.3978125 95.8065626,58.9978125 C95.3665625,59.4378126 101.526563,49.3178124 101.966563,47.1178125 C106.806562,31.2778125 98.8865624,28.6378125 94.0465625,28.1978124 C94.0465625,28.1978124 87.8865626,28.1978124 84.3665624,33.0378126 C81.2865623,37.4378127 80.4065624,40.5178125 78.6465626,40.9578126 L78.6465626,40.9578126 Z" id="路径" fill="#95D13C" fill-rule="nonzero"></path>
                <path d="M44.3265626,31.2778125 C44.3265626,31.2778125 39.9265625,32.1578124 39.4865624,37.4378124 C39.0465623,42.7178124 39.0465623,46.6778124 38.1665624,47.5578126 C38.1665624,47.5578126 40.8065624,44.4778125 41.6865626,40.9578126 C41.6865626,40.9578126 42.1265627,44.4778125 37.7265626,55.0378125 C37.7265626,55.0378125 43.0065626,49.3178124 44.3265626,44.9178126 C45.6465626,40.5178128 47.8465625,37.4378127 50.9265626,37.4378124 C50.9265626,37.4378124 45.6465626,55.4778123 39.0465626,65.5978125 C39.0465626,65.5978125 47.4065627,53.7178125 52.2465626,41.8378125 C57.0865625,29.5178124 61.0465625,29.9578125 61.0465625,29.9578125 C61.0465625,29.9578125 53.5665626,29.9578125 46.0865624,33.0378126 C45.6465623,33.4778127 44.3265623,33.4778127 44.3265626,31.2778125 Z" id="路径" fill="#A71675" fill-rule="nonzero"></path>
                <path d="M43.1051002,29.8768029 C46.6251002,28.1168028 54.2199022,29.6545464 54.4724471,26.1974991 C54.7249919,22.7404518 57.9011699,22.2478345 57.9011699,22.2478345 L55.8651002,21.0768027 C55.8651002,21.0768027 47.6082535,17.1310746 43.9851002,24.1568028 C39.1451002,28.9968027 39.5851001,31.1968029 39.5851003,32.5168029 C39.5851003,32.5168029 40.0251004,31.1968029 43.1051002,29.8768029 Z" id="路径" fill="#95D13C" fill-rule="nonzero"></path>
                <path d="M66.7665626,92.4378126 C66.7665626,92.4378126 71.1665627,99.9178125 83.4865625,101.677813 C95.8065623,103.437813 98.8865624,104.317813 101.966563,104.317813 C106.366563,104.317813 110.326563,113.117813 101.966563,118.397813 C96.2465624,121.917812 86.5665626,121.037813 80.8465625,123.677813 C75.5665625,126.317813 66.7665626,133.357813 66.7665626,133.357813 C66.7665626,133.357813 74.2465625,129.397813 79.5265625,117.957812 C84.8065625,106.517812 74.6865626,114.877812 66.7665626,92.4378126 Z" id="路径" fill="#AC021C" fill-rule="nonzero"></path>
                <path d="M66.7665626,92.4378126 C66.7665626,92.4378126 69.8465627,103.437813 79.9665626,105.197812 C90.0865625,106.957812 99.7665626,108.277813 101.086563,110.917813 C101.966563,112.237813 103.286563,118.397812 89.2065626,120.157813 C75.1265627,121.917813 71.1665627,132.037813 66.3265625,133.357813 C66.3265625,133.357813 82.1665625,123.237813 74.6865626,110.917813 C67.6465625,98.1578127 66.7665626,93.7578126 66.7665626,92.4378126 L66.7665626,92.4378126 Z" id="路径" fill="#737B15" fill-rule="nonzero"></path>
                <path d="M29.3665625,79.2378126 C29.3665625,79.2378126 32.0065625,79.6778127 32.8865624,80.9978124 C35.0865623,83.6378124 35.9665625,86.7178125 37.7265626,88.9178124 C38.6065625,90.2378126 42.5665625,91.5578124 43.0065626,94.1978124 C44.7665627,99.9178125 42.1265627,108.277812 35.5265624,111.797812 C28.9265622,115.317813 26.7265625,116.197813 26.7265625,118.837813 C26.7265625,121.477813 28.9265624,124.997812 21.0065624,118.837813 C13.0865624,112.677813 9.5665625,113.997813 9.12656241,113.117812 C8.68656233,112.237813 18.3665624,105.637813 21.0065624,107.397812 C22.3265624,108.277812 18.8065625,113.557812 20.5665626,113.557813 C22.3265627,113.557813 24.5265626,113.557813 25.8465626,112.237813 C27.1665626,110.917813 23.6465627,107.837812 32.4465626,99.0378126 C41.2465625,90.2378126 29.3665625,79.2378126 29.3665625,79.2378126 L29.3665625,79.2378126 Z" id="路径" fill="#AC021C" fill-rule="nonzero"></path>
                <path d="M28.9265624,79.2378126 C29.8065623,78.7978125 32.0065625,79.6778127 32.4465626,80.5578126 C34.6465625,82.7578125 35.9665625,88.9178127 35.9665625,91.5578124 C35.9665625,92.4378123 34.6465625,95.5178124 34.6465625,95.5178124 C34.6465625,95.5178124 28.0465625,108.277813 25.8465626,108.277813 C25.8465626,108.277813 27.1665626,94.6378125 26.7265625,89.7978126 C26.2865624,84.9578127 26.7265625,80.5578126 28.9265624,79.2378126 L28.9265624,79.2378126 Z M25.4065625,55.4778126 C25.4065625,55.4778126 25.8465626,51.9578127 27.6065624,50.6378124 C29.3665625,49.3178124 21.0065624,49.3178124 19.2465626,54.5978124 C18.8065625,55.0378125 21.8865626,53.7178125 25.4065625,55.4778126 L25.4065625,55.4778126 Z" id="形状" fill="#717E34" fill-rule="nonzero"></path>
                <path d="M0.766562587,111.357812 C0.766562587,111.357812 4.2865625,110.917812 5.6065625,112.237813 C6.9265625,113.557813 12.6465626,123.237813 12.6465626,123.237812 C12.6465626,123.237812 10.4465627,127.197812 10.0065626,126.757813 C9.12656267,126.317812 2.52656267,117.077812 0.766562587,111.357812 L0.766562587,111.357812 Z" id="路径" fill="#656A2B" fill-rule="nonzero"></path>
                <path d="M42.5665625,141.717812 C42.5665625,141.717812 49.1665625,142.597812 51.3665624,140.837813 C51.3665624,140.837813 53.1265625,146.117813 54.8865626,147.877813 C56.6465627,149.637813 55.3265627,152.717812 53.5665625,151.837813 C50.9265626,151.397812 46.5265625,147.877813 42.5665625,141.717812 Z" id="路径" fill="#6B1D19" fill-rule="nonzero"></path>
                <path d="M122.646562,117.517813 C122.646562,117.517813 125.286562,122.357813 129.246562,127.197812 C132.766562,131.157812 149.486563,126.757812 160.046563,118.397813 C160.046563,118.397813 146.846563,126.757813 133.646562,122.797813 C127.046563,121.037813 128.806563,122.357813 122.646562,117.517813 L122.646562,117.517813 Z" id="路径" fill="#B51A43" fill-rule="nonzero"></path>
                <path d="M122.646562,117.517813 C122.646562,117.517813 127.486562,127.197813 136.286563,126.757813 C145.086562,126.317813 156.966562,121.037813 161.366563,125.877812 C161.366563,125.877812 155.646562,132.477812 145.966563,135.117812 C136.286563,137.317812 131.446563,140.837813 129.686562,141.717812 C127.926562,142.597812 122.206563,144.357812 118.686562,144.797813 C118.686562,144.797813 130.566562,143.037812 131.886562,135.117812 C132.326563,128.957813 126.606562,128.517813 122.646562,117.517813 L122.646562,117.517813 Z" id="路径" fill="#679933" fill-rule="nonzero"></path>
                <path d="M187.766563,98.5978125 C187.766563,98.5978125 180.286563,103.877813 177.206563,105.197813 C174.126562,106.517813 167.086563,112.677812 165.326563,118.397813 C163.566562,124.117813 162.246562,124.117813 162.246562,124.117813 C162.246562,124.117813 173.686562,125.877813 177.646563,118.837813 C182.046563,111.797813 186.446563,106.517813 187.766563,98.5978125 L187.766563,98.5978125 Z" id="路径" fill="#679933" fill-rule="nonzero"></path>
                <path d="M193.254019,60.0462803 C196.028943,56.5262804 202.766915,55.4778126 205.264343,54.5978124 C207.761772,53.7178125 217.196503,53.2778124 219.693932,52.8378126 C221.913868,52.3978125 223.362906,49.190666 223.301328,46.6778124 C223.260277,45.0025767 222.0962,43.8794742 219.809098,43.3085049 C214.017126,45.7670513 208.983879,45.1301538 204.709359,41.3978124 C198.297579,35.7993003 192.033866,36.3339732 187.871485,39.4139733 C183.709104,42.0539733 183.346451,42.7481624 182.791467,43.1881625 C182.236483,43.6281626 188.059834,47.1178125 186.394882,62.9578125 C186.394882,63.8378124 189.924117,64.4462802 193.254019,60.0462803 Z" id="路径" fill="#95D13C" fill-rule="nonzero"></path>
                <path d="M200.526562,71.7578124 C200.526562,71.7578124 204.486562,68.2378125 207.566563,68.2378125 C210.646563,68.2378125 220.326562,64.7178126 223.846563,64.2778125 C227.366563,63.8378124 231.326563,60.3178125 232.206562,58.1178126 C233.086562,55.9178127 233.526562,53.7178125 233.526562,53.7178125 C232.646563,53.2778124 231.766562,54.5978124 227.806563,54.5978124 C223.846563,54.5978124 219.446563,55.0378125 217.246563,55.9178124 C215.486563,56.7978123 214.606563,58.1178123 209.766562,57.6778125 C204.926563,57.6778125 202.726562,60.7578126 198.766563,60.7578126 C194.806563,60.7578126 191.286563,60.7578126 188.646562,62.0778126 C186.006562,63.3978126 197.886562,70.8778125 200.526562,71.7578124 L200.526562,71.7578124 Z" id="路径" fill="#C3E462" fill-rule="nonzero"></path>
                <path d="M196.126563,68.2378125 C198.326563,69.9978126 197.941077,73.6829736 201.021077,73.6829736 C204.101078,73.6829736 212.593035,75.4333121 213.473035,75.4333121 C214.353035,75.4333121 221.393035,74.5533121 223.593035,75.4333121 C225.793035,76.313312 230.633035,76.313312 234.153035,75.4333121 C237.233035,74.993312 240.753035,76.313312 238.553035,78.5133121 C236.353035,80.2733122 217.873035,91.7133121 203.793035,92.5933121 C190.153035,93.473312 192.166563,94.1978124 187.766563,98.5978125 C184.246563,102.117812 181.606563,104.317813 178.966563,104.317813 C178.966563,104.317813 186.006563,98.1578127 187.326562,94.1978124 C188.646562,90.2378124 194.806562,86.2778124 194.806563,77.9178126 C194.366563,70.4378127 189.086563,64.7178126 188.206563,62.9578125 C188.206563,62.9578125 193.926563,66.4778124 196.126563,68.2378125 Z" id="路径" fill="#95D13C" fill-rule="nonzero"></path>
                <path d="M146.846563,14.9978124 C146.846563,14.9978124 152.315317,13.1490089 156.715316,13.589009 C162.435317,14.4690089 166.206562,14.5578126 170.166562,17.1978126 C174.126562,19.8378126 178.894707,19.9064614 182.486563,22.0378125 C185.078732,23.7995237 188.498166,28.9007207 185.126563,34.3578126 C183.806563,34.7978127 179.406562,33.9178125 172.806562,29.0778126 C169.726562,26.8778127 168.406562,32.5978125 168.406563,32.5978125 C160.046563,18.0778125 146.846563,14.9978124 146.846563,14.9978124 Z" id="路径" fill="#C3E462" fill-rule="nonzero"></path>
                <path d="M126.606562,0.9178125 C131.446562,3.5578125 140.686562,3.99781259 143.326563,5.31781259 C145.966563,6.63781259 143.766563,9.27781259 141.126562,8.8378125 C138.486562,8.39781241 132.527511,5.13121775 127.246353,6.63440806 C119.356016,9.04666488 108.861082,14.6499724 107.541082,14.2099723 C107.981082,14.2099723 108.566563,5.75781241 110.326563,2.67781259 C110.326563,2.67781259 121.766563,-1.7221875 126.606562,0.9178125 Z" id="路径" fill="#95D13C" fill-rule="nonzero"></path>
                <path d="M83.4865625,145.237813 C83.4865625,145.237813 92.7265625,146.557813 100.206562,145.237813 C100.206562,145.237813 100.646563,146.117812 101.086563,146.557813 C101.526563,146.997813 105.046563,146.997813 106.806562,147.877813 C106.806562,147.877813 103.286563,149.637813 102.406563,150.517813 C101.966563,151.397812 87.0065627,147.877813 83.4865625,145.237813 L83.4865625,145.237813 Z" id="路径" fill="#48040F" fill-rule="nonzero"></path>
            </g>
            <g id="编组" stroke-width="1" transform="translate(104.000000, 0.000000)">
                <g id="编组-3" transform="translate(185.332069, 85.992194) rotate(-12.000000) translate(-185.332069, -85.992194) translate(139.832069, 60.992194)" fill-rule="nonzero">
                    <path d="M3.15339041,40.1738366 C2.95293718,40.0554233 2.81930169,39.8659621 2.77475653,39.6291355 L0.191137156,26.6747247 C0.146591995,26.4852634 0.168864575,26.2958022 0.257954899,26.1537063 L10.8151582,2.96838955 C10.9265211,2.70788037 11.1715195,2.5421018 11.4387905,2.4947365 L12.1737856,2.42368854 C21.3723615,1.40533448 31.7959294,0.268567166 41.5067746,0.268567166 C49.346723,0.268567166 55.6275908,1.00272939 60.7280119,2.51841915 C73.9356523,6.44973946 89.3037331,14.7149852 90.1278186,19.8778034 C90.2837266,20.9198401 89.9941831,21.9381942 89.2814605,22.838135 C86.7869314,25.9642451 79.370162,27.7641267 68.902049,27.7641267 C65.9175232,27.7641267 56.0806714,28.5456542 51.6014617,29.8027952 C46.0343529,31.4561214 4.17792912,40.1027886 3.86611299,40.2448845 C3.71020493,40.2448845 3.6211146,40.2685672 3.53202428,40.2685672 C3.3983888,40.2685672 3.26475331,40.2448845 3.15339041,40.1738366 Z" id="路径" fill="#95D13C"></path>
                    <path d="M3.63106239,26.6067609 L3.17791739,49.8867345 C3.17791739,49.8867345 40.2310417,28.4431358 66.0117794,28.4431358 C77.5774422,28.4431358 84.4854623,28.290138 89.1779174,22.6762256 C50.2370981,4.42135406 15.1045548,19.0797318 3.63106239,26.6067609 Z" id="路径" fill="#679933"></path>
                </g>
                <path d="M45.0725,196.058594 C43.030625,195.236172 40.308125,193.846563 37.6707031,192.485313 C34.7453166,193.001257 31.9882486,191.723673 30.6659375,189.252344 C27.0508645,189.22402 23.5360239,187.014285 23.0372656,183.892422 C21.5909375,183.864063 16.7139355,183.248909 16.0586544,179.485195 C12.0071572,179.50109 8.83205687,175.005464 8.6590625,172.293438 C2.53689798,169.946608 3.61109375,162.424375 3.554375,162.140781 C1.64792684,161.483233 0.772241625,157.216076 1.54085938,155.364258 C-0.258841533,151.808702 0.415182225,147.993979 2.33492188,146.372969 C0.788849039,145.204171 0.883036801,140.821949 2.22148438,138.744297 C1.25433113,136.023118 2.61495283,132.84612 4.61835026,132.264241 C4.17604974,127.938155 7.75207491,126.793496 7.89387178,126.424824 C6.8239761,123.804041 10.7759766,120.015699 13.5652344,120.565938 C13.76375,120.395781 14.3876563,119.346484 14.9548438,118.438984 C13.982254,114.636266 17.6207613,110.05783 21.2876841,109.438723 C21.922418,105.960903 26.3274601,101.566904 31.6592495,101.567433 C33.5836825,96.9022828 39.3390229,95.4529977 42.80375,95.6664062 C44.8193975,93.3349122 48.6512838,92.2944836 51.5093877,93.6247643 C54.0187857,91.8804297 57.0432324,92.2944836 59.1671094,92.9155469 C61.012949,92.3668656 64.3525447,92.1387807 66.4904782,93.4952335 C72.2256632,93.0746308 78.2576326,97.786032 85.0025,100.969609 C86.7040625,101.763672 88.4339844,102.586094 90.3340625,103.465234 C90.5325781,103.550313 90.7027344,103.720469 90.8161719,103.947344 C98.6717188,120.282344 98.6717188,120.821172 98.6717188,121.104766 C98.6717188,121.331641 98.6717188,121.898828 92.3192187,136.418828 L78.5932812,171.924766 C78.5932812,171.953125 78.5649219,171.981484 78.5649219,172.009844 L69.6033594,189.621016 C69.4899219,189.819531 69.3197656,189.989688 69.0928906,190.074766 C68.4689844,190.358359 53.7221094,196.398906 47.2561719,196.398906 C46.3486719,196.398906 45.6396875,196.285469 45.0725,196.058594 Z" id="路径" fill="#F45A64" fill-rule="nonzero"></path>
                <path d="M89.9086719,104.429453 C76.7215625,98.3321875 69.6317188,94.3051563 60.3582031,93.9932031 C59.1954688,99.2113281 57.4371875,104.202578 52.8996875,107.719141 C45.4411719,113.391016 38.26625,118.467344 32.594375,125.613906 C24.8239063,135.766563 22.4417188,147.989453 14.3876563,157.262969 C11.6651563,160.269063 8.26203125,161.800469 4.5753125,162.367656 C4.77382813,164.409531 4.20664063,167.075313 9.31132813,171.584453 C14.67125,176.348828 21.5342188,182.928203 23.0372656,182.928203 C24.5403125,182.928203 28.7091406,188.004531 30.8077344,188.288125 C32.9063281,188.571719 40.9603906,193.364453 45.4411719,195.151094 C49.9219531,196.937734 68.7242188,189.195625 68.7242188,189.195625 L77.6857813,171.584453 L91.4117188,136.050156 C91.4117188,136.050156 97.6791406,121.728672 97.6791406,121.133125 C97.6791406,120.537578 89.9086719,104.429453 89.9086719,104.429453 L89.9086719,104.429453 Z" id="路径" fill="#F4515C" fill-rule="nonzero"></path>
                <path d="M89.9086719,104.429453 C79.8978125,99.806875 73.4035156,96.3470313 66.7674219,94.8439844 C64.6121094,99.0128125 64.13,103.66375 63.6478906,108.314688 C54.9982813,109.817734 47.5397656,114.582109 41.2723438,120.253984 C30.8360938,129.215547 25.1642188,142.941484 26.6389063,156.355469 C27.5464063,164.125937 29.9285938,170.988906 28.1419531,178.731016 C27.83,179.922109 25.1642188,179.638516 23.6611719,179.042969 C18.4146875,177.539922 17.1101563,176.7175 12.3174219,174.278594 C16.9967188,178.504141 21.8461719,182.928203 23.065625,182.928203 C24.5686719,182.928203 28.7375,188.004531 30.8360938,188.288125 C32.9346875,188.571719 40.98875,193.364453 45.4695313,195.151094 C49.9503125,196.937734 68.7525781,189.195625 68.7525781,189.195625 L77.7141406,171.584453 L91.4117188,136.050156 C91.4117188,136.050156 97.6791406,121.728672 97.6791406,121.133125 C97.6791406,120.537578 89.9086719,104.429453 89.9086719,104.429453 L89.9086719,104.429453 Z" id="路径" fill="url(#linearGradient-3)" fill-rule="nonzero"></path>
                <path d="M163.784844,199.603516 C160.495156,199.603516 157.375625,199.348281 154.511328,198.809453 C136.27625,195.519766 124.422031,186.161172 123.911562,185.764141 C123.741406,185.622344 123.627969,185.452188 123.57125,185.225313 L115.517187,152.980703 C115.488828,152.923984 115.488828,152.867266 115.488828,152.782188 L114.581328,134.575469 L114.581328,134.405313 C115.318672,128.534922 121.274141,120.622656 130.093906,113.816406 C139.168906,106.811641 149.236484,102.472656 157.006953,102.189063 C158.198047,102.132344 159.389141,102.132344 160.551875,102.132344 C181.339297,102.132344 196.596641,109.222188 205.926875,123.231719 C216.363125,138.886094 216.249687,145.493828 216.221328,147.989453 L216.221328,148.670078 C216.363125,149.435781 216.504922,151.647812 216.675078,155.221094 C216.816875,157.858516 216.958672,160.807891 217.100469,161.488516 C217.327344,162.622891 216.930312,165.203594 216.448203,167.954453 C216.334766,168.578359 216.221328,169.287344 216.221328,169.4575 C216.221328,169.797812 216.051172,170.308281 215.370547,172.208359 C214.803359,173.796484 213.839141,176.462266 213.839141,177.199609 C213.839141,178.305625 212.619687,180.177344 210.634531,183.126719 C209.897187,184.232734 208.87625,185.735781 208.734453,186.104453 C208.450859,187.238828 207.032891,187.919453 204.707422,188.940391 C203.885,189.280703 203.062578,189.649375 202.693906,189.932969 C200.822187,191.492734 195.121953,193.421172 194.35625,193.676406 C193.675625,193.988359 178.957109,199.603516 163.784844,199.603516 L163.784844,199.603516 Z" id="路径" fill="#F45A64" fill-rule="nonzero"></path>
                <path d="M166.620781,161.119844 C154.057578,143.707188 154.057578,123.004844 157.744297,103.21 C157.517422,103.21 157.290547,103.21 157.063672,103.238359 C140.643594,103.833906 117.076953,122.636172 115.573906,134.575469 L116.481406,152.782188 L124.535469,185.026797 C124.535469,185.026797 136.474766,194.583906 154.681484,197.873594 C172.888203,201.163281 194.072656,192.768906 194.072656,192.768906 C194.072656,192.768906 200.340078,190.670313 202.126719,189.195625 C203.317813,188.288125 207.486641,187.097031 207.798594,185.905938 C208.110547,184.714844 212.874922,178.731016 212.874922,177.256328 C212.874922,175.753281 215.257109,170.081406 215.257109,169.485859 C215.257109,169.145547 215.654141,167.075313 215.937734,165.118516 C211.031563,169.287344 205.161172,172.321797 198.241484,173.654688 C185.706641,176.348828 174.079297,171.584453 166.620781,161.119844 L166.620781,161.119844 Z" id="路径" fill="#F4515C" fill-rule="nonzero"></path>
                <path d="M206.919453,179.922109 C195.575703,193.648047 176.177891,191.861406 159.757813,190.074766 C155.872578,189.762813 150.200703,189.167266 149.605156,185.310391 C147.818516,173.966641 149.917109,163.218438 146.911016,151.874688 C146.003516,148.585 143.337734,144.699766 145.407969,142.033984 C154.681484,130.378281 157.318906,116.850859 157.262188,103.238359 L157.063672,103.238359 C140.643594,103.833906 117.076953,122.636172 115.573906,134.575469 L116.481406,152.782188 L124.535469,185.026797 C124.535469,185.026797 136.474766,194.583906 154.681484,197.873594 C172.888203,201.163281 194.072656,192.768906 194.072656,192.768906 C194.072656,192.768906 200.340078,190.670313 202.126719,189.195625 C203.317813,188.288125 207.486641,187.097031 207.798594,185.905938 C208.110547,184.714844 212.874922,178.731016 212.874922,177.256328 C212.874922,175.753281 215.257109,170.081406 215.257109,169.485859 C215.257109,169.287344 215.398906,168.55 215.540703,167.585781 C212.988359,172.009844 210.010625,176.178672 206.919453,179.922109 L206.919453,179.922109 Z" id="路径" fill="url(#linearGradient-4)" fill-rule="nonzero"></path>
                <path d="M96.043212,114.856852 C95.7596182,114.686696 95.589462,114.403102 95.5611026,114.091149 C95.4476651,112.276149 100.750746,108.685329 100.60895,106.870329 C99.276059,90.5636888 97.9636944,60.8760456 116.992835,34.0480769 C136.021976,7.22010815 152.219516,-0.0573664965 159.936884,0.00138350347 C165.109392,0.040760253 166.658056,7.374821 165.126649,14.9184148 C163.878837,21.1291179 142.949618,68.5743523 140.482353,82.243571 C137.731493,97.5292741 98.5671963,114.204587 96.9223526,114.913571 C96.8089151,114.97029 96.6671182,114.998649 96.5536807,114.998649 C96.3835245,114.998649 96.1850088,114.94193 96.043212,114.856852 Z" id="路径" fill="#95D13C" fill-rule="nonzero"></path>
                <g id="编组-2" transform="translate(105.713212, 69.590424) rotate(-35.000000) translate(-105.713212, -69.590424) translate(71.713212, 12.090424)" fill-rule="nonzero">
                    <path d="M0.483903828,114.856852 C0.200310078,114.686696 0.0301538276,114.403102 0.00179445261,114.091149 C-0.111643047,112.276149 5.19143834,108.685329 5.04964147,106.870329 C3.71675084,90.5636888 2.40438627,60.8760456 21.4335269,34.0480769 C40.4626675,7.22010815 56.6602079,-0.0573664965 64.3775757,0.00103142211 C69.5500839,0.040760253 65.8499737,10.6400977 64.3185675,18.1836914 C63.070755,24.3943945 47.3903101,68.5743523 44.9230445,82.243571 C42.1721851,97.5292741 3.0078882,114.204587 1.36304445,114.913571 C1.24960695,114.97029 1.10781008,114.998649 0.994372578,114.998649 C0.824216328,114.998649 0.625700703,114.94193 0.483903828,114.856852 Z" id="路径备份" fill="#95D13C"></path>
                    <path d="M0.483903828,114.856852 C0.200310078,114.686696 0.0301538276,114.403102 0.00145543348,114.091149 C-0.111643047,112.276149 56.6602079,-0.0573664965 64.3775757,0.000475924525 C69.5500839,0.040760253 65.8499737,10.6400977 64.3185675,18.1836914 C63.070755,24.3943945 47.3903101,68.5743523 44.9230445,82.243571 C42.1721851,97.5292741 3.0078882,114.204587 1.36304445,114.913571 C1.24960695,114.97029 1.10781008,114.998649 0.994372578,114.998649 C0.824216328,114.998649 0.625700703,114.94193 0.483903828,114.856852 Z" id="路径备份-2" fill="#679933"></path>
                </g>
                <path d="M96.043212,114.856852 C95.7596182,114.686696 95.589462,114.403102 95.5609328,114.091149 C95.4476651,112.276149 152.219516,-0.0573664965 159.936884,0.00136046702 C165.109392,0.040760253 166.658056,7.374821 165.126649,14.9184148 C163.878837,21.1291179 142.949618,68.5743523 140.482353,82.243571 C137.731493,97.5292741 98.5671963,114.204587 96.9223526,114.913571 C96.8089151,114.97029 96.6671182,114.998649 96.5536807,114.998649 C96.3835245,114.998649 96.1850088,114.94193 96.043212,114.856852 Z" id="路径" fill="#679933" fill-rule="nonzero"></path>
                <path d="M111.490156,142.657891 C109.278125,142.657891 107.094453,142.487734 104.9675,142.119062 C90.90125,139.736875 81.7695313,130.520078 76.608125,123.175 C71.0213281,115.262734 68.7525781,108.002734 68.6675,107.719141 C66.3703906,100.260625 69.7735156,93.7096094 71.7870313,89.7960156 C71.9855469,89.4273437 72.1557031,89.0870312 72.3258594,88.7750781 C74.1408594,85.1734375 76.1827344,82.1957031 76.2678125,82.0822656 C76.2961719,82.0255469 76.3245313,81.9971875 76.38125,81.9404687 C77.6574219,80.6359375 107.831797,50.2063281 112.057344,47.4838281 C112.255859,47.3420312 112.482734,47.2002344 112.737969,47.0584375 C115.942578,44.9882031 121.869688,41.1029687 128.761016,41.1029687 C132.334297,41.1029687 135.709063,42.1522656 138.828594,44.2225 C150.030547,51.6810156 157.238363,58.1781307 160.426154,74.1875108 C162.364625,89.8804719 160.071611,104.148854 153.547109,116.992656 C151.448516,123.118281 145.833359,129.470781 138.147969,134.433672 C129.867031,139.708516 120.423359,142.657891 111.490156,142.657891 Z" id="路径" fill="#F45A64" fill-rule="nonzero"></path>
                <path d="M158.896838,74.1875108 C158.584885,70.3022764 152.846756,53.0085795 138.261406,45.0165625 C135.469142,43.4865462 132.929844,42.3791406 130.3775,42.1239062 C136.871797,46.2927344 140.104766,54.4035156 142.430234,61.4082812 C146.315469,73.035625 148.102109,87.6690625 139.140547,97.8217187 C130.490938,107.974375 116.453047,106.187734 104.51375,104.401094 C93.7655469,102.898047 83.9248437,103.493594 73.4602344,106.187734 C72.0422656,106.528047 70.6810156,106.613125 69.348125,106.556406 C69.4048437,106.84 69.4899219,107.123594 69.575,107.378828 C69.575,107.378828 78.5365625,136.617344 105.080938,141.098125 C125.953438,144.614687 147.389949,128.846875 152.526172,116.623984 C157.662395,104.401094 159.208791,80.9339087 158.896838,77.0486743 L158.896838,74.1875108 Z" id="路径" fill="#F4515C" fill-rule="nonzero"></path>
                <path d="M149.917109,108.286328 C145.748281,116.056797 137.977812,125.8975 128.137109,121.728672 C121.557734,119.034531 115.602266,115.46125 109.022891,112.171563 C98.2746875,106.499688 86.9309375,109.477422 74.9916406,107.095234 C72.7228906,106.584766 70.7660937,105.535469 68.9794531,104.174219 C69.0928906,105.223516 69.2914062,106.301172 69.6317187,107.407188 C69.6317187,107.407188 78.5932812,136.645703 105.137656,141.126484 C126.010156,144.643047 148.102109,129.782734 152.582891,116.652344 C154.397891,111.320781 155.078516,103.720469 155.248672,96.3186719 C153.688906,100.629297 151.675391,104.741406 149.917109,108.286328 L149.917109,108.286328 Z" id="路径" fill="#ED3D49" fill-rule="nonzero"></path>
                <path d="M72.7796094,106.244453 C71.1064063,106.244453 69.6033594,105.677266 68.2988281,104.57125 C68.1003125,104.401094 67.986875,104.145859 67.9585156,103.890625 C67.533125,98.0202344 70.0854688,93.0857031 71.7870313,89.7960156 C71.9855469,89.4273437 72.1557031,89.0870312 72.2975,88.7750781 C74.1125,85.1734375 76.154375,82.1957031 76.2394531,82.0822656 C76.2678125,82.0255469 76.2961719,81.9971875 76.3528906,81.9404687 C77.6290625,80.6359375 107.803438,50.2063281 112.028984,47.4838281 C112.2275,47.3420312 112.454375,47.2002344 112.709609,47.0584375 C115.517188,45.2150781 120.224844,42.1522656 125.896719,41.3014844 L126.038516,41.3014844 C126.151953,41.3014844 126.265391,41.3298437 126.378828,41.3582031 C127.371406,41.726875 128.363984,42.0955469 128.987891,42.3224219 C131.143203,43.0314062 134.347813,46.9166406 135.000078,49.5824219 C135.652344,52.2198437 134.46125,57.1260156 131.993984,59.2246094 C130.973047,60.10375 129.129688,63.3650781 127.655,65.9741406 C126.010156,68.8667969 125.131016,70.3982031 124.47875,70.9086719 C123.769766,71.4475 122.607031,71.5609375 120.763672,71.7027344 C119.459141,71.8161719 117.303828,71.9863281 116.878438,72.5251562 C116.736641,72.6953125 116.538125,72.9505469 116.31125,73.2908594 C114.269375,76.0417187 109.476641,82.4792969 104.570469,83.0464844 C101.961406,83.3584375 100.401641,85.7122656 98.7567969,88.1795312 C97.6224219,89.8810937 96.4313281,91.6677344 94.8715625,92.7170312 C94.7297656,92.8021094 94.5596094,92.8588281 94.3894531,92.8871875 C90.1639063,93.1140625 85.229375,97.8500781 81.6277344,101.309922 C80.9754688,101.933828 80.3515625,102.529375 79.784375,103.068203 C77.6290625,105.110078 75.1050781,106.244453 72.7796094,106.244453 L72.7796094,106.244453 Z" id="路径" fill="#FBE6E5" fill-rule="nonzero"></path>
                <path d="M117.6725,70.08625 C112.000625,71.8728906 110.497578,79.0478125 103.634609,80.8344531 C101.847969,81.43 100.344922,84.1241406 98.8702344,85.9107813 C93.5103125,92.4901563 85.4278906,93.9648438 78.2813281,98.7575781 C77.3738281,99.6650781 76.7782813,101.139766 75.5871875,101.451719 C74.0841406,102.047266 71.7019531,102.047266 71.4183594,100.260625 C70.8228125,97.6515625 70.8795313,94.9290625 71.6452344,92.32 C70.1989063,95.3544531 68.6391406,99.353125 68.9794531,103.805547 C72.070625,106.471328 76.1827344,105.138438 79.2171875,102.330859 C83.1024219,98.7575781 89.0578906,92.1782031 94.4461719,91.8946094 C98.0194531,89.5124219 99.5225,82.6494531 104.598828,82.0539063 C109.675156,81.4583594 115.035078,73.4042969 116.226172,71.90125 C117.417266,70.3982031 122.805547,70.99375 123.996641,70.1146094 C125.187734,69.2071094 129.356563,60.2739063 131.455156,58.4872656 C126.634063,62.3441406 124.223516,68.2996094 117.6725,70.08625 L117.6725,70.08625 Z M111.405078,57.4096094 C111.376719,57.4096094 111.348359,57.38125 111.348359,57.3528906 C111.291641,57.4096094 111.263281,57.4663281 111.206563,57.4946875 C111.263281,57.4663281 111.348359,57.4379688 111.405078,57.4096094 Z" id="形状" fill="#F2CACB" fill-rule="nonzero"></path>
                <path d="M118.58,54.885625 C116.566484,53.4676563 113.758906,56.1334375 111.405078,57.4096094 C111.490156,57.4663281 111.603594,57.5230469 111.688672,57.5797656 C111.575234,57.5230469 111.490156,57.4663281 111.405078,57.4096094 C111.348359,57.4379688 111.263281,57.4946875 111.206563,57.5230469 C110.185625,58.6574219 109.193047,59.8201563 108.228828,60.9828906 C107.973594,62.8546094 107.207891,64.5845313 105.761563,65.9174219 C100.089688,71.5892969 93.8222656,76.0700781 87.8667969,81.7419531 C85.1726563,84.4360938 81.599375,85.6271875 78.3096875,87.6974219 C76.5230469,89.2004688 75.02,91.86625 76.5230469,92.77375 C81.0038281,95.7514844 86.0801563,92.1782031 89.9653906,89.2004687 C100.401641,81.1464062 108.767656,72.7803906 117.417266,62.9396875 C119.459141,60.5575 120.962188,56.6722656 118.58,54.885625 L118.58,54.885625 Z" id="路径" fill="#F2CACB" fill-rule="nonzero"></path>
                <path d="M79.7560156,91.0721875 C79.4440625,91.0721875 79.1321094,90.9303906 78.9335937,90.6467969 C71.8153906,80.5508594 69.4899219,75.5028906 69.801875,65.5771094 C69.9153125,61.8336719 71.0213281,56.0483594 73.8005469,51.02875 C76.835,45.4703125 80.9754687,42.5492969 85.7398437,42.5492969 C95.3820312,42.5492969 107.406406,50.7451562 114.779844,57.7499219 C115.063437,58.0335156 115.176875,58.4589062 115.006719,58.8275781 C114.864922,59.1678906 114.581328,59.3947656 114.241016,59.4514844 C113.843984,59.7917969 113.078281,61.3799219 112.539453,62.5426562 C111.490156,64.7546875 110.299062,67.2786719 108.710937,68.498125 C108.5975,68.5832031 108.484062,68.6399219 108.342266,68.6682812 C107.037734,68.9802344 106.272031,69.8877344 104.882422,71.5042187 C104.173437,72.3266406 103.351016,73.2908594 102.245,74.396875 C102.188281,74.4535937 102.103203,74.5103125 102.018125,74.5670312 C99.749375,75.8148437 96.7432812,79.16125 94.53125,81.6285156 C93.7088281,82.564375 92.9714844,83.3584375 92.4042969,83.9539844 C92.3475781,84.0107031 92.2625,84.0674219 92.2057812,84.1241406 C91.0146875,84.8047656 87.4414062,86.8466406 86.590625,88.23625 C85.8532812,89.4557031 84.8323437,89.7109375 83.4994531,89.9945312 C82.6486719,90.1930469 81.5710156,90.4199219 80.1530469,91.0154687 C80.01125,91.0721875 79.8978125,91.0721875 79.7560156,91.0721875 L79.7560156,91.0721875 Z" id="路径" fill="url(#linearGradient-5)" fill-rule="nonzero"></path>
                <path d="M76.7782812,202.411094 C75.5588281,202.411094 55.735625,198.04375 49.6950781,196.710859 C49.4682031,196.654141 49.2696875,196.540703 49.1278906,196.370547 L36.905,181.141563 C36.8199219,181.028125 36.7348437,180.886328 36.7064844,180.744531 C34.7496875,172.066563 33.1615625,164.239375 33.3884375,156.29875 C33.6436719,147.564063 36.0542187,139.396563 40.9603906,130.520078 C44.4202344,124.281016 49.2413281,119.545 55.281875,116.453828 C60.8686719,113.589531 68.4059161,110.745662 75.8786217,110.351979 C83.3513274,109.958296 89.8555557,109.958296 97.8528995,112.312124 C110.07579,115.913765 120.026328,125.358672 127.569922,133.270938 C135.964297,142.033984 140.586875,152.583672 141.324219,164.636406 C141.324219,164.749844 141.324219,164.891641 141.2675,165.005078 C137.013594,177.738438 129.356563,185.111875 123.684688,189.053828 C117.530703,193.336094 112.397656,194.555547 112.199141,194.612266 C104.201797,196.455625 77.9977344,202.411094 76.7782812,202.411094 Z" id="路径" fill="#FBE6E5" fill-rule="nonzero"></path>
                <path d="M106.725781,120.168906 C109.306484,121.671953 111.77375,123.458594 114.070859,125.585547 C124.223516,135.142656 142.430234,155.136016 124.819063,164.976719 C120.933828,167.075312 116.765,169.741094 113.191719,171.839687 C109.306484,174.533828 105.137656,176.916016 100.344922,178.419062 C97.3671875,179.326562 94.3894531,176.320469 91.6953125,177.823516 C83.9248438,182.304297 75.2752344,179.326562 67.2211719,176.632422 C62.4567969,174.845781 58.5715625,178.731016 54.0907813,180.517656 C48.7308594,182.61625 45.7247656,177.539922 42.7470313,172.747187 C40.7902344,169.967969 38.2095313,169.400781 35.4870313,169.797812 C36.0825781,173.257656 36.8199219,176.774219 37.6707031,180.489297 L49.8935938,195.718281 C49.8935938,195.718281 75.5588281,201.390156 76.7499219,201.390156 C77.9410156,201.390156 111.972266,193.619688 111.972266,193.619688 C111.972266,193.619688 132.277578,188.855313 140.331641,164.664766 C139.083828,143.480312 125.301172,128.393125 106.725781,120.168906 L106.725781,120.168906 Z" id="路径" fill="#F2CACB" fill-rule="nonzero"></path>
                <g id="形状" transform="translate(33.638000, 143.866000)">
                    <mask id="mask-7" fill="white">
                        <use xlink:href="#path-6"></use>
                    </mask>
                    <use id="蒙版" fill="#F45A64" fill-rule="nonzero" xlink:href="#path-6"></use>
                    <path d="M103.898383,-1.452 C108.816486,4.89168932 112.827081,28.5853689 108.523741,42.6049223 C104.220402,56.6244757 87.2705132,72.6422913 63.5289593,75.9727282 C59.0499732,76.6070971 54.6295359,76.956 50.2969219,76.956 C33.5812286,76.956 18.4170795,71.627301 7.52699563,56.148699 C5.38996304,53.1037282 3.72132116,49.6781359 2.55034439,46.062233 C-0.172176579,37.6568447 0.0620187736,36.8956019 0.0620187736,36.8956019 C-0.289274255,34.7387476 0.910976926,33.7554757 2.16977695,33.7554757 C3.07728394,33.7554757 3.98479093,34.2629709 4.36535838,35.2462427 C5.30213979,37.5934078 6.53166539,43.2710097 10.5129864,44.6031845 C13.6746236,45.6498932 21.315247,47.7750291 24.945275,47.7750291 C25.9113308,47.7750291 26.5846424,47.6164369 26.8481122,47.267534 C27.7848936,44.2542816 28.6924006,40.9238447 33.6397774,40.9238447 C38.5578798,40.9238447 43.1832381,44.2542816 45.0275265,44.2542816 C46.2570521,44.2542816 49.535787,44.4128738 52.1412103,44.4128738 C53.4292847,44.4128738 54.5709871,44.3811553 55.1857499,44.2542816 C56.7958429,43.9688155 59.5476383,40.6700971 61.0699081,40.6700971 C61.3041035,40.6700971 61.5090244,40.733534 61.6553965,40.9238447 C62.3287081,41.6533689 64.7584849,42.1925825 67.1297128,42.1925825 C69.0910989,42.1925825 70.9939362,41.8436796 71.8136199,40.9238447 C73.218792,38.7987087 78.1368944,34.770466 81.5620014,34.770466 C81.9132945,34.770466 82.2645875,34.8021845 82.5866061,34.8973398 C85.6604201,34.2312524 85.3676759,29.5686408 91.8373225,28.236466 C98.3069692,26.9042913 100.473276,25.5721165 100.473276,24.5571262 C100.473276,23.5421359 100.151258,19.5456117 101.702802,18.5623398 C103.254346,17.5473495 105.098634,15.8979903 105.391379,13.8997282 C105.771946,11.901466 106.679453,3.87669903 103.898383,-1.452 M103.313264,-4.356 C102.907652,-4.356 102.502041,-4.22925574 102.154374,-3.97576723 C101.285207,-3.31035988 101.024457,-2.07460337 101.545957,-1.06064931 C104.095514,3.91406279 102.965597,11.9306371 102.849708,12.8178469 C102.704847,13.7367427 101.661846,14.9408132 100.155289,15.9547672 C97.8954546,17.4440123 97.8954546,21.1829678 97.9244269,23.210876 C97.3160098,23.5911087 95.6066476,24.4149464 91.0580058,25.3655283 C86.5383362,26.3161103 84.6841127,28.8509954 83.4383064,30.5303568 C82.8588616,31.3225084 82.5111947,31.7344273 82.1925,31.9562297 C81.9027776,31.9245436 81.5840829,31.8928576 81.2943605,31.8928576 C77.0933856,31.8928576 71.8783822,36.2655345 70.1400477,38.7370475 C69.8792976,38.9271639 68.9232136,39.3073966 66.9820735,39.3073966 C64.8960721,39.3073966 63.3315711,38.8637917 62.9259597,38.6103032 C62.4044594,38.0716401 61.7091256,37.7864655 60.9848196,37.7864655 C59.5362075,37.7864655 58.1745122,38.8637917 56.7548724,40.0361761 C56.1754276,40.5114671 55.1903714,41.3036187 54.8137323,41.3986769 C54.5529821,41.4303629 53.8866205,41.5254211 52.1482861,41.5254211 C50.6417296,41.5254211 48.9033951,41.462049 47.4837553,41.4303629 C46.4986991,41.3986769 45.6295319,41.3669908 45.1080315,41.3669908 C44.7603646,41.3353047 43.5725027,40.8283277 42.7323078,40.4480949 C40.4145285,39.4341409 37.2565542,38.0399541 33.8378298,38.0399541 C28.1592705,38.0399541 26.4788806,41.8739678 25.5227966,44.8524579 L25.2620464,44.8524579 C22.0171554,44.8524579 14.7451229,42.8562358 11.5871487,41.7789096 C9.24039715,40.986758 8.05253527,37.4696049 7.27028476,35.1565222 C7.09645132,34.6178591 6.92261787,34.1108821 6.74878443,33.6672772 C6.08242288,31.9562297 4.48894963,30.8472175 2.72164293,30.8472175 C1.44686432,30.8472175 0.259002441,31.4175666 -0.494275825,32.4315207 C-1.27652633,33.4454747 -1.59522098,34.8396616 -1.3924153,36.3922787 C-1.33447081,37.4379188 -0.841942717,39.7826876 1.18611415,46.0882144 C2.43192052,49.9856003 4.19922722,53.5978116 6.40111753,56.7664181 C11.7320099,64.4027596 18.3956253,70.1062511 26.2471026,73.6550904 C33.2004405,76.8236968 41.3126679,78.408 50.3520071,78.408 C54.5240098,78.408 59.0147072,78.0594533 63.7082102,77.3940459 C88.1028372,73.9402649 105.399265,57.241709 109.889962,42.5393752 C111.918019,35.9169877 112.352603,26.4745406 111.106797,16.6518606 C109.976879,7.62133231 107.601155,-0.141753446 104.935709,-3.59553446 C104.472153,-4.10251149 103.892709,-4.356 103.313264,-4.356 L103.313264,-4.356 Z" fill="#D11B47" fill-rule="nonzero" mask="url(#mask-7)"></path>
                </g>
                <path d="M129.299844,177.539922 C111.093125,196.937734 83.0457031,203.800703 57.0685156,196.937734 C47.0860156,194.243594 40.5917187,186.331328 35.8557031,177.426484 C35.5721094,177.880234 35.4303125,178.504141 35.6004687,179.326562 C35.6004687,179.326562 35.3735937,180.007187 38.0110156,187.522422 C39.1453906,190.755391 40.761875,193.818203 42.8321094,196.540703 C56.1042969,213.953359 75.9558594,217.016172 97.0835937,214.265312 C120.054687,211.287578 136.474766,196.966094 140.671953,184.43125 C143.309375,176.518984 142.742187,165.203594 140.757031,156.468906 C138.715156,164.267734 134.886641,171.527734 129.299844,177.539922 L129.299844,177.539922 Z" id="路径" fill="#F4515C" fill-rule="nonzero"></path>
                <path d="M141.437656,159.92875 C140.700312,166.309609 139.055469,172.548672 135.595625,178.447422 C126.946016,192.768906 112.624531,202.326016 96.4880469,204.424609 C77.9977344,207.11875 58.5715625,206.21125 43.6545312,193.676406 C41.3007031,191.719609 39.400625,189.394141 37.7841406,186.870156 C37.8692187,187.097031 37.9259375,187.295547 38.0110156,187.550781 C39.1453906,190.78375 40.761875,193.846563 42.8321094,196.569063 C56.1042969,213.981719 75.9558594,217.044531 97.0835937,214.293672 C120.054687,211.315938 136.474766,196.994453 140.671953,184.459609 C142.940703,177.511563 142.798906,168.011172 141.437656,159.92875 L141.437656,159.92875 Z" id="路径" fill="url(#linearGradient-8)" fill-rule="nonzero"></path>
                <path d="M61.2657031,119.034531 C47.2278125,123.798906 38.72,143.962422 39.0319531,155.901719 C39.3439062,167.841016 81.9964062,153.207578 87.9802344,140.672734 C93.9357031,128.137891 91.0146875,108.910234 61.2657031,119.034531 Z" id="路径" fill="#FBF1F1" fill-rule="nonzero"></path>
                <path d="M75.3319531,51.93625 C71.5034375,57.4663281 72.4960156,67.2786719 76.5230469,69.6892187 C90.0504688,77.7716406 91.2415625,56.3886719 90.2773438,50.801875 C89.313125,45.2434375 83.4710938,40.1954687 75.3319531,51.93625 Z" id="路径" fill="#D95329" fill-rule="nonzero"></path>
                <path d="M96.6014844,132.958984 C94.4178125,135.199375 93.7088281,140.786172 95.8925,141.77875 C99.749375,143.537031 103.719688,137.042734 103.662969,134.206797 C103.60625,131.3425 101.224063,128.194609 96.6014844,132.958984 Z" id="路径" fill="#FBF1F1" fill-rule="nonzero"></path>
                <path d="M18.5848437,138.14875 C18.5848437,141.108953 21.4543487,143.508672 24.9940625,143.508672 C28.5337763,143.508672 31.4032812,141.108953 31.4032812,138.14875 C31.4032812,135.188547 28.5337763,132.788828 24.9940625,132.788828 C21.4543487,132.788828 18.5848437,135.188547 18.5848437,138.14875 L18.5848437,138.14875 Z" id="路径" fill="#FF6B74" fill-rule="nonzero"></path>
                <path d="M19.1803906,138.14875 C19.1803906,135.312812 21.7327344,132.987344 25.4478125,132.788828 C25.2776562,132.788828 25.1075,132.760469 24.9373437,132.760469 C20.9953906,132.760469 17.8191406,135.171016 17.8191406,138.120391 C17.8191406,141.098125 21.02375,143.480312 24.9373437,143.480312 C25.1075,143.480312 25.2776562,143.480312 25.4478125,143.451953 C21.7327344,143.310156 19.1803906,140.984687 19.1803906,138.14875 L19.1803906,138.14875 Z" id="路径" fill="#F43F4B" fill-rule="nonzero"></path>
                <path d="M6.05,150.967188 C6.05,153.927391 8.91950498,156.327109 12.4592188,156.327109 C15.9989325,156.327109 18.8684375,153.927391 18.8684375,150.967188 C18.8684375,148.006984 15.9989325,145.607266 12.4592188,145.607266 C8.91950498,145.607266 6.05,148.006984 6.05,150.967188 L6.05,150.967188 Z" id="路径" fill="#FF6B74" fill-rule="nonzero"></path>
                <path d="M6.64554688,150.967188 C6.64554688,148.13125 9.19789063,145.805781 12.9129688,145.607266 C12.7428125,145.607266 12.5726563,145.578906 12.4025,145.578906 C8.46054688,145.578906 5.28429688,147.989453 5.28429688,150.938828 C5.28429688,153.888203 8.48890625,156.29875 12.4025,156.29875 C12.5726563,156.29875 12.7428125,156.29875 12.9129688,156.270391 C9.19789063,156.156953 6.64554688,153.831484 6.64554688,150.967188 L6.64554688,150.967188 Z" id="路径" fill="#F43F4B" fill-rule="nonzero"></path>
                <path d="M18.8967969,120.821172 C18.8967969,123.781375 21.7663019,126.181094 25.3060156,126.181094 C28.8457294,126.181094 31.7152344,123.781375 31.7152344,120.821172 C31.7152344,118.906256 30.4936443,117.136801 28.5106251,116.179343 C26.5276058,115.221885 24.0844254,115.221885 22.1014062,116.179343 C20.118387,117.136801 18.8967969,118.906256 18.8967969,120.821172 L18.8967969,120.821172 Z" id="路径" fill="#FF6B74" fill-rule="nonzero"></path>
                <path d="M19.4639844,120.821172 C19.4639844,117.985234 22.0163281,115.659766 25.7314063,115.46125 C25.56125,115.46125 25.3910938,115.432891 25.2209375,115.432891 C21.2789844,115.432891 18.1027344,117.843438 18.1027344,120.792813 C18.1027344,123.742188 21.3073438,126.152734 25.2209375,126.152734 C25.3910938,126.152734 25.56125,126.152734 25.7314063,126.124375 C22.0446875,126.010938 19.4639844,123.685469 19.4639844,120.821172 L19.4639844,120.821172 Z" id="路径" fill="#F43F4B" fill-rule="nonzero"></path>
                <path d="M37.3871094,111.292422 C37.3871094,114.252625 40.2566144,116.652344 43.7963281,116.652344 C47.3360419,116.652344 50.2055469,114.252625 50.2055469,111.292422 C50.2055469,108.332219 47.3360419,105.9325 43.7963281,105.9325 C40.2566144,105.9325 37.3871094,108.332219 37.3871094,111.292422 L37.3871094,111.292422 Z" id="路径" fill="#FF6B74" fill-rule="nonzero"></path>
                <path d="M37.9826562,111.292422 C37.9826562,108.456484 40.535,106.131016 44.2500781,105.9325 C44.0799219,105.9325 43.9097656,105.904141 43.7396094,105.904141 C39.7976562,105.904141 36.6214062,108.314688 36.6214062,111.264063 C36.6214062,114.241797 39.8260156,116.623984 43.7396094,116.623984 C43.9097656,116.623984 44.0799219,116.623984 44.2500781,116.595625 C40.535,116.453828 37.9826562,114.128359 37.9826562,111.292422 L37.9826562,111.292422 Z" id="路径" fill="#F43F4B" fill-rule="nonzero"></path>
                <path d="M13.8204688,166.196172 C13.8204688,169.156375 16.6899737,171.556094 20.2296875,171.556094 C23.7694013,171.556094 26.6389063,169.156375 26.6389063,166.196172 C26.6389063,163.235969 23.7694013,160.83625 20.2296875,160.83625 C16.6899737,160.83625 13.8204688,163.235969 13.8204688,166.196172 L13.8204688,166.196172 Z" id="路径" fill="#FF6B74" fill-rule="nonzero"></path>
                <path d="M14.4160156,166.196172 C14.4160156,163.360234 16.9683594,161.034766 20.6834375,160.83625 C20.5132813,160.83625 20.343125,160.807891 20.1729688,160.807891 C16.2310156,160.807891 13.0547656,163.218438 13.0547656,166.167813 C13.0547656,169.117188 16.259375,171.527734 20.1729688,171.527734 C20.343125,171.527734 20.5132813,171.527734 20.6834375,171.499375 C16.9683594,171.357578 14.4160156,169.032109 14.4160156,166.196172 L14.4160156,166.196172 Z" id="路径" fill="#F43F4B" fill-rule="nonzero"></path>
                <path d="M50.0647292,199.511754 C51.0568545,201.57545 52.8943378,203.039746 54.8850168,203.353054 C56.8756957,203.666363 58.717139,202.781086 59.7156925,201.030699 C60.7142461,199.280311 60.718206,196.930739 59.7260806,194.867043 C58.7339553,192.803347 56.8964721,191.339052 54.9057931,191.025743 C52.9151142,190.712435 51.073671,191.597712 50.0751175,193.348099 C49.0765639,195.098486 49.0726039,197.448058 50.0647292,199.511754 L50.0647292,199.511754 Z" id="路径" fill="#FF6B74" fill-rule="nonzero"></path>
                <path d="M57.4088281,202.439453 C54.8564844,203.658906 51.651875,202.354375 49.8652344,199.121406 C49.9219531,199.263203 50.0070312,199.433359 50.06375,199.575156 C51.7653125,203.120078 55.3102344,204.963437 58.004375,203.687266 C60.6701562,202.411094 61.4642187,198.469141 59.7626562,194.924219 C59.6775781,194.782422 59.6208594,194.640625 59.5357812,194.470469 C60.95375,197.901953 59.9895312,201.22 57.4088281,202.439453 L57.4088281,202.439453 Z" id="路径" fill="#F43F4B" fill-rule="nonzero"></path>
                <path d="M67.6815299,206.088037 C68.6735738,208.151901 70.5111073,209.616375 72.5018876,209.929756 C74.4926679,210.243137 76.3342159,209.357809 77.3327765,207.607298 C78.3313371,205.856786 78.3351891,203.507063 77.3428812,201.443326 C76.3508373,199.379461 74.5133039,197.914987 72.5225236,197.601607 C70.5317433,197.288226 68.6901952,198.173553 67.6916346,199.924065 C66.693074,201.674576 66.6892221,204.024299 67.6815299,206.088037 L67.6815299,206.088037 Z" id="路径" fill="#FF6B74" fill-rule="nonzero"></path>
                <path d="M75.02,209.018828 C72.4676562,210.238281 69.2630469,208.93375 67.4764062,205.700781 C67.533125,205.842578 67.6182031,206.012734 67.6749219,206.154531 C69.3764844,209.699453 72.9214062,211.542813 75.6155469,210.266641 C78.2813281,208.990469 79.0753906,205.048516 77.3738281,201.503594 C77.28875,201.361797 77.2320312,201.22 77.1469531,201.049844 C78.5649219,204.452969 77.5723437,207.771016 75.02,209.018828 L75.02,209.018828 Z" id="路径" fill="#F43F4B" fill-rule="nonzero"></path>
                <path d="M80.5235811,196.525417 C82.057274,199.715614 85.4633449,201.262026 88.1312534,199.979425 C90.7991619,198.696823 91.7186253,195.070903 90.1849325,191.880706 C89.1928072,189.81701 87.3553239,188.352714 85.3646449,188.039406 C83.3739659,187.726097 81.5325227,188.611374 80.5339691,190.361761 C79.5354155,192.112149 79.5314556,194.461721 80.5235811,196.525417 L80.5235811,196.525417 Z" id="路径" fill="#FF6B74" fill-rule="nonzero"></path>
                <path d="M87.8667969,199.461719 C85.3144531,200.681172 82.1098437,199.376641 80.3232031,196.143672 C80.3799219,196.285469 80.465,196.455625 80.5217187,196.597422 C82.2232812,200.142344 85.7682031,201.985703 88.4623437,200.709531 C91.128125,199.433359 91.9221875,195.491406 90.220625,191.946484 C90.1355469,191.804688 90.0788281,191.662891 89.99375,191.492734 C91.4117187,194.895859 90.4191406,198.213906 87.8667969,199.461719 L87.8667969,199.461719 Z" id="路径" fill="#F43F4B" fill-rule="nonzero"></path>
                <path d="M187.603207,186.364773 C189.430738,187.744369 191.734956,188.203811 193.647883,187.570034 C195.56081,186.936256 196.791828,185.305543 196.877224,183.29217 C196.96262,181.278796 195.889421,179.188641 194.06189,177.809046 C191.236771,175.676376 187.500735,175.86277 185.717219,178.225369 C183.933703,180.587968 184.778089,184.232104 187.603207,186.364773 L187.603207,186.364773 Z" id="路径" fill="#FF6B74" fill-rule="nonzero"></path>
                <path d="M195.490625,185.593984 C193.789062,187.862734 190.329219,188.174687 187.266406,186.104453 C187.379844,186.217891 187.521641,186.302969 187.663437,186.416406 C190.811328,188.798594 194.81,188.798594 196.596641,186.416406 C198.383281,184.034219 197.277266,180.205703 194.129375,177.823516 C193.987578,177.710078 193.874141,177.625 193.732344,177.539922 C196.568281,179.922109 197.220547,183.325234 195.490625,185.593984 Z" id="路径" fill="#F43F4B" fill-rule="nonzero"></path>
                <path d="M167.331375,186.060833 C169.158914,187.440747 171.463347,187.90042 173.376484,187.266672 C175.28962,186.632924 176.520757,185.002054 176.606067,182.988487 C176.691377,180.97492 175.617897,178.884622 173.790057,177.505105 C171.962518,176.125191 169.658085,175.665518 167.744948,176.299266 C165.831812,176.933014 164.600674,178.563884 164.515365,180.577451 C164.430055,182.591018 165.503535,184.681316 167.331375,186.060833 L167.331375,186.060833 Z" id="路径" fill="#FF6B74" fill-rule="nonzero"></path>
                <path d="M175.213672,185.282031 C173.512109,187.550781 170.052266,187.862734 166.989453,185.7925 C167.102891,185.905937 167.244688,185.991016 167.386484,186.104453 C170.534375,188.486641 174.533047,188.486641 176.319688,186.104453 C178.106328,183.722266 177.000313,179.89375 173.852422,177.511562 C173.710625,177.398125 173.597188,177.313047 173.455391,177.227969 C176.262969,179.638516 176.915234,183.013281 175.213672,185.282031 Z" id="路径" fill="#F43F4B" fill-rule="nonzero"></path>
                <path d="M152.411071,192.919499 C154.238602,194.299095 156.542819,194.758538 158.455747,194.12476 C160.368674,193.490982 161.599692,191.860269 161.685088,189.846896 C161.770484,187.833522 160.697284,185.743367 158.869753,184.363772 C157.042222,182.984176 154.738005,182.524733 152.825077,183.158511 C150.91215,183.792289 149.681132,185.423002 149.595736,187.436375 C149.51034,189.449749 150.58354,191.539904 152.411071,192.919499 L152.411071,192.919499 Z" id="路径" fill="#FF6B74" fill-rule="nonzero"></path>
                <path d="M160.268281,192.173359 C158.566719,194.442109 155.106875,194.754062 152.044063,192.683828 C152.1575,192.797266 152.299297,192.882344 152.441094,192.995781 C155.588984,195.377969 159.587656,195.377969 161.374297,192.995781 C163.160938,190.613594 162.054922,186.785078 158.907031,184.402891 C158.765234,184.289453 158.651797,184.204375 158.51,184.119297 C161.345938,186.501484 161.998203,189.904609 160.268281,192.173359 Z" id="路径" fill="#F43F4B" fill-rule="nonzero"></path>
                <path d="M159.215605,168.427658 C160.915621,169.961639 163.170889,170.620632 165.131872,170.156399 C167.092854,169.692166 168.461632,168.175236 168.722598,166.177021 C168.983565,164.178807 168.097074,162.002884 166.397058,160.468903 C164.697042,158.934921 162.441774,158.275928 160.480791,158.740161 C158.519809,159.204394 157.151031,160.721324 156.890065,162.719539 C156.629098,164.717753 157.515589,166.893676 159.215605,168.427658 L159.215605,168.427658 Z" id="路径" fill="#FF6B74" fill-rule="nonzero"></path>
                <path d="M167.13125,168.351484 C165.231172,170.450078 161.771328,170.478437 158.878672,168.124609 C158.992109,168.238047 159.105547,168.351484 159.247344,168.464922 C162.168359,171.102344 166.138672,171.442656 168.152187,169.258984 C170.137344,167.046953 169.371641,163.133359 166.450625,160.495937 C166.337187,160.3825 166.195391,160.269062 166.081953,160.183984 C168.691016,162.793047 169.031328,166.252891 167.13125,168.351484 Z" id="路径" fill="#F43F4B" fill-rule="nonzero"></path>
                <path d="M185.174035,166.914097 C187.783995,169.305265 191.520857,169.47429 193.520551,167.291625 C195.520245,165.10896 195.025527,161.401135 192.415567,159.009967 C189.805608,156.618799 186.068745,156.449774 184.069052,158.632439 C182.069358,160.815104 182.564076,164.522929 185.174035,166.914097 L185.174035,166.914097 Z" id="路径" fill="#FF6B74" fill-rule="nonzero"></path>
                <path d="M193.080078,166.876797 C191.151641,168.975391 187.691797,168.947031 184.8275,166.593203 C184.940937,166.706641 185.054375,166.820078 185.196172,166.933516 C188.088828,169.599297 192.0875,169.967969 194.072656,167.784297 C196.086172,165.600625 195.348828,161.658672 192.456172,158.992891 C192.342734,158.879453 192.200937,158.766016 192.0875,158.680938 C194.668203,161.346719 195.008516,164.806563 193.080078,166.876797 L193.080078,166.876797 Z" id="路径" fill="#F43F4B" fill-rule="nonzero"></path>
                <path d="M203.556526,163.146012 C205.046775,164.884539 207.199483,165.826119 209.203723,165.616059 C211.207963,165.405998 212.759233,164.07621 213.27317,162.127628 C213.787106,160.179046 213.185626,157.907714 211.695309,156.169246 C210.20506,154.430719 208.052352,153.489139 206.048112,153.6992 C204.043872,153.909261 202.492602,155.239048 201.978665,157.18763 C201.464729,159.136213 202.066208,161.407544 203.556526,163.146012 L203.556526,163.146012 Z" id="路径" fill="#FF6B74" fill-rule="nonzero"></path>
                <path d="M211.400234,164.069219 C209.244922,165.912578 205.813437,165.487188 203.261094,162.793047 C203.374531,162.934844 203.459609,163.048281 203.573047,163.190078 C206.125391,166.167813 210.038984,167.046953 212.279375,165.118516 C214.519766,163.190078 214.292891,159.191406 211.712187,156.213672 C211.59875,156.100234 211.485312,155.958438 211.371875,155.845 C213.668984,158.766016 213.555547,162.225859 211.400234,164.069219 Z" id="路径" fill="#F43F4B" fill-rule="nonzero"></path>
                <path d="M187.318124,144.596045 C188.911864,146.240463 191.118279,147.048866 193.1061,146.716687 C195.093921,146.384508 196.561093,144.962223 196.954857,142.98568 C197.348621,141.009136 196.609143,138.778675 195.015023,137.134625 C193.421283,135.490207 191.214868,134.681804 189.227047,135.013983 C187.239226,135.346162 185.772054,136.768447 185.37829,138.74499 C184.984527,140.721534 185.724004,142.951995 187.318124,144.596045 L187.318124,144.596045 Z" id="路径" fill="#FF6B74" fill-rule="nonzero"></path>
                <path d="M195.235391,145.040078 C193.193516,147.025234 189.733672,146.798359 187.039531,144.274375 C187.152969,144.387813 187.266406,144.529609 187.379844,144.643047 C190.130703,147.478984 194.072656,148.074531 196.199609,146.032656 C198.326562,143.990781 197.844453,139.992109 195.093594,137.184531 C194.980156,137.071094 194.866719,136.957656 194.724922,136.844219 C197.163828,139.595078 197.277266,143.054922 195.235391,145.040078 L195.235391,145.040078 Z" id="路径" fill="#F43F4B" fill-rule="nonzero"></path>
                <path d="M196.767018,132.961145 C198.125136,134.805115 200.202916,135.90302 202.217475,135.841184 C204.232034,135.779348 205.877217,134.567167 206.533141,132.661377 C207.189064,130.755587 206.756045,128.445812 205.397241,126.602348 C204.039123,124.758378 201.961343,123.660473 199.946784,123.722309 C197.932226,123.784145 196.287042,124.996326 195.631119,126.902116 C194.975196,128.807906 195.408214,131.117681 196.767018,132.961145 L196.767018,132.961145 Z" id="路径" fill="#FF6B74" fill-rule="nonzero"></path>
                <path d="M204.537266,134.462031 C202.240156,136.135234 198.865391,135.454609 196.511563,132.590312 C196.596641,132.732109 196.681719,132.873906 196.795156,132.987344 C199.120625,136.163594 202.949141,137.297969 205.359688,135.539687 C207.741875,133.781406 207.798594,129.782734 205.444766,126.606484 C205.331328,126.464687 205.24625,126.35125 205.132813,126.209453 C207.174688,129.328984 206.806016,132.788828 204.537266,134.462031 Z" id="路径" fill="#F43F4B" fill-rule="nonzero"></path>
                <path d="M165.830234,150.253575 C167.657773,151.633489 169.962206,152.093162 171.875342,151.459414 C173.788479,150.825666 175.019616,149.194796 175.104926,147.181229 C175.190236,145.167663 174.116756,143.077364 172.288916,141.697848 C170.461376,140.317934 168.156944,139.85826 166.243807,140.492008 C164.33067,141.125756 163.099533,142.756626 163.014223,144.770193 C162.928914,146.78376 164.002394,148.874059 165.830234,150.253575 L165.830234,150.253575 Z" id="路径" fill="#FF6B74" fill-rule="nonzero"></path>
                <path d="M173.710625,149.4925 C172.009063,151.76125 168.549219,152.073203 165.486406,150.002969 C165.599844,150.116406 165.741641,150.201484 165.883438,150.314922 C169.031328,152.697109 173.03,152.697109 174.816641,150.314922 C176.603281,147.932734 175.497266,144.104219 172.349375,141.722031 C172.207578,141.608594 172.094141,141.523516 171.952344,141.438437 C174.788281,143.820625 175.412188,147.22375 173.710625,149.4925 Z" id="路径" fill="#F43F4B" fill-rule="nonzero"></path>
                <path d="M147.326249,148.743495 C149.153789,150.123409 151.458221,150.583083 153.371358,149.949335 C155.284495,149.315587 156.515632,147.684716 156.600942,145.67115 C156.686251,143.657583 155.612771,141.567284 153.784931,140.187768 C151.957392,138.807854 149.652959,138.348181 147.739823,138.981929 C145.826686,139.615677 144.595549,141.246547 144.510239,143.260114 C144.424929,145.27368 145.498409,147.363979 147.326249,148.743495 L147.326249,148.743495 Z" id="路径" fill="#FF6B74" fill-rule="nonzero"></path>
                <path d="M155.220313,147.989453 C153.51875,150.258203 150.058906,150.570156 146.996094,148.499922 C147.109531,148.613359 147.251328,148.698438 147.393125,148.811875 C150.541016,151.194063 154.539688,151.194063 156.326328,148.811875 C158.112969,146.429688 157.006953,142.601172 153.859062,140.218984 C153.717266,140.105547 153.603828,140.020469 153.462031,139.935391 C156.269609,142.317578 156.921875,145.720703 155.220313,147.989453 Z" id="路径" fill="#F43F4B" fill-rule="nonzero"></path>
                <path d="M175.691971,125.168044 C178.517089,127.300714 182.253125,127.11432 184.036641,124.751721 C185.820157,122.389122 184.975771,118.744987 182.150653,116.612317 C179.325535,114.479647 175.589498,114.666041 173.805983,117.02864 C172.022467,119.391239 172.866852,123.035375 175.691971,125.168044 L175.691971,125.168044 Z" id="路径" fill="#FF6B74" fill-rule="nonzero"></path>
                <path d="M183.551328,124.422813 C181.849766,126.691563 178.389922,127.003516 175.327109,124.933281 C175.440547,125.046719 175.582344,125.131797 175.724141,125.245234 C178.872031,127.627422 182.870703,127.627422 184.657344,125.245234 C186.443984,122.863047 185.337969,119.034531 182.190078,116.652344 C182.048281,116.538906 181.934844,116.453828 181.793047,116.36875 C184.628984,118.750938 185.28125,122.154063 183.551328,124.422813 Z" id="路径" fill="#F43F4B" fill-rule="nonzero"></path>
                <path d="M155.667497,132.340838 C157.495036,133.720752 159.799469,134.180425 161.712606,133.546677 C163.625742,132.912929 164.856879,131.282059 164.942189,129.268492 C165.027499,127.254925 163.954019,125.164627 162.126179,123.78511 C160.29864,122.405196 157.994207,121.945523 156.08107,122.579271 C154.167934,123.213019 152.936796,124.843889 152.851487,126.857456 C152.766177,128.871023 153.839657,130.961321 155.667497,132.340838 L155.667497,132.340838 Z" id="路径" fill="#FF6B74" fill-rule="nonzero"></path>
                <path d="M163.557969,131.569375 C161.856406,133.838125 158.396562,134.150078 155.33375,132.079844 C155.447187,132.193281 155.588984,132.278359 155.730781,132.391797 C158.878672,134.773984 162.877344,134.773984 164.663984,132.391797 C166.450625,130.009609 165.344609,126.181094 162.196719,123.798906 C162.054922,123.685469 161.941484,123.600391 161.799687,123.515312 C164.635625,125.8975 165.287891,129.300625 163.557969,131.569375 Z" id="路径" fill="#F43F4B" fill-rule="nonzero"></path>
                <path d="M123.712208,125.110923 C124.913398,127.060558 126.893247,128.326155 128.905869,128.430914 C130.918491,128.535672 132.658073,127.463674 133.469245,125.618783 C134.280417,123.773893 134.039924,121.436436 132.838369,119.487025 C131.637179,117.53739 129.657329,116.271793 127.644708,116.167035 C125.632086,116.062276 123.892504,117.134274 123.081332,118.979165 C122.27016,120.824056 122.510653,123.161512 123.712208,125.110923 L123.712208,125.110923 Z" id="路径" fill="#FF6B74" fill-rule="nonzero"></path>
                <path d="M131.341719,127.25875 C128.931172,128.761797 125.613125,127.797578 123.486172,124.734766 L123.741406,125.160156 C125.811641,128.506562 129.526719,129.98125 132.050703,128.421484 C134.574687,126.861719 134.943359,122.891406 132.873125,119.545 C132.788047,119.403203 132.702969,119.261406 132.589531,119.119609 C134.376172,122.352578 133.752266,125.755703 131.341719,127.25875 L131.341719,127.25875 Z" id="路径" fill="#F43F4B" fill-rule="nonzero"></path>
                <path d="M133.869546,108.403353 C135.070736,110.352988 137.050585,111.618585 139.063207,111.723343 C141.075829,111.828102 142.815411,110.756104 143.626583,108.911213 C144.437755,107.066322 144.197262,104.728866 142.995707,102.779455 C141.794517,100.82982 139.814667,99.5642227 137.802045,99.4594644 C135.789423,99.3547061 134.049842,100.426704 133.23867,102.271595 C132.427498,104.116486 132.667991,106.453942 133.869546,108.403353 L133.869546,108.403353 Z" id="路径" fill="#FF6B74" fill-rule="nonzero"></path>
                <path d="M141.494375,110.526719 C139.083828,112.029766 135.765781,111.065547 133.638828,108.002734 L133.894063,108.428125 C135.964297,111.774531 139.679375,113.249219 142.203359,111.689453 C144.727344,110.129687 145.096016,106.159375 143.025781,102.812969 C142.940703,102.671172 142.855625,102.529375 142.742188,102.387578 C144.528828,105.648906 143.904922,109.052031 141.494375,110.526719 L141.494375,110.526719 Z" id="路径" fill="#F43F4B" fill-rule="nonzero"></path>
                <path d="M137.744053,85.9995932 C138.945243,87.9492285 140.925092,89.2148255 142.937714,89.3195838 C144.950336,89.4243421 146.689918,88.3523439 147.50109,86.5074533 C148.312262,84.6625627 148.071769,82.325106 146.870214,80.3756954 C145.669024,78.4260601 143.689174,77.1604631 141.676553,77.0557048 C139.663931,76.9509465 137.924349,78.0229446 137.113177,79.8678353 C136.302005,81.7127259 136.542498,84.0501826 137.744053,85.9995932 L137.744053,85.9995932 Z" id="路径" fill="#FF6B74" fill-rule="nonzero"></path>
                <path d="M145.35125,88.1511719 C142.940703,89.6542188 139.622656,88.69 137.495703,85.6271875 L137.750938,86.0525781 C139.821172,89.3989844 143.53625,90.8736719 146.060234,89.3139063 C148.584219,87.7541406 148.952891,83.7838281 146.882656,80.4374219 C146.797578,80.295625 146.7125,80.1538281 146.599063,80.0120313 C148.414063,83.2733594 147.790156,86.6764844 145.35125,88.1511719 L145.35125,88.1511719 Z" id="路径" fill="#F43F4B" fill-rule="nonzero"></path>
                <path d="M137.443199,66.3227567 C138.644389,68.2723921 140.624239,69.5379891 142.63686,69.6427474 C144.649482,69.7475057 146.389064,68.6755075 147.200236,66.8306169 C148.011408,64.9857263 147.770915,62.6482696 146.56936,60.698859 C145.36817,58.7492236 143.388321,57.4836266 141.375699,57.3788684 C139.363077,57.2741101 137.623495,58.3461082 136.812323,60.1909988 C136.001151,62.0358895 136.241644,64.3733461 137.443199,66.3227567 L137.443199,66.3227567 Z" id="路径" fill="#FF6B74" fill-rule="nonzero"></path>
                <path d="M145.067656,68.4697656 C142.657109,69.9728125 139.339063,69.0085938 137.212109,65.9457813 L137.467344,66.3711719 C139.537578,69.7175781 143.252656,71.1922656 145.776641,69.6325 C148.300625,68.0727344 148.669297,64.1024219 146.599063,60.7560156 C146.513984,60.6142188 146.428906,60.4724219 146.315469,60.330625 C148.130469,63.5635938 147.478203,66.9667188 145.067656,68.4697656 L145.067656,68.4697656 Z" id="路径" fill="#F43F4B" fill-rule="nonzero"></path>
                <path d="M120.144441,89.0033753 C121.345724,90.9527531 123.325473,92.218098 125.337937,92.3227669 C127.3504,92.4274358 129.089837,91.3555269 129.901018,89.510818 C130.712198,87.6661091 130.471886,85.3288553 129.270603,83.3794776 C128.06932,81.4300998 126.089571,80.1647549 124.077107,80.060086 C122.064643,79.9554172 120.325207,81.0273261 119.514026,82.872035 C118.702845,84.7167439 118.943158,87.0539977 120.144441,89.0033753 L120.144441,89.0033753 Z" id="路径" fill="#FF6B74" fill-rule="nonzero"></path>
                <path d="M127.740078,91.1289063 C125.329531,92.6319531 122.011484,91.6677344 119.884531,88.6049219 L120.139766,89.0303125 C122.21,92.3767188 125.925078,93.8514063 128.449062,92.2916406 C130.973047,90.731875 131.341719,86.7615625 129.271484,83.4151563 C129.186406,83.2733594 129.101328,83.1315625 128.987891,82.9897656 C130.802891,86.2510938 130.178984,89.6542188 127.740078,91.1289063 L127.740078,91.1289063 Z" id="路径" fill="#F43F4B" fill-rule="nonzero"></path>
                <path d="M109.391388,105.710351 C110.592578,107.659986 112.572427,108.925583 114.585049,109.030341 C116.597671,109.135099 118.337253,108.063101 119.148425,106.218211 C119.959597,104.37332 119.719104,102.035863 118.517549,100.086453 C117.316359,98.1368174 115.33651,96.8712204 113.323888,96.7664621 C111.311266,96.6617038 109.571684,97.733702 108.760512,99.5785926 C107.94934,101.423483 108.189833,103.76094 109.391388,105.710351 L109.391388,105.710351 Z" id="路径" fill="#FF6B74" fill-rule="nonzero"></path>
                <path d="M117.020234,107.860938 C114.609688,109.363984 111.291641,108.399766 109.164688,105.336953 L109.419922,105.762344 C111.490156,109.10875 115.205234,110.583438 117.729219,109.023672 C120.253203,107.463906 120.621875,103.493594 118.551641,100.147188 C118.466563,100.005391 118.381484,99.8635938 118.268047,99.7217969 C120.054688,102.954766 119.430781,106.357891 117.020234,107.860938 L117.020234,107.860938 Z" id="路径" fill="#F43F4B" fill-rule="nonzero"></path>
                <path d="M90.0003796,106.01909 C91.2015695,107.968725 93.1814192,109.234322 95.1940412,109.33908 C97.2066631,109.443839 98.9462446,108.37184 99.7574166,106.52695 C100.568589,104.682059 100.328096,102.344603 99.126541,100.395192 C97.925351,98.4455566 95.9455013,97.1799596 93.9328794,97.0752013 C91.9202574,96.970443 90.180676,98.0424412 89.369504,99.8873318 C88.5583319,101.732222 88.7988249,104.069679 90.0003796,106.01909 L90.0003796,106.01909 Z" id="路径" fill="#FF6B74" fill-rule="nonzero"></path>
                <path d="M97.6224219,108.144531 C95.211875,109.647578 91.8938281,108.683359 89.766875,105.620547 L90.0221094,106.045938 C92.0923437,109.392344 95.8074219,110.867031 98.3314062,109.307266 C100.855391,107.7475 101.224062,103.777188 99.1538281,100.430781 C99.06875,100.288984 98.9836719,100.147188 98.8702344,100.005391 C100.656875,103.266719 100.032969,106.669844 97.6224219,108.144531 L97.6224219,108.144531 Z" id="路径" fill="#F43F4B" fill-rule="nonzero"></path>
                <path d="M99.9250517,205.486016 C100.917096,207.549881 102.754629,209.014355 104.745409,209.327735 C106.73619,209.641116 108.577738,208.755789 109.576298,207.005277 C110.574859,205.254766 110.578711,202.905043 109.586403,200.841305 C108.594359,198.777441 106.756826,197.312967 104.766045,196.999586 C102.775265,196.686205 100.933717,197.571533 99.9351564,199.322044 C98.9365958,201.072556 98.9327439,203.422279 99.9250517,205.486016 L99.9250517,205.486016 Z" id="路径" fill="#FF6B74" fill-rule="nonzero"></path>
                <path d="M107.264609,208.394922 C104.712266,209.614375 101.507656,208.309844 99.7210156,205.076875 C99.7777344,205.218672 99.8628125,205.388828 99.9195312,205.530625 C101.621094,209.075547 105.166016,210.918906 107.860156,209.642734 C110.525937,208.366562 111.32,204.424609 109.618437,200.879687 C109.533359,200.737891 109.476641,200.596094 109.391562,200.425937 C110.809531,203.857422 109.816953,207.175469 107.264609,208.394922 L107.264609,208.394922 Z" id="路径" fill="#F43F4B" fill-rule="nonzero"></path>
                <path d="M110.661134,191.732414 C111.653178,193.796278 113.490711,195.260752 115.481491,195.574133 C117.472272,195.887514 119.31382,195.002186 120.31238,193.251675 C121.310941,191.501163 121.314793,189.15144 120.322485,187.087703 C119.330441,185.023838 117.492908,183.559364 115.502127,183.245984 C113.511347,182.932603 111.669799,183.81793 110.671238,185.568442 C109.672678,187.318953 109.668826,189.668676 110.661134,191.732414 L110.661134,191.732414 Z" id="路径" fill="#FF6B74" fill-rule="nonzero"></path>
                <path d="M118.012812,194.668984 C115.460469,195.888438 112.255859,194.583906 110.469219,191.350938 C110.525937,191.492734 110.611016,191.662891 110.667734,191.804688 C112.369297,195.349609 115.914219,197.192969 118.608359,195.916797 C121.274141,194.640625 122.068203,190.698672 120.366641,187.15375 C120.281562,187.011953 120.224844,186.870156 120.139766,186.7 C121.557734,190.131484 120.565156,193.449531 118.012812,194.668984 Z" id="路径" fill="#F43F4B" fill-rule="nonzero"></path>
                <path d="M125.624248,187.134299 C126.303026,189.321363 127.906086,191.039446 129.829487,191.641273 C131.752888,192.243099 133.704371,191.637222 134.948728,190.051902 C136.193085,188.466582 136.541239,186.142705 135.862023,183.955777 C135.183245,181.768713 133.580185,180.05063 131.656784,179.448803 C129.733383,178.846977 127.781901,179.452853 126.537543,181.038174 C125.293186,182.623494 124.945033,184.947371 125.624248,187.134299 L125.624248,187.134299 Z" id="路径" fill="#FF6B74" fill-rule="nonzero"></path>
                <path d="M132.476094,191.095703 C129.753594,191.946484 126.775859,190.188203 125.499688,186.7 C125.528047,186.870156 125.584766,187.011953 125.641484,187.182109 C126.804219,190.953906 130.065547,193.279375 132.873125,192.400234 C135.709063,191.521094 137.070313,187.749297 135.879219,184.005859 C135.8225,183.835703 135.765781,183.693906 135.709063,183.52375 C136.644922,187.125391 135.198594,190.244922 132.476094,191.095703 Z" id="路径" fill="#F43F4B" fill-rule="nonzero"></path>
                <path d="M79.5575,48.8450781 C76.8917188,50.8302344 75.8424219,55.5946094 77.3738281,57.3528906 C82.4501563,63.2232812 86.3353906,53.4109375 86.7324219,50.6600781 C87.1294531,47.9092187 85.2010156,44.6195312 79.5575,48.8450781 Z" id="路径" fill="#FFE1D8" fill-rule="nonzero"></path>
            </g>
            <g id="编组-3" stroke-width="1" transform="translate(187.034290, 143.964491) rotate(-2.000000) translate(-187.034290, -143.964491) translate(132.034290, 125.964491)">
                <path d="M44,26 C44,24.8954305 44.8954305,24 46,24 C47.1045695,24 48,24.8954305 48,26 C48,29.3137085 50.6862915,32 54,32 C57.3137085,32 60,29.3137085 60,26 C60,24.8954305 60.8954305,24 62,24 C63.1045695,24 64,24.8954305 64,26 C63.9940948,31.5203996 59.5203996,35.9940948 54,36 C48.4796004,35.9940948 44.0059052,31.5203996 44,26 Z" id="路径" fill="#000000" fill-rule="nonzero"></path>
                <ellipse id="椭圆形备份-13" fill="#FF9FB5" cx="10.4374731" cy="20.0386549" rx="10.395" ry="5.1975"></ellipse>
                <ellipse id="椭圆形备份-14" fill="#FF9FB5" cx="98.8026599" cy="11.1171207" rx="10.395" ry="5.1975"></ellipse>
                <ellipse id="椭圆形备份-15" fill="#FFFFFF" transform="translate(6.543299, 19.891491) rotate(43.000000) translate(-6.543299, -19.891491) " cx="6.5432995" cy="19.8914911" rx="1.04964007" ry="3.15187778"></ellipse>
                <ellipse id="椭圆形备份-17" fill="#FFFFFF" transform="translate(94.908486, 10.969957) rotate(43.000000) translate(-94.908486, -10.969957) " cx="94.9084862" cy="10.9699569" rx="1.04964007" ry="3.15187778"></ellipse>
                <ellipse id="椭圆形备份-16" fill="#FFFFFF" transform="translate(12.780299, 19.891491) rotate(43.000000) translate(-12.780299, -19.891491) " cx="12.7802995" cy="19.8914911" rx="1.04964007" ry="3.15187778"></ellipse>
                <ellipse id="椭圆形备份-18" fill="#FFFFFF" transform="translate(101.145486, 10.969957) rotate(43.000000) translate(-101.145486, -10.969957) " cx="101.145486" cy="10.9699569" rx="1.04964007" ry="3.15187778"></ellipse>
                <path d="M30.3516567,6.93418695 C30.4568002,10.2454068 33.2269483,12.8265703 36.5389557,12.6993769 C39.850963,12.5721836 42.4506398,9.78479887 42.3454963,6.47357897 C42.2403528,3.16235908 39.4702047,0.581195597 36.1581974,0.708388978 C32.84619,0.83558236 30.2465132,3.62296706 30.3516567,6.93418695 Z" id="路径" fill="#000000" fill-rule="nonzero" transform="translate(36.348577, 6.703883) rotate(2.000000) translate(-36.348577, -6.703883) "></path>
                <path d="M68.3523022,6.91331164 C68.4271119,9.05558599 69.6391279,10.9952186 71.5317954,12.0015685 C73.4244629,13.0079185 75.7102407,12.9280973 77.5280984,11.7921729 C79.3459562,10.6562484 80.4197179,8.63679464 80.344908,6.49452029 C80.2292621,3.18285117 77.4508762,0.591962554 74.1392096,0.70760859 C70.8275429,0.823254627 68.2366562,3.60164252 68.3523022,6.91331164 L68.3523022,6.91331164 Z" id="路径" fill="#000000" fill-rule="nonzero" transform="translate(74.348577, 6.703883) rotate(2.000000) translate(-74.348577, -6.703883) "></path>
            </g>
        </g>
    </g>
</svg>