<?xml version="1.0" encoding="UTF-8"?>
<svg width="321px" height="226px" viewBox="0 0 321 226" version="1.1" xmlns="http://www.w3.org/2000/svg" xmlns:xlink="http://www.w3.org/1999/xlink">
    <!-- Generator: Sketch 61.2 (89653) - https://sketch.com -->
    <title>苹果+梨子</title>
    <desc>Created with Sketch.</desc>
    <defs>
        <linearGradient x1="50%" y1="0%" x2="50%" y2="83.7897246%" id="linearGradient-1">
            <stop stop-color="#F9E45F" offset="0%"></stop>
            <stop stop-color="#EFBB27" offset="100%"></stop>
        </linearGradient>
        <linearGradient x1="38.582601%" y1="57.4539121%" x2="65.1010781%" y2="100%" id="linearGradient-2">
            <stop stop-color="#EFBB27" offset="0%"></stop>
            <stop stop-color="#EF9927" offset="100%"></stop>
        </linearGradient>
        <path d="M57.9333335,8.47078424 C57.9333335,8.10411751 48.0333335,-3.62921576 33.7333335,1.13745077 C19.4333335,5.90411729 7.33333348,15.4374508 5.13333348,27.9041175 C2.93333348,40.3707842 1.83333348,45.1374508 2.27373675e-13,46.6041175 C2.27373675e-13,46.6041175 22,52.4707842 34.8333335,42.5707842 C47.666667,32.6707842 66,29.3707842 57.9333335,8.47078424 Z" id="path-3"></path>
        <linearGradient x1="50%" y1="0%" x2="50%" y2="100%" id="linearGradient-5">
            <stop stop-color="#CA7405" offset="0%"></stop>
            <stop stop-color="#9A4002" offset="100%"></stop>
        </linearGradient>
        <linearGradient x1="73.3419464%" y1="42.4008096%" x2="19.9150687%" y2="72.712056%" id="linearGradient-6">
            <stop stop-color="#F0D747" offset="0%"></stop>
            <stop stop-color="#EFBB27" offset="100%"></stop>
        </linearGradient>
        <linearGradient x1="50%" y1="0%" x2="50%" y2="100%" id="linearGradient-7">
            <stop stop-color="#903C09" offset="0%"></stop>
            <stop stop-color="#C36F15" offset="100%"></stop>
        </linearGradient>
        <radialGradient cx="31.3153698%" cy="33.5860991%" fx="31.3153698%" fy="33.5860991%" r="37.8947702%" gradientTransform="translate(0.313154,0.335861),scale(0.949991,1.000000),rotate(58.733339),translate(-0.313154,-0.335861)" id="radialGradient-8">
            <stop stop-color="#F8867B" offset="0%"></stop>
            <stop stop-color="#EF4E45" offset="100%"></stop>
        </radialGradient>
        <linearGradient x1="50%" y1="0%" x2="50%" y2="100%" id="linearGradient-9">
            <stop stop-color="#ED3737" offset="0%"></stop>
            <stop stop-color="#E12B2B" offset="100%"></stop>
        </linearGradient>
        <path d="M0,44.1099088 C0,44.1099088 2.62500007,29.1099088 24,29.8599089 C45.3750001,30.6099091 34.5,35.859909 59.625,27.9849088 C93.7500001,17.1099088 109.875,56.8599087 110.25,60.9849088 C110.625,65.1099088 114,18.6099089 94.1250001,6.23490892 C79.8750002,-2.76509108 70.5,2.10990899 60.75,3.23490877 C42.75,5.48490877 20.6250001,-19.2650912 0,44.1099088 L0,44.1099088 Z" id="path-10"></path>
    </defs>
    <g id="蔬菜水果" stroke="none" stroke-width="1" fill="none" fill-rule="evenodd">
        <g id="苹果" transform="translate(1.000000, 0.000000)">
            <ellipse id="椭圆形" fill-opacity="0.1" fill="#000000" cx="166" cy="192" rx="96" ry="34"></ellipse>
            <g id="编组" stroke-width="1" transform="translate(-25.500000, 28.000000)">
                <g id="编组-5" transform="translate(88.926203, 87.406502) rotate(-10.000000) translate(-88.926203, -87.406502) translate(11.926203, 12.656502)">
                    <path d="M152.8,84.1133334 C149.133333,62.1133334 123.466667,47.0800001 119.433333,43.7800001 C115.4,40.4800001 97.0666667,25.8133334 94.1333335,22.5133334 C91.2000002,19.2133334 78.0000002,16.6466667 72.5,23.6133334 C72.5,23.6133334 69.9333333,29.4800001 65.9,32.4133334 C62.2333333,34.9800001 61.1333333,37.9133334 58.9333335,39.3800001 C56.3666667,40.8466669 53.0666667,41.9466669 52.3333335,47.0800001 C51.6000002,52.2133334 48.3000002,75.6800001 63.7,80.8133334 C79.1,85.9466667 91.5666667,79.7133334 95.6,76.4133334 C99.6333333,73.1133334 107.7,76.7800001 105.5,92.5466667 C103.666667,107.946667 92.6666667,133.613333 107.333333,146.813333 C107.7,146.446667 133.366667,139.48 139.233333,127.38 C145.466667,114.913333 156.466667,106.113333 152.8,84.1133334 Z" id="路径" fill="url(#linearGradient-1)" fill-rule="nonzero"></path>
                    <ellipse id="椭圆形" fill-opacity="0.3" fill="#FFFFFF" transform="translate(87.072155, 32.449876) rotate(-45.000000) translate(-87.072155, -32.449876) " cx="87.0721547" cy="32.4498757" rx="6" ry="8"></ellipse>
                    <path d="M95.9666667,76.0466667 C91.9333335,79.3466667 79.4666667,85.5799999 64.0666667,80.4466667 C59.2846839,78.6054366 55.4133401,73.476791 54.648457,70.9706564 C60.9128653,65.1777739 62.3855891,60.9113488 63.3788495,57.331642 C65.9077612,47.6475769 65.6589428,41.2636379 62.6323945,38.179825 C62.6107982,36.0466084 63.8222222,34.0022223 66.2666667,32.0466667 C69.9333335,29.4799999 72.8666667,23.2466667 72.8666667,23.2466667 C72.8666667,23.6133334 72.5,23.6133334 72.5,23.9800001 C72.5,23.9800001 58.2,31.3133334 56.7333335,34.6133334 C55.2666667,38.2800001 47.5666667,38.6466667 49.0333335,61.0133334 C50.5000002,83.3800001 48.3000002,107.946667 57.4666667,125.18 C66.6333335,142.046667 85.7,149.746667 96.7,149.013333 C106.6,148.28 113.591721,145.880673 117.991721,142.94734 C110.612272,127.104604 103.666667,107.58 105.866667,92.1800001 C108.066667,76.4133334 100,72.7466667 95.9666667,76.0466667 Z" id="路径" fill="url(#linearGradient-2)" fill-rule="nonzero"></path>
                    <g id="编组-7" transform="translate(39.622392, 49.121407) rotate(-24.000000) translate(-39.622392, -49.121407) translate(7.122392, 24.871407)">
                        <path d="M56.7029353,11.191124 L55.596758,9.49421011 C55.596758,9.49421011 59.5241368,4.33687268 64.5333335,4.80411751 L64.5583059,6.93412485 C64.5583059,6.93412485 60.3075636,6.31238615 56.7029353,11.191124 Z" id="路径" fill="#40020D" fill-rule="nonzero"></path>
                        <g id="路径-6" transform="translate(-0.000000, 0.000000)">
                            <mask id="mask-4" fill="white">
                                <use xlink:href="#path-3"></use>
                            </mask>
                            <use id="蒙版" fill="#679933" fill-rule="nonzero" xlink:href="#path-3"></use>
                            <path d="M45.4958794,-9.45981255 C35.9122373,-2.38308713 29.6739826,7.68760641 26.7811153,20.752268 C22.4418144,40.3492605 24.0082617,51.8049872 17.8405433,56.536339 C11.6728249,61.2676909 -0.715006007,43.7145918 -0.715006007,43.7145918 C-0.715006007,43.7145918 -0.715006007,35.1601109 -0.715006007,18.0511492 L12.4708263,-9.45981255 C22.011019,-14.9224747 26.7811153,-17.6538058 26.7811153,-17.6538058 C26.7811153,-17.6538058 33.01937,-14.9224747 45.4958794,-9.45981255 Z" fill="#79B53A" mask="url(#mask-4)" transform="translate(22.390437, 19.846026) rotate(34.000000) translate(-22.390437, -19.846026) "></path>
                        </g>
                    </g>
                    <path d="M64.4333335,33.8800001 C64.4333335,33.8800001 62.9666667,29.1133334 62.2333335,27.6466667 C61.5000002,26.1799999 50.8666667,10.0466667 49.0333335,2.34666666 C49.0333335,2.34666666 50.5000002,-1.32000008 56,0.513333396 C56,0.513333396 54.1666667,15.5466667 70.3,28.0133334 C70.3,28.0133334 68.1,31.6800001 64.4333335,33.8800001 Z" id="路径" fill="url(#linearGradient-5)" fill-rule="nonzero"></path>
                </g>
                <g id="编组-6" transform="translate(270.984644, 98.903045) rotate(-18.000000) translate(-270.984644, -98.903045) translate(207.484644, 48.903045)" fill-rule="nonzero">
                    <path d="M14.3597796,18.004491 C14.3597796,18.004491 21.693113,-0.328842419 49.3597796,0.00449097919 C77.0264462,0.337824378 87.693113,12.3378244 93.0264464,21.3378242 C98.3597798,30.3378242 107.35978,44.0044908 115.026446,48.6711576 C122.693113,53.3378242 126.026446,65.004491 124.693113,69.6711576 C123.35978,74.3378242 117.026446,81.3378242 112.35978,84.004491 C107.693113,86.6711576 103.35978,93.004491 95.3597796,93.6711576 C87.3597796,94.3378242 58.3597796,99.004491 51.0264464,99.004491 C43.6931132,99.004491 31.0264464,104.004491 16.693113,84.004491 C2.35977957,64.004491 -0.306887031,59.004491 0.0264463674,48.3378242 C0.359779766,37.6711574 7.02644637,31.6711576 14.3597796,18.004491 Z" id="路径" fill="url(#linearGradient-6)"></path>
                    <path d="M105.35978,89.004491 C105.35978,89.004491 109.026446,86.004491 110.35978,80.004491 C111.693113,74.004491 118.35978,75.004491 119.026446,69.004491 C119.026446,69.004491 119.693113,71.004491 118.693113,73.6711576 C118.026446,75.004491 120.693113,72.004491 120.693113,72.004491 C120.693113,72.004491 120.35978,77.004491 117.026446,77.3378242 C112.693113,78.3378242 111.693113,85.004491 105.35978,89.004491 L105.35978,89.004491 Z" id="路径" fill="#E1BE40"></path>
                    <path d="M117.35978,75.004491 C118.35978,75.6711576 126.145722,83.5214242 126.723821,94.1925218 C126.956429,96.1869958 120.530487,99.6623391 120.887816,95.1095933 C121.187195,84.3045152 117.041137,81.1588134 110.35978,81.004491 C110.35978,80.6711576 110.693113,77.004491 113.026446,76.004491 C113.026446,76.004491 116.35978,74.3378244 117.35978,75.004491 Z" id="路径" fill="url(#linearGradient-7)"></path>
                    <path d="M97.0264464,42.6711576 C93.693113,40.004491 90.3597798,35.004491 85.693113,27.6711576 C81.693113,21.3378242 71.0264464,20.6711576 68.3597796,22.3378242 C58.693113,28.3378242 60.3597796,51.0044908 69.0264464,53.3378242 C76.3597798,55.3378242 77.693113,53.0044908 81.0264464,48.3378242 C83.0264464,45.6711576 87.0264464,44.3378242 93.0264464,50.004491 C98.693113,55.004491 103.693113,64.004491 105.693113,65.6711576 C109.35978,68.004491 115.35978,65.6711576 115.35978,60.004491 C115.35978,54.6711576 101.026446,46.3378244 97.0264464,42.6711576 L97.0264464,42.6711576 Z M14.3597796,28.004491 C13.3597796,29.004491 7.02644617,41.6711576 9.02644637,46.004491 C12.0264464,53.004491 23.693113,57.6711576 34.3597796,55.004491 C40.3597796,53.6711576 36.693113,44.004491 37.0264464,37.3378242 C37.0264464,30.0044908 22.3597798,17.0044908 14.3597796,28.004491 Z" id="形状" fill="#F1DF70"></path>
                </g>
            </g>
            <g id="编组" stroke-width="1" transform="translate(76.000000, 0.000000)">
                <path d="M121.265625,34.3281249 C114.140625,33.578125 106.265625,33.578125 96.890625,34.3281249 C95.0156251,34.703125 93.515625,35.0781249 91.6406251,35.4531249 C77.0156251,38.4531249 72.140625,34.3281249 59.0156251,33.9531251 C42.890625,33.2031251 32.3906251,33.9531251 17.015625,47.8281249 C-1.35937507,64.3281249 -2.85937493,88.703125 3.515625,112.703125 C7.26562507,126.578125 15.890625,141.953125 23.765625,154.328125 C29.7656251,163.703125 35.3906251,171.578125 38.390625,174.953125 C43.6406249,181.703125 56.0156249,191.453125 72.5156251,190.328125 C76.640625,189.953125 80.7656251,189.203125 85.2656249,187.328125 C90.5156249,185.078125 96.5156249,184.328125 110.015625,186.953125 L114.890625,186.953125 C131.390625,184.328125 156.890625,153.953125 164.015625,101.078125 C170.015625,57.9531249 147.890625,38.4531251 121.265625,34.3281249 Z" id="路径" fill="url(#radialGradient-8)" fill-rule="nonzero"></path>
                <path d="M26.3906251,51.9531251 C26.3906251,51.9531251 30.1406251,60.2031251 41.3906249,61.3281249 C52.6406249,62.4531249 47.0156249,87.2031249 39.515625,93.203125 C32.0156251,99.2031251 18.5156251,93.203125 14.3906249,78.578125 C10.2656248,63.953125 18.140625,49.7031251 26.3906251,51.9531251 Z" id="路径" fill-opacity="0.2" fill="#FFFFFF" fill-rule="nonzero"></path>
                <path d="M121.265625,34.3281249 C113.390625,33.2031249 105.140625,33.2031249 96.890625,34.3281249 C106.265625,33.578125 114.140625,33.578125 121.265625,34.3281249 Z M111.140625,187.328125 L114.890625,187.328125 L111.140625,187.328125 Z" id="形状" fill="#F76363" fill-rule="nonzero"></path>
                <path d="M67.9891656,5.69449059 C67.7107372,6.35094769 67.640625,6.95312507 67.640625,7.32812493 C67.640625,9.57812493 68.0156251,19.3281249 76.640625,28.7031249 C85.2656249,38.078125 82.640625,46.7031249 81.8906249,48.9531249 C81.8906249,49.328125 81.8906249,49.328125 82.265625,49.328125 L94.2656249,49.328125 C94.640625,49.328125 94.640625,48.9531249 94.640625,48.9531249 C94.2656249,46.7031249 93.140625,35.4531249 86.765625,25.703125 C81.140625,17.0781251 86.2159362,7.80928047 88.8409362,4.80928032 C89.2159363,4.43428025 89.436197,4.2439088 89.3733897,4.04748094 C90.417621,0.737102864 75.4337412,-3.62749944 67.9891656,5.69449059 Z" id="路径" fill="#754107" fill-rule="nonzero"></path>
                <path d="M68.7312961,6.72870551 C69.0060349,7.13260894 72.6206944,8.03594889 80.1466859,8.3829874 C79.396686,9.5079874 77.3906249,12.5781251 79.2656251,18.2031251 C80.015625,20.0781251 88.2656251,30.203125 87.5156249,36.2031251 C87.1406249,39.9531251 89.7656249,44.828125 87.1406251,47.8281249 C86.765625,48.203125 87.1406251,48.5781251 87.5156249,48.5781251 L94.2656249,49.328125 C94.640625,49.328125 94.640625,49.328125 94.640625,48.9531249 C92.7656251,33.9531249 86.765625,25.703125 86.765625,25.703125 C86.765625,25.703125 80.015625,16.703125 89.3906251,4.328125 C89.7656251,3.95312493 89.3906251,3.57812507 89.015625,3.57812507 C87.9779698,4.84561986 85.4637951,5.78928638 81.4731009,6.40912463 C77.4824068,7.02896289 73.2351385,7.13548985 68.7312961,6.72870551 Z" id="路径" fill="#633609" fill-rule="nonzero"></path>
                <path d="M121.341616,31.9712081 C114.216616,31.2212081 106.265625,33.578125 96.890625,34.3281249 C96.890625,34.3281249 98.7656249,49.328125 78.890625,48.9531249 C55.6406251,48.5781249 50.0156251,56.8281249 50.0156251,56.8281249 C50.0156251,56.8281249 67.2656251,49.7031249 81.5156251,54.953125 C96.1406251,60.578125 95.765625,57.203125 101.015625,59.8281251 C158.765625,80.4531251 110.960129,182.97656 72.5156251,190.328125 C76.640625,189.953125 80.7656251,189.203125 85.2656249,187.328125 C90.5156251,185.078125 96.5156251,186.328125 110.015625,188.953125 L114.890625,188.953125 C135.005609,189.328125 165.764333,155.879272 172.889333,103.004272 C178.889333,59.8792715 147.966616,36.0962082 121.341616,31.9712081 Z" id="路径" fill="url(#linearGradient-9)" fill-rule="nonzero"></path>
                <path d="M203.765625,61.3281249 C203.765625,61.3281249 146.015625,13.328125 93.515625,44.828125 C93.515625,44.828125 100.640625,13.328125 152.015625,18.2031251 C196.640625,22.7031251 203.765625,61.3281249 203.765625,61.3281249 Z" id="路径" fill="#679933" fill-rule="nonzero"></path>
                <g id="路径-5" transform="translate(93.140625, 0.718216)">
                    <mask id="mask-11" fill="white">
                        <use xlink:href="#path-10"></use>
                    </mask>
                    <use id="蒙版" fill="#79B53A" fill-rule="nonzero" xlink:href="#path-10"></use>
                    <path d="M110.694362,60.6099088 C108.579397,37.6541546 93.2265956,24.3922038 64.6359574,20.8240563 C36.0453192,17.2559088 15.0000001,23.8868842 1.50000007,40.7169825 C1.50000007,30.5307316 1.50000007,25.0538117 1.50000007,24.2862228 C1.50000007,23.1348395 9.08030295,-2.98960538 11.7253495,-3.35391077 C14.370396,-3.71821615 46.2594517,-19.5587116 52.2969765,-17.2749326 C58.3345013,-14.9911536 114.876549,-7.18541297 114.876549,-5.26966187 C114.876549,-3.35391077 122.154921,22.4897385 122.507148,25.7349089 C122.859375,28.9800792 123.211602,33.6601521 122.859375,37.1885673 C122.624557,39.5408441 120.63949,45.2450618 116.904174,54.3012204 L110.694362,60.6099088 Z" fill="#95D13C" mask="url(#mask-11)"></path>
                </g>
            </g>
            <g id="编组-3" stroke-width="1" transform="translate(162.490666, 105.794927) rotate(-2.000000) translate(-162.490666, -105.794927) translate(91.990666, 82.044927)">
                <path d="M57.5644331,35.6467746 C57.5644331,34.3584047 58.6610848,33.3139746 60.0138731,33.3139746 C61.3666615,33.3139746 62.4633131,34.3584047 62.4633131,35.6467746 C62.4633131,39.5118842 65.7532681,42.6451746 69.8116331,42.6451746 C73.8699982,42.6451746 77.1599531,39.5118842 77.1599531,35.6467746 C77.1599531,34.3584047 78.2566048,33.3139746 79.6093931,33.3139746 C80.9621815,33.3139746 82.0588331,34.3584047 82.0588331,35.6467746 C82.0516009,42.0857687 76.572577,47.3038868 69.8116331,47.3107746 C63.0506893,47.3038868 57.5716653,42.0857687 57.5644331,35.6467746 Z" id="路径" fill="#000000" fill-rule="nonzero"></path>
                <ellipse id="椭圆形备份-13" fill="#FF9FB5" cx="14.8812384" cy="29.317321" rx="14.85" ry="7.425"></ellipse>
                <ellipse id="椭圆形备份-14" fill="#FF9FB5" cx="125.81362" cy="33.1911651" rx="14.85" ry="7.425"></ellipse>
                <ellipse id="椭圆形备份-15" fill="#FFFFFF" transform="translate(9.318133, 29.107087) rotate(43.000000) translate(-9.318133, -29.107087) " cx="9.31813324" cy="29.107087" rx="1.49948582" ry="4.50268255"></ellipse>
                <ellipse id="椭圆形备份-17" fill="#FFFFFF" transform="translate(120.250515, 32.980931) rotate(43.000000) translate(-120.250515, -32.980931) " cx="120.250515" cy="32.9809311" rx="1.49948582" ry="4.50268255"></ellipse>
                <ellipse id="椭圆形备份-16" fill="#FFFFFF" transform="translate(18.228133, 29.107087) rotate(43.000000) translate(-18.228133, -29.107087) " cx="18.2281332" cy="29.107087" rx="1.49948582" ry="4.50268255"></ellipse>
                <ellipse id="椭圆形备份-18" fill="#FFFFFF" transform="translate(129.160515, 32.980931) rotate(43.000000) translate(-129.160515, -32.980931) " cx="129.160515" cy="32.9809311" rx="1.49948582" ry="4.50268255"></ellipse>
                <path d="M33.5562276,7.92828282 C33.678867,11.7904897 36.9099677,14.8011588 40.7730931,14.6528004 C44.6362185,14.5044421 47.6684815,11.2532366 47.5458421,7.39102967 C47.4232027,3.52882279 44.192102,0.518153704 40.3289766,0.666512064 C36.4658512,0.814870424 33.4335882,4.06607594 33.5562276,7.92828282 Z" id="路径" fill="#000000" fill-rule="nonzero" transform="translate(40.551035, 7.659656) rotate(2.000000) translate(-40.551035, -7.659656) "></path>
                <path d="M93.52043,9.99790366 C93.6076881,12.4966525 95.0213835,14.7590399 97.2289909,15.9328465 C99.4365983,17.1066531 102.10273,17.0135497 104.223079,15.6886074 C106.343428,14.3636651 107.595864,12.0081742 107.508605,9.50942543 C107.373716,5.64669457 104.133007,2.62468208 100.270279,2.75957162 C96.4075509,2.89446116 93.3855406,6.1351728 93.52043,9.99790366 L93.52043,9.99790366 Z" id="路径" fill="#000000" fill-rule="nonzero" transform="translate(100.514484, 9.753626) rotate(2.000000) translate(-100.514484, -9.753626) "></path>
            </g>
        </g>
    </g>
</svg>