<?xml version="1.0" encoding="UTF-8"?>
<svg width="320px" height="254px" viewBox="0 0 320 254" version="1.1" xmlns="http://www.w3.org/2000/svg" xmlns:xlink="http://www.w3.org/1999/xlink">
    <!-- Generator: Sketch 61.2 (89653) - https://sketch.com -->
    <title>玉米+辣椒+藕</title>
    <desc>Created with Sketch.</desc>
    <defs>
        <path d="M84.5014569,4.06157497 C77.2317971,2.23843044 74.2762055,-9.29012587 51.3376775,17.1599392 C28.3991496,43.6100043 -18.0281993,66.326964 7.40112839,93.4136827 C31.7298702,119.342849 78.5626981,75.6452582 92.1752084,41.757921 C101.250215,19.1663628 98.692298,6.60091417 84.5014569,4.06157497 Z" id="path-1"></path>
        <linearGradient x1="50%" y1="0%" x2="50%" y2="100%" id="linearGradient-3">
            <stop stop-color="#679933" offset="0%"></stop>
            <stop stop-color="#A0C962" offset="100%"></stop>
        </linearGradient>
        <path d="M183.867453,108.584496 C193.680472,100.309726 169.405804,70.3604188 122.316332,51.7309112 C75.2268598,33.1014037 10.5121633,38.6638011 7.91768463,69.7213929 C5.32320592,100.778985 107.653075,98.6172172 131.48562,103.228429 C155.318176,107.868586 167.931952,125.491267 173.895023,120.456964 L183.867453,108.584496 Z" id="path-4"></path>
        <linearGradient x1="50%" y1="0%" x2="50%" y2="100%" id="linearGradient-6">
            <stop stop-color="#679933" offset="0%"></stop>
            <stop stop-color="#A0C962" offset="100%"></stop>
        </linearGradient>
        <linearGradient x1="50%" y1="0%" x2="50%" y2="100%" id="linearGradient-7">
            <stop stop-color="#F2C555" offset="0%"></stop>
            <stop stop-color="#C99924" offset="100%"></stop>
        </linearGradient>
        <linearGradient x1="50%" y1="0%" x2="50%" y2="100%" id="linearGradient-8">
            <stop stop-color="#F7DD9C" offset="0%"></stop>
            <stop stop-color="#F3BA2C" offset="100%"></stop>
        </linearGradient>
        <path d="M84.8967965,7.10628952 C73.1296295,0.33460983 30.1571275,-10.1391695 7.34893204,22.8448637 C-8.51440061,45.764395 4.10923734,76.683438 18.7623392,87.0641997 C33.4154411,97.4635649 70.2250756,97.4449615 70.2250756,97.4449615" id="path-9"></path>
        <linearGradient x1="50%" y1="0%" x2="50%" y2="100%" id="linearGradient-11">
            <stop stop-color="#F7DD9C" offset="0%"></stop>
            <stop stop-color="#F2C555" offset="100%"></stop>
        </linearGradient>
        <linearGradient x1="50%" y1="0%" x2="50%" y2="100%" id="linearGradient-12">
            <stop stop-color="#F7BD2C" offset="0%"></stop>
            <stop stop-color="#F2C75B" offset="100%"></stop>
        </linearGradient>
        <linearGradient x1="50%" y1="0%" x2="50%" y2="100%" id="linearGradient-13">
            <stop stop-color="#EDC742" offset="0%"></stop>
            <stop stop-color="#FFBE19" offset="100%"></stop>
        </linearGradient>
        <linearGradient x1="0%" y1="61.4909327%" x2="100%" y2="61.4909327%" id="linearGradient-14">
            <stop stop-color="#F7B500" offset="0%"></stop>
            <stop stop-color="#F7880C" offset="100%"></stop>
        </linearGradient>
        <linearGradient x1="50%" y1="0%" x2="50%" y2="100%" id="linearGradient-15">
            <stop stop-color="#A0C962" offset="0%"></stop>
            <stop stop-color="#679933" offset="100%"></stop>
        </linearGradient>
        <linearGradient x1="50%" y1="0%" x2="50%" y2="100%" id="linearGradient-16">
            <stop stop-color="#A0C962" offset="0%"></stop>
            <stop stop-color="#679933" offset="100%"></stop>
        </linearGradient>
    </defs>
    <g id="蔬菜水果" stroke="none" stroke-width="1" fill="none" fill-rule="evenodd">
        <g id="玉米">
            <g id="编组-6" transform="translate(-14.204413, 0.000000)">
                <ellipse id="椭圆形" fill-opacity="0.1" fill="#000000" cx="172.026781" cy="224.366667" rx="113.335526" ry="29.6333333"></ellipse>
                <g id="编组-5" transform="translate(245.427121, 138.845518) rotate(171.000000) translate(-245.427121, -138.845518) translate(190.030910, 77.754225)">
                    <g id="路径" transform="translate(13.143875, 0.000000)">
                        <mask id="mask-2" fill="white">
                            <use xlink:href="#path-1"></use>
                        </mask>
                        <use id="蒙版" fill="#FF5A4D" fill-rule="nonzero" xlink:href="#path-1"></use>
                        <path d="M89.7051668,10.4278806 C93.4921562,27.3976172 96.1762405,11.7476773 73.2479545,38.1942291 C50.3196686,64.640781 44.8768721,71.7953498 5.77246409,90.0502796 C30.0765778,115.992457 80.3671508,75.7627163 93.9782288,41.8467986 C103.052281,19.2361868 101.627927,8.76321412 89.7051668,10.4278806 Z" fill="#EA394A" fill-rule="nonzero" mask="url(#mask-2)" transform="translate(52.816451, 54.297055) scale(-1, 1) rotate(-109.000000) translate(-52.816451, -54.297055) "></path>
                    </g>
                    <path d="M33.8968481,79.7545681 C32.680411,87.4233507 43.2518286,100.96671 44.7289308,100.619444 C38.2501929,102.418202 28.7125091,100.908832 23.9915747,96.4233181 C21.6166261,98.7962999 4.20999058,109.474718 5.74501834,117.317133 C7.28004609,125.159549 -1.5536042,122.555056 0.242088648,115.146723 C2.06674428,107.73839 18.7782729,91.4169054 18.7782729,91.4169054 C18.7782729,91.4169054 10.0375275,82.8899878 13.8545989,72.0568468 C13.8545989,72.0568468 25.9031187,84.6741645 33.8968481,79.7545681 Z" id="路径" fill="url(#linearGradient-3)" fill-rule="nonzero"></path>
                </g>
                <g id="路径" transform="translate(136.828016, 107.206171)">
                    <mask id="mask-5" fill="white">
                        <use xlink:href="#path-4"></use>
                    </mask>
                    <use id="蒙版" fill="#FF5A4D" fill-rule="nonzero" transform="translate(96.945123, 81.198618) rotate(148.000000) translate(-96.945123, -81.198618) " xlink:href="#path-4"></use>
                    <path d="M177.059818,99.9993121 C148.999604,86.5191394 176.401617,106.519484 150.135356,100.447717 C123.869095,94.3759505 82.7692921,106.161129 23.2712247,82.5526522 C15.5217336,121.433057 115.334808,122.231587 145.604374,115.557392 C175.87394,108.883197 171.092753,105.03629 177.059818,99.9993121 Z" fill="#EA394A" fill-rule="nonzero" mask="url(#mask-5)" transform="translate(99.951815, 100.643613) scale(-1, 1) rotate(16.000000) translate(-99.951815, -100.643613) "></path>
                </g>
                <path d="M340.264593,153.539796 C328.133506,157.55871 329.124177,174.115924 331.672504,174.637892 C324.229483,171.103766 315.302315,166.805199 316.406003,156.743869 C316.406003,156.743869 303.803332,158.105851 300.965973,159.002106 C298.128614,159.898361 297.347307,161.25851 297.347307,161.25851 C296.572484,161.684152 295.571446,161.513537 294.344193,160.746664 C293.11694,159.979791 292.862796,159.021064 293.58176,157.870481 C293.58176,157.870481 296.678688,154.195551 300.732255,153.444476 C308.144476,152.028905 317.620055,151.099942 317.620055,151.099942 C317.620055,151.099942 319.326188,144.993069 326.736911,139.554068 C332.150237,135.648436 340.256854,132.7569 340.256854,132.7569 C340.256854,132.7569 331.111031,144.273818 340.264593,153.539796 Z" id="路径" fill="url(#linearGradient-6)" fill-rule="nonzero" transform="translate(316.723979, 153.697396) rotate(148.000000) translate(-316.723979, -153.697396) "></path>
                <path d="M285.237575,152.677516 C286.377578,152.414626 287.515025,153.124902 287.778133,154.263961 C288.041241,155.40302 287.330376,156.539525 286.190373,156.802415 C276.358772,159.069628 267.866087,162.127426 260.71077,165.967995 C259.680097,166.521202 258.395736,166.134831 257.84207,165.105011 C257.288404,164.075192 257.675096,162.791894 258.705769,162.238687 C266.21195,158.209794 275.056402,155.025342 285.237575,152.677516 Z" id="路径-4" fill-opacity="0.254397946" fill="#FFFFFF" fill-rule="nonzero"></path>
                <path d="M253.089012,165.878035 C254.226332,165.603788 255.370818,166.302683 255.645292,167.439061 C255.900162,168.49427 255.315248,169.555652 254.319786,169.921472 L254.082972,169.993225 L252.179789,170.452148 C251.042468,170.726396 249.897983,170.0275 249.623508,168.891122 C249.368639,167.835914 249.953552,166.774532 250.949014,166.408712 L251.185828,166.336958 L253.089012,165.878035 Z" id="路径-5" fill-opacity="0.254397946" fill="#FFFFFF" fill-rule="nonzero"></path>
                <g id="编组" transform="translate(91.187539, 161.108565) rotate(27.000000) translate(-91.187539, -161.108565) translate(14.557155, 110.812771)">
                    <path d="M10.1839173,21.2608387 L11.5803374,31.0276844 C11.6899172,31.7804211 11.335961,32.4828151 10.7334542,32.860802 L11.0776262,33.2787098 C11.7292889,34.0786609 11.6175753,35.2506824 10.8169611,35.9018055 C10.5981584,36.0744014 10.350865,36.1900631 10.0971079,36.2531923 L8.85787379,55.1480775 C9.07555557,55.209485 9.28557356,55.3111008 9.47639778,55.4541004 C10.2956309,56.0680164 10.4445824,57.2400379 9.83015755,58.0585926 C9.73995497,58.1766362 9.6471514,58.2992961 9.55209751,58.4261429 C9.80229319,58.8004615 9.91921234,59.267667 9.84877648,59.7515125 L8.5826889,67.9370594 C8.43373742,68.8672352 7.65174215,69.5183582 6.73941433,69.5183582 C6.64631966,69.5183582 6.55322498,69.5183582 6.46013031,69.4997547 C5.43608888,69.3509266 4.74718829,68.4021473 4.89613977,67.3789539 L5.27981231,64.8928319 C4.49599098,66.2807514 3.90213143,67.5423572 3.72314686,68.4021473 C3.53695751,69.2765125 2.77358117,69.8904285 1.89849123,69.8904285 C1.76815868,69.8904285 1.65644507,69.871825 1.52611252,69.8532215 C0.520690033,69.6485828 -0.130972693,68.6625965 0.0738355923,67.6580066 C0.584416944,65.1546707 2.95782844,61.3499468 4.76978592,58.7143639 C4.02014189,58.2034749 3.2308919,57.5145431 2.47567821,56.5889148 C-0.317162043,53.165868 0.204168137,42.7292957 2.10329951,37.7063465 C2.7651293,35.9454053 4.24965161,34.1963344 5.7941375,32.7305493 L1.2468285,27.2139637 C0.595165773,26.4140125 0.706879383,25.241991 1.50749359,24.590868 C2.3081078,23.9397449 3.4811007,24.051366 4.13276343,24.8513172 L7.52419571,28.9667573 L6.49736818,21.7817371 C6.3484167,20.7585438 7.05593623,19.828368 8.07997766,19.6795398 C9.10401908,19.5307117 10.0349658,20.2376453 10.1839173,21.2608387 Z" id="形状结合" fill="url(#linearGradient-7)" fill-rule="nonzero"></path>
                    <g id="路径" transform="translate(7.824860, 0.071688)">
                        <mask id="mask-10" fill="white">
                            <use xlink:href="#path-9"></use>
                        </mask>
                        <use id="蒙版" fill="url(#linearGradient-8)" fill-rule="nonzero" xlink:href="#path-9"></use>
                    </g>
                    <path d="M116.646988,50.4497547 C117.894456,76.5504871 102.682787,97.8515125 84.2686598,98.7444813 C65.8545331,99.6188465 51.7786182,79.7502918 50.5311495,53.6495594 C49.9353436,41.3712391 54.4969827,31.157909 59.5240952,22.4886707 C65.1656325,12.7404285 70.0065556,5.26181524 79.7442586,4.79672735 C98.1583853,3.9037586 115.399519,24.3490223 116.646988,50.4497547 Z" id="路径" fill="#F7E8C9" fill-rule="nonzero"></path>
                    <path d="M89.7240078,70.9508289 C88.793061,73.0158191 86.9870243,82.9500965 89.3330101,84.2523426 C91.660377,85.5545887 98.1770043,83.0617176 99.107951,80.0851551 C100.038898,77.1085926 92.0699936,65.7418445 89.7240078,70.9508289 Z" id="路径" fill="#F7E8C9" fill-rule="nonzero"></path>
                    <path d="M90.9900954,86.4661609 C90.0963865,86.4661609 89.1840587,86.3173328 88.4206823,85.889452 C86.6332646,84.9034656 86.0188397,82.2989734 86.4470752,77.7225086 C86.7077403,74.8575672 87.4152598,71.5461414 88.0296847,70.1880848 C88.9978693,68.067284 90.9156196,67.2487293 93.0381782,68.0486805 C95.6634481,69.0532703 97.9163392,72.2344715 98.7541913,73.5553211 C99.8340895,75.248241 101.56565,78.4294422 100.87675,80.6432606 C100.020279,83.4151844 96.7247273,84.9964832 95.3469262,85.5359852 C94.6580256,85.8150379 92.8333699,86.4661609 90.9900954,86.4661609 Z M90.3384326,82.6710438 C90.8225249,82.8198719 92.2003261,82.7826648 93.969125,82.0757313 C95.8682563,81.3129871 97.0784871,80.2339832 97.3205333,79.5642566 C97.395009,78.8015125 96.1847782,75.82495 93.969125,73.3506824 C92.7216563,71.9368152 91.8651853,71.5275379 91.5672823,71.4717273 C91.5300445,71.5089344 91.4928066,71.601952 91.4369498,71.7135731 C91.1204279,72.4019031 90.5432409,74.7831531 90.226719,77.4620594 C89.8357214,80.7548816 90.1522433,82.2617664 90.3384326,82.6710438 L90.3384326,82.6710438 Z" id="形状" fill="#603434" fill-rule="nonzero"></path>
                    <path d="M106.220384,54.3937 C103.799923,53.2774891 98.1025285,53.7611805 97.2646765,56.1052234 C96.4268244,58.4492664 104.097826,66.6720203 107.486472,63.1001453 C110.875118,59.5282703 108.56637,55.4727039 106.220384,54.3937 Z" id="路径" fill="#F7E8C9" fill-rule="nonzero"></path>
                    <path d="M105.41977,65.8534656 C104.19092,65.8534656 102.813119,65.4255848 101.39808,64.5512195 C98.270099,62.6536609 94.527693,58.2632313 95.5144966,55.4727039 C95.7937806,54.6727527 96.5199191,53.5565418 98.3631936,52.7751941 C100.913988,51.6961902 104.786726,51.6589832 107.020998,52.6821766 C108.975987,53.5751453 110.521358,55.6029285 110.949594,57.8539539 C111.396448,60.1607898 110.651691,62.4676258 108.864273,64.3651844 C107.914707,65.3511707 106.741714,65.8534656 105.41977,65.8534656 L105.41977,65.8534656 Z M99.0893321,56.6447254 C99.3686161,57.7795398 101.938029,61.0351551 104.470204,61.9467273 C105.624578,62.3560047 105.978338,61.9839344 106.12729,61.8351063 C107.095474,60.7933094 107.486472,59.7143055 107.263045,58.579491 C107.039617,57.388866 106.164527,56.4214832 105.438389,56.0866199 C104.768107,55.7703602 103.259974,55.547118 101.547032,55.7889637 C100.076136,55.9749988 99.3127593,56.4214832 99.0893321,56.6447254 Z" id="形状" fill="#603434" fill-rule="nonzero"></path>
                    <path d="M100.392658,28.3673816 C101.267747,27.4744129 106.778952,31.7532215 107.002379,36.7017566 C107.225807,41.6502918 95.8123995,41.7619129 95.4400208,40.5340809 C95.0490232,39.2876453 94.9186906,33.9484363 100.392658,28.3673816 L100.392658,28.3673816 Z" id="路径" fill="#F7E8C9" fill-rule="nonzero"></path>
                    <path d="M98.4749072,43.0455555 C98.0652907,43.0455555 97.6556741,43.026952 97.2832954,43.0083484 C95.8310185,42.8967273 94.1180764,42.5804676 93.6526031,41.0735828 C93.112654,39.2690418 93.0195593,33.2415027 99.0707132,27.0837391 C99.405854,26.7488758 100.336801,26.0419422 101.956648,26.6558582 C104.321253,27.548827 108.640846,31.6602039 108.864273,36.6273426 C109.013224,39.7527332 106.406574,41.9851551 101.733221,42.7851063 C100.653323,42.9525379 99.5175676,43.0455555 98.4749072,43.0455555 L98.4749072,43.0455555 Z M97.115725,39.2504383 C98.7355723,39.455077 102.552454,39.2318348 104.395729,37.9295887 C105.159105,37.3900867 105.140486,36.9808094 105.121867,36.7761707 C104.991535,33.7996082 102.366265,31.1765125 101.062939,30.3393543 C97.674293,34.153075 97.097106,37.6691395 97.115725,39.2504383 L97.115725,39.2504383 Z" id="形状" fill="#603434" fill-rule="nonzero"></path>
                    <path d="M85.348558,46.7662586 C87.93659,46.2081531 88.9420125,48.4591785 89.3143912,50.5613758 C89.6867699,52.6635731 87.5269734,55.7517566 85.4602717,55.621532 C83.3935699,55.4913074 81.2896302,52.6449695 81.6806278,50.7660145 C82.0716255,48.8870594 83.058429,47.2685535 85.348558,46.7662586 L85.348558,46.7662586 Z" id="路径" fill="#F7E8C9" fill-rule="nonzero"></path>
                    <path d="M85.5719853,57.4818836 L85.348558,57.4818836 C83.8404243,57.388866 82.3322906,56.4958973 81.1965355,55.0262195 C80.0607805,53.5565418 79.5766882,51.8264148 79.8559722,50.3939441 C80.6193485,46.6546375 83.0398101,45.3709949 84.9575604,44.9617176 C86.6705024,44.5896473 87.8807332,45.0919422 88.5882527,45.5756336 C89.8915782,46.4499988 90.7666681,48.0312977 91.1390468,50.2637195 C91.4369498,51.9566395 90.7294303,54.0402332 89.3516291,55.6029285 C88.234493,56.812157 86.9125486,57.4818836 85.5719853,57.4818836 Z M85.7395557,48.5707996 C84.8458468,48.7568348 83.8776622,49.2219227 83.5052835,51.1194813 C83.4494267,51.3799305 83.6169971,52.049657 84.1383273,52.7379871 C84.6596574,53.4077137 85.2368444,53.742577 85.5533663,53.7611805 C85.7023178,53.7611805 86.1119344,53.5937488 86.5587888,53.0914539 C87.2290705,52.3287098 87.5455924,51.361327 87.4711166,50.8776356 C87.2476894,49.5567859 86.8194539,48.8498523 86.502932,48.6452137 C86.4284563,48.5894031 86.2422669,48.4591785 85.7395557,48.5707996 L85.7395557,48.5707996 Z" id="形状" fill="#603434" fill-rule="nonzero"></path>
                    <path d="M145.171196,56.5703113 C143.216208,82.4478016 125.621315,101.590819 107.374758,100.214159 C89.1282019,98.8374988 77.6775568,77.5178699 79.632545,51.6589832 C80.5448728,39.492284 85.7395557,29.427782 91.7348528,21.5026844 C98.4935262,12.5916004 104.693632,6.93613165 114.375478,7.08495977 C117.056604,7.1221668 127.371494,10.0429188 131.46766,13.0566883 C142.713497,21.3352527 146.604854,37.6133289 145.171196,56.5703113 Z" id="路径" fill="url(#linearGradient-11)" fill-rule="nonzero"></path>
                    <path d="M152.991149,59.0445789 C151.147874,83.5640125 134.465309,101.721044 117.149699,100.418798 C99.8527084,99.1165516 88.9978693,78.9131336 90.8411439,54.3750965 C91.7162338,42.8409168 96.7805842,33.4461414 102.477978,25.9303211 C108.882892,17.484325 114.636143,11.4195789 123.796659,12.107909 C141.112268,13.4101551 154.853043,34.5065418 152.991149,59.0445789 Z" id="路径" fill="#F7E8C9" fill-rule="nonzero"></path>
                    <path d="M125.453744,75.0808094 C128.265203,70.485741 134.372214,82.0199207 133.143364,84.698827 C131.951752,87.3777332 125.565458,88.959032 123.535994,87.4707508 C121.50653,85.9824695 124.336608,76.9039539 125.453744,75.0808094 Z M112.718393,71.2670887 C112.718393,71.2670887 113.388674,80.1781727 110.130361,80.6618641 C106.872047,81.1455555 102.254551,79.7874988 102.235904,77.6480945 C102.217313,75.5086902 111.489543,64.8674793 112.718393,71.2670887 Z M75.7970444,68.5881824 C75.7970444,68.5881824 77.6589379,77.8899402 74.2889106,78.820116 C70.9188834,79.7502918 65.873152,78.9317371 65.575249,76.6621082 C65.2773461,74.4110828 73.6558668,62.0025379 75.7970444,68.5881824 Z M134.223263,62.076952 C135.265923,59.9933582 140.665414,60.1979969 142.787973,61.5188465 C144.854674,62.8024891 146.530379,66.839452 142.955543,69.7974109 C139.380708,72.7553699 133.180602,64.1605457 134.223263,62.076952 Z M112.029492,57.2958484 C112.271538,58.4120594 102.738643,67.0999012 101.528413,64.4395984 C100.318182,61.7792957 98.4376694,56.0308094 101.174653,55.2308582 C103.930255,54.430907 111.098545,52.9426258 112.029492,57.2958484 Z M73.2462503,53.9658191 C73.6372479,55.1192371 64.718778,65.4999988 63.1175496,62.8769031 C61.4977023,60.2352039 58.7607188,54.430907 61.5535591,53.203075 C64.3277804,51.9938465 71.7008787,49.5009754 73.2462503,53.9658191 Z M145.562194,45.0733387 C145.208434,49.7242176 134.521165,48.5149891 134.316357,47.3057606 C134.111549,46.1151356 134.595641,41.1107898 140.348892,36.534325 C141.26122,35.8087879 145.915954,40.4410633 145.562194,45.0733387 Z M104.004731,42.7292957 C101.658745,39.5108875 105.121867,32.9810535 107.281664,33.6135731 C115.231949,35.9390125 114.356859,48.7196277 111.936397,48.3847645 C109.497317,48.0499012 106.350717,45.9663074 104.004731,42.7292957 Z M62.8755035,39.6597156 C59.9895685,36.5529285 62.7824088,29.2231434 65.1470135,29.6138172 C73.8234373,31.0462879 74.5868136,44.6268543 71.9801627,44.5897236 C69.3735118,44.5524402 65.7614384,42.7665027 62.8755035,39.6597156 Z M119.92392,31.771825 C118.471643,27.8464832 121.227246,21.3910633 126.142645,22.7119129 C126.142645,22.7119129 132.007609,24.7955066 131.393184,28.4231922 C130.77876,32.0508777 127.185305,38.1900379 125.230317,37.9481922 C123.293948,37.7063465 121.376197,35.6971668 119.92392,31.771825 Z M78.2361249,26.0233387 C76.188042,22.0793934 78.2547438,14.9170398 83.5983781,15.6611805 C83.5983781,15.6611805 90.0963865,17.0936512 89.8915782,21.0003895 C89.7053888,24.9071277 86.7263592,31.8462391 84.6410385,31.8462391 C82.5557178,31.8462391 80.2842077,29.9858875 78.2361249,26.0233387 Z M124.169038,51.975243 C126.645356,51.7520008 127.334257,53.9844227 127.427351,55.9749988 C127.520446,57.9841785 125.155841,60.6072742 123.238091,60.2538074 C121.320341,59.9003406 119.681874,56.9981922 120.27768,55.2680652 C120.873486,53.5379383 121.990622,52.1798816 124.169038,51.975243 L124.169038,51.975243 Z" id="形状结合" fill="url(#linearGradient-12)" fill-rule="nonzero"></path>
                </g>
                <g id="编组" transform="translate(102.183838, 0.000000)">
                    <path d="M62.8653938,227.700417 C87.0948346,227.700417 102.585789,180.472292 102.585789,122.528542 C102.585789,64.5847917 79.1507556,21.3254167 62.8653938,21.3254167 C46.580032,21.3254167 23.1449991,64.5847917 23.1449991,122.528542 C23.1449991,180.472292 38.635953,227.700417 62.8653938,227.700417 Z" id="路径" fill="#FFDD67" fill-rule="nonzero"></path>
                    <path d="M38.2387491,207.459792 C39.8275649,207.856667 41.4163806,207.856667 43.0051964,207.856667 C67.2346372,207.856667 82.7255912,160.628542 82.7255912,102.684792 C82.7255912,68.5535417 74.7815122,39.5816667 64.4542096,21.3254167 C80.3423675,24.1035417 102.585789,66.1722917 102.585789,122.528542 C102.585789,180.472292 87.0948346,227.700417 62.8653938,227.700417 C53.3324991,227.700417 44.9912162,220.159792 38.2387491,207.459792 Z" id="路径" fill="url(#linearGradient-13)" fill-rule="nonzero"></path>
                    <path d="M54.0817256,14.5938919 C54.7646986,14.5874579 55.3235572,15.1472644 55.3299712,15.8443674 C55.3897724,22.3438172 54.782897,26.9842078 53.4529995,29.8314494 C53.2494705,30.2671945 53.0026885,30.7320262 52.6560245,31.3395124 L51.1677134,33.8773915 C51.0468619,34.0854951 50.9349899,34.2802027 50.8249889,34.4740263 C49.1000516,37.513395 48.1646569,39.8478663 47.9839978,42.062903 C47.8437507,43.7824531 48.1989489,45.3139142 49.1289878,46.7114697 C49.512755,47.2881509 49.3658432,48.0731845 48.8008511,48.4648914 C48.235859,48.8565983 47.4667377,48.706647 47.0829705,48.1299659 C45.8222708,46.2355313 45.333593,44.1285638 45.5191508,41.8534649 C45.7376868,39.1740249 46.7907347,36.5459257 48.6847691,33.2086051 L49.2326381,32.2600004 L50.1518911,30.7018952 C50.6736031,29.8125189 50.9916292,29.2347538 51.2203704,28.7450307 C52.3490313,26.3286263 52.9132587,22.0143377 52.8567072,15.8680751 C52.8502931,15.1709721 53.3987526,14.6005513 54.0817256,14.5938919 Z M75.3809083,17.8716163 C76.0191864,18.1197389 76.339547,18.8490136 76.0964538,19.5004971 C74.7534811,23.099628 75.4023418,26.2671277 77.8934773,31.3844436 L79.3388014,34.2843491 L79.4481464,34.5099703 C79.9145332,35.4777918 80.2588392,36.2702643 80.5265252,37.0200906 C81.8170072,40.6349136 81.8170072,44.2649284 80.5255028,47.8557259 C80.2901242,48.510154 79.5795468,48.8459131 78.9383836,48.6056648 C78.2972204,48.3654165 77.968267,47.6401379 78.2036456,46.9857098 C79.2934695,43.9556488 79.2934695,40.9400155 78.2026233,37.8844006 C77.9701638,37.2332488 77.6592291,36.5175854 77.2287178,35.6242107 L75.9631071,33.0853565 C72.9546131,27.0516722 72.0727378,23.1909015 73.7850443,18.6019657 C74.0281375,17.9504823 74.7426302,17.6234937 75.3809083,17.8716163 Z M63.8614844,0.920842548 C67.0809375,12.604107 65.9954001,22.1037769 60.5365125,29.3019214 L60.1661068,29.7783867 C59.8864995,30.129339 59.6190849,30.474525 59.3637835,30.813987 C59.9126748,35.7163697 61.3643463,40.0304224 63.7119091,43.7656504 C64.0806941,44.3524275 63.9136184,45.1332488 63.338735,45.5096636 C62.7638516,45.8860784 61.9988572,45.715546 61.6300722,45.1287689 C59.5225072,41.7754036 58.0843398,38.0124641 57.3114352,33.8502245 C54.7407107,38.1920424 54.5930937,41.3928186 56.6363267,43.5751154 C57.1082083,44.0791136 57.0904542,44.8781348 56.5966719,45.3597791 C56.1028895,45.8414235 55.3200642,45.8233021 54.8481826,45.3193039 C51.4349697,41.6737854 52.2129351,36.5318816 56.8043736,30.0944745 C56.5015096,26.6349336 56.6107359,22.9296678 57.129435,18.9838446 C57.6741856,13.3214702 56.8307268,7.57224193 54.5904306,1.72214217 C54.3417828,1.07284639 54.655903,0.340748998 55.2920378,0.0869568739 C55.9281727,-0.16683525 56.6454308,0.153783809 56.8940786,0.803079587 C59.2729399,7.01501522 60.1747793,13.1621804 59.5859171,19.2749679 C59.2297977,21.9855706 59.0747302,24.5642382 59.1200573,27.0119528 C63.5821309,20.5931692 64.3889154,12.1589115 61.4804969,1.60437921 C61.2955695,0.933284885 61.6786583,0.236240554 62.3361498,0.0474871173 C62.9936414,-0.141266319 63.6765569,0.249748226 63.8614844,0.920842548 Z M70.9055999,13.4999425 C71.2177461,14.0538943 71.0724153,14.7484577 70.5899874,15.1280875 L70.4501488,15.2234723 C68.7588177,16.2163634 68.7059636,19.1647989 70.7668753,24.3358954 L70.9729329,24.8432717 C73.5280911,31.0222768 74.7062065,37.5734514 74.5068871,44.4843523 C74.4867896,45.1811842 73.9170536,45.7294487 73.2343463,45.7089354 C72.5516389,45.688422 72.0144875,45.1068988 72.034585,44.410067 C72.2136001,38.2031656 71.2238061,32.320123 69.0648694,26.7503591 L68.6942212,25.8249641 C65.991737,19.289688 65.991737,14.9284531 69.2170053,13.0350686 C69.8090672,12.6875004 70.5650767,12.8956315 70.9055999,13.4999425 Z" id="形状结合" fill="url(#linearGradient-14)" fill-rule="nonzero"></path>
                    <g id="编组-3" transform="translate(62.800651, 91.713698) rotate(-2.000000) translate(-62.800651, -91.713698) translate(15.773202, 71.121127)">
                        <path d="M36.6879043,30.8078013 C36.6879043,29.6715307 37.6558917,28.7504013 38.8499648,28.7504013 C40.0440378,28.7504013 41.0120253,29.6715307 41.0120253,30.8078013 C41.0120253,34.2166133 43.9159877,36.9800013 47.4982069,36.9800013 C51.0804261,36.9800013 53.9843885,34.2166133 53.9843885,30.8078013 C53.9843885,29.6715307 54.9523759,28.7504013 56.146449,28.7504013 C57.340522,28.7504013 58.3085095,29.6715307 58.3085095,30.8078013 C58.3021258,36.4866364 53.465926,41.0887266 47.4982069,41.0948013 C41.5304878,41.0887266 36.6942879,36.4866364 36.6879043,30.8078013 Z" id="路径" fill="#000000" fill-rule="nonzero"></path>
                        <ellipse id="椭圆形备份-13" fill="#FF9FB5" cx="13.1787682" cy="25.7198623" rx="13.1077303" ry="6.5484375"></ellipse>
                        <ellipse id="椭圆形备份-14" fill="#FF9FB5" cx="80.9269464" cy="28.0837215" rx="13.1077303" ry="6.5484375"></ellipse>
                        <ellipse id="椭圆形备份-15" fill="#FFFFFF" transform="translate(8.268352, 25.534448) rotate(43.000000) translate(-8.268352, -25.534448) " cx="8.2683519" cy="25.5344476" rx="1.32299554" ry="3.97262877"></ellipse>
                        <ellipse id="椭圆形备份-17" fill="#FFFFFF" transform="translate(76.016530, 27.898307) rotate(43.000000) translate(-76.016530, -27.898307) " cx="76.0165301" cy="27.8983069" rx="1.32299554" ry="3.97262877"></ellipse>
                        <ellipse id="椭圆形备份-16" fill="#FFFFFF" transform="translate(16.132990, 25.534448) rotate(43.000000) translate(-16.132990, -25.534448) " cx="16.1329901" cy="25.5344476" rx="1.32299554" ry="3.97262877"></ellipse>
                        <ellipse id="椭圆形备份-18" fill="#FFFFFF" transform="translate(83.881168, 27.898307) rotate(43.000000) translate(-83.881168, -27.898307) " cx="83.8811682" cy="27.8983069" rx="1.32299554" ry="3.97262877"></ellipse>
                        <path d="M23.8406128,6.65295335 C23.948765,10.0592056 26.8006986,12.7143687 30.2105848,12.5834263 C33.620471,12.4524838 36.2970553,9.58502098 36.1889032,6.17876877 C36.080751,2.77251655 33.2288173,0.117353374 29.8189311,0.248295831 C26.4090449,0.379238288 23.7324606,3.24670113 23.8406128,6.65295335 Z" id="路径" fill="#000000" fill-rule="nonzero" transform="translate(30.014758, 6.415861) rotate(2.000000) translate(-30.014758, -6.415861) "></path>
                        <path d="M61.9496281,7.9611497 C62.0265849,10.1649073 63.2743602,12.1601733 65.2229291,13.1953503 C67.1714981,14.2305273 69.5248266,14.1483471 71.3964387,12.9797664 C73.2680508,11.8111857 74.373604,9.73373959 74.296647,7.52998197 C74.177682,4.12326794 71.3172675,1.45810075 67.9077324,1.57716444 C64.4981973,1.69622812 61.8306631,4.55443567 61.9496281,7.9611497 L61.9496281,7.9611497 Z" id="路径" fill="#000000" fill-rule="nonzero" transform="translate(68.123108, 7.745532) rotate(2.000000) translate(-68.123108, -7.745532) "></path>
                    </g>
                    <path d="M125.623617,110.225417 C107.352236,110.225417 58.8933543,138.403542 44.9912162,186.028542 C35.8555254,217.778542 41.8135846,234.447292 62.8653938,235.637917 C77.5619399,235.637917 102.982992,221.350417 106.955032,191.187917 C111.324275,161.025417 97.0249333,125.703542 125.623617,110.225417 Z" id="路径" fill="#B2D56D" fill-rule="nonzero"></path>
                    <path d="M44.9912162,186.028542 C47.7716438,187.219167 50.9492754,188.012917 54.9213149,188.012917 C69.6178609,188.012917 94.6417096,164.452225 101.499249,132.450417 C105.605435,114.239129 123.240394,110.225417 125.623617,110.225417 C97.0249333,125.703542 111.324275,161.025417 107.352236,191.187917 C102.982992,221.350417 77.5619399,235.637917 62.8653938,235.637917 C41.8135846,234.447292 35.8555254,217.778542 44.9912162,186.028542 Z" id="路径" fill="url(#linearGradient-15)" fill-rule="nonzero"></path>
                    <path d="M0.107170122,110.225417 C18.3785517,110.225417 66.8374333,138.403542 80.7395714,186.028542 C89.8752622,217.778542 83.917203,234.447292 62.8653938,235.637917 C48.1688478,235.637917 22.7477951,221.350417 18.7757556,191.187917 C14.4065122,161.025417 28.7058543,125.703542 0.107170122,110.225417 Z" id="路径" fill="#B2D56D" fill-rule="nonzero"></path>
                    <path d="M34.7002311,174.938058 C28.3813825,184.482563 26.3981233,194.787433 28.7504533,205.852669" id="路径-16" stroke-opacity="0.2" stroke="#FFFFFF" stroke-width="50.88" stroke-linecap="round" transform="translate(31.246735, 190.395364) rotate(-25.000000) translate(-31.246735, -190.395364) "></path>
                    <line x1="44.2417998" y1="214.424973" x2="41.5069602" y2="211.635218" id="路径-15" stroke-opacity="0.2" stroke="#FFFFFF" stroke-width="50.88" stroke-linecap="round"></line>
                    <path d="M30.2946701,121.734792 C50.1548675,134.037917 72.0010846,156.262917 80.7395714,186.028542 C89.8752622,217.778542 83.917203,234.447292 62.8653938,235.637917 C54.126907,235.637917 41.4163806,230.478542 31.8834859,219.762917 C37.4443412,222.541042 42.6079925,223.731667 46.9772359,223.731667 C68.0290451,222.541042 73.9871043,205.872292 64.8514135,174.122292 C58.4961504,152.294167 44.9912162,134.434792 30.2946701,121.734792 Z" id="路径" fill="url(#linearGradient-16)" fill-rule="nonzero"></path>
                </g>
            </g>
        </g>
    </g>
</svg>