<?xml version="1.0" encoding="UTF-8"?>
<svg width="263px" height="237px" viewBox="0 0 263 237" version="1.1" xmlns="http://www.w3.org/2000/svg" xmlns:xlink="http://www.w3.org/1999/xlink">
    <!-- Generator: Sketch 61.2 (89653) - https://sketch.com -->
    <title>茄子+洋葱+红萝卜</title>
    <desc>Created with Sketch.</desc>
    <defs>
        <linearGradient x1="50%" y1="0%" x2="50%" y2="100%" id="linearGradient-1">
            <stop stop-color="#679933" offset="0%"></stop>
            <stop stop-color="#A0C962" offset="100%"></stop>
        </linearGradient>
        <linearGradient x1="100.513182%" y1="30.4952869%" x2="18.548774%" y2="87.9003709%" id="linearGradient-2">
            <stop stop-color="#AE44B4" offset="0%"></stop>
            <stop stop-color="#C15DC5" offset="23.8392692%"></stop>
            <stop stop-color="#B565B0" offset="92.5272923%"></stop>
            <stop stop-color="#8B3585" offset="100%"></stop>
        </linearGradient>
        <linearGradient x1="67.6254898%" y1="12.7282933%" x2="36.1099486%" y2="50%" id="linearGradient-3">
            <stop stop-color="#F686A2" offset="0%"></stop>
            <stop stop-color="#EA4E7F" offset="100%"></stop>
        </linearGradient>
        <path d="M56.5740054,95.4667846 C40.8174429,97.0029598 22.0818213,90.4788862 7.35463794,101.255202 C16.7099329,73.9459135 -0.204744599,73.8686188 0.0019741511,46.7218797 C0.208692901,19.5522126 15.2072867,5.19929137 33.5363492,0.934685391 C59.9274429,-5.25587167 96.9760367,20.2400522 97.9407242,49.7483742 C98.8824429,78.7293525 83.4704117,92.8529938 56.5740054,95.4667846 Z" id="path-4"></path>
        <path d="M27.7846621,101.306822 C19.145835,87.5781863 -0.204744599,73.8686188 0.00197415111,46.7218797 C0.208692901,19.5522126 15.2072867,5.19929137 33.5363492,0.934685391 C14.0450258,7.26780024 12.5596683,32.6941623 14.5341483,44.5242099 C21.1341753,80.8387284 42.5118455,90.5305068 27.7846621,101.306822 Z" id="path-6"></path>
        <linearGradient x1="83.2177558%" y1="18.1405828%" x2="7.690893%" y2="87.1427715%" id="linearGradient-8">
            <stop stop-color="#DE85FF" offset="0%"></stop>
            <stop stop-color="#8E2FD5" offset="100%"></stop>
        </linearGradient>
        <path d="M163.840897,34.9476414 C163.328038,53.9437607 153.401829,78.524015 143.026606,97.1591294 C135.42937,110.756309 113.977985,139.917515 88.6492415,152.620261 C63.3204985,165.323007 30.4880618,161.817758 10.6539746,136.371524 C-2.26411183,119.798206 -4.20266186,92.8613557 9.09504526,76.8299136 C27.9609384,54.0825699 55.2917964,71.1590493 81.7866607,45.5732563 C87.6005488,39.9588498 95.0417052,27.914755 105.598058,17.5585522 C122.982357,0.504599005 133.789034,-0.205310092 138.160549,0.0306540446 C141.083032,0.187963528 144.39423,0.369474308 147.900804,2.2894558 C157.028477,7.30318905 164.302878,18.9121658 163.840897,34.9476414 Z" id="path-9"></path>
        <linearGradient x1="5.7849643%" y1="81.6298202%" x2="89.2200347%" y2="13.4184757%" id="linearGradient-11">
            <stop stop-color="#4B23DC" stop-opacity="0.3" offset="0%"></stop>
            <stop stop-color="#9B66FF" stop-opacity="0.3" offset="100%"></stop>
        </linearGradient>
        <path d="M67.8341473,50.5317125 C67.1425151,50.7530694 56.0788784,42.1387063 54.1177866,28.4431381 C50.5500315,34.7096047 46.392753,37.7172371 42.0495105,35.8774642 C38.9201706,34.5518935 35.9083612,27.5810758 38.7890176,22.4141251 C33.8163811,29.7318199 27.6917896,32.8403534 24.6066764,27.2996514 C22.8003159,24.0555224 23.720517,21.3475743 24.5006994,16.5881633 C11.959807,24.0847706 0.781006829,18.7324267 0.208188746,17.558626 C-1.38707903,14.2840227 18.5022622,-0.199712339 36.6723005,0.649035786 C39.439895,0.777451672 46.4785695,2.65837995 50.1000461,4.66699638 C76.7737336,19.4612951 71.6057135,49.3278142 67.8341473,50.5317125 Z" id="path-12"></path>
    </defs>
    <g id="蔬菜水果" stroke="none" stroke-width="1" fill="none" fill-rule="evenodd">
        <g id="茄子" transform="translate(-4.000000, 1.000000)">
            <ellipse id="椭圆形" fill-opacity="0.1" fill="#000000" fill-rule="evenodd" cx="145" cy="208" rx="107" ry="28"></ellipse>
            <path d="M229.696618,86.4674566 C237.03218,78.3877066 240.930305,62.0155816 242.489555,53.6523316 C242.649993,52.9306399 243.266963,52.4010794 244.004635,52.3519013 C244.742307,52.3027231 245.424113,52.7456985 245.67893,53.4397066 C251.171743,68.2171441 243.97793,82.4630191 242.84393,84.5538316 C242.74778,84.7255091 242.577778,84.8432026 242.383243,84.8727691 L230.334493,87.6014566 C230.039097,87.6773879 229.729554,87.5452717 229.580025,87.2794425 C229.430496,87.0136133 229.478332,86.6804712 229.696618,86.4674566 L229.696618,86.4674566 Z M231.36218,97.2050191 C241.245723,96.1665632 251.145654,99.01327 258.967993,105.143019 C259.233726,105.382712 259.636453,105.386705 259.906887,105.15233 C260.177321,104.917954 260.230608,104.518747 260.031118,104.221644 C255.522062,96.6629465 248.477334,90.949308 240.15068,88.0975816 C239.942357,87.9773059 239.685691,87.9773059 239.477368,88.0975816 L230.759743,95.6812066 C230.338954,95.8475651 230.132697,96.3235424 230.299055,96.7443316 C230.465414,97.1651208 230.941391,97.3713776 231.36218,97.2050191 L231.36218,97.2050191 Z" id="形状" fill="url(#linearGradient-1)" fill-rule="nonzero" transform="translate(244.822509, 78.836835) rotate(-16.000000) translate(-244.822509, -78.836835) "></path>
            <path d="M226.751391,89.830065 C229.515516,87.5975025 245.639579,75.655065 262.649579,82.9906275 C263.29097,83.2600327 263.676301,83.9217388 263.594064,84.612535 C263.511826,85.3033312 262.981917,85.85608 262.295204,85.9673775 C255.207704,87.420315 241.032704,91.2830025 231.783516,100.142378 C231.625337,100.301889 231.398026,100.372006 231.177476,100.329319 C230.956926,100.286632 230.772193,100.136764 230.684954,99.9297525 L226.538766,90.538815 C226.470902,90.2813814 226.553027,90.00763 226.751391,89.830065 L226.751391,89.830065 Z" id="路径" fill="#95D13C" fill-rule="nonzero" transform="translate(245.060195, 90.488705) rotate(-16.000000) translate(-245.060195, -90.488705) "></path>
            <path d="M262.852573,82.966131 C261.892184,82.5585668 260.91029,82.2036651 259.911261,81.903006 C252.398511,83.5685685 239.605573,87.4666935 230.994261,95.865381 C230.836082,96.0248921 230.60877,96.0950093 230.388221,96.0523223 C230.167671,96.0096352 229.982937,95.8597674 229.895698,95.652756 L227.237886,89.628381 L226.989823,89.841006 C226.731084,90.0414122 226.643208,90.3929175 226.777198,90.691506 L230.923386,100.082443 C231.010625,100.289455 231.195358,100.439323 231.415908,100.48201 C231.636458,100.524697 231.863769,100.45458 232.021948,100.295068 C241.129386,91.329381 255.304386,87.3958185 262.391886,85.942881 C263.093438,85.8665901 263.656294,85.3286289 263.764223,84.6312431 C263.872152,83.9338574 263.498244,83.2509206 262.852573,82.966131 L262.852573,82.966131 Z" id="路径" fill="#679933" fill-rule="nonzero" transform="translate(245.248843, 91.198647) rotate(-16.000000) translate(-245.248843, -91.198647) "></path>
            <path d="M189.239227,193.018316 C189.934018,193.713108 189.934018,194.839587 189.239227,195.534379 L188.814462,195.958223 L185.057602,209.922004 C184.850272,210.692053 184.154061,211.228715 183.356602,211.233191 L182.895914,211.233191 C181.959953,210.974269 181.406803,210.010206 181.655602,209.071504 L183.832462,200.940223 L178.607977,206.165629 C178.266353,206.495218 177.806766,206.673946 177.332227,206.661754 C176.623344,206.651796 175.988635,206.220248 175.718701,205.564695 C175.448767,204.909141 175.595577,204.155792 176.091914,203.649566 L181.255462,198.485223 L173.221477,200.637379 L172.760789,200.637379 C171.78221,200.764594 170.885786,200.074427 170.758571,199.095848 C170.631355,198.117268 171.321522,197.220844 172.300102,197.093629 L186.432462,193.308223 L186.723164,193.018316 C187.417956,192.323525 188.544435,192.323525 189.239227,193.018316 Z" id="形状结合" fill="#B1AA1D" fill-rule="nonzero" transform="translate(180.251891, 201.865207) rotate(-16.000000) translate(-180.251891, -201.865207) "></path>
            <path d="M249.31592,118.385785 C249.523929,117.985972 249.523929,117.509849 249.31592,117.110035 L242.689107,102.935035 C242.554556,102.711128 242.312457,102.574163 242.051232,102.574163 C241.790007,102.574163 241.547909,102.711128 241.413357,102.935035 C228.62042,119.44891 215.29592,113.566285 215.29592,113.566285 C207.682673,111.007557 194.223929,109.719669 186.354616,111.326696 C167.243308,115.229363 157.965683,131.531562 155.25479,150.847979 C152.543898,170.164396 162.291871,189.094461 179.590646,198.106968 C196.889421,207.119475 218.67767,207.018089 233.996795,195.805797 C249.31592,184.593504 253.696842,157.526142 244.481746,137.642581 C242.674434,131.228393 247.685795,121.220785 249.31592,118.385785 Z" id="路径" fill="url(#linearGradient-2)" fill-rule="nonzero" transform="translate(202.138896, 153.570827) rotate(-16.000000) translate(-202.138896, -153.570827) "></path>
            <path d="M193.907296,132.323957 C165.096609,131.898707 148.866234,168.824582 172.113234,190.618645 C195.360234,212.412707 231.116671,193.311895 230.266171,164.855582 C229.982671,155.53552 228.706921,149.58202 229.557421,143.06152 C230.217603,136.949295 231.487871,130.91849 233.349234,125.05927 C233.349234,125.05927 222.717984,132.749207 193.907296,132.323957 Z" id="路径" fill="#C974CE" fill-rule="nonzero" transform="translate(197.189118, 162.551368) rotate(-16.000000) translate(-197.189118, -162.551368) "></path>
            <path d="M219.874768,144.420358 C219.874768,144.420358 212.04308,149.984046 191.312143,149.700546 C170.581205,149.417046 158.532455,175.995171 175.507018,191.906608 C182.302484,198.669169 192.490524,200.69741 201.357815,197.052999 C210.225106,193.408589 216.042387,184.802245 216.118393,175.215546 C215.730846,164.816289 216.998791,154.421532 219.874768,144.420358 L219.874768,144.420358 Z" id="路径" fill="#D185D2" fill-rule="nonzero" transform="translate(193.663923, 171.630895) rotate(-16.000000) translate(-193.663923, -171.630895) "></path>
            <path d="M203.230866,165.576789 C203.230866,165.576789 198.588553,168.872477 186.220866,168.695289 C180.287795,168.792595 175.019778,172.513734 172.944841,178.073 C170.869904,183.632266 172.411533,189.895033 176.829928,193.855914 C180.873659,197.876133 186.932641,199.081998 192.207486,196.916373 C197.48233,194.750747 200.94604,189.635273 200.998303,183.933414 C200.763496,177.734828 201.517117,171.538389 203.230866,165.576789 L203.230866,165.576789 Z" id="路径" fill="#E6B5E7" fill-rule="nonzero" transform="translate(187.632292, 181.777844) rotate(-16.000000) translate(-187.632292, -181.777844) "></path>
            <path d="M46.0006136,145.19625 C46.0006136,145.19625 65.9218393,128.455382 63.2955753,122.941025 C60.6693112,117.426668 58.0864952,115.176288 58.0864952,115.176288 C58.0864952,115.176288 67.6572747,101.245562 62.4471786,95.373305 C57.2370825,89.5010484 51.2877609,95.0190971 51.2877609,95.0190971 C51.2877609,95.0190971 49.9083954,76.0511 35.3004337,78.1643154 C20.692472,80.2775308 21.4582091,93.9155366 25.9787146,99.8966762 C23.5070051,100.392789 14.6542696,102.532866 14.0332275,109.953412 C13.4629324,116.736572 20.4213424,120.610797 20.5155634,121.243208 C20.6097843,121.87562 15.6711925,123.258207 17.5798526,129.756886 C19.0502605,134.763388 29.6600774,144.819938 29.6600774,144.819938 L45.2413525,148 L46.0006136,145.19625 Z" id="路径" fill="#75A245" fill-rule="nonzero" transform="translate(39.000000, 113.000000) rotate(-73.000000) translate(-39.000000, -113.000000) "></path>
            <path d="M62.0006136,135.19625 C62.0006136,135.19625 81.9218393,118.455382 79.2955753,112.941025 C76.6693112,107.426668 74.0864952,105.176288 74.0864952,105.176288 C74.0864952,105.176288 83.6572747,91.2455616 78.4471786,85.373305 C73.2370825,79.5010484 67.2877609,85.0190971 67.2877609,85.0190971 C67.2877609,85.0190971 65.9083954,66.0511 51.3004337,68.1643154 C36.692472,70.2775308 37.4582091,83.9155366 41.9787146,89.8966762 C39.5070051,90.3927893 30.6542696,92.5328664 30.0332275,99.9534119 C29.4629324,106.736572 36.4213424,110.610797 36.5155634,111.243208 C36.6097843,111.87562 31.6711925,113.258207 33.5798526,119.756886 C35.0502605,124.763388 45.6600774,134.819938 45.6600774,134.819938 L61.2413525,138 L62.0006136,135.19625 Z" id="路径备份" fill="#75A245" fill-rule="nonzero" transform="translate(55.000000, 103.000000) rotate(19.000000) translate(-55.000000, -103.000000) "></path>
            <path d="M17.1565867,123.446265 C17.1565867,123.446265 29.3003275,125.336221 34.1274373,122.132902 C38.954547,118.929582 38.8068312,117.094022 38.8068312,117.094022 C38.8068312,117.094022 44.2474323,122.437689 52.030678,116.934607 C59.8139236,111.431525 52.5598745,102.500961 52.5598745,102.500961 C52.5598745,102.500961 69.2110302,102.225965 67.9296655,88.9193549 C66.9079486,78.3091134 57.3204313,76.7854839 50.021447,79.1452948 C50.021447,79.1452948 45.3298552,66.9401693 34.336126,70.7296201 C23.3423968,74.5190708 24.5822646,83.5170899 24.5822646,83.5170899 C24.5822646,83.5170899 21.1254742,77.4592237 14.6401647,81.4346652 C8.15485515,85.4101068 10.2804971,97.6444724 10.5321879,99.8078747 C10.7838788,101.971277 11.5867142,113.376694 11.5867142,113.376694 L17.1565867,123.446265 Z" id="路径" fill="#95D13C" fill-rule="nonzero" transform="translate(39.000000, 97.000000) scale(-1, 1) rotate(-15.000000) translate(-39.000000, -97.000000) "></path>
            <g id="路径-97" stroke-width="1" fill-rule="evenodd" transform="translate(21.000000, 88.000000)">
                <g id="蒙版" transform="translate(64.294199, 63.000000) rotate(-72.000000) translate(-64.294199, -63.000000) translate(15.294199, 12.000000)">
                    <mask id="mask-5" fill="white">
                        <use xlink:href="#path-4"></use>
                    </mask>
                    <use fill="url(#linearGradient-3)" fill-rule="nonzero" xlink:href="#path-4"></use>
                    <mask id="mask-7" fill="white">
                        <use xlink:href="#path-6"></use>
                    </mask>
                    <use fill="#E8466D" fill-rule="nonzero" xlink:href="#path-6"></use>
                    <path d="M53.5061708,0.725017681 C46.4875366,7.60526133 44.0871423,16.271928 46.304988,26.7250177" id="路径-16" stroke-opacity="0.2" stroke="#FFFFFF" stroke-width="6" stroke-linecap="round" transform="translate(49.506171, 13.725018) rotate(76.000000) translate(-49.506171, -13.725018) "></path>
                    <line x1="27.1957438" y1="18.8559399" x2="23.1856053" y2="23.32855" id="路径-15" stroke-opacity="0.2" stroke="#FFFFFF" stroke-width="6" stroke-linecap="round"></line>
                </g>
            </g>
            <path d="M128.431622,0.327690357 C125.813421,-0.656597652 123.744829,0.926949841 122.776942,3.38724794 C124.779369,13.9430893 120.034882,20.8024883 108.54348,23.9654449 L126.556726,37.039238 C124.391353,28.9085905 124.201253,23.5844874 125.986426,21.0669286 C129.653784,15.8950006 132.367605,8.96822412 132.331669,7.3940665 C133.318912,3.66168798 131.049824,1.31197837 128.431622,0.327690357 Z" id="路径" fill="#25467A" fill-rule="nonzero" transform="translate(120.555475, 18.535380) rotate(-46.000000) translate(-120.555475, -18.535380) "></path>
            <g id="路径" stroke-width="1" fill-rule="evenodd" transform="translate(134.714813, 125.856131) rotate(-46.000000) translate(-134.714813, -125.856131) translate(52.714813, 45.856131)">
                <mask id="mask-10" fill="white">
                    <use xlink:href="#path-9"></use>
                </mask>
                <use id="蒙版" fill="url(#linearGradient-8)" fill-rule="nonzero" xlink:href="#path-9"></use>
                <path d="M106.013402,15.5875747 C108.393478,19.717408 112.741684,21.3664968 119.05802,20.5348413 C120.110657,25.3404441 124.160202,33.3281143 133.68497,28.0289564 C138.547911,36.0627621 144.106681,37.972942 150.361281,33.7594964 C154.211068,36.0758377 155.244613,42.1337696 153.461915,51.9332922 C150.787867,66.632576 124.984592,111.360154 80.1289966,129.956676 C35.273401,148.553198 0.466546889,106.186572 0.68316868,96.4115124 C-1.64734076,121.541994 6.21780229,138.189386 21.3842464,149.473855 C36.5506904,160.758324 63.5356418,171.558771 91.103479,155.32229 C92.8146382,155.025703 103.506258,146.401597 123.178338,129.449971 L146.155662,104.895102 L159.926938,77.5172935 L165.437188,47.5755128 L162.261997,32.8918556 L149.860125,14.8646953 L131.229706,13.9481705 L119.444112,8.35036682 L106.013402,15.5875747 Z" id="路径-2" fill="url(#linearGradient-11)" mask="url(#mask-10)"></path>
            </g>
            <g id="路径-5" stroke-width="1" fill-rule="evenodd" transform="translate(130.272596, 48.382965) rotate(-46.000000) translate(-130.272596, -48.382965) translate(94.772596, 22.882965)">
                <mask id="mask-13" fill="white">
                    <use xlink:href="#path-12"></use>
                </mask>
                <use id="蒙版" fill="#95D13C" fill-rule="nonzero" xlink:href="#path-12"></use>
                <path d="M23.9395921,17.219171 C36.7752261,1.02377779 45.9986266,-4.97764822 51.6097936,-0.785106991 C58.9956252,6.2086309 58.1026121,20.8364257 48.9307545,43.0982773 L63.9138819,57.2962829 L75.3662357,48.5335096 L66.654907,9.85916524 C51.4004582,-1.31652864 43.7732338,-6.90437558 43.7732338,-6.90437558 C43.7732338,-6.90437558 38.1335359,-7.60291705 26.8541401,-9 C16.0821856,-6.69592101 10.6962083,-5.54388151 10.6962083,-5.54388151 C10.6962083,-5.54388151 -3.46049739,2.0775387 -3.52500603,4.13134557 C-3.56801178,5.50055014 -4.39300978,8.41764161 -6,12.88262 L1.8853282,21.0481163 L12.2618402,24.8041479 L23.9395921,17.219171 Z" fill="#679933" mask="url(#mask-13)"></path>
            </g>
            <g id="编组-3" stroke-width="1" fill-rule="evenodd" transform="translate(149.745597, 101.171393) rotate(-2.000000) translate(-149.745597, -101.171393) translate(97.245597, 84.671393)">
                <path d="M43.2329134,23.3679812 C43.2329134,22.4136331 44.045248,21.6399812 45.0473134,21.6399812 C46.0493789,21.6399812 46.8617134,22.4136331 46.8617134,23.3679812 C46.8617134,26.2310253 49.2987171,28.5519812 52.3049134,28.5519812 C55.3111098,28.5519812 57.7481134,26.2310253 57.7481134,23.3679812 C57.7481134,22.4136331 58.560448,21.6399812 59.5625134,21.6399812 C60.5645789,21.6399812 61.3769134,22.4136331 61.3769134,23.3679812 C61.3715562,28.1376065 57.31302,32.0028791 52.3049134,32.0079812 C47.2968069,32.0028791 43.2382706,28.1376065 43.2329134,23.3679812 Z" id="路径" fill="#000000" fill-rule="nonzero"></path>
                <ellipse id="椭圆形备份-13" fill="#FF9FB5" cx="11.798911" cy="19.8222491" rx="11" ry="5.5"></ellipse>
                <ellipse id="椭圆形备份-14" fill="#FF9FB5" cx="93.7489588" cy="22.6840078" rx="11" ry="5.5"></ellipse>
                <ellipse id="椭圆形备份-15" fill="#FFFFFF" transform="translate(7.678092, 19.666520) rotate(43.000000) translate(-7.678092, -19.666520) " cx="7.67809233" cy="19.6665203" rx="1.11073023" ry="3.33532041"></ellipse>
                <ellipse id="椭圆形备份-17" fill="#FFFFFF" transform="translate(89.628140, 22.528279) rotate(43.000000) translate(-89.628140, -22.528279) " cx="89.6281401" cy="22.528279" rx="1.11073023" ry="3.33532041"></ellipse>
                <ellipse id="椭圆形备份-16" fill="#FFFFFF" transform="translate(14.278092, 19.666520) rotate(43.000000) translate(-14.278092, -19.666520) " cx="14.2780923" cy="19.6665203" rx="1.11073023" ry="3.33532041"></ellipse>
                <ellipse id="椭圆形备份-18" fill="#FFFFFF" transform="translate(96.228140, 22.528279) rotate(43.000000) translate(-96.228140, -22.528279) " cx="96.2281401" cy="22.528279" rx="1.11073023" ry="3.33532041"></ellipse>
                <path d="M24.512801,6.07709954 C24.603645,8.93799353 26.9970529,11.1681188 29.8586273,11.0582237 C32.7202016,10.9483286 34.9663224,8.54002823 34.8754784,5.67913424 C34.7846344,2.81824025 32.3912265,0.588115005 29.5296521,0.698010087 C26.6680778,0.807905168 24.421957,3.21620555 24.512801,6.07709954 Z" id="路径" fill="#000000" fill-rule="nonzero" transform="translate(29.694140, 5.878117) rotate(2.000000) translate(-29.694140, -5.878117) "></path>
                <path d="M67.3005353,6.25643443 C67.3651709,8.10735947 68.4123527,9.78320202 70.0476174,10.6526884 C71.6828821,11.5221747 73.6577942,11.4532092 75.2284233,10.4717705 C76.7990523,9.49033179 77.7267825,7.74552374 77.6621467,5.89459871 C77.5622286,3.03331659 75.1617033,0.794788819 72.3004233,0.894706994 C69.4391433,0.99462517 67.2006172,3.39515231 67.3005353,6.25643443 L67.3005353,6.25643443 Z" id="路径" fill="#000000" fill-rule="nonzero" transform="translate(72.481316, 6.075488) rotate(2.000000) translate(-72.481316, -6.075488) "></path>
            </g>
        </g>
    </g>
</svg>