<?xml version="1.0" encoding="UTF-8"?>
<svg width="281px" height="231px" viewBox="0 0 281 231" version="1.1" xmlns="http://www.w3.org/2000/svg" xmlns:xlink="http://www.w3.org/1999/xlink">
    <!-- Generator: Sketch 61.2 (89653) - https://sketch.com -->
    <title>葡萄+木瓜</title>
    <desc>Created with Sketch.</desc>
    <defs>
        <linearGradient x1="50%" y1="0%" x2="50%" y2="100%" id="linearGradient-1">
            <stop stop-color="#83B73E" offset="0%"></stop>
            <stop stop-color="#5E8925" offset="100%"></stop>
        </linearGradient>
        <linearGradient x1="50%" y1="61.1699746%" x2="67.4990303%" y2="93.8634749%" id="linearGradient-2">
            <stop stop-color="#5E8925" offset="0%"></stop>
            <stop stop-color="#324912" offset="100%"></stop>
        </linearGradient>
        <radialGradient cx="43.2071472%" cy="50%" fx="43.2071472%" fy="50%" r="63.3789206%" gradientTransform="translate(0.432071,0.500000),scale(0.681727,1.000000),rotate(180.000000),scale(1.000000,0.705345),translate(-0.432071,-0.500000)" id="radialGradient-3">
            <stop stop-color="#FFCC00" offset="0%"></stop>
            <stop stop-color="#FF9D00" offset="100%"></stop>
        </radialGradient>
        <radialGradient cx="37.2476683%" cy="36.3835864%" fx="37.2476683%" fy="36.3835864%" r="122.013057%" gradientTransform="translate(0.372477,0.363836),scale(1.000000,0.999766),rotate(52.571802),translate(-0.372477,-0.363836)" id="radialGradient-4">
            <stop stop-color="#E36DB5" offset="0%"></stop>
            <stop stop-color="#AD2164" offset="100%"></stop>
        </radialGradient>
        <radialGradient cx="50%" cy="50%" fx="50%" fy="50%" r="66.6168647%" id="radialGradient-5">
            <stop stop-color="#BC1B71" offset="0%"></stop>
            <stop stop-color="#921B54" offset="100%"></stop>
        </radialGradient>
        <radialGradient cx="57.1736604%" cy="36.1566866%" fx="57.1736604%" fy="36.1566866%" r="45.8283726%" gradientTransform="translate(0.571737,0.361567),scale(0.999983,1.000000),rotate(85.761894),translate(-0.571737,-0.361567)" id="radialGradient-6">
            <stop stop-color="#D0248A" offset="0%"></stop>
            <stop stop-color="#A21051" offset="100%"></stop>
        </radialGradient>
        <radialGradient cx="57.2652659%" cy="24.9789532%" fx="57.2652659%" fy="24.9789532%" r="44.6286294%" gradientTransform="translate(0.572653,0.249790),scale(0.999974,1.000000),rotate(90.000000),translate(-0.572653,-0.249790)" id="radialGradient-7">
            <stop stop-color="#FF8CD9" offset="0%"></stop>
            <stop stop-color="#C82874" offset="100%"></stop>
        </radialGradient>
        <radialGradient cx="50%" cy="26.1368305%" fx="50%" fy="26.1368305%" r="55.5100732%" id="radialGradient-8">
            <stop stop-color="#F559C9" offset="0%"></stop>
            <stop stop-color="#AD2164" offset="100%"></stop>
        </radialGradient>
        <radialGradient cx="50%" cy="32.9589427%" fx="50%" fy="32.9589427%" r="48.9996836%" id="radialGradient-9">
            <stop stop-color="#E95DB3" offset="0%"></stop>
            <stop stop-color="#CF307C" offset="100%"></stop>
        </radialGradient>
        <linearGradient x1="50%" y1="0%" x2="50%" y2="100%" id="linearGradient-10">
            <stop stop-color="#754107" offset="0%"></stop>
            <stop stop-color="#633609" offset="100%"></stop>
        </linearGradient>
        <path d="M0.187540035,32.5838007 C0.187540035,32.5838007 30.328165,13.6697382 44.43754,2.2791132 C55.96879,-7.0255743 56.8359775,15.0291132 53.8359775,17.1384882 C47.81254,21.3572382 36.984415,24.0291132 42.18754,31.8103632 C45.6328525,36.9666132 56.859415,56.5134882 55.1953525,62.7478632 C53.53129,68.9822382 43.2422275,68.3728632 43.2422275,68.3728632 C43.2422275,68.3728632 33.9609775,29.9822382 26.2734775,33.8259882 C17.765665,38.0681757 10.21879,41.3963007 5.97660254,42.0056757 C1.71097754,42.5916132 0.187540035,32.5838007 0.187540035,32.5838007 Z" id="path-11"></path>
        <radialGradient cx="50%" cy="37.9301861%" fx="50%" fy="37.9301861%" r="57.8804729%" gradientTransform="translate(0.500000,0.379302),scale(0.999977,1.000000),rotate(76.850186),translate(-0.500000,-0.379302)" id="radialGradient-13">
            <stop stop-color="#FE8DD5" offset="0%"></stop>
            <stop stop-color="#E2378C" offset="100%"></stop>
        </radialGradient>
    </defs>
    <g id="蔬菜水果" stroke="none" stroke-width="1" fill="none" fill-rule="evenodd">
        <g id="葡萄/木瓜" transform="translate(0.000000, -1.000000)">
            <ellipse id="椭圆形" fill-opacity="0.1" fill="#000000" cx="146" cy="198" rx="96" ry="34"></ellipse>
            <g id="编组" stroke-width="1" transform="translate(-8.000000, 48.000000)">
                <g id="编组-10" transform="translate(60.218583, 80.957723) rotate(10.000000) translate(-60.218583, -80.957723) translate(12.218583, 7.457723)">
                    <path d="M75.4053332,30.7360834 C65.9306666,18.5454168 63.9953332,5.7914168 47.1453332,6.0420834 C31.2046666,6.7674166 29.8026666,16.57275 20.0133332,32.0454166 C7.6093332,46.1054166 -3.18323146e-12,66.27675 -3.18323146e-12,90.0320834 C-3.18323146e-12,129.90475 22.9586666,138.289417 47.9966666,146.84675 C74.7093332,138.728083 95.9926666,129.90475 95.9926666,90.0320834 C95.994,65.4694168 86.1286666,44.5354168 75.4053332,30.7360834 Z" id="路径" fill="url(#linearGradient-1)" fill-rule="nonzero"></path>
                    <path d="M75.4053332,30.7360834 C65.9306666,18.5454168 63.9953332,5.7914168 47.1453332,6.0420834 C70.549571,7.45259064 81.9617967,51.4237123 56.3332901,76.1290169 C30.7047835,100.834322 52.2278119,125.995598 8.04184299,117.144375 C11.4817208,128.16341 22.9586666,138.289417 47.9966666,146.84675 C74.7093332,138.728083 95.9926666,129.90475 95.9926666,90.0320834 C95.994,65.4694168 86.1286666,44.5354168 75.4053332,30.7360834 Z" id="路径" fill="url(#linearGradient-2)" fill-rule="nonzero"></path>
                    <ellipse id="椭圆形" fill="#608C27" transform="translate(51.684369, 4.863943) rotate(5.000000) translate(-51.684369, -4.863943) " cx="51.6843693" cy="4.86394293" rx="7" ry="4"></ellipse>
                    <path d="M12.5586666,97.5294166 C10.3622242,97.5294166 8.57690472,95.7577888 8.5593332,93.5614166 C8.4279998,77.14275 10.7813332,66.20875 17.2413332,53.2180834 C17.871271,51.9273823 19.1448276,51.0734756 20.5780583,50.9808432 C22.011289,50.8882109 23.3841698,51.5710734 24.1750135,52.7699467 C24.9658571,53.9688201 25.0532564,55.4996578 24.404,56.78075 C18.49,68.67275 16.4366666,78.28075 16.5586666,93.4974166 C16.5760414,95.7064348 14.79968,97.5114471 12.5906666,97.5294166 L12.5586666,97.5294166 L12.5586666,97.5294166 Z" id="路径" fill="#FFFFFF" fill-rule="nonzero" opacity="0.351841518"></path>
                    <path d="M21.452,44.4060834 C21.452,47.0415862 23.5884972,49.1780834 26.224,49.1780834 C28.8595028,49.1780834 30.996,47.0415862 30.996,44.4060834 C30.996,42.701212 30.086462,41.1258458 28.61,40.2734101 C27.1335381,39.4209743 25.3144619,39.4209743 23.838,40.2734101 C22.361538,41.1258458 21.452,42.701212 21.452,44.4060834 L21.452,44.4060834 Z" id="路径" fill="#FFFFFF" fill-rule="nonzero" opacity="0.351841518"></path>
                </g>
                <g id="编组-11" transform="translate(237.839303, 88.808489) rotate(50.000000) translate(-237.839303, -88.808489) translate(164.089303, 40.808489)" fill-rule="nonzero">
                    <path d="M56.8146668,-2.13162821e-14 C16.9426668,-2.13162821e-14 6.3806668,23.01 2.84217094e-14,47.996 C5.832,72.2386666 16.9426666,95.9933334 56.8146668,95.9933334 C80.5713334,95.9933334 100.742667,88.3833334 114.801333,75.9793334 C130.274667,66.1893334 140.08,64.788 140.805333,48.8466668 C141.056,31.9980002 128.301333,30.0620002 116.110667,20.5866668 C102.312,9.8640002 81.3780002,-2.13162821e-14 56.8146668,-2.13162821e-14 Z" id="路径" fill="url(#radialGradient-3)"></path>
                    <path d="M58.7633334,29.5193334 C31.8453334,29.5193334 20.408,37.69 20.408,48.982 C20.408,60.276 31.8453334,68.4466668 58.7633334,68.4466668 C74.8013334,68.4466668 88.418,65.3606668 97.9106668,60.33 C108.356667,56.3606666 114.976,55.792 115.466,49.326 C115.635333,42.494 107.024667,41.7093334 98.7946668,37.8673334 C89.4780002,33.52 75.3460002,29.5193334 58.7633334,29.5193334 L58.7633334,29.5193334 Z" id="路径" fill="#FFCE00"></path>
                    <path d="M62.7373334,58.2046668 C64.7354996,58.2046668 66.3553334,59.8245006 66.3553334,61.8226668 C66.3553334,63.820833 64.7354996,65.4406668 62.7373334,65.4406668 C60.7391672,65.4406668 59.1193334,63.820833 59.1193334,61.8226668 C59.1193334,59.8245006 60.7391672,58.2046668 62.7373334,58.2046668 Z M85.762,55.5733334 C87.7601662,55.5733334 89.38,57.1931672 89.38,59.1913334 C89.38,61.1894996 87.7601662,62.8093334 85.762,62.8093334 C83.7638338,62.8093334 82.144,61.1894996 82.144,59.1913334 C82.144,57.1931672 83.7638338,55.5733334 85.762,55.5733334 Z M77.8673334,52.942 C79.8654996,52.942 81.4853334,54.5618338 81.4853334,56.56 C81.4853334,58.5581662 79.8654996,60.178 77.8673334,60.178 C75.8691672,60.178 74.2493334,58.5581662 74.2493334,56.56 C74.2493334,54.5618338 75.8691672,52.942 77.8673334,52.942 Z M68.0000001,52.2833333 C69.9985345,52.2833333 71.6186668,53.9034656 71.6186668,55.902 C71.6186668,57.9005344 69.9985345,59.5206667 68.0000001,59.5206667 C66.0014657,59.5206667 64.3813334,57.9005344 64.3813334,55.902 C64.3813334,53.9034656 66.0014657,52.2833333 68.0000001,52.2833333 Z M56.816,51.626 C58.8141662,51.626 60.434,53.2458338 60.434,55.244 C60.434,57.2421662 58.8141662,58.862 56.816,58.862 C54.8178338,58.862 53.198,57.2421662 53.198,55.244 C53.198,53.2458338 54.8178338,51.626 56.816,51.626 Z M89.2163333,50.7947198 C90.3357465,50.1484263 91.7149203,50.1484263 92.8343335,50.7947198 C93.9537466,51.4410134 94.6433334,52.635413 94.6433334,53.928 C94.6433334,55.220587 93.9537466,56.4149866 92.8343335,57.0612802 C91.7149203,57.7075737 90.3357465,57.7075737 89.2163333,57.0612802 C88.0969202,56.4149866 87.4073334,55.220587 87.4073334,53.928 C87.4073334,52.635413 88.0969202,51.4410134 89.2163333,50.7947198 Z M103.524667,48.3366668 C105.522833,48.3366668 107.142667,49.9565006 107.142667,51.9546668 C107.142667,53.952833 105.522833,55.5726668 103.524667,55.5726668 C101.526501,55.5726668 99.9066668,53.952833 99.9066668,51.9546668 C99.9066668,49.9565006 101.526501,48.3366668 103.524667,48.3366668 Z M48.264,47.0213334 C50.2621662,47.0213334 51.882,48.6411672 51.882,50.6393334 C51.882,52.6374996 50.2621662,54.2573334 48.264,54.2573334 C46.2658338,54.2573334 44.646,52.6374996 44.646,50.6393334 C44.646,48.6411672 46.2658338,47.0213334 48.264,47.0213334 Z M77.8673334,45.0473334 C79.8654996,45.0473334 81.4853334,46.6671672 81.4853334,48.6653334 C81.4853334,50.6634996 79.8654996,52.2833334 77.8673334,52.2833334 C76.4076187,52.2833334 75.1498087,51.4188769 74.5779155,50.1739759 C74.0068581,51.4188769 72.7490481,52.2833334 71.2893334,52.2833334 C69.2911672,52.2833334 67.6713334,50.6634996 67.6713334,48.6653334 C67.6713334,46.6671672 69.2911672,45.0473334 71.2893334,45.0473334 C72.7490481,45.0473334 74.0068581,45.9117899 74.5787513,47.1566909 C75.1498087,45.9117899 76.4076187,45.0473334 77.8673334,45.0473334 Z M60.7633334,44.3893334 C62.7614996,44.3893334 64.3813334,46.0091672 64.3813334,48.0073334 C64.3813334,50.0054996 62.7614996,51.6253334 60.7633334,51.6253334 C58.7651672,51.6253334 57.1453334,50.0054996 57.1453334,48.0073334 C57.1453334,46.0091672 58.7651672,44.3893334 60.7633334,44.3893334 Z M38.396,44.3893334 C40.3941662,44.3893334 42.014,46.0091672 42.014,48.0073334 C42.014,49.2999204 41.3244132,50.49432 40.2050001,51.1406135 C39.0855869,51.786907 37.7064131,51.786907 36.5869999,51.1406135 C35.4675868,50.49432 34.778,49.2999204 34.778,48.0073334 C34.778,46.0091672 36.3978338,44.3893334 38.396,44.3893334 Z M109.445333,43.074 C111.4435,43.074 113.063333,44.6938338 113.063333,46.692 C113.063333,48.6901662 111.4435,50.31 109.445333,50.31 C107.447167,50.31 105.827333,48.6901662 105.827333,46.692 C105.827333,44.6938338 107.447167,43.074 109.445333,43.074 Z M85.1040001,41.0993333 C87.1025345,41.0993333 88.7226668,42.7194656 88.7226668,44.718 C88.7226668,46.7165344 87.1025345,48.3366667 85.1040001,48.3366667 C83.1054657,48.3366667 81.4853334,46.7165344 81.4853334,44.718 L81.4853334,44.718 C81.4853334,42.7194656 83.1054657,41.0993333 85.1040001,41.0993333 Z M94.314,40.442 C96.3121662,40.442 97.932,42.0618338 97.932,44.06 C97.932,46.0581662 96.3121662,47.678 94.314,47.678 C92.3158338,47.678 90.696,46.0581662 90.696,44.06 C90.696,42.0618338 92.3158338,40.442 94.314,40.442 Z M52.2113334,37.1533334 C54.2094996,37.1533334 55.8293334,38.7731672 55.8293334,40.7713334 C55.8293334,42.7694996 54.2094996,44.3893334 52.2113334,44.3893334 C50.2131672,44.3893334 48.5933334,42.7694996 48.5933334,40.7713334 C48.5933334,38.7731672 50.2131672,37.1533334 52.2113334,37.1533334 Z M41.028,35.8373334 C43.0261662,35.8373334 44.646,37.4571672 44.646,39.4553334 C44.646,41.4534996 43.0261662,43.0733334 41.028,43.0733334 C39.0298338,43.0733334 37.41,41.4534996 37.41,39.4553334 C37.41,37.4571672 39.0298338,35.8373334 41.028,35.8373334 Z M74.5786668,35.1793334 C76.576833,35.1793334 78.1966668,36.7991672 78.1966668,38.7973334 C78.1966668,40.7954996 76.576833,42.4153334 74.5786668,42.4153334 C72.5805006,42.4153334 70.9606668,40.7954996 70.9606668,38.7973334 C70.9606668,36.7991672 72.5805006,35.1793334 74.5786668,35.1793334 Z M64.0526668,31.89 C66.050833,31.89 67.6706668,33.5098338 67.6706668,35.508 C67.6706668,37.5061662 66.050833,39.126 64.0526668,39.126 C62.0545006,39.126 60.4346668,37.5061662 60.4346668,35.508 C60.4346668,33.5098338 62.0545006,31.89 64.0526668,31.89 Z" id="形状结合" fill="#593E01"></path>
                    <path d="M24.252,49.3233334 C24.252,51.3214996 25.8718338,52.9413334 27.87,52.9413334 C29.8681662,52.9413334 31.488,51.3214996 31.488,49.3233334 C31.488,47.3251672 29.8681662,45.7053334 27.87,45.7053334 C25.8718338,45.7053334 24.252,47.3251672 24.252,49.3233334 L24.252,49.3233334 Z" id="路径" fill="#593E01"></path>
                    <path d="M36.7513334,59.1913334 C36.7513334,61.1894996 38.3711672,62.8093334 40.3693334,62.8093334 C42.3674996,62.8093334 43.9873334,61.1894996 43.9873334,59.1913334 C43.9873334,57.8987464 43.2977466,56.7043468 42.1783335,56.0580533 C41.0589203,55.4117598 39.6797465,55.4117598 38.5603333,56.0580533 C37.4409202,56.7043468 36.7513334,57.8987464 36.7513334,59.1913334 L36.7513334,59.1913334 Z" id="路径" fill="#593E01"></path>
                    <path d="M47.9353334,60.5066668 C47.9353334,61.7992538 48.6249202,62.9936534 49.7443333,63.6399469 C50.8637465,64.2862404 52.2429203,64.2862404 53.3623335,63.6399469 C54.4817466,62.9936534 55.1713334,61.7992538 55.1713334,60.5066668 C55.1713334,59.2140798 54.4817466,58.0196802 53.3623335,57.3733867 C52.2429203,56.7270932 50.8637465,56.7270932 49.7443333,57.3733867 C48.6249202,58.0196802 47.9353334,59.2140798 47.9353334,60.5066668 Z" id="路径" fill="#593E01"></path>
                    <path d="M140.528,48.6653334 C140.528,52.2529751 142.074408,55.1613334 143.982,55.1613334 C145.889592,55.1613334 147.436,52.2529751 147.436,48.6653334 C147.436,45.0776917 145.889592,42.1693334 143.982,42.1693334 C142.074408,42.1693334 140.528,45.0776917 140.528,48.6653334 L140.528,48.6653334 Z" id="路径" fill="#FFCE00"></path>
                </g>
            </g>
            <g id="编组" stroke-width="1" transform="translate(137.573733, 101.506451) scale(-1, 1) rotate(37.000000) translate(-137.573733, -101.506451) translate(51.573733, 6.006451)">
                <path d="M141.162223,150.861303 C147.141779,154.643905 154.685111,154.949118 160.950719,151.661972 C167.216327,148.374825 171.252316,141.994715 171.538367,134.924966 C171.824419,127.855217 168.317075,121.169893 162.337519,117.387291 C156.357962,113.604689 148.81463,113.299475 142.549022,116.586622 C136.283415,119.873768 132.247426,126.253879 131.961374,133.323628 C131.675323,140.393376 135.182667,147.0787 141.162223,150.861303 L141.162223,150.861303 Z" id="路径" fill="#7B1646" fill-rule="nonzero"></path>
                <path d="M26.640625,76.3984375 C17.96875,76.3984375 9.484375,80.7109375 4.515625,88.5625 C-3.1953125,100.75 0.4609375,116.921875 12.625,124.632813 C18.53125,128.359375 25.5390625,129.578125 32.3359375,128.054688 C39.15625,126.53125 44.9453125,122.429688 48.6953125,116.523438 C52.421875,110.617188 53.640625,103.609375 52.1171875,96.8125 C50.59375,89.9921875 46.4921875,84.203125 40.5859375,80.453125 C36.25,77.7109375 31.421875,76.3984375 26.640625,76.3984375 L26.640625,76.3984375 Z" id="形状" fill="url(#radialGradient-4)" fill-rule="nonzero"></path>
                <path d="M82.2797064,184.510423 C91.4365653,190.302953 102.988129,190.770344 112.583036,185.736537 C122.177943,180.702729 128.358499,170.932477 128.796547,160.10614 C129.234595,149.279803 123.863586,139.042159 114.706727,133.249629 C105.549868,127.4571 93.9983038,126.989708 84.4033967,132.023516 C74.8084896,137.057323 68.6279343,146.827576 68.1898863,157.653913 C67.7518382,168.48025 73.1228473,178.717894 82.2797064,184.510423 L82.2797064,184.510423 Z" id="路径" fill="url(#radialGradient-5)" fill-rule="nonzero"></path>
                <path d="M121.720878,186.248287 C130.177187,191.598211 140.845336,192.030193 149.706515,187.3815 C158.567695,182.732806 164.275594,173.709731 164.679984,163.711365 C165.084375,153.712999 160.123817,144.258431 151.667006,138.9093 C143.210697,133.559376 132.542549,133.127394 123.681369,137.776087 C114.820189,142.424781 109.11229,151.447856 108.7079,161.446222 C108.303509,171.444588 113.264067,180.899156 121.720878,186.248287 L121.720878,186.248287 Z" id="路径" fill="url(#radialGradient-6)" fill-rule="nonzero"></path>
                <path d="M89.4975773,80.7832998 C98.95167,86.7648911 110.878838,87.2481029 120.785824,82.0508976 C130.692809,76.8536923 137.074341,66.7657349 137.52634,55.5874076 C137.978338,44.4090803 132.432125,33.8388217 122.977097,27.8587089 C113.523005,21.8771177 101.595836,21.3939058 91.688851,26.5911111 C81.7818655,31.7883164 75.4003334,41.8762739 74.9483352,53.0546012 C74.4963369,64.2329285 80.0425493,74.8031871 89.4975773,80.7832998 L89.4975773,80.7832998 Z" id="路径" fill="url(#radialGradient-7)" fill-rule="nonzero"></path>
                <path d="M108.110052,136.176314 C119.651657,143.477408 134.211627,144.066524 146.305363,137.721747 C158.399098,131.376971 166.189272,119.062225 166.741402,105.416355 C167.293533,91.7704847 160.523737,78.8666228 148.982131,71.5655291 C131.140356,60.2790161 107.527212,65.5931063 96.2406994,83.4348818 C84.9541864,101.276657 90.2682766,124.889801 108.110052,136.176314 L108.110052,136.176314 Z" id="路径" fill="url(#radialGradient-8)" fill-rule="nonzero"></path>
                <path d="M48.8431255,166.000086 C66.5973877,177.231239 90.0947094,171.943214 101.325862,154.188952 C112.557015,136.43469 107.268991,112.937368 89.5147286,101.706215 C78.0297348,94.4409326 63.5411807,93.8547061 51.5067647,100.168361 C39.4723487,106.482017 31.7203848,118.73636 31.170963,132.315297 C30.6215411,145.894235 37.3581314,158.734804 48.8431255,166.000086 L48.8431255,166.000086 Z" id="路径" fill="url(#radialGradient-9)" fill-rule="nonzero"></path>
                <path d="M40.5625,138.742188 C39.625,138.742188 38.8046875,138.015625 38.7109375,137.054688 C38.3359375,133.585938 38.5703125,130.09375 39.390625,126.695313 C39.625,125.6875 40.6328125,125.078125 41.640625,125.3125 C42.6484375,125.546875 43.2578125,126.554688 43.0234375,127.5625 C42.3203125,130.539063 42.109375,133.609375 42.4375,136.65625 C42.5546875,137.6875 41.8046875,138.601563 40.7734375,138.71875 C40.6796875,138.742188 40.609375,138.742188 40.5625,138.742188 L40.5625,138.742188 Z" id="路径" fill-opacity="0.396006337" fill="#FFFFFF" fill-rule="nonzero"></path>
                <path d="M62.1015625,163.632813 C61.9609375,163.632813 61.796875,163.609375 61.6328125,163.585938 C56.875,162.390625 52.421875,160 48.7421875,156.71875 C45.25,153.601563 42.6015625,149.851563 40.8203125,145.5625 C40.421875,144.601563 40.890625,143.5 41.8515625,143.125 C42.8125,142.726563 43.9140625,143.195313 44.2890625,144.15625 C45.8359375,147.929688 48.1796875,151.210938 51.2265625,153.953125 C54.4609375,156.835938 58.375,158.921875 62.546875,159.976563 C63.5546875,160.234375 64.1640625,161.242188 63.90625,162.25 C63.6953125,163.070313 62.9453125,163.632813 62.1015625,163.632813 Z" id="路径" fill-opacity="0.396006337" fill="#FFFFFF" fill-rule="nonzero"></path>
                <g id="路径-2" transform="translate(3.742147, 0.103699)">
                    <mask id="mask-12" fill="white">
                        <use xlink:href="#path-11"></use>
                    </mask>
                    <use id="蒙版" fill="url(#linearGradient-10)" fill-rule="nonzero" xlink:href="#path-11"></use>
                    <path d="M55.5686896,19.3385248 C30.1293656,23.4262207 12.0641682,24.9117823 1.3730974,23.7952095 C-1.27367722,23.7952095 -0.356161672,22.3096479 4.12564405,19.3385248 C30.1555819,19.9212974 45.5860246,19.5760413 50.4169722,18.3027567 C55.2479198,17.029472 56.9651589,17.374728 55.5686896,19.3385248 Z" id="路径-17" fill="#B66917" mask="url(#mask-12)" transform="translate(27.968715, 20.853024) scale(-1, 1) rotate(37.000000) translate(-27.968715, -20.853024) "></path>
                    <path d="M55.9576509,6.41055429 C48.9357632,11.7019262 43.7187711,15.6332117 40.3066746,18.2044109 C35.1885298,22.0612096 32.807573,25.1427226 33.5949545,26.187613 C34.3823359,27.2325035 40.4110346,29.7658487 43.6826077,34.1073729 C45.8636564,37.0017223 48.9044069,41.9803584 52.8048591,49.0432811 L45.0767862,53.9126375 C40.819668,41.210881 36.6613412,33.4257808 32.6018058,30.5573368 C26.5125027,26.2546708 24.9401856,26.8868425 22.074391,29.0463736 C19.2085965,31.2059047 3.37754591,39.5311428 -0.0759850351,39.3077916 C-3.52951598,39.0844403 -2.91424545,43.0438324 -0.591438527,46.1263013 C1.7313684,49.2087702 19.4817757,52.9614743 20.3165897,54.0693099 C21.1514038,55.1771456 33.8609167,66.6954209 33.8609167,66.6954209 C33.8609167,66.6954209 36.8364191,65.2956358 42.7874239,62.4960654 L59.9422628,52.9606184 L60.0574558,38.08571 L55.9576509,6.41055429 Z" fill="#432402" mask="url(#mask-12)"></path>
                </g>
                <path d="M52.7847177,106.547705 C63.2861159,113.19175 76.5344447,113.728382 87.5388008,107.955441 C98.543157,102.1825 105.631563,90.9771128 106.133678,78.5605679 C106.635793,66.144023 100.475327,54.4028625 89.9730473,47.7602102 C79.4716491,41.1161645 66.2233203,40.5795326 55.2189642,46.352474 C44.214608,52.1254154 37.1262023,63.3308022 36.6240872,75.7473471 C36.1219722,88.163892 42.2824382,99.9050525 52.7847177,106.547705 L52.7847177,106.547705 Z" id="路径" fill="url(#radialGradient-13)" fill-rule="nonzero"></path>
                <path d="M7.81892064,98.9850224 C7.18994892,98.7690833 6.84551202,98.0749932 7.05516926,97.4271757 C7.47448375,96.1006924 8.05852892,94.8204818 8.79232926,93.6173922 C9.15174167,93.0467193 9.88554202,92.8770295 10.4396362,93.2317866 C10.9937076,93.601968 11.158461,94.357755 10.8140241,94.9284513 C10.1850524,95.9464502 9.69086029,97.0415701 9.31647236,98.1829627 C9.16671719,98.7228106 8.70247616,99.0467193 8.19330857,99.0467193 C8.07350443,99.0467193 7.93872478,99.0312951 7.81892064,98.9850224 Z" id="路径" fill-opacity="0.396006337" fill="#FFFFFF" fill-rule="nonzero"></path>
                <path d="M15.751586,117.046719 C15.5157365,117.046719 15.2956103,116.984824 15.0754841,116.861033 C11.1918289,114.447106 8.48742115,110.702425 7.44968331,106.292367 C7.13521729,104.977087 6.99370759,103.615385 6.99370759,102.269156 C6.99370759,101.588305 7.55974641,101.046719 8.25157164,101.046719 L8.26729494,101.046719 C8.95912017,101.046719 9.52515899,101.603779 9.50943569,102.300104 C9.49370759,103.460646 9.63522209,104.605714 9.9025182,105.735307 C10.783023,109.495462 13.1100715,112.698557 16.4119647,114.772058 C16.9937076,115.143431 17.1666831,115.901652 16.8050472,116.474185 C16.584921,116.845559 16.1761152,117.046719 15.751586,117.046719 Z" id="路径" fill-opacity="0.396006337" fill="#FFFFFF" fill-rule="nonzero"></path>
            </g>
            <g id="编组-3" stroke-width="1" transform="translate(96.000000, 62.000000)">
                <path d="M34.8,18.2 C34.8,17.4268014 35.4268014,16.8 36.2,16.8 C36.9731986,16.8 37.6,17.4268014 37.6,18.2 C37.6,20.5195959 39.4804041,22.4 41.8,22.4 C44.1195959,22.4 46,20.5195959 46,18.2 C46,17.4268014 46.6268014,16.8 47.4,16.8 C48.1731986,16.8 48.8,17.4268014 48.8,18.2 C48.7958664,22.0642797 45.6642797,25.1958664 41.8,25.2 C37.9357203,25.1958664 34.8041336,22.0642797 34.8,18.2 Z" id="路径" fill="#000000" fill-rule="nonzero"></path>
                <ellipse id="椭圆形备份-13" fill="#FF9FB5" cx="7.2765" cy="14.0270584" rx="7.2765" ry="3.63825"></ellipse>
                <ellipse id="椭圆形备份-14" fill="#FF9FB5" cx="77.2765" cy="13.63825" rx="7.2765" ry="3.63825"></ellipse>
                <ellipse id="椭圆形备份-15" fill="#FFFFFF" transform="translate(4.550578, 13.924044) rotate(43.000000) translate(-4.550578, -13.924044) " cx="4.55057845" cy="13.9240438" rx="1" ry="2.20631445"></ellipse>
                <ellipse id="椭圆形备份-17" fill="#FFFFFF" transform="translate(74.550578, 13.535235) rotate(43.000000) translate(-74.550578, -13.535235) " cx="74.5505784" cy="13.5352354" rx="1" ry="2.20631445"></ellipse>
                <ellipse id="椭圆形备份-16" fill="#FFFFFF" transform="translate(8.916478, 13.924044) rotate(43.000000) translate(-8.916478, -13.924044) " cx="8.91647845" cy="13.9240438" rx="1" ry="2.20631445"></ellipse>
                <ellipse id="椭圆形备份-18" fill="#FFFFFF" transform="translate(78.916478, 13.535235) rotate(43.000000) translate(-78.916478, -13.535235) " cx="78.9164784" cy="13.5352354" rx="1" ry="2.20631445"></ellipse>
                <path d="M25.2461597,4.85393087 C25.3197602,7.17178479 27.2588638,8.97859923 29.577269,8.88956386 C31.8956741,8.8005285 33.7154479,6.84935921 33.6418474,4.53150528 C33.568247,2.21365135 31.6291433,0.406836918 29.3107382,0.495872285 C26.992333,0.584907652 25.1725593,2.53607694 25.2461597,4.85393087 Z" id="路径" fill="#000000" fill-rule="nonzero" transform="translate(29.444004, 4.692718) rotate(2.000000) translate(-29.444004, -4.692718) "></path>
                <path d="M51.8466115,4.83931815 C51.8989783,6.33891019 52.7473895,7.696653 54.0722568,8.40109797 C55.397124,9.10554294 56.9971685,9.04966811 58.2696689,8.254521 C59.5421693,7.45937388 60.2938025,6.04575625 60.2414356,4.54616421 C60.1604834,2.22799582 58.2156134,0.414373788 55.8974467,0.495326013 C53.57928,0.576278239 51.7656593,2.52114976 51.8466115,4.83931815 L51.8466115,4.83931815 Z" id="路径" fill="#000000" fill-rule="nonzero" transform="translate(56.044004, 4.692718) rotate(2.000000) translate(-56.044004, -4.692718) "></path>
            </g>
        </g>
    </g>
</svg>