<?xml version="1.0" encoding="utf-8"?>
<!-- Generator: Adobe Illustrator 22.1.0, SVG Export Plug-In . SVG Version: 6.00 Build 0)  -->
<svg version="1.1" id="图层_1" xmlns="http://www.w3.org/2000/svg" xmlns:xlink="http://www.w3.org/1999/xlink" x="0px" y="0px"
	 viewBox="0 0 200 200" style="enable-background:new 0 0 200 200;" xml:space="preserve">
<style type="text/css">
	.st0{fill:url(#SVGID_1_);}
	.st1{fill:none;stroke:#020202;stroke-miterlimit:10;}
	.st2{fill:url(#SVGID_2_);}
	.st3{fill:url(#SVGID_3_);}
	.st4{fill:url(#SVGID_4_);}
	.st5{fill:#99E9FF;}
	.st6{fill:#10ABC4;}
	.st7{fill:#36CFF2;}
	.st8{fill:#684A33;}
	.st9{fill:#00E0A5;}
	.st10{enable-background:new    ;}
	.st11{fill:url(#SVGID_5_);}
	.st12{fill:url(#SVGID_6_);}
	.st13{fill:#269EB7;}
	.st14{fill:#E2E2E2;}
	.st15{fill:#EFEFEF;}
	.st16{fill:#FFFFFF;}
	.st17{fill:url(#SVGID_7_);}
	.st18{fill:url(#SVGID_8_);}
	.st19{fill:url(#SVGID_9_);}
	.st20{fill:url(#SVGID_10_);}
	.st21{fill:url(#SVGID_11_);}
	.st22{fill:#050505;}
	.st23{fill:#2054E5;}
	.st24{fill:#032282;}
	.st25{fill:url(#SVGID_14_);}
	.st26{fill:url(#SVGID_15_);}
	.st27{fill:url(#SVGID_16_);}
	.st28{fill:#F4F4F4;}
	.st29{clip-path:url(#SVGID_18_);}
	.st30{fill:none;stroke:#EFC100;stroke-width:0.4;stroke-miterlimit:10;}
	.st31{fill:url(#SVGID_19_);}
	.st32{fill:#E5E5E5;}
	.st33{fill:#9AC52B;}
	.st34{fill:#6A891A;}
	.st35{fill:#F2F2F2;}
	.st36{fill:#EDEDED;}
	.st37{fill:#C9C9C9;}
	.st38{fill:#D3D3D3;}
	.st39{fill:url(#SVGID_20_);}
	.st40{opacity:0.13;}
	.st41{fill:none;stroke:#F9F9F9;stroke-width:0.2;stroke-miterlimit:10;}
	.st42{fill:none;stroke:#FFFFFF;stroke-width:0.2;stroke-miterlimit:10;}
	.st43{fill:url(#SVGID_21_);}
	.st44{fill:#D7FF31;}
	.st45{fill:url(#SVGID_22_);}
	.st46{fill:url(#SVGID_23_);}
	.st47{fill:#1EB783;}
	.st48{fill:#E2D8DD;}
	.st49{fill:#EFE4E9;}
	.st50{fill:url(#SVGID_24_);}
	.st51{fill:url(#SVGID_25_);}
	.st52{fill:url(#SVGID_26_);}
	.st53{fill:url(#SVGID_27_);}
	.st54{fill:url(#SVGID_28_);}
	.st55{fill:url(#SVGID_29_);}
	.st56{fill:url(#SVGID_30_);}
	.st57{fill:url(#SVGID_31_);}
	.st58{fill:#F2D500;}
	.st59{fill:#7D3202;}
	.st60{fill:#702D02;}
	.st61{fill:#B94A03;}
</style>
<linearGradient id="SVGID_1_" gradientUnits="userSpaceOnUse" x1="100.125" y1="2" x2="100.125" y2="202" gradientTransform="matrix(1 0 0 -1 0 202)">
	<stop  offset="1.538462e-02" style="stop-color:#00ADFF"/>
	<stop  offset="1" style="stop-color:#0014AA"/>
</linearGradient>
<rect class="st0" width="200.3" height="200"/>
<rect class="st1" width="200.3" height="200"/>
<g>
	
		<linearGradient id="SVGID_2_" gradientUnits="userSpaceOnUse" x1="99.2" y1="34.7" x2="167.6" y2="34.7" gradientTransform="matrix(1 0 0 -1 0 202)">
		<stop  offset="1.538462e-02" style="stop-color:#00ADFF"/>
		<stop  offset="1" style="stop-color:#0014AA"/>
	</linearGradient>
	<polygon class="st2" points="167.6,143 167.6,151.9 99.2,191.6 99.2,182.7 	"/>
</g>
<g>
	
		<linearGradient id="SVGID_3_" gradientUnits="userSpaceOnUse" x1="24" y1="36.55" x2="99.2" y2="36.55" gradientTransform="matrix(1 0 0 -1 0 202)">
		<stop  offset="0" style="stop-color:#2A3EFF"/>
		<stop  offset="1" style="stop-color:#2A73FF"/>
	</linearGradient>
	<polygon class="st3" points="99.2,182.7 99.2,191.6 24,148.2 24.1,139.3 	"/>
</g>
<g>
	
		<linearGradient id="SVGID_4_" gradientUnits="userSpaceOnUse" x1="95.85" y1="19.3" x2="95.85" y2="102.4" gradientTransform="matrix(1 0 0 -1 0 202)">
		<stop  offset="1.538462e-02" style="stop-color:#55E4FF"/>
		<stop  offset="1" style="stop-color:#002BD4"/>
	</linearGradient>
	<polygon class="st4" points="167.6,143 99.2,182.7 24.1,139.3 92.4,99.6 	"/>
</g>
<g>
	<polygon class="st5" points="130.9,151.4 99.5,169.7 64.9,149.8 96.4,131.5 	"/>
</g>
<g>
	<polygon class="st6" points="130.9,151.4 129.8,152.2 95.2,132.2 96.4,131.5 	"/>
</g>
<g>
	<polygon class="st7" points="97.4,132 66.3,150.6 64.9,149.8 96.4,131.5 	"/>
</g>
<g>
	<rect x="64.2" y="145.6" class="st8" width="1.3" height="5.6"/>
	<g>
		<circle class="st9" cx="64.9" cy="140.1" r="1.4"/>
		<circle class="st9" cx="64.9" cy="142.1" r="1.7"/>
		<circle class="st9" cx="64.9" cy="145.2" r="2.7"/>
	</g>
</g>
<g>
	<rect x="77.5" y="154.8" class="st8" width="1.3" height="5.6"/>
	<g>
		<circle class="st9" cx="78.2" cy="149.3" r="1.4"/>
		<circle class="st9" cx="78.2" cy="151.3" r="1.7"/>
		<circle class="st9" cx="78.2" cy="154.4" r="2.7"/>
	</g>
</g>
<g>
	<rect x="117.8" y="156.4" class="st8" width="1.3" height="5.6"/>
	<g>
		<circle class="st9" cx="118.5" cy="150.9" r="1.4"/>
		<circle class="st9" cx="118.5" cy="152.9" r="1.7"/>
		<circle class="st9" cx="118.5" cy="156" r="2.7"/>
	</g>
</g>
<g>
	<g class="st10">
		<g>
			
				<linearGradient id="SVGID_5_" gradientUnits="userSpaceOnUse" x1="-12.9302" y1="68.5" x2="-12.9302" y2="91.1" gradientTransform="matrix(-1 0 0 -1 87.6698 202)">
				<stop  offset="0" style="stop-color:#1517FF"/>
				<stop  offset="1" style="stop-color:#2A73FF"/>
			</linearGradient>
			<polygon class="st11" points="94.6,110.9 94.7,126.6 106.6,133.5 106.5,117.8 			"/>
		</g>
		<g>
			
				<linearGradient id="SVGID_6_" gradientUnits="userSpaceOnUse" x1="-24.8302" y1="68.5" x2="-24.8302" y2="91.1" gradientTransform="matrix(-1 0 0 -1 87.6698 202)">
				<stop  offset="0" style="stop-color:#2A3EFF"/>
				<stop  offset="1" style="stop-color:#2A73FF"/>
			</linearGradient>
			<polygon class="st12" points="106.5,117.8 106.6,133.5 118.5,126.6 118.5,110.9 			"/>
		</g>
		<g>
			<g>
				<polygon class="st13" points="94.6,110.9 106.5,117.8 118.5,110.9 106.6,104 				"/>
			</g>
		</g>
	</g>
</g>
<g>
	<g class="st10">
		<g>
			<polygon class="st14" points="94.6,110.2 94.6,110.9 106.5,117.8 106.5,117.1 			"/>
		</g>
		<g>
			<polygon class="st15" points="106.5,117.1 106.5,117.8 118.5,110.9 118.5,110.2 			"/>
		</g>
		<g>
			<g>
				<polygon class="st16" points="94.6,110.2 106.5,117.1 118.5,110.2 106.6,103.3 				"/>
			</g>
		</g>
	</g>
</g>
<g>
	
		<linearGradient id="SVGID_7_" gradientUnits="userSpaceOnUse" x1="-12.8802" y1="84.916" x2="-12.8802" y2="97.8336" gradientTransform="matrix(-1 0 0 -1 87.6698 202)">
		<stop  offset="0" style="stop-color:#1517FF"/>
		<stop  offset="1" style="stop-color:#2A73FF"/>
	</linearGradient>
	<polygon class="st17" points="94.7,104.2 94.6,110.2 106.5,117.1 106.5,111.1 	"/>
</g>
<g>
	<polygon class="st16" points="100.7,110.1 100.7,112.4 105.2,115 105.2,112.7 	"/>
</g>
<g>
	<polygon class="st16" points="95.3,107.2 95.3,109.5 99.9,112.1 99.9,109.8 	"/>
</g>
<g>
	<polygon class="st16" points="101,116.1 101,118.4 105.5,121 105.5,118.7 	"/>
</g>
<g>
	<polygon class="st16" points="95.7,113.2 95.7,115.4 100.2,118.1 100.2,115.8 	"/>
</g>
<g>
	<polygon class="st16" points="100.9,119.7 100.9,122 105.4,124.6 105.4,122.3 	"/>
</g>
<g>
	<polygon class="st16" points="95.6,116.8 95.5,119 100.1,121.7 100.1,119.4 	"/>
</g>
<g>
	<polygon class="st16" points="100.9,123.1 100.9,125.4 105.4,128 105.4,125.7 	"/>
</g>
<g>
	<polygon class="st16" points="95.6,120.2 95.5,122.4 100.1,125.1 100.1,122.8 	"/>
</g>
<g>
	<polygon class="st16" points="100.9,126.7 100.9,129 105.4,131.6 105.4,129.3 	"/>
</g>
<g>
	<polygon class="st16" points="95.6,123.8 95.5,126.1 100.1,128.7 100.1,126.4 	"/>
</g>
<g>
	
		<linearGradient id="SVGID_8_" gradientUnits="userSpaceOnUse" x1="-24.8302" y1="84.916" x2="-24.8302" y2="97.8294" gradientTransform="matrix(-1 0 0 -1 87.6698 202)">
		<stop  offset="0" style="stop-color:#2A3EFF"/>
		<stop  offset="1" style="stop-color:#2A73FF"/>
	</linearGradient>
	<polygon class="st18" points="106.5,111.1 106.5,117.1 118.5,110.2 118.5,104.2 	"/>
</g>
<g>
	
		<linearGradient id="SVGID_9_" gradientUnits="userSpaceOnUse" x1="-30.8302" y1="97.8" x2="-7.0007" y2="97.8" gradientTransform="matrix(-1 0 0 -1 87.6698 202)">
		<stop  offset="0" style="stop-color:#1517FF"/>
		<stop  offset="1" style="stop-color:#2A73FF"/>
	</linearGradient>
	<polygon class="st19" points="94.7,104.2 106.5,111.1 118.5,104.2 106.6,97.3 	"/>
</g>
<g>
	<g>
		<g class="st10">
			<g>
				
					<linearGradient id="SVGID_10_" gradientUnits="userSpaceOnUse" x1="-29.0802" y1="56.6556" x2="-29.0802" y2="95.2556" gradientTransform="matrix(-1 0 0 -1 87.6698 202)">
					<stop  offset="0" style="stop-color:#1517FF"/>
					<stop  offset="1" style="stop-color:#2A73FF"/>
				</linearGradient>
				<polygon class="st20" points="106.6,106.7 106.6,133.5 126.9,145.3 126.9,118.5 				"/>
			</g>
			<g>
				
					<linearGradient id="SVGID_11_" gradientUnits="userSpaceOnUse" x1="-49.4302" y1="56.6556" x2="-49.4302" y2="95.2556" gradientTransform="matrix(-1 0 0 -1 87.6698 202)">
					<stop  offset="0" style="stop-color:#2A3EFF"/>
					<stop  offset="1" style="stop-color:#2A73FF"/>
				</linearGradient>
				<polygon class="st21" points="126.9,118.5 126.9,145.3 147.3,133.6 147.3,106.7 				"/>
			</g>
			<g>
				<g>
					<polygon class="st13" points="106.6,106.7 126.9,118.5 147.3,106.7 127,94.9 					"/>
				</g>
			</g>
		</g>
	</g>
	<g>
		<g>
			<polygon class="st22" points="106.8,115.8 106.8,131.2 122.9,140.7 122.9,125.3 			"/>
		</g>
		<g>
			<polygon class="st23" points="122.9,125.3 122.9,140.7 125.1,139.2 125.1,123.8 			"/>
		</g>
		<g>
			<g>
				<polygon class="st24" points="106.8,115.8 122.9,125.3 125.1,123.8 109,114.3 				"/>
			</g>
		</g>
		<g>
			<g>
				<defs>
					<polygon id="SVGID_12_" points="106.6,116 106.6,131.4 122.6,140.9 122.6,125.5 					"/>
				</defs>
				<clipPath id="SVGID_13_">
					<use xlink:href="#SVGID_12_"  style="overflow:visible;"/>
				</clipPath>
			</g>
		</g>
	</g>
	<g>
		<g class="st10">
			<g>
				<polygon class="st14" points="106.6,105.5 106.6,106.7 126.9,118.5 126.9,117.3 				"/>
			</g>
			<g>
				<polygon class="st15" points="126.9,117.3 126.9,118.5 147.3,106.7 147.3,105.5 				"/>
			</g>
			<g>
				<g>
					<polygon class="st16" points="106.6,105.5 126.9,117.3 147.3,105.5 127,93.7 					"/>
				</g>
			</g>
		</g>
	</g>
	<g>
		<g class="st10">
			<g>
				
					<linearGradient id="SVGID_14_" gradientUnits="userSpaceOnUse" x1="-29.0802" y1="84.7" x2="-29.0802" y2="106.8" gradientTransform="matrix(-1 0 0 -1 87.6698 202)">
					<stop  offset="0" style="stop-color:#1517FF"/>
					<stop  offset="1" style="stop-color:#2A73FF"/>
				</linearGradient>
				<polygon class="st25" points="106.6,95.2 106.6,105.5 126.9,117.3 126.9,107 				"/>
			</g>
			<g>
				<polygon class="st16" points="117,105.4 117,109.3 124.7,113.8 124.7,109.9 				"/>
			</g>
			<g>
				<polygon class="st16" points="107.8,100.4 107.8,104.3 115.5,108.7 115.5,104.8 				"/>
			</g>
			<g>
				
					<linearGradient id="SVGID_15_" gradientUnits="userSpaceOnUse" x1="-49.4302" y1="84.7" x2="-49.4302" y2="106.7729" gradientTransform="matrix(-1 0 0 -1 87.6698 202)">
					<stop  offset="0" style="stop-color:#2A3EFF"/>
					<stop  offset="1" style="stop-color:#2A73FF"/>
				</linearGradient>
				<polygon class="st26" points="126.9,107 126.9,117.3 147.3,105.5 147.3,95.2 				"/>
			</g>
			<g>
				
					<linearGradient id="SVGID_16_" gradientUnits="userSpaceOnUse" x1="-59.6302" y1="106.8" x2="-18.9302" y2="106.8" gradientTransform="matrix(-1 0 0 -1 87.6698 202)">
					<stop  offset="0" style="stop-color:#1517FF"/>
					<stop  offset="1" style="stop-color:#2A73FF"/>
				</linearGradient>
				<polygon class="st27" points="106.6,95.2 126.9,107 147.3,95.2 127,83.4 				"/>
			</g>
		</g>
	</g>
	<g class="st10">
		<g>
			<polygon class="st28" points="100.5,112.2 100.5,113 120.8,124.8 120.8,124 			"/>
		</g>
		<g>
			<polygon class="st14" points="120.8,124 120.8,124.8 126.9,122.9 126.9,118.5 			"/>
		</g>
		<g>
			<polygon class="st16" points="100.5,112.2 120.8,124 126.9,118.5 106.6,106.7 			"/>
		</g>
		<g>
			<g>
				<defs>
					<polygon id="SVGID_17_" points="100.5,112.2 120.8,124 126.9,118.5 106.6,106.7 					"/>
				</defs>
				<clipPath id="SVGID_18_">
					<use xlink:href="#SVGID_17_"  style="overflow:visible;"/>
				</clipPath>
				<g class="st29">
					<g>
						<polyline class="st30" points="106,106.1 105.1,107 99.5,112 						"/>
						<polyline class="st30" points="101.5,113.2 107.1,108.1 108,107.2 						"/>
						<polyline class="st30" points="103.5,114.3 109,109.3 110,108.4 						"/>
						<polyline class="st30" points="105.5,115.5 111,110.4 112,109.5 						"/>
						<polyline class="st30" points="107.5,116.6 113,111.6 114,110.7 						"/>
						<polyline class="st30" points="109.4,117.8 115,112.7 115.9,111.8 						"/>
						<polyline class="st30" points="111.4,118.9 117,113.9 117.9,113 						"/>
						<polyline class="st30" points="113.4,120.1 118.9,115 119.9,114.1 						"/>
						<polyline class="st30" points="115.4,121.2 120.9,116.2 121.9,115.3 						"/>
						<polyline class="st30" points="117.4,122.4 122.9,117.3 123.9,116.4 						"/>
						<polyline class="st30" points="119.4,123.5 124.9,118.5 125.8,117.6 						"/>
						<line class="st30" x1="121.3" y1="124.7" x2="127.8" y2="118.7"/>
					</g>
				</g>
			</g>
		</g>
	</g>
</g>
<g>
	<g>
		<g>
			
				<linearGradient id="SVGID_19_" gradientUnits="userSpaceOnUse" x1="71.9" y1="115.1" x2="71.9" y2="141.5339" gradientTransform="matrix(1 0 0 -1 0 202)">
				<stop  offset="0" style="stop-color:#6342FF"/>
				<stop  offset="1" style="stop-color:#5367FF"/>
			</linearGradient>
			<polygon class="st31" points="94.7,73.7 72,86.9 49.1,73.7 71.8,60.5 			"/>
		</g>
	</g>
	<g>
		<g class="st10">
			<g>
				<polygon class="st32" points="72.1,65 72.1,62.1 87.2,70.8 82.8,71.1 				"/>
			</g>
			<g>
				<polygon class="st16" points="61.4,71.1 57.1,70.8 72.1,62.1 72.1,65 				"/>
			</g>
			<g>
				<polygon class="st33" points="82.8,74.1 82.8,76.7 72.1,82.9 72.1,80.2 				"/>
			</g>
			<g>
				<polygon class="st34" points="72.1,80.2 72.1,82.9 61.4,76.7 61.4,74.1 				"/>
			</g>
			<g>
				<polygon class="st35" points="82.8,68.5 82.8,71.1 72.1,77.3 72.2,74.7 				"/>
			</g>
			<g>
				<polygon class="st14" points="72.2,74.7 72.1,77.3 61.4,71.1 61.4,68.5 				"/>
			</g>
			<g>
				<polygon class="st16" points="82.8,68.5 72.2,74.7 61.4,68.5 72.1,62.3 				"/>
			</g>
			<g>
				<polygon class="st36" points="72.2,79.5 72.1,83.1 57,74.4 57.1,70.8 				"/>
			</g>
			<g>
				<polygon class="st16" points="87.2,70.8 87.1,74.4 72.1,83.1 72.2,79.5 				"/>
			</g>
			<g>
				<polygon class="st37" points="82.8,71.1 87.2,70.8 72.2,79.5 72.1,77.3 				"/>
			</g>
			<g>
				<polygon class="st38" points="72.1,77.3 72.2,79.5 57.1,70.8 61.4,71.1 				"/>
			</g>
		</g>
	</g>
	<g>
		<g>
			
				<linearGradient id="SVGID_20_" gradientUnits="userSpaceOnUse" x1="83.4" y1="61.8" x2="83.4" y2="128.3" gradientTransform="matrix(1 0 0 -1 0 202)">
				<stop  offset="0" style="stop-color:#6342FF"/>
				<stop  offset="1" style="stop-color:#5367FF"/>
			</linearGradient>
			<polygon class="st39" points="94.8,73.7 94.7,127 72,140.2 72.1,86.9 			"/>
		</g>
		<g class="st40">
			<g>
				<g>
					<polyline class="st41" points="72.1,86.9 94,74.2 94.8,73.7 					"/>
					<polyline class="st41" points="94.8,78.5 94,79 72.1,91.7 					"/>
					<polyline class="st41" points="94.8,83.4 94,83.9 72.1,96.6 					"/>
					<polyline class="st41" points="94.8,88.2 94,88.7 72.1,101.4 					"/>
					<polyline class="st41" points="94.8,93.1 94,93.5 72.1,106.3 					"/>
					<polyline class="st41" points="94.8,97.9 93.9,98.4 72,111.1 					"/>
					<polyline class="st41" points="94.8,102.7 93.9,103.2 72,116 					"/>
					<polyline class="st41" points="94.8,107.6 93.9,108.1 72,120.8 					"/>
					<polyline class="st41" points="94.7,112.4 93.9,112.9 72,125.6 					"/>
					<polyline class="st41" points="94.7,117.3 93.9,117.7 72,130.5 					"/>
					<polyline class="st41" points="94.7,122.1 93.9,122.6 72,135.3 					"/>
					<line class="st41" x1="94.7" y1="127" x2="72" y2="140.2"/>
				</g>
			</g>
		</g>
		<g class="st40">
			<g>
				<g>
					<line class="st42" x1="72" y1="140.2" x2="72.1" y2="86.9"/>
					<polyline class="st42" points="74.2,85.7 74.2,87 74,139 					"/>
					<polyline class="st42" points="76.2,84.5 76.2,85.8 76.1,137.8 					"/>
					<polyline class="st42" points="78.3,83.3 78.3,84.6 78.2,136.6 					"/>
					<polyline class="st42" points="80.4,82.1 80.4,83.4 80.2,135.4 					"/>
					<polyline class="st42" points="82.4,80.9 82.4,82.2 82.3,134.2 					"/>
					<polyline class="st42" points="84.5,79.7 84.5,81 84.4,133 					"/>
					<polyline class="st42" points="86.6,78.5 86.6,79.8 86.4,131.8 					"/>
					<polyline class="st42" points="88.6,77.3 88.6,78.6 88.5,130.6 					"/>
					<polyline class="st42" points="90.7,76.1 90.7,77.4 90.6,129.4 					"/>
					<polyline class="st42" points="92.8,74.9 92.8,76.2 92.6,128.2 					"/>
					<polyline class="st42" points="94.8,73.7 94.8,75 94.7,127 					"/>
				</g>
			</g>
		</g>
		<g>
			<g>
				
					<linearGradient id="SVGID_21_" gradientUnits="userSpaceOnUse" x1="60.6" y1="61.8" x2="60.6" y2="128.3" gradientTransform="matrix(1 0 0 -1 0 202)">
					<stop  offset="0" style="stop-color:#6253FF"/>
					<stop  offset="1" style="stop-color:#5367FF"/>
				</linearGradient>
				<polygon class="st43" points="72.1,86.9 72,140.2 49.1,127 49.2,73.7 				"/>
			</g>
		</g>
		<g class="st40">
			<g>
				<g>
					<line class="st42" x1="72" y1="140.2" x2="71.9" y2="86.9"/>
					<polyline class="st42" points="69.8,85.7 69.8,87 70,139 					"/>
					<polyline class="st42" points="67.7,84.5 67.7,85.8 67.9,137.8 					"/>
					<polyline class="st42" points="65.7,83.3 65.7,84.6 65.8,136.6 					"/>
					<polyline class="st42" points="63.6,82.1 63.6,83.4 63.8,135.4 					"/>
					<polyline class="st42" points="61.5,80.9 61.5,82.2 61.7,134.2 					"/>
					<polyline class="st42" points="59.5,79.7 59.5,81 59.6,133 					"/>
					<polyline class="st42" points="57.4,78.5 57.4,79.8 57.6,131.8 					"/>
					<polyline class="st42" points="55.3,77.3 55.3,78.6 55.5,130.6 					"/>
					<polyline class="st42" points="53.3,76.1 53.3,77.4 53.4,129.4 					"/>
					<polyline class="st42" points="51.2,74.9 51.2,76.2 51.4,128.2 					"/>
					<polyline class="st42" points="49.1,73.7 49.1,75 49.3,127 					"/>
				</g>
			</g>
		</g>
		<g class="st40">
			<g>
				<g>
					<polyline class="st41" points="71.9,86.9 50,74.2 49.1,73.7 					"/>
					<polyline class="st41" points="49.1,78.5 50,79 71.9,91.7 					"/>
					<polyline class="st41" points="49.2,83.4 50,83.9 71.9,96.6 					"/>
					<polyline class="st41" points="49.2,88.2 50,88.7 71.9,101.4 					"/>
					<polyline class="st41" points="49.2,93.1 50,93.5 71.9,106.3 					"/>
					<polyline class="st41" points="49.2,97.9 50,98.4 71.9,111.1 					"/>
					<polyline class="st41" points="49.2,102.7 50,103.2 72,116 					"/>
					<polyline class="st41" points="49.2,107.6 50.1,108.1 72,120.8 					"/>
					<polyline class="st41" points="49.2,112.4 50.1,112.9 72,125.6 					"/>
					<polyline class="st41" points="49.3,117.3 50.1,117.7 72,130.5 					"/>
					<polyline class="st41" points="49.3,122.1 50.1,122.6 72,135.3 					"/>
					<line class="st41" x1="49.3" y1="127" x2="72" y2="140.2"/>
				</g>
			</g>
		</g>
	</g>
	<polygon class="st44" points="74.3,90.6 74.3,95.2 76.1,94.1 76.1,89.6 	"/>
	<polygon class="st44" points="86.6,107.6 86.6,112.2 88.4,111.1 88.4,106.6 	"/>
</g>
<g>
	<g>
		<g class="st10">
			<g>
				
					<linearGradient id="SVGID_22_" gradientUnits="userSpaceOnUse" x1="-44.3802" y1="50.1645" x2="-44.3802" y2="72.7645" gradientTransform="matrix(-1 0 0 -1 87.6698 202)">
					<stop  offset="0" style="stop-color:#095AFF"/>
					<stop  offset="1" style="stop-color:#1EDFFF"/>
				</linearGradient>
				<polygon class="st45" points="126.1,129.2 126.1,144.9 138,151.8 138,136.1 				"/>
			</g>
			<g>
				
					<linearGradient id="SVGID_23_" gradientUnits="userSpaceOnUse" x1="-56.2802" y1="50.1645" x2="-56.2802" y2="72.7645" gradientTransform="matrix(-1 0 0 -1 87.6698 202)">
					<stop  offset="0" style="stop-color:#1E8BFF"/>
					<stop  offset="1" style="stop-color:#1EDFFF"/>
				</linearGradient>
				<polygon class="st46" points="138,136.1 138,151.8 149.9,144.9 149.9,129.2 				"/>
			</g>
			<g>
				<g>
					<polygon class="st47" points="126.1,129.2 138,136.1 149.9,129.2 138,122.3 					"/>
				</g>
			</g>
		</g>
	</g>
	<g>
		<g class="st10">
			<g>
				<polygon class="st48" points="126.1,128.5 126.1,129.2 138,136.1 138,135.4 				"/>
			</g>
			<g>
				<polygon class="st49" points="138,135.4 138,136.1 149.9,129.2 149.9,128.5 				"/>
			</g>
			<g>
				<g>
					<polygon class="st16" points="126.1,128.5 138,135.4 149.9,128.5 138,121.6 					"/>
				</g>
			</g>
		</g>
	</g>
	<g>
		<g class="st10">
			<g>
				
					<linearGradient id="SVGID_24_" gradientUnits="userSpaceOnUse" x1="-44.3802" y1="66.568" x2="-44.3802" y2="79.4856" gradientTransform="matrix(-1 0 0 -1 87.6698 202)">
					<stop  offset="0" style="stop-color:#095AFF"/>
					<stop  offset="1" style="stop-color:#1EDFFF"/>
				</linearGradient>
				<polygon class="st50" points="126.1,122.5 126.1,128.5 138,135.4 138,129.4 				"/>
			</g>
			<g>
				<polygon class="st16" points="132.2,128.4 132.2,130.7 136.7,133.4 136.7,131.1 				"/>
			</g>
			<g>
				<polygon class="st16" points="126.8,125.5 126.8,127.8 131.3,130.4 131.3,128.1 				"/>
			</g>
			<g>
				
					<linearGradient id="SVGID_25_" gradientUnits="userSpaceOnUse" x1="-56.2802" y1="66.568" x2="-56.2802" y2="79.4814" gradientTransform="matrix(-1 0 0 -1 87.6698 202)">
					<stop  offset="0" style="stop-color:#1E8BFF"/>
					<stop  offset="1" style="stop-color:#1EDFFF"/>
				</linearGradient>
				<polygon class="st51" points="138,129.4 138,135.4 149.9,128.5 149.9,122.5 				"/>
			</g>
			<g>
				
					<linearGradient id="SVGID_26_" gradientUnits="userSpaceOnUse" x1="-62.2302" y1="79.5" x2="-38.4006" y2="79.5" gradientTransform="matrix(-1 0 0 -1 87.6698 202)">
					<stop  offset="0" style="stop-color:#095AFF"/>
					<stop  offset="1" style="stop-color:#1EDFFF"/>
				</linearGradient>
				<polygon class="st52" points="126.1,122.5 138,129.4 149.9,122.5 138,115.6 				"/>
			</g>
		</g>
	</g>
</g>
<g>
	<g>
		<g class="st10">
			<g>
				
					<linearGradient id="SVGID_27_" gradientUnits="userSpaceOnUse" x1="127.6378" y1="54.1" x2="127.6378" y2="76.7" gradientTransform="matrix(1 0 0 -1 -69.7878 202)">
					<stop  offset="0" style="stop-color:#1517FF"/>
					<stop  offset="1" style="stop-color:#2A73FF"/>
				</linearGradient>
				<polygon class="st53" points="63.8,125.3 63.8,141 51.9,147.9 51.9,132.2 				"/>
			</g>
			<g>
				
					<linearGradient id="SVGID_28_" gradientUnits="userSpaceOnUse" x1="115.6878" y1="54.1" x2="115.6878" y2="76.7" gradientTransform="matrix(1 0 0 -1 -69.7878 202)">
					<stop  offset="0" style="stop-color:#2A3EFF"/>
					<stop  offset="1" style="stop-color:#2A73FF"/>
				</linearGradient>
				<polygon class="st54" points="51.9,132.2 51.9,147.9 39.9,141 40,125.3 				"/>
			</g>
			<g>
				<g>
					<polygon class="st13" points="63.8,125.3 51.9,132.2 40,125.3 51.8,118.4 					"/>
				</g>
			</g>
		</g>
	</g>
	<g>
		<g class="st10">
			<g>
				<polygon class="st14" points="63.8,124.6 63.8,125.3 51.9,132.2 51.9,131.5 				"/>
			</g>
			<g>
				<polygon class="st15" points="51.9,131.5 51.9,132.2 40,125.3 40,124.6 				"/>
			</g>
			<g>
				<g>
					<polygon class="st16" points="63.8,124.6 51.9,131.5 40,124.6 51.8,117.7 					"/>
				</g>
			</g>
		</g>
	</g>
	<g>
		<g class="st10">
			<g>
				
					<linearGradient id="SVGID_29_" gradientUnits="userSpaceOnUse" x1="127.6378" y1="70.5149" x2="127.6378" y2="83.4325" gradientTransform="matrix(1 0 0 -1 -69.7878 202)">
					<stop  offset="0" style="stop-color:#1517FF"/>
					<stop  offset="1" style="stop-color:#2A73FF"/>
				</linearGradient>
				<polygon class="st55" points="63.8,118.6 63.8,124.6 51.9,131.5 51.9,125.5 				"/>
			</g>
			<g>
				<polygon class="st16" points="57.7,124.5 57.7,126.8 53.2,129.4 53.2,127.1 				"/>
			</g>
			<g>
				<polygon class="st16" points="63.1,121.6 63.1,123.9 58.6,126.5 58.6,124.2 				"/>
			</g>
			<g>
				
					<linearGradient id="SVGID_30_" gradientUnits="userSpaceOnUse" x1="115.7378" y1="70.5149" x2="115.7378" y2="83.4283" gradientTransform="matrix(1 0 0 -1 -69.7878 202)">
					<stop  offset="0" style="stop-color:#2A3EFF"/>
					<stop  offset="1" style="stop-color:#2A73FF"/>
				</linearGradient>
				<polygon class="st56" points="51.9,125.5 51.9,131.5 40,124.6 40,118.6 				"/>
			</g>
			<g>
				
					<linearGradient id="SVGID_31_" gradientUnits="userSpaceOnUse" x1="109.7412" y1="83.4" x2="133.5708" y2="83.4" gradientTransform="matrix(1 0 0 -1 -69.7878 202)">
					<stop  offset="0" style="stop-color:#1517FF"/>
					<stop  offset="1" style="stop-color:#2A73FF"/>
				</linearGradient>
				<polygon class="st57" points="63.8,118.6 51.9,125.5 40,118.6 51.8,111.7 				"/>
			</g>
		</g>
	</g>
</g>
<g>
	<rect x="129.5" y="147.7" class="st8" width="1.3" height="5.6"/>
	<g>
		<circle class="st9" cx="130.2" cy="142.2" r="1.4"/>
		<circle class="st9" cx="130.2" cy="144.2" r="1.7"/>
		<circle class="st9" cx="130.2" cy="147.3" r="2.7"/>
	</g>
</g>
<circle class="st58" cx="175.3" cy="25.3" r="14.2"/>
<polygon class="st58" points="126.8,23.7 127.3,24.7 128.4,24.8 127.6,25.6 127.7,26.7 126.8,26.2 125.8,26.7 126,25.6 125.2,24.8 
	126.3,24.7 "/>
<polygon class="st58" points="148.9,39.5 149.7,41.2 151.5,41.4 150.2,42.7 150.5,44.5 148.9,43.7 147.2,44.5 147.5,42.7 
	146.2,41.4 148.1,41.2 "/>
<polygon class="st58" points="140,5.2 140.4,6 141.3,6.1 140.7,6.8 140.8,7.7 140,7.2 139.2,7.7 139.3,6.8 138.7,6.1 139.6,6 "/>
<polygon class="st58" points="43.3,36.9 43.7,37.7 44.6,37.9 44,38.5 44.1,39.4 43.3,39 42.5,39.4 42.7,38.5 42,37.9 42.9,37.7 "/>
<path class="st59" d="M102.3,148c-0.1-0.1-0.2-0.1-0.3-0.1c-0.1,0-0.2-0.1-0.2-0.1h-0.1l0,0c0,0,0,0-0.1,0s-0.1,0-0.2,0
	s-0.1,0-0.2,0s-0.1,0-0.2,0c0,0,0,0-0.1,0l0,0h-0.1c-0.1,0-0.1,0-0.2,0s-0.2,0-0.2,0h-0.1h-0.1c-0.1,0-0.1,0-0.2,0
	c-0.2,0-0.3,0.1-0.4,0.2l0,0c0,0-0.1,0-0.1,0.1l-0.1,0.1l0,0l-0.1,0.1l0,0l0,0c0,0,0,0,0,0.1c0,0,0,0.1-0.1,0.1l0,0l0,0
	c0,0,0,0,0,0.1v0.1l0,0v0.7c0-0.1,0-0.1,0-0.2l0,0c0-0.1,0.1-0.1,0.1-0.2l0,0c0-0.1,0.1-0.1,0.2-0.2l0.1-0.1l0.1-0.1
	c0.2-0.1,0.4-0.2,0.6-0.2h0.1c0.2,0,0.4-0.1,0.7-0.1l0,0c0.2,0,0.5,0,0.7,0.1l0,0c0.2,0.1,0.4,0.1,0.6,0.2c0.4,0.2,0.6,0.5,0.6,0.8
	v-0.7C102.9,148.5,102.7,148.2,102.3,148z"/>
<path class="st60" d="M106,149.4L106,149.4c-0.1,0.2-0.2,0.4-0.3,0.5c0,0,0,0.1-0.1,0.1c-0.1,0.2-0.2,0.3-0.4,0.5
	c-0.1,0.1-0.2,0.2-0.4,0.3c-0.1,0.1-0.2,0.2-0.3,0.2c-0.3,0.2-0.7,0.3-1,0.4c-0.1,0-0.3,0.1-0.4,0.1c-0.2,0-0.3,0.1-0.5,0.1
	s-0.4,0.1-0.6,0.1c-0.1,0-0.1,0-0.2,0c-0.3,0-0.6,0-0.9,0h-0.1c-0.3,0-0.6,0-0.9,0h-0.1c-0.3,0-0.6-0.1-0.8-0.1h-0.1
	c-0.2-0.1-0.5-0.1-0.7-0.2h-0.1c-0.3-0.1-0.5-0.2-0.8-0.4c-1-0.6-1.5-1.4-1.5-2.1v0.9c0,0.8,0.5,1.5,1.5,2.1
	c0.2,0.1,0.5,0.3,0.7,0.4l0,0h0.1c0.1,0.1,0.3,0.1,0.4,0.2c0.1,0,0.2,0,0.3,0.1h0.1H99c0.2,0,0.3,0.1,0.5,0.1c0.1,0,0.1,0,0.2,0h0.1
	c0.1,0,0.1,0,0.2,0c0.2,0,0.3,0,0.5,0c0.1,0,0.1,0,0.2,0h0.1c0.1,0,0.2,0,0.2,0c0.2,0,0.4,0,0.6,0c0,0,0,0,0.1,0s0.1,0,0.2,0
	s0.3,0,0.4-0.1c0.1,0,0.1,0,0.2,0c0.2,0,0.3-0.1,0.5-0.1c0.1,0,0.2,0,0.3-0.1c0,0,0.1,0,0.1-0.1c0.4-0.1,0.7-0.3,1-0.4
	c0,0,0,0,0.1,0c0.1-0.1,0.2-0.1,0.3-0.2c0.1-0.1,0.3-0.2,0.4-0.3l0,0c0.1-0.1,0.2-0.2,0.3-0.3c0,0,0-0.1,0.1-0.1c0,0,0-0.1,0.1-0.1
	l0.1-0.1c0.1-0.1,0.1-0.2,0.1-0.3l0,0c0,0,0,0,0-0.1s0-0.1,0.1-0.2c0-0.1,0-0.2,0-0.3l0,0V149C106.1,149,106.1,149.2,106,149.4z"/>
<g>
	<path class="st61" d="M104.6,146.7c2,1.2,2,3.1,0,4.2c-2,1.2-5.3,1.2-7.3,0s-2-3.1,0-4.2C99.3,145.5,102.5,145.5,104.6,146.7z
		 M99.6,149.6c0.8,0.4,2,0.4,2.8,0s0.8-1.2,0-1.6c-0.8-0.4-2-0.4-2.8,0S98.8,149.2,99.6,149.6"/>
</g>
<g>
	<rect x="92.5" y="163.4" class="st8" width="1.3" height="5.6"/>
	<g>
		<circle class="st9" cx="93.1" cy="157.9" r="1.4"/>
		<circle class="st9" cx="93.1" cy="159.9" r="1.7"/>
		<circle class="st9" cx="93.1" cy="163" r="2.7"/>
	</g>
</g>
<g>
	<rect x="105.3" y="163.4" class="st8" width="1.3" height="5.6"/>
	<g>
		<circle class="st9" cx="106" cy="157.9" r="1.4"/>
		<circle class="st9" cx="106" cy="159.9" r="1.7"/>
		<circle class="st9" cx="106" cy="163" r="2.7"/>
	</g>
</g>
</svg>
