<?xml version="1.0" encoding="utf-8"?>
<!-- Generator: Adobe Illustrator 22.1.0, SVG Export Plug-In . SVG Version: 6.00 Build 0)  -->
<svg version="1.1" id="图层_1" xmlns="http://www.w3.org/2000/svg" xmlns:xlink="http://www.w3.org/1999/xlink" x="0px" y="0px"
	 viewBox="0 0 200 200" style="enable-background:new 0 0 200 200;" xml:space="preserve">
<style type="text/css">
	.st0{fill:#4BD8C1;}
	.st1{enable-background:new    ;}
	.st2{fill:#433334;}
	.st3{fill:#6C5054;}
	.st4{fill:#929B9B;}
	.st5{fill:#7BD2BE;}
	.st6{fill:#01BECE;}
	.st7{fill:none;stroke:#002223;stroke-miterlimit:10;}
	.st8{fill:#A4ECE1;}
	.st9{fill:#4C4C4B;}
	.st10{fill:#002223;}
	.st11{fill:#19D7DB;}
	.st12{fill:#25B7A6;}
	.st13{fill:#0E8871;}
	.st14{fill:#21B8A4;}
	.st15{fill:#168F74;}
	.st16{fill:#EAAD00;}
	.st17{fill:#1CBC9C;}
	.st18{fill:#7EC0B5;}
	.st19{fill:#45D9BE;}
	.st20{clip-path:url(#SVGID_2_);}
	.st21{fill:none;stroke:#1A8171;stroke-width:4;stroke-miterlimit:10;}
	.st22{fill:#18B79D;}
	.st23{fill:#15876C;}
	.st24{fill:#4EE5C7;}
	.st25{clip-path:url(#SVGID_4_);enable-background:new    ;}
	.st26{fill:#858585;}
	.st27{fill:#8A8A8A;}
	.st28{fill:#8F8F8F;}
	.st29{fill:#949494;}
	.st30{fill:#999999;}
	.st31{fill:#9E9E9E;}
	.st32{fill:#A3A3A3;}
	.st33{fill:#A8A8A8;}
	.st34{fill:#ADADAD;}
	.st35{fill:#B3B3B3;}
	.st36{fill:#B8B8B8;}
	.st37{fill:#BDBDBD;}
	.st38{clip-path:url(#SVGID_6_);enable-background:new    ;}
	.st39{fill:#888888;}
	.st40{fill:#DBDBDB;}
	.st41{clip-path:url(#SVGID_8_);enable-background:new    ;}
	.st42{clip-path:url(#SVGID_10_);enable-background:new    ;}
	.st43{fill:#C5C5C5;}
	.st44{clip-path:url(#SVGID_12_);enable-background:new    ;}
	.st45{fill:#C2C2C2;}
	.st46{fill:#C7C7C7;}
	.st47{fill:#CCCCCC;}
	.st48{clip-path:url(#SVGID_14_);enable-background:new    ;}
	.st49{clip-path:url(#SVGID_16_);enable-background:new    ;}
	.st50{clip-path:url(#SVGID_18_);enable-background:new    ;}
	.st51{clip-path:url(#SVGID_20_);enable-background:new    ;}
	.st52{clip-path:url(#SVGID_22_);enable-background:new    ;}
	.st53{clip-path:url(#SVGID_24_);enable-background:new    ;}
	.st54{clip-path:url(#SVGID_26_);enable-background:new    ;}
	.st55{clip-path:url(#SVGID_28_);enable-background:new    ;}
	.st56{clip-path:url(#SVGID_30_);enable-background:new    ;}
	.st57{clip-path:url(#SVGID_32_);enable-background:new    ;}
	.st58{clip-path:url(#SVGID_34_);enable-background:new    ;}
	.st59{clip-path:url(#SVGID_36_);enable-background:new    ;}
	.st60{clip-path:url(#SVGID_38_);enable-background:new    ;}
	.st61{clip-path:url(#SVGID_40_);enable-background:new    ;}
	.st62{clip-path:url(#SVGID_42_);enable-background:new    ;}
	.st63{clip-path:url(#SVGID_44_);enable-background:new    ;}
	.st64{clip-path:url(#SVGID_46_);enable-background:new    ;}
	.st65{clip-path:url(#SVGID_48_);enable-background:new    ;}
	.st66{clip-path:url(#SVGID_50_);enable-background:new    ;}
	.st67{clip-path:url(#SVGID_52_);enable-background:new    ;}
	.st68{clip-path:url(#SVGID_54_);enable-background:new    ;}
	.st69{clip-path:url(#SVGID_56_);enable-background:new    ;}
	.st70{clip-path:url(#SVGID_58_);enable-background:new    ;}
	.st71{clip-path:url(#SVGID_60_);enable-background:new    ;}
	.st72{clip-path:url(#SVGID_62_);enable-background:new    ;}
	.st73{clip-path:url(#SVGID_64_);enable-background:new    ;}
	.st74{clip-path:url(#SVGID_66_);enable-background:new    ;}
	.st75{clip-path:url(#SVGID_68_);enable-background:new    ;}
	.st76{clip-path:url(#SVGID_70_);enable-background:new    ;}
	.st77{clip-path:url(#SVGID_72_);enable-background:new    ;}
	.st78{clip-path:url(#SVGID_74_);enable-background:new    ;}
	.st79{clip-path:url(#SVGID_76_);enable-background:new    ;}
	.st80{clip-path:url(#SVGID_78_);enable-background:new    ;}
	.st81{clip-path:url(#SVGID_80_);enable-background:new    ;}
	.st82{clip-path:url(#SVGID_82_);enable-background:new    ;}
	.st83{clip-path:url(#SVGID_84_);enable-background:new    ;}
	.st84{clip-path:url(#SVGID_86_);enable-background:new    ;}
	.st85{clip-path:url(#SVGID_88_);enable-background:new    ;}
	.st86{fill:#868686;}
	.st87{clip-path:url(#SVGID_90_);enable-background:new    ;}
	.st88{clip-path:url(#SVGID_92_);enable-background:new    ;}
	.st89{clip-path:url(#SVGID_94_);enable-background:new    ;}
	.st90{clip-path:url(#SVGID_96_);enable-background:new    ;}
	.st91{clip-path:url(#SVGID_98_);enable-background:new    ;}
	.st92{clip-path:url(#SVGID_100_);enable-background:new    ;}
	.st93{clip-path:url(#SVGID_102_);enable-background:new    ;}
	.st94{clip-path:url(#SVGID_104_);enable-background:new    ;}
	.st95{clip-path:url(#SVGID_106_);enable-background:new    ;}
	.st96{clip-path:url(#SVGID_108_);enable-background:new    ;}
</style>
<g>
	<g>
		<path d="M199,0.7v197.7H1.3V0.7H199 M200-0.3H0.3v199.7H200V-0.3L200-0.3z"/>
	</g>
	<rect x="1.3" y="0.7" class="st0" width="197.6" height="197.6"/>
	<g>
		<g class="st1">
			<g>
				<polygon class="st2" points="180.7,133.8 180.7,144 102.8,189.2 102.8,179.1 				"/>
			</g>
			<g>
				<g>
					<polygon class="st3" points="102.8,179.1 102.8,189.2 17.2,139.8 17.2,129.6 					"/>
				</g>
			</g>
			<g>
				<g>
					<polygon class="st4" points="180.7,133.8 102.8,179.1 17.2,129.6 95.1,84.4 					"/>
				</g>
			</g>
		</g>
	</g>
	<g>
		<g>
			<g>
				<polygon class="st5" points="156.1,81.3 155.9,133.5 103.5,164 103.7,111.7 				"/>
			</g>
		</g>
		<g>
			<g>
				<polygon class="st6" points="152.8,98.5 152.7,129.6 131.8,142.2 131.9,111.1 				"/>
			</g>
		</g>
		<g>
			<g>
				<polygon class="st7" points="152.8,98.5 152.7,129.6 131.8,142.2 131.9,111.1 				"/>
			</g>
		</g>
		<g>
			<g>
				<polygon class="st8" points="103.7,111.7 103.5,164 50.8,133.5 50.9,81.3 				"/>
			</g>
		</g>
		<g>
			<g>
				<polygon class="st9" points="156.1,81.3 103.7,111.7 50.9,81.3 103.3,50.8 				"/>
			</g>
		</g>
		<g>
			<polygon class="st6" points="123.8,122.6 123.8,152.4 115.2,157.1 115.3,128 			"/>
		</g>
		<g>
			<polygon class="st10" points="123.8,131.4 123.8,132.3 115.3,137 115.3,136.1 			"/>
		</g>
		<g>
			<polygon class="st10" points="124,140 124,140.9 115.4,145.6 115.4,144.7 			"/>
		</g>
		<g>
			<polygon class="st7" points="123.8,122.6 124,152.4 115.4,157.1 115.3,128 			"/>
		</g>
	</g>
	<polygon class="st11" points="152.2,127.2 135.3,124.1 133.4,127.8 	"/>
	<g>
		<g class="st1">
			<g>
				<g>
					<polygon class="st12" points="154.4,75.8 154.4,81.5 103.2,52 103.3,46.3 					"/>
				</g>
			</g>
			<g>
				<g>
					<g>
						<polygon class="st13" points="103.3,46.3 103.2,52 52.4,81.5 52.5,75.8 						"/>
					</g>
				</g>
			</g>
			<g>
				<g>
					<g>
						<polygon class="st14" points="103.6,106.3 103.6,112 50.8,81.5 50.8,75.8 						"/>
					</g>
				</g>
			</g>
			<g>
				<g>
					<g>
						<polygon class="st15" points="156.1,75.8 156,81.5 103.6,112 103.6,106.3 						"/>
					</g>
				</g>
			</g>
			<g>
				<path class="st0" d="M103.3,45.3l52.8,30.5l-52.5,30.5L50.8,75.8L103.3,45.3z M103.6,105.3l50.8-29.5l-51.1-29.5L52.5,75.8
					L103.6,105.3"/>
			</g>
		</g>
	</g>
	<g>
		<g>
			<polygon class="st16" points="110.9,115.7 131.9,127.3 168.8,106.4 147.8,94.9 			"/>
		</g>
		<g>
			<g>
				<polygon class="st17" points="110.9,115.7 110.9,130.6 131.9,130.6 131.9,127.3 				"/>
			</g>
			<g>
				<polygon class="st18" points="131.9,127.3 131.9,130.6 168.8,109.8 168.8,106.4 				"/>
			</g>
			<g>
				<g>
					<polygon class="st19" points="110.9,115.7 131.9,127.3 168.8,106.4 147.8,94.9 					"/>
				</g>
			</g>
			<g>
				<defs>
					<polygon id="SVGID_1_" points="110.9,115.7 131.9,127.3 168.8,106.4 147.8,94.9 					"/>
				</defs>
				<clipPath id="SVGID_2_">
					<use xlink:href="#SVGID_1_"  style="overflow:visible;"/>
				</clipPath>
				<g class="st20">
					<g>
						<g>
							<line class="st21" x1="180" y1="106.8" x2="142.3" y2="84.9"/>
							<polyline class="st21" points="133.8,91.2 135.7,92.3 170.4,112.3 							"/>
							<polyline class="st21" points="125.3,97.4 127.1,98.5 160.7,117.8 							"/>
							<polyline class="st21" points="116.7,103.7 118.5,104.7 151.1,123.2 							"/>
							<polyline class="st21" points="108.2,109.9 109.9,110.9 141.5,128.7 							"/>
							<polyline class="st21" points="99.7,116.1 101.3,117.1 131.8,134.2 							"/>
						</g>
					</g>
				</g>
			</g>
		</g>
	</g>
	<g>
		<g class="st1">
			<g>
				<polygon class="st22" points="103.4,100.4 103.5,113.5 105.5,114.7 105.4,101.5 				"/>
			</g>
			<g>
				<g>
					<polygon class="st23" points="105.4,101.5 105.5,114.7 156.2,85.7 156.2,72.5 					"/>
				</g>
			</g>
			<g>
				<g>
					<polygon class="st24" points="103.4,100.4 105.4,101.5 156.2,72.5 154.1,71.4 					"/>
				</g>
			</g>
		</g>
	</g>
	<g>
		<g>
			<g class="st1">
				<g class="st1">
					<defs>
						<path id="SVGID_3_" class="st1" d="M147.6,90.4l-0.7-0.4c-0.1,0-0.1-0.1-0.1-0.2c0-0.2,0.1-0.3,0.3-0.5l0.7,0.4
							c-0.1,0.2-0.3,0.3-0.3,0.5C147.5,90.3,147.5,90.4,147.6,90.4z"/>
					</defs>
					<clipPath id="SVGID_4_">
						<use xlink:href="#SVGID_3_"  style="overflow:visible;"/>
					</clipPath>
					<g class="st25">
						<path class="st26" d="M147.6,90.4l-0.7-0.4c-0.1,0-0.1-0.1-0.1-0.2c0,0,0,0,0,0l0.7,0.4c0,0,0,0,0,0
							C147.5,90.3,147.5,90.4,147.6,90.4"/>
						<path class="st27" d="M147.5,90.1l-0.7-0.4c0,0,0,0,0,0L147.5,90.1C147.5,90.1,147.5,90.1,147.5,90.1"/>
						<path class="st28" d="M147.5,90.1l-0.7-0.4c0,0,0,0,0,0L147.5,90.1C147.5,90.1,147.5,90.1,147.5,90.1"/>
						<path class="st29" d="M147.5,90.1l-0.7-0.4c0,0,0,0,0,0L147.5,90.1C147.5,90,147.5,90,147.5,90.1"/>
						<path class="st30" d="M147.5,90l-0.7-0.4c0,0,0,0,0,0L147.5,90C147.5,90,147.5,90,147.5,90"/>
						<path class="st31" d="M147.5,90l-0.7-0.4c0,0,0,0,0,0L147.5,90C147.5,90,147.5,90,147.5,90"/>
						<path class="st32" d="M147.5,90l-0.7-0.4c0,0,0,0,0,0L147.5,90C147.5,90,147.5,90,147.5,90"/>
						<path class="st33" d="M147.5,90l-0.7-0.4c0,0,0,0,0,0L147.5,90C147.5,89.9,147.5,90,147.5,90"/>
						<path class="st34" d="M147.5,89.9l-0.7-0.4c0,0,0,0,0,0L147.5,89.9C147.5,89.9,147.5,89.9,147.5,89.9"/>
						<path class="st35" d="M147.5,89.9l-0.7-0.4c0,0,0,0,0,0L147.5,89.9C147.6,89.9,147.5,89.9,147.5,89.9"/>
						<path class="st36" d="M147.6,89.9l-0.7-0.4c0,0,0-0.1,0.1-0.1L147.6,89.9C147.6,89.8,147.6,89.8,147.6,89.9"/>
						<path class="st37" d="M147.6,89.8l-0.7-0.4c0,0,0-0.1,0.1-0.1l0.7,0.4C147.7,89.7,147.7,89.7,147.6,89.8"/>
					</g>
				</g>
				<g class="st1">
					<defs>
						<path id="SVGID_5_" class="st1" d="M149.7,81.1l0.7,0.4c0.1,0,0.1,0.1,0.1,0.2c0,0.6-1,3.5-1.1,4l-0.7-0.4
							c0.2-0.4,1.1-3.4,1.1-4C149.7,81.2,149.7,81.2,149.7,81.1z"/>
					</defs>
					<clipPath id="SVGID_6_">
						<use xlink:href="#SVGID_5_"  style="overflow:visible;"/>
					</clipPath>
					<g class="st38">
						<path class="st30" d="M149.3,85.7l-0.7-0.4c0,0,0-0.1,0-0.1l0.7,0.4C149.4,85.6,149.3,85.7,149.3,85.7"/>
						<path class="st29" d="M149.4,85.6l-0.7-0.4c0.2-0.5,0.5-1.7,0.8-2.6l0.7,0.4C149.9,83.9,149.5,85.1,149.4,85.6"/>
						<path class="st28" d="M150.2,82.9l-0.7-0.4c0.1-0.3,0.2-0.6,0.2-0.8l0.7,0.4C150.3,82.4,150.3,82.6,150.2,82.9"/>
						<path class="st27" d="M150.4,82.2l-0.7-0.4c0-0.1,0-0.2,0.1-0.3l0.7,0.4C150.4,82,150.4,82,150.4,82.2"/>
						<path class="st26" d="M150.4,81.9l-0.7-0.4c0-0.1,0-0.1,0-0.1c0-0.1,0-0.2-0.1-0.2l0.7,0.4c0.1,0,0.1,0.1,0.1,0.2
							C150.4,81.8,150.4,81.8,150.4,81.9"/>
					</g>
				</g>
				<g>
					<polygon class="st39" points="149.9,81.6 149.2,81.2 149.2,81.1 149.9,81.5 					"/>
				</g>
				<g>
					<polygon class="st40" points="149.9,81.5 149.2,81.1 151,80 151.7,80.4 					"/>
				</g>
				<g class="st1">
					<defs>
						<path id="SVGID_7_" class="st1" d="M147.7,89.6l-0.7-0.4c0.7-1,1.2-2.8,1.2-2.9c0-0.1-0.6-1.7-1.2-3l0.7,0.4
							c0.6,1.3,1.2,2.8,1.2,3C148.9,86.8,148.4,88.6,147.7,89.6z"/>
					</defs>
					<clipPath id="SVGID_8_">
						<use xlink:href="#SVGID_7_"  style="overflow:visible;"/>
					</clipPath>
					<g class="st41">
						<path class="st37" d="M147.7,89.6l-0.7-0.4c0,0,0,0,0-0.1L147.7,89.6C147.7,89.6,147.7,89.6,147.7,89.6"/>
						<path class="st36" d="M147.7,89.6l-0.7-0.4c0,0,0.1-0.1,0.1-0.1l0.7,0.4C147.8,89.5,147.8,89.5,147.7,89.6"/>
						<path class="st35" d="M147.8,89.4l-0.7-0.4c0-0.1,0.1-0.1,0.1-0.2l0.7,0.4C147.9,89.3,147.9,89.4,147.8,89.4"/>
						<path class="st34" d="M148,89.3l-0.7-0.4c0-0.1,0.1-0.1,0.1-0.2l0.7,0.4C148,89.1,148,89.2,148,89.3"/>
						<path class="st33" d="M148.1,89.1l-0.7-0.4c0-0.1,0.1-0.2,0.1-0.3l0.7,0.4C148.2,88.9,148.1,89,148.1,89.1"/>
						<path class="st32" d="M148.2,88.8l-0.7-0.4c0.1-0.1,0.1-0.2,0.2-0.3l0.7,0.4C148.3,88.6,148.3,88.7,148.2,88.8"/>
						<path class="st31" d="M148.3,88.5l-0.7-0.4c0.1-0.1,0.1-0.3,0.2-0.4l0.7,0.4C148.5,88.2,148.4,88.3,148.3,88.5"/>
						<path class="st30" d="M148.5,88.1l-0.7-0.4c0.1-0.2,0.1-0.4,0.2-0.5l0.7,0.4C148.7,87.7,148.6,87.9,148.5,88.1"/>
						<path class="st29" d="M148.7,87.5l-0.7-0.4c0.1-0.2,0.1-0.4,0.2-0.5l0.7,0.4C148.8,87.2,148.8,87.3,148.7,87.5"/>
						<path class="st28" d="M148.9,87l-0.7-0.4c0-0.1,0-0.2,0.1-0.2l0.7,0.4C148.9,86.8,148.9,86.9,148.9,87"/>
						<path class="st27" d="M148.9,86.8l-0.7-0.4c0,0,0,0,0-0.1L148.9,86.8C148.9,86.7,148.9,86.8,148.9,86.8"/>
						<path class="st26" d="M148.9,86.7l-0.7-0.4c0,0,0,0,0,0c0-0.1-0.6-1.7-1.2-3l0.7,0.4C148.3,85,148.9,86.6,148.9,86.7
							C148.9,86.7,148.9,86.7,148.9,86.7"/>
					</g>
				</g>
				<g class="st1">
					<defs>
						<path id="SVGID_9_" class="st1" d="M146.8,82.9l0.7,0.4c0.1,0.1,0.2,0.2,0.3,0.4l-0.7-0.4C146.9,83.1,146.9,83,146.8,82.9z"/>
					</defs>
					<clipPath id="SVGID_10_">
						<use xlink:href="#SVGID_9_"  style="overflow:visible;"/>
					</clipPath>
					<g class="st42">
						<path class="st26" d="M147.8,83.7l-0.7-0.4c-0.1-0.2-0.2-0.4-0.3-0.4l0.7,0.4C147.6,83.4,147.7,83.5,147.8,83.7"/>
					</g>
				</g>
				<g>
					<polygon class="st40" points="146.8,83.2 146.1,82.8 148,81.7 148.7,82.2 					"/>
				</g>
				<g>
					<polygon class="st39" points="146.8,83.4 146.1,83 146.1,82.8 146.8,83.2 					"/>
				</g>
				<g>
					<path class="st43" d="M151.7,80.4l0,0.2c-0.6,0.4-0.6,0.6-0.9,1.4c-0.3,0.8-0.7,1.9-1.5,4.4c-0.7,2.2-1,3-1.1,3.7
						c-0.1,0.2-0.2,0.3-0.3,0.4c-0.2,0.1-0.5,0-0.5-0.2c0-0.2,0.1-0.3,0.3-0.5c0.7-1,1.2-2.8,1.2-2.9c0-0.1-0.6-1.7-1.2-3
						c-0.2-0.5-0.3-0.6-0.9-0.3l0-0.2l1.8-1.1l0,0.2c-0.4,0.3-0.5,0.5-0.5,0.7c0,0.1,0,0.2,0.1,0.3l1.1,2.4c0.2-0.4,1.1-3.4,1.1-4
						c0-0.3-0.2-0.3-0.6-0.1l0-0.2L151.7,80.4z"/>
				</g>
			</g>
			<g class="st1">
				<g class="st1">
					<defs>
						<path id="SVGID_11_" class="st1" d="M144,88.7l-0.7-0.4c0.4,0.2,0.8,0.1,1.2-0.1c0.5-0.3,0.8-0.6,1.4-1.6l0.7,0.4
							c-0.5,1-0.9,1.3-1.4,1.6C144.9,88.8,144.4,88.9,144,88.7z"/>
					</defs>
					<clipPath id="SVGID_12_">
						<use xlink:href="#SVGID_11_"  style="overflow:visible;"/>
					</clipPath>
					<g class="st44">
						<polyline class="st31" points="144,88.7 143.3,88.3 143.3,88.3 144,88.7 144,88.7 						"/>
						<path class="st32" d="M144,88.7l-0.7-0.4c0,0,0.1,0,0.1,0L144,88.7C144.1,88.7,144.1,88.7,144,88.7"/>
						<path class="st33" d="M144.1,88.7l-0.7-0.4c0,0,0.1,0,0.1,0L144.1,88.7C144.2,88.7,144.2,88.7,144.1,88.7"/>
						<path class="st34" d="M144.2,88.7l-0.7-0.4c0,0,0.1,0,0.1,0L144.2,88.7C144.3,88.8,144.2,88.8,144.2,88.7"/>
						<path class="st35" d="M144.3,88.8l-0.7-0.4c0,0,0.1,0,0.1,0l0.7,0.4C144.4,88.8,144.3,88.8,144.3,88.8"/>
						<path class="st36" d="M144.4,88.8l-0.7-0.4c0,0,0.1,0,0.1,0l0.7,0.4C144.5,88.8,144.4,88.8,144.4,88.8"/>
						<path class="st37" d="M144.5,88.8l-0.7-0.4c0,0,0.1,0,0.1,0l0.7,0.4C144.6,88.8,144.6,88.8,144.5,88.8"/>
						<path class="st45" d="M144.6,88.8l-0.7-0.4c0.1,0,0.1,0,0.2,0l0.7,0.4C144.7,88.7,144.7,88.8,144.6,88.8"/>
						<path class="st46" d="M144.8,88.7l-0.7-0.4c0.1,0,0.1,0,0.2-0.1l0.7,0.4C144.9,88.7,144.9,88.7,144.8,88.7"/>
						<path class="st47" d="M145,88.7l-0.7-0.4c0.1,0,0.2-0.1,0.2-0.1c0.2-0.1,0.4-0.2,0.5-0.4l0.7,0.4c-0.2,0.2-0.4,0.3-0.5,0.4
							C145.2,88.6,145.1,88.6,145,88.7"/>
						<path class="st46" d="M145.8,88.1l-0.7-0.4c0,0,0.1-0.1,0.1-0.2l0.7,0.4C145.9,88,145.8,88.1,145.8,88.1"/>
						<path class="st45" d="M145.9,88l-0.7-0.4c0,0,0.1-0.1,0.1-0.2l0.7,0.4C146,87.9,146,87.9,145.9,88"/>
						<path class="st37" d="M146,87.8l-0.7-0.4c0-0.1,0.1-0.1,0.1-0.2l0.7,0.4C146.1,87.7,146.1,87.8,146,87.8"/>
						<path class="st36" d="M146.2,87.7l-0.7-0.4c0-0.1,0.1-0.1,0.1-0.2l0.7,0.4C146.3,87.5,146.2,87.6,146.2,87.7"/>
						<path class="st35" d="M146.3,87.5l-0.7-0.4c0.1-0.1,0.1-0.2,0.2-0.3l0.7,0.4C146.4,87.3,146.4,87.4,146.3,87.5"/>
						<path class="st34" d="M146.5,87.2l-0.7-0.4c0-0.1,0.1-0.1,0.1-0.2l0.7,0.4C146.5,87.1,146.5,87.1,146.5,87.2"/>
					</g>
				</g>
				<g class="st1">
					<defs>
						<path id="SVGID_13_" class="st1" d="M145.8,83.3l0.7,0.4c-0.2-0.1-0.8,0.1-1,0.2l-0.7-0.4C145,83.4,145.6,83.2,145.8,83.3z"/>
					</defs>
					<clipPath id="SVGID_14_">
						<use xlink:href="#SVGID_13_"  style="overflow:visible;"/>
					</clipPath>
					<g class="st48">
						<path class="st47" d="M145.5,83.9l-0.7-0.4c0,0,0.1-0.1,0.2-0.1l0.7,0.4C145.6,83.8,145.5,83.9,145.5,83.9"/>
						<path class="st46" d="M145.7,83.8l-0.7-0.4c0.1,0,0.2-0.1,0.3-0.1l0.7,0.4C145.8,83.7,145.7,83.8,145.7,83.8"/>
						<path class="st45" d="M145.9,83.7l-0.7-0.4c0.1,0,0.1,0,0.2,0l0.7,0.4C146.1,83.7,146,83.7,145.9,83.7"/>
						<path class="st37" d="M146.1,83.7l-0.7-0.4c0,0,0.1,0,0.1,0l0.7,0.4C146.2,83.6,146.2,83.7,146.1,83.7"/>
						<path class="st36" d="M146.2,83.6l-0.7-0.4c0,0,0.1,0,0.1,0L146.2,83.6C146.3,83.6,146.3,83.6,146.2,83.6"/>
						<path class="st35" d="M146.3,83.6l-0.7-0.4c0,0,0,0,0.1,0L146.3,83.6C146.4,83.7,146.3,83.6,146.3,83.6"/>
						<path class="st34" d="M146.4,83.7l-0.7-0.4c0,0,0,0,0,0L146.4,83.7C146.4,83.7,146.4,83.7,146.4,83.7"/>
						<path class="st33" d="M146.4,83.7l-0.7-0.4c0,0,0,0,0,0L146.4,83.7C146.4,83.7,146.4,83.7,146.4,83.7"/>
						<path class="st32" d="M146.4,83.7l-0.7-0.4c0,0,0,0,0,0L146.4,83.7C146.5,83.7,146.4,83.7,146.4,83.7"/>
						<polyline class="st31" points="146.5,83.7 145.8,83.3 145.8,83.3 146.5,83.7 146.5,83.7 						"/>
					</g>
				</g>
				<g class="st1">
					<defs>
						<path id="SVGID_15_" class="st1" d="M143.6,89.4l-0.7-0.4c-0.4-0.2-0.6-0.7-0.6-1.2c0-2.1,1.8-3.9,2.5-4.3l0.7,0.4
							c-0.7,0.4-2.5,2.1-2.5,4.3C143,88.7,143.2,89.2,143.6,89.4z"/>
					</defs>
					<clipPath id="SVGID_16_">
						<use xlink:href="#SVGID_15_"  style="overflow:visible;"/>
					</clipPath>
					<g class="st49">
						<path class="st26" d="M143.6,89.4l-0.7-0.4c-0.4-0.2-0.6-0.7-0.6-1.2c0-0.2,0-0.3,0-0.5l0.7,0.4c0,0.2,0,0.3,0,0.5
							C143,88.7,143.2,89.2,143.6,89.4"/>
						<path class="st27" d="M143,87.7l-0.7-0.4c0-0.1,0-0.2,0.1-0.3l0.7,0.4C143,87.4,143,87.5,143,87.7"/>
						<path class="st28" d="M143.1,87.3l-0.7-0.4c0-0.1,0-0.2,0.1-0.3l0.7,0.4C143.1,87.1,143.1,87.2,143.1,87.3"/>
						<path class="st29" d="M143.1,87l-0.7-0.4c0-0.1,0-0.2,0.1-0.2l0.7,0.4C143.2,86.9,143.2,87,143.1,87"/>
						<path class="st30" d="M143.2,86.8l-0.7-0.4c0-0.1,0-0.1,0.1-0.2l0.7,0.4C143.3,86.7,143.2,86.8,143.2,86.8"/>
						<path class="st31" d="M143.3,86.6l-0.7-0.4c0-0.1,0.1-0.1,0.1-0.2l0.7,0.4C143.3,86.5,143.3,86.5,143.3,86.6"/>
						<path class="st32" d="M143.4,86.4l-0.7-0.4c0-0.1,0.1-0.1,0.1-0.2l0.7,0.4C143.4,86.3,143.4,86.4,143.4,86.4"/>
						<path class="st33" d="M143.4,86.2l-0.7-0.4c0-0.1,0.1-0.1,0.1-0.2l0.7,0.4C143.5,86.1,143.5,86.2,143.4,86.2"/>
						<path class="st34" d="M143.5,86l-0.7-0.4c0-0.1,0.1-0.1,0.1-0.2l0.7,0.4C143.6,85.9,143.6,86,143.5,86"/>
						<path class="st35" d="M143.7,85.8l-0.7-0.4c0-0.1,0.1-0.1,0.1-0.2l0.7,0.4C143.7,85.7,143.7,85.8,143.7,85.8"/>
						<path class="st36" d="M143.8,85.6l-0.7-0.4c0-0.1,0.1-0.2,0.1-0.2l0.7,0.4C143.9,85.5,143.8,85.6,143.8,85.6"/>
						<path class="st37" d="M143.9,85.4l-0.7-0.4c0.1-0.1,0.1-0.2,0.2-0.2l0.7,0.4C144,85.2,144,85.3,143.9,85.4"/>
						<path class="st45" d="M144.1,85.2l-0.7-0.4c0.1-0.1,0.2-0.2,0.2-0.3l0.7,0.4C144.3,85,144.2,85.1,144.1,85.2"/>
						<path class="st46" d="M144.3,84.9l-0.7-0.4c0.1-0.1,0.2-0.2,0.3-0.4l0.7,0.4C144.6,84.6,144.5,84.7,144.3,84.9"/>
						<path class="st47" d="M144.7,84.5l-0.7-0.4c0.3-0.3,0.6-0.5,0.8-0.6l0.7,0.4C145.3,84,145,84.2,144.7,84.5"/>
					</g>
				</g>
				<g>
					<path class="st43" d="M145.5,83.9c0.3-0.2,1.1-0.4,1.1-0.1c0,0.2-0.2,0.5-0.3,0.6l-0.1,0c-0.4-0.1-0.7,0-1.2,0.3
						c-0.6,0.3-1.3,1.3-1.3,2.7c0,1.6,1,1.6,1.7,1.2c0.5-0.3,0.8-0.6,1.4-1.6l0.1,0.1c-0.4,0.9-1.1,1.8-1.7,2.2c-1.2,0.7-2,0-2-1.1
						C143,86,144.8,84.3,145.5,83.9z"/>
				</g>
			</g>
			<g class="st1">
				<g class="st1">
					<defs>
						<path id="SVGID_17_" class="st1" d="M141.8,90.4l-0.7-0.4c0.1,0,0.1,0,0.2,0c0.2-0.1,0.3-0.3,0.4-0.4l0.7,0.4
							c-0.1,0.1-0.3,0.3-0.4,0.4C141.9,90.5,141.9,90.5,141.8,90.4z"/>
					</defs>
					<clipPath id="SVGID_18_">
						<use xlink:href="#SVGID_17_"  style="overflow:visible;"/>
					</clipPath>
					<g class="st50">
						<polyline class="st31" points="141.8,90.4 141.1,90 141.1,90 141.8,90.5 141.8,90.4 						"/>
						<path class="st32" d="M141.8,90.5l-0.7-0.4c0,0,0,0,0,0L141.8,90.5C141.8,90.5,141.8,90.5,141.8,90.5"/>
						<path class="st33" d="M141.8,90.5l-0.7-0.4c0,0,0,0,0,0L141.8,90.5C141.8,90.5,141.8,90.5,141.8,90.5"/>
						<path class="st34" d="M141.8,90.5l-0.7-0.4c0,0,0,0,0,0L141.8,90.5C141.8,90.5,141.8,90.5,141.8,90.5"/>
						<path class="st35" d="M141.8,90.5l-0.7-0.4c0,0,0,0,0,0L141.8,90.5C141.9,90.5,141.8,90.5,141.8,90.5"/>
						<path class="st36" d="M141.9,90.5l-0.7-0.4c0,0,0,0,0,0L141.9,90.5C141.9,90.5,141.9,90.5,141.9,90.5"/>
						<path class="st37" d="M141.9,90.5l-0.7-0.4c0,0,0,0,0,0L141.9,90.5C141.9,90.5,141.9,90.5,141.9,90.5"/>
						<path class="st45" d="M141.9,90.5l-0.7-0.4c0,0,0,0,0,0L141.9,90.5C141.9,90.5,141.9,90.5,141.9,90.5"/>
						<path class="st46" d="M141.9,90.5l-0.7-0.4c0,0,0,0,0,0L141.9,90.5C142,90.5,141.9,90.5,141.9,90.5"/>
						<path class="st47" d="M142,90.4l-0.7-0.4c0,0,0,0,0.1,0c0.1-0.1,0.2-0.1,0.3-0.2l0.7,0.4C142.2,90.3,142.1,90.4,142,90.4
							C142,90.4,142,90.4,142,90.4"/>
						<path class="st46" d="M142.3,90.2l-0.7-0.4c0,0,0.1-0.1,0.1-0.1l0.7,0.4C142.4,90.1,142.3,90.2,142.3,90.2"/>
						<path class="st45" d="M142.4,90.1l-0.7-0.4c0,0,0.1-0.1,0.1-0.1L142.4,90.1C142.4,90,142.4,90.1,142.4,90.1"/>
					</g>
				</g>
				<g class="st1">
					<defs>
						<path id="SVGID_19_" class="st1" d="M141.4,91.1l-0.7-0.4c-0.1-0.1-0.2-0.2-0.2-0.4l0.7,0.4C141.2,90.9,141.3,91,141.4,91.1z"
							/>
					</defs>
					<clipPath id="SVGID_20_">
						<use xlink:href="#SVGID_19_"  style="overflow:visible;"/>
					</clipPath>
					<g class="st51">
						<path class="st26" d="M141.4,91.1l-0.7-0.4c-0.1-0.1-0.2-0.2-0.2-0.4l0.7,0.4C141.2,90.9,141.3,91,141.4,91.1"/>
					</g>
				</g>
				<g class="st1">
					<defs>
						<path id="SVGID_21_" class="st1" d="M139.6,91.6l-0.7-0.4c0.2,0.1,0.4,0.1,0.6-0.1c0.3-0.2,0.8-0.8,1-1.2l0.7,0.4
							c-0.2,0.4-0.7,1-1,1.2C140,91.7,139.7,91.7,139.6,91.6z"/>
					</defs>
					<clipPath id="SVGID_22_">
						<use xlink:href="#SVGID_21_"  style="overflow:visible;"/>
					</clipPath>
					<g class="st52">
						<polyline class="st31" points="139.6,91.6 138.9,91.2 138.9,91.2 139.6,91.6 139.6,91.6 						"/>
						<path class="st32" d="M139.6,91.6l-0.7-0.4c0,0,0,0,0,0L139.6,91.6C139.6,91.6,139.6,91.6,139.6,91.6"/>
						<path class="st33" d="M139.6,91.6l-0.7-0.4c0,0,0,0,0,0L139.6,91.6C139.7,91.6,139.6,91.6,139.6,91.6"/>
						<path class="st34" d="M139.7,91.6l-0.7-0.4c0,0,0,0,0,0L139.7,91.6C139.7,91.6,139.7,91.6,139.7,91.6"/>
						<path class="st35" d="M139.7,91.6l-0.7-0.4c0,0,0,0,0,0L139.7,91.6C139.7,91.6,139.7,91.6,139.7,91.6"/>
						<path class="st36" d="M139.8,91.6l-0.7-0.4c0,0,0,0,0.1,0L139.8,91.6C139.8,91.6,139.8,91.6,139.8,91.6"/>
						<path class="st37" d="M139.8,91.6l-0.7-0.4c0,0,0,0,0.1,0L139.8,91.6C139.9,91.6,139.8,91.6,139.8,91.6"/>
						<path class="st45" d="M139.9,91.6l-0.7-0.4c0,0,0,0,0.1,0L139.9,91.6C139.9,91.6,139.9,91.6,139.9,91.6"/>
						<path class="st46" d="M139.9,91.6l-0.7-0.4c0,0,0.1,0,0.1,0L139.9,91.6C140,91.6,140,91.6,139.9,91.6"/>
						<path class="st47" d="M140,91.6l-0.7-0.4c0,0,0.1,0,0.1-0.1c0.1-0.1,0.2-0.2,0.3-0.3l0.7,0.4c-0.1,0.1-0.2,0.2-0.3,0.3
							C140.1,91.6,140.1,91.6,140,91.6"/>
						<path class="st46" d="M140.5,91.3l-0.7-0.4c0.1-0.1,0.1-0.1,0.2-0.2l0.7,0.4C140.6,91.1,140.5,91.2,140.5,91.3"/>
						<path class="st45" d="M140.7,91.1l-0.7-0.4c0-0.1,0.1-0.1,0.1-0.2l0.7,0.4C140.8,91,140.7,91,140.7,91.1"/>
						<path class="st37" d="M140.8,90.9l-0.7-0.4c0-0.1,0.1-0.1,0.1-0.2l0.7,0.4C140.9,90.8,140.8,90.9,140.8,90.9"/>
						<path class="st36" d="M140.9,90.8l-0.7-0.4c0,0,0.1-0.1,0.1-0.1l0.7,0.4C141,90.7,140.9,90.7,140.9,90.8"/>
						<path class="st35" d="M141,90.6l-0.7-0.4c0,0,0-0.1,0.1-0.1l0.7,0.4C141.1,90.5,141,90.6,141,90.6"/>
						<path class="st34" d="M141.1,90.5l-0.7-0.4c0,0,0-0.1,0.1-0.1L141.1,90.5C141.1,90.4,141.1,90.5,141.1,90.5"/>
						<path class="st33" d="M141.1,90.4l-0.7-0.4c0,0,0,0,0,0L141.1,90.4C141.1,90.4,141.1,90.4,141.1,90.4"/>
					</g>
				</g>
				<g>
					<polygon class="st39" points="141.2,90.4 140.4,90 140.4,88.3 141.1,88.7 					"/>
				</g>
				<g class="st1">
					<defs>
						<path id="SVGID_23_" class="st1" d="M139.1,92.3l-0.7-0.4c-0.2-0.1-0.3-0.4-0.3-0.7c0-0.5,0.3-1.1,1-1.7
							c0.5-0.5,1.1-1.1,1.4-1.4l0.7,0.4c-0.2,0.3-0.9,0.9-1.4,1.4c-0.7,0.6-1,1.2-1,1.7C138.8,91.9,138.9,92.1,139.1,92.3z"/>
					</defs>
					<clipPath id="SVGID_24_">
						<use xlink:href="#SVGID_23_"  style="overflow:visible;"/>
					</clipPath>
					<g class="st53">
						<path class="st26" d="M139.1,92.3l-0.7-0.4c-0.2-0.1-0.3-0.4-0.3-0.7c0-0.1,0-0.1,0-0.2l0.7,0.4c0,0.1,0,0.1,0,0.2
							C138.8,91.9,138.9,92.1,139.1,92.3"/>
						<path class="st27" d="M138.8,91.3l-0.7-0.4c0,0,0-0.1,0-0.1l0.7,0.4C138.8,91.3,138.8,91.3,138.8,91.3"/>
						<path class="st28" d="M138.8,91.2l-0.7-0.4c0,0,0-0.1,0-0.1L138.8,91.2C138.8,91.2,138.8,91.2,138.8,91.2"/>
						<path class="st29" d="M138.8,91.1l-0.7-0.4c0,0,0-0.1,0-0.1L138.8,91.1C138.8,91.1,138.8,91.1,138.8,91.1"/>
						<path class="st30" d="M138.8,91.1l-0.7-0.4c0,0,0,0,0-0.1L138.8,91.1C138.9,91,138.8,91,138.8,91.1"/>
						<path class="st31" d="M138.9,91l-0.7-0.4c0,0,0,0,0-0.1L138.9,91C138.9,90.9,138.9,91,138.9,91"/>
						<path class="st32" d="M138.9,90.9l-0.7-0.4c0,0,0,0,0-0.1L138.9,90.9C138.9,90.9,138.9,90.9,138.9,90.9"/>
						<path class="st33" d="M138.9,90.8l-0.7-0.4c0,0,0,0,0-0.1L138.9,90.8C139,90.8,138.9,90.8,138.9,90.8"/>
						<path class="st34" d="M139,90.8l-0.7-0.4c0,0,0-0.1,0-0.1L139,90.8C139,90.7,139,90.7,139,90.8"/>
						<path class="st35" d="M139,90.7l-0.7-0.4c0,0,0-0.1,0.1-0.1L139,90.7C139,90.6,139,90.7,139,90.7"/>
						<path class="st36" d="M139.1,90.6l-0.7-0.4c0,0,0-0.1,0.1-0.1l0.7,0.4C139.1,90.5,139.1,90.6,139.1,90.6"/>
						<path class="st37" d="M139.1,90.5l-0.7-0.4c0,0,0.1-0.1,0.1-0.1l0.7,0.4C139.2,90.4,139.2,90.5,139.1,90.5"/>
						<path class="st45" d="M139.2,90.4l-0.7-0.4c0-0.1,0.1-0.1,0.1-0.2l0.7,0.4C139.3,90.3,139.3,90.3,139.2,90.4"/>
						<path class="st46" d="M139.4,90.2l-0.7-0.4c0.1-0.1,0.2-0.2,0.3-0.3l0.7,0.4C139.5,90,139.4,90.1,139.4,90.2"/>
						<path class="st47" d="M139.6,89.9l-0.7-0.4c0,0,0.1-0.1,0.1-0.1c0.2-0.2,0.4-0.4,0.6-0.5l0.7,0.4c-0.2,0.2-0.4,0.4-0.6,0.5
							C139.7,89.8,139.7,89.9,139.6,89.9"/>
						<path class="st46" d="M140.3,89.3l-0.7-0.4c0.3-0.3,0.5-0.5,0.7-0.7l0.7,0.4C140.9,88.7,140.6,89,140.3,89.3"/>
						<path class="st45" d="M141,88.5l-0.7-0.4c0,0,0.1-0.1,0.1-0.1l0.7,0.4C141.1,88.4,141.1,88.5,141,88.5"/>
					</g>
				</g>
				<g class="st1">
					<defs>
						<path id="SVGID_25_" class="st1" d="M140.1,86.8l0.7,0.4c0.3,0.2,0.3,0.8,0.3,1.1l-0.7-0.4C140.4,87.6,140.4,87,140.1,86.8z"
							/>
					</defs>
					<clipPath id="SVGID_26_">
						<use xlink:href="#SVGID_25_"  style="overflow:visible;"/>
					</clipPath>
					<g class="st54">
						<path class="st26" d="M141.1,88.4l-0.7-0.4c0-0.4,0-1-0.3-1.1l0.7,0.4C141.1,87.4,141.1,88,141.1,88.4"/>
					</g>
				</g>
				<g class="st1">
					<defs>
						<path id="SVGID_27_" class="st1" d="M140.6,86.2l0.7,0.4c-0.2-0.1-0.5-0.1-0.8,0.1l-0.7-0.4C140.1,86.2,140.4,86.1,140.6,86.2
							z"/>
					</defs>
					<clipPath id="SVGID_28_">
						<use xlink:href="#SVGID_27_"  style="overflow:visible;"/>
					</clipPath>
					<g class="st55">
						<path class="st47" d="M140.5,86.7l-0.7-0.4c0.1,0,0.1-0.1,0.2-0.1l0.7,0.4C140.6,86.7,140.6,86.7,140.5,86.7"/>
						<path class="st46" d="M140.7,86.7l-0.7-0.4c0,0,0.1,0,0.1,0l0.7,0.4C140.8,86.6,140.7,86.6,140.7,86.7"/>
						<path class="st45" d="M140.8,86.6l-0.7-0.4c0,0,0.1,0,0.1,0l0.7,0.4C140.9,86.6,140.9,86.6,140.8,86.6"/>
						<path class="st37" d="M140.9,86.6l-0.7-0.4c0,0,0.1,0,0.1,0L140.9,86.6C141,86.6,141,86.6,140.9,86.6"/>
						<path class="st36" d="M141,86.6l-0.7-0.4c0,0,0,0,0.1,0L141,86.6C141.1,86.6,141,86.6,141,86.6"/>
						<path class="st35" d="M141.1,86.6l-0.7-0.4c0,0,0,0,0.1,0L141.1,86.6C141.1,86.6,141.1,86.6,141.1,86.6"/>
						<path class="st34" d="M141.2,86.6l-0.7-0.4c0,0,0,0,0.1,0L141.2,86.6C141.2,86.6,141.2,86.6,141.2,86.6"/>
						<path class="st33" d="M141.2,86.6l-0.7-0.4c0,0,0,0,0.1,0L141.2,86.6C141.2,86.6,141.2,86.6,141.2,86.6"/>
						<path class="st32" d="M141.3,86.6l-0.7-0.4c0,0,0,0,0.1,0L141.3,86.6C141.3,86.6,141.3,86.6,141.3,86.6"/>
						<polyline class="st31" points="141.3,86.6 140.6,86.2 140.6,86.2 141.3,86.6 141.3,86.6 						"/>
					</g>
				</g>
				<g class="st1">
					<defs>
						<path id="SVGID_29_" class="st1" d="M139.1,88.4l-0.7-0.4c0.2-0.3,0.9-1.2,1.4-1.6l0.7,0.4C140,87.2,139.4,88,139.1,88.4z"/>
					</defs>
					<clipPath id="SVGID_30_">
						<use xlink:href="#SVGID_29_"  style="overflow:visible;"/>
					</clipPath>
					<g class="st56">
						<path class="st37" d="M139.1,88.4l-0.7-0.4c0.1-0.1,0.1-0.2,0.2-0.3l0.7,0.4C139.2,88.2,139.2,88.3,139.1,88.4"/>
						<path class="st45" d="M139.3,88.1l-0.7-0.4c0.1-0.2,0.3-0.4,0.5-0.6l0.7,0.4C139.7,87.6,139.5,87.9,139.3,88.1"/>
						<path class="st46" d="M139.9,87.4l-0.7-0.4c0.1-0.2,0.3-0.3,0.4-0.5l0.7,0.4C140.1,87.1,140,87.3,139.9,87.4"/>
						<path class="st47" d="M140.3,87l-0.7-0.4c0.1-0.1,0.2-0.2,0.2-0.2l0.7,0.4C140.4,86.8,140.4,86.9,140.3,87"/>
					</g>
				</g>
				<g class="st1">
					<defs>
						<path id="SVGID_31_" class="st1" d="M138.9,89.2l-0.7-0.4c-0.1,0-0.1-0.1-0.1-0.2c0-0.2,0.1-0.4,0.3-0.6l0.7,0.4
							c-0.2,0.2-0.3,0.4-0.3,0.6C138.8,89.1,138.9,89.1,138.9,89.2z"/>
					</defs>
					<clipPath id="SVGID_32_">
						<use xlink:href="#SVGID_31_"  style="overflow:visible;"/>
					</clipPath>
					<g class="st57">
						<path class="st26" d="M138.9,89.2l-0.7-0.4c-0.1,0-0.1-0.1-0.1-0.2c0,0,0,0,0-0.1l0.7,0.4c0,0,0,0,0,0.1
							C138.8,89.1,138.9,89.1,138.9,89.2"/>
						<path class="st27" d="M138.8,88.9l-0.7-0.4c0,0,0,0,0,0L138.8,88.9C138.8,88.9,138.8,88.9,138.8,88.9"/>
						<path class="st28" d="M138.8,88.8l-0.7-0.4c0,0,0,0,0,0L138.8,88.8C138.8,88.8,138.8,88.8,138.8,88.8"/>
						<path class="st29" d="M138.8,88.8l-0.7-0.4c0,0,0,0,0,0L138.8,88.8C138.9,88.8,138.8,88.8,138.8,88.8"/>
						<path class="st30" d="M138.9,88.8l-0.7-0.4c0,0,0,0,0,0L138.9,88.8C138.9,88.8,138.9,88.8,138.9,88.8"/>
						<path class="st31" d="M138.9,88.7l-0.7-0.4c0,0,0,0,0,0L138.9,88.7C138.9,88.7,138.9,88.7,138.9,88.7"/>
						<path class="st32" d="M138.9,88.7l-0.7-0.4c0,0,0,0,0,0L138.9,88.7C138.9,88.7,138.9,88.7,138.9,88.7"/>
						<path class="st33" d="M138.9,88.7l-0.7-0.4c0,0,0,0,0,0L138.9,88.7C138.9,88.7,138.9,88.7,138.9,88.7"/>
						<path class="st34" d="M138.9,88.6l-0.7-0.4c0,0,0,0,0,0L138.9,88.6C138.9,88.6,138.9,88.6,138.9,88.6"/>
						<path class="st35" d="M138.9,88.6l-0.7-0.4c0,0,0,0,0-0.1L138.9,88.6C139,88.6,139,88.6,138.9,88.6"/>
						<path class="st36" d="M139,88.5l-0.7-0.4c0,0,0,0,0-0.1L139,88.5C139,88.5,139,88.5,139,88.5"/>
						<path class="st37" d="M139,88.5l-0.7-0.4c0,0,0-0.1,0.1-0.1L139,88.5C139.1,88.4,139,88.5,139,88.5"/>
						<path class="st45" d="M139.1,88.4l-0.7-0.4c0,0,0,0,0,0L139.1,88.4C139.1,88.4,139.1,88.4,139.1,88.4"/>
					</g>
				</g>
				<g>
					<path class="st43" d="M142.5,90l0.1,0.1l-0.9,1c0,0-0.2,0-0.3,0c-0.1-0.1-0.2-0.2-0.2-0.4c-0.4,0.6-0.8,1.2-1.2,1.5
						c-0.7,0.4-1.2,0.1-1.2-0.6c0-0.5,0.3-1.1,1-1.7c0.5-0.5,1.1-1.1,1.4-1.4c0-0.6,0-1.6-0.9-1c-0.2,0.1-0.7,0.5-0.9,1.5
						c0,0.1-0.1,0.2-0.2,0.3c-0.1,0.1-0.3,0-0.3-0.2c0-0.2,0.1-0.4,0.3-0.6c0.2-0.3,0.9-1.2,1.4-1.6c0.5-0.3,1.1-0.3,1.1,0.7l0,2.5
						c0,0.5,0.2,0.6,0.4,0.5C142.2,90.3,142.3,90.2,142.5,90z M141.2,90.4l0-1.7c-0.2,0.3-0.8,0.9-1.1,1.1c-0.5,0.5-0.7,0.8-0.7,1.3
						c0,0.6,0.4,0.7,0.8,0.5C140.5,91.3,140.9,90.8,141.2,90.4"/>
				</g>
			</g>
			<g class="st1">
				<g class="st1">
					<defs>
						<path id="SVGID_33_" class="st1" d="M137.6,93l-0.7-0.4c0.1,0.1,0.3,0,0.6-0.1l0.7,0.4C137.9,93,137.7,93.1,137.6,93z"/>
					</defs>
					<clipPath id="SVGID_34_">
						<use xlink:href="#SVGID_33_"  style="overflow:visible;"/>
					</clipPath>
					<g class="st58">
						<polyline class="st31" points="137.6,93 136.9,92.6 136.9,92.6 137.6,93 137.6,93 						"/>
						<path class="st32" d="M137.6,93l-0.7-0.4c0,0,0,0,0,0L137.6,93C137.6,93,137.6,93,137.6,93"/>
						<path class="st33" d="M137.6,93l-0.7-0.4c0,0,0,0,0,0L137.6,93C137.6,93,137.6,93,137.6,93"/>
						<path class="st34" d="M137.6,93l-0.7-0.4c0,0,0,0,0,0L137.6,93C137.7,93,137.7,93,137.6,93"/>
						<path class="st35" d="M137.7,93.1l-0.7-0.4c0,0,0,0,0,0L137.7,93.1C137.7,93.1,137.7,93.1,137.7,93.1"/>
						<path class="st36" d="M137.7,93.1l-0.7-0.4c0,0,0,0,0,0L137.7,93.1C137.7,93.1,137.7,93.1,137.7,93.1"/>
						<path class="st37" d="M137.7,93.1l-0.7-0.4c0,0,0,0,0,0L137.7,93.1C137.7,93.1,137.7,93.1,137.7,93.1"/>
						<path class="st45" d="M137.8,93l-0.7-0.4c0,0,0,0,0.1,0L137.8,93C137.8,93,137.8,93,137.8,93"/>
						<path class="st46" d="M137.8,93l-0.7-0.4c0,0,0.1,0,0.1,0l0.7,0.4C137.9,93,137.9,93,137.8,93"/>
						<path class="st47" d="M137.9,93l-0.7-0.4c0.1,0,0.1-0.1,0.2-0.1l0.7,0.4C138.1,92.9,138,93,137.9,93"/>
					</g>
				</g>
				<g>
					<polygon class="st39" points="136.1,94.2 135.4,93.8 135.4,93.7 136.1,94.1 					"/>
				</g>
				<g class="st1">
					<defs>
						<path id="SVGID_35_" class="st1" d="M136.1,94.1l-0.7-0.4c0.7-0.4,0.9-0.7,0.9-1.5l0.7,0.4C137,93.4,136.8,93.6,136.1,94.1z"
							/>
					</defs>
					<clipPath id="SVGID_36_">
						<use xlink:href="#SVGID_35_"  style="overflow:visible;"/>
					</clipPath>
					<g class="st59">
						<path class="st47" d="M136.1,94.1l-0.7-0.4c0.2-0.1,0.4-0.3,0.5-0.4l0.7,0.4C136.5,93.8,136.3,93.9,136.1,94.1"/>
						<path class="st46" d="M136.6,93.7l-0.7-0.4c0,0,0,0,0.1-0.1L136.6,93.7C136.7,93.6,136.7,93.7,136.6,93.7"/>
						<path class="st45" d="M136.7,93.6l-0.7-0.4c0,0,0,0,0-0.1L136.7,93.6C136.7,93.6,136.7,93.6,136.7,93.6"/>
						<path class="st37" d="M136.7,93.6l-0.7-0.4c0,0,0,0,0,0L136.7,93.6C136.8,93.5,136.7,93.6,136.7,93.6"/>
						<path class="st36" d="M136.8,93.5l-0.7-0.4c0,0,0,0,0,0L136.8,93.5C136.8,93.5,136.8,93.5,136.8,93.5"/>
						<path class="st35" d="M136.8,93.5l-0.7-0.4c0,0,0,0,0,0L136.8,93.5C136.8,93.5,136.8,93.5,136.8,93.5"/>
						<path class="st34" d="M136.8,93.5l-0.7-0.4c0,0,0,0,0,0L136.8,93.5C136.8,93.4,136.8,93.4,136.8,93.5"/>
						<path class="st33" d="M136.8,93.4l-0.7-0.4c0,0,0,0,0,0L136.8,93.4C136.8,93.4,136.8,93.4,136.8,93.4"/>
						<path class="st32" d="M136.8,93.4l-0.7-0.4c0,0,0,0,0,0L136.8,93.4C136.9,93.4,136.9,93.4,136.8,93.4"/>
						<path class="st31" d="M136.9,93.4l-0.7-0.4c0,0,0,0,0,0L136.9,93.4C136.9,93.3,136.9,93.3,136.9,93.4"/>
						<path class="st30" d="M136.9,93.3l-0.7-0.4c0,0,0,0,0,0L136.9,93.3C136.9,93.3,136.9,93.3,136.9,93.3"/>
						<path class="st29" d="M136.9,93.3l-0.7-0.4c0,0,0,0,0-0.1L136.9,93.3C136.9,93.2,136.9,93.2,136.9,93.3"/>
						<path class="st28" d="M136.9,93.2l-0.7-0.4c0,0,0-0.1,0-0.1L136.9,93.2C136.9,93.2,136.9,93.2,136.9,93.2"/>
						<path class="st27" d="M136.9,93.1l-0.7-0.4c0,0,0-0.1,0-0.1L137,93C136.9,93,136.9,93.1,136.9,93.1"/>
						<path class="st26" d="M137,93l-0.7-0.4c0-0.1,0-0.3,0-0.4l0.7,0.4C137,92.7,137,92.9,137,93"/>
					</g>
				</g>
				<g class="st1">
					<defs>
						<path id="SVGID_37_" class="st1" d="M134.8,94.6l-0.7-0.4c0.1,0.1,0.3,0,0.5-0.1l0.7,0.4C135.1,94.6,134.9,94.7,134.8,94.6z"
							/>
					</defs>
					<clipPath id="SVGID_38_">
						<use xlink:href="#SVGID_37_"  style="overflow:visible;"/>
					</clipPath>
					<g class="st60">
						<polyline class="st31" points="134.8,94.6 134.1,94.2 134.1,94.2 134.8,94.6 134.8,94.6 						"/>
						<path class="st32" d="M134.8,94.6l-0.7-0.4c0,0,0,0,0,0L134.8,94.6C134.9,94.6,134.9,94.6,134.8,94.6"/>
						<path class="st33" d="M134.9,94.6l-0.7-0.4c0,0,0,0,0,0L134.9,94.6C134.9,94.6,134.9,94.6,134.9,94.6"/>
						<path class="st34" d="M134.9,94.6l-0.7-0.4c0,0,0,0,0,0L134.9,94.6C134.9,94.6,134.9,94.6,134.9,94.6"/>
						<path class="st35" d="M134.9,94.6l-0.7-0.4c0,0,0,0,0,0L134.9,94.6C134.9,94.6,134.9,94.6,134.9,94.6"/>
						<path class="st36" d="M134.9,94.6l-0.7-0.4c0,0,0,0,0,0L134.9,94.6C135,94.6,134.9,94.6,134.9,94.6"/>
						<path class="st37" d="M135,94.6l-0.7-0.4c0,0,0,0,0,0L135,94.6C135,94.6,135,94.6,135,94.6"/>
						<path class="st45" d="M135,94.6l-0.7-0.4c0,0,0,0,0.1,0L135,94.6C135,94.6,135,94.6,135,94.6"/>
						<path class="st46" d="M135.1,94.6l-0.7-0.4c0,0,0.1,0,0.1,0l0.7,0.4C135.2,94.6,135.1,94.6,135.1,94.6"/>
						<path class="st47" d="M135.2,94.6l-0.7-0.4c0.1,0,0.1-0.1,0.2-0.1l0.7,0.4C135.3,94.5,135.3,94.6,135.2,94.6"/>
					</g>
				</g>
				<g>
					<polygon class="st39" points="137,92.5 136.3,92.1 136.3,90.3 137,90.7 					"/>
				</g>
				<g>
					<polygon class="st39" points="133.3,95.8 132.6,95.4 132.6,95.3 133.3,95.7 					"/>
				</g>
				<g class="st1">
					<defs>
						<path id="SVGID_39_" class="st1" d="M133.3,95.7l-0.7-0.4c0.8-0.5,0.9-0.7,0.9-1.5l0.7,0.4C134.2,95,134.1,95.2,133.3,95.7z"
							/>
					</defs>
					<clipPath id="SVGID_40_">
						<use xlink:href="#SVGID_39_"  style="overflow:visible;"/>
					</clipPath>
					<g class="st61">
						<path class="st47" d="M133.3,95.7l-0.7-0.4c0.2-0.1,0.4-0.3,0.5-0.4l0.7,0.4C133.7,95.4,133.6,95.5,133.3,95.7"/>
						<path class="st46" d="M133.9,95.3l-0.7-0.4c0,0,0,0,0.1-0.1L133.9,95.3C133.9,95.2,133.9,95.3,133.9,95.3"/>
						<path class="st45" d="M133.9,95.2l-0.7-0.4c0,0,0,0,0-0.1L133.9,95.2C134,95.2,133.9,95.2,133.9,95.2"/>
						<path class="st37" d="M134,95.2l-0.7-0.4c0,0,0,0,0,0L134,95.2C134,95.1,134,95.1,134,95.2"/>
						<path class="st36" d="M134,95.1l-0.7-0.4c0,0,0,0,0,0L134,95.1C134,95.1,134,95.1,134,95.1"/>
						<path class="st35" d="M134,95.1l-0.7-0.4c0,0,0,0,0,0L134,95.1C134,95.1,134,95.1,134,95.1"/>
						<path class="st34" d="M134,95.1l-0.7-0.4c0,0,0,0,0,0L134,95.1C134.1,95,134,95,134,95.1"/>
						<path class="st33" d="M134.1,95l-0.7-0.4c0,0,0,0,0,0L134.1,95C134.1,95,134.1,95,134.1,95"/>
						<path class="st32" d="M134.1,95l-0.7-0.4c0,0,0,0,0,0L134.1,95C134.1,95,134.1,95,134.1,95"/>
						<path class="st31" d="M134.1,95l-0.7-0.4c0,0,0,0,0,0L134.1,95C134.1,94.9,134.1,94.9,134.1,95"/>
						<path class="st30" d="M134.1,94.9l-0.7-0.4c0,0,0,0,0,0L134.1,94.9C134.1,94.9,134.1,94.9,134.1,94.9"/>
						<path class="st29" d="M134.1,94.9l-0.7-0.4c0,0,0,0,0-0.1L134.1,94.9C134.1,94.8,134.1,94.8,134.1,94.9"/>
						<path class="st28" d="M134.1,94.8l-0.7-0.4c0,0,0,0,0-0.1L134.1,94.8C134.2,94.8,134.1,94.8,134.1,94.8"/>
						<path class="st27" d="M134.2,94.7l-0.7-0.4c0,0,0-0.1,0-0.1l0.7,0.4C134.2,94.7,134.2,94.7,134.2,94.7"/>
						<path class="st26" d="M134.2,94.6l-0.7-0.4c0-0.1,0-0.3,0-0.4l0.7,0.4C134.2,94.3,134.2,94.5,134.2,94.6"/>
					</g>
				</g>
				<g class="st1">
					<defs>
						<path id="SVGID_41_" class="st1" d="M136,89.4l0.7,0.4c0.2,0.1,0.3,0.5,0.3,1l-0.7-0.4C136.3,89.9,136.2,89.5,136,89.4z"/>
					</defs>
					<clipPath id="SVGID_42_">
						<use xlink:href="#SVGID_41_"  style="overflow:visible;"/>
					</clipPath>
					<g class="st62">
						<path class="st26" d="M137,90.7l-0.7-0.4c0-0.4-0.1-0.8-0.3-1l0.7,0.4C136.9,89.9,137,90.3,137,90.7"/>
					</g>
				</g>
				<g class="st1">
					<defs>
						<path id="SVGID_43_" class="st1" d="M132.1,96.2l-0.7-0.4c0.1,0.1,0.3,0,0.5-0.1l0.7,0.4C132.3,96.2,132.2,96.3,132.1,96.2z"
							/>
					</defs>
					<clipPath id="SVGID_44_">
						<use xlink:href="#SVGID_43_"  style="overflow:visible;"/>
					</clipPath>
					<g class="st63">
						<polyline class="st31" points="132.1,96.2 131.4,95.8 131.4,95.8 132.1,96.2 132.1,96.2 						"/>
						<path class="st32" d="M132.1,96.2l-0.7-0.4c0,0,0,0,0,0L132.1,96.2C132.1,96.2,132.1,96.2,132.1,96.2"/>
						<path class="st33" d="M132.1,96.2l-0.7-0.4c0,0,0,0,0,0L132.1,96.2C132.1,96.2,132.1,96.2,132.1,96.2"/>
						<path class="st34" d="M132.1,96.3l-0.7-0.4c0,0,0,0,0,0L132.1,96.3C132.1,96.3,132.1,96.3,132.1,96.3"/>
						<path class="st35" d="M132.1,96.3l-0.7-0.4c0,0,0,0,0,0L132.1,96.3C132.1,96.3,132.1,96.3,132.1,96.3"/>
						<path class="st36" d="M132.1,96.3l-0.7-0.4c0,0,0,0,0,0L132.1,96.3C132.2,96.3,132.2,96.3,132.1,96.3"/>
						<path class="st37" d="M132.2,96.3l-0.7-0.4c0,0,0,0,0,0L132.2,96.3C132.2,96.3,132.2,96.3,132.2,96.3"/>
						<path class="st45" d="M132.2,96.3l-0.7-0.4c0,0,0,0,0.1,0L132.2,96.3C132.3,96.2,132.2,96.3,132.2,96.3"/>
						<path class="st46" d="M132.3,96.2l-0.7-0.4c0,0,0.1,0,0.1,0l0.7,0.4C132.4,96.2,132.3,96.2,132.3,96.2"/>
						<path class="st47" d="M132.4,96.2l-0.7-0.4c0,0,0.1,0,0.2-0.1l0.7,0.4C132.5,96.2,132.5,96.2,132.4,96.2"/>
					</g>
				</g>
				<g>
					<polygon class="st39" points="134.2,94.2 133.5,93.8 133.5,91.9 134.2,92.3 					"/>
				</g>
				<g class="st1">
					<defs>
						<path id="SVGID_45_" class="st1" d="M136.4,88.7l0.7,0.4c-0.2-0.1-0.5-0.1-0.9,0.1c-0.2,0.1-0.5,0.3-1.7,1.9l-0.7-0.4
							c1.2-1.6,1.5-1.8,1.7-1.9C135.9,88.6,136.2,88.6,136.4,88.7z"/>
					</defs>
					<clipPath id="SVGID_46_">
						<use xlink:href="#SVGID_45_"  style="overflow:visible;"/>
					</clipPath>
					<g class="st64">
						<path class="st37" d="M134.6,91.1l-0.7-0.4c0.2-0.2,0.3-0.4,0.5-0.6l0.7,0.4C134.9,90.7,134.7,90.9,134.6,91.1"/>
						<path class="st45" d="M135,90.5l-0.7-0.4c0.2-0.3,0.4-0.5,0.6-0.7l0.7,0.4C135.5,90,135.3,90.2,135,90.5"/>
						<path class="st46" d="M135.6,89.8l-0.7-0.4c0.1-0.1,0.2-0.2,0.3-0.3l0.7,0.4C135.8,89.6,135.7,89.7,135.6,89.8"/>
						<path class="st47" d="M135.9,89.5l-0.7-0.4c0.2-0.2,0.3-0.2,0.3-0.3c0.1,0,0.1-0.1,0.2-0.1l0.7,0.4c-0.1,0-0.1,0.1-0.2,0.1
							C136.2,89.3,136.1,89.3,135.9,89.5"/>
						<path class="st46" d="M136.4,89.1l-0.7-0.4c0.1,0,0.1,0,0.2-0.1l0.7,0.4C136.5,89.1,136.5,89.1,136.4,89.1"/>
						<path class="st45" d="M136.6,89.1l-0.7-0.4c0,0,0.1,0,0.1,0l0.7,0.4C136.7,89,136.6,89.1,136.6,89.1"/>
						<path class="st37" d="M136.7,89l-0.7-0.4c0,0,0.1,0,0.1,0L136.7,89C136.8,89,136.7,89,136.7,89"/>
						<path class="st36" d="M136.8,89l-0.7-0.4c0,0,0.1,0,0.1,0L136.8,89C136.8,89,136.8,89,136.8,89"/>
						<path class="st35" d="M136.9,89l-0.7-0.4c0,0,0,0,0.1,0L136.9,89C136.9,89,136.9,89,136.9,89"/>
						<path class="st34" d="M136.9,89l-0.7-0.4c0,0,0,0,0.1,0L136.9,89C137,89,137,89,136.9,89"/>
						<path class="st33" d="M137,89.1l-0.7-0.4c0,0,0,0,0.1,0L137,89.1C137,89.1,137,89.1,137,89.1"/>
						<path class="st32" d="M137.1,89.1l-0.7-0.4c0,0,0,0,0.1,0L137.1,89.1C137.1,89.1,137.1,89.1,137.1,89.1"/>
						<polyline class="st31" points="137.1,89.1 136.4,88.7 136.4,88.7 137.1,89.1 137.1,89.1 						"/>
					</g>
				</g>
				<g>
					<polygon class="st39" points="130.6,97.4 129.9,97 129.9,96.9 130.6,97.3 					"/>
				</g>
				<g class="st1">
					<defs>
						<path id="SVGID_47_" class="st1" d="M130.6,97.3l-0.7-0.4c0.7-0.5,0.9-0.7,0.9-1.4l0.7,0.4C131.4,96.6,131.3,96.8,130.6,97.3z
							"/>
					</defs>
					<clipPath id="SVGID_48_">
						<use xlink:href="#SVGID_47_"  style="overflow:visible;"/>
					</clipPath>
					<g class="st65">
						<path class="st47" d="M130.6,97.3l-0.7-0.4c0.2-0.1,0.4-0.3,0.5-0.4l0.7,0.4C131,97,130.8,97.1,130.6,97.3"/>
						<path class="st46" d="M131.1,96.9l-0.7-0.4c0,0,0-0.1,0.1-0.1L131.1,96.9C131.1,96.8,131.1,96.9,131.1,96.9"/>
						<path class="st45" d="M131.2,96.8l-0.7-0.4c0,0,0,0,0-0.1L131.2,96.8C131.2,96.8,131.2,96.8,131.2,96.8"/>
						<path class="st37" d="M131.2,96.8l-0.7-0.4c0,0,0,0,0,0L131.2,96.8C131.2,96.7,131.2,96.7,131.2,96.8"/>
						<path class="st36" d="M131.2,96.7l-0.7-0.4c0,0,0,0,0,0L131.2,96.7C131.2,96.7,131.2,96.7,131.2,96.7"/>
						<path class="st35" d="M131.2,96.7l-0.7-0.4c0,0,0,0,0,0L131.2,96.7C131.3,96.7,131.3,96.7,131.2,96.7"/>
						<path class="st34" d="M131.3,96.6l-0.7-0.4c0,0,0,0,0,0L131.3,96.6C131.3,96.6,131.3,96.6,131.3,96.6"/>
						<path class="st33" d="M131.3,96.6l-0.7-0.4c0,0,0,0,0,0L131.3,96.6C131.3,96.6,131.3,96.6,131.3,96.6"/>
						<path class="st32" d="M131.3,96.6l-0.7-0.4c0,0,0,0,0,0L131.3,96.6C131.3,96.6,131.3,96.6,131.3,96.6"/>
						<path class="st31" d="M131.3,96.5l-0.7-0.4c0,0,0,0,0,0L131.3,96.5C131.3,96.5,131.3,96.5,131.3,96.5"/>
						<path class="st30" d="M131.3,96.5l-0.7-0.4c0,0,0,0,0,0L131.3,96.5C131.3,96.5,131.3,96.5,131.3,96.5"/>
						<path class="st29" d="M131.4,96.5l-0.7-0.4c0,0,0,0,0-0.1L131.4,96.5C131.4,96.4,131.4,96.4,131.4,96.5"/>
						<path class="st28" d="M131.4,96.4l-0.7-0.4c0,0,0,0,0-0.1L131.4,96.4C131.4,96.4,131.4,96.4,131.4,96.4"/>
						<path class="st27" d="M131.4,96.3l-0.7-0.4c0,0,0-0.1,0-0.1l0.7,0.4C131.4,96.3,131.4,96.3,131.4,96.3"/>
						<path class="st26" d="M131.4,96.2l-0.7-0.4c0-0.1,0-0.2,0-0.4l0.7,0.4C131.4,96,131.4,96.1,131.4,96.2"/>
					</g>
				</g>
				<g class="st1">
					<defs>
						<path id="SVGID_49_" class="st1" d="M133.2,91l0.7,0.4c0.2,0.1,0.3,0.5,0.3,0.9l-0.7-0.4C133.5,91.5,133.4,91.1,133.2,91z"/>
					</defs>
					<clipPath id="SVGID_50_">
						<use xlink:href="#SVGID_49_"  style="overflow:visible;"/>
					</clipPath>
					<g class="st66">
						<path class="st26" d="M134.2,92.3l-0.7-0.4c0-0.4-0.1-0.8-0.3-0.9l0.7,0.4C134.1,91.5,134.2,91.9,134.2,92.3"/>
					</g>
				</g>
				<g>
					<polygon class="st39" points="131.4,95.8 130.7,95.4 130.7,93.1 131.4,93.6 					"/>
				</g>
				<g class="st1">
					<defs>
						<path id="SVGID_51_" class="st1" d="M133.6,90.3l0.7,0.4c-0.2-0.1-0.5-0.1-0.8,0c-0.3,0.2-0.6,0.4-1.6,1.8l-0.7-0.4
							c1-1.4,1.3-1.6,1.6-1.8C133,90.2,133.3,90.2,133.6,90.3z"/>
					</defs>
					<clipPath id="SVGID_52_">
						<use xlink:href="#SVGID_51_"  style="overflow:visible;"/>
					</clipPath>
					<g class="st67">
						<path class="st37" d="M131.9,92.6l-0.7-0.4c0.2-0.3,0.4-0.6,0.6-0.8l0.7,0.4C132.3,92,132.1,92.3,131.9,92.6"/>
						<path class="st45" d="M132.5,91.8l-0.7-0.4c0.2-0.2,0.3-0.3,0.4-0.5l0.7,0.4C132.8,91.5,132.6,91.6,132.5,91.8"/>
						<path class="st46" d="M132.9,91.4l-0.7-0.4c0.1-0.1,0.2-0.2,0.2-0.2l0.7,0.4C133,91.2,133,91.3,132.9,91.4"/>
						<path class="st47" d="M133.1,91.1l-0.7-0.4c0.2-0.2,0.3-0.2,0.4-0.3c0,0,0.1,0,0.1-0.1l0.7,0.4c0,0-0.1,0-0.1,0.1
							C133.4,90.9,133.3,90.9,133.1,91.1"/>
						<path class="st46" d="M133.6,90.7l-0.7-0.4c0,0,0.1,0,0.1,0l0.7,0.4C133.7,90.7,133.7,90.7,133.6,90.7"/>
						<path class="st45" d="M133.7,90.7l-0.7-0.4c0,0,0.1,0,0.1,0L133.7,90.7C133.8,90.7,133.8,90.7,133.7,90.7"/>
						<path class="st37" d="M133.8,90.7l-0.7-0.4c0,0,0.1,0,0.1,0L133.8,90.7C133.9,90.7,133.8,90.7,133.8,90.7"/>
						<path class="st36" d="M133.9,90.7l-0.7-0.4c0,0,0.1,0,0.1,0L133.9,90.7C134,90.7,133.9,90.7,133.9,90.7"/>
						<path class="st35" d="M134,90.7l-0.7-0.4c0,0,0,0,0.1,0L134,90.7C134,90.7,134,90.7,134,90.7"/>
						<path class="st34" d="M134.1,90.7l-0.7-0.4c0,0,0,0,0.1,0L134.1,90.7C134.1,90.7,134.1,90.7,134.1,90.7"/>
						<path class="st33" d="M134.1,90.7l-0.7-0.4c0,0,0,0,0.1,0L134.1,90.7C134.2,90.7,134.1,90.7,134.1,90.7"/>
						<path class="st32" d="M134.2,90.7l-0.7-0.4c0,0,0,0,0.1,0L134.2,90.7C134.2,90.7,134.2,90.7,134.2,90.7"/>
						<polyline class="st31" points="134.3,90.8 133.6,90.3 133.6,90.3 134.3,90.8 134.3,90.8 						"/>
					</g>
				</g>
				<g class="st1">
					<defs>
						<path id="SVGID_53_" class="st1" d="M130.6,92.5l0.7,0.4c0.1,0.1,0.1,0.3,0.1,0.7l-0.7-0.4C130.7,92.7,130.7,92.5,130.6,92.5z
							"/>
					</defs>
					<clipPath id="SVGID_54_">
						<use xlink:href="#SVGID_53_"  style="overflow:visible;"/>
					</clipPath>
					<g class="st68">
						<path class="st26" d="M131.4,93.6l-0.7-0.4c0-0.4,0-0.6-0.1-0.7l0.7,0.4C131.4,92.9,131.4,93.1,131.4,93.6"/>
					</g>
				</g>
				<g>
					<path class="st43" d="M131.9,91.7l0,0.9c1-1.4,1.3-1.6,1.6-1.8c0.4-0.2,0.9-0.2,1.1,0.3c1.2-1.6,1.5-1.8,1.7-1.9
						c0.7-0.4,1.2-0.1,1.2,0.7l0,2.4c0,0.8,0.1,0.9,0.7,0.6l0,0.2l-2,1.2l0-0.2c0.7-0.4,0.9-0.7,0.9-1.5l0-1.8
						c0-0.7-0.2-1.3-1.1-0.8c-0.4,0.3-0.9,0.8-1.3,1.4c0,0.2,0,0.3,0,0.3l0,2.2c0,0.8,0.1,0.9,0.7,0.6l0,0.2l-2.1,1.2l0-0.2
						c0.8-0.5,0.9-0.7,0.9-1.5l0-1.9c0-0.7-0.2-1.3-1.1-0.8c-0.5,0.3-0.9,0.9-1.2,1.4l0,2.6c0,0.8,0.1,0.9,0.7,0.6l0,0.2l-2,1.2
						l0-0.2c0.7-0.5,0.9-0.7,0.9-1.4l0-2.3c0-0.8,0-0.8-0.7-0.6l0-0.1C131.2,92.5,131.6,92.1,131.9,91.7z"/>
				</g>
				<g>
					<polygon class="st39" points="130.7,93 130,92.6 130,92.4 130.7,92.8 					"/>
				</g>
				<g class="st1">
					<defs>
						<path id="SVGID_55_" class="st1" d="M130.7,92.8l-0.7-0.4c0.4-0.3,0.8-0.7,1.2-1.2l0.7,0.4C131.6,92.1,131.2,92.5,130.7,92.8z
							"/>
					</defs>
					<clipPath id="SVGID_56_">
						<use xlink:href="#SVGID_55_"  style="overflow:visible;"/>
					</clipPath>
					<g class="st69">
						<path class="st47" d="M130.7,92.8l-0.7-0.4c0.2-0.2,0.5-0.4,0.7-0.6l0.7,0.4C131.2,92.4,131,92.6,130.7,92.8"/>
						<path class="st46" d="M131.4,92.2l-0.7-0.4c0.1-0.1,0.2-0.2,0.2-0.3l0.7,0.4C131.6,92.1,131.5,92.1,131.4,92.2"/>
						<path class="st45" d="M131.7,92l-0.7-0.4c0-0.1,0.1-0.1,0.1-0.2l0.7,0.4C131.8,91.9,131.7,91.9,131.7,92"/>
						<path class="st37" d="M131.8,91.8l-0.7-0.4c0,0,0.1-0.1,0.1-0.1l0.7,0.4C131.9,91.7,131.8,91.8,131.8,91.8"/>
					</g>
				</g>
			</g>
			<g class="st1">
				<g class="st1">
					<defs>
						<path id="SVGID_57_" class="st1" d="M128.6,98.2l-0.7-0.4c0.1,0.1,0.3,0,0.8-0.2l0.7,0.4C129,98.2,128.8,98.2,128.6,98.2z"/>
					</defs>
					<clipPath id="SVGID_58_">
						<use xlink:href="#SVGID_57_"  style="overflow:visible;"/>
					</clipPath>
					<g class="st70">
						<polyline class="st31" points="128.6,98.2 127.9,97.8 127.9,97.8 128.6,98.2 128.6,98.2 						"/>
						<path class="st32" d="M128.6,98.2l-0.7-0.4c0,0,0,0,0,0L128.6,98.2C128.7,98.2,128.6,98.2,128.6,98.2"/>
						<path class="st33" d="M128.7,98.2l-0.7-0.4c0,0,0,0,0,0L128.7,98.2C128.7,98.2,128.7,98.2,128.7,98.2"/>
						<path class="st34" d="M128.7,98.2l-0.7-0.4c0,0,0,0,0,0L128.7,98.2C128.7,98.2,128.7,98.2,128.7,98.2"/>
						<path class="st35" d="M128.7,98.2l-0.7-0.4c0,0,0,0,0,0L128.7,98.2C128.7,98.2,128.7,98.2,128.7,98.2"/>
						<path class="st36" d="M128.7,98.2l-0.7-0.4c0,0,0,0,0,0L128.7,98.2C128.7,98.2,128.7,98.2,128.7,98.2"/>
						<path class="st37" d="M128.8,98.2l-0.7-0.4c0,0,0,0,0,0L128.8,98.2C128.8,98.2,128.8,98.2,128.8,98.2"/>
						<path class="st45" d="M128.8,98.2l-0.7-0.4c0,0,0,0,0.1,0L128.8,98.2C128.9,98.2,128.8,98.2,128.8,98.2"/>
						<path class="st46" d="M128.9,98.2l-0.7-0.4c0,0,0.1,0,0.2-0.1l0.7,0.4C129,98.1,128.9,98.2,128.9,98.2"/>
						<path class="st47" d="M129,98.1l-0.7-0.4c0.1,0,0.2-0.1,0.4-0.2l0.7,0.4C129.3,98,129.1,98.1,129,98.1"/>
					</g>
				</g>
				<g>
					<polygon class="st39" points="127.3,99.3 126.6,98.9 126.6,98.7 127.3,99.2 					"/>
				</g>
				<g class="st1">
					<defs>
						<path id="SVGID_59_" class="st1" d="M127.3,99.2l-0.7-0.4c0.6-0.4,0.7-0.6,0.7-1.4l0.7,0.4C128,98.5,127.9,98.8,127.3,99.2z"
							/>
					</defs>
					<clipPath id="SVGID_60_">
						<use xlink:href="#SVGID_59_"  style="overflow:visible;"/>
					</clipPath>
					<g class="st71">
						<path class="st47" d="M127.3,99.2l-0.7-0.4c0.2-0.1,0.3-0.2,0.4-0.3l0.7,0.4C127.6,98.9,127.5,99,127.3,99.2"/>
						<path class="st46" d="M127.7,98.8l-0.7-0.4c0,0,0,0,0.1-0.1L127.7,98.8C127.8,98.8,127.7,98.8,127.7,98.8"/>
						<path class="st45" d="M127.8,98.8l-0.7-0.4c0,0,0,0,0,0L127.8,98.8C127.8,98.8,127.8,98.8,127.8,98.8"/>
						<path class="st37" d="M127.8,98.7l-0.7-0.4c0,0,0,0,0,0L127.8,98.7C127.8,98.7,127.8,98.7,127.8,98.7"/>
						<path class="st36" d="M127.8,98.7l-0.7-0.4c0,0,0,0,0,0L127.8,98.7C127.8,98.7,127.8,98.7,127.8,98.7"/>
						<path class="st35" d="M127.9,98.7l-0.7-0.4c0,0,0,0,0,0L127.9,98.7C127.9,98.7,127.9,98.7,127.9,98.7"/>
						<path class="st34" d="M127.9,98.6l-0.7-0.4c0,0,0,0,0,0L127.9,98.6C127.9,98.6,127.9,98.6,127.9,98.6"/>
						<path class="st33" d="M127.9,98.6l-0.7-0.4c0,0,0,0,0,0L127.9,98.6C127.9,98.6,127.9,98.6,127.9,98.6"/>
						<path class="st32" d="M127.9,98.6l-0.7-0.4c0,0,0,0,0,0L127.9,98.6C127.9,98.6,127.9,98.6,127.9,98.6"/>
						<path class="st31" d="M127.9,98.6l-0.7-0.4c0,0,0,0,0,0L127.9,98.6C127.9,98.5,127.9,98.5,127.9,98.6"/>
						<path class="st30" d="M127.9,98.5l-0.7-0.4c0,0,0,0,0,0L127.9,98.5C127.9,98.5,127.9,98.5,127.9,98.5"/>
						<path class="st29" d="M127.9,98.5l-0.7-0.4c0,0,0,0,0-0.1L127.9,98.5C128,98.4,128,98.5,127.9,98.5"/>
						<path class="st28" d="M128,98.4l-0.7-0.4c0,0,0,0,0-0.1L128,98.4C128,98.4,128,98.4,128,98.4"/>
						<path class="st27" d="M128,98.4l-0.7-0.4c0,0,0-0.1,0-0.1l0.7,0.4C128,98.3,128,98.3,128,98.4"/>
						<path class="st26" d="M128,98.2l-0.7-0.4c0-0.1,0-0.3,0-0.4l0.7,0.4C128,98,128,98.1,128,98.2"/>
					</g>
				</g>
				<g>
					<polygon class="st40" points="128.5,95.1 127.8,94.6 127.8,94.6 128.5,95 					"/>
				</g>
				<g>
					<polygon class="st39" points="128,97.8 127.3,97.4 127.3,95.1 128,95.5 					"/>
				</g>
				<g class="st1">
					<defs>
						<path id="SVGID_61_" class="st1" d="M129.4,92.5l0.7,0.4c-0.1,0-0.2-0.1-0.4,0c-0.5,0.3-1,1.3-1.3,2.1l-0.7-0.4
							c0.2-0.8,0.8-1.8,1.3-2.1C129.2,92.4,129.4,92.4,129.4,92.5z"/>
					</defs>
					<clipPath id="SVGID_62_">
						<use xlink:href="#SVGID_61_"  style="overflow:visible;"/>
					</clipPath>
					<g class="st72">
						<path class="st29" d="M128.5,95l-0.7-0.4c0,0,0-0.1,0-0.1L128.5,95C128.5,95,128.5,95,128.5,95"/>
						<path class="st30" d="M128.5,95l-0.7-0.4c0-0.1,0.1-0.2,0.1-0.2l0.7,0.4C128.6,94.8,128.6,94.9,128.5,95"/>
						<path class="st31" d="M128.6,94.7l-0.7-0.4c0-0.1,0.1-0.2,0.1-0.3l0.7,0.4C128.7,94.5,128.7,94.6,128.6,94.7"/>
						<path class="st32" d="M128.7,94.5L128,94c0-0.1,0.1-0.2,0.1-0.2l0.7,0.4C128.8,94.3,128.8,94.4,128.7,94.5"/>
						<path class="st33" d="M128.8,94.2l-0.7-0.4c0-0.1,0.1-0.2,0.1-0.2L129,94C128.9,94.1,128.9,94.1,128.8,94.2"/>
						<path class="st34" d="M129,94l-0.7-0.4c0-0.1,0.1-0.1,0.1-0.2l0.7,0.4C129,93.9,129,93.9,129,94"/>
						<path class="st35" d="M129.1,93.8l-0.7-0.4c0-0.1,0.1-0.1,0.1-0.2l0.7,0.4C129.1,93.7,129.1,93.7,129.1,93.8"/>
						<path class="st36" d="M129.2,93.6l-0.7-0.4c0-0.1,0.1-0.1,0.1-0.1l0.7,0.4C129.2,93.5,129.2,93.6,129.2,93.6"/>
						<path class="st37" d="M129.3,93.5l-0.7-0.4c0,0,0.1-0.1,0.1-0.1l0.7,0.4C129.3,93.4,129.3,93.4,129.3,93.5"/>
						<path class="st45" d="M129.4,93.3l-0.7-0.4c0,0,0.1-0.1,0.1-0.1l0.7,0.4C129.4,93.3,129.4,93.3,129.4,93.3"/>
						<path class="st46" d="M129.5,93.2l-0.7-0.4c0,0,0.1-0.1,0.1-0.1l0.7,0.4C129.5,93.2,129.5,93.2,129.5,93.2"/>
						<path class="st47" d="M129.6,93.1l-0.7-0.4c0.1-0.1,0.2-0.1,0.2-0.2c0,0,0,0,0.1,0l0.7,0.4c0,0,0,0-0.1,0
							C129.7,93,129.6,93,129.6,93.1"/>
						<path class="st46" d="M129.9,92.9l-0.7-0.4c0,0,0,0,0.1,0L129.9,92.9C129.9,92.9,129.9,92.9,129.9,92.9"/>
						<path class="st45" d="M129.9,92.9l-0.7-0.4c0,0,0,0,0,0L129.9,92.9C129.9,92.9,129.9,92.9,129.9,92.9"/>
						<path class="st37" d="M130,92.9l-0.7-0.4c0,0,0,0,0,0L130,92.9C130,92.9,130,92.9,130,92.9"/>
						<path class="st36" d="M130,92.9l-0.7-0.4c0,0,0,0,0,0L130,92.9C130,92.9,130,92.9,130,92.9"/>
						<path class="st35" d="M130,92.9l-0.7-0.4c0,0,0,0,0,0L130,92.9C130.1,92.9,130,92.9,130,92.9"/>
						<path class="st34" d="M130.1,92.9l-0.7-0.4c0,0,0,0,0,0L130.1,92.9C130.1,92.9,130.1,92.9,130.1,92.9"/>
						<path class="st33" d="M130.1,92.9l-0.7-0.4c0,0,0,0,0,0L130.1,92.9C130.1,92.9,130.1,92.9,130.1,92.9"/>
						<path class="st32" d="M130.1,92.9l-0.7-0.4c0,0,0,0,0,0L130.1,92.9C130.1,92.9,130.1,92.9,130.1,92.9"/>
						<polyline class="st31" points="130.1,92.9 129.4,92.5 129.4,92.5 130.2,92.9 130.1,92.9 						"/>
					</g>
				</g>
				<g class="st1">
					<defs>
						<path id="SVGID_63_" class="st1" d="M127.2,94.4l0.7,0.4c0.1,0.1,0.1,0.3,0.1,0.7l-0.7-0.4C127.3,94.7,127.3,94.5,127.2,94.4z
							"/>
					</defs>
					<clipPath id="SVGID_64_">
						<use xlink:href="#SVGID_63_"  style="overflow:visible;"/>
					</clipPath>
					<g class="st73">
						<path class="st26" d="M128,95.5l-0.7-0.4c0-0.4,0-0.7-0.1-0.7l0.7,0.4C128,94.9,128,95.1,128,95.5"/>
					</g>
				</g>
				<g>
					<path class="st43" d="M128.5,93.6l0,1.4l0,0c0.2-0.8,0.8-1.8,1.3-2.1c0.3-0.2,0.5,0,0.5,0.2c0,0.2-0.2,0.5-0.3,0.6l-0.1,0
						c-0.1-0.1-0.2-0.1-0.4,0c-0.3,0.2-0.7,0.9-0.9,1.9l0,1.9c0,0.7,0.1,0.8,0.9,0.4l0,0.2l-2.1,1.2l0-0.2c0.6-0.4,0.7-0.6,0.7-1.4
						l0-2.3c0-0.8-0.1-0.9-0.7-0.6l0-0.1C127.7,94.5,128.1,94.1,128.5,93.6z"/>
				</g>
				<g>
					<polygon class="st39" points="127.3,94.9 126.6,94.5 126.6,94.4 127.3,94.8 					"/>
				</g>
				<g class="st1">
					<defs>
						<path id="SVGID_65_" class="st1" d="M127.3,94.8l-0.7-0.4c0.4-0.3,0.8-0.7,1.2-1.2l0.7,0.4C128.1,94.1,127.7,94.5,127.3,94.8z
							"/>
					</defs>
					<clipPath id="SVGID_66_">
						<use xlink:href="#SVGID_65_"  style="overflow:visible;"/>
					</clipPath>
					<g class="st74">
						<path class="st47" d="M127.3,94.8l-0.7-0.4c0.2-0.2,0.4-0.4,0.6-0.6l0.7,0.4C127.7,94.4,127.5,94.6,127.3,94.8"/>
						<path class="st46" d="M128,94.2l-0.7-0.4c0.1-0.1,0.2-0.2,0.3-0.4l0.7,0.4C128.2,94,128.1,94.1,128,94.2"/>
						<path class="st45" d="M128.3,93.9l-0.7-0.4c0.1-0.1,0.1-0.1,0.2-0.2l0.7,0.4C128.4,93.7,128.4,93.8,128.3,93.9"/>
					</g>
				</g>
			</g>
			<g class="st1">
				<g class="st1">
					<defs>
						<path id="SVGID_67_" class="st1" d="M126.2,99.5l-0.7-0.4c0.1,0,0.1,0,0.2,0c0.2-0.1,0.3-0.3,0.4-0.4l0.7,0.4
							c-0.1,0.1-0.3,0.3-0.4,0.4C126.3,99.5,126.3,99.5,126.2,99.5z"/>
					</defs>
					<clipPath id="SVGID_68_">
						<use xlink:href="#SVGID_67_"  style="overflow:visible;"/>
					</clipPath>
					<g class="st75">
						<polyline class="st31" points="126.2,99.5 125.5,99 125.5,99 126.2,99.5 126.2,99.5 						"/>
						<path class="st32" d="M126.2,99.5l-0.7-0.4c0,0,0,0,0,0L126.2,99.5C126.2,99.5,126.2,99.5,126.2,99.5"/>
						<path class="st33" d="M126.2,99.5l-0.7-0.4c0,0,0,0,0,0L126.2,99.5C126.2,99.5,126.2,99.5,126.2,99.5"/>
						<path class="st34" d="M126.2,99.5l-0.7-0.4c0,0,0,0,0,0L126.2,99.5C126.2,99.5,126.2,99.5,126.2,99.5"/>
						<path class="st35" d="M126.2,99.5l-0.7-0.4c0,0,0,0,0,0L126.2,99.5C126.3,99.5,126.3,99.5,126.2,99.5"/>
						<path class="st36" d="M126.3,99.5l-0.7-0.4c0,0,0,0,0,0L126.3,99.5C126.3,99.5,126.3,99.5,126.3,99.5"/>
						<path class="st37" d="M126.3,99.5l-0.7-0.4c0,0,0,0,0,0L126.3,99.5C126.3,99.5,126.3,99.5,126.3,99.5"/>
						<path class="st45" d="M126.3,99.5l-0.7-0.4c0,0,0,0,0,0L126.3,99.5C126.3,99.5,126.3,99.5,126.3,99.5"/>
						<path class="st46" d="M126.3,99.5l-0.7-0.4c0,0,0,0,0,0L126.3,99.5C126.4,99.5,126.3,99.5,126.3,99.5"/>
						<path class="st47" d="M126.4,99.4l-0.7-0.4c0,0,0,0,0.1,0c0.1-0.1,0.2-0.1,0.3-0.2l0.7,0.4C126.6,99.3,126.5,99.4,126.4,99.4
							C126.4,99.4,126.4,99.4,126.4,99.4"/>
						<path class="st46" d="M126.7,99.2l-0.7-0.4c0,0,0.1-0.1,0.1-0.1l0.7,0.4C126.8,99.1,126.7,99.2,126.7,99.2"/>
						<path class="st45" d="M126.8,99.1l-0.7-0.4c0,0,0.1-0.1,0.1-0.1L126.8,99.1C126.8,99,126.8,99.1,126.8,99.1"/>
					</g>
				</g>
				<g class="st1">
					<defs>
						<path id="SVGID_69_" class="st1" d="M125.8,100.1l-0.7-0.4c-0.1-0.1-0.2-0.2-0.2-0.4l0.7,0.4
							C125.6,99.9,125.7,100,125.8,100.1z"/>
					</defs>
					<clipPath id="SVGID_70_">
						<use xlink:href="#SVGID_69_"  style="overflow:visible;"/>
					</clipPath>
					<g class="st76">
						<path class="st26" d="M125.8,100.1l-0.7-0.4c-0.1-0.1-0.2-0.2-0.2-0.4l0.7,0.4C125.6,99.9,125.7,100,125.8,100.1"/>
					</g>
				</g>
				<g class="st1">
					<defs>
						<path id="SVGID_71_" class="st1" d="M124,100.6l-0.7-0.4c0.2,0.1,0.4,0.1,0.6-0.1c0.3-0.2,0.8-0.8,1-1.2l0.7,0.4
							c-0.2,0.4-0.7,1-1,1.2C124.4,100.7,124.1,100.7,124,100.6z"/>
					</defs>
					<clipPath id="SVGID_72_">
						<use xlink:href="#SVGID_71_"  style="overflow:visible;"/>
					</clipPath>
					<g class="st77">
						<polyline class="st31" points="124,100.6 123.3,100.2 123.3,100.2 124,100.6 124,100.6 						"/>
						<path class="st32" d="M124,100.6l-0.7-0.4c0,0,0,0,0,0L124,100.6C124,100.6,124,100.6,124,100.6"/>
						<path class="st33" d="M124,100.6l-0.7-0.4c0,0,0,0,0,0L124,100.6C124.1,100.6,124,100.6,124,100.6"/>
						<path class="st34" d="M124.1,100.6l-0.7-0.4c0,0,0,0,0,0L124.1,100.6C124.1,100.6,124.1,100.6,124.1,100.6"/>
						<path class="st35" d="M124.1,100.6l-0.7-0.4c0,0,0,0,0,0L124.1,100.6C124.2,100.6,124.1,100.6,124.1,100.6"/>
						<path class="st36" d="M124.2,100.6l-0.7-0.4c0,0,0,0,0.1,0L124.2,100.6C124.2,100.6,124.2,100.6,124.2,100.6"/>
						<path class="st37" d="M124.2,100.6l-0.7-0.4c0,0,0,0,0.1,0L124.2,100.6C124.3,100.6,124.2,100.6,124.2,100.6"/>
						<path class="st45" d="M124.3,100.6l-0.7-0.4c0,0,0,0,0.1,0L124.3,100.6C124.3,100.6,124.3,100.6,124.3,100.6"/>
						<path class="st46" d="M124.4,100.6l-0.7-0.4c0,0,0.1,0,0.1,0L124.4,100.6C124.4,100.6,124.4,100.6,124.4,100.6"/>
						<path class="st47" d="M124.4,100.6l-0.7-0.4c0,0,0.1,0,0.1-0.1c0.1-0.1,0.2-0.2,0.3-0.3l0.7,0.4c-0.1,0.1-0.2,0.2-0.3,0.3
							C124.5,100.6,124.5,100.6,124.4,100.6"/>
						<path class="st46" d="M124.9,100.3l-0.7-0.4c0.1-0.1,0.1-0.1,0.2-0.2l0.7,0.4C125,100.1,125,100.2,124.9,100.3"/>
						<path class="st45" d="M125.1,100.1l-0.7-0.4c0-0.1,0.1-0.1,0.1-0.2l0.7,0.4C125.2,100,125.1,100,125.1,100.1"/>
						<path class="st37" d="M125.2,99.9l-0.7-0.4c0-0.1,0.1-0.1,0.1-0.2l0.7,0.4C125.3,99.8,125.2,99.9,125.2,99.9"/>
						<path class="st36" d="M125.3,99.8l-0.7-0.4c0,0,0.1-0.1,0.1-0.1l0.7,0.4C125.4,99.7,125.4,99.7,125.3,99.8"/>
						<path class="st35" d="M125.4,99.6l-0.7-0.4c0,0,0-0.1,0.1-0.1l0.7,0.4C125.5,99.5,125.4,99.6,125.4,99.6"/>
						<path class="st34" d="M125.5,99.5l-0.7-0.4c0,0,0-0.1,0.1-0.1L125.5,99.5C125.5,99.4,125.5,99.5,125.5,99.5"/>
						<path class="st33" d="M125.5,99.4l-0.7-0.4c0,0,0,0,0,0L125.5,99.4C125.6,99.4,125.5,99.4,125.5,99.4"/>
					</g>
				</g>
				<g>
					<polygon class="st39" points="125.6,99.4 124.9,99 124.9,97.3 125.6,97.7 					"/>
				</g>
				<g class="st1">
					<defs>
						<path id="SVGID_73_" class="st1" d="M123.5,101.3l-0.7-0.4c-0.2-0.1-0.3-0.4-0.3-0.7c0-0.5,0.3-1.1,1-1.7
							c0.5-0.5,1.1-1.1,1.4-1.4l0.7,0.4c-0.2,0.3-0.9,0.9-1.4,1.4c-0.7,0.6-1,1.2-1,1.7C123.2,100.9,123.3,101.1,123.5,101.3z"/>
					</defs>
					<clipPath id="SVGID_74_">
						<use xlink:href="#SVGID_73_"  style="overflow:visible;"/>
					</clipPath>
					<g class="st78">
						<path class="st26" d="M123.5,101.3l-0.7-0.4c-0.2-0.1-0.3-0.4-0.3-0.7c0-0.1,0-0.1,0-0.2l0.7,0.4c0,0.1,0,0.1,0,0.2
							C123.2,100.9,123.3,101.1,123.5,101.3"/>
						<path class="st27" d="M123.2,100.3l-0.7-0.4c0,0,0-0.1,0-0.1l0.7,0.4C123.2,100.3,123.2,100.3,123.2,100.3"/>
						<path class="st28" d="M123.2,100.2l-0.7-0.4c0,0,0-0.1,0-0.1L123.2,100.2C123.2,100.2,123.2,100.2,123.2,100.2"/>
						<path class="st29" d="M123.2,100.1l-0.7-0.4c0,0,0-0.1,0-0.1L123.2,100.1C123.2,100.1,123.2,100.1,123.2,100.1"/>
						<path class="st30" d="M123.2,100.1l-0.7-0.4c0,0,0,0,0-0.1L123.2,100.1C123.3,100,123.3,100,123.2,100.1"/>
						<path class="st31" d="M123.3,100l-0.7-0.4c0,0,0,0,0-0.1L123.3,100C123.3,99.9,123.3,100,123.3,100"/>
						<path class="st32" d="M123.3,99.9l-0.7-0.4c0,0,0,0,0-0.1L123.3,99.9C123.3,99.9,123.3,99.9,123.3,99.9"/>
						<path class="st33" d="M123.3,99.8l-0.7-0.4c0,0,0,0,0-0.1L123.3,99.8C123.4,99.8,123.3,99.8,123.3,99.8"/>
						<path class="st34" d="M123.4,99.8l-0.7-0.4c0,0,0-0.1,0-0.1L123.4,99.8C123.4,99.7,123.4,99.7,123.4,99.8"/>
						<path class="st35" d="M123.4,99.7l-0.7-0.4c0,0,0-0.1,0.1-0.1L123.4,99.7C123.5,99.6,123.4,99.7,123.4,99.7"/>
						<path class="st36" d="M123.5,99.6l-0.7-0.4c0,0,0-0.1,0.1-0.1l0.7,0.4C123.5,99.5,123.5,99.6,123.5,99.6"/>
						<path class="st37" d="M123.5,99.5l-0.7-0.4c0,0,0.1-0.1,0.1-0.1l0.7,0.4C123.6,99.4,123.6,99.5,123.5,99.5"/>
						<path class="st45" d="M123.6,99.4l-0.7-0.4c0-0.1,0.1-0.1,0.1-0.2l0.7,0.4C123.7,99.3,123.7,99.3,123.6,99.4"/>
						<path class="st46" d="M123.8,99.2l-0.7-0.4c0.1-0.1,0.2-0.2,0.3-0.3l0.7,0.4C123.9,99,123.9,99.1,123.8,99.2"/>
						<path class="st47" d="M124,98.9l-0.7-0.4c0,0,0.1-0.1,0.1-0.1c0.2-0.2,0.4-0.4,0.6-0.5l0.7,0.4c-0.2,0.2-0.4,0.4-0.6,0.5
							C124.1,98.8,124.1,98.9,124,98.9"/>
						<path class="st46" d="M124.7,98.3l-0.7-0.4c0.3-0.3,0.5-0.5,0.7-0.7l0.7,0.4C125.3,97.7,125,98,124.7,98.3"/>
						<path class="st45" d="M125.4,97.5l-0.7-0.4c0,0,0.1-0.1,0.1-0.1l0.7,0.4C125.5,97.4,125.5,97.5,125.4,97.5"/>
					</g>
				</g>
				<g class="st1">
					<defs>
						<path id="SVGID_75_" class="st1" d="M124.6,95.8l0.7,0.4c0.3,0.2,0.3,0.8,0.3,1.1l-0.7-0.4C124.9,96.6,124.8,96,124.6,95.8z"
							/>
					</defs>
					<clipPath id="SVGID_76_">
						<use xlink:href="#SVGID_75_"  style="overflow:visible;"/>
					</clipPath>
					<g class="st79">
						<path class="st26" d="M125.6,97.4l-0.7-0.4c0-0.4,0-1-0.3-1.1l0.7,0.4C125.5,96.4,125.6,97,125.6,97.4"/>
					</g>
				</g>
				<g class="st1">
					<defs>
						<path id="SVGID_77_" class="st1" d="M125,95.2l0.7,0.4c-0.2-0.1-0.5-0.1-0.8,0.1l-0.7-0.4C124.5,95.2,124.8,95.1,125,95.2z"/>
					</defs>
					<clipPath id="SVGID_78_">
						<use xlink:href="#SVGID_77_"  style="overflow:visible;"/>
					</clipPath>
					<g class="st80">
						<path class="st47" d="M124.9,95.7l-0.7-0.4c0.1,0,0.1-0.1,0.2-0.1l0.7,0.4C125,95.7,125,95.7,124.9,95.7"/>
						<path class="st46" d="M125.1,95.7l-0.7-0.4c0,0,0.1,0,0.1,0l0.7,0.4C125.2,95.6,125.1,95.6,125.1,95.7"/>
						<path class="st45" d="M125.2,95.6l-0.7-0.4c0,0,0.1,0,0.1,0l0.7,0.4C125.3,95.6,125.3,95.6,125.2,95.6"/>
						<path class="st37" d="M125.3,95.6l-0.7-0.4c0,0,0.1,0,0.1,0L125.3,95.6C125.4,95.6,125.4,95.6,125.3,95.6"/>
						<path class="st36" d="M125.4,95.6l-0.7-0.4c0,0,0,0,0.1,0L125.4,95.6C125.5,95.6,125.5,95.6,125.4,95.6"/>
						<path class="st35" d="M125.5,95.6l-0.7-0.4c0,0,0,0,0.1,0L125.5,95.6C125.5,95.6,125.5,95.6,125.5,95.6"/>
						<path class="st34" d="M125.6,95.6l-0.7-0.4c0,0,0,0,0.1,0L125.6,95.6C125.6,95.6,125.6,95.6,125.6,95.6"/>
						<path class="st33" d="M125.6,95.6l-0.7-0.4c0,0,0,0,0.1,0L125.6,95.6C125.7,95.6,125.6,95.6,125.6,95.6"/>
						<path class="st32" d="M125.7,95.6l-0.7-0.4c0,0,0,0,0.1,0L125.7,95.6C125.7,95.6,125.7,95.6,125.7,95.6"/>
						<polyline class="st31" points="125.7,95.6 125,95.2 125,95.2 125.7,95.7 125.7,95.6 						"/>
					</g>
				</g>
				<g class="st1">
					<defs>
						<path id="SVGID_79_" class="st1" d="M123.5,97.4l-0.7-0.4c0.3-0.3,0.9-1.2,1.4-1.6l0.7,0.4C124.4,96.2,123.8,97,123.5,97.4z"
							/>
					</defs>
					<clipPath id="SVGID_80_">
						<use xlink:href="#SVGID_79_"  style="overflow:visible;"/>
					</clipPath>
					<g class="st81">
						<path class="st37" d="M123.5,97.4l-0.7-0.4c0.1-0.1,0.1-0.2,0.2-0.3l0.7,0.4C123.6,97.2,123.6,97.3,123.5,97.4"/>
						<path class="st45" d="M123.7,97.1l-0.7-0.4c0.2-0.2,0.3-0.4,0.5-0.7l0.7,0.4C124.1,96.6,123.9,96.9,123.7,97.1"/>
						<path class="st46" d="M124.3,96.4l-0.7-0.4c0.1-0.2,0.3-0.3,0.4-0.4l0.7,0.4C124.6,96.1,124.4,96.3,124.3,96.4"/>
						<path class="st47" d="M124.7,96l-0.7-0.4c0.1-0.1,0.2-0.2,0.2-0.2l0.7,0.4C124.9,95.8,124.8,95.9,124.7,96"/>
					</g>
				</g>
				<g class="st1">
					<defs>
						<path id="SVGID_81_" class="st1" d="M123.3,98.2l-0.7-0.4c-0.1,0-0.1-0.1-0.1-0.2c0-0.2,0.1-0.4,0.3-0.6l0.7,0.4
							c-0.2,0.2-0.3,0.4-0.3,0.6C123.2,98.1,123.3,98.1,123.3,98.2z"/>
					</defs>
					<clipPath id="SVGID_82_">
						<use xlink:href="#SVGID_81_"  style="overflow:visible;"/>
					</clipPath>
					<g class="st82">
						<path class="st26" d="M123.3,98.2l-0.7-0.4c-0.1,0-0.1-0.1-0.1-0.2c0,0,0,0,0-0.1l0.7,0.4c0,0,0,0,0,0.1
							C123.2,98.1,123.3,98.1,123.3,98.2"/>
						<path class="st27" d="M123.2,97.9l-0.7-0.4c0,0,0,0,0,0L123.2,97.9C123.2,97.9,123.2,97.9,123.2,97.9"/>
						<path class="st28" d="M123.2,97.8l-0.7-0.4c0,0,0,0,0,0L123.2,97.8C123.3,97.8,123.2,97.8,123.2,97.8"/>
						<path class="st29" d="M123.3,97.8l-0.7-0.4c0,0,0,0,0,0L123.3,97.8C123.3,97.8,123.3,97.8,123.3,97.8"/>
						<path class="st30" d="M123.3,97.8l-0.7-0.4c0,0,0,0,0,0L123.3,97.8C123.3,97.8,123.3,97.8,123.3,97.8"/>
						<path class="st31" d="M123.3,97.7l-0.7-0.4c0,0,0,0,0,0L123.3,97.7C123.3,97.7,123.3,97.7,123.3,97.7"/>
						<path class="st32" d="M123.3,97.7l-0.7-0.4c0,0,0,0,0,0L123.3,97.7C123.3,97.7,123.3,97.7,123.3,97.7"/>
						<path class="st33" d="M123.3,97.7l-0.7-0.4c0,0,0,0,0,0L123.3,97.7C123.3,97.7,123.3,97.7,123.3,97.7"/>
						<path class="st34" d="M123.3,97.6l-0.7-0.4c0,0,0,0,0,0L123.3,97.6C123.3,97.6,123.3,97.6,123.3,97.6"/>
						<path class="st35" d="M123.3,97.6l-0.7-0.4c0,0,0,0,0-0.1L123.3,97.6C123.4,97.6,123.4,97.6,123.3,97.6"/>
						<path class="st36" d="M123.4,97.5l-0.7-0.4c0,0,0,0,0-0.1L123.4,97.5C123.4,97.5,123.4,97.5,123.4,97.5"/>
						<path class="st37" d="M123.4,97.5l-0.7-0.4c0,0,0-0.1,0.1-0.1L123.4,97.5C123.5,97.4,123.4,97.5,123.4,97.5"/>
						<path class="st45" d="M123.5,97.4l-0.7-0.4c0,0,0,0,0,0L123.5,97.4C123.5,97.4,123.5,97.4,123.5,97.4"/>
					</g>
				</g>
				<g>
					<path class="st43" d="M126.9,99l0.1,0.1l-0.9,1c0,0-0.2,0-0.3,0c-0.1-0.1-0.2-0.2-0.2-0.4c-0.4,0.6-0.8,1.2-1.2,1.5
						c-0.7,0.4-1.2,0.1-1.2-0.6c0-0.5,0.3-1.1,1-1.7c0.5-0.5,1.1-1.1,1.4-1.4c0-0.6,0-1.6-0.9-1c-0.2,0.1-0.7,0.5-0.9,1.5
						c0,0.1-0.1,0.2-0.2,0.3c-0.1,0.1-0.3,0-0.3-0.2c0-0.2,0.1-0.4,0.3-0.6c0.3-0.3,0.9-1.2,1.4-1.6c0.5-0.3,1.1-0.3,1.1,0.7l0,2.5
						c0,0.5,0.2,0.6,0.4,0.5C126.6,99.3,126.8,99.2,126.9,99z M125.6,99.4l0-1.7c-0.2,0.3-0.8,0.9-1.1,1.1c-0.5,0.5-0.7,0.8-0.7,1.3
						c0,0.6,0.4,0.7,0.8,0.5C124.9,100.3,125.3,99.8,125.6,99.4"/>
				</g>
			</g>
			<g class="st1">
				<g class="st1">
					<defs>
						<path id="SVGID_83_" class="st1" d="M122,102l-0.7-0.4c0.1,0.1,0.3,0,0.6-0.1l0.7,0.4C122.3,102,122.1,102.1,122,102z"/>
					</defs>
					<clipPath id="SVGID_84_">
						<use xlink:href="#SVGID_83_"  style="overflow:visible;"/>
					</clipPath>
					<g class="st83">
						<polyline class="st31" points="122,102 121.3,101.6 121.3,101.6 122,102 122,102 						"/>
						<path class="st32" d="M122,102l-0.7-0.4c0,0,0,0,0,0L122,102C122,102,122,102,122,102"/>
						<path class="st33" d="M122,102l-0.7-0.4c0,0,0,0,0,0L122,102C122.1,102,122,102,122,102"/>
						<path class="st34" d="M122.1,102l-0.7-0.4c0,0,0,0,0,0L122.1,102C122.1,102,122.1,102,122.1,102"/>
						<path class="st35" d="M122.1,102l-0.7-0.4c0,0,0,0,0,0L122.1,102C122.1,102,122.1,102,122.1,102"/>
						<path class="st36" d="M122.1,102l-0.7-0.4c0,0,0,0,0,0L122.1,102C122.1,102,122.1,102,122.1,102"/>
						<path class="st37" d="M122.1,102l-0.7-0.4c0,0,0,0,0,0L122.1,102C122.2,102,122.2,102,122.1,102"/>
						<path class="st45" d="M122.2,102l-0.7-0.4c0,0,0,0,0.1,0L122.2,102C122.2,102,122.2,102,122.2,102"/>
						<path class="st46" d="M122.3,102l-0.7-0.4c0,0,0.1,0,0.1-0.1l0.7,0.4C122.3,102,122.3,102,122.3,102"/>
						<path class="st47" d="M122.4,102l-0.7-0.4c0.1,0,0.1-0.1,0.2-0.1l0.7,0.4C122.5,101.9,122.5,101.9,122.4,102"/>
					</g>
				</g>
				<g>
					<polygon class="st39" points="120.6,103.2 119.9,102.8 119.9,102.6 120.6,103 					"/>
				</g>
				<g class="st1">
					<defs>
						<path id="SVGID_85_" class="st1" d="M120.6,103l-0.7-0.4c0.7-0.4,0.8-0.7,0.8-1.4l0.7,0.4C121.4,102.3,121.3,102.6,120.6,103z
							"/>
					</defs>
					<clipPath id="SVGID_86_">
						<use xlink:href="#SVGID_85_"  style="overflow:visible;"/>
					</clipPath>
					<g class="st84">
						<path class="st47" d="M120.6,103l-0.7-0.4c0.2-0.1,0.3-0.2,0.4-0.3l0.7,0.4C121,102.8,120.8,102.9,120.6,103"/>
						<path class="st46" d="M121.1,102.7l-0.7-0.4c0,0,0,0,0.1-0.1L121.1,102.7C121.1,102.6,121.1,102.7,121.1,102.7"/>
						<path class="st45" d="M121.1,102.6l-0.7-0.4c0,0,0,0,0,0L121.1,102.6C121.2,102.6,121.1,102.6,121.1,102.6"/>
						<path class="st37" d="M121.2,102.6l-0.7-0.4c0,0,0,0,0,0L121.2,102.6C121.2,102.5,121.2,102.6,121.2,102.6"/>
						<path class="st36" d="M121.2,102.5l-0.7-0.4c0,0,0,0,0,0L121.2,102.5C121.2,102.5,121.2,102.5,121.2,102.5"/>
						<path class="st35" d="M121.2,102.5l-0.7-0.4c0,0,0,0,0,0L121.2,102.5C121.2,102.5,121.2,102.5,121.2,102.5"/>
						<path class="st34" d="M121.2,102.5l-0.7-0.4c0,0,0,0,0,0L121.2,102.5C121.3,102.4,121.2,102.5,121.2,102.5"/>
						<path class="st33" d="M121.3,102.4l-0.7-0.4c0,0,0,0,0,0L121.3,102.4C121.3,102.4,121.3,102.4,121.3,102.4"/>
						<path class="st32" d="M121.3,102.4l-0.7-0.4c0,0,0,0,0,0L121.3,102.4C121.3,102.4,121.3,102.4,121.3,102.4"/>
						<path class="st31" d="M121.3,102.4l-0.7-0.4c0,0,0,0,0,0L121.3,102.4C121.3,102.3,121.3,102.4,121.3,102.4"/>
						<path class="st30" d="M121.3,102.3l-0.7-0.4c0,0,0,0,0,0L121.3,102.3C121.3,102.3,121.3,102.3,121.3,102.3"/>
						<path class="st29" d="M121.3,102.3l-0.7-0.4c0,0,0,0,0-0.1L121.3,102.3C121.3,102.3,121.3,102.3,121.3,102.3"/>
						<path class="st28" d="M121.3,102.2l-0.7-0.4c0,0,0,0,0-0.1L121.3,102.2C121.3,102.2,121.3,102.2,121.3,102.2"/>
						<path class="st27" d="M121.4,102.2l-0.7-0.4c0,0,0-0.1,0-0.1l0.7,0.4C121.4,102.1,121.4,102.1,121.4,102.2"/>
						<path class="st26" d="M121.4,102l-0.7-0.4c0-0.1,0-0.3,0-0.5l0.7,0.4C121.4,101.8,121.4,101.9,121.4,102"/>
					</g>
				</g>
				<g>
					<polygon class="st39" points="121.4,101.6 120.7,101.2 120.7,99.6 121.4,100 					"/>
				</g>
				<g class="st1">
					<defs>
						<path id="SVGID_87_" class="st1" d="M119.1,103.7l-0.7-0.4c0.1,0.1,0.3,0,0.6-0.2l0.7,0.4
							C119.4,103.7,119.2,103.8,119.1,103.7z"/>
					</defs>
					<clipPath id="SVGID_88_">
						<use xlink:href="#SVGID_87_"  style="overflow:visible;"/>
					</clipPath>
					<g class="st85">
						<polyline class="st31" points="119.1,103.7 118.4,103.3 118.4,103.3 119.1,103.7 119.1,103.7 						"/>
						<path class="st32" d="M119.1,103.7l-0.7-0.4c0,0,0,0,0,0L119.1,103.7C119.1,103.7,119.1,103.7,119.1,103.7"/>
						<path class="st33" d="M119.1,103.7l-0.7-0.4c0,0,0,0,0,0L119.1,103.7C119.1,103.7,119.1,103.7,119.1,103.7"/>
						<path class="st34" d="M119.2,103.7l-0.7-0.4c0,0,0,0,0,0L119.2,103.7C119.2,103.7,119.2,103.7,119.2,103.7"/>
						<path class="st35" d="M119.2,103.7l-0.7-0.4c0,0,0,0,0,0L119.2,103.7C119.2,103.7,119.2,103.7,119.2,103.7"/>
						<path class="st36" d="M119.2,103.7l-0.7-0.4c0,0,0,0,0,0L119.2,103.7C119.2,103.7,119.2,103.7,119.2,103.7"/>
						<path class="st37" d="M119.2,103.7l-0.7-0.4c0,0,0,0,0,0L119.2,103.7C119.3,103.7,119.2,103.7,119.2,103.7"/>
						<path class="st45" d="M119.3,103.7l-0.7-0.4c0,0,0,0,0.1,0L119.3,103.7C119.3,103.7,119.3,103.7,119.3,103.7"/>
						<path class="st46" d="M119.4,103.7l-0.7-0.4c0,0,0.1,0,0.2-0.1l0.7,0.4C119.4,103.7,119.4,103.7,119.4,103.7"/>
						<path class="st47" d="M119.5,103.6l-0.7-0.4c0.1,0,0.2-0.1,0.2-0.1l0.7,0.4C119.7,103.6,119.6,103.6,119.5,103.6"/>
					</g>
				</g>
				<g>
					<polygon class="st86" points="117.8,104.8 117.1,104.4 117,104.3 117.7,104.7 					"/>
				</g>
				<g class="st1">
					<defs>
						<path id="SVGID_89_" class="st1" d="M117.7,104.7l-0.7-0.4c0.6-0.4,0.7-0.6,0.7-1.4l0.7,0.4
							C118.5,104,118.4,104.3,117.7,104.7z"/>
					</defs>
					<clipPath id="SVGID_90_">
						<use xlink:href="#SVGID_89_"  style="overflow:visible;"/>
					</clipPath>
					<g class="st87">
						<path class="st47" d="M117.7,104.7l-0.7-0.4c0.2-0.1,0.3-0.2,0.4-0.3l0.7,0.4C118,104.5,117.9,104.6,117.7,104.7"/>
						<path class="st46" d="M118.1,104.4l-0.7-0.4c0,0,0,0,0.1-0.1L118.1,104.4C118.2,104.3,118.2,104.3,118.1,104.4"/>
						<path class="st45" d="M118.2,104.3l-0.7-0.4c0,0,0,0,0,0L118.2,104.3C118.2,104.3,118.2,104.3,118.2,104.3"/>
						<path class="st37" d="M118.2,104.3l-0.7-0.4c0,0,0,0,0,0L118.2,104.3C118.3,104.2,118.3,104.2,118.2,104.3"/>
						<path class="st36" d="M118.3,104.2l-0.7-0.4c0,0,0,0,0,0L118.3,104.2C118.3,104.2,118.3,104.2,118.3,104.2"/>
						<path class="st35" d="M118.3,104.2l-0.7-0.4c0,0,0,0,0,0L118.3,104.2C118.3,104.2,118.3,104.2,118.3,104.2"/>
						<path class="st34" d="M118.3,104.2l-0.7-0.4c0,0,0,0,0,0L118.3,104.2C118.3,104.1,118.3,104.1,118.3,104.2"/>
						<path class="st33" d="M118.3,104.1l-0.7-0.4c0,0,0,0,0,0L118.3,104.1C118.3,104.1,118.3,104.1,118.3,104.1"/>
						<path class="st32" d="M118.4,104.1l-0.7-0.4c0,0,0,0,0,0L118.4,104.1C118.4,104.1,118.4,104.1,118.4,104.1"/>
						<path class="st31" d="M118.4,104.1l-0.7-0.4c0,0,0,0,0,0L118.4,104.1C118.4,104,118.4,104,118.4,104.1"/>
						<path class="st30" d="M118.4,104l-0.7-0.4c0,0,0,0,0,0L118.4,104C118.4,104,118.4,104,118.4,104"/>
						<path class="st29" d="M118.4,104l-0.7-0.4c0,0,0,0,0-0.1L118.4,104C118.4,104,118.4,104,118.4,104"/>
						<path class="st28" d="M118.4,103.9l-0.7-0.4c0,0,0,0,0-0.1L118.4,103.9C118.4,103.9,118.4,103.9,118.4,103.9"/>
						<path class="st27" d="M118.4,103.9l-0.7-0.4c0,0,0-0.1,0-0.1l0.7,0.4C118.4,103.8,118.4,103.8,118.4,103.9"/>
						<path class="st26" d="M118.4,103.7l-0.7-0.4c0-0.1,0-0.3,0-0.4l0.7,0.4C118.5,103.5,118.5,103.6,118.4,103.7"/>
					</g>
				</g>
				<g class="st1">
					<defs>
						<path id="SVGID_91_" class="st1" d="M120.4,98.4l0.7,0.4c0.2,0.1,0.3,0.5,0.3,1.1l-0.7-0.4C120.7,99,120.6,98.6,120.4,98.4z"
							/>
					</defs>
					<clipPath id="SVGID_92_">
						<use xlink:href="#SVGID_91_"  style="overflow:visible;"/>
					</clipPath>
					<g class="st88">
						<path class="st26" d="M121.4,100l-0.7-0.4c0-0.6-0.1-1-0.3-1.1l0.7,0.4C121.3,99,121.4,99.4,121.4,100"/>
					</g>
				</g>
				<g class="st1">
					<defs>
						<path id="SVGID_93_" class="st1" d="M120.7,97.8l0.7,0.4c-0.2-0.1-0.6-0.1-0.9,0.1c-0.6,0.3-1.2,1.1-1.6,1.8l-0.7-0.4
							c0.4-0.7,1-1.5,1.6-1.8C120.2,97.7,120.5,97.6,120.7,97.8z"/>
					</defs>
					<clipPath id="SVGID_94_">
						<use xlink:href="#SVGID_93_"  style="overflow:visible;"/>
					</clipPath>
					<g class="st89">
						<path class="st34" d="M118.9,100.1l-0.7-0.4c0,0,0-0.1,0.1-0.1l0.7,0.4C119,100,119,100.1,118.9,100.1"/>
						<path class="st35" d="M119,100l-0.7-0.4c0-0.1,0.1-0.2,0.2-0.2l0.7,0.4C119.1,99.8,119.1,99.9,119,100"/>
						<path class="st36" d="M119.2,99.7l-0.7-0.4c0.1-0.1,0.1-0.2,0.2-0.2l0.7,0.4C119.3,99.6,119.2,99.6,119.2,99.7"/>
						<path class="st37" d="M119.3,99.5l-0.7-0.4c0.1-0.1,0.1-0.2,0.2-0.2l0.7,0.4C119.4,99.3,119.4,99.4,119.3,99.5"/>
						<path class="st45" d="M119.5,99.2l-0.7-0.4c0.1-0.1,0.1-0.2,0.2-0.2l0.7,0.4C119.6,99.1,119.6,99.2,119.5,99.2"/>
						<path class="st46" d="M119.7,99l-0.7-0.4c0.1-0.1,0.2-0.2,0.2-0.3l0.7,0.4C119.9,98.8,119.8,98.9,119.7,99"/>
						<path class="st47" d="M119.9,98.7l-0.7-0.4c0.2-0.2,0.4-0.3,0.6-0.5c0.1,0,0.2-0.1,0.2-0.1l0.7,0.4c-0.1,0-0.2,0.1-0.2,0.1
							C120.3,98.4,120.1,98.6,119.9,98.7"/>
						<path class="st46" d="M120.7,98.2l-0.7-0.4c0.1,0,0.1,0,0.2-0.1l0.7,0.4C120.9,98.1,120.8,98.2,120.7,98.2"/>
						<path class="st45" d="M120.9,98.1l-0.7-0.4c0,0,0.1,0,0.1,0l0.7,0.4C121,98.1,120.9,98.1,120.9,98.1"/>
						<path class="st37" d="M121,98.1l-0.7-0.4c0,0,0.1,0,0.1,0L121,98.1C121.1,98.1,121,98.1,121,98.1"/>
						<path class="st36" d="M121.1,98.1l-0.7-0.4c0,0,0.1,0,0.1,0L121.1,98.1C121.2,98.1,121.1,98.1,121.1,98.1"/>
						<path class="st35" d="M121.2,98.1l-0.7-0.4c0,0,0,0,0.1,0L121.2,98.1C121.2,98.1,121.2,98.1,121.2,98.1"/>
						<path class="st34" d="M121.3,98.1l-0.7-0.4c0,0,0,0,0.1,0L121.3,98.1C121.3,98.1,121.3,98.1,121.3,98.1"/>
						<path class="st33" d="M121.3,98.1l-0.7-0.4c0,0,0,0,0.1,0L121.3,98.1C121.4,98.1,121.3,98.1,121.3,98.1"/>
						<path class="st32" d="M121.4,98.1l-0.7-0.4c0,0,0,0,0.1,0L121.4,98.1C121.4,98.2,121.4,98.1,121.4,98.1"/>
						<polyline class="st31" points="121.4,98.2 120.7,97.8 120.7,97.8 121.4,98.2 121.4,98.2 						"/>
					</g>
				</g>
				<g>
					<polygon class="st39" points="118.5,103.3 117.8,102.9 117.7,97.5 118.5,97.9 					"/>
				</g>
				<g class="st1">
					<defs>
						<path id="SVGID_95_" class="st1" d="M117.6,96.9l0.7,0.4c0.1,0.1,0.1,0.2,0.1,0.6l-0.7-0.4C117.7,97.1,117.7,96.9,117.6,96.9z
							"/>
					</defs>
					<clipPath id="SVGID_96_">
						<use xlink:href="#SVGID_95_"  style="overflow:visible;"/>
					</clipPath>
					<g class="st90">
						<path class="st26" d="M118.5,97.9l-0.7-0.4c0-0.4,0-0.6-0.1-0.6l0.7,0.4C118.4,97.3,118.5,97.5,118.5,97.9"/>
					</g>
				</g>
				<g class="st1">
					<defs>
						<path id="SVGID_97_" class="st1" d="M117.7,97.3l-0.7-0.4c0.5-0.4,1-0.8,1.2-1.1l0.7,0.4C118.7,96.4,118.1,96.9,117.7,97.3z"
							/>
					</defs>
					<clipPath id="SVGID_98_">
						<use xlink:href="#SVGID_97_"  style="overflow:visible;"/>
					</clipPath>
					<g class="st91">
						<path class="st47" d="M117.7,97.3l-0.7-0.4c0.4-0.3,0.8-0.7,1.1-1l0.7,0.4C118.5,96.6,118.1,97,117.7,97.3"/>
						<path class="st46" d="M118.8,96.3l-0.7-0.4c0.1-0.1,0.1-0.1,0.2-0.2l0.7,0.4C118.9,96.2,118.8,96.3,118.8,96.3"/>
					</g>
				</g>
				<g>
					<path class="st43" d="M118.9,96.2l0,3.9c0.4-0.7,1-1.5,1.6-1.8c0.8-0.4,1.3-0.2,1.4,1.1l0,1.9c0,0.7,0.1,0.8,0.7,0.5l0,0.2
						l-2,1.1l0-0.2c0.7-0.4,0.8-0.7,0.8-1.4l0-1.6c0-1.1-0.3-1.5-1.2-1c-0.5,0.3-0.9,0.8-1.2,1.4l0,2.6c0,0.8,0.1,0.9,0.8,0.5l0,0.2
						l-2,1.2l0-0.2c0.6-0.4,0.7-0.6,0.7-1.4l0-5.4c0-0.7-0.1-0.7-0.8-0.5l0-0.1C118.1,96.9,118.7,96.4,118.9,96.2z"/>
				</g>
				<g>
					<polygon class="st39" points="117.7,97.4 117,97 117,96.9 117.7,97.3 					"/>
				</g>
			</g>
			<g class="st1">
				<g class="st1">
					<defs>
						<path id="SVGID_99_" class="st1" d="M114.1,106.5l-0.7-0.4c0.1,0.1,0.4,0,0.9-0.3l0.7,0.4
							C114.5,106.5,114.3,106.6,114.1,106.5z"/>
					</defs>
					<clipPath id="SVGID_100_">
						<use xlink:href="#SVGID_99_"  style="overflow:visible;"/>
					</clipPath>
					<g class="st92">
						<polyline class="st31" points="114.1,106.5 113.4,106.1 113.4,106.1 114.1,106.5 114.1,106.5 						"/>
						<path class="st32" d="M114.1,106.5l-0.7-0.4c0,0,0,0,0,0L114.1,106.5C114.1,106.5,114.1,106.5,114.1,106.5"/>
						<path class="st33" d="M114.1,106.5l-0.7-0.4c0,0,0,0,0,0L114.1,106.5C114.2,106.5,114.2,106.5,114.1,106.5"/>
						<path class="st34" d="M114.2,106.5l-0.7-0.4c0,0,0,0,0,0L114.2,106.5C114.2,106.5,114.2,106.5,114.2,106.5"/>
						<path class="st35" d="M114.2,106.5l-0.7-0.4c0,0,0,0,0,0L114.2,106.5C114.2,106.5,114.2,106.5,114.2,106.5"/>
						<path class="st36" d="M114.2,106.5l-0.7-0.4c0,0,0,0,0,0L114.2,106.5C114.3,106.5,114.2,106.5,114.2,106.5"/>
						<path class="st37" d="M114.3,106.5l-0.7-0.4c0,0,0,0,0.1,0L114.3,106.5C114.3,106.5,114.3,106.5,114.3,106.5"/>
						<path class="st45" d="M114.3,106.5l-0.7-0.4c0,0,0.1,0,0.1,0L114.3,106.5C114.4,106.5,114.3,106.5,114.3,106.5"/>
						<path class="st46" d="M114.4,106.5l-0.7-0.4c0.1,0,0.1,0,0.2-0.1l0.7,0.4C114.5,106.5,114.5,106.5,114.4,106.5"/>
						<path class="st47" d="M114.6,106.4l-0.7-0.4c0.1-0.1,0.3-0.1,0.4-0.2l0.7,0.4C114.9,106.3,114.7,106.4,114.6,106.4"/>
					</g>
				</g>
				<g>
					<polygon class="st39" points="112.5,107.9 111.8,107.5 111.8,107.3 112.5,107.7 					"/>
				</g>
				<g class="st1">
					<defs>
						<path id="SVGID_101_" class="st1" d="M112.5,107.7l-0.7-0.4c0.9-0.5,0.9-0.8,0.9-1.7l0.7,0.4
							C113.4,106.9,113.3,107.2,112.5,107.7z"/>
					</defs>
					<clipPath id="SVGID_102_">
						<use xlink:href="#SVGID_101_"  style="overflow:visible;"/>
					</clipPath>
					<g class="st93">
						<path class="st47" d="M112.5,107.7l-0.7-0.4c0.3-0.2,0.4-0.3,0.6-0.4l0.7,0.4C112.9,107.4,112.7,107.6,112.5,107.7"/>
						<path class="st46" d="M113.1,107.3l-0.7-0.4c0,0,0,0,0.1-0.1L113.1,107.3C113.1,107.2,113.1,107.3,113.1,107.3"/>
						<path class="st45" d="M113.1,107.2l-0.7-0.4c0,0,0,0,0-0.1L113.1,107.2C113.2,107.2,113.2,107.2,113.1,107.2"/>
						<path class="st37" d="M113.2,107.2l-0.7-0.4c0,0,0,0,0,0L113.2,107.2C113.2,107.1,113.2,107.1,113.2,107.2"/>
						<path class="st36" d="M113.2,107.1l-0.7-0.4c0,0,0,0,0,0L113.2,107.1C113.2,107.1,113.2,107.1,113.2,107.1"/>
						<path class="st35" d="M113.2,107.1l-0.7-0.4c0,0,0,0,0,0L113.2,107.1C113.2,107.1,113.2,107.1,113.2,107.1"/>
						<path class="st34" d="M113.3,107l-0.7-0.4c0,0,0,0,0,0L113.3,107C113.3,107,113.3,107,113.3,107"/>
						<path class="st33" d="M113.3,107l-0.7-0.4c0,0,0,0,0,0L113.3,107C113.3,107,113.3,107,113.3,107"/>
						<path class="st32" d="M113.3,107l-0.7-0.4c0,0,0,0,0,0L113.3,107C113.3,107,113.3,107,113.3,107"/>
						<path class="st31" d="M113.3,106.9l-0.7-0.4c0,0,0,0,0,0L113.3,106.9C113.3,106.9,113.3,106.9,113.3,106.9"/>
						<path class="st30" d="M113.3,106.9l-0.7-0.4c0,0,0,0,0,0L113.3,106.9C113.3,106.9,113.3,106.9,113.3,106.9"/>
						<path class="st29" d="M113.3,106.9l-0.7-0.4c0,0,0,0,0-0.1L113.3,106.9C113.4,106.8,113.3,106.8,113.3,106.9"/>
						<path class="st28" d="M113.4,106.8l-0.7-0.4c0,0,0-0.1,0-0.1L113.4,106.8C113.4,106.7,113.4,106.8,113.4,106.8"/>
						<path class="st27" d="M113.4,106.7l-0.7-0.4c0,0,0-0.1,0-0.1l0.7,0.4C113.4,106.6,113.4,106.7,113.4,106.7"/>
						<path class="st26" d="M113.4,106.6l-0.7-0.4c0-0.2,0-0.3,0-0.6l0.7,0.4C113.4,106.2,113.4,106.4,113.4,106.6"/>
					</g>
				</g>
				<g class="st1">
					<defs>
						<path id="SVGID_103_" class="st1" d="M115.3,98.9l0.7,0.4c0.3,0.2,0.4,0.5,0.4,1.1c0,1.3-0.7,2.3-1.6,2.8
							c-0.5,0.3-0.7,0.3-0.9,0.3l-0.7-0.4c0.1,0,0.4,0,0.9-0.3c0.9-0.5,1.6-1.5,1.6-2.8C115.7,99.4,115.6,99.1,115.3,98.9z"/>
					</defs>
					<clipPath id="SVGID_104_">
						<use xlink:href="#SVGID_103_"  style="overflow:visible;"/>
					</clipPath>
					<g class="st94">
						<polyline class="st36" points="114,103.5 113.3,103.1 113.3,103.1 114,103.5 114,103.5 						"/>
						<path class="st37" d="M114,103.5l-0.7-0.4c0,0,0,0,0.1,0L114,103.5C114,103.5,114,103.5,114,103.5"/>
						<path class="st45" d="M114,103.5l-0.7-0.4c0,0,0.1,0,0.1,0l0.7,0.4C114.1,103.5,114.1,103.5,114,103.5"/>
						<path class="st46" d="M114.2,103.5l-0.7-0.4c0.1,0,0.1,0,0.2-0.1l0.7,0.4C114.3,103.5,114.3,103.5,114.2,103.5"/>
						<path class="st47" d="M114.4,103.4l-0.7-0.4c0.1,0,0.2-0.1,0.4-0.2c0.2-0.1,0.5-0.3,0.7-0.5l0.7,0.4c-0.2,0.2-0.4,0.4-0.7,0.5
							C114.7,103.3,114.5,103.4,114.4,103.4"/>
						<path class="st46" d="M115.5,102.7l-0.7-0.4c0.1-0.1,0.1-0.1,0.2-0.2l0.7,0.4C115.6,102.6,115.6,102.7,115.5,102.7"/>
						<path class="st45" d="M115.7,102.5l-0.7-0.4c0,0,0.1-0.1,0.1-0.1l0.7,0.4C115.8,102.4,115.7,102.5,115.7,102.5"/>
						<path class="st37" d="M115.8,102.4l-0.7-0.4c0,0,0.1-0.1,0.1-0.1l0.7,0.4C115.8,102.3,115.8,102.3,115.8,102.4"/>
						<path class="st36" d="M115.9,102.3l-0.7-0.4c0,0,0.1-0.1,0.1-0.1l0.7,0.4C115.9,102.2,115.9,102.2,115.9,102.3"/>
						<path class="st35" d="M116,102.2l-0.7-0.4c0,0,0-0.1,0.1-0.1l0.7,0.4C116,102.1,116,102.1,116,102.2"/>
						<path class="st34" d="M116,102l-0.7-0.4c0,0,0-0.1,0.1-0.1l0.7,0.4C116.1,102,116,102,116,102"/>
						<path class="st33" d="M116.1,101.9l-0.7-0.4c0,0,0-0.1,0.1-0.1l0.7,0.4C116.1,101.9,116.1,101.9,116.1,101.9"/>
						<path class="st32" d="M116.1,101.8l-0.7-0.4c0,0,0-0.1,0.1-0.1l0.7,0.4C116.2,101.8,116.2,101.8,116.1,101.8"/>
						<path class="st31" d="M116.2,101.7l-0.7-0.4c0,0,0-0.1,0-0.1l0.7,0.4C116.2,101.6,116.2,101.7,116.2,101.7"/>
						<path class="st30" d="M116.2,101.6l-0.7-0.4c0,0,0-0.1,0-0.1l0.7,0.4C116.3,101.5,116.3,101.6,116.2,101.6"/>
						<path class="st29" d="M116.3,101.5l-0.7-0.4c0,0,0-0.1,0-0.2l0.7,0.4C116.3,101.4,116.3,101.4,116.3,101.5"/>
						<path class="st28" d="M116.3,101.3l-0.7-0.4c0-0.1,0-0.1,0-0.2l0.7,0.4C116.4,101.2,116.3,101.3,116.3,101.3"/>
						<path class="st27" d="M116.4,101.1l-0.7-0.4c0-0.1,0-0.2,0-0.3l0.7,0.4C116.4,100.9,116.4,101,116.4,101.1"/>
						<path class="st26" d="M116.4,100.9l-0.7-0.4c0-0.1,0-0.3,0-0.5c0-0.6-0.1-0.9-0.4-1.1l0.7,0.4c0.3,0.2,0.4,0.5,0.4,1.1
							C116.4,100.6,116.4,100.7,116.4,100.9"/>
					</g>
				</g>
				<g class="st1">
					<defs>
						<path id="SVGID_105_" class="st1" d="M116,98.4l0.7,0.4c-0.5-0.3-1.3,0.1-1.8,0.4l-0.7-0.4C114.6,98.6,115.5,98.1,116,98.4z"
							/>
					</defs>
					<clipPath id="SVGID_106_">
						<use xlink:href="#SVGID_105_"  style="overflow:visible;"/>
					</clipPath>
					<g class="st95">
						<path class="st47" d="M114.9,99.2l-0.7-0.4c0.2-0.1,0.4-0.2,0.6-0.3l0.7,0.4C115.3,99,115.1,99.1,114.9,99.2"/>
						<path class="st46" d="M115.5,98.9l-0.7-0.4c0.1,0,0.2-0.1,0.3-0.1l0.7,0.4C115.7,98.8,115.6,98.9,115.5,98.9"/>
						<path class="st45" d="M115.9,98.8l-0.7-0.4c0.1,0,0.1,0,0.2,0l0.7,0.4C116,98.8,115.9,98.8,115.9,98.8"/>
						<path class="st37" d="M116.1,98.8l-0.7-0.4c0.1,0,0.1,0,0.2,0l0.7,0.4C116.2,98.7,116.1,98.7,116.1,98.8"/>
						<path class="st36" d="M116.2,98.7l-0.7-0.4c0,0,0.1,0,0.1,0l0.7,0.4C116.3,98.7,116.2,98.7,116.2,98.7"/>
						<path class="st35" d="M116.3,98.7l-0.7-0.4c0,0,0.1,0,0.1,0l0.7,0.4C116.4,98.7,116.4,98.7,116.3,98.7"/>
						<path class="st34" d="M116.4,98.8l-0.7-0.4c0,0,0.1,0,0.1,0L116.4,98.8C116.5,98.8,116.5,98.8,116.4,98.8"/>
						<path class="st33" d="M116.5,98.8l-0.7-0.4c0,0,0.1,0,0.1,0L116.5,98.8C116.6,98.8,116.5,98.8,116.5,98.8"/>
						<path class="st32" d="M116.6,98.8l-0.7-0.4c0,0,0,0,0.1,0L116.6,98.8C116.6,98.8,116.6,98.8,116.6,98.8"/>
						<polyline class="st31" points="116.7,98.8 116,98.4 116,98.4 116.7,98.8 116.7,98.8 						"/>
					</g>
				</g>
				<g>
					<polygon class="st39" points="113.4,106 112.7,105.6 112.7,101 113.4,101.4 					"/>
				</g>
				<g class="st1">
					<defs>
						<path id="SVGID_107_" class="st1" d="M112.6,100.1l0.7,0.4c0.1,0.1,0.1,0.4,0.1,0.9l-0.7-0.4
							C112.7,100.5,112.7,100.2,112.6,100.1z"/>
					</defs>
					<clipPath id="SVGID_108_">
						<use xlink:href="#SVGID_107_"  style="overflow:visible;"/>
					</clipPath>
					<g class="st96">
						<path class="st26" d="M113.4,101.4l-0.7-0.4c0-0.5,0-0.8-0.1-0.9l0.7,0.4C113.4,100.6,113.4,100.9,113.4,101.4"/>
					</g>
				</g>
				<g>
					<polygon class="st39" points="112.5,100.8 111.8,100.4 111.8,100.2 112.5,100.6 					"/>
				</g>
				<g>
					<path class="st43" d="M114.8,103.6l-0.8,0.2l0,1.9c0,0.9,0.1,1,1.1,0.5l0,0.2l-2.6,1.5l0-0.2c0.9-0.5,0.9-0.8,0.9-1.7l0-4.6
						c0-0.9,0-1.1-0.9-0.6l0-0.2l2.4-1.4c0.6-0.4,2.2-1.2,2.2,0.7c0,1.6-1.2,3-2.1,3.5C114.9,103.5,114.8,103.6,114.8,103.6z
						 M114,100.3l0,3.2c0.1,0,0.4,0,0.9-0.3c0.9-0.5,1.6-1.5,1.6-2.8c0-1.3-0.6-1.5-1.9-0.8c-0.3,0.2-0.4,0.2-0.5,0.3
						C114,100,114,100.1,114,100.3"/>
				</g>
				<g>
					<polygon class="st40" points="112.5,100.6 111.8,100.2 114.2,98.8 114.9,99.2 					"/>
				</g>
			</g>
		</g>
	</g>
</g>
</svg>
