<?xml version="1.0" encoding="utf-8"?>
<!-- Generator: Adobe Illustrator 22.1.0, SVG Export Plug-In . SVG Version: 6.00 Build 0)  -->
<svg version="1.1" id="图层_1" xmlns="http://www.w3.org/2000/svg" xmlns:xlink="http://www.w3.org/1999/xlink" x="0px" y="0px"
	 viewBox="0 0 200 200" style="enable-background:new 0 0 200 200;" xml:space="preserve">
<style type="text/css">
	.st0{fill:#F9646B;}
	.st1{enable-background:new    ;}
	.st2{fill:#433334;}
	.st3{fill:#6C5054;}
	.st4{fill:#929B9B;}
	.st5{fill:#F4952E;}
	.st6{fill:#32CFDC;}
	.st7{fill:#14595B;}
	.st8{fill:#FF931A;}
	.st9{fill:#4C4C4B;}
	.st10{fill:#F03235;}
	.st11{fill:#B81918;}
	.st12{fill:#E93832;}
	.st13{fill:#BB1814;}
	.st14{fill:#FF5756;}
	.st15{fill:#7F3663;}
	.st16{fill:#EA7C0F;}
	.st17{fill:#EAAD00;}
	.st18{fill:#5F5F5F;}
	.st19{fill:#757575;}
	.st20{fill:#666666;}
	.st21{clip-path:url(#SVGID_2_);}
	.st22{fill:none;stroke:#FFFFFF;stroke-width:2;stroke-miterlimit:10;}
	.st23{fill:#C4C4C4;}
	.st24{fill:#FFFFFF;}
	.st25{fill:#F7F7F7;}
	.st26{fill:#898989;}
	.st27{fill:#50EBEF;}
	.st28{fill:#DD7E1F;}
</style>
<g>
	<g>
		<path d="M199,0.3V199H0.7V0.3H199 M200-0.7H-0.3V200H200V-0.7L200-0.7z"/>
	</g>
	<rect x="0.8" y="0.2" class="st0" width="198.2" height="198.6"/>
	<g>
		<g class="st1">
			<g>
				<polygon class="st2" points="180.6,134 180.6,144.2 102.5,189.7 102.5,179.5 				"/>
			</g>
			<g>
				<g>
					<polygon class="st3" points="102.5,179.5 102.5,189.7 16.7,140.1 16.7,129.9 					"/>
				</g>
			</g>
			<g>
				<g>
					<polygon class="st4" points="180.6,134 102.5,179.5 16.7,129.9 94.8,84.4 					"/>
				</g>
			</g>
		</g>
	</g>
	<g>
		<g>
			<g>
				<g>
					<polygon class="st5" points="155.9,81.2 155.8,133.8 103.2,164.4 103.4,111.8 					"/>
				</g>
			</g>
			<g>
				<polygon class="st6" points="152.2,88.2 152.2,131.4 107.8,157.2 107.9,114.1 				"/>
			</g>
			<g>
				<g>
					<polygon class="st7" points="130.8,100.7 130.7,143.9 129.2,144.7 129.3,101.6 					"/>
				</g>
			</g>
			<g>
				<g>
					<polygon class="st7" points="152.2,109.2 152.2,110.9 107.8,136.8 107.9,135.1 					"/>
				</g>
			</g>
			<g>
				<g>
					<path class="st7" d="M151.2,90l-0.1,40.8l-42.3,24.7l0.1-40.8L151.2,90 M152.2,88.2l-44.3,25.9l-0.1,43.1l44.3-25.9L152.2,88.2
						L152.2,88.2z"/>
				</g>
			</g>
			<g>
				<g>
					<polygon class="st8" points="103.4,111.8 103.2,164.4 50.4,133.8 50.5,81.2 					"/>
				</g>
			</g>
			<g>
				<g>
					<polygon class="st9" points="155.9,81.2 103.4,111.8 50.5,81.2 103,50.6 					"/>
				</g>
			</g>
		</g>
		<g>
			<g>
				<path class="st6" d="M87.7,127.4l-0.6,27.8l-25.3-14.9l0.5-27c0-5.4,5.8-8.7,10.5-6.1l5,2.9C84,113.7,87.8,120.3,87.7,127.4z"/>
			</g>
		</g>
		<g>
			<g class="st1">
				<g>
					<g>
						<polygon class="st10" points="154.3,75.8 154.3,81.5 103,51.8 103,46.1 						"/>
					</g>
				</g>
				<g>
					<polygon class="st11" points="103,46.1 103,51.8 52,81.5 52,75.8 					"/>
				</g>
				<g>
					<polygon class="st12" points="103.3,106.4 103.3,112.2 50.4,81.5 50.4,75.8 					"/>
				</g>
				<g>
					<polygon class="st13" points="155.9,75.8 155.9,81.5 103.3,112.2 103.3,106.4 					"/>
				</g>
				<g>
					<path class="st14" d="M103,45.1l53,30.6l-52.6,30.6l-53-30.6L103,45.1z M103.3,105.4l51-29.7L103,46.1L52,75.8L103.3,105.4"/>
				</g>
			</g>
		</g>
		<path class="st15" d="M62.4,113.2c0,0,0-1.4,0.4-2.2c0,0,0.3-0.8,0.6-1.2l0.4-0.6l1.1,0.6c0,0-1,1.3-1,3.6L62.4,113.2z"/>
		<polygon class="st16" points="87.1,155.2 61.8,140.3 62.4,113.1 63.7,113.1 63.2,139.4 87.2,153.4 		"/>
		<g>
			<g>
				<polygon class="st17" points="91.5,109 64.9,124.5 38.1,109 64.7,93.5 				"/>
			</g>
			<g>
				<g>
					<polygon class="st18" points="91.5,109 91.4,128.2 64.8,127.9 64.9,124.5 					"/>
				</g>
				<g>
					<polygon class="st19" points="64.9,124.5 64.8,127.9 38,112.4 38.1,109 					"/>
				</g>
				<g>
					<polygon class="st20" points="91.5,109 64.9,124.5 38.1,109 64.7,93.5 					"/>
				</g>
				<g>
					<defs>
						<polygon id="SVGID_1_" points="91.5,109 64.9,124.5 38.1,109 64.7,93.5 						"/>
					</defs>
					<clipPath id="SVGID_2_">
						<use xlink:href="#SVGID_1_"  style="overflow:visible;"/>
					</clipPath>
					<g class="st21">
						<g>
							<line class="st22" x1="26.9" y1="110.1" x2="64.6" y2="88.1"/>
							<polyline class="st22" points="72.3,92.5 70.6,93.4 34.5,114.5 							"/>
							<polyline class="st22" points="79.9,96.9 78.2,97.8 42.1,118.9 							"/>
							<polyline class="st22" points="87.5,101.3 85.8,102.3 49.7,123.3 							"/>
							<polyline class="st22" points="95.1,105.7 93.4,106.7 57.3,127.7 							"/>
							<polyline class="st22" points="102.7,110.1 101,111.1 64.9,132.1 							"/>
						</g>
					</g>
				</g>
			</g>
		</g>
		<g>
			<g>
				<g class="st1">
					<g>
						<polygon class="st23" points="93.3,93.2 93.2,106.5 91.2,107.6 91.3,94.4 						"/>
					</g>
					<g>
						<polygon class="st24" points="91.3,94.4 91.2,107.6 65.7,92.8 65.8,79.6 						"/>
					</g>
					<g>
						<polygon class="st25" points="93.3,93.2 91.3,94.4 65.8,79.6 67.8,78.5 						"/>
					</g>
				</g>
			</g>
			<g>
				<g>
					<g>
						<path class="st26" d="M73.2,88.3c0.3,0.2,0.6,0.4,0.8,0.8c0.2,0.3,0.3,0.6,0.3,0.8c0,0.2-0.1,0.4-0.3,0.4
							c-0.2,0.1-0.3,0.1-0.5-0.1c-0.1-0.1-0.2-0.2-0.3-0.3c-0.1-0.2-0.1-0.3-0.1-0.4c0-0.1,0-0.2,0.1-0.3c0.1-0.1,0.2-0.1,0.2,0
							c0.1,0,0.1,0.1,0.2,0.2c0.1,0.1,0.1,0.2,0.1,0.2c0,0.1,0,0.2-0.1,0.2l-0.1,0c0-0.1,0-0.2-0.1-0.2l-0.1-0.1l-0.1,0l0,0.1
							c0,0,0,0.1,0.1,0.3c0.1,0.1,0.1,0.2,0.2,0.3c0.1,0.1,0.3,0.1,0.3,0c0.1-0.1,0.1-0.2,0.1-0.4c0-0.2-0.1-0.5-0.2-0.7
							c-0.1-0.3-0.3-0.4-0.5-0.6c-0.4-0.2-0.8-0.2-1,0.1c-0.3,0.3-0.4,0.8-0.4,1.5c0,0.6,0.2,1.2,0.4,1.8c0.3,0.6,0.7,1,1.1,1.2
							c0.3,0.2,0.5,0.1,0.6-0.1c0.1-0.2,0.2-0.5,0.2-1c-0.1-0.1-0.4-0.2-0.8-0.4l0-0.2c0.4,0.2,0.6,0.3,0.8,0.4
							c0.2,0.1,0.3,0.2,0.4,0.2c0.1,0.1,0.2,0.1,0.3,0.1l0,0.2c-0.1,0-0.3-0.1-0.4-0.2c0,0.3,0,0.7,0.1,1.1c0,0.5,0.1,0.8,0.1,1
							c0,0.3-0.1,0.4-0.2,0.5c-0.1,0.1-0.3,0.1-0.5,0c-0.1-0.1-0.3-0.2-0.4-0.4c-0.1-0.2-0.2-0.3-0.2-0.5c0-0.1,0.1-0.2,0.1-0.3
							c0.1-0.1,0.2-0.1,0.3,0c0.1,0.1,0.2,0.1,0.2,0.2l0.1,0.3L74,94.2l-0.1,0c-0.1,0-0.1-0.1-0.1-0.2l0.1,0.1c0,0,0.1,0,0.1-0.1
							c0-0.1,0-0.2-0.1-0.3c0,0-0.1,0-0.1,0c0,0.1-0.1,0.1-0.1,0.2c0,0.1,0,0.3,0.1,0.4c0.1,0.1,0.1,0.2,0.2,0.3
							c0.2,0.1,0.3,0.1,0.4,0c0.1-0.1,0.2-0.2,0.2-0.4c0-0.2,0-0.4-0.1-0.7c-0.1-0.3-0.1-0.5-0.1-0.6c-0.2,0.3-0.6,0.3-1.1,0.1
							c-0.5-0.3-0.9-0.7-1.3-1.4c-0.4-0.6-0.6-1.2-0.6-1.8c0-0.7,0.2-1.2,0.5-1.6S72.7,88,73.2,88.3z"/>
					</g>
					<g>
						<path class="st26" d="M76.1,89.6c0.1,0.1,0.2,0.2,0.4,0.4c0.2,0.2,0.3,0.4,0.4,0.8c0.1,0.3,0.3,0.9,0.5,1.6
							c0.2,0.9,0.4,1.4,0.5,1.5c0.7-1.3,1.1-1.9,1.2-2c-0.1-0.1-0.2-0.2-0.5-0.3l0.1-0.2c0.2,0.2,0.5,0.4,1.1,0.8l0,0.2l-0.5-0.3
							l-0.4,0.5l-0.5,0.8l-0.5,0.9c-0.1,0.2-0.3,0.4-0.5,0.6c-0.1,0.1-0.2,0.2-0.2,0.2c-0.1,0-0.1,0.1-0.2,0.1c-0.1,0-0.2,0-0.3,0
							c-0.1,0-0.2,0-0.3-0.1c-0.3-0.1-0.4-0.3-0.6-0.5c-0.1-0.2-0.2-0.4-0.2-0.7c0-0.2,0.1-0.3,0.2-0.4c0.1-0.1,0.3-0.1,0.4,0
							c0.2,0.1,0.3,0.2,0.4,0.3c0.1,0.1,0.1,0.2,0.1,0.4c0,0.1-0.1,0.1-0.2,0.2c-0.1,0-0.2,0-0.2,0l-0.1-0.1l-0.1-0.2
							c0.1,0.1,0.2,0.2,0.2,0.2l0.2,0l0.1-0.1c0-0.1-0.1-0.2-0.2-0.3c-0.2-0.1-0.3-0.2-0.4-0.2c-0.1,0-0.2,0-0.2,0.1
							c0,0.1,0.1,0.3,0.2,0.4c0.1,0.2,0.3,0.3,0.5,0.4c0.2,0.1,0.5,0.1,0.7,0c0.2-0.1,0.4-0.4,0.6-0.7c-0.3-0.5-0.6-1.2-0.9-2.3
							c-0.1-0.5-0.3-0.9-0.5-1.2c-0.2-0.3-0.4-0.6-0.6-0.7c-0.1-0.1-0.3-0.1-0.4-0.1c-0.1,0-0.2,0.1-0.2,0.3c0,0.2,0,0.3,0.1,0.4
							c0.1,0.1,0.2,0.2,0.3,0.3c0.1,0.1,0.2,0.1,0.3,0.1c0.1,0,0.1-0.1,0.1-0.2c0-0.1-0.1-0.2-0.2-0.3c-0.1-0.1-0.1,0-0.1,0.1l0,0.2
							l-0.1-0.2l-0.1-0.2c0-0.1,0-0.2,0.1-0.2c0.1,0,0.2,0,0.3,0c0.1,0,0.2,0.1,0.2,0.3c0.1,0.1,0.1,0.3,0.1,0.4
							c0,0.1,0,0.2-0.1,0.3c-0.1,0.1-0.2,0.1-0.3,0c-0.1-0.1-0.3-0.3-0.4-0.5c-0.1-0.2-0.2-0.4-0.2-0.6c0-0.3,0.1-0.5,0.3-0.6
							C75.6,89.5,75.8,89.5,76.1,89.6z"/>
					</g>
					<g>
						<path class="st26" d="M83,93.9c0.1,0.1,0.3,0.2,0.6,0.5c0.4,0.2,0.6,0.4,0.9,0.6l0,0.1c-0.2-0.1-0.4-0.2-0.6-0.4
							c0,0.1-0.1,0.6-0.1,1.5c-0.1,0.9-0.1,1.7-0.1,2.1c0,0.5,0.1,0.8,0.4,1c0.1,0.1,0.2,0.1,0.3,0c0.1-0.1,0.1-0.2,0.1-0.3
							c0-0.3-0.1-0.5-0.2-0.6l-0.1,0L84,98.5c0,0.1,0,0.2,0.1,0.2l0.1,0.2c0.1,0,0.1,0,0.1-0.1l0.1,0.1c0,0.1-0.1,0.1-0.2,0.1
							c-0.1,0-0.1-0.1-0.2-0.2c-0.1-0.1-0.1-0.2-0.1-0.3c0-0.1,0.1-0.2,0.2-0.2c0.1,0,0.2,0,0.3,0.1c0.1,0.1,0.2,0.1,0.2,0.3
							c0.1,0.1,0.1,0.3,0.1,0.4c0,0.2-0.1,0.3-0.2,0.4c-0.1,0.1-0.3,0.1-0.4,0c-0.2-0.1-0.4-0.3-0.5-0.5c-0.1-0.2-0.2-0.4-0.2-0.7
							c0-0.2,0-0.5,0-0.9l0-1.9c0-0.2,0-0.4,0-0.6c-0.5,0.9-0.9,1.6-1,2.1l-0.2-0.1c-0.2-0.5-0.4-1.2-0.6-1.9
							c-0.3-0.7-0.4-1.3-0.5-1.7c0,0.4,0,0.8,0,1.3c0,0.8,0,1.7,0.1,2.7c0.1,0.1,0.3,0.2,0.6,0.4l0,0.1c-0.9-0.5-1.3-0.8-1.3-0.8
							l0-0.2c0.2,0.2,0.4,0.3,0.5,0.4c0,0,0.1,0,0.1,0c-0.2-1.3-0.2-2.7-0.2-4.3c-0.3-0.2-0.6-0.3-0.7-0.4c-0.1-0.1-0.2,0-0.3,0
							c-0.1,0.1-0.1,0.2-0.1,0.4c0,0.1,0,0.3,0.1,0.4c0.1,0.1,0.2,0.2,0.3,0.3l0.2,0l0.1-0.1l0-0.1l-0.1-0.1c-0.1-0.1-0.2-0.1-0.3,0
							l-0.1-0.2l0.1-0.1l0.1,0c0.1,0,0.2,0.1,0.2,0.2c0.1,0.1,0.1,0.2,0.1,0.3c0,0.1,0,0.2-0.1,0.2c-0.1,0-0.2,0-0.2,0
							c-0.1-0.1-0.3-0.2-0.4-0.4c-0.1-0.2-0.2-0.4-0.2-0.6c0-0.2,0.1-0.3,0.2-0.4c0.1-0.1,0.3-0.1,0.5,0c0.1,0.1,0.4,0.2,0.7,0.4
							c0.3,0.1,0.5,0.2,0.6,0.3l0,0.2c-0.1-0.1-0.3-0.1-0.3-0.2c0.2,0.8,0.6,1.9,1.2,3.3c0.3-0.6,0.5-1,0.6-1.2
							c0.2-0.3,0.3-0.5,0.4-0.8c0,0-0.2-0.1-0.4-0.3L83,93.9z"/>
					</g>
				</g>
			</g>
		</g>
	</g>
	<polygon class="st27" points="125.6,105.1 109,130.6 109,131.8 128,103.8 	"/>
	<polygon class="st28" points="106.9,114.3 106.9,158.7 152.2,132 153,131.5 152.2,131.4 107.8,157.2 107.9,114.1 152.2,88.2 
		151.7,87.5 107.1,113.8 	"/>
</g>
</svg>
