<svg id="Blanja_-_Ecomerce_Illustration_Kit" data-name="Blanja - Ecomerce Illustration Kit" xmlns="http://www.w3.org/2000/svg" viewBox="0 0 600 336"><defs><style>.cls-1{fill:#efede4;}.cls-2{fill:#ffa100;}.cls-10,.cls-11,.cls-12,.cls-13,.cls-14,.cls-16,.cls-17,.cls-18,.cls-19,.cls-2,.cls-20,.cls-3,.cls-4,.cls-5,.cls-6,.cls-7,.cls-9{fill-rule:evenodd;}.cls-15,.cls-3{fill:#0a0910;}.cls-4{fill:#fc141c;}.cls-5{fill:#e165b0;}.cls-13,.cls-14,.cls-16,.cls-17,.cls-6,.cls-7,.cls-8,.cls-9{fill:none;}.cls-6{stroke:#f00000;}.cls-13,.cls-16,.cls-17,.cls-6,.cls-9{stroke-linecap:round;stroke-linejoin:round;}.cls-6,.cls-9{stroke-width:2.13px;}.cls-7{stroke:#355da8;}.cls-14,.cls-7,.cls-8{stroke-miterlimit:22.93;}.cls-13,.cls-7,.cls-8{stroke-width:1.42px;}.cls-13,.cls-16,.cls-17,.cls-8{stroke:#0a0910;}.cls-9{stroke:#ffa100;}.cls-10{fill:#fc151e;}.cls-11{fill:#ffab15;}.cls-12{fill:#355da8;}.cls-14{stroke:#fc141c;stroke-width:1.71px;}.cls-16{stroke-width:3.4px;}.cls-17{stroke-width:3.4px;}.cls-18{fill:#415ea9;}.cls-19{fill:#fff;}.cls-20{fill:#faa20d;}</style></defs><title>Belanja - E-comerce Illustrstion Kit</title><g id="Big_Sale" data-name="Big Sale"><rect class="cls-1" width="600" height="336"/><path class="cls-2" d="M246.57,159.12c-12.42-1.67-8.26-10.61-6.5-25.21.78-6.44-5.39-19.45-5.07-24.15.86-12.74,24.07-11.14,31.28-19.36S263,78.88,283.8,70.77c7.43-2.9-8.3-15.75,5.15-25.5,16.7-12.1,40.43-21.7,53.6-.91C362.63,76,333.42,71.07,349.7,86.3c9,8.45-1.33,13-17.11,12.11l-1.06-20.8c13.1-7.35,8.76-22-2.74-15.91-3.26,2.7-11.82-3.76-13.56-12.75-6.12-2.68-19.06,4.13-19.47,7.57l-2.94,24.4c-.3,2.45,2.61,5.15,5.32,5.9l.14,11.51c-6-.08-18.39-1.67-29.51,4.86C254.51,111.56,248.42,156.31,246.57,159.12Z"/><polygon class="cls-3" points="184.04 231.62 243.33 231.62 247.39 305.31 251.46 313.78 175.91 313.78 179.98 305.31 184.04 231.62"/><polygon class="cls-4" points="161.17 231.62 220.46 231.62 224.53 305.31 228.59 313.78 153.04 313.78 157.11 305.31 161.17 231.62"/><polygon class="cls-3" points="222.18 220.6 281.46 220.6 285.53 294.29 289.6 302.76 214.05 302.76 218.11 294.29 222.18 220.6"/><polygon class="cls-5" points="199.31 220.6 258.6 220.6 262.66 294.29 266.73 302.76 191.18 302.76 195.25 294.29 199.31 220.6"/><polygon class="cls-3" points="379.81 219.76 439.1 219.76 443.16 293.44 447.23 301.91 371.68 301.91 375.74 293.44 379.81 219.76"/><polygon class="cls-4" points="356.94 219.76 416.23 219.76 420.29 293.44 424.36 301.91 348.81 301.91 352.88 293.44 356.94 219.76"/><path class="cls-3" d="M406.87,194.65a24.22,24.22,0,0,1,1.31,6.75V227h-3V201.41a17.91,17.91,0,0,0-.35-3.27Z"/><path class="cls-3" d="M366.85,227,372,182.27c.62-5.37,2.36-10.28,6.09-13.66,3.33-1.08.44,2.94,0,4.37-2,2.59-2.73,5.83-3.12,9.29L369.81,227Z"/><path class="cls-3" d="M414.79,178.29a52.82,52.82,0,0,1,3.37,9.37L426,223.21h-3l-7.82-35.55a38.55,38.55,0,0,0-1.35-4.54Z"/><path class="cls-3" d="M384.18,219.8l-8-41.34c-.84-4.35-.81-8.41.68-11.59,1.27-2.73,4.06-2.44,4.76-1.44l-2,4.17c-1.17,2.59-1.15,5.41-.5,8.86,2.81,14.92,5.15,26.42,8,41.34Z"/><path class="cls-3" d="M241.09,228.93,236,184.17a23.67,23.67,0,0,0-3.79-11c-1.21-1.71-3.07-3.51-5.3-2.74-1.69.58-1.92,2.17-.34,2.45a5.49,5.49,0,0,1,3.34,2.05c2,2.59,2.73,5.83,3.12,9.29l5.13,44.76Z"/><polygon class="cls-3" points="210.16 204.65 210.16 228.94 213.13 228.94 213.13 205.92 210.16 204.65"/><path class="cls-3" d="M268.42,228.72l-22.69-43.28c-2.06-3.93-3.93-8-7-11-1.71-1.71-4.09-3.51-6.11-2.74-1.52.58-1.29,2.17.38,2.45a7.93,7.93,0,0,1,3.94,2.05,25.88,25.88,0,0,1,5.84,9.29c6.08,14.92,15.76,28.36,21.84,43.28Z"/><polygon class="cls-3" points="219.06 208.68 219.06 220.6 222.02 220.6 222.02 209.95 219.06 208.68"/><path class="cls-3" d="M173.43,237l19-36.2h3.5C190,213,182.35,224.46,177.25,237Z"/><path class="cls-3" d="M226,220.6l-4.61-40.25a23.67,23.67,0,0,0-3.79-11c-1.21-1.71-3.07-3.51-5.3-2.74-1.69.58-1.92,2.17-.34,2.45a5.48,5.48,0,0,1,3.34,2.05c2,2.59,2.73,5.83,3.12,9.29L223,220.6Z"/><polygon class="cls-3" points="320.16 206.45 378.76 215.46 371.57 288.91 374.31 297.9 299.63 286.41 304.94 278.66 320.16 206.45"/><polygon class="cls-4" points="297.56 202.97 356.16 211.99 348.97 285.43 351.7 294.42 277.03 282.94 282.34 275.18 297.56 202.97"/><path class="cls-3" d="M312.58,214.46l50.33-39.66c3.48-2.74,6.75-5.09,10.23-5.49,3-.34,4.2,2.18,3.72,3.3l-4.59.51c-2.82.36-5.21,1.85-7.81,4.22-10.83,9.83-37.09,28.07-49,38.51C313.59,217.44,311.21,216.21,312.58,214.46Z"/><path class="cls-3" d="M339.58,218.31,364.85,180c2.44-3.7,3.45-7.72,6.31-9.75,2.45-1.74,4.73-.12,4.85,1.09L372.24,174c-2.3,1.67-3,4.74-4.81,7.46L342.3,219.56C341.37,221,338.18,220.43,339.58,218.31Z"/><path class="cls-6" d="M529.89,143.63c-9.65-5.08-13.17.21-16.68,4.32-4.39,5.14-9.45,5.17-14.51,0-3.38-3.46-9.16-10.27-17-.9-7.15,8.58-14.38-8.13-24.81-.44l-.34.78"/><path class="cls-7" d="M487.38,289.59a11.25,11.25,0,1,0-11.25-11.25A11.27,11.27,0,0,0,487.38,289.59Z"/><path class="cls-7" d="M487.48,225.24a5.3,5.3,0,1,0-5.3-5.3A5.31,5.31,0,0,0,487.48,225.24Z"/><circle class="cls-8" cx="460.47" cy="270.66" r="2.91"/><circle class="cls-8" cx="526.55" cy="207.4" r="1.97"/><path class="cls-9" d="M140.24,257.95c-9.65-5.08-13.17.21-16.68,4.32-4.39,5.14-9.45,5.17-14.51,0-3.38-3.46-9.16-10.27-17-.9-7.15,8.58-14.38-8.13-24.81-.44l-.34.78"/><path class="cls-7" d="M92.78,307.71a11.25,11.25,0,1,0-11.25-11.25A11.27,11.27,0,0,0,92.78,307.71Z"/><path class="cls-10" d="M148.28,87.88c.06,10.15,5.52,12,10.63,12.11-9.18,1.85-10,3.35-10.88,13.56-.2-7.49-1.2-12.83-11.45-14.5C138.58,99.09,148.85,101.75,148.28,87.88Z"/><path class="cls-11" d="M181.25,109.09c0,7.43,4,8.75,7.78,8.87-6.72,1.35-7.33,2.45-8,9.92-.15-5.48-.88-9.39-8.38-10.61C174.14,117.29,181.67,119.24,181.25,109.09Z"/><path class="cls-12" d="M175.53,42.88c.09,15.57,8.47,18.34,16.32,18.59-14.09,2.84-15.37,5.14-16.69,20.8-.31-11.49-1.83-19.68-17.58-22.25C160.64,60.08,176.41,64.16,175.53,42.88Z"/><path class="cls-7" d="M76.48,142.74a5.3,5.3,0,1,0-5.3-5.3A5.31,5.31,0,0,0,76.48,142.74Z"/><path class="cls-13" d="M309.07,184.58l-2.4-26.23,7.42-37.23c-24.31,34.9-41.14-9.42-22-23.09m-99.3,89.2c-1.67.5-13-2.3-22.85-1.61-10.59.74-5.43,13,1.68,12.13,11.45-1.32,17.41,5,28.73,2.79,28.4,10.32,57.51,32.72,70.65,9.72m-19.69-68L242.18,179c-13.54-4.61-31.82-12.15-45.16-15.06l-14.83-6.78c-6.72-3.07-14.36.55-12.73,5.28m191.74-14.15,32.22-12.93m-79.16-14c24.29,34.86,40.42-10,21.86-23.28M269.79,220.65l2.1-20.76-8.75-37L274,128.19m21.79-72.67L293,79.85c-.41,3.51,1.79,5.79,5.48,7l-.11,13.56c-.22,26.94,35.39,27.45,34.18-.27l-1-22.77c14-6.64,8.17-22.19-2.3-16.2M329,69.88c.8-3.1,2.85-4.91,6.57-4.87m-3.9.9a6.92,6.92,0,0,1,1.92,3.9m60.79,70.94c-5.78-22.54-6.62-42.84-36.52-42.73l-25.42.11m-34,.12L285,98.31c-26,.12-29.3,26.83-35.2,50.51m18.48-2.41L251.33,140m116.79,53.15c2.66,12.81,7.94,15.81,13.51,17.31,7,1.9,15.58-.51,21.39-10.38l45.59-77.46a15,15,0,0,0,1.71-4.22,6.43,6.43,0,0,0,1.71-1.08l10.43-9.18c6.33-5.57-2.16-15.4-8.58-9.75l-7.3,6.42,9.59-8.69c9.77-8.6.43-19.18-8.58-9.75-6.52,6.83-11.89,12-10.93,10.72.63-.85,4-4.51,11.65-12.37,5-5.19-3.09-13.81-8.42-8.31L420.23,96.71M364,214.07l4.17-20.89-10.4-63.93m78-13.9c-.63-8.69-8.36-12.17-13.63-12L418.18,90c-2-6.93-11.62-6.81-10.58,3.36l1.93,18.81C400.76,128,387.44,155,378.61,172.9m-201-9.84c-19.55-3.45-24.38,8.24-19.57,9.15m17.89.08c-3.16-.2-6.62-.27-9.94-.23-9.51.11-16.91,1.19-21.57,1.63-10.27,1-7.12,8.33.22,10.1a77.42,77.42,0,0,0,25,1.83M408.21,88.29a6.42,6.42,0,0,0-.71,3.48l.38,4.86,2.31-.18a.48.48,0,0,0,.44-.51l-.36-4.61a3.71,3.71,0,0,0-2.06-3Zm-91.75,58.66a1.58,1.58,0,0,1,1.24,1.9,1.67,1.67,0,0,1-1.85,1.41,1.58,1.58,0,0,1-1.24-1.9,1.67,1.67,0,0,1,1.85-1.41Zm-.33,22.53a1.58,1.58,0,0,1,1.24,1.9,1.67,1.67,0,0,1-1.85,1.41,1.58,1.58,0,0,1-1.24-1.9A1.67,1.67,0,0,1,316.13,169.48Z"/><polygon class="cls-3" points="298.09 86.33 303.06 87.12 297.75 90.94 298.09 86.33"/><path class="cls-14" d="M330.37,74.32a8.42,8.42,0,1,0,6.15.44"/><path class="cls-14" d="M292.76,74.3a8.42,8.42,0,0,0,4.74,16.15"/><polyline class="cls-13" points="306.15 65.75 303.92 70.98 306.64 70.84"/><path class="cls-13" d="M307.28,73.51a2.46,2.46,0,0,0,2.31-1.73"/><ellipse class="cls-15" cx="301.21" cy="66.22" rx="2.09" ry="1.03" transform="translate(150.71 335.4) rotate(-73.19)"/><ellipse class="cls-15" cx="314.81" cy="67.87" rx="2.09" ry="1.03" transform="translate(158.79 349.6) rotate(-73.19)"/><path class="cls-16" d="M312.27,61.49c2.39-1.37,5.39-.87,8.42,1"/><path class="cls-17" d="M297.27,59.55c2.39-1.37,5.39-.87,8.42,1"/><path class="cls-18" d="M405.68,72.17l40.67-20.32a3.56,3.56,0,0,1,4.76,1.59l12.23,24.47a3.56,3.56,0,0,1-1.59,4.76l-39.29,19.63-4.24-12.72c-1.65-4.94-6.83-6.42-9.46-3.31l-4.67-9.34A3.55,3.55,0,0,1,405.68,72.17Z"/><path class="cls-3" d="M405.45,79.64l47-23.49,3.4,6.8L412.45,84.64a4.5,4.5,0,0,0-3.69,1.63Z"/><path class="cls-19" d="M446.92,75.71A4.18,4.18,0,1,1,445,81.32a4.18,4.18,0,0,1,1.87-5.61Zm5.1-2.55A4.18,4.18,0,1,0,457.62,75,4.18,4.18,0,0,0,452,73.17Z"/><path class="cls-20" d="M418,88.89l2.87-1.43a.15.15,0,0,1,.2.07l2.31,4.62a.15.15,0,0,1-.07.2l-3.54,1.77-1.51-4.52C418.15,89.34,418.06,89.11,418,88.89Z"/><path class="cls-20" d="M422.41,89.76l1.33-.66a.11.11,0,0,1,.15.05l.55,1.09a.11.11,0,0,1-.05.15l-1.33.66a.11.11,0,0,1-.15-.05l-.55-1.09A.12.12,0,0,1,422.41,89.76Z"/><path class="cls-20" d="M421.17,87.29l1.33-.66a.11.11,0,0,1,.15.05l.52,1a.11.11,0,0,1-.05.15l-1.33.66a.11.11,0,0,1-.15-.05l-.52-1A.11.11,0,0,1,421.17,87.29Z"/><path class="cls-20" d="M423.12,91.18l1.33-.67a.11.11,0,0,1,.15,0l.4.79a.11.11,0,0,1,0,.15l-1.33.67a.11.11,0,0,1-.15,0l-.4-.79A.11.11,0,0,1,423.12,91.18Z"/><path class="cls-20" d="M421.86,88.64l1.31-.65a.12.12,0,0,1,.17.06l.39.78a.13.13,0,0,1-.06.17l-1.31.65a.13.13,0,0,1-.17-.06l-.39-.78A.12.12,0,0,1,421.86,88.64Z"/></g></svg>