<svg id="Blanja_-_Ecomerce_Illustration_Kit" data-name="Blanja - Ecomerce Illustration Kit" xmlns="http://www.w3.org/2000/svg" viewBox="0 0 600 336"><defs><style>.cls-1{fill:#efede4;}.cls-18,.cls-2{fill:#0a090f;}.cls-13,.cls-19,.cls-26,.cls-3{fill:#fff;}.cls-4{fill:#070838;}.cls-12,.cls-13,.cls-14,.cls-15,.cls-16,.cls-17,.cls-18,.cls-19,.cls-20,.cls-21,.cls-22,.cls-23,.cls-25,.cls-26,.cls-27,.cls-28,.cls-31,.cls-32,.cls-4,.cls-9{fill-rule:evenodd;}.cls-21,.cls-5{fill:red;}.cls-6{fill:#fdd501;}.cls-7{fill:#55b459;}.cls-10,.cls-11,.cls-16,.cls-17,.cls-20,.cls-25,.cls-27,.cls-28,.cls-29,.cls-30,.cls-31,.cls-32,.cls-8,.cls-9{fill:none;}.cls-10,.cls-11,.cls-8{stroke:#070838;}.cls-10,.cls-11,.cls-16,.cls-25,.cls-27,.cls-31,.cls-32,.cls-8{stroke-linejoin:round;}.cls-8{stroke-width:1.16px;stroke-dasharray:2.31 3.47;}.cls-10,.cls-16,.cls-25,.cls-27,.cls-31,.cls-32{stroke-linecap:round;}.cls-10{stroke-width:2px;stroke-dasharray:10.28 15.42;}.cls-11{stroke-width:1.58px;stroke-dasharray:3.17 4.75;}.cls-12,.cls-24{fill:#355da8;}.cls-14{fill:#fc151e;}.cls-15{fill:#ffa100;}.cls-16,.cls-17,.cls-20,.cls-25,.cls-29{stroke:#0a0910;}.cls-16,.cls-19,.cls-20,.cls-26,.cls-28,.cls-29,.cls-30{stroke-width:1.42px;}.cls-17,.cls-19,.cls-20,.cls-26,.cls-28,.cls-29,.cls-30{stroke-miterlimit:22.93;}.cls-17{stroke-width:0.71px;}.cls-19{stroke:#0a090f;}.cls-22{fill:#cbc6b8;}.cls-23{fill:#999;}.cls-25{stroke-width:1.42px;}.cls-26{stroke:#000;}.cls-27{stroke:#ffa100;}.cls-27,.cls-31,.cls-32{stroke-width:2.13px;}.cls-28,.cls-30{stroke:#355da8;}.cls-31{stroke:#f00000;}.cls-32{stroke:#242f92;}</style></defs><title>Belanja - E-comerce Illustrstion Kit</title><g id="Build_an_Online_Store" data-name="Build an Online Store"><rect class="cls-1" width="600" height="336"/><rect class="cls-2" x="191.24" y="76.06" width="253.51" height="189.87" rx="8.35" ry="8.35"/><rect class="cls-3" x="197.5" y="102.14" width="240.99" height="156.49" rx="6.88" ry="6.88"/><path class="cls-4" d="M197.79,76.06H438.2a6.57,6.57,0,0,1,6.55,6.55v6.55H191.24V82.61A6.57,6.57,0,0,1,197.79,76.06Z"/><circle class="cls-5" cx="206.72" cy="89.19" r="3.74"/><circle class="cls-6" cx="218.1" cy="89.19" r="3.74"/><circle class="cls-7" cx="229.49" cy="89.19" r="3.74"/><rect class="cls-8" x="340.37" y="112.57" width="88.11" height="80.83" rx="9.82" ry="9.82"/><path class="cls-9" d="M350.19,112.57h68.48a9.85,9.85,0,0,1,9.82,9.82v61.19a9.85,9.85,0,0,1-9.82,9.82H350.19a9.85,9.85,0,0,1-9.82-9.82V122.39A9.85,9.85,0,0,1,350.19,112.57Z"/><rect class="cls-10" x="207.49" y="205.22" width="221.16" height="45.74" rx="5.56" ry="5.56"/><rect class="cls-11" x="207.49" y="112.57" width="120.5" height="80.76" rx="9.81" ry="9.81"/><path class="cls-9" d="M217.3,112.57H318.19a9.84,9.84,0,0,1,9.81,9.81v61.14a9.84,9.84,0,0,1-9.81,9.81H217.3a9.84,9.84,0,0,1-9.81-9.81V122.38A9.84,9.84,0,0,1,217.3,112.57Z"/><path class="cls-12" d="M267.74,162.73a9.78,9.78,0,1,0-9.78-9.78A9.8,9.8,0,0,0,267.74,162.73Z"/><polygon class="cls-13" points="261.61 152.06 266.85 152.06 266.85 146.81 268.63 146.81 268.63 152.06 273.88 152.06 273.88 153.84 268.63 153.84 268.63 159.09 266.85 159.09 266.85 153.84 261.61 153.84 261.61 152.06"/><path class="cls-14" d="M244.78,218.66l93-5.48a9.08,9.08,0,0,1,9.58,8.51l3.32,56.36a9.09,9.09,0,0,1-8.51,9.58l-93,5.48a9.09,9.09,0,0,1-9.58-8.51l-3.32-56.36A9.09,9.09,0,0,1,244.78,218.66Z"/><path class="cls-15" d="M279.27,261.86l6.53,20.25-5.17-33.65c.79-11.49,14.67-10.18,16.89-2.78l7.49,34.2-4-34.82c-1.1-6.6,13.86-12.78,18-1.14l5.06,44.6,17.23-.88-13.95,27.94-.06,20-57.22.22-.27-39.75-7.15-27.76C259.23,254.08,276.85,253.66,279.27,261.86Z"/><path class="cls-16" d="M324.83,292.14l-5.72-47.25c-1.32-10.95-19.24-9.29-18,1.35l4.44,36.87-7.79-36.28c-2.34-10.9-18.63-8.19-16.9,3l5.57,35.88-6.75-22.62c-3.33-11.16-20-7.16-17.27,3.58L269.8,296l.8,39.93m56.48-4.31.19-15.83,14-28"/><path class="cls-17" d="M269.43,259.64h0a5.46,5.46,0,0,1,6.66,3.87l1.75,6.58a.7.7,0,0,1-.49.85l-9.15,2.43a.73.73,0,0,1-.9-.52l-1.74-6.54A5.46,5.46,0,0,1,269.43,259.64Z"/><path class="cls-17" d="M288,242.66h0a5.46,5.46,0,0,1,6.32,4.4l1.2,6.7a.7.7,0,0,1-.56.81l-9.31,1.67a.73.73,0,0,1-.85-.59l-1.2-6.66A5.46,5.46,0,0,1,288,242.66Z"/><path class="cls-17" d="M309.5,241h0a5.46,5.46,0,0,1,5.78,5.09l.43,6.79a.7.7,0,0,1-.65.74l-9.44.6a.73.73,0,0,1-.78-.68l-.43-6.76A5.46,5.46,0,0,1,309.5,241Z"/><path class="cls-18" d="M398.62,68l61.51,14.39a9.08,9.08,0,0,1,6.76,10.88l-12.86,55A9.08,9.08,0,0,1,443.14,155l-61.51-14.39a9.08,9.08,0,0,1-6.76-10.88l12.86-55A9.08,9.08,0,0,1,398.62,68Z"/><path class="cls-17" d="M428.15,112.37h0a5.46,5.46,0,0,1,1.45-7.57l5.63-3.82a.7.7,0,0,1,1,.19l5.32,7.83a.73.73,0,0,1-.19,1l-5.6,3.8A5.46,5.46,0,0,1,428.15,112.37Z"/><path class="cls-17" d="M417.88,93.44h0a5.46,5.46,0,0,1,2.3-7.35l6-3.15a.7.7,0,0,1,.94.29l4.39,8.39a.73.73,0,0,1-.31,1l-6,3.14A5.46,5.46,0,0,1,417.88,93.44Z"/><path class="cls-19" d="M397.53,60.58,459,75a9.08,9.08,0,0,1,6.76,10.88l-12.86,55A9.09,9.09,0,0,1,442,147.59L380.54,133.2a9.09,9.09,0,0,1-6.76-10.88l12.86-55A9.09,9.09,0,0,1,397.53,60.58Z"/><path class="cls-15" d="M457.67,129.45c-12.79-4.28-13.2-23.38-2-24.81-20.49-8-12.52-28.48,10.91-23.11.3-7.63,11.06-13.13,18.94-8.15l38.13,24.09L539.91,109l-1.59,90.59-54.2-40.82c-6.84-3.86-15.54-2-24.45-5.24C446.78,145.67,450.21,134.07,457.67,129.45Z"/><path class="cls-20" d="M523.88,97.24,483.94,72.82c-5.13-3.14-17.21.42-17.11,8.9m10.37,25.42c-6.27-1.84-12.09-2.22-18.46-2.62-16.39-1-14.87,25,4,25.2m16.47,2.52c-3.84-.88-14-3.13-19.79-2.54-10.43,1.06-14.62,23.92,8.95,25.88,5.53.46,11.91.48,16.64,4l52.27,38.82m1-90.25L524.21,97.42c-24.3-10.16-45-13.35-57.33-15.61-33.17-6.07-24.54,24.45-8.37,22.65"/><path class="cls-21" d="M403.85,113.13l22.35,5.23a8.26,8.26,0,0,1,6.14,9.89h0a8.26,8.26,0,0,1-9.89,6.14l-22.35-5.23a8.26,8.26,0,0,1-6.14-9.89h0A8.26,8.26,0,0,1,403.85,113.13Z"/><path class="cls-13" d="M401,125.54l2-8.65,3.15.74a3.89,3.89,0,0,1,1.48.62,2,2,0,0,1,.72,1,2.22,2.22,0,0,1,.06,1.22,2.08,2.08,0,0,1-.53,1,2.16,2.16,0,0,1-1.06.59,2.23,2.23,0,0,1,1,1.06,2.2,2.2,0,0,1,.1,1.4,2.67,2.67,0,0,1-.51,1.07,2.25,2.25,0,0,1-.8.66,2.63,2.63,0,0,1-1,.21,5.55,5.55,0,0,1-1.39-.17l-3.2-.75Zm2.28-4.75,1.81.42a4,4,0,0,0,1.08.15,1.2,1.2,0,0,0,.74-.28,1.31,1.31,0,0,0,.39-.71,1.45,1.45,0,0,0,0-.81,1,1,0,0,0-.47-.59,4.77,4.77,0,0,0-1.25-.42l-1.68-.39-.61,2.62Zm-.94,4,2.09.49a4.71,4.71,0,0,0,.77.13,1.8,1.8,0,0,0,.7-.09,1.29,1.29,0,0,0,.54-.38,1.59,1.59,0,0,0,.34-.69,1.51,1.51,0,0,0,0-.9,1.3,1.3,0,0,0-.55-.66,4.09,4.09,0,0,0-1.19-.43L403,121.8l-.7,3Zm14-4.78,1.11.26-1.17,5a6.29,6.29,0,0,1-.77,2,2.59,2.59,0,0,1-1.32,1,3.65,3.65,0,0,1-2.07,0,4,4,0,0,1-1.82-.87,2.42,2.42,0,0,1-.78-1.46,6.13,6.13,0,0,1,.19-2.24l1.17-5L412,119l-1.17,5a5.17,5.17,0,0,0-.19,1.71,1.61,1.61,0,0,0,.5,1,2.4,2.4,0,0,0,1.14.57,2.32,2.32,0,0,0,1.87-.17,3.49,3.49,0,0,0,1-2.08l1.17-5Zm3.3,9.9.86-3.67-2.06-5.74,1.33.31,1,3c.19.56.37,1.11.52,1.66q.54-.59,1.28-1.31l2.22-2.17,1.29.3-4.51,4.2-.86,3.67Z"/><path class="cls-22" d="M391.8,98.38l51.73,12.1a1.58,1.58,0,0,1,1.17,1.89h0a1.58,1.58,0,0,1-1.89,1.17l-51.73-12.1a1.58,1.58,0,0,1-1.17-1.89h0A1.58,1.58,0,0,1,391.8,98.38Z"/><path class="cls-22" d="M393.28,92,445,104.14a1.58,1.58,0,0,1,1.17,1.89h0a1.58,1.58,0,0,1-1.89,1.17l-51.73-12.1a1.58,1.58,0,0,1-1.17-1.89h0A1.58,1.58,0,0,1,393.28,92Z"/><path class="cls-22" d="M394.93,85l36.37,8.51a1.58,1.58,0,0,1,1.17,1.89h0a1.58,1.58,0,0,1-1.89,1.17l-36.37-8.51A1.58,1.58,0,0,1,393,86.18h0A1.58,1.58,0,0,1,394.93,85Z"/><path class="cls-23" d="M400.05,73.12l23.73,5.55a3.86,3.86,0,0,1,2.87,4.63h0A3.86,3.86,0,0,1,422,86.17L398.3,80.62A3.86,3.86,0,0,1,395.42,76h0A3.86,3.86,0,0,1,400.05,73.12Z"/><rect class="cls-24" x="108.85" y="43.88" width="111.29" height="74.58" rx="9.06" ry="9.06" transform="translate(0.65 163.64) rotate(-52.98)"/><path class="cls-15" d="M164,62.69l-20.1-7,30,16.13c8.7,7.55-.71,17.84-8,15.16L134.07,72.4l30.19,17.8c5.93,3.1,1.86,18.76-9.93,15.07l-37.64-21.7-10,13.55L92.08,68.8,63.71,47.13,97.93,1.75,142.3,34.58l26.47,11C182.23,51.37,172,65.69,164,62.69Z"/><path class="cls-25" d="M112.34,80.84l41.17,23.88c9.54,5.53,19-9.76,9.73-15.15L131.13,70.91l33.66,15.62c10.11,4.69,17.76-9.95,7.79-15.29l-32-17.15,22.13,8.23c10.92,4.06,17.73-11.62,7.54-15.94L142.4,34.57,100.6,4.21M67.72,49.46,92,68.55l13.95,28.07"/><path class="cls-17" d="M171.65,56.17h0a5.46,5.46,0,0,1-7.1,3l-6.3-2.56a.7.7,0,0,1-.38-.91l3.57-8.77a.73.73,0,0,1,1-.4l6.27,2.55A5.46,5.46,0,0,1,171.65,56.17Z"/><path class="cls-17" d="M174,81.24h0a5.46,5.46,0,0,1-7.32,2.4l-6.07-3.07a.7.7,0,0,1-.31-.94l4.27-8.44a.73.73,0,0,1,1-.32l6,3.06A5.46,5.46,0,0,1,174,81.24Z"/><path class="cls-17" d="M162.43,99.4h0a5.46,5.46,0,0,1-7.54,1.55l-5.68-3.74a.7.7,0,0,1-.2-1l5.21-7.9a.73.73,0,0,1,1-.21l5.65,3.73A5.46,5.46,0,0,1,162.43,99.4Z"/><path class="cls-26" d="M140.37,318A40.35,40.35,0,1,0,100,277.66,40.43,40.43,0,0,0,140.37,318Z"/><path class="cls-18" d="M146.78,252.29l2.09,6.64a22.31,22.31,0,0,1,2,1.18l6.79-1.51a27.72,27.72,0,0,1,8.07,14L161,277.69q0,.58,0,1.17t0,1.17l4.71,5.13a27.72,27.72,0,0,1-8.07,14l-6.79-1.51a22.35,22.35,0,0,1-2,1.18l-2.09,6.64a27.88,27.88,0,0,1-16.12,0l-2.09-6.64a22.28,22.28,0,0,1-2-1.18l-6.79,1.51a27.72,27.72,0,0,1-8.07-14L116.4,280q0-.58,0-1.17t0-1.17l-4.71-5.13a27.72,27.72,0,0,1,8.07-14l6.79,1.51a22.39,22.39,0,0,1,2-1.18l2.09-6.64a27.88,27.88,0,0,1,16.12,0Zm-8.06,15a11.55,11.55,0,1,0,11.55,11.55A11.55,11.55,0,0,0,138.72,267.3Z"/><path class="cls-23" d="M150.08,249.89l2.09,6.64a22.3,22.3,0,0,1,2,1.18L161,256.2a27.72,27.72,0,0,1,8.07,14l-4.71,5.13q0,.58,0,1.17t0,1.17l4.71,5.13a27.72,27.72,0,0,1-8.07,14l-6.79-1.51a22.39,22.39,0,0,1-2,1.18L150.08,303A27.88,27.88,0,0,1,134,303l-2.09-6.64a22.31,22.31,0,0,1-2-1.18l-6.79,1.51a27.72,27.72,0,0,1-8.07-14l4.71-5.13q0-.58,0-1.17t0-1.17L115,270.15a27.72,27.72,0,0,1,8.07-14l6.79,1.51a22.36,22.36,0,0,1,2-1.18l2.09-6.64a27.88,27.88,0,0,1,16.12,0Zm-8.06,15a11.55,11.55,0,1,0,11.55,11.55A11.55,11.55,0,0,0,142,264.9Z"/><path class="cls-12" d="M384.43,162.77a9.78,9.78,0,1,0-9.78-9.78A9.8,9.8,0,0,0,384.43,162.77Z"/><polygon class="cls-13" points="378.3 152.09 383.54 152.09 383.54 146.85 385.32 146.85 385.32 152.09 390.57 152.09 390.57 153.87 385.32 153.87 385.32 159.12 383.54 159.12 383.54 153.87 378.3 153.87 378.3 152.09"/><path class="cls-27" d="M146.17,207.25c-9.65-5.08-13.17.21-16.68,4.32-4.39,5.14-9.45,5.17-14.51,0-3.38-3.46-9.16-10.27-17-.9-7.15,8.58-14.38-8.13-24.81-.44l-.34.78"/><path class="cls-28" d="M104.71,196a11.25,11.25,0,1,0-11.25-11.25A11.27,11.27,0,0,0,104.71,196Z"/><path class="cls-28" d="M508,227.66a5.3,5.3,0,1,0-5.3-5.3A5.31,5.31,0,0,0,508,227.66Z"/><circle class="cls-29" cx="77.8" cy="177.08" r="2.91"/><path class="cls-28" d="M312.79,36.26a5.3,5.3,0,1,0-5.3-5.3A5.31,5.31,0,0,0,312.79,36.26Z"/><circle class="cls-30" cx="321.18" cy="57.08" r="2.91"/><path class="cls-31" d="M439.27,28.75c-9.65-5.08-13.17.21-16.68,4.32-4.39,5.14-9.45,5.17-14.51,0-3.38-3.46-9.16-10.27-17-.9C384,40.73,376.73,24,366.3,31.72l-.34.78"/><path class="cls-32" d="M436.95,288.85c-9.65-5.08-13.17.21-16.68,4.32-4.39,5.14-9.45,5.17-14.51,0-3.38-3.46-9.16-10.27-17-.9-7.15,8.58-14.38-8.13-24.81-.44l-.34.78"/><path class="cls-13" d="M445.21,260.5h50.35a25.07,25.07,0,0,1,25,25h0a25.07,25.07,0,0,1-25,25H420.21v-25A25.07,25.07,0,0,1,445.21,260.5Z"/><path class="cls-14" d="M446.39,290.75a5.25,5.25,0,1,0-5.25-5.25A5.26,5.26,0,0,0,446.39,290.75Z"/><path class="cls-14" d="M470.39,290.75a5.25,5.25,0,1,0-5.25-5.25A5.26,5.26,0,0,0,470.39,290.75Z"/><path class="cls-14" d="M494.39,290.75a5.25,5.25,0,1,0-5.25-5.25A5.26,5.26,0,0,0,494.39,290.75Z"/></g></svg>