<svg id="Blanja_-_Ecomerce_Illustration_Kit" data-name="Blanja - Ecomerce Illustration Kit" xmlns="http://www.w3.org/2000/svg" viewBox="0 0 600 336"><defs><style>.cls-1{fill:#efede4;}.cls-10,.cls-2,.cls-4{fill:#0a0910;}.cls-23,.cls-3{fill:#ffa100;}.cls-10,.cls-11,.cls-13,.cls-15,.cls-16,.cls-18,.cls-19,.cls-20,.cls-28,.cls-29,.cls-3,.cls-30,.cls-4,.cls-5,.cls-6,.cls-7,.cls-9{fill-rule:evenodd;}.cls-11,.cls-18,.cls-19,.cls-5,.cls-6,.cls-7,.cls-8,.cls-9{fill:none;}.cls-5{stroke:#ffa100;}.cls-11,.cls-18,.cls-19,.cls-5,.cls-6,.cls-7{stroke-linecap:round;stroke-linejoin:round;}.cls-5,.cls-6,.cls-7{stroke-width:2.13px;}.cls-6{stroke:#242f92;}.cls-7{stroke:#f00000;}.cls-10,.cls-11,.cls-18,.cls-19,.cls-8,.cls-9{stroke:#0a0910;}.cls-10,.cls-8,.cls-9{stroke-miterlimit:22.93;}.cls-10,.cls-11,.cls-8,.cls-9{stroke-width:1.42px;}.cls-12{fill:#fafd1e;}.cls-13{fill:#ff7d00;}.cls-14{fill:#fdd501;}.cls-15,.cls-17{fill:#f20;}.cls-16{fill:#fa0000;}.cls-18{stroke-width:1.42px;}.cls-19{stroke-width:3.4px;}.cls-20,.cls-24{fill:#ff6b00;}.cls-21{fill:#fd6724;}.cls-22{fill:#cb521d;}.cls-25{fill:#fdcdb5;}.cls-26{fill:#e97c33;}.cls-27{fill:#fff;}.cls-28{fill:#fc151e;}.cls-29{fill:#ffab15;}.cls-30{fill:#355da8;}</style></defs><title>Belanja - E-comerce Illustrstion Kit</title><g id="Delivery_Order" data-name="Delivery Order"><rect class="cls-1" width="600" height="336"/><rect class="cls-2" x="84" y="313.74" width="432" height="2.52" rx="1.26" ry="1.26"/><path class="cls-3" d="M352.64,115.48c0,2.21-.23,3.69-.32,5.74a13.81,13.81,0,0,0-7.07,2.17c-3.4-.58-6.11-5-6.32-10.8Z"/><path class="cls-4" d="M349.15,146a7.23,7.23,0,0,1-6.43-6.3,8.46,8.46,0,0,0,6.05,1.86Z"/><path class="cls-5" d="M455.9,252c9.65-5.08,13.17.21,16.68,4.32,4.39,5.14,9.45,5.17,14.51,0,3.38-3.46,9.16-10.27,17-.9,7.15,8.58,14.38-8.13,24.81-.44l.34.78"/><path class="cls-6" d="M107.6,187.82c9.65-5.08,13.17.21,16.68,4.32,4.39,5.14,9.45,5.17,14.51,0,3.38-3.46,9.16-10.27,17-.9,7.15,8.58,14.38-8.13,24.81-.44l.34.78"/><path class="cls-7" d="M221.71,78c-9.65-5.08-13.17.21-16.68,4.32-4.39,5.14-9.45,5.17-14.51,0-3.38-3.46-9.16-10.27-17-.9-7.15,8.58-14.38-8.13-24.81-.44l-.34.78"/><circle class="cls-8" cx="363.16" cy="21.45" r="3.05"/><path class="cls-9" d="M93.16,249a5.3,5.3,0,1,0-5.3-5.3A5.31,5.31,0,0,0,93.16,249Z"/><circle class="cls-8" cx="84.77" cy="269.85" r="2.91"/><path class="cls-9" d="M251.5,97.91a6.61,6.61,0,1,0-6.61-6.61A6.62,6.62,0,0,0,251.5,97.91Z"/><circle class="cls-8" cx="153.77" cy="164.85" r="2.91"/><path class="cls-9" d="M483.56,224a11.25,11.25,0,1,0-11.25-11.25A11.27,11.27,0,0,0,483.56,224Z"/><path class="cls-9" d="M518.86,184.23a5.3,5.3,0,1,0-5.3-5.3A5.31,5.31,0,0,0,518.86,184.23Z"/><circle class="cls-8" cx="518.87" cy="206.25" r="2.91"/><circle class="cls-8" cx="503.83" cy="92.28" r="1.97"/><path class="cls-9" d="M486.16,48a5.3,5.3,0,1,0-5.3-5.3A5.31,5.31,0,0,0,486.16,48Z"/><circle class="cls-8" cx="435.39" cy="225.78" r="1.97"/><circle class="cls-8" cx="447.39" cy="125.28" r="1.97"/><polygon class="cls-4" points="308.42 149.12 316.66 151.1 307.24 156.83 308.33 149.69 308.42 149.12"/><path class="cls-10" d="M338.3,93.45c1.41-2.53,5.52-1.41,4.69,1.78,6.12,3.3,10.38,10,9.35,20.12l-38.36-7-.06.14c-5.39-1.11-14.72-2.79-19.1-6.8-8.74-8,.34-15.43,8.08-8.4,5.07,4.61,5.68,6.36,12.63,9.39A21.16,21.16,0,0,1,338.3,93.45Z"/><path class="cls-11" d="M200.67,288.89a59.55,59.55,0,0,0-20.8,9.39c-8.43,5.92-2,18.19,5.76,13.05,9.47-6.28,26.15-12.11,37.37-11.37,13.11.87,26.39,2.14,39.61,3.41M326,222.29l-3.38-2.85,2-27m21.34-59.82c1.23-3.57,3.8-5.52,8.17-5.13m-4.68.7a8.17,8.17,0,0,1,1.9,4.77M242.43,260.32c1.64-6.15,8.45-34.58,9.92-40.3,5.55-21.65,9-44.64,29.11-52.37a45.55,45.55,0,0,1,16.64-2.71l8.65,0m57.52.27c0,40.57-75.33,33.22-64.64-.39m14.2-56.19L302.61,141c-1.28,3.7,1.79,7.55,5.37,8.36,2.51.57,9.19,1.89,9.59,2.05m-9.56-2-1.35,16.2c-2.22,26.64,52.08,19.86,47.25-.2l-5.72-23.78c14.68-5.63,12.71-20.35,3.68-20.46-1.46,0-6.75.72-8.88,5.25M322.47,288.89a59.55,59.55,0,0,0-20.8,9.39c-8.43,5.92-2,18.19,5.76,13.05,9.47-6.28,26.15-12.11,37.37-11.37,19.2,1.27,38.76,3.41,58,5.14,25.28,2.27,43.93-3.24,35.2-37.39L427.06,225m-24.78,89-1.46-9m-78.6-29.85c-8.37,1.87-16.8,4.17-24.45,10-9.3,7.13-1.62,14.62,4.14,12.79m29.1-38c1-.14,2-.24,3-.29l-24-2.94a6.38,6.38,0,0,0-7.09,5.54h0a6.34,6.34,0,0,0,1.21,4.55m79.44-50.72,10,44.82c-16.88-.38-40.12-2.37-56.28-.77-27.64,2.74-40.4,7.44-43.78,11.94s-1.56,12.53,6.15,11.63m89.06-44.26,38.46-15.43M353.89,165l28.5.16c37.14.14,37.72,32,44.68,59.95M261.26,313.48l17.26-106.1m-4.11,25.8-22.51-9m-51.49,51.07c-8.37,1.87-16.8,4.17-24.45,10-9.3,7.13-1.62,14.62,4.14,12.79m29.1-38c1-.14,2-.24,3-.29l-24-2.94a6.38,6.38,0,0,0-7.09,5.54h0a6.34,6.34,0,0,0,1.21,4.55m60.38-6.37-27.22-.3c-27.64,2.74-40.4,7.44-43.78,11.94s-1.56,12.53,6.15,11.63m152.49-84.74a1.87,1.87,0,0,0-1.46,2.25,2,2,0,0,0,2.18,1.67,1.87,1.87,0,0,0,1.46-2.25,2,2,0,0,0-2.18-1.67Zm-.81,11.59a1.87,1.87,0,0,0-1.46,2.25,2,2,0,0,0,2.18,1.67,1.87,1.87,0,0,0,1.46-2.25A2,2,0,0,0,329.52,210.68Z"/><rect class="cls-12" x="209.23" y="163.68" width="73.02" height="59.85" rx="4.11" ry="4.11"/><path class="cls-13" d="M280.5,164.82a4.88,4.88,0,0,1,1.76,3.75v17.71h-73V168.57a4.88,4.88,0,0,1,1.76-3.75Z"/><rect class="cls-14" x="205.12" y="161.4" width="81.24" height="21.45" rx="3.19" ry="3.19"/><path class="cls-15" d="M214.61,144.91c4.58-5.11,14.61-3.61,22.4,3.37s10.38,16.78,5.8,21.89-14.61,3.61-22.4-3.37S210,150,214.61,144.91Zm22.55,20.17a26.29,26.29,0,0,0-6.43-8.58,25.49,25.49,0,0,0-10.86-5.92,35.14,35.14,0,0,0,6.62,7.91A34.27,34.27,0,0,0,237.16,165.07Z"/><path class="cls-16" d="M216.73,143.2c5.11-2.91,13.77-.75,20.27,5.07s10.17,13,8.68,18.4a30.58,30.58,0,0,1-8.52-1.61,26.29,26.29,0,0,0-6.43-8.58,25.49,25.49,0,0,0-10.86-5.92A26.92,26.92,0,0,1,216.73,143.2Z"/><polygon class="cls-16" points="255.25 164.55 275.74 197.86 267.59 195.79 266.02 203.84 245.53 170.53 255.25 164.55"/><polygon class="cls-15" points="236.24 164.87 215.75 198.18 223.9 196.11 225.47 204.16 245.96 170.85 236.24 164.87"/><path class="cls-15" d="M275.59,144.91c-4.58-5.11-14.61-3.61-22.4,3.37-7.2,6.46-11.6,22.88-2.87,25.66,5.14,1.64,13.48-1.77,19.47-7.14,7.78-7,10.38-16.78,5.8-21.89ZM253,165.07a26.3,26.3,0,0,1,6.43-8.58,25.49,25.49,0,0,1,10.86-5.92,35.14,35.14,0,0,1-6.62,7.91A34.27,34.27,0,0,1,253,165.07Z"/><path class="cls-16" d="M273.47,143.2c-5.11-2.91-13.77-.75-20.27,5.07s-9.76,13.12-8.27,18.47a26.71,26.71,0,0,0,8-1.36,26.86,26.86,0,0,1,17.38-14.82A26.92,26.92,0,0,0,273.47,143.2Z"/><rect class="cls-17" x="240.18" y="166.1" width="11.13" height="57.79"/><polyline class="cls-11" points="322.32 122.58 316.96 128.17 315.41 132.2 320.57 133.39"/><path class="cls-18" d="M320.36,137.19a3.69,3.69,0,0,0,4.23-2.8"/><ellipse class="cls-2" cx="313.99" cy="125.49" rx="2.46" ry="1.21" transform="translate(103.06 389.77) rotate(-73.19)"/><ellipse class="cls-2" cx="331.29" cy="127.82" rx="2.46" ry="1.21" transform="translate(113.11 407.98) rotate(-73.19)"/><path class="cls-19" d="M327.76,118.62a25.84,25.84,0,0,1,9.22,2.5"/><path class="cls-19" d="M313.51,117.12a25.84,25.84,0,0,1,9.22,2.5"/><path class="cls-3" d="M333.22,223.33H186.78v90.85H333.22l0-12.52a79.63,79.63,0,0,0-27.83,11.49c-7.95,1-11-8.92-5.27-14.25-7.66-.44-10.31-7.79-1.87-14.62-8.55,1.56-12.3-13.31,4.58-18.19-1.83-2.84-.21-9.59,6.13-9.91l24.21,2.93Z"/><path class="cls-20" d="M333.22,223.33H276.61v90.85h56.61l.08-12.62a79.71,79.71,0,0,0-27.84,11.51c-7.95,1-11-8.84-5.28-14.17-8.59.4-10.45-9.43-1.87-14.62-8.24,1.18-11.9-14.26,4.4-18.41-1.83-2.84-.7-9.33,6.06-9.72l24.47,3Z"/><rect class="cls-21" x="186.78" y="223.33" width="146.44" height="25.1"/><rect class="cls-22" x="276.61" y="223.33" width="56.61" height="25.1"/><rect class="cls-23" x="183.79" y="223.33" width="152.41" height="20.92"/><rect class="cls-24" x="276.61" y="223.33" width="59.59" height="20.92"/><rect class="cls-25" x="227.87" y="223.33" width="21.52" height="54.99"/><rect class="cls-26" x="197.24" y="287.27" width="21.52" height="21.52"/><rect class="cls-27" x="198.59" y="285.33" width="21.52" height="21.52"/><path class="cls-28" d="M387,83.11c.06,10.15,5.52,12,10.63,12.11-9.18,1.85-10,3.35-10.88,13.56-.2-7.49-1.2-12.83-11.45-14.5C377.27,94.32,387.54,97,387,83.11Z"/><path class="cls-29" d="M419.94,104.31c0,7.43,4,8.75,7.78,8.87-6.72,1.36-7.33,2.45-8,9.92-.15-5.48-.88-9.39-8.38-10.61C412.83,112.52,420.35,114.46,419.94,104.31Z"/><path class="cls-30" d="M414.22,38.11c.09,15.57,8.47,18.34,16.32,18.59-14.09,2.84-15.37,5.14-16.69,20.8C413.53,66,412,57.82,396.27,55.25,399.33,55.31,415.1,59.38,414.22,38.11Z"/><path class="cls-9" d="M119.95,76.78A11.25,11.25,0,1,0,108.7,65.53,11.27,11.27,0,0,0,119.95,76.78Z"/><path class="cls-9" d="M154,32.23a5.3,5.3,0,1,0-5.3-5.3A5.31,5.31,0,0,0,154,32.23Z"/><circle class="cls-8" cx="163.65" cy="97.45" r="2.91"/></g></svg>