<svg id="Blanja_-_Ecomerce_Illustration_Kit" data-name="Blanja - Ecomerce Illustration Kit" xmlns="http://www.w3.org/2000/svg" viewBox="0 0 600 336"><defs><style>.cls-1{fill:#efede4;}.cls-10,.cls-11,.cls-12,.cls-14,.cls-2,.cls-21,.cls-22,.cls-23,.cls-3,.cls-6,.cls-7,.cls-9{fill:none;}.cls-11,.cls-12,.cls-14,.cls-2,.cls-21,.cls-22,.cls-23,.cls-3,.cls-6,.cls-7{stroke:#0a0910;}.cls-10,.cls-14,.cls-2,.cls-21,.cls-22,.cls-23,.cls-3,.cls-6,.cls-7,.cls-9{stroke-linecap:round;stroke-linejoin:round;}.cls-2{stroke-width:0.98px;}.cls-10,.cls-11,.cls-13,.cls-14,.cls-15,.cls-17,.cls-19,.cls-2,.cls-20,.cls-21,.cls-22,.cls-23,.cls-3,.cls-4,.cls-6,.cls-7,.cls-8,.cls-9{fill-rule:evenodd;}.cls-3{stroke-width:0.76px;}.cls-4{fill:#ffa100;}.cls-5,.cls-8{fill:#0a0910;}.cls-6{stroke-width:2.21px;}.cls-11,.cls-12,.cls-7{stroke-width:1.42px;}.cls-9{stroke:#242f92;}.cls-10,.cls-9{stroke-width:2.13px;}.cls-10{stroke:#f00000;}.cls-11,.cls-12{stroke-miterlimit:22.93;}.cls-13,.cls-18{fill:#355da8;}.cls-14{stroke-width:2.21px;}.cls-15{fill:#fc141c;}.cls-16{fill:#f20000;}.cls-17{fill:#273695;}.cls-19{fill:#fc151e;}.cls-20{fill:#ffab15;}.cls-21{stroke-width:0.93px;}.cls-22{stroke-width:2.21px;}.cls-23{stroke-width:2.21px;}</style></defs><title>Belanja - E-comerce Illustrstion Kit</title><g id="Marketing"><rect class="cls-1" x="-0.17" width="600" height="336"/><path class="cls-2" d="M261.43,124.32c-1.39,1.87-3.05,4.76-5.43,5.88l3.35,1.46"/><path class="cls-3" d="M258.72,134.22a2.54,2.54,0,0,0,3.22-1.35"/><path class="cls-4" d="M283.18,123.41c-.27,1.37-.58,2.27-.87,3.53a8.74,8.74,0,0,0-4.65.52c-2-.76-3.21-3.83-2.67-7.45Z"/><ellipse class="cls-5" cx="255.9" cy="125.48" rx="1.7" ry="0.83" transform="translate(26.6 294.74) rotate(-62.55)"/><ellipse class="cls-5" cx="267.32" cy="129.26" rx="1.7" ry="0.83" transform="translate(29.4 306.9) rotate(-62.55)"/><path class="cls-6" d="M266.1,122.58a17.8,17.8,0,0,1,5.93,2.87"/><path class="cls-7" d="M276.6,134.35c1.29-2.26,3.27-3.25,6.18-2.43m-24.84-17.85-11.72,20.5c-1.34,2.34.25,5.34,2.57,6.35,1.63.71,6,2.45,6.23,2.61M238.15,153c-4.5,32.48,51.62,27.17,44.74.17m-70.42,112.7L216.31,211m59.53-14,33.94,17.16m-99.42-8.8c-16.78,4.76-32,11.6-44.08,9.12-10.55-2.17-59.61-40.37-71.95-48.7a12.74,12.74,0,0,1-2.86-2.61,5.49,5.49,0,0,1-1.71-.2l-11.37-3.22c-6.9-2-4-12.61,3-10.63l8,2.26L78.8,148.19c-10.65-3-7.36-14.57,3-10.63,7.51,2.85,13.52,4.86,12.32,4.22-.8-.42-4.74-2-13.48-5.23-5.77-2.14-2.69-11.73,3.41-9.46l22.52,8.36m-5.07,20c-2.7-6.9,2-12.4,6.05-14.24l-1.86-11.63c-1-6.07,6.42-9.49,9.35-1.3l5.41,15.14c12.53,8.93,32.63,24.73,46,35.27m57.4-2.59-17.25-10.54c-2.22-1.36-7.43.18-7.39,3.85m-32.67,9.22,51-21.51c5.64-2.38,10.84-4.06,15.21-4l12.52-.23m29.91.41,12.19.06c21.13.09,32.85,16,32,37.41-.07,1.79-3.33,73.39-3.58,75.24M203.7,180.38a34.94,34.94,0,0,0-8-1.13c-7.08-.44-6.42,10.82,1.74,10.89m7.11,1.09c-1.66-.38-6-1.35-8.55-1.1-4.5.46-6.32,10.33,3.86,11.18,2.39.2,5.14.21,7.19,1.73l53.6,39.81c19.73,14.66,34.15,6.61,40.66-8.51l14.12-32.79M280.9,183.85l-10.14,28L224,176.17a110.45,110.45,0,0,0-24.76-6.74c-14.33-2.62-10.6,10.56-3.61,9.78m-3,31.07L182.18,172M248.8,141l-3,10.8a9.88,9.88,0,0,0,3.76,11.1c7.72,5.91,23.38,5.24,25-5.84l2.4-16.23c10.66-1.94,11.2-12.17,5.09-13.39-1-.2-4.66-.37-6.68,2.42m4.11,2a5.63,5.63,0,0,1,.68,3.47"/><path class="cls-8" d="M276.39,143.49a5,5,0,0,1-3.56-5.09,5.83,5.83,0,0,0,3.86,2Z"/><path class="cls-9" d="M80.13,248.55c9.65-5.08,13.17.21,16.68,4.32,4.39,5.14,9.45,5.17,14.51,0,3.38-3.46,9.16-10.27,17-.9,7.15,8.58,14.38-8.13,24.81-.44l.34.78"/><path class="cls-10" d="M434.43,294.75c9.65-5.08,13.17.21,16.68,4.32,4.39,5.14,9.45,5.17,14.51,0,3.38-3.46,9.16-10.27,17-.9,7.15,8.58,14.38-8.13,24.81-.44l.34.78"/><path class="cls-11" d="M449.69,258a5.3,5.3,0,1,0-5.3-5.3A5.31,5.31,0,0,0,449.69,258Z"/><circle class="cls-12" cx="126.3" cy="225.58" r="2.91"/><circle class="cls-12" cx="508.8" cy="279.58" r="2.91"/><circle class="cls-12" cx="469.62" cy="238.89" r="1.97"/><polygon class="cls-8" points="249.12 140.78 254.45 143.17 247.34 145.85 248.99 141.15 249.12 140.78"/><path class="cls-13" d="M276.32,106.54a1.81,1.81,0,0,1,3.07,1.87,12.76,12.76,0,0,1,4.72,10.38c5.28.25,6.25-.67,10.93-2,7.21-2,10.65,5.63,2.5,8-4,1.13-10.19-.61-14-1.64-.06.23-.12.46-.19.69l-26.74-10.26A15.16,15.16,0,0,1,276.32,106.54Z"/><path class="cls-14" d="M256.64,119.75a17.8,17.8,0,0,1,5.93,2.87"/><rect class="cls-5" x="193.7" y="146.82" width="38.51" height="10.98" transform="translate(20.22 329.52) rotate(-78.17)"/><path class="cls-15" d="M162.09,102.72l49.43,20.52a30.39,30.39,0,0,1,.83,6.9l25.5,5.34a1.05,1.05,0,0,1,.81,1.24l-2.11,10.1a1.05,1.05,0,0,1-1.24.81l-25.61-5.36a37.49,37.49,0,0,1-3.42,6l-53.51-1C137.85,146.95,148.31,97,162.09,102.72Z"/><rect class="cls-16" x="199.98" y="121.58" width="30.49" height="31.01" rx="2.58" ry="2.58" transform="translate(36.92 319.64) rotate(-78.17)"/><path class="cls-4" d="M398.38,174l-.42-8.62c2.41.5,5-2.28,5-3.18L402,151.22c3.75,8.65,19.4,11.07,25.34,21C417.72,172.79,408.47,174.86,398.38,174Z"/><path class="cls-4" d="M377.51,124.45c-13.31,1.42-16.78,15.25-17.58,20-8.7,7.13-40.41,6.41-33.17,29.68,1,3.18-12.15,8.19-2.16,19.84,7.47-24.31,35.07-19.25,43.88-19.83l5.38-19.25c-12.13-9.56-.54-17.58,3.65-11.66,1.28-2.66,8.64-2.47,8.73-7.38,6,1.07,12.1,5.89,18.51,3.93-.63-8.78-10.88-17.14-19.42-16.45C389.36,104.52,361.65,120.36,377.51,124.45Z"/><path class="cls-7" d="M376.48,149.22a4.59,4.59,0,0,0-4.46-4.34m-36.26,120.2.1-5.52M403.29,174c2.54,32.45-47.49,27.14-40.08.17m33,23.16,15.92-8.64c2-1.11,6.64.51,6.43,3.78m-65.34,26-29.19.93M424.5,208.36c18.09-3.32,41.88-6,53.15-14.57,7.69-5.82,32.6-55.64,39.36-67.12a11.41,11.41,0,0,0,1.3-3.22,4.9,4.9,0,0,0,1.3-.82l7.95-7c4.82-4.24-1.64-11.73-6.54-7.43l-5.56,4.89,7.31-6.62c7.45-6.55.32-14.61-6.54-7.43-5,5.2-9.06,9.14-8.33,8.17.48-.64,3.06-3.44,8.88-9.43,3.84-4-2.35-10.52-6.41-6.33l-15,15.45m-74,155.7-3.09-42.09m50.54-65.64c-.29-1.1-5,12.78-10.65,13.3-14.56,1.35-37.94,5.87-54.37,5.93l-6,0m3.39-33.91,1.71,21.85c-.31,1.35-3,3.34-5.15,3.24l.45,9c1.18,23.82-35.07,19.81-29.58-.6l5.13-19.05c-9.89-6.44-3.61-17.28,3.69-11.69m-8.93,31.29-15.54.08c-21.31.09-32.33,16.85-29.32,38.4M507.2,121.11c-.48-6.62-6.37-9.27-10.39-9.17l-3-10.12c-1.56-5.28-8.85-5.19-8.06,2.56l1.47,14.33c-6.69,12.06-16.83,32.58-23.55,46.25M414.07,202.1a31.28,31.28,0,0,1,7.19-.64c6.35-.07,5.25,10-2.06,9.66m-6.41.64c1.5-.26,5.46-.93,7.7-.59,4,.62,5.17,9.53-4,9.82-2.15.07-4.61-.05-6.51,1.21l-49.79,33.14c-18.36,12.22-31.66,5.41-33.79-15.53l-2.8-27.52m28.63-10.65,2,25.56,41.81-29.8a98.92,98.92,0,0,1,22.46-4.89c12.94-1.68,9,9.93,2.78,8.92m25.45,2.71-3.19-33.88M374.87,146a5.27,5.27,0,0,0-1.84,2.75"/><polygon class="cls-8" points="398.31 164.78 394.48 164.88 398.1 168.3 398.31 164.78"/><path class="cls-8" d="M409.25,173.26l5,.39a3.33,3.33,0,0,1,3,3.57l-1.16,15.33c-4.09.73-8.17,1.88-11.94,2.91l1.51-19.16A3.33,3.33,0,0,1,409.25,173.26Z"/><path class="cls-17" d="M408.54,160.6c3.2,0,14,.8,15,5.51,1.49,6.66.91,11.75-4.12,17.05-3,3.16-12.47-.46-14.59-1C396.72,180.28,399.51,160.6,408.54,160.6Z"/><path class="cls-13" d="M415.31,164.59l45.52-3.24c9.76-.7,2.49,46-8,40.45L412,180C408,177.54,407.25,166.28,415.31,164.59Z"/><ellipse class="cls-5" cx="457.56" cy="181.79" rx="20.63" ry="7.73" transform="translate(199.34 601) rotate(-80.04)"/><path class="cls-17" d="M452.55,171l3.42,1.75c3.64,1.87,1.62,17-3.33,16.92l-3.48-.09a50.61,50.61,0,0,1,.8-9.1A50,50,0,0,1,452.55,171Z"/><ellipse class="cls-18" cx="455.15" cy="181.31" rx="8.22" ry="3.08" transform="translate(197.82 598.22) rotate(-80.04)"/><path class="cls-19" d="M346.07,69.44c-.06,10.15-5.52,12-10.63,12.11,9.18,1.85,10,3.35,10.88,13.56.2-7.49,1.2-12.83,11.45-14.5C355.77,80.65,345.5,83.3,346.07,69.44Z"/><path class="cls-20" d="M313.1,90.64c0,7.43-4,8.75-7.78,8.87,6.72,1.35,7.33,2.45,8,9.92.15-5.48.88-9.39,8.38-10.61C320.21,98.85,312.68,100.79,313.1,90.64Z"/><path class="cls-13" d="M318.82,24.44C318.73,40,310.34,42.78,302.5,43c14.09,2.84,15.37,5.14,16.69,20.8.31-11.49,1.83-19.68,17.58-22.25C333.71,41.64,317.94,45.71,318.82,24.44Z"/><rect class="cls-5" x="87.99" y="264.47" width="432" height="2.52" rx="1.26" ry="1.26"/><line class="cls-12" x1="470.18" y1="168.15" x2="478.53" y2="167.49"/><line class="cls-12" x1="472.2" y1="205.75" x2="465.45" y2="202.36"/><line class="cls-12" x1="468.26" y1="184.5" x2="475.85" y2="186.01"/><line class="cls-12" x1="147.64" y1="106.17" x2="140.04" y2="102.66"/><line class="cls-12" x1="133.85" y1="139.8" x2="141.35" y2="138.96"/><line class="cls-12" x1="142.28" y1="121.24" x2="134.63" y2="120.02"/><polyline class="cls-21" points="393.45 147.18 394.27 151.44 392.26 150.89"/><path class="cls-21" d="M391.07,153.1c-.74,3.3,2.94,2.84,2.5.8a5,5,0,0,1-3-1.35"/><path class="cls-22" d="M389.94,142.75c-1.92-.85-4.15-.24-6.31,1.43"/><path class="cls-19" d="M375.35,150.67a1.21,1.21,0,0,0-1.23,1.22,1.27,1.27,0,0,0,1.15,1.35,1.21,1.21,0,0,0,1.23-1.22A1.27,1.27,0,0,0,375.35,150.67Z"/><ellipse class="cls-5" cx="397.16" cy="147.11" rx="1.3" ry="0.64" transform="translate(214.49 529.23) rotate(-84.77)"/><path class="cls-23" d="M400.89,142.46c-1.86-.55-3.83.28-5.59,2.07"/><ellipse class="cls-5" cx="387.45" cy="146.96" rx="1.3" ry="0.64" transform="matrix(0.09, -1, 1, 0.09, 205.83, 519.42)"/></g></svg>