<svg id="Blanja_-_Ecomerce_Illustration_Kit" data-name="Blanja - Ecomerce Illustration Kit" xmlns="http://www.w3.org/2000/svg" viewBox="0 0 600 336"><defs><style>.cls-1{fill:#efede4;}.cls-2,.cls-22,.cls-28{fill:#fff;}.cls-12,.cls-14,.cls-2,.cls-29,.cls-3,.cls-30,.cls-31{stroke:#0a0910;}.cls-10,.cls-11,.cls-12,.cls-2,.cls-23,.cls-3{stroke-miterlimit:22.93;}.cls-10,.cls-11,.cls-12,.cls-14,.cls-2,.cls-3{stroke-width:1.42px;}.cls-11,.cls-13,.cls-14,.cls-15,.cls-16,.cls-2,.cls-23,.cls-25,.cls-26,.cls-27,.cls-28,.cls-29,.cls-3,.cls-30,.cls-31,.cls-5,.cls-6,.cls-8,.cls-9{fill-rule:evenodd;}.cls-13,.cls-3,.cls-7{fill:#0a0910;}.cls-4{fill:#070838;}.cls-5{fill:#415ea9;}.cls-17,.cls-6{fill:#fd6724;}.cls-10,.cls-11,.cls-12,.cls-14,.cls-23,.cls-29,.cls-30,.cls-31,.cls-8,.cls-9{fill:none;}.cls-8{stroke:#ffa100;}.cls-14,.cls-29,.cls-30,.cls-31,.cls-8,.cls-9{stroke-linecap:round;stroke-linejoin:round;}.cls-8,.cls-9{stroke-width:2.13px;}.cls-9{stroke:#f00000;}.cls-10,.cls-11{stroke:#355da8;}.cls-15,.cls-19{fill:#ffa100;}.cls-16,.cls-20{fill:#ff6b00;}.cls-18{fill:#cb521d;}.cls-21{fill:#fdcdb5;}.cls-23{stroke:#000;stroke-width:0.57px;}.cls-24{fill:#f20000;}.cls-25{fill:#fc151e;}.cls-26{fill:#ffab15;}.cls-27{fill:#355da8;}.cls-29{stroke-width:1.42px;}.cls-30{stroke-width:3.4px;}.cls-31{stroke-width:3.4px;}</style></defs><title>Belanja - E-comerce Illustrstion Kit</title><g id="Order_Monitoring" data-name="Order Monitoring"><rect class="cls-1" y="0.67" width="600" height="335.33"/><path class="cls-2" d="M136.45,35.71H61.82c-3.31,0-6.77.44-5.8,10.51l14.54.13c0,32.83.11,65.93.11,98.6,0,5.55,3.6,10.13,9.17,10.13h76.32c5.14,0,8.23-3.82,8.86-8.79l-18.64-.06c0-33.38.19-67.27.19-100.38A10.17,10.17,0,0,0,136.45,35.71Z"/><path class="cls-3" d="M146.33,133v12.22a9.9,9.9,0,0,0,9.87,9.87h0a9.9,9.9,0,0,0,9.87-9.87V133Z"/><path class="cls-3" d="M60.7,35.71h0a9.9,9.9,0,0,0-9.87,9.87V57.8H70.57V45.57A9.9,9.9,0,0,0,60.7,35.71Z"/><rect class="cls-4" x="109.39" y="59.12" width="32.45" height="6.61" rx="3.31" ry="3.31"/><path class="cls-5" d="M97.58,50.74H81.74A2.72,2.72,0,0,0,79,53.45v18a2.72,2.72,0,0,0,2.71,2.71H97.58a2.72,2.72,0,0,0,2.71-2.71v-18a2.72,2.72,0,0,0-2.71-2.71Zm-3.69,5.45a1.45,1.45,0,0,1,1.45,1.45v9.58a1.45,1.45,0,0,1-1.45,1.45H85.43A1.45,1.45,0,0,1,84,67.22V57.64a1.45,1.45,0,0,1,1.45-1.45Z"/><rect class="cls-4" x="109.39" y="92.09" width="32.45" height="6.61" rx="3.31" ry="3.31"/><path class="cls-5" d="M97.58,83.7H81.74A2.72,2.72,0,0,0,79,86.41v18a2.72,2.72,0,0,0,2.71,2.71H97.58a2.72,2.72,0,0,0,2.71-2.71v-18a2.72,2.72,0,0,0-2.71-2.71Zm-3.69,5.45a1.45,1.45,0,0,1,1.45,1.45v9.58a1.45,1.45,0,0,1-1.45,1.45H85.43A1.45,1.45,0,0,1,84,100.18V90.6a1.45,1.45,0,0,1,1.45-1.45Z"/><rect class="cls-4" x="109.39" y="125.05" width="32.45" height="6.61" rx="3.31" ry="3.31"/><path class="cls-5" d="M97.58,116.66H81.74A2.72,2.72,0,0,0,79,119.37v18A2.72,2.72,0,0,0,81.74,140H97.58a2.72,2.72,0,0,0,2.71-2.71v-18a2.72,2.72,0,0,0-2.71-2.71Zm-3.69,5.45a1.45,1.45,0,0,1,1.45,1.45v9.58a1.45,1.45,0,0,1-1.45,1.45H85.43A1.45,1.45,0,0,1,84,133.14v-9.58a1.45,1.45,0,0,1,1.45-1.45Z"/><path class="cls-6" d="M327.49,247.71c14.66-2,9.74-12.52,7.67-29.74-.92-7.6,6.35-23,6-28.5-1-15-28.4-13.14-36.91-22.84-8.67-9.87,3.83-13.6-20.67-23.17-8.76-3.42,9.79-18.59-6.08-30.09-19.71-14.28-47.71-25.6-63.25-1.07-23.68,37.38,10.78,31.52-8.43,49.49-10.65,10,1.56,15.31,20.19,14.29l1.25-24.55c-15.45-8.67-10.33-25.91,3.24-18.78,3.84,3.19,13.95-4.44,16-15,7.22-3.16,22.49,4.88,23,8.94l3.47,28.79c.35,2.89-3.08,6.08-6.28,7L266.48,176c7.13-.09,21.7-2,34.82,5.74C318.11,191.59,325.31,244.39,327.49,247.71Z"/><rect class="cls-7" x="84" y="326.94" width="432" height="2.52" rx="1.26" ry="1.26"/><path class="cls-8" d="M511,55.86c-9.65-5.08-13.17.21-16.68,4.32-4.39,5.14-9.45,5.17-14.51,0-3.38-3.46-9.16-10.27-17-.9-7.15,8.58-14.38-8.13-24.81-.44l-.34.78"/><path class="cls-9" d="M203.08,108.66c-9.65-5.08-13.17.21-16.68,4.32-4.39,5.14-9.45,5.17-14.51,0-3.38-3.46-9.16-10.27-17-.9-7.15,8.58-14.38-8.13-24.81-.44l-.34.78"/><circle class="cls-10" cx="277.37" cy="43.09" r="3.05"/><circle class="cls-10" cx="283.04" cy="85.69" r="2.91"/><path class="cls-11" d="M115.57,251.62a11.25,11.25,0,1,0-11.25-11.25A11.27,11.27,0,0,0,115.57,251.62Z"/><path class="cls-11" d="M116.87,195.07a5.3,5.3,0,1,0-5.3-5.3A5.31,5.31,0,0,0,116.87,195.07Z"/><circle class="cls-12" cx="88.06" cy="219.49" r="2.91"/><circle class="cls-12" cx="154.74" cy="169.42" r="1.97"/><polygon class="cls-13" points="266.4 162.26 260.53 163.2 266.8 167.71 266.4 162.26"/><path class="cls-14" d="M184,249.43l-38-15.26m160,42.42-9.33-58.37M300.25,241l23.21-8.85M248.77,208c-28.66,41.14-48.84-16.79-26.94-32.42M314.2,291.88a39.58,39.58,0,0,0-10.82-.74c-10.39.43-8.82,15.68.73,15.14m9.64.78c-2.23-.36-8.11-1.27-11.61-.64-6.28,1.12-6.8,12.37,4,13,6.74.42,7,2.54,11,4.16,25.05,10,27.45-15.87,18-43.36M324,321.55c4.59-1.08,6.94-9.48.62-14.12,5.62-2.29,6.39-11.48-1.88-14.78,10.93-3.93-1.79-14.6-13-15.71-19.35-2.17-16.23,16.05-6.48,14.21m-73-148.75c-.95-3.65-3.36-5.8-7.75-5.74M335.21,280.76c-1.64-6.15-10.89-44.18-12.35-49.9-6.82-26.6-8.81-55.37-44.1-55.23l-12.62.13m-31.45,60.78c-.91.45-1.79.95-2.65,1.47l18.07-16.08a6.38,6.38,0,0,1,9,.52h0a6.32,6.32,0,0,1,1.57,3.59m-4.27,15.88a43.23,43.23,0,0,1,10.82-2.78c6.83-1,8.49,5.37,6.11,10.22m-4.28,4.31a8.62,8.62,0,0,1-2.56.75M256.86,257c2.23-.78,8.11-2.79,11.61-2.83a4.8,4.8,0,0,1,1,.09m3.38,3.63c.68,3.48-1.66,8.4-8.34,10.06-9.74,2.43-12,4.48-20,10.13-21.52,16.8-39.69,28.32-62.35,42.34-29,18-55.66,1.24-48.41-30.54l12.73-55.78m43.35-11-10.32,48.91,50.12-31.8c13.8-7.66,24-12,31.23-14.11,19.35-5.81,16.23,12.94,6.48,12.93m-41.79-63.25-32.73.12c-37.14.14-39.82,31.41-46.78,59.35m81.09-97.57a8.16,8.16,0,0,0-2.26,4.61m44.52-16.88,3.37,28.72c.49,4.14-2.11,6.83-6.47,8.29l.13,16c.26,31.79-41.76,32.39-40.33-.32l1.17-26.87c-16.51-7.84-9.64-26.18,2.72-19.11M248.81,208c28.69,41.18,47.55-16.28,24.94-32.42M269,253.75l.48.52,3.38,3.63,3.12,3.36,8,2.7L281.61,256l-7.2-7.76-1.08,1.08-4.28,4.31Z"/><path class="cls-5" d="M233.85,214.81l14.09,15.62,7.67-2.79L239,209.31C236,206,229.92,211.5,233.85,214.81Z"/><path class="cls-15" d="M525.37,236.28H378.93v90.85H525.37Z"/><polygon class="cls-16" points="525.37 236.28 468.76 236.28 468.76 327.13 525.37 327.13 525.37 313.98 525.37 236.28"/><rect class="cls-17" x="378.93" y="236.28" width="146.44" height="25.1"/><rect class="cls-18" x="468.76" y="236.28" width="56.6" height="25.1"/><rect class="cls-19" x="375.94" y="236.28" width="152.41" height="20.92"/><rect class="cls-20" x="468.76" y="236.28" width="59.59" height="20.92"/><rect class="cls-21" x="420.02" y="236.28" width="21.52" height="54.99"/><rect class="cls-17" x="389.39" y="300.23" width="21.52" height="21.52"/><rect class="cls-22" x="390.74" y="298.28" width="21.52" height="21.52"/><rect class="cls-21" x="392.17" y="300.32" width="18.64" height="2.75"/><rect class="cls-21" x="392.17" y="304.57" width="18.64" height="2.75"/><rect class="cls-21" x="400.95" y="313.82" width="9.86" height="2.75"/><path class="cls-15" d="M535.37,145.68H388.93v90.85H535.37Z"/><polygon class="cls-16" points="535.37 145.68 478.76 145.68 478.76 236.53 535.37 236.53 535.37 223.38 535.37 145.68"/><rect class="cls-17" x="388.93" y="145.68" width="146.44" height="25.1"/><rect class="cls-18" x="478.76" y="145.68" width="56.61" height="25.1"/><rect class="cls-19" x="385.94" y="145.68" width="152.41" height="20.92"/><rect class="cls-20" x="478.76" y="145.68" width="59.59" height="20.92"/><rect class="cls-21" x="430.02" y="145.68" width="21.52" height="54.99"/><rect class="cls-17" x="399.39" y="209.63" width="21.52" height="21.52"/><rect class="cls-22" x="400.74" y="207.68" width="21.52" height="21.52"/><rect class="cls-21" x="402.17" y="209.72" width="18.64" height="2.75"/><rect class="cls-21" x="402.17" y="213.97" width="18.64" height="2.75"/><rect class="cls-21" x="410.95" y="223.22" width="9.86" height="2.75"/><polyline class="cls-23" points="336.7 102.03 357.13 87.34 367.22 100.3 391.45 83.09"/><rect class="cls-24" x="354.79" y="84.59" width="4.5" height="4.5"/><rect class="cls-24" x="364.82" y="97.43" width="4.5" height="4.5"/><rect class="cls-24" x="389.1" y="81.03" width="4.5" height="4.5"/><rect class="cls-24" x="335.57" y="98.56" width="4.5" height="4.5"/><path class="cls-11" d="M243.07,74.62a11.25,11.25,0,1,0-11.25-11.25A11.27,11.27,0,0,0,243.07,74.62Z"/><path class="cls-11" d="M366.57,214.12a11.25,11.25,0,1,0-11.25-11.25A11.27,11.27,0,0,0,366.57,214.12Z"/><path class="cls-25" d="M461,153.81c.06,10.15,5.52,12,10.63,12.11-9.18,1.85-10,3.35-10.88,13.56-.2-7.49-1.2-12.83-11.45-14.5C451.29,165,461.56,167.67,461,153.81Z"/><path class="cls-26" d="M494,175c0,7.43,4,8.75,7.78,8.87-6.72,1.35-7.33,2.45-8,9.92-.15-5.48-.88-9.39-8.38-10.61C486.86,183.22,494.38,185.16,494,175Z"/><path class="cls-27" d="M488.25,108.81c.09,15.57,8.47,18.34,16.32,18.59-14.09,2.84-15.37,5.14-16.69,20.8-.31-11.49-1.83-19.68-17.58-22.25C473.36,126,489.13,130.09,488.25,108.81Z"/><path class="cls-25" d="M254.74,245.4l57.68.92a7,7,0,0,1,7,8l-2.78,23.82c-22.29-7.88-26.72,10.2-16.23,13.32-6.31,1.67-6.41,12.52.68,15-6.68,2.61-4.23,11.84,1.82,12.93,3.42.61,5.89.43,9,1.87l-.56,3.86a9,9,0,0,1-8.76,7.72l-57.68-.92a7,7,0,0,1-7-8L246,253.13A8.89,8.89,0,0,1,254.74,245.4Z"/><path class="cls-13" d="M272.89,245.69l22.75.36-.37,3.22a2.76,2.76,0,0,1-2.71,2.39l-17.88-.29a2.18,2.18,0,0,1-2.16-2.47Z"/><path class="cls-28" d="M279.82,279.46a7.59,7.59,0,1,0-7.59-7.59A7.6,7.6,0,0,0,279.82,279.46Z"/><polyline class="cls-14" points="257.19 137.53 259.82 143.7 256.6 143.54"/><path class="cls-29" d="M255.85,146.69a2.9,2.9,0,0,1-2.73-2"/><ellipse class="cls-7" cx="263.01" cy="138.09" rx="1.21" ry="2.46" transform="translate(-28.7 81.97) rotate(-16.81)"/><ellipse class="cls-7" cx="246.96" cy="140.04" rx="1.21" ry="2.46" transform="translate(-29.95 77.42) rotate(-16.81)"/><path class="cls-30" d="M250,132.51c-2.82-1.61-6.36-1-9.94,1.22"/><path class="cls-31" d="M267.66,130.22c-2.82-1.61-6.36-1-9.94,1.22"/><path class="cls-15" d="M229.33,146.33a1.87,1.87,0,0,1,1.46,2.25,2,2,0,0,1-2.18,1.67,1.87,1.87,0,0,1-1.46-2.25A2,2,0,0,1,229.33,146.33Z"/></g></svg>