<svg id="Blanja_-_Ecomerce_Illustration_Kit" data-name="Blanja - Ecomerce Illustration Kit" xmlns="http://www.w3.org/2000/svg" viewBox="0 0 600 336"><defs><style>.cls-1,.cls-8{fill:#efede4;}.cls-10,.cls-11,.cls-12,.cls-17,.cls-2,.cls-9{fill:none;}.cls-10,.cls-2,.cls-8{stroke:#0a0910;}.cls-10,.cls-11,.cls-12,.cls-2,.cls-8,.cls-9{stroke-miterlimit:22.93;}.cls-17,.cls-2,.cls-8{stroke-width:2.13px;}.cls-11,.cls-12,.cls-14,.cls-15,.cls-16,.cls-17,.cls-18,.cls-19,.cls-2,.cls-3,.cls-4,.cls-5,.cls-8{fill-rule:evenodd;}.cls-3{fill:#415ea9;}.cls-13,.cls-4{fill:#0a0910;}.cls-5,.cls-6{fill:#0a080b;}.cls-7{fill:#fff;}.cls-9{stroke:#355da8;}.cls-10,.cls-11,.cls-12,.cls-9{stroke-width:1.42px;}.cls-11{stroke:red;}.cls-12{stroke:#ffa100;}.cls-14{fill:#fc151e;}.cls-15{fill:#a3bcd2;}.cls-16{fill:#070838;}.cls-17{stroke:#fc141c;stroke-linecap:round;stroke-linejoin:round;}.cls-18{fill:#ffab15;}.cls-19{fill:#355da8;}</style></defs><title>Belanja - E-comerce Illustrstion Kit</title><g id="Order_Tracking" data-name="Order Tracking"><rect class="cls-1" width="600" height="336"/><path class="cls-2" d="M438.58,242.64c-9.31-13.41-.75-53.23,10.43-64.57l3.93-41.5c1.75-18.52,31.13-23.08,34.68.72l-4.9,63.42,2,113.65m1.93-165.14-8.48-.74a1.3,1.3,0,0,1-1.18-1.41c.54-6.12.3-16.94,5.89-20.62M360.85,312.76l-1.41-80.26-29.1-42.44L345,126.51c.65-2.79-8-14.32-23.57-39.65C311.18,70.13,337,52.64,348.66,69.8l7.75,11.38"/><path class="cls-3" d="M453.56,51.63l-72-16a17.24,17.24,0,0,0-20.52,13l-39.2,176.11a17.24,17.24,0,0,0,13,20.52l72,16a17.25,17.25,0,0,0,20.52-13l39.2-176.11A17.24,17.24,0,0,0,453.56,51.63Z"/><polygon class="cls-4" points="365.76 52.22 328.67 218.85 328.81 218.88 423.88 240.04 460.97 73.41 365.9 52.24 365.76 52.22"/><path class="cls-5" d="M423.59,52.86l-22.92-5.1a2.11,2.11,0,0,0-2.51,1.6h0a2.11,2.11,0,0,0,1.6,2.51L422.68,57a2.11,2.11,0,0,0,2.51-1.6h0A2.11,2.11,0,0,0,423.59,52.86Z"/><path class="cls-5" d="M430.72,54.77h0a2.07,2.07,0,0,0-2.46,1.56l0,.08a2.07,2.07,0,0,0,1.56,2.46h0a2.07,2.07,0,0,0,2.46-1.56l0-.08A2.07,2.07,0,0,0,430.72,54.77Z"/><path class="cls-4" d="M424,52.62,401,47.52a2.11,2.11,0,0,0-2.51,1.6h0a2.11,2.11,0,0,0,1.6,2.51l22.92,5.1a2.11,2.11,0,0,0,2.51-1.6h0A2.11,2.11,0,0,0,424,52.62Z"/><path class="cls-4" d="M431.1,54.53h0a2.07,2.07,0,0,0-2.46,1.56l0,.08a2.07,2.07,0,0,0,1.56,2.46h0a2.07,2.07,0,0,0,2.46-1.56l0-.08A2.07,2.07,0,0,0,431.1,54.53Z"/><rect class="cls-6" x="366.6" y="232.3" width="14.53" height="15.09" rx="3.97" ry="3.97" transform="translate(58.54 552.68) rotate(-77.45)"/><rect class="cls-7" x="368.23" y="233.98" width="11.28" height="11.71" rx="3.08" ry="3.08" transform="translate(58.53 552.67) rotate(-77.45)"/><rect class="cls-6" x="369.44" y="235.24" width="8.86" height="9.2" rx="2.42" ry="2.42" transform="translate(58.53 552.68) rotate(-77.45)"/><path class="cls-8" d="M314.59,172.21h0A16.92,16.92,0,0,1,338,176.66l20.32,29.83a16.92,16.92,0,0,1-4.45,23.44h0a16.92,16.92,0,0,1-23.44-4.45l-20.32-29.83A16.92,16.92,0,0,1,314.59,172.21Z"/><path class="cls-8" d="M350.08,224.64h0a9.68,9.68,0,0,0,2.55-13.41l-6.79-10a1.24,1.24,0,0,0-1.72-.33l-13.86,9.44a1.3,1.3,0,0,0-.34,1.8l6.75,9.92A9.68,9.68,0,0,0,350.08,224.64Z"/><path class="cls-8" d="M314.57,115.1h0A16.92,16.92,0,0,1,338,119.54l20.32,29.83a16.92,16.92,0,0,1-4.45,23.44h0a16.92,16.92,0,0,1-23.44-4.45l-20.32-29.83A16.92,16.92,0,0,1,314.57,115.1Z"/><path class="cls-8" d="M350.06,167.52h0a9.68,9.68,0,0,0,2.55-13.41l-6.79-10a1.24,1.24,0,0,0-1.72-.33l-13.86,9.44a1.3,1.3,0,0,0-.34,1.8l6.75,9.92A9.68,9.68,0,0,0,350.06,167.52Z"/><circle class="cls-9" cx="515.71" cy="232.21" r="9.98" transform="translate(177 685.16) rotate(-77.45)"/><circle class="cls-9" cx="526.16" cy="103.57" r="4.7" transform="translate(310.76 594.66) rotate(-77.45)"/><circle class="cls-10" cx="540.49" cy="212.75" r="2.58" transform="translate(215.41 694.11) rotate(-77.45)"/><circle class="cls-10" cx="494.76" cy="85.17" r="1.75" transform="translate(304.15 549.62) rotate(-77.45)"/><path class="cls-11" d="M59.72,286.52a11.25,11.25,0,1,0-11.25-11.25A11.27,11.27,0,0,0,59.72,286.52Z"/><path class="cls-12" d="M24.42,246.77a5.3,5.3,0,1,0-5.3-5.3A5.31,5.31,0,0,0,24.42,246.77Z"/><circle class="cls-10" cx="32.81" cy="267.58" r="2.91"/><circle class="cls-10" cx="73.18" cy="290.57" r="1.97"/><rect class="cls-13" x="81.71" y="313.79" width="432" height="2.52" rx="1.26" ry="1.26"/><path class="cls-14" d="M201.35,123A18.94,18.94,0,0,0,182.41,142c0,10.46,17,34.4,18.94,34.31,2.58-.12,18.94-23.85,18.94-34.31A18.94,18.94,0,0,0,201.35,123Zm0,9.37a9.56,9.56,0,1,1-9.56,9.56A9.56,9.56,0,0,1,201.35,132.42Z"/><path class="cls-4" d="M201.5,299.63h-42.3q0,.51,0,1c0,7.82-5.1,14.16-11.39,14.16-4.54,0-8.46-3.3-10.29-8.07a14.25,14.25,0,0,1-1.29-6q0-.56,0-1.1H122.44q0,.51,0,1c0,7.82-5.1,14.16-11.39,14.16-4.54,0-8.46-3.3-10.29-8.07a14.25,14.25,0,0,1-1.29-6q0-.56,0-1.1H96.36c-6.32,0-11.48-4.89-11.48-10.88v-76.5c0-6,5.17-10.88,11.48-10.88H201.5Z"/><path class="cls-3" d="M306.88,299.63H195.69V201.38h66.56c8.53,0,10.89,9.86,14.62,17.63l13.65,28.34,5.1-1.31c.53-.14,1.15.81,1,1.69l-1.24,6.15c8.38,6.08,23.65,4.81,22.39,34.87A11.08,11.08,0,0,1,306.88,299.63Z"/><path class="cls-15" d="M311.3,263.43a22.3,22.3,0,0,1,5.39,10.69c-.17.36-.39.61-.7.61h-9.43a1.38,1.38,0,0,1-1-1.69l1.45-7.13c.18-.88.46-1.55,1-1.69Z"/><path class="cls-16" d="M273.81,212.07c1,2.3,2,4.7,3.06,6.94l.54,1.12h-67.3v-8.06Z"/><path class="cls-16" d="M306.88,299.63H195.69V285.57H317.83q0,1.53-.08,3.19A11.08,11.08,0,0,1,306.88,299.63Z"/><path class="cls-16" d="M244.63,299.63H232.69q0,.51,0,1c0,7.82-5.1,14.16-11.39,14.16-4.54,0-8.46-3.3-10.29-8.07a14.25,14.25,0,0,1-1.29-6q0-.56,0-1.1h-14.1V201.38H200c8.53,0,10.89,9.86,14.62,17.63l14.63,30.38c5.87,12.19,27.75,3.63,26.25,39.37a11.08,11.08,0,0,1-10.88,10.88Zm37.66,7.12a14.25,14.25,0,0,1-1.29-6,14.41,14.41,0,0,1,1-5.39c1.69-5.18,5.78-8.84,10.56-8.84,6.29,0,11.39,6.34,11.39,14.16s-5.1,14.16-11.39,14.16C288,314.82,284.12,311.52,282.29,306.75Z"/><path class="cls-16" d="M244.63,299.63H195.69V285.57h59.89q0,1.53-.08,3.19A11.08,11.08,0,0,1,244.63,299.63Z"/><path class="cls-15" d="M212.36,225.34h-9.52a1.25,1.25,0,0,0-1.31,1.17v25.27a4.65,4.65,0,0,0,4.87,4.35h18.71c.72,0,1.58-.57,1.31-1.17l-12.75-28.45C213.4,225.91,213.08,225.34,212.36,225.34Z"/><path class="cls-15" d="M272.75,225H223.42c-.92,0-1.25.75-.74,1.67l15.38,27.44a3.41,3.41,0,0,0,2.61,1.67H290c.92,0,1.25-.75.74-1.67l-15.38-27.44A3.41,3.41,0,0,0,272.75,225Z"/><path class="cls-15" d="M265.11,265l-16.54-2.44c-.92-.14-2,.81-1.69,1.69l3.34,9.56c.31.88.76,1.69,1.69,1.69h15.61c.93,0,2-.81,1.69-1.69l-2.4-7.13A2.14,2.14,0,0,0,265.11,265Z"/><path class="cls-16" d="M300.33,265H271.8c-1.05,0-2.5,1.12-1.91,2l5.43,8.65c.59.93.86,2,1.91,2h20.38c1,0,1.57-1,1.91-2l2.72-8.65C302.57,266,301.38,265,300.33,265Z"/><path class="cls-16" d="M223,248.48,216.19,246c-.38-.14-.82.81-.69,1.69l1.37,9.56c.13.88.31,1.69.69,1.69H224c.38,0,.81-.81.69-1.69l-1-7.13C223.54,249.29,223.35,248.62,223,248.48Z"/><path class="cls-17" d="M63,246.31c9.65-5.08,13.17.21,16.68,4.32,4.39,5.14,9.45,5.17,14.51,0,3.38-3.46,9.16-10.27,17-.9,7.15,8.58,14.38-8.13,24.81-.44l.34.78"/><path class="cls-16" d="M435,114.3l-25.18-5.79a3.32,3.32,0,0,0-4,2.48h0a3.32,3.32,0,0,0,2.48,4l25.18,5.79a3.32,3.32,0,0,0,4-2.48h0A3.32,3.32,0,0,0,435,114.3Z"/><path class="cls-3" d="M396.95,97l-15.43-3.55a2.72,2.72,0,0,0-3.25,2l-4,17.5a2.72,2.72,0,0,0,2,3.25l15.43,3.55a2.72,2.72,0,0,0,3.25-2l4-17.5a2.72,2.72,0,0,0-2-3.25Zm-4.82,4.49a1.45,1.45,0,0,1,1.09,1.73l-2.15,9.34a1.45,1.45,0,0,1-1.73,1.09l-8.23-1.89A1.45,1.45,0,0,1,380,110l2.15-9.34a1.45,1.45,0,0,1,1.73-1.09Z"/><path class="cls-16" d="M427.61,146.43l-25.18-5.79a3.32,3.32,0,0,0-4,2.48h0a3.32,3.32,0,0,0,2.48,4l25.18,5.79a3.32,3.32,0,0,0,4-2.48h0A3.32,3.32,0,0,0,427.61,146.43Z"/><path class="cls-3" d="M389.57,129.08l-15.43-3.55a2.72,2.72,0,0,0-3.25,2l-4,17.5a2.72,2.72,0,0,0,2,3.25l15.43,3.55a2.72,2.72,0,0,0,3.25-2l4-17.5a2.72,2.72,0,0,0-2-3.25Zm-4.82,4.49a1.45,1.45,0,0,1,1.09,1.73l-2.15,9.34a1.45,1.45,0,0,1-1.73,1.09l-8.23-1.89a1.45,1.45,0,0,1-1.09-1.73l2.15-9.34a1.45,1.45,0,0,1,1.73-1.09Z"/><path class="cls-16" d="M420.23,178.55,395,172.76a3.32,3.32,0,0,0-4,2.48h0a3.32,3.32,0,0,0,2.48,4L418.75,185a3.32,3.32,0,0,0,4-2.48h0A3.32,3.32,0,0,0,420.23,178.55Z"/><path class="cls-3" d="M382.19,161.2l-15.43-3.55a2.72,2.72,0,0,0-3.25,2l-4,17.5a2.72,2.72,0,0,0,2,3.25L376.95,184a2.72,2.72,0,0,0,3.25-2l4-17.5a2.72,2.72,0,0,0-2-3.25Zm-4.82,4.49a1.45,1.45,0,0,1,1.09,1.73l-2.15,9.34a1.45,1.45,0,0,1-1.73,1.09L366.34,176a1.45,1.45,0,0,1-1.09-1.73l2.15-9.34a1.45,1.45,0,0,1,1.73-1.09Z"/><path class="cls-14" d="M367.21,188.84a7,7,0,0,0-8.37,5.24c-.86,3.76,3.27,13.77,4,13.89.94.17,8.77-7,9.64-10.77a7,7,0,0,0-5.24-8.37Zm-.77,3.37a3.53,3.53,0,1,1-4.23,2.65A3.53,3.53,0,0,1,366.44,192.21Z"/><path class="cls-16" d="M412.36,210.42l-25.18-5.79a3.32,3.32,0,0,0-4,2.48h0a3.32,3.32,0,0,0,2.48,4l25.18,5.79a3.32,3.32,0,0,0,4-2.48h0A3.32,3.32,0,0,0,412.36,210.42Z"/><path class="cls-14" d="M101.48,112.76c.06,10.15,5.52,12,10.63,12.11-9.18,1.85-10,3.35-10.88,13.56-.2-7.49-1.2-12.83-11.45-14.5C91.78,124,102.05,126.62,101.48,112.76Z"/><path class="cls-18" d="M134.45,134c0,7.43,4,8.75,7.78,8.87-6.72,1.35-7.33,2.45-8,9.92-.15-5.48-.88-9.39-8.38-10.61C127.34,142.17,134.87,144.11,134.45,134Z"/><path class="cls-19" d="M128.73,67.76c.09,15.57,8.47,18.34,16.32,18.59-14.09,2.84-15.37,5.14-16.69,20.8-.31-11.49-1.83-19.68-17.58-22.25C113.84,85,129.61,89,128.73,67.76Z"/><path class="cls-12" d="M539.22,246.77a5.3,5.3,0,1,0-5.3-5.3A5.31,5.31,0,0,0,539.22,246.77Z"/></g></svg>