<svg id="Blanja_-_Ecomerce_Illustration_Kit" data-name="Blanja - Ecomerce Illustration Kit" xmlns="http://www.w3.org/2000/svg" viewBox="0 0 600 336"><defs><style>.cls-1,.cls-9{fill:#efede4;}.cls-14,.cls-15,.cls-16,.cls-17,.cls-18,.cls-19,.cls-2,.cls-20,.cls-22,.cls-23,.cls-24{fill:none;}.cls-16,.cls-2,.cls-22,.cls-23,.cls-24,.cls-9{stroke:#0a0910;}.cls-15,.cls-16,.cls-17,.cls-18,.cls-2,.cls-20,.cls-9{stroke-miterlimit:22.93;}.cls-14,.cls-19,.cls-2,.cls-20,.cls-9{stroke-width:2.13px;}.cls-10,.cls-11,.cls-14,.cls-15,.cls-17,.cls-18,.cls-19,.cls-2,.cls-20,.cls-21,.cls-22,.cls-23,.cls-25,.cls-27,.cls-29,.cls-30,.cls-31,.cls-32,.cls-4,.cls-5,.cls-6,.cls-9{fill-rule:evenodd;}.cls-29,.cls-3{fill:#415ea9;}.cls-12,.cls-4{fill:#0a0910;}.cls-5{fill:#070838;}.cls-6,.cls-7{fill:#0a080b;}.cls-30,.cls-8{fill:#fff;}.cls-10{fill:#f20000;}.cls-11{fill:#fc141c;}.cls-13,.cls-21{fill:#ffab15;}.cls-14,.cls-18,.cls-20{stroke:#ffa100;}.cls-14,.cls-19,.cls-22,.cls-23,.cls-24{stroke-linecap:round;stroke-linejoin:round;}.cls-15{stroke:#355da8;}.cls-15,.cls-16,.cls-17,.cls-18{stroke-width:1.42px;}.cls-17{stroke:red;}.cls-19{stroke:#fc141c;}.cls-20{stroke-dasharray:4.25 6.38;}.cls-22{stroke-width:1.42px;}.cls-23{stroke-width:1.26px;}.cls-24{stroke-width:0.73px;}.cls-25{fill:#ffa100;}.cls-26,.cls-27{fill:#0a090f;}.cls-28{fill:#f2fa84;}.cls-31{fill:#fc151e;}.cls-32{fill:#355da8;}</style></defs><title>Belanja - E-comerce Illustrstion Kit</title><g id="Payment"><rect class="cls-1" width="600" height="336"/><path class="cls-2" d="M198.84,261.77c13.53-12.48,13.87-58.39,4.34-73.61L209,141.52c2.61-20.82-28.6-33-38.35-7.7l-10.15,71L59.83,311.72M168.77,147.18l9.51,1.26a1.47,1.47,0,0,0,1.64-1.26c.91-6.86,3.82-18.72-1.43-24.13m38.36,213.71,114-106.34-.6-73.54c0-3.23,12.3-13.8,35.65-37.86,15.42-15.89-8.67-41.46-25.75-25.43l-11.32,10.62"/><rect class="cls-3" x="209.76" y="47.89" width="121.98" height="242.18" rx="19.39" ry="19.39"/><polygon class="cls-4" points="325.63 70.05 325.63 262.51 325.47 262.51 215.66 262.51 215.66 70.04 325.47 70.04 325.63 70.05"/><polygon class="cls-5" points="215.66 170.69 215.66 70.04 325.24 70.04 215.66 170.69"/><path class="cls-6" d="M261.82,56.59H288.3A2.38,2.38,0,0,1,290.67,59h0a2.38,2.38,0,0,1-2.37,2.37H261.82A2.38,2.38,0,0,1,259.45,59h0A2.38,2.38,0,0,1,261.82,56.59Z"/><path class="cls-6" d="M253.51,56.94h0a2.33,2.33,0,0,1,2.32,2.32v.1a2.33,2.33,0,0,1-2.32,2.32h0a2.33,2.33,0,0,1-2.32-2.32v-.1A2.33,2.33,0,0,1,253.51,56.94Z"/><path class="cls-4" d="M261.47,56.23h26.47a2.38,2.38,0,0,1,2.37,2.37h0A2.38,2.38,0,0,1,287.94,61H261.47a2.38,2.38,0,0,1-2.37-2.37h0A2.38,2.38,0,0,1,261.47,56.23Z"/><path class="cls-4" d="M253.15,56.59h0a2.33,2.33,0,0,1,2.32,2.32V59a2.33,2.33,0,0,1-2.32,2.32h0A2.33,2.33,0,0,1,250.83,59v-.1A2.33,2.33,0,0,1,253.15,56.59Z"/><rect class="cls-7" x="262.24" y="266.35" width="17.01" height="16.38" rx="4.47" ry="4.47"/><rect class="cls-8" x="264.14" y="268.18" width="13.21" height="12.72" rx="3.47" ry="3.47"/><rect class="cls-7" x="265.56" y="269.55" width="10.37" height="9.99" rx="2.73" ry="2.73"/><path class="cls-9" d="M352.54,214.63h0a19.07,19.07,0,0,0-26.88-.85L296,241.64a19.07,19.07,0,0,0-.85,26.88h0a19.07,19.07,0,0,0,26.88.85l29.67-27.85A19.07,19.07,0,0,0,352.54,214.63Z"/><path class="cls-9" d="M300.65,263.63h0a10.92,10.92,0,0,1,.49-15.39l9.91-9.31a1.4,1.4,0,0,1,2,.06L326,252.79a1.47,1.47,0,0,1-.07,2.07L316,264.12A10.92,10.92,0,0,1,300.65,263.63Z"/><path class="cls-9" d="M350,163.7h0a19.07,19.07,0,0,0-26.88-.85L293.5,190.71a19.07,19.07,0,0,0-.85,26.88h0a19.07,19.07,0,0,0,26.88.85l29.67-27.85A19.07,19.07,0,0,0,350,163.7Z"/><path class="cls-9" d="M298.15,212.7h0a10.92,10.92,0,0,1,.49-15.39l9.91-9.31a1.4,1.4,0,0,1,2,.06l12.95,13.79a1.47,1.47,0,0,1-.07,2.07l-9.86,9.26A10.92,10.92,0,0,1,298.15,212.7Z"/><path class="cls-4" d="M106.22,43.19c9.8,2.65,32.22,12,37.86,14,1.28.45,1,.14,1,1.45,0,35.8-1.36,57.64-38.87,74l-.32.14-.32-.14C68.12,116.26,66.73,94.46,66.7,58.76c0-1.63-.25-1.16,1.44-1.77,6.27-2.25,27.86-11.21,37.43-13.8A.83.83,0,0,1,106.22,43.19Z"/><path class="cls-10" d="M101,43.19c9.8,2.65,32.22,12,37.86,14,1.28.45,1,.14,1,1.45,0,35.8-1.36,57.64-38.87,74l-.32.14-.32-.14C62.87,116.26,61.48,94.46,61.45,58.76c0-1.63-.25-1.16,1.44-1.77,6.27-2.25,27.86-11.21,37.43-13.8A.83.83,0,0,1,101,43.19Z"/><path class="cls-11" d="M100.91,51.15C109,53.33,127.4,61,132,62.62c1.05.37.83.11.83,1.19,0,29.43-1.12,47.38-31.95,60.82l-.27.12-.27-.12C69.6,111.21,68.45,93.3,68.43,64c0-1.34-.21-1,1.18-1.46,5.15-1.85,22.9-9.22,30.77-11.34A.68.68,0,0,1,100.91,51.15Z"/><rect class="cls-12" x="86.71" y="78.12" width="31.23" height="24.54"/><rect class="cls-13" x="83.36" y="78.12" width="31.23" height="24.54"/><path class="cls-4" d="M99,62.69h0a9.7,9.7,0,0,0-9.67,9.67v5.2c0,.19,0,.37,0,.56h1.87q0-.29,0-.59V72.38A7.83,7.83,0,0,1,99,64.58h0a7.83,7.83,0,0,1,7.81,7.81v5.15q0,.3,0,.59h1.87q0-.28,0-.56v-5.2A9.69,9.69,0,0,0,99,62.69Z"/><path class="cls-4" d="M99,85.18a2.76,2.76,0,0,0-1.53,5,5.75,5.75,0,0,0-.31,1.92c0,1.9.82,3.44,1.84,3.44s1.84-1.54,1.84-3.44a5.76,5.76,0,0,0-.31-1.92,2.76,2.76,0,0,0-1.53-5Z"/><path class="cls-14" d="M152.33,255.5c-9.65-5.08-13.17.21-16.68,4.32-4.39,5.14-9.45,5.17-14.51,0-3.38-3.46-9.16-10.27-17-.9-7.15,8.58-14.38-8.13-24.81-.44l-.34.78"/><path class="cls-15" d="M101.47,216.27A11.25,11.25,0,1,0,90.22,205,11.27,11.27,0,0,0,101.47,216.27Z"/><path class="cls-15" d="M207.57,34.92a5.3,5.3,0,1,0-5.3-5.3A5.31,5.31,0,0,0,207.57,34.92Z"/><circle class="cls-16" cx="74.56" cy="197.33" r="2.91"/><circle class="cls-16" cx="246.64" cy="17.07" r="1.97"/><path class="cls-17" d="M463.67,72a11.25,11.25,0,1,0-11.25-11.25A11.27,11.27,0,0,0,463.67,72Z"/><path class="cls-18" d="M499,32.28a5.3,5.3,0,1,0-5.3-5.3A5.31,5.31,0,0,0,499,32.28Z"/><circle class="cls-16" cx="490.58" cy="53.09" r="2.91"/><circle class="cls-16" cx="464.6" cy="101.28" r="1.97"/><path class="cls-19" d="M524.35,162c-9.65-5.08-13.17.21-16.68,4.32-4.39,5.14-9.45,5.17-14.51,0-3.38-3.46-9.16-10.27-17-.9-7.15,8.58-14.38-8.13-24.81-.44l-.34.78"/><path class="cls-20" d="M355,73.36c-28.65,8.94-59.78,27.66-76.08,43.18-14.53,13.84-19,50.35,6.62,47,14.69-1.94,19-25.3,1.35-30.08-15.72-4.26-36.51.53-42.74,14.1-30.28,65.94,25.81,157,138.55,100.75"/><path class="cls-21" d="M360,48.9c35.75-1.14,67.7-7.8,68.44-4.62.92,3.93-26.06,14.93-38.26,27.94l-7.92-6.12L373,71.45l1.07-11.7Z"/><path class="cls-22" d="M317.74,63.88c4.92-2.18,26.9-9.44,39.4-11.25"/><path class="cls-23" d="M351,67.73c6-1.88,12.74-4.63,18.49-6.14"/><path class="cls-22" d="M373.11,71.08l1.25-11.44,46.84-12.53m-60.16,2.43a363.08,363.08,0,0,1,29.07,22"/><line class="cls-24" x1="381.14" y1="77.88" x2="388.04" y2="72.51"/><path class="cls-4" d="M395.26,248l104.85.16a8.21,8.21,0,0,1,8.17,8.19l-.08,63.1a8.2,8.2,0,0,1-8.19,8.17l-104.85-.16a8.21,8.21,0,0,1-8.17-8.19l.08-63.1A8.2,8.2,0,0,1,395.26,248Z"/><path class="cls-25" d="M392.26,246l104.85.16a8.21,8.21,0,0,1,8.17,8.19l-.08,63.1a8.2,8.2,0,0,1-8.19,8.17l-104.85-.16a8.21,8.21,0,0,1-8.17-8.19l.08-63.1A8.2,8.2,0,0,1,392.26,246Z"/><rect class="cls-26" x="435.89" y="209.44" width="17.53" height="121.22" transform="translate(173.91 714.28) rotate(-89.91)"/><path class="cls-27" d="M473.6,296a9.64,9.64,0,1,1-9.65,9.63A9.64,9.64,0,0,1,473.6,296Zm13.15,0a9.64,9.64,0,1,0,9.63,9.65A9.64,9.64,0,0,0,486.75,296Z"/><rect class="cls-28" x="393.96" y="291.69" width="12.58" height="15.56" rx="0.34" ry="0.34" transform="translate(100.2 699.3) rotate(-89.92)"/><rect class="cls-28" x="408.59" y="299.29" width="3.35" height="3.95" rx="0.26" ry="0.26" transform="translate(108.43 711.1) rotate(-89.92)"/><rect class="cls-28" x="408.68" y="292.82" width="3.2" height="3.95" rx="0.26" ry="0.26" transform="translate(114.9 704.66) rotate(-89.92)"/><rect class="cls-28" x="408.99" y="302.54" width="2.55" height="3.95" rx="0.25" ry="0.25" transform="translate(105.17 714.33) rotate(-89.92)"/><rect class="cls-28" x="408.97" y="296.02" width="2.6" height="3.94" rx="0.29" ry="0.29" transform="translate(111.69 707.84) rotate(-89.92)"/><path class="cls-29" d="M498.72,208.38c-9.42,2.55-31,11.51-36.37,13.4-1.23.43-1,.13-1,1.39,0,34.4,1.3,55.38,37.34,71.08l.31.14.31-.14c36-15.68,37.31-36.62,37.34-70.91,0-1.57.24-1.12-1.38-1.7-6-2.17-26.76-10.77-36-13.26A.8.8,0,0,0,498.72,208.38Z"/><path class="cls-4" d="M498.77,216c-7.74,2.09-25.45,9.47-29.9,11-1,.35-.8.11-.8,1.14,0,28.27,1.07,45.52,30.69,58.43l.25.11.25-.11c29.57-12.89,30.67-30.1,30.69-58.29,0-1.29.2-.92-1.14-1.4-5-1.78-22-8.85-29.56-10.9A.66.66,0,0,0,498.77,216Z"/><path class="cls-30" d="M481.09,241.48h0a4.61,4.61,0,0,1,6.48.55l7.71,9.14,14.92-21.92a4.61,4.61,0,0,1,6.38-1.21h0a4.61,4.61,0,0,1,1.21,6.39l-18.32,26.91a4.6,4.6,0,0,1-3.54,2h-.41a4.59,4.59,0,0,1-3.39-1.62L480.54,248A4.61,4.61,0,0,1,481.09,241.48Z"/><path class="cls-25" d="M417.73,109.76a21.58,21.58,0,1,1-21.58,21.58,21.58,21.58,0,0,1,21.58-21.58Zm2.84,27a2.81,2.81,0,0,1-5.62,0h-5.6a8.27,8.27,0,0,0,6.28,8v2.79h4.21v-2.79a8.3,8.3,0,0,0,6.29-8,7.78,7.78,0,0,0-2.46-5.8,8.31,8.31,0,0,0-5.95-2.4,2.75,2.75,0,1,1,2.82-2.76h5.6a8.27,8.27,0,0,0-6.28-7.92V115.1h-4.21v2.82a8.33,8.33,0,0,0-6.33,7.92,7.83,7.83,0,0,0,2.47,5.8,8.19,8.19,0,0,0,5.93,2.4l0,0A2.82,2.82,0,0,1,420.57,136.8Z"/><path class="cls-25" d="M407.15,161.26a12,12,0,1,1-12,12,12,12,0,0,1,12-12Zm1.58,15a1.56,1.56,0,0,1-3.12,0h-3.12a4.6,4.6,0,0,0,3.49,4.45v1.55h2.34v-1.55a4.61,4.61,0,0,0,3.5-4.45,4.33,4.33,0,0,0-1.37-3.23,4.62,4.62,0,0,0-3.31-1.33,1.53,1.53,0,1,1,1.57-1.53h3.11a4.6,4.6,0,0,0-3.49-4.41v-1.57H406v1.57a4.63,4.63,0,0,0-3.52,4.41,4.35,4.35,0,0,0,1.37,3.23,4.55,4.55,0,0,0,3.3,1.33h0A1.57,1.57,0,0,1,408.73,176.3Z"/><path class="cls-31" d="M576.64,141.44c-.06,10.15-5.52,12-10.63,12.11,9.18,1.85,10,3.35,10.88,13.56.2-7.49,1.2-12.83,11.45-14.5C586.34,152.65,576.07,155.3,576.64,141.44Z"/><path class="cls-21" d="M543.67,162.64c0,7.43-4,8.75-7.78,8.87,6.72,1.35,7.33,2.45,8,9.92.15-5.48.88-9.39,8.38-10.61C550.78,170.85,543.25,172.79,543.67,162.64Z"/><path class="cls-32" d="M549.39,96.44c-.09,15.57-8.47,18.34-16.32,18.59,14.09,2.84,15.37,5.14,16.69,20.8.31-11.49,1.83-19.68,17.58-22.25C564.28,113.64,548.51,117.71,549.39,96.44Z"/></g></svg>