<svg id="Blanja_-_Ecomerce_Illustration_Kit" data-name="Blanja - Ecomerce Illustration Kit" xmlns="http://www.w3.org/2000/svg" viewBox="0 0 600 336"><defs><style>.cls-1{fill:#efede4;}.cls-2,.cls-7{fill:#0a0910;}.cls-12,.cls-13,.cls-16,.cls-3,.cls-4,.cls-5,.cls-6,.cls-8{fill:none;}.cls-3,.cls-4,.cls-5,.cls-6,.cls-8{stroke:#0a0910;}.cls-12,.cls-13,.cls-16,.cls-3,.cls-4,.cls-8{stroke-linecap:round;stroke-linejoin:round;}.cls-3,.cls-5,.cls-6{stroke-width:1.42px;}.cls-10,.cls-11,.cls-12,.cls-13,.cls-14,.cls-15,.cls-16,.cls-17,.cls-3,.cls-4,.cls-6,.cls-7,.cls-8,.cls-9{fill-rule:evenodd;}.cls-4{stroke-width:3.4px;}.cls-5,.cls-6{stroke-miterlimit:22.93;}.cls-8{stroke-width:3.4px;}.cls-9{fill:#fc141c;}.cls-10{fill:#355da8;}.cls-11{fill:#ffa100;}.cls-12{stroke:#242f92;}.cls-12,.cls-13,.cls-16{stroke-width:2.13px;}.cls-13{stroke:#f00000;}.cls-14{fill:#fc151e;}.cls-15{fill:#ffab15;}.cls-16{stroke:#ffa100;}.cls-17{fill:#415ea9;}</style></defs><title>Belanja - E-comerce Illustrstion Kit</title><g id="Store_Analitycs" data-name="Store Analitycs"><rect class="cls-1" width="600" height="336"/><rect class="cls-2" x="89.68" y="320.66" width="432" height="2.52" rx="1.26" ry="1.26"/><polyline class="cls-3" points="249.24 130.03 250.52 136.61 247.41 135.77"/><path class="cls-3" d="M248.6,140.92a2.9,2.9,0,0,1-2.24-2.57"/><path class="cls-4" d="M245.54,124.73c-2.42-2.17-6-2.33-10-.9"/><circle class="cls-5" cx="200.14" cy="28.38" r="3.05"/><path class="cls-6" d="M127.44,109.71a11.25,11.25,0,1,0-11.25-11.25A11.27,11.27,0,0,0,127.44,109.71Z"/><path class="cls-6" d="M93.34,65.16a5.3,5.3,0,1,0-5.3-5.3A5.31,5.31,0,0,0,93.34,65.16Z"/><circle class="cls-5" cx="87.33" cy="103.97" r="2.91"/><circle class="cls-5" cx="127" cy="166.71" r="1.97"/><polygon class="cls-7" points="258.28 157.28 252.34 157.43 257.95 162.74 258.28 157.28"/><ellipse class="cls-2" cx="263.04" cy="132.78" rx="2.72" ry="1.33" transform="translate(106.85 382.63) rotate(-84.77)"/><path class="cls-8" d="M271,126.67c-2.22-2.82-6.08-3.68-10.66-2.87"/><path class="cls-3" d="M244.09,129.19a11.72,11.72,0,0,1-4.46,0"/><path class="cls-7" d="M352,254.58a150.3,150.3,0,0,1-8.92-51.86c0-36.93,12.49-69.52,31.54-89l12.71-.05,58.92,83.24-81.49,57.68Z"/><path class="cls-7" d="M497.41,173.72l12.75,0c6.93,32,5.87,60.58-1.15,83.93-10.18,33.89-30.26,60-61.69,64.88-39.59,6.2-67.94-20.43-81.07-56Z"/><path class="cls-9" d="M364.77,254.58a150.3,150.3,0,0,1-8.92-51.86c0-36.93,12.49-69.52,31.54-89l58.88,83.19Z"/><path class="cls-10" d="M510.16,173.72a154.14,154.14,0,0,1,5.43,41c0,59.65-32.57,108-72.75,108-27.53,0-51.48-22.7-63.84-56.17Z"/><path class="cls-7" d="M460.35,87.6c29.5,5.61,52,35.69,60.55,70.77l-49,34.77H459.12L398,106.83C416.65,87.39,438,83.36,460.35,87.6Z"/><path class="cls-11" d="M452.59,87.22c31.46,0,58.26,29.65,68.4,71.15l-49.12,34.77-61.09-86.31C422.61,94.48,437,87.22,452.59,87.22Z"/><path class="cls-12" d="M77.75,209.45c9.65-5.08,13.17.21,16.68,4.32,4.39,5.14,9.45,5.17,14.51,0,3.38-3.46,9.16-10.27,17-.9,7.15,8.58,14.38-8.13,24.81-.44l.34.78"/><path class="cls-13" d="M478.85,264.95c9.65-5.08,13.17.21,16.68,4.32,4.39,5.14,9.45,5.17,14.51,0,3.38-3.46,9.16-10.27,17-.9,7.15,8.58,14.38-8.13,24.81-.44l.34.78"/><path class="cls-14" d="M347.69,66.84c.06,10.15,5.52,12,10.63,12.11-9.18,1.85-10,3.35-10.88,13.56C347.24,85,346.25,79.68,336,78,338,78,348.26,80.7,347.69,66.84Z"/><path class="cls-15" d="M380.66,88c0,7.43,4,8.75,7.78,8.87-6.72,1.35-7.33,2.45-8,9.92-.15-5.48-.88-9.39-8.38-10.61C373.56,96.25,381.08,98.19,380.66,88Z"/><path class="cls-10" d="M374.95,21.84c.09,15.57,8.47,18.34,16.32,18.59-14.09,2.84-15.37,5.14-16.7,20.8C374.26,49.74,372.73,41.55,357,39,360.06,39,375.82,43.11,374.95,21.84Z"/><path class="cls-11" d="M223.51,136.16A1.87,1.87,0,0,1,225,138.4a2,2,0,0,1-2.18,1.67,1.87,1.87,0,0,1-1.46-2.25A2,2,0,0,1,223.51,136.16Z"/><path class="cls-7" d="M219.05,145.23a7.27,7.27,0,0,0,7.66-4.28,8.6,8.6,0,0,1-6,.18Z"/><path class="cls-7" d="M196.93,156.86,203,158l4-3,.22,3.74,2.05.37,1.32-1.34.64,1.69,3.83.69,3.85-14.77a6.53,6.53,0,0,0,.72.09l1.15-4.25a10.75,10.75,0,0,1-5-3.24c-2.74,7-18.82,7.78-18.87,18.89Zm34-57.17c-7.87,4.45-8.93,13.68-10.17,21,1.85.56,4.69.67,7.08,8.55-2-5.9,5.58-1.67,6.87-14.93l15.45,0,1.05-3.49,2.68,3.5,2.73.31,3.29-11.89c-4.72-3.88-11.69-6.29-19.86-5.62a65.58,65.58,0,0,0,2-8.44c1.49-7-2.2-13.67-8.25-15S221.64,77,220.14,84c-1.25,5.85,5.13,12.82,10.79,15.67Zm30,8.25L263,112l4.92.88.75-2.38,1.41,2.68,6.52,1.24c.74-6.88-3.4-14.33-11-19.05Z"/><path class="cls-3" d="M224.46,133.19c-.45-3.75-2.56-6.19-6.91-6.72M292,255.16l22.65-8.55M133.28,242l38.85,15.3m2.47-10.76-38.46-15.43M270.38,111.67l-2.15,41.71c-.19,3.62-2.87,5.56-6.49,6.26m-24.51,59.88,18.45-16.31c5-4.44,12-2.94,12.51,2.16m21.94,40.16,22.46-8.85m-10.48,84.41-16-98.34M266,171.57c3.93,50.25-73.55,42-62.07.26m53.58-14,.68,14.15c1.78,36.89-54.32,30.68-45.81-.93l7.94-29.51c-15.31-10-6.07-27.24,5.24-18.58l.69-2.52M329.86,320.8c-1.64-6.15-17.45-88.13-18.92-93.85-6.82-26.6-8.81-55.37-44.1-55.23l-8.74,0m5.82,49.5a43.23,43.23,0,0,1,10.82-2.78c10.39-1.52,8.82,14-.73,15.28m-9.64,2.59c2.23-.78,8.11-2.79,11.61-2.82,6.28-.06,6.8,11.09-4,13.78-9.74,2.43-12,4.48-20,10.13-21.52,16.8-47.56,38.82-70.22,52.84-29.05,18-65,2.67-57.41-29l12-50.15m43.35-8.16-10,44.79,67.43-48.12c13.8-7.66,24-12,31.23-14.11,19.35-5.81,16.23,12.94,6.48,12.93m-62.69-46.48-31.27.12c-37.14.14-37.72,32-44.68,59.95M161,321l.53-3.41M222,128.13a8.17,8.17,0,0,0-2.86,4.26"/><path class="cls-16" d="M378.9,296.45c-9.65-5.08-13.17.21-16.68,4.32-4.39,5.14-9.45,5.17-14.51,0-3.38-3.46-9.16-10.27-17-.9-7.15,8.58-14.38-8.13-24.81-.44l-.34.78"/><path class="cls-17" d="M279,169.83h0c1.5,1.5,3.43,2.48,3,4.55l-6.18,29.3a24,24,0,0,0-7.49,1.16l6.13-32c.4-2.08,3-4.5,4.55-3ZM266.67,249.6,263.35,265c-.45,2.07-2.43,3-4.55,3h0c-2.12,0-3.44-2.47-3-4.55l2-9.32C260.65,252.33,263.49,250.39,266.67,249.6Z"/><path class="cls-7" d="M279,169.83h0a3.86,3.86,0,0,1,3,4.55L279.58,186l-5-13.57A3.86,3.86,0,0,1,279,169.83Z"/><path class="cls-17" d="M297.94,67.37c18.91,1.25,30,26.05,24.79,55.39s-24.77,52.1-43.68,50.85-30-26.05-24.79-55.39S279,66.12,297.94,67.37Zm-.5,4c-16.16-1.07-33,20-37.57,47.11s4.78,49.92,20.94,51,33-20,37.57-47.11S313.6,72.42,297.44,71.34Z"/><path class="cls-17" d="M309.36,86.26c11.78,16.05,6.23,47.5-4.12,63.67-1.3,1.7-3.51.22-2.75-1.29,9.12-14.75,14.67-44.32,4.83-58.53-3.1-3.33-.5-7.32,2-3.86Zm-7.51,68.32c2.22-2.67-1.23-3.72-2.43-2.18-3.38,3.62-7.11,5.94-10.86,6.52-3.54.21-5.33,6.18,1.31,4.31C294.06,162.06,298.17,159,301.85,154.58Z"/></g></svg>